%TF.GenerationSoftware,KiCad,Pcbnew,8.0.5*%
%TF.CreationDate,2024-11-04T17:11:05+01:00*%
%TF.ProjectId,bouncer,626f756e-6365-4722-9e6b-696361645f70,rev?*%
%TF.SameCoordinates,Original*%
%TF.FileFunction,Legend,Top*%
%TF.FilePolarity,Positive*%
%FSLAX46Y46*%
G04 Gerber Fmt 4.6, Leading zero omitted, Abs format (unit mm)*
G04 Created by KiCad (PCBNEW 8.0.5) date 2024-11-04 17:11:05*
%MOMM*%
%LPD*%
G01*
G04 APERTURE LIST*
%ADD10C,0.150000*%
%ADD11C,0.400000*%
%ADD12C,0.120000*%
G04 APERTURE END LIST*
D10*
X156880131Y-89365895D02*
X156880131Y-89937323D01*
X156880131Y-89937323D02*
X156842036Y-90051609D01*
X156842036Y-90051609D02*
X156765845Y-90127800D01*
X156765845Y-90127800D02*
X156651560Y-90165895D01*
X156651560Y-90165895D02*
X156575369Y-90165895D01*
X157642036Y-90165895D02*
X157261084Y-90165895D01*
X157261084Y-90165895D02*
X157261084Y-89365895D01*
X158365846Y-90089704D02*
X158327750Y-90127800D01*
X158327750Y-90127800D02*
X158213465Y-90165895D01*
X158213465Y-90165895D02*
X158137274Y-90165895D01*
X158137274Y-90165895D02*
X158022988Y-90127800D01*
X158022988Y-90127800D02*
X157946798Y-90051609D01*
X157946798Y-90051609D02*
X157908703Y-89975419D01*
X157908703Y-89975419D02*
X157870607Y-89823038D01*
X157870607Y-89823038D02*
X157870607Y-89708752D01*
X157870607Y-89708752D02*
X157908703Y-89556371D01*
X157908703Y-89556371D02*
X157946798Y-89480180D01*
X157946798Y-89480180D02*
X158022988Y-89403990D01*
X158022988Y-89403990D02*
X158137274Y-89365895D01*
X158137274Y-89365895D02*
X158213465Y-89365895D01*
X158213465Y-89365895D02*
X158327750Y-89403990D01*
X158327750Y-89403990D02*
X158365846Y-89442085D01*
X158937274Y-89365895D02*
X158937274Y-89937323D01*
X158937274Y-89937323D02*
X158899179Y-90051609D01*
X158899179Y-90051609D02*
X158822988Y-90127800D01*
X158822988Y-90127800D02*
X158708703Y-90165895D01*
X158708703Y-90165895D02*
X158632512Y-90165895D01*
X159699179Y-90165895D02*
X159318227Y-90165895D01*
X159318227Y-90165895D02*
X159318227Y-89365895D01*
X160422989Y-90089704D02*
X160384893Y-90127800D01*
X160384893Y-90127800D02*
X160270608Y-90165895D01*
X160270608Y-90165895D02*
X160194417Y-90165895D01*
X160194417Y-90165895D02*
X160080131Y-90127800D01*
X160080131Y-90127800D02*
X160003941Y-90051609D01*
X160003941Y-90051609D02*
X159965846Y-89975419D01*
X159965846Y-89975419D02*
X159927750Y-89823038D01*
X159927750Y-89823038D02*
X159927750Y-89708752D01*
X159927750Y-89708752D02*
X159965846Y-89556371D01*
X159965846Y-89556371D02*
X160003941Y-89480180D01*
X160003941Y-89480180D02*
X160080131Y-89403990D01*
X160080131Y-89403990D02*
X160194417Y-89365895D01*
X160194417Y-89365895D02*
X160270608Y-89365895D01*
X160270608Y-89365895D02*
X160384893Y-89403990D01*
X160384893Y-89403990D02*
X160422989Y-89442085D01*
X160994417Y-89365895D02*
X160994417Y-89937323D01*
X160994417Y-89937323D02*
X160956322Y-90051609D01*
X160956322Y-90051609D02*
X160880131Y-90127800D01*
X160880131Y-90127800D02*
X160765846Y-90165895D01*
X160765846Y-90165895D02*
X160689655Y-90165895D01*
X161756322Y-90165895D02*
X161375370Y-90165895D01*
X161375370Y-90165895D02*
X161375370Y-89365895D01*
X162480132Y-90089704D02*
X162442036Y-90127800D01*
X162442036Y-90127800D02*
X162327751Y-90165895D01*
X162327751Y-90165895D02*
X162251560Y-90165895D01*
X162251560Y-90165895D02*
X162137274Y-90127800D01*
X162137274Y-90127800D02*
X162061084Y-90051609D01*
X162061084Y-90051609D02*
X162022989Y-89975419D01*
X162022989Y-89975419D02*
X161984893Y-89823038D01*
X161984893Y-89823038D02*
X161984893Y-89708752D01*
X161984893Y-89708752D02*
X162022989Y-89556371D01*
X162022989Y-89556371D02*
X162061084Y-89480180D01*
X162061084Y-89480180D02*
X162137274Y-89403990D01*
X162137274Y-89403990D02*
X162251560Y-89365895D01*
X162251560Y-89365895D02*
X162327751Y-89365895D01*
X162327751Y-89365895D02*
X162442036Y-89403990D01*
X162442036Y-89403990D02*
X162480132Y-89442085D01*
X163051560Y-89365895D02*
X163051560Y-89937323D01*
X163051560Y-89937323D02*
X163013465Y-90051609D01*
X163013465Y-90051609D02*
X162937274Y-90127800D01*
X162937274Y-90127800D02*
X162822989Y-90165895D01*
X162822989Y-90165895D02*
X162746798Y-90165895D01*
X163813465Y-90165895D02*
X163432513Y-90165895D01*
X163432513Y-90165895D02*
X163432513Y-89365895D01*
X164537275Y-90089704D02*
X164499179Y-90127800D01*
X164499179Y-90127800D02*
X164384894Y-90165895D01*
X164384894Y-90165895D02*
X164308703Y-90165895D01*
X164308703Y-90165895D02*
X164194417Y-90127800D01*
X164194417Y-90127800D02*
X164118227Y-90051609D01*
X164118227Y-90051609D02*
X164080132Y-89975419D01*
X164080132Y-89975419D02*
X164042036Y-89823038D01*
X164042036Y-89823038D02*
X164042036Y-89708752D01*
X164042036Y-89708752D02*
X164080132Y-89556371D01*
X164080132Y-89556371D02*
X164118227Y-89480180D01*
X164118227Y-89480180D02*
X164194417Y-89403990D01*
X164194417Y-89403990D02*
X164308703Y-89365895D01*
X164308703Y-89365895D02*
X164384894Y-89365895D01*
X164384894Y-89365895D02*
X164499179Y-89403990D01*
X164499179Y-89403990D02*
X164537275Y-89442085D01*
D11*
X190101219Y-107305985D02*
X190196457Y-107020271D01*
X190196457Y-107020271D02*
X190291695Y-106925033D01*
X190291695Y-106925033D02*
X190482171Y-106829795D01*
X190482171Y-106829795D02*
X190767885Y-106829795D01*
X190767885Y-106829795D02*
X190958361Y-106925033D01*
X190958361Y-106925033D02*
X191053600Y-107020271D01*
X191053600Y-107020271D02*
X191148838Y-107210747D01*
X191148838Y-107210747D02*
X191148838Y-107972652D01*
X191148838Y-107972652D02*
X189148838Y-107972652D01*
X189148838Y-107972652D02*
X189148838Y-107305985D01*
X189148838Y-107305985D02*
X189244076Y-107115509D01*
X189244076Y-107115509D02*
X189339314Y-107020271D01*
X189339314Y-107020271D02*
X189529790Y-106925033D01*
X189529790Y-106925033D02*
X189720266Y-106925033D01*
X189720266Y-106925033D02*
X189910742Y-107020271D01*
X189910742Y-107020271D02*
X190005980Y-107115509D01*
X190005980Y-107115509D02*
X190101219Y-107305985D01*
X190101219Y-107305985D02*
X190101219Y-107972652D01*
X191148838Y-105686938D02*
X191053600Y-105877414D01*
X191053600Y-105877414D02*
X190958361Y-105972652D01*
X190958361Y-105972652D02*
X190767885Y-106067890D01*
X190767885Y-106067890D02*
X190196457Y-106067890D01*
X190196457Y-106067890D02*
X190005980Y-105972652D01*
X190005980Y-105972652D02*
X189910742Y-105877414D01*
X189910742Y-105877414D02*
X189815504Y-105686938D01*
X189815504Y-105686938D02*
X189815504Y-105401223D01*
X189815504Y-105401223D02*
X189910742Y-105210747D01*
X189910742Y-105210747D02*
X190005980Y-105115509D01*
X190005980Y-105115509D02*
X190196457Y-105020271D01*
X190196457Y-105020271D02*
X190767885Y-105020271D01*
X190767885Y-105020271D02*
X190958361Y-105115509D01*
X190958361Y-105115509D02*
X191053600Y-105210747D01*
X191053600Y-105210747D02*
X191148838Y-105401223D01*
X191148838Y-105401223D02*
X191148838Y-105686938D01*
X189815504Y-103305985D02*
X191148838Y-103305985D01*
X189815504Y-104163128D02*
X190863123Y-104163128D01*
X190863123Y-104163128D02*
X191053600Y-104067890D01*
X191053600Y-104067890D02*
X191148838Y-103877414D01*
X191148838Y-103877414D02*
X191148838Y-103591699D01*
X191148838Y-103591699D02*
X191053600Y-103401223D01*
X191053600Y-103401223D02*
X190958361Y-103305985D01*
X189815504Y-102353604D02*
X191148838Y-102353604D01*
X190005980Y-102353604D02*
X189910742Y-102258366D01*
X189910742Y-102258366D02*
X189815504Y-102067890D01*
X189815504Y-102067890D02*
X189815504Y-101782175D01*
X189815504Y-101782175D02*
X189910742Y-101591699D01*
X189910742Y-101591699D02*
X190101219Y-101496461D01*
X190101219Y-101496461D02*
X191148838Y-101496461D01*
X191053600Y-99686937D02*
X191148838Y-99877413D01*
X191148838Y-99877413D02*
X191148838Y-100258366D01*
X191148838Y-100258366D02*
X191053600Y-100448842D01*
X191053600Y-100448842D02*
X190958361Y-100544080D01*
X190958361Y-100544080D02*
X190767885Y-100639318D01*
X190767885Y-100639318D02*
X190196457Y-100639318D01*
X190196457Y-100639318D02*
X190005980Y-100544080D01*
X190005980Y-100544080D02*
X189910742Y-100448842D01*
X189910742Y-100448842D02*
X189815504Y-100258366D01*
X189815504Y-100258366D02*
X189815504Y-99877413D01*
X189815504Y-99877413D02*
X189910742Y-99686937D01*
X191053600Y-98067889D02*
X191148838Y-98258365D01*
X191148838Y-98258365D02*
X191148838Y-98639318D01*
X191148838Y-98639318D02*
X191053600Y-98829794D01*
X191053600Y-98829794D02*
X190863123Y-98925032D01*
X190863123Y-98925032D02*
X190101219Y-98925032D01*
X190101219Y-98925032D02*
X189910742Y-98829794D01*
X189910742Y-98829794D02*
X189815504Y-98639318D01*
X189815504Y-98639318D02*
X189815504Y-98258365D01*
X189815504Y-98258365D02*
X189910742Y-98067889D01*
X189910742Y-98067889D02*
X190101219Y-97972651D01*
X190101219Y-97972651D02*
X190291695Y-97972651D01*
X190291695Y-97972651D02*
X190482171Y-98925032D01*
X191148838Y-97115508D02*
X189815504Y-97115508D01*
X190196457Y-97115508D02*
X190005980Y-97020270D01*
X190005980Y-97020270D02*
X189910742Y-96925032D01*
X189910742Y-96925032D02*
X189815504Y-96734556D01*
X189815504Y-96734556D02*
X189815504Y-96544079D01*
D12*
X160388300Y-77876400D02*
X160058100Y-77876400D01*
X160388300Y-77889100D02*
X160388300Y-79184500D01*
X159092900Y-79184500D02*
X159092900Y-77889100D01*
X156514800Y-79197200D02*
X155321000Y-79197200D01*
X165493700Y-77851000D02*
X165163500Y-77851000D01*
X161912300Y-77876400D02*
X161582100Y-77876400D01*
X157899100Y-79197200D02*
X157899100Y-77876400D01*
X162636200Y-79171800D02*
X162966400Y-79171800D01*
X164160200Y-79159100D02*
X164160200Y-77863700D01*
X156845000Y-77876400D02*
X156514800Y-77876400D01*
X164160200Y-79171800D02*
X164490400Y-79171800D01*
X157568900Y-79197200D02*
X157899100Y-79197200D01*
X166687500Y-79171800D02*
X165493700Y-79171800D01*
X165493700Y-77863700D02*
X165493700Y-79159100D01*
X162966400Y-77851000D02*
X164160200Y-77851000D01*
X167017700Y-77851000D02*
X166687500Y-77851000D01*
X154038300Y-79184500D02*
X154038300Y-77889100D01*
X156514800Y-77876400D02*
X156514800Y-79197200D01*
X159092900Y-79197200D02*
X159423100Y-79197200D01*
X161582100Y-79197200D02*
X160388300Y-79197200D01*
X154038300Y-79197200D02*
X154368500Y-79197200D01*
X161582100Y-77876400D02*
X161582100Y-79197200D01*
X155321000Y-77889100D02*
X155321000Y-79184500D01*
X152844500Y-77876400D02*
X154038300Y-77876400D01*
X166687500Y-77851000D02*
X166687500Y-79171800D01*
X157899100Y-77876400D02*
X159092900Y-77876400D01*
X152844500Y-79197200D02*
X152844500Y-77876400D01*
X152514300Y-79197200D02*
X152844500Y-79197200D01*
X162966400Y-79171800D02*
X162966400Y-77851000D01*
X155321000Y-77876400D02*
X154990800Y-77876400D01*
D10*
X160724886Y-78061457D02*
X160772505Y-78013838D01*
X160772505Y-78013838D02*
X160867743Y-77966219D01*
X160867743Y-77966219D02*
X161105838Y-77966219D01*
X161105838Y-77966219D02*
X161201076Y-78013838D01*
X161201076Y-78013838D02*
X161248695Y-78061457D01*
X161248695Y-78061457D02*
X161296314Y-78156695D01*
X161296314Y-78156695D02*
X161296314Y-78251933D01*
X161296314Y-78251933D02*
X161248695Y-78394790D01*
X161248695Y-78394790D02*
X160677267Y-78966219D01*
X160677267Y-78966219D02*
X161296314Y-78966219D01*
X156229014Y-78966219D02*
X155657586Y-78966219D01*
X155943300Y-78966219D02*
X155943300Y-77966219D01*
X155943300Y-77966219D02*
X155848062Y-78109076D01*
X155848062Y-78109076D02*
X155752824Y-78204314D01*
X155752824Y-78204314D02*
X155657586Y-78251933D01*
X149133086Y-78686866D02*
X149894991Y-78686866D01*
X149514038Y-79067819D02*
X149514038Y-78305914D01*
X150847371Y-78067819D02*
X150371181Y-78067819D01*
X150371181Y-78067819D02*
X150323562Y-78544009D01*
X150323562Y-78544009D02*
X150371181Y-78496390D01*
X150371181Y-78496390D02*
X150466419Y-78448771D01*
X150466419Y-78448771D02*
X150704514Y-78448771D01*
X150704514Y-78448771D02*
X150799752Y-78496390D01*
X150799752Y-78496390D02*
X150847371Y-78544009D01*
X150847371Y-78544009D02*
X150894990Y-78639247D01*
X150894990Y-78639247D02*
X150894990Y-78877342D01*
X150894990Y-78877342D02*
X150847371Y-78972580D01*
X150847371Y-78972580D02*
X150799752Y-79020200D01*
X150799752Y-79020200D02*
X150704514Y-79067819D01*
X150704514Y-79067819D02*
X150466419Y-79067819D01*
X150466419Y-79067819D02*
X150371181Y-79020200D01*
X150371181Y-79020200D02*
X150323562Y-78972580D01*
X151180705Y-78067819D02*
X151514038Y-79067819D01*
X151514038Y-79067819D02*
X151847371Y-78067819D01*
X158235686Y-78188457D02*
X158283305Y-78140838D01*
X158283305Y-78140838D02*
X158378543Y-78093219D01*
X158378543Y-78093219D02*
X158616638Y-78093219D01*
X158616638Y-78093219D02*
X158711876Y-78140838D01*
X158711876Y-78140838D02*
X158759495Y-78188457D01*
X158759495Y-78188457D02*
X158807114Y-78283695D01*
X158807114Y-78283695D02*
X158807114Y-78378933D01*
X158807114Y-78378933D02*
X158759495Y-78521790D01*
X158759495Y-78521790D02*
X158188067Y-79093219D01*
X158188067Y-79093219D02*
X158807114Y-79093219D01*
X165782667Y-77940819D02*
X166401714Y-77940819D01*
X166401714Y-77940819D02*
X166068381Y-78321771D01*
X166068381Y-78321771D02*
X166211238Y-78321771D01*
X166211238Y-78321771D02*
X166306476Y-78369390D01*
X166306476Y-78369390D02*
X166354095Y-78417009D01*
X166354095Y-78417009D02*
X166401714Y-78512247D01*
X166401714Y-78512247D02*
X166401714Y-78750342D01*
X166401714Y-78750342D02*
X166354095Y-78845580D01*
X166354095Y-78845580D02*
X166306476Y-78893200D01*
X166306476Y-78893200D02*
X166211238Y-78940819D01*
X166211238Y-78940819D02*
X165925524Y-78940819D01*
X165925524Y-78940819D02*
X165830286Y-78893200D01*
X165830286Y-78893200D02*
X165782667Y-78845580D01*
X174780913Y-121698609D02*
X174923770Y-121746228D01*
X174923770Y-121746228D02*
X174971389Y-121793847D01*
X174971389Y-121793847D02*
X175019008Y-121889085D01*
X175019008Y-121889085D02*
X175019008Y-122031942D01*
X175019008Y-122031942D02*
X174971389Y-122127180D01*
X174971389Y-122127180D02*
X174923770Y-122174800D01*
X174923770Y-122174800D02*
X174828532Y-122222419D01*
X174828532Y-122222419D02*
X174447580Y-122222419D01*
X174447580Y-122222419D02*
X174447580Y-121222419D01*
X174447580Y-121222419D02*
X174780913Y-121222419D01*
X174780913Y-121222419D02*
X174876151Y-121270038D01*
X174876151Y-121270038D02*
X174923770Y-121317657D01*
X174923770Y-121317657D02*
X174971389Y-121412895D01*
X174971389Y-121412895D02*
X174971389Y-121508133D01*
X174971389Y-121508133D02*
X174923770Y-121603371D01*
X174923770Y-121603371D02*
X174876151Y-121650990D01*
X174876151Y-121650990D02*
X174780913Y-121698609D01*
X174780913Y-121698609D02*
X174447580Y-121698609D01*
X175876151Y-121555752D02*
X175876151Y-122222419D01*
X175447580Y-121555752D02*
X175447580Y-122079561D01*
X175447580Y-122079561D02*
X175495199Y-122174800D01*
X175495199Y-122174800D02*
X175590437Y-122222419D01*
X175590437Y-122222419D02*
X175733294Y-122222419D01*
X175733294Y-122222419D02*
X175828532Y-122174800D01*
X175828532Y-122174800D02*
X175876151Y-122127180D01*
X176209485Y-121555752D02*
X176590437Y-121555752D01*
X176352342Y-121222419D02*
X176352342Y-122079561D01*
X176352342Y-122079561D02*
X176399961Y-122174800D01*
X176399961Y-122174800D02*
X176495199Y-122222419D01*
X176495199Y-122222419D02*
X176590437Y-122222419D01*
X176780914Y-121555752D02*
X177161866Y-121555752D01*
X176923771Y-121222419D02*
X176923771Y-122079561D01*
X176923771Y-122079561D02*
X176971390Y-122174800D01*
X176971390Y-122174800D02*
X177066628Y-122222419D01*
X177066628Y-122222419D02*
X177161866Y-122222419D01*
X177638057Y-122222419D02*
X177542819Y-122174800D01*
X177542819Y-122174800D02*
X177495200Y-122127180D01*
X177495200Y-122127180D02*
X177447581Y-122031942D01*
X177447581Y-122031942D02*
X177447581Y-121746228D01*
X177447581Y-121746228D02*
X177495200Y-121650990D01*
X177495200Y-121650990D02*
X177542819Y-121603371D01*
X177542819Y-121603371D02*
X177638057Y-121555752D01*
X177638057Y-121555752D02*
X177780914Y-121555752D01*
X177780914Y-121555752D02*
X177876152Y-121603371D01*
X177876152Y-121603371D02*
X177923771Y-121650990D01*
X177923771Y-121650990D02*
X177971390Y-121746228D01*
X177971390Y-121746228D02*
X177971390Y-122031942D01*
X177971390Y-122031942D02*
X177923771Y-122127180D01*
X177923771Y-122127180D02*
X177876152Y-122174800D01*
X177876152Y-122174800D02*
X177780914Y-122222419D01*
X177780914Y-122222419D02*
X177638057Y-122222419D01*
X178399962Y-121555752D02*
X178399962Y-122222419D01*
X178399962Y-121650990D02*
X178447581Y-121603371D01*
X178447581Y-121603371D02*
X178542819Y-121555752D01*
X178542819Y-121555752D02*
X178685676Y-121555752D01*
X178685676Y-121555752D02*
X178780914Y-121603371D01*
X178780914Y-121603371D02*
X178828533Y-121698609D01*
X178828533Y-121698609D02*
X178828533Y-122222419D01*
X179971391Y-121222419D02*
X180590438Y-121222419D01*
X180590438Y-121222419D02*
X180257105Y-121603371D01*
X180257105Y-121603371D02*
X180399962Y-121603371D01*
X180399962Y-121603371D02*
X180495200Y-121650990D01*
X180495200Y-121650990D02*
X180542819Y-121698609D01*
X180542819Y-121698609D02*
X180590438Y-121793847D01*
X180590438Y-121793847D02*
X180590438Y-122031942D01*
X180590438Y-122031942D02*
X180542819Y-122127180D01*
X180542819Y-122127180D02*
X180495200Y-122174800D01*
X180495200Y-122174800D02*
X180399962Y-122222419D01*
X180399962Y-122222419D02*
X180114248Y-122222419D01*
X180114248Y-122222419D02*
X180019010Y-122174800D01*
X180019010Y-122174800D02*
X179971391Y-122127180D01*
X138814513Y-121698609D02*
X138957370Y-121746228D01*
X138957370Y-121746228D02*
X139004989Y-121793847D01*
X139004989Y-121793847D02*
X139052608Y-121889085D01*
X139052608Y-121889085D02*
X139052608Y-122031942D01*
X139052608Y-122031942D02*
X139004989Y-122127180D01*
X139004989Y-122127180D02*
X138957370Y-122174800D01*
X138957370Y-122174800D02*
X138862132Y-122222419D01*
X138862132Y-122222419D02*
X138481180Y-122222419D01*
X138481180Y-122222419D02*
X138481180Y-121222419D01*
X138481180Y-121222419D02*
X138814513Y-121222419D01*
X138814513Y-121222419D02*
X138909751Y-121270038D01*
X138909751Y-121270038D02*
X138957370Y-121317657D01*
X138957370Y-121317657D02*
X139004989Y-121412895D01*
X139004989Y-121412895D02*
X139004989Y-121508133D01*
X139004989Y-121508133D02*
X138957370Y-121603371D01*
X138957370Y-121603371D02*
X138909751Y-121650990D01*
X138909751Y-121650990D02*
X138814513Y-121698609D01*
X138814513Y-121698609D02*
X138481180Y-121698609D01*
X139909751Y-121555752D02*
X139909751Y-122222419D01*
X139481180Y-121555752D02*
X139481180Y-122079561D01*
X139481180Y-122079561D02*
X139528799Y-122174800D01*
X139528799Y-122174800D02*
X139624037Y-122222419D01*
X139624037Y-122222419D02*
X139766894Y-122222419D01*
X139766894Y-122222419D02*
X139862132Y-122174800D01*
X139862132Y-122174800D02*
X139909751Y-122127180D01*
X140243085Y-121555752D02*
X140624037Y-121555752D01*
X140385942Y-121222419D02*
X140385942Y-122079561D01*
X140385942Y-122079561D02*
X140433561Y-122174800D01*
X140433561Y-122174800D02*
X140528799Y-122222419D01*
X140528799Y-122222419D02*
X140624037Y-122222419D01*
X140814514Y-121555752D02*
X141195466Y-121555752D01*
X140957371Y-121222419D02*
X140957371Y-122079561D01*
X140957371Y-122079561D02*
X141004990Y-122174800D01*
X141004990Y-122174800D02*
X141100228Y-122222419D01*
X141100228Y-122222419D02*
X141195466Y-122222419D01*
X141671657Y-122222419D02*
X141576419Y-122174800D01*
X141576419Y-122174800D02*
X141528800Y-122127180D01*
X141528800Y-122127180D02*
X141481181Y-122031942D01*
X141481181Y-122031942D02*
X141481181Y-121746228D01*
X141481181Y-121746228D02*
X141528800Y-121650990D01*
X141528800Y-121650990D02*
X141576419Y-121603371D01*
X141576419Y-121603371D02*
X141671657Y-121555752D01*
X141671657Y-121555752D02*
X141814514Y-121555752D01*
X141814514Y-121555752D02*
X141909752Y-121603371D01*
X141909752Y-121603371D02*
X141957371Y-121650990D01*
X141957371Y-121650990D02*
X142004990Y-121746228D01*
X142004990Y-121746228D02*
X142004990Y-122031942D01*
X142004990Y-122031942D02*
X141957371Y-122127180D01*
X141957371Y-122127180D02*
X141909752Y-122174800D01*
X141909752Y-122174800D02*
X141814514Y-122222419D01*
X141814514Y-122222419D02*
X141671657Y-122222419D01*
X142433562Y-121555752D02*
X142433562Y-122222419D01*
X142433562Y-121650990D02*
X142481181Y-121603371D01*
X142481181Y-121603371D02*
X142576419Y-121555752D01*
X142576419Y-121555752D02*
X142719276Y-121555752D01*
X142719276Y-121555752D02*
X142814514Y-121603371D01*
X142814514Y-121603371D02*
X142862133Y-121698609D01*
X142862133Y-121698609D02*
X142862133Y-122222419D01*
X144624038Y-122222419D02*
X144052610Y-122222419D01*
X144338324Y-122222419D02*
X144338324Y-121222419D01*
X144338324Y-121222419D02*
X144243086Y-121365276D01*
X144243086Y-121365276D02*
X144147848Y-121460514D01*
X144147848Y-121460514D02*
X144052610Y-121508133D01*
X156772313Y-121673209D02*
X156915170Y-121720828D01*
X156915170Y-121720828D02*
X156962789Y-121768447D01*
X156962789Y-121768447D02*
X157010408Y-121863685D01*
X157010408Y-121863685D02*
X157010408Y-122006542D01*
X157010408Y-122006542D02*
X156962789Y-122101780D01*
X156962789Y-122101780D02*
X156915170Y-122149400D01*
X156915170Y-122149400D02*
X156819932Y-122197019D01*
X156819932Y-122197019D02*
X156438980Y-122197019D01*
X156438980Y-122197019D02*
X156438980Y-121197019D01*
X156438980Y-121197019D02*
X156772313Y-121197019D01*
X156772313Y-121197019D02*
X156867551Y-121244638D01*
X156867551Y-121244638D02*
X156915170Y-121292257D01*
X156915170Y-121292257D02*
X156962789Y-121387495D01*
X156962789Y-121387495D02*
X156962789Y-121482733D01*
X156962789Y-121482733D02*
X156915170Y-121577971D01*
X156915170Y-121577971D02*
X156867551Y-121625590D01*
X156867551Y-121625590D02*
X156772313Y-121673209D01*
X156772313Y-121673209D02*
X156438980Y-121673209D01*
X157867551Y-121530352D02*
X157867551Y-122197019D01*
X157438980Y-121530352D02*
X157438980Y-122054161D01*
X157438980Y-122054161D02*
X157486599Y-122149400D01*
X157486599Y-122149400D02*
X157581837Y-122197019D01*
X157581837Y-122197019D02*
X157724694Y-122197019D01*
X157724694Y-122197019D02*
X157819932Y-122149400D01*
X157819932Y-122149400D02*
X157867551Y-122101780D01*
X158200885Y-121530352D02*
X158581837Y-121530352D01*
X158343742Y-121197019D02*
X158343742Y-122054161D01*
X158343742Y-122054161D02*
X158391361Y-122149400D01*
X158391361Y-122149400D02*
X158486599Y-122197019D01*
X158486599Y-122197019D02*
X158581837Y-122197019D01*
X158772314Y-121530352D02*
X159153266Y-121530352D01*
X158915171Y-121197019D02*
X158915171Y-122054161D01*
X158915171Y-122054161D02*
X158962790Y-122149400D01*
X158962790Y-122149400D02*
X159058028Y-122197019D01*
X159058028Y-122197019D02*
X159153266Y-122197019D01*
X159629457Y-122197019D02*
X159534219Y-122149400D01*
X159534219Y-122149400D02*
X159486600Y-122101780D01*
X159486600Y-122101780D02*
X159438981Y-122006542D01*
X159438981Y-122006542D02*
X159438981Y-121720828D01*
X159438981Y-121720828D02*
X159486600Y-121625590D01*
X159486600Y-121625590D02*
X159534219Y-121577971D01*
X159534219Y-121577971D02*
X159629457Y-121530352D01*
X159629457Y-121530352D02*
X159772314Y-121530352D01*
X159772314Y-121530352D02*
X159867552Y-121577971D01*
X159867552Y-121577971D02*
X159915171Y-121625590D01*
X159915171Y-121625590D02*
X159962790Y-121720828D01*
X159962790Y-121720828D02*
X159962790Y-122006542D01*
X159962790Y-122006542D02*
X159915171Y-122101780D01*
X159915171Y-122101780D02*
X159867552Y-122149400D01*
X159867552Y-122149400D02*
X159772314Y-122197019D01*
X159772314Y-122197019D02*
X159629457Y-122197019D01*
X160391362Y-121530352D02*
X160391362Y-122197019D01*
X160391362Y-121625590D02*
X160438981Y-121577971D01*
X160438981Y-121577971D02*
X160534219Y-121530352D01*
X160534219Y-121530352D02*
X160677076Y-121530352D01*
X160677076Y-121530352D02*
X160772314Y-121577971D01*
X160772314Y-121577971D02*
X160819933Y-121673209D01*
X160819933Y-121673209D02*
X160819933Y-122197019D01*
X162010410Y-121292257D02*
X162058029Y-121244638D01*
X162058029Y-121244638D02*
X162153267Y-121197019D01*
X162153267Y-121197019D02*
X162391362Y-121197019D01*
X162391362Y-121197019D02*
X162486600Y-121244638D01*
X162486600Y-121244638D02*
X162534219Y-121292257D01*
X162534219Y-121292257D02*
X162581838Y-121387495D01*
X162581838Y-121387495D02*
X162581838Y-121482733D01*
X162581838Y-121482733D02*
X162534219Y-121625590D01*
X162534219Y-121625590D02*
X161962791Y-122197019D01*
X161962791Y-122197019D02*
X162581838Y-122197019D01*
X163255367Y-78067819D02*
X163874414Y-78067819D01*
X163874414Y-78067819D02*
X163541081Y-78448771D01*
X163541081Y-78448771D02*
X163683938Y-78448771D01*
X163683938Y-78448771D02*
X163779176Y-78496390D01*
X163779176Y-78496390D02*
X163826795Y-78544009D01*
X163826795Y-78544009D02*
X163874414Y-78639247D01*
X163874414Y-78639247D02*
X163874414Y-78877342D01*
X163874414Y-78877342D02*
X163826795Y-78972580D01*
X163826795Y-78972580D02*
X163779176Y-79020200D01*
X163779176Y-79020200D02*
X163683938Y-79067819D01*
X163683938Y-79067819D02*
X163398224Y-79067819D01*
X163398224Y-79067819D02*
X163302986Y-79020200D01*
X163302986Y-79020200D02*
X163255367Y-78972580D01*
X153752514Y-79093219D02*
X153181086Y-79093219D01*
X153466800Y-79093219D02*
X153466800Y-78093219D01*
X153466800Y-78093219D02*
X153371562Y-78236076D01*
X153371562Y-78236076D02*
X153276324Y-78331314D01*
X153276324Y-78331314D02*
X153181086Y-78378933D01*
X168148095Y-78090038D02*
X168052857Y-78042419D01*
X168052857Y-78042419D02*
X167910000Y-78042419D01*
X167910000Y-78042419D02*
X167767143Y-78090038D01*
X167767143Y-78090038D02*
X167671905Y-78185276D01*
X167671905Y-78185276D02*
X167624286Y-78280514D01*
X167624286Y-78280514D02*
X167576667Y-78470990D01*
X167576667Y-78470990D02*
X167576667Y-78613847D01*
X167576667Y-78613847D02*
X167624286Y-78804323D01*
X167624286Y-78804323D02*
X167671905Y-78899561D01*
X167671905Y-78899561D02*
X167767143Y-78994800D01*
X167767143Y-78994800D02*
X167910000Y-79042419D01*
X167910000Y-79042419D02*
X168005238Y-79042419D01*
X168005238Y-79042419D02*
X168148095Y-78994800D01*
X168148095Y-78994800D02*
X168195714Y-78947180D01*
X168195714Y-78947180D02*
X168195714Y-78613847D01*
X168195714Y-78613847D02*
X168005238Y-78613847D01*
X168624286Y-79042419D02*
X168624286Y-78042419D01*
X168624286Y-78042419D02*
X169195714Y-79042419D01*
X169195714Y-79042419D02*
X169195714Y-78042419D01*
X169671905Y-79042419D02*
X169671905Y-78042419D01*
X169671905Y-78042419D02*
X169910000Y-78042419D01*
X169910000Y-78042419D02*
X170052857Y-78090038D01*
X170052857Y-78090038D02*
X170148095Y-78185276D01*
X170148095Y-78185276D02*
X170195714Y-78280514D01*
X170195714Y-78280514D02*
X170243333Y-78470990D01*
X170243333Y-78470990D02*
X170243333Y-78613847D01*
X170243333Y-78613847D02*
X170195714Y-78804323D01*
X170195714Y-78804323D02*
X170148095Y-78899561D01*
X170148095Y-78899561D02*
X170052857Y-78994800D01*
X170052857Y-78994800D02*
X169910000Y-79042419D01*
X169910000Y-79042419D02*
X169671905Y-79042419D01*
X161395580Y-99429866D02*
X161443200Y-99477485D01*
X161443200Y-99477485D02*
X161490819Y-99620342D01*
X161490819Y-99620342D02*
X161490819Y-99715580D01*
X161490819Y-99715580D02*
X161443200Y-99858437D01*
X161443200Y-99858437D02*
X161347961Y-99953675D01*
X161347961Y-99953675D02*
X161252723Y-100001294D01*
X161252723Y-100001294D02*
X161062247Y-100048913D01*
X161062247Y-100048913D02*
X160919390Y-100048913D01*
X160919390Y-100048913D02*
X160728914Y-100001294D01*
X160728914Y-100001294D02*
X160633676Y-99953675D01*
X160633676Y-99953675D02*
X160538438Y-99858437D01*
X160538438Y-99858437D02*
X160490819Y-99715580D01*
X160490819Y-99715580D02*
X160490819Y-99620342D01*
X160490819Y-99620342D02*
X160538438Y-99477485D01*
X160538438Y-99477485D02*
X160586057Y-99429866D01*
X160586057Y-99048913D02*
X160538438Y-99001294D01*
X160538438Y-99001294D02*
X160490819Y-98906056D01*
X160490819Y-98906056D02*
X160490819Y-98667961D01*
X160490819Y-98667961D02*
X160538438Y-98572723D01*
X160538438Y-98572723D02*
X160586057Y-98525104D01*
X160586057Y-98525104D02*
X160681295Y-98477485D01*
X160681295Y-98477485D02*
X160776533Y-98477485D01*
X160776533Y-98477485D02*
X160919390Y-98525104D01*
X160919390Y-98525104D02*
X161490819Y-99096532D01*
X161490819Y-99096532D02*
X161490819Y-98477485D01*
X156793019Y-100318628D02*
X156793019Y-100890056D01*
X156793019Y-100604342D02*
X155793019Y-100604342D01*
X155793019Y-100604342D02*
X155935876Y-100699580D01*
X155935876Y-100699580D02*
X156031114Y-100794818D01*
X156031114Y-100794818D02*
X156078733Y-100890056D01*
X155793019Y-99699580D02*
X155793019Y-99604342D01*
X155793019Y-99604342D02*
X155840638Y-99509104D01*
X155840638Y-99509104D02*
X155888257Y-99461485D01*
X155888257Y-99461485D02*
X155983495Y-99413866D01*
X155983495Y-99413866D02*
X156173971Y-99366247D01*
X156173971Y-99366247D02*
X156412066Y-99366247D01*
X156412066Y-99366247D02*
X156602542Y-99413866D01*
X156602542Y-99413866D02*
X156697780Y-99461485D01*
X156697780Y-99461485D02*
X156745400Y-99509104D01*
X156745400Y-99509104D02*
X156793019Y-99604342D01*
X156793019Y-99604342D02*
X156793019Y-99699580D01*
X156793019Y-99699580D02*
X156745400Y-99794818D01*
X156745400Y-99794818D02*
X156697780Y-99842437D01*
X156697780Y-99842437D02*
X156602542Y-99890056D01*
X156602542Y-99890056D02*
X156412066Y-99937675D01*
X156412066Y-99937675D02*
X156173971Y-99937675D01*
X156173971Y-99937675D02*
X155983495Y-99890056D01*
X155983495Y-99890056D02*
X155888257Y-99842437D01*
X155888257Y-99842437D02*
X155840638Y-99794818D01*
X155840638Y-99794818D02*
X155793019Y-99699580D01*
X156126352Y-98509104D02*
X156793019Y-98509104D01*
X156126352Y-98937675D02*
X156650161Y-98937675D01*
X156650161Y-98937675D02*
X156745400Y-98890056D01*
X156745400Y-98890056D02*
X156793019Y-98794818D01*
X156793019Y-98794818D02*
X156793019Y-98651961D01*
X156793019Y-98651961D02*
X156745400Y-98556723D01*
X156745400Y-98556723D02*
X156697780Y-98509104D01*
X156269209Y-97699580D02*
X156269209Y-98032913D01*
X156793019Y-98032913D02*
X155793019Y-98032913D01*
X155793019Y-98032913D02*
X155793019Y-97556723D01*
X179480380Y-99312266D02*
X179528000Y-99359885D01*
X179528000Y-99359885D02*
X179575619Y-99502742D01*
X179575619Y-99502742D02*
X179575619Y-99597980D01*
X179575619Y-99597980D02*
X179528000Y-99740837D01*
X179528000Y-99740837D02*
X179432761Y-99836075D01*
X179432761Y-99836075D02*
X179337523Y-99883694D01*
X179337523Y-99883694D02*
X179147047Y-99931313D01*
X179147047Y-99931313D02*
X179004190Y-99931313D01*
X179004190Y-99931313D02*
X178813714Y-99883694D01*
X178813714Y-99883694D02*
X178718476Y-99836075D01*
X178718476Y-99836075D02*
X178623238Y-99740837D01*
X178623238Y-99740837D02*
X178575619Y-99597980D01*
X178575619Y-99597980D02*
X178575619Y-99502742D01*
X178575619Y-99502742D02*
X178623238Y-99359885D01*
X178623238Y-99359885D02*
X178670857Y-99312266D01*
X178908952Y-98455123D02*
X179575619Y-98455123D01*
X178528000Y-98693218D02*
X179242285Y-98931313D01*
X179242285Y-98931313D02*
X179242285Y-98312266D01*
X174852419Y-100217028D02*
X174852419Y-100788456D01*
X174852419Y-100502742D02*
X173852419Y-100502742D01*
X173852419Y-100502742D02*
X173995276Y-100597980D01*
X173995276Y-100597980D02*
X174090514Y-100693218D01*
X174090514Y-100693218D02*
X174138133Y-100788456D01*
X173852419Y-99597980D02*
X173852419Y-99502742D01*
X173852419Y-99502742D02*
X173900038Y-99407504D01*
X173900038Y-99407504D02*
X173947657Y-99359885D01*
X173947657Y-99359885D02*
X174042895Y-99312266D01*
X174042895Y-99312266D02*
X174233371Y-99264647D01*
X174233371Y-99264647D02*
X174471466Y-99264647D01*
X174471466Y-99264647D02*
X174661942Y-99312266D01*
X174661942Y-99312266D02*
X174757180Y-99359885D01*
X174757180Y-99359885D02*
X174804800Y-99407504D01*
X174804800Y-99407504D02*
X174852419Y-99502742D01*
X174852419Y-99502742D02*
X174852419Y-99597980D01*
X174852419Y-99597980D02*
X174804800Y-99693218D01*
X174804800Y-99693218D02*
X174757180Y-99740837D01*
X174757180Y-99740837D02*
X174661942Y-99788456D01*
X174661942Y-99788456D02*
X174471466Y-99836075D01*
X174471466Y-99836075D02*
X174233371Y-99836075D01*
X174233371Y-99836075D02*
X174042895Y-99788456D01*
X174042895Y-99788456D02*
X173947657Y-99740837D01*
X173947657Y-99740837D02*
X173900038Y-99693218D01*
X173900038Y-99693218D02*
X173852419Y-99597980D01*
X174185752Y-98407504D02*
X174852419Y-98407504D01*
X174185752Y-98836075D02*
X174709561Y-98836075D01*
X174709561Y-98836075D02*
X174804800Y-98788456D01*
X174804800Y-98788456D02*
X174852419Y-98693218D01*
X174852419Y-98693218D02*
X174852419Y-98550361D01*
X174852419Y-98550361D02*
X174804800Y-98455123D01*
X174804800Y-98455123D02*
X174757180Y-98407504D01*
X174328609Y-97597980D02*
X174328609Y-97931313D01*
X174852419Y-97931313D02*
X173852419Y-97931313D01*
X173852419Y-97931313D02*
X173852419Y-97455123D01*
X139025333Y-105509219D02*
X138692000Y-105033028D01*
X138453905Y-105509219D02*
X138453905Y-104509219D01*
X138453905Y-104509219D02*
X138834857Y-104509219D01*
X138834857Y-104509219D02*
X138930095Y-104556838D01*
X138930095Y-104556838D02*
X138977714Y-104604457D01*
X138977714Y-104604457D02*
X139025333Y-104699695D01*
X139025333Y-104699695D02*
X139025333Y-104842552D01*
X139025333Y-104842552D02*
X138977714Y-104937790D01*
X138977714Y-104937790D02*
X138930095Y-104985409D01*
X138930095Y-104985409D02*
X138834857Y-105033028D01*
X138834857Y-105033028D02*
X138453905Y-105033028D01*
X139977714Y-105509219D02*
X139406286Y-105509219D01*
X139692000Y-105509219D02*
X139692000Y-104509219D01*
X139692000Y-104509219D02*
X139596762Y-104652076D01*
X139596762Y-104652076D02*
X139501524Y-104747314D01*
X139501524Y-104747314D02*
X139406286Y-104794933D01*
X138380886Y-102234457D02*
X138428505Y-102186838D01*
X138428505Y-102186838D02*
X138523743Y-102139219D01*
X138523743Y-102139219D02*
X138761838Y-102139219D01*
X138761838Y-102139219D02*
X138857076Y-102186838D01*
X138857076Y-102186838D02*
X138904695Y-102234457D01*
X138904695Y-102234457D02*
X138952314Y-102329695D01*
X138952314Y-102329695D02*
X138952314Y-102424933D01*
X138952314Y-102424933D02*
X138904695Y-102567790D01*
X138904695Y-102567790D02*
X138333267Y-103139219D01*
X138333267Y-103139219D02*
X138952314Y-103139219D01*
X139380886Y-103139219D02*
X139380886Y-102139219D01*
X139952314Y-103139219D02*
X139523743Y-102567790D01*
X139952314Y-102139219D02*
X139380886Y-102710647D01*
X148384419Y-101893666D02*
X147908228Y-102226999D01*
X148384419Y-102465094D02*
X147384419Y-102465094D01*
X147384419Y-102465094D02*
X147384419Y-102084142D01*
X147384419Y-102084142D02*
X147432038Y-101988904D01*
X147432038Y-101988904D02*
X147479657Y-101941285D01*
X147479657Y-101941285D02*
X147574895Y-101893666D01*
X147574895Y-101893666D02*
X147717752Y-101893666D01*
X147717752Y-101893666D02*
X147812990Y-101941285D01*
X147812990Y-101941285D02*
X147860609Y-101988904D01*
X147860609Y-101988904D02*
X147908228Y-102084142D01*
X147908228Y-102084142D02*
X147908228Y-102465094D01*
X147479657Y-101512713D02*
X147432038Y-101465094D01*
X147432038Y-101465094D02*
X147384419Y-101369856D01*
X147384419Y-101369856D02*
X147384419Y-101131761D01*
X147384419Y-101131761D02*
X147432038Y-101036523D01*
X147432038Y-101036523D02*
X147479657Y-100988904D01*
X147479657Y-100988904D02*
X147574895Y-100941285D01*
X147574895Y-100941285D02*
X147670133Y-100941285D01*
X147670133Y-100941285D02*
X147812990Y-100988904D01*
X147812990Y-100988904D02*
X148384419Y-101560332D01*
X148384419Y-101560332D02*
X148384419Y-100941285D01*
X144963619Y-102941285D02*
X144963619Y-103417475D01*
X144963619Y-103417475D02*
X145439809Y-103465094D01*
X145439809Y-103465094D02*
X145392190Y-103417475D01*
X145392190Y-103417475D02*
X145344571Y-103322237D01*
X145344571Y-103322237D02*
X145344571Y-103084142D01*
X145344571Y-103084142D02*
X145392190Y-102988904D01*
X145392190Y-102988904D02*
X145439809Y-102941285D01*
X145439809Y-102941285D02*
X145535047Y-102893666D01*
X145535047Y-102893666D02*
X145773142Y-102893666D01*
X145773142Y-102893666D02*
X145868380Y-102941285D01*
X145868380Y-102941285D02*
X145916000Y-102988904D01*
X145916000Y-102988904D02*
X145963619Y-103084142D01*
X145963619Y-103084142D02*
X145963619Y-103322237D01*
X145963619Y-103322237D02*
X145916000Y-103417475D01*
X145916000Y-103417475D02*
X145868380Y-103465094D01*
X144963619Y-102036523D02*
X144963619Y-102226999D01*
X144963619Y-102226999D02*
X145011238Y-102322237D01*
X145011238Y-102322237D02*
X145058857Y-102369856D01*
X145058857Y-102369856D02*
X145201714Y-102465094D01*
X145201714Y-102465094D02*
X145392190Y-102512713D01*
X145392190Y-102512713D02*
X145773142Y-102512713D01*
X145773142Y-102512713D02*
X145868380Y-102465094D01*
X145868380Y-102465094D02*
X145916000Y-102417475D01*
X145916000Y-102417475D02*
X145963619Y-102322237D01*
X145963619Y-102322237D02*
X145963619Y-102131761D01*
X145963619Y-102131761D02*
X145916000Y-102036523D01*
X145916000Y-102036523D02*
X145868380Y-101988904D01*
X145868380Y-101988904D02*
X145773142Y-101941285D01*
X145773142Y-101941285D02*
X145535047Y-101941285D01*
X145535047Y-101941285D02*
X145439809Y-101988904D01*
X145439809Y-101988904D02*
X145392190Y-102036523D01*
X145392190Y-102036523D02*
X145344571Y-102131761D01*
X145344571Y-102131761D02*
X145344571Y-102322237D01*
X145344571Y-102322237D02*
X145392190Y-102417475D01*
X145392190Y-102417475D02*
X145439809Y-102465094D01*
X145439809Y-102465094D02*
X145535047Y-102512713D01*
X144963619Y-101322237D02*
X144963619Y-101226999D01*
X144963619Y-101226999D02*
X145011238Y-101131761D01*
X145011238Y-101131761D02*
X145058857Y-101084142D01*
X145058857Y-101084142D02*
X145154095Y-101036523D01*
X145154095Y-101036523D02*
X145344571Y-100988904D01*
X145344571Y-100988904D02*
X145582666Y-100988904D01*
X145582666Y-100988904D02*
X145773142Y-101036523D01*
X145773142Y-101036523D02*
X145868380Y-101084142D01*
X145868380Y-101084142D02*
X145916000Y-101131761D01*
X145916000Y-101131761D02*
X145963619Y-101226999D01*
X145963619Y-101226999D02*
X145963619Y-101322237D01*
X145963619Y-101322237D02*
X145916000Y-101417475D01*
X145916000Y-101417475D02*
X145868380Y-101465094D01*
X145868380Y-101465094D02*
X145773142Y-101512713D01*
X145773142Y-101512713D02*
X145582666Y-101560332D01*
X145582666Y-101560332D02*
X145344571Y-101560332D01*
X145344571Y-101560332D02*
X145154095Y-101512713D01*
X145154095Y-101512713D02*
X145058857Y-101465094D01*
X145058857Y-101465094D02*
X145011238Y-101417475D01*
X145011238Y-101417475D02*
X144963619Y-101322237D01*
X145963619Y-99988904D02*
X145487428Y-100322237D01*
X145963619Y-100560332D02*
X144963619Y-100560332D01*
X144963619Y-100560332D02*
X144963619Y-100179380D01*
X144963619Y-100179380D02*
X145011238Y-100084142D01*
X145011238Y-100084142D02*
X145058857Y-100036523D01*
X145058857Y-100036523D02*
X145154095Y-99988904D01*
X145154095Y-99988904D02*
X145296952Y-99988904D01*
X145296952Y-99988904D02*
X145392190Y-100036523D01*
X145392190Y-100036523D02*
X145439809Y-100084142D01*
X145439809Y-100084142D02*
X145487428Y-100179380D01*
X145487428Y-100179380D02*
X145487428Y-100560332D01*
X140187067Y-114961200D02*
X140329924Y-115008819D01*
X140329924Y-115008819D02*
X140568019Y-115008819D01*
X140568019Y-115008819D02*
X140663257Y-114961200D01*
X140663257Y-114961200D02*
X140710876Y-114913580D01*
X140710876Y-114913580D02*
X140758495Y-114818342D01*
X140758495Y-114818342D02*
X140758495Y-114723104D01*
X140758495Y-114723104D02*
X140710876Y-114627866D01*
X140710876Y-114627866D02*
X140663257Y-114580247D01*
X140663257Y-114580247D02*
X140568019Y-114532628D01*
X140568019Y-114532628D02*
X140377543Y-114485009D01*
X140377543Y-114485009D02*
X140282305Y-114437390D01*
X140282305Y-114437390D02*
X140234686Y-114389771D01*
X140234686Y-114389771D02*
X140187067Y-114294533D01*
X140187067Y-114294533D02*
X140187067Y-114199295D01*
X140187067Y-114199295D02*
X140234686Y-114104057D01*
X140234686Y-114104057D02*
X140282305Y-114056438D01*
X140282305Y-114056438D02*
X140377543Y-114008819D01*
X140377543Y-114008819D02*
X140615638Y-114008819D01*
X140615638Y-114008819D02*
X140758495Y-114056438D01*
X141091829Y-114008819D02*
X141329924Y-115008819D01*
X141329924Y-115008819D02*
X141520400Y-114294533D01*
X141520400Y-114294533D02*
X141710876Y-115008819D01*
X141710876Y-115008819D02*
X141948972Y-114008819D01*
X142853733Y-115008819D02*
X142282305Y-115008819D01*
X142568019Y-115008819D02*
X142568019Y-114008819D01*
X142568019Y-114008819D02*
X142472781Y-114151676D01*
X142472781Y-114151676D02*
X142377543Y-114246914D01*
X142377543Y-114246914D02*
X142282305Y-114294533D01*
X158153267Y-114986600D02*
X158296124Y-115034219D01*
X158296124Y-115034219D02*
X158534219Y-115034219D01*
X158534219Y-115034219D02*
X158629457Y-114986600D01*
X158629457Y-114986600D02*
X158677076Y-114938980D01*
X158677076Y-114938980D02*
X158724695Y-114843742D01*
X158724695Y-114843742D02*
X158724695Y-114748504D01*
X158724695Y-114748504D02*
X158677076Y-114653266D01*
X158677076Y-114653266D02*
X158629457Y-114605647D01*
X158629457Y-114605647D02*
X158534219Y-114558028D01*
X158534219Y-114558028D02*
X158343743Y-114510409D01*
X158343743Y-114510409D02*
X158248505Y-114462790D01*
X158248505Y-114462790D02*
X158200886Y-114415171D01*
X158200886Y-114415171D02*
X158153267Y-114319933D01*
X158153267Y-114319933D02*
X158153267Y-114224695D01*
X158153267Y-114224695D02*
X158200886Y-114129457D01*
X158200886Y-114129457D02*
X158248505Y-114081838D01*
X158248505Y-114081838D02*
X158343743Y-114034219D01*
X158343743Y-114034219D02*
X158581838Y-114034219D01*
X158581838Y-114034219D02*
X158724695Y-114081838D01*
X159058029Y-114034219D02*
X159296124Y-115034219D01*
X159296124Y-115034219D02*
X159486600Y-114319933D01*
X159486600Y-114319933D02*
X159677076Y-115034219D01*
X159677076Y-115034219D02*
X159915172Y-114034219D01*
X160248505Y-114129457D02*
X160296124Y-114081838D01*
X160296124Y-114081838D02*
X160391362Y-114034219D01*
X160391362Y-114034219D02*
X160629457Y-114034219D01*
X160629457Y-114034219D02*
X160724695Y-114081838D01*
X160724695Y-114081838D02*
X160772314Y-114129457D01*
X160772314Y-114129457D02*
X160819933Y-114224695D01*
X160819933Y-114224695D02*
X160819933Y-114319933D01*
X160819933Y-114319933D02*
X160772314Y-114462790D01*
X160772314Y-114462790D02*
X160200886Y-115034219D01*
X160200886Y-115034219D02*
X160819933Y-115034219D01*
X153302619Y-90464704D02*
X154112142Y-90464704D01*
X154112142Y-90464704D02*
X154207380Y-90417085D01*
X154207380Y-90417085D02*
X154255000Y-90369466D01*
X154255000Y-90369466D02*
X154302619Y-90274228D01*
X154302619Y-90274228D02*
X154302619Y-90083752D01*
X154302619Y-90083752D02*
X154255000Y-89988514D01*
X154255000Y-89988514D02*
X154207380Y-89940895D01*
X154207380Y-89940895D02*
X154112142Y-89893276D01*
X154112142Y-89893276D02*
X153302619Y-89893276D01*
X154302619Y-88893276D02*
X154302619Y-89464704D01*
X154302619Y-89178990D02*
X153302619Y-89178990D01*
X153302619Y-89178990D02*
X153445476Y-89274228D01*
X153445476Y-89274228D02*
X153540714Y-89369466D01*
X153540714Y-89369466D02*
X153588333Y-89464704D01*
X169485779Y-92488513D02*
X169485779Y-91821847D01*
X169485779Y-91821847D02*
X170485779Y-92250418D01*
X169819112Y-91012323D02*
X170485779Y-91012323D01*
X169438160Y-91250418D02*
X170152445Y-91488513D01*
X170152445Y-91488513D02*
X170152445Y-90869466D01*
X170485779Y-90488513D02*
X169485779Y-90488513D01*
X169961969Y-90488513D02*
X169961969Y-89917085D01*
X170485779Y-89917085D02*
X169485779Y-89917085D01*
X170390540Y-88869466D02*
X170438160Y-88917085D01*
X170438160Y-88917085D02*
X170485779Y-89059942D01*
X170485779Y-89059942D02*
X170485779Y-89155180D01*
X170485779Y-89155180D02*
X170438160Y-89298037D01*
X170438160Y-89298037D02*
X170342921Y-89393275D01*
X170342921Y-89393275D02*
X170247683Y-89440894D01*
X170247683Y-89440894D02*
X170057207Y-89488513D01*
X170057207Y-89488513D02*
X169914350Y-89488513D01*
X169914350Y-89488513D02*
X169723874Y-89440894D01*
X169723874Y-89440894D02*
X169628636Y-89393275D01*
X169628636Y-89393275D02*
X169533398Y-89298037D01*
X169533398Y-89298037D02*
X169485779Y-89155180D01*
X169485779Y-89155180D02*
X169485779Y-89059942D01*
X169485779Y-89059942D02*
X169533398Y-88917085D01*
X169533398Y-88917085D02*
X169581017Y-88869466D01*
X170485779Y-87917085D02*
X170485779Y-88488513D01*
X170485779Y-88202799D02*
X169485779Y-88202799D01*
X169485779Y-88202799D02*
X169628636Y-88298037D01*
X169628636Y-88298037D02*
X169723874Y-88393275D01*
X169723874Y-88393275D02*
X169771493Y-88488513D01*
X169819112Y-87059942D02*
X170485779Y-87059942D01*
X169438160Y-87298037D02*
X170152445Y-87536132D01*
X170152445Y-87536132D02*
X170152445Y-86917085D01*
X147510019Y-81867333D02*
X148224304Y-81867333D01*
X148224304Y-81867333D02*
X148367161Y-81914952D01*
X148367161Y-81914952D02*
X148462400Y-82010190D01*
X148462400Y-82010190D02*
X148510019Y-82153047D01*
X148510019Y-82153047D02*
X148510019Y-82248285D01*
X148510019Y-80867333D02*
X148510019Y-81438761D01*
X148510019Y-81153047D02*
X147510019Y-81153047D01*
X147510019Y-81153047D02*
X147652876Y-81248285D01*
X147652876Y-81248285D02*
X147748114Y-81343523D01*
X147748114Y-81343523D02*
X147795733Y-81438761D01*
X175093333Y-105306019D02*
X174760000Y-104829828D01*
X174521905Y-105306019D02*
X174521905Y-104306019D01*
X174521905Y-104306019D02*
X174902857Y-104306019D01*
X174902857Y-104306019D02*
X174998095Y-104353638D01*
X174998095Y-104353638D02*
X175045714Y-104401257D01*
X175045714Y-104401257D02*
X175093333Y-104496495D01*
X175093333Y-104496495D02*
X175093333Y-104639352D01*
X175093333Y-104639352D02*
X175045714Y-104734590D01*
X175045714Y-104734590D02*
X174998095Y-104782209D01*
X174998095Y-104782209D02*
X174902857Y-104829828D01*
X174902857Y-104829828D02*
X174521905Y-104829828D01*
X175998095Y-104306019D02*
X175521905Y-104306019D01*
X175521905Y-104306019D02*
X175474286Y-104782209D01*
X175474286Y-104782209D02*
X175521905Y-104734590D01*
X175521905Y-104734590D02*
X175617143Y-104686971D01*
X175617143Y-104686971D02*
X175855238Y-104686971D01*
X175855238Y-104686971D02*
X175950476Y-104734590D01*
X175950476Y-104734590D02*
X175998095Y-104782209D01*
X175998095Y-104782209D02*
X176045714Y-104877447D01*
X176045714Y-104877447D02*
X176045714Y-105115542D01*
X176045714Y-105115542D02*
X175998095Y-105210780D01*
X175998095Y-105210780D02*
X175950476Y-105258400D01*
X175950476Y-105258400D02*
X175855238Y-105306019D01*
X175855238Y-105306019D02*
X175617143Y-105306019D01*
X175617143Y-105306019D02*
X175521905Y-105258400D01*
X175521905Y-105258400D02*
X175474286Y-105210780D01*
X174474286Y-102031257D02*
X174521905Y-101983638D01*
X174521905Y-101983638D02*
X174617143Y-101936019D01*
X174617143Y-101936019D02*
X174855238Y-101936019D01*
X174855238Y-101936019D02*
X174950476Y-101983638D01*
X174950476Y-101983638D02*
X174998095Y-102031257D01*
X174998095Y-102031257D02*
X175045714Y-102126495D01*
X175045714Y-102126495D02*
X175045714Y-102221733D01*
X175045714Y-102221733D02*
X174998095Y-102364590D01*
X174998095Y-102364590D02*
X174426667Y-102936019D01*
X174426667Y-102936019D02*
X175045714Y-102936019D01*
X175474286Y-102936019D02*
X175474286Y-101936019D01*
X176045714Y-102936019D02*
X175617143Y-102364590D01*
X176045714Y-101936019D02*
X175474286Y-102507447D01*
X157059333Y-105356819D02*
X156726000Y-104880628D01*
X156487905Y-105356819D02*
X156487905Y-104356819D01*
X156487905Y-104356819D02*
X156868857Y-104356819D01*
X156868857Y-104356819D02*
X156964095Y-104404438D01*
X156964095Y-104404438D02*
X157011714Y-104452057D01*
X157011714Y-104452057D02*
X157059333Y-104547295D01*
X157059333Y-104547295D02*
X157059333Y-104690152D01*
X157059333Y-104690152D02*
X157011714Y-104785390D01*
X157011714Y-104785390D02*
X156964095Y-104833009D01*
X156964095Y-104833009D02*
X156868857Y-104880628D01*
X156868857Y-104880628D02*
X156487905Y-104880628D01*
X157392667Y-104356819D02*
X158011714Y-104356819D01*
X158011714Y-104356819D02*
X157678381Y-104737771D01*
X157678381Y-104737771D02*
X157821238Y-104737771D01*
X157821238Y-104737771D02*
X157916476Y-104785390D01*
X157916476Y-104785390D02*
X157964095Y-104833009D01*
X157964095Y-104833009D02*
X158011714Y-104928247D01*
X158011714Y-104928247D02*
X158011714Y-105166342D01*
X158011714Y-105166342D02*
X157964095Y-105261580D01*
X157964095Y-105261580D02*
X157916476Y-105309200D01*
X157916476Y-105309200D02*
X157821238Y-105356819D01*
X157821238Y-105356819D02*
X157535524Y-105356819D01*
X157535524Y-105356819D02*
X157440286Y-105309200D01*
X157440286Y-105309200D02*
X157392667Y-105261580D01*
X156414886Y-102082057D02*
X156462505Y-102034438D01*
X156462505Y-102034438D02*
X156557743Y-101986819D01*
X156557743Y-101986819D02*
X156795838Y-101986819D01*
X156795838Y-101986819D02*
X156891076Y-102034438D01*
X156891076Y-102034438D02*
X156938695Y-102082057D01*
X156938695Y-102082057D02*
X156986314Y-102177295D01*
X156986314Y-102177295D02*
X156986314Y-102272533D01*
X156986314Y-102272533D02*
X156938695Y-102415390D01*
X156938695Y-102415390D02*
X156367267Y-102986819D01*
X156367267Y-102986819D02*
X156986314Y-102986819D01*
X157414886Y-102986819D02*
X157414886Y-101986819D01*
X157986314Y-102986819D02*
X157557743Y-102415390D01*
X157986314Y-101986819D02*
X157414886Y-102558247D01*
X145579619Y-91300899D02*
X145579619Y-91872327D01*
X145579619Y-91586613D02*
X144579619Y-91586613D01*
X144579619Y-91586613D02*
X144722476Y-91681851D01*
X144722476Y-91681851D02*
X144817714Y-91777089D01*
X144817714Y-91777089D02*
X144865333Y-91872327D01*
X144579619Y-90681851D02*
X144579619Y-90586613D01*
X144579619Y-90586613D02*
X144627238Y-90491375D01*
X144627238Y-90491375D02*
X144674857Y-90443756D01*
X144674857Y-90443756D02*
X144770095Y-90396137D01*
X144770095Y-90396137D02*
X144960571Y-90348518D01*
X144960571Y-90348518D02*
X145198666Y-90348518D01*
X145198666Y-90348518D02*
X145389142Y-90396137D01*
X145389142Y-90396137D02*
X145484380Y-90443756D01*
X145484380Y-90443756D02*
X145532000Y-90491375D01*
X145532000Y-90491375D02*
X145579619Y-90586613D01*
X145579619Y-90586613D02*
X145579619Y-90681851D01*
X145579619Y-90681851D02*
X145532000Y-90777089D01*
X145532000Y-90777089D02*
X145484380Y-90824708D01*
X145484380Y-90824708D02*
X145389142Y-90872327D01*
X145389142Y-90872327D02*
X145198666Y-90919946D01*
X145198666Y-90919946D02*
X144960571Y-90919946D01*
X144960571Y-90919946D02*
X144770095Y-90872327D01*
X144770095Y-90872327D02*
X144674857Y-90824708D01*
X144674857Y-90824708D02*
X144627238Y-90777089D01*
X144627238Y-90777089D02*
X144579619Y-90681851D01*
X144579619Y-89729470D02*
X144579619Y-89634232D01*
X144579619Y-89634232D02*
X144627238Y-89538994D01*
X144627238Y-89538994D02*
X144674857Y-89491375D01*
X144674857Y-89491375D02*
X144770095Y-89443756D01*
X144770095Y-89443756D02*
X144960571Y-89396137D01*
X144960571Y-89396137D02*
X145198666Y-89396137D01*
X145198666Y-89396137D02*
X145389142Y-89443756D01*
X145389142Y-89443756D02*
X145484380Y-89491375D01*
X145484380Y-89491375D02*
X145532000Y-89538994D01*
X145532000Y-89538994D02*
X145579619Y-89634232D01*
X145579619Y-89634232D02*
X145579619Y-89729470D01*
X145579619Y-89729470D02*
X145532000Y-89824708D01*
X145532000Y-89824708D02*
X145484380Y-89872327D01*
X145484380Y-89872327D02*
X145389142Y-89919946D01*
X145389142Y-89919946D02*
X145198666Y-89967565D01*
X145198666Y-89967565D02*
X144960571Y-89967565D01*
X144960571Y-89967565D02*
X144770095Y-89919946D01*
X144770095Y-89919946D02*
X144674857Y-89872327D01*
X144674857Y-89872327D02*
X144627238Y-89824708D01*
X144627238Y-89824708D02*
X144579619Y-89729470D01*
X144912952Y-88967565D02*
X145579619Y-88967565D01*
X145008190Y-88967565D02*
X144960571Y-88919946D01*
X144960571Y-88919946D02*
X144912952Y-88824708D01*
X144912952Y-88824708D02*
X144912952Y-88681851D01*
X144912952Y-88681851D02*
X144960571Y-88586613D01*
X144960571Y-88586613D02*
X145055809Y-88538994D01*
X145055809Y-88538994D02*
X145579619Y-88538994D01*
X145055809Y-87729470D02*
X145055809Y-88062803D01*
X145579619Y-88062803D02*
X144579619Y-88062803D01*
X144579619Y-88062803D02*
X144579619Y-87586613D01*
X176128067Y-114972000D02*
X176270924Y-115019619D01*
X176270924Y-115019619D02*
X176509019Y-115019619D01*
X176509019Y-115019619D02*
X176604257Y-114972000D01*
X176604257Y-114972000D02*
X176651876Y-114924380D01*
X176651876Y-114924380D02*
X176699495Y-114829142D01*
X176699495Y-114829142D02*
X176699495Y-114733904D01*
X176699495Y-114733904D02*
X176651876Y-114638666D01*
X176651876Y-114638666D02*
X176604257Y-114591047D01*
X176604257Y-114591047D02*
X176509019Y-114543428D01*
X176509019Y-114543428D02*
X176318543Y-114495809D01*
X176318543Y-114495809D02*
X176223305Y-114448190D01*
X176223305Y-114448190D02*
X176175686Y-114400571D01*
X176175686Y-114400571D02*
X176128067Y-114305333D01*
X176128067Y-114305333D02*
X176128067Y-114210095D01*
X176128067Y-114210095D02*
X176175686Y-114114857D01*
X176175686Y-114114857D02*
X176223305Y-114067238D01*
X176223305Y-114067238D02*
X176318543Y-114019619D01*
X176318543Y-114019619D02*
X176556638Y-114019619D01*
X176556638Y-114019619D02*
X176699495Y-114067238D01*
X177032829Y-114019619D02*
X177270924Y-115019619D01*
X177270924Y-115019619D02*
X177461400Y-114305333D01*
X177461400Y-114305333D02*
X177651876Y-115019619D01*
X177651876Y-115019619D02*
X177889972Y-114019619D01*
X178175686Y-114019619D02*
X178794733Y-114019619D01*
X178794733Y-114019619D02*
X178461400Y-114400571D01*
X178461400Y-114400571D02*
X178604257Y-114400571D01*
X178604257Y-114400571D02*
X178699495Y-114448190D01*
X178699495Y-114448190D02*
X178747114Y-114495809D01*
X178747114Y-114495809D02*
X178794733Y-114591047D01*
X178794733Y-114591047D02*
X178794733Y-114829142D01*
X178794733Y-114829142D02*
X178747114Y-114924380D01*
X178747114Y-114924380D02*
X178699495Y-114972000D01*
X178699495Y-114972000D02*
X178604257Y-115019619D01*
X178604257Y-115019619D02*
X178318543Y-115019619D01*
X178318543Y-115019619D02*
X178223305Y-114972000D01*
X178223305Y-114972000D02*
X178175686Y-114924380D01*
X184249219Y-101715866D02*
X183773028Y-102049199D01*
X184249219Y-102287294D02*
X183249219Y-102287294D01*
X183249219Y-102287294D02*
X183249219Y-101906342D01*
X183249219Y-101906342D02*
X183296838Y-101811104D01*
X183296838Y-101811104D02*
X183344457Y-101763485D01*
X183344457Y-101763485D02*
X183439695Y-101715866D01*
X183439695Y-101715866D02*
X183582552Y-101715866D01*
X183582552Y-101715866D02*
X183677790Y-101763485D01*
X183677790Y-101763485D02*
X183725409Y-101811104D01*
X183725409Y-101811104D02*
X183773028Y-101906342D01*
X183773028Y-101906342D02*
X183773028Y-102287294D01*
X183249219Y-100858723D02*
X183249219Y-101049199D01*
X183249219Y-101049199D02*
X183296838Y-101144437D01*
X183296838Y-101144437D02*
X183344457Y-101192056D01*
X183344457Y-101192056D02*
X183487314Y-101287294D01*
X183487314Y-101287294D02*
X183677790Y-101334913D01*
X183677790Y-101334913D02*
X184058742Y-101334913D01*
X184058742Y-101334913D02*
X184153980Y-101287294D01*
X184153980Y-101287294D02*
X184201600Y-101239675D01*
X184201600Y-101239675D02*
X184249219Y-101144437D01*
X184249219Y-101144437D02*
X184249219Y-100953961D01*
X184249219Y-100953961D02*
X184201600Y-100858723D01*
X184201600Y-100858723D02*
X184153980Y-100811104D01*
X184153980Y-100811104D02*
X184058742Y-100763485D01*
X184058742Y-100763485D02*
X183820647Y-100763485D01*
X183820647Y-100763485D02*
X183725409Y-100811104D01*
X183725409Y-100811104D02*
X183677790Y-100858723D01*
X183677790Y-100858723D02*
X183630171Y-100953961D01*
X183630171Y-100953961D02*
X183630171Y-101144437D01*
X183630171Y-101144437D02*
X183677790Y-101239675D01*
X183677790Y-101239675D02*
X183725409Y-101287294D01*
X183725409Y-101287294D02*
X183820647Y-101334913D01*
X180879219Y-102763485D02*
X180879219Y-103239675D01*
X180879219Y-103239675D02*
X181355409Y-103287294D01*
X181355409Y-103287294D02*
X181307790Y-103239675D01*
X181307790Y-103239675D02*
X181260171Y-103144437D01*
X181260171Y-103144437D02*
X181260171Y-102906342D01*
X181260171Y-102906342D02*
X181307790Y-102811104D01*
X181307790Y-102811104D02*
X181355409Y-102763485D01*
X181355409Y-102763485D02*
X181450647Y-102715866D01*
X181450647Y-102715866D02*
X181688742Y-102715866D01*
X181688742Y-102715866D02*
X181783980Y-102763485D01*
X181783980Y-102763485D02*
X181831600Y-102811104D01*
X181831600Y-102811104D02*
X181879219Y-102906342D01*
X181879219Y-102906342D02*
X181879219Y-103144437D01*
X181879219Y-103144437D02*
X181831600Y-103239675D01*
X181831600Y-103239675D02*
X181783980Y-103287294D01*
X180879219Y-101858723D02*
X180879219Y-102049199D01*
X180879219Y-102049199D02*
X180926838Y-102144437D01*
X180926838Y-102144437D02*
X180974457Y-102192056D01*
X180974457Y-102192056D02*
X181117314Y-102287294D01*
X181117314Y-102287294D02*
X181307790Y-102334913D01*
X181307790Y-102334913D02*
X181688742Y-102334913D01*
X181688742Y-102334913D02*
X181783980Y-102287294D01*
X181783980Y-102287294D02*
X181831600Y-102239675D01*
X181831600Y-102239675D02*
X181879219Y-102144437D01*
X181879219Y-102144437D02*
X181879219Y-101953961D01*
X181879219Y-101953961D02*
X181831600Y-101858723D01*
X181831600Y-101858723D02*
X181783980Y-101811104D01*
X181783980Y-101811104D02*
X181688742Y-101763485D01*
X181688742Y-101763485D02*
X181450647Y-101763485D01*
X181450647Y-101763485D02*
X181355409Y-101811104D01*
X181355409Y-101811104D02*
X181307790Y-101858723D01*
X181307790Y-101858723D02*
X181260171Y-101953961D01*
X181260171Y-101953961D02*
X181260171Y-102144437D01*
X181260171Y-102144437D02*
X181307790Y-102239675D01*
X181307790Y-102239675D02*
X181355409Y-102287294D01*
X181355409Y-102287294D02*
X181450647Y-102334913D01*
X180879219Y-101144437D02*
X180879219Y-101049199D01*
X180879219Y-101049199D02*
X180926838Y-100953961D01*
X180926838Y-100953961D02*
X180974457Y-100906342D01*
X180974457Y-100906342D02*
X181069695Y-100858723D01*
X181069695Y-100858723D02*
X181260171Y-100811104D01*
X181260171Y-100811104D02*
X181498266Y-100811104D01*
X181498266Y-100811104D02*
X181688742Y-100858723D01*
X181688742Y-100858723D02*
X181783980Y-100906342D01*
X181783980Y-100906342D02*
X181831600Y-100953961D01*
X181831600Y-100953961D02*
X181879219Y-101049199D01*
X181879219Y-101049199D02*
X181879219Y-101144437D01*
X181879219Y-101144437D02*
X181831600Y-101239675D01*
X181831600Y-101239675D02*
X181783980Y-101287294D01*
X181783980Y-101287294D02*
X181688742Y-101334913D01*
X181688742Y-101334913D02*
X181498266Y-101382532D01*
X181498266Y-101382532D02*
X181260171Y-101382532D01*
X181260171Y-101382532D02*
X181069695Y-101334913D01*
X181069695Y-101334913D02*
X180974457Y-101287294D01*
X180974457Y-101287294D02*
X180926838Y-101239675D01*
X180926838Y-101239675D02*
X180879219Y-101144437D01*
X181879219Y-99811104D02*
X181403028Y-100144437D01*
X181879219Y-100382532D02*
X180879219Y-100382532D01*
X180879219Y-100382532D02*
X180879219Y-100001580D01*
X180879219Y-100001580D02*
X180926838Y-99906342D01*
X180926838Y-99906342D02*
X180974457Y-99858723D01*
X180974457Y-99858723D02*
X181069695Y-99811104D01*
X181069695Y-99811104D02*
X181212552Y-99811104D01*
X181212552Y-99811104D02*
X181307790Y-99858723D01*
X181307790Y-99858723D02*
X181355409Y-99906342D01*
X181355409Y-99906342D02*
X181403028Y-100001580D01*
X181403028Y-100001580D02*
X181403028Y-100382532D01*
X166215219Y-101715866D02*
X165739028Y-102049199D01*
X166215219Y-102287294D02*
X165215219Y-102287294D01*
X165215219Y-102287294D02*
X165215219Y-101906342D01*
X165215219Y-101906342D02*
X165262838Y-101811104D01*
X165262838Y-101811104D02*
X165310457Y-101763485D01*
X165310457Y-101763485D02*
X165405695Y-101715866D01*
X165405695Y-101715866D02*
X165548552Y-101715866D01*
X165548552Y-101715866D02*
X165643790Y-101763485D01*
X165643790Y-101763485D02*
X165691409Y-101811104D01*
X165691409Y-101811104D02*
X165739028Y-101906342D01*
X165739028Y-101906342D02*
X165739028Y-102287294D01*
X165548552Y-100858723D02*
X166215219Y-100858723D01*
X165167600Y-101096818D02*
X165881885Y-101334913D01*
X165881885Y-101334913D02*
X165881885Y-100715866D01*
X162870619Y-102839685D02*
X162870619Y-103315875D01*
X162870619Y-103315875D02*
X163346809Y-103363494D01*
X163346809Y-103363494D02*
X163299190Y-103315875D01*
X163299190Y-103315875D02*
X163251571Y-103220637D01*
X163251571Y-103220637D02*
X163251571Y-102982542D01*
X163251571Y-102982542D02*
X163299190Y-102887304D01*
X163299190Y-102887304D02*
X163346809Y-102839685D01*
X163346809Y-102839685D02*
X163442047Y-102792066D01*
X163442047Y-102792066D02*
X163680142Y-102792066D01*
X163680142Y-102792066D02*
X163775380Y-102839685D01*
X163775380Y-102839685D02*
X163823000Y-102887304D01*
X163823000Y-102887304D02*
X163870619Y-102982542D01*
X163870619Y-102982542D02*
X163870619Y-103220637D01*
X163870619Y-103220637D02*
X163823000Y-103315875D01*
X163823000Y-103315875D02*
X163775380Y-103363494D01*
X162870619Y-101934923D02*
X162870619Y-102125399D01*
X162870619Y-102125399D02*
X162918238Y-102220637D01*
X162918238Y-102220637D02*
X162965857Y-102268256D01*
X162965857Y-102268256D02*
X163108714Y-102363494D01*
X163108714Y-102363494D02*
X163299190Y-102411113D01*
X163299190Y-102411113D02*
X163680142Y-102411113D01*
X163680142Y-102411113D02*
X163775380Y-102363494D01*
X163775380Y-102363494D02*
X163823000Y-102315875D01*
X163823000Y-102315875D02*
X163870619Y-102220637D01*
X163870619Y-102220637D02*
X163870619Y-102030161D01*
X163870619Y-102030161D02*
X163823000Y-101934923D01*
X163823000Y-101934923D02*
X163775380Y-101887304D01*
X163775380Y-101887304D02*
X163680142Y-101839685D01*
X163680142Y-101839685D02*
X163442047Y-101839685D01*
X163442047Y-101839685D02*
X163346809Y-101887304D01*
X163346809Y-101887304D02*
X163299190Y-101934923D01*
X163299190Y-101934923D02*
X163251571Y-102030161D01*
X163251571Y-102030161D02*
X163251571Y-102220637D01*
X163251571Y-102220637D02*
X163299190Y-102315875D01*
X163299190Y-102315875D02*
X163346809Y-102363494D01*
X163346809Y-102363494D02*
X163442047Y-102411113D01*
X162870619Y-101220637D02*
X162870619Y-101125399D01*
X162870619Y-101125399D02*
X162918238Y-101030161D01*
X162918238Y-101030161D02*
X162965857Y-100982542D01*
X162965857Y-100982542D02*
X163061095Y-100934923D01*
X163061095Y-100934923D02*
X163251571Y-100887304D01*
X163251571Y-100887304D02*
X163489666Y-100887304D01*
X163489666Y-100887304D02*
X163680142Y-100934923D01*
X163680142Y-100934923D02*
X163775380Y-100982542D01*
X163775380Y-100982542D02*
X163823000Y-101030161D01*
X163823000Y-101030161D02*
X163870619Y-101125399D01*
X163870619Y-101125399D02*
X163870619Y-101220637D01*
X163870619Y-101220637D02*
X163823000Y-101315875D01*
X163823000Y-101315875D02*
X163775380Y-101363494D01*
X163775380Y-101363494D02*
X163680142Y-101411113D01*
X163680142Y-101411113D02*
X163489666Y-101458732D01*
X163489666Y-101458732D02*
X163251571Y-101458732D01*
X163251571Y-101458732D02*
X163061095Y-101411113D01*
X163061095Y-101411113D02*
X162965857Y-101363494D01*
X162965857Y-101363494D02*
X162918238Y-101315875D01*
X162918238Y-101315875D02*
X162870619Y-101220637D01*
X163870619Y-99887304D02*
X163394428Y-100220637D01*
X163870619Y-100458732D02*
X162870619Y-100458732D01*
X162870619Y-100458732D02*
X162870619Y-100077780D01*
X162870619Y-100077780D02*
X162918238Y-99982542D01*
X162918238Y-99982542D02*
X162965857Y-99934923D01*
X162965857Y-99934923D02*
X163061095Y-99887304D01*
X163061095Y-99887304D02*
X163203952Y-99887304D01*
X163203952Y-99887304D02*
X163299190Y-99934923D01*
X163299190Y-99934923D02*
X163346809Y-99982542D01*
X163346809Y-99982542D02*
X163394428Y-100077780D01*
X163394428Y-100077780D02*
X163394428Y-100458732D01*
X143463180Y-99480666D02*
X143510800Y-99528285D01*
X143510800Y-99528285D02*
X143558419Y-99671142D01*
X143558419Y-99671142D02*
X143558419Y-99766380D01*
X143558419Y-99766380D02*
X143510800Y-99909237D01*
X143510800Y-99909237D02*
X143415561Y-100004475D01*
X143415561Y-100004475D02*
X143320323Y-100052094D01*
X143320323Y-100052094D02*
X143129847Y-100099713D01*
X143129847Y-100099713D02*
X142986990Y-100099713D01*
X142986990Y-100099713D02*
X142796514Y-100052094D01*
X142796514Y-100052094D02*
X142701276Y-100004475D01*
X142701276Y-100004475D02*
X142606038Y-99909237D01*
X142606038Y-99909237D02*
X142558419Y-99766380D01*
X142558419Y-99766380D02*
X142558419Y-99671142D01*
X142558419Y-99671142D02*
X142606038Y-99528285D01*
X142606038Y-99528285D02*
X142653657Y-99480666D01*
X143558419Y-98528285D02*
X143558419Y-99099713D01*
X143558419Y-98813999D02*
X142558419Y-98813999D01*
X142558419Y-98813999D02*
X142701276Y-98909237D01*
X142701276Y-98909237D02*
X142796514Y-99004475D01*
X142796514Y-99004475D02*
X142844133Y-99099713D01*
X138886019Y-100358115D02*
X138886019Y-100929543D01*
X138886019Y-100643829D02*
X137886019Y-100643829D01*
X137886019Y-100643829D02*
X138028876Y-100739067D01*
X138028876Y-100739067D02*
X138124114Y-100834305D01*
X138124114Y-100834305D02*
X138171733Y-100929543D01*
X137886019Y-99739067D02*
X137886019Y-99643829D01*
X137886019Y-99643829D02*
X137933638Y-99548591D01*
X137933638Y-99548591D02*
X137981257Y-99500972D01*
X137981257Y-99500972D02*
X138076495Y-99453353D01*
X138076495Y-99453353D02*
X138266971Y-99405734D01*
X138266971Y-99405734D02*
X138505066Y-99405734D01*
X138505066Y-99405734D02*
X138695542Y-99453353D01*
X138695542Y-99453353D02*
X138790780Y-99500972D01*
X138790780Y-99500972D02*
X138838400Y-99548591D01*
X138838400Y-99548591D02*
X138886019Y-99643829D01*
X138886019Y-99643829D02*
X138886019Y-99739067D01*
X138886019Y-99739067D02*
X138838400Y-99834305D01*
X138838400Y-99834305D02*
X138790780Y-99881924D01*
X138790780Y-99881924D02*
X138695542Y-99929543D01*
X138695542Y-99929543D02*
X138505066Y-99977162D01*
X138505066Y-99977162D02*
X138266971Y-99977162D01*
X138266971Y-99977162D02*
X138076495Y-99929543D01*
X138076495Y-99929543D02*
X137981257Y-99881924D01*
X137981257Y-99881924D02*
X137933638Y-99834305D01*
X137933638Y-99834305D02*
X137886019Y-99739067D01*
X138219352Y-98548591D02*
X138886019Y-98548591D01*
X138219352Y-98977162D02*
X138743161Y-98977162D01*
X138743161Y-98977162D02*
X138838400Y-98929543D01*
X138838400Y-98929543D02*
X138886019Y-98834305D01*
X138886019Y-98834305D02*
X138886019Y-98691448D01*
X138886019Y-98691448D02*
X138838400Y-98596210D01*
X138838400Y-98596210D02*
X138790780Y-98548591D01*
X138362209Y-97739067D02*
X138362209Y-98072400D01*
X138886019Y-98072400D02*
X137886019Y-98072400D01*
X137886019Y-98072400D02*
X137886019Y-97596210D01*
D12*
%TO.C,C2*%
X158748200Y-99447200D02*
X157517200Y-99447200D01*
X158748200Y-99487200D02*
X157521200Y-99487200D01*
X158748200Y-99527200D02*
X157526200Y-99527200D01*
X158748200Y-99567200D02*
X157532200Y-99567200D01*
X158748200Y-99607200D02*
X157538200Y-99607200D01*
X158748200Y-99647200D02*
X157546200Y-99647200D01*
X158748200Y-99687200D02*
X157554200Y-99687200D01*
X158748200Y-99727200D02*
X157563200Y-99727200D01*
X158748200Y-99767200D02*
X157572200Y-99767200D01*
X158748200Y-99807200D02*
X157583200Y-99807200D01*
X158748200Y-99847200D02*
X157594200Y-99847200D01*
X158748200Y-99887200D02*
X157606200Y-99887200D01*
X158748200Y-99927200D02*
X157620200Y-99927200D01*
X158748200Y-99968200D02*
X157634200Y-99968200D01*
X158748200Y-100008200D02*
X157648200Y-100008200D01*
X158748200Y-100048200D02*
X157664200Y-100048200D01*
X158748200Y-100088200D02*
X157681200Y-100088200D01*
X158748200Y-100128200D02*
X157699200Y-100128200D01*
X158748200Y-100168200D02*
X157718200Y-100168200D01*
X158748200Y-100208200D02*
X157737200Y-100208200D01*
X158748200Y-100248200D02*
X157758200Y-100248200D01*
X158748200Y-100288200D02*
X157780200Y-100288200D01*
X158748200Y-100328200D02*
X157803200Y-100328200D01*
X158748200Y-100368200D02*
X157828200Y-100368200D01*
X158748200Y-100408200D02*
X157853200Y-100408200D01*
X158748200Y-100448200D02*
X157880200Y-100448200D01*
X158748200Y-100488200D02*
X157908200Y-100488200D01*
X158748200Y-100528200D02*
X157938200Y-100528200D01*
X158748200Y-100568200D02*
X157969200Y-100568200D01*
X158748200Y-100608200D02*
X158001200Y-100608200D01*
X158748200Y-100648200D02*
X158036200Y-100648200D01*
X158748200Y-100688200D02*
X158072200Y-100688200D01*
X158748200Y-100728200D02*
X158110200Y-100728200D01*
X158748200Y-100768200D02*
X158150200Y-100768200D01*
X158748200Y-100808200D02*
X158192200Y-100808200D01*
X158748200Y-100848200D02*
X158237200Y-100848200D01*
X158748200Y-100888200D02*
X158284200Y-100888200D01*
X158748200Y-100928200D02*
X158334200Y-100928200D01*
X158748200Y-100968200D02*
X158388200Y-100968200D01*
X158748200Y-101008200D02*
X158446200Y-101008200D01*
X158748200Y-101048200D02*
X158508200Y-101048200D01*
X159958200Y-101328200D02*
X159218200Y-101328200D01*
X160125200Y-101288200D02*
X159051200Y-101288200D01*
X160252200Y-101248200D02*
X158924200Y-101248200D01*
X160356200Y-101208200D02*
X158820200Y-101208200D01*
X160447200Y-101168200D02*
X158729200Y-101168200D01*
X160528200Y-101128200D02*
X158648200Y-101128200D01*
X160601200Y-101088200D02*
X158575200Y-101088200D01*
X160668200Y-101048200D02*
X160428200Y-101048200D01*
X160730200Y-101008200D02*
X160428200Y-101008200D01*
X160783200Y-96977399D02*
X160783200Y-97377399D01*
X160788200Y-100968200D02*
X160428200Y-100968200D01*
X160842200Y-100928200D02*
X160428200Y-100928200D01*
X160892200Y-100888200D02*
X160428200Y-100888200D01*
X160939200Y-100848200D02*
X160428200Y-100848200D01*
X160983200Y-97177399D02*
X160583200Y-97177399D01*
X160984200Y-100808200D02*
X160428200Y-100808200D01*
X161026200Y-100768200D02*
X160428200Y-100768200D01*
X161066200Y-100728200D02*
X160428200Y-100728200D01*
X161104200Y-100688200D02*
X160428200Y-100688200D01*
X161140200Y-100648200D02*
X160428200Y-100648200D01*
X161175200Y-100608200D02*
X160428200Y-100608200D01*
X161207200Y-100568200D02*
X160428200Y-100568200D01*
X161238200Y-100528200D02*
X160428200Y-100528200D01*
X161268200Y-100488200D02*
X160428200Y-100488200D01*
X161296200Y-100448200D02*
X160428200Y-100448200D01*
X161323200Y-100408200D02*
X160428200Y-100408200D01*
X161348200Y-100368200D02*
X160428200Y-100368200D01*
X161373200Y-100328200D02*
X160428200Y-100328200D01*
X161396200Y-100288200D02*
X160428200Y-100288200D01*
X161418200Y-100248200D02*
X160428200Y-100248200D01*
X161439200Y-100208200D02*
X160428200Y-100208200D01*
X161458200Y-100168200D02*
X160428200Y-100168200D01*
X161477200Y-100128200D02*
X160428200Y-100128200D01*
X161495200Y-100088200D02*
X160428200Y-100088200D01*
X161512200Y-100048200D02*
X160428200Y-100048200D01*
X161528200Y-100008200D02*
X160428200Y-100008200D01*
X161542200Y-99968200D02*
X160428200Y-99968200D01*
X161556200Y-99927200D02*
X160428200Y-99927200D01*
X161570200Y-99887200D02*
X160428200Y-99887200D01*
X161582200Y-99847200D02*
X160428200Y-99847200D01*
X161593200Y-99807200D02*
X160428200Y-99807200D01*
X161604200Y-99767200D02*
X160428200Y-99767200D01*
X161613200Y-99727200D02*
X160428200Y-99727200D01*
X161622200Y-99687200D02*
X160428200Y-99687200D01*
X161630200Y-99647200D02*
X160428200Y-99647200D01*
X161638200Y-99607200D02*
X160428200Y-99607200D01*
X161644200Y-99567200D02*
X160428200Y-99567200D01*
X161650200Y-99527200D02*
X160428200Y-99527200D01*
X161655200Y-99487200D02*
X160428200Y-99487200D01*
X161659200Y-99447200D02*
X160428200Y-99447200D01*
X161662200Y-99407200D02*
X157514200Y-99407200D01*
X161665200Y-99367200D02*
X157511200Y-99367200D01*
X161667200Y-99327200D02*
X157509200Y-99327200D01*
X161668200Y-99247200D02*
X157508200Y-99247200D01*
X161668200Y-99287200D02*
X157508200Y-99287200D01*
X161708200Y-99247200D02*
G75*
G02*
X157468200Y-99247200I-2120000J0D01*
G01*
X157468200Y-99247200D02*
G75*
G02*
X161708200Y-99247200I2120000J0D01*
G01*
%TO.C,C4*%
X176807600Y-99345600D02*
X175576600Y-99345600D01*
X176807600Y-99385600D02*
X175580600Y-99385600D01*
X176807600Y-99425600D02*
X175585600Y-99425600D01*
X176807600Y-99465600D02*
X175591600Y-99465600D01*
X176807600Y-99505600D02*
X175597600Y-99505600D01*
X176807600Y-99545600D02*
X175605600Y-99545600D01*
X176807600Y-99585600D02*
X175613600Y-99585600D01*
X176807600Y-99625600D02*
X175622600Y-99625600D01*
X176807600Y-99665600D02*
X175631600Y-99665600D01*
X176807600Y-99705600D02*
X175642600Y-99705600D01*
X176807600Y-99745600D02*
X175653600Y-99745600D01*
X176807600Y-99785600D02*
X175665600Y-99785600D01*
X176807600Y-99825600D02*
X175679600Y-99825600D01*
X176807600Y-99866600D02*
X175693600Y-99866600D01*
X176807600Y-99906600D02*
X175707600Y-99906600D01*
X176807600Y-99946600D02*
X175723600Y-99946600D01*
X176807600Y-99986600D02*
X175740600Y-99986600D01*
X176807600Y-100026600D02*
X175758600Y-100026600D01*
X176807600Y-100066600D02*
X175777600Y-100066600D01*
X176807600Y-100106600D02*
X175796600Y-100106600D01*
X176807600Y-100146600D02*
X175817600Y-100146600D01*
X176807600Y-100186600D02*
X175839600Y-100186600D01*
X176807600Y-100226600D02*
X175862600Y-100226600D01*
X176807600Y-100266600D02*
X175887600Y-100266600D01*
X176807600Y-100306600D02*
X175912600Y-100306600D01*
X176807600Y-100346600D02*
X175939600Y-100346600D01*
X176807600Y-100386600D02*
X175967600Y-100386600D01*
X176807600Y-100426600D02*
X175997600Y-100426600D01*
X176807600Y-100466600D02*
X176028600Y-100466600D01*
X176807600Y-100506600D02*
X176060600Y-100506600D01*
X176807600Y-100546600D02*
X176095600Y-100546600D01*
X176807600Y-100586600D02*
X176131600Y-100586600D01*
X176807600Y-100626600D02*
X176169600Y-100626600D01*
X176807600Y-100666600D02*
X176209600Y-100666600D01*
X176807600Y-100706600D02*
X176251600Y-100706600D01*
X176807600Y-100746600D02*
X176296600Y-100746600D01*
X176807600Y-100786600D02*
X176343600Y-100786600D01*
X176807600Y-100826600D02*
X176393600Y-100826600D01*
X176807600Y-100866600D02*
X176447600Y-100866600D01*
X176807600Y-100906600D02*
X176505600Y-100906600D01*
X176807600Y-100946600D02*
X176567600Y-100946600D01*
X178017600Y-101226600D02*
X177277600Y-101226600D01*
X178184600Y-101186600D02*
X177110600Y-101186600D01*
X178311600Y-101146600D02*
X176983600Y-101146600D01*
X178415600Y-101106600D02*
X176879600Y-101106600D01*
X178506600Y-101066600D02*
X176788600Y-101066600D01*
X178587600Y-101026600D02*
X176707600Y-101026600D01*
X178660600Y-100986600D02*
X176634600Y-100986600D01*
X178727600Y-100946600D02*
X178487600Y-100946600D01*
X178789600Y-100906600D02*
X178487600Y-100906600D01*
X178842600Y-96875799D02*
X178842600Y-97275799D01*
X178847600Y-100866600D02*
X178487600Y-100866600D01*
X178901600Y-100826600D02*
X178487600Y-100826600D01*
X178951600Y-100786600D02*
X178487600Y-100786600D01*
X178998600Y-100746600D02*
X178487600Y-100746600D01*
X179042600Y-97075799D02*
X178642600Y-97075799D01*
X179043600Y-100706600D02*
X178487600Y-100706600D01*
X179085600Y-100666600D02*
X178487600Y-100666600D01*
X179125600Y-100626600D02*
X178487600Y-100626600D01*
X179163600Y-100586600D02*
X178487600Y-100586600D01*
X179199600Y-100546600D02*
X178487600Y-100546600D01*
X179234600Y-100506600D02*
X178487600Y-100506600D01*
X179266600Y-100466600D02*
X178487600Y-100466600D01*
X179297600Y-100426600D02*
X178487600Y-100426600D01*
X179327600Y-100386600D02*
X178487600Y-100386600D01*
X179355600Y-100346600D02*
X178487600Y-100346600D01*
X179382600Y-100306600D02*
X178487600Y-100306600D01*
X179407600Y-100266600D02*
X178487600Y-100266600D01*
X179432600Y-100226600D02*
X178487600Y-100226600D01*
X179455600Y-100186600D02*
X178487600Y-100186600D01*
X179477600Y-100146600D02*
X178487600Y-100146600D01*
X179498600Y-100106600D02*
X178487600Y-100106600D01*
X179517600Y-100066600D02*
X178487600Y-100066600D01*
X179536600Y-100026600D02*
X178487600Y-100026600D01*
X179554600Y-99986600D02*
X178487600Y-99986600D01*
X179571600Y-99946600D02*
X178487600Y-99946600D01*
X179587600Y-99906600D02*
X178487600Y-99906600D01*
X179601600Y-99866600D02*
X178487600Y-99866600D01*
X179615600Y-99825600D02*
X178487600Y-99825600D01*
X179629600Y-99785600D02*
X178487600Y-99785600D01*
X179641600Y-99745600D02*
X178487600Y-99745600D01*
X179652600Y-99705600D02*
X178487600Y-99705600D01*
X179663600Y-99665600D02*
X178487600Y-99665600D01*
X179672600Y-99625600D02*
X178487600Y-99625600D01*
X179681600Y-99585600D02*
X178487600Y-99585600D01*
X179689600Y-99545600D02*
X178487600Y-99545600D01*
X179697600Y-99505600D02*
X178487600Y-99505600D01*
X179703600Y-99465600D02*
X178487600Y-99465600D01*
X179709600Y-99425600D02*
X178487600Y-99425600D01*
X179714600Y-99385600D02*
X178487600Y-99385600D01*
X179718600Y-99345600D02*
X178487600Y-99345600D01*
X179721600Y-99305600D02*
X175573600Y-99305600D01*
X179724600Y-99265600D02*
X175570600Y-99265600D01*
X179726600Y-99225600D02*
X175568600Y-99225600D01*
X179727600Y-99145600D02*
X175567600Y-99145600D01*
X179727600Y-99185600D02*
X175567600Y-99185600D01*
X179767600Y-99145600D02*
G75*
G02*
X175527600Y-99145600I-2120000J0D01*
G01*
X175527600Y-99145600D02*
G75*
G02*
X179767600Y-99145600I2120000J0D01*
G01*
%TO.C,R1*%
X135896600Y-103684400D02*
X135896600Y-104014400D01*
X135896600Y-106424400D02*
X135896600Y-106094400D01*
X142436600Y-103684400D02*
X135896600Y-103684400D01*
X142436600Y-104014400D02*
X142436600Y-103684400D01*
X142436600Y-106094400D02*
X142436600Y-106424400D01*
X142436600Y-106424400D02*
X135896600Y-106424400D01*
%TO.C,R2*%
X146508800Y-98457000D02*
X146508800Y-104997000D01*
X146508800Y-104997000D02*
X146838800Y-104997000D01*
X146838800Y-98457000D02*
X146508800Y-98457000D01*
X148918800Y-98457000D02*
X149248800Y-98457000D01*
X149248800Y-98457000D02*
X149248800Y-104997000D01*
X149248800Y-104997000D02*
X148918800Y-104997000D01*
%TO.C,SW1*%
X135470400Y-108454800D02*
X147770400Y-108454800D01*
X135470400Y-111174800D02*
X135470400Y-108454800D01*
X135470400Y-116174800D02*
X135470400Y-113034800D01*
X135470400Y-120754800D02*
X135470400Y-118034800D01*
X147770400Y-108454800D02*
X147770400Y-111174800D01*
X147770400Y-113034800D02*
X147770400Y-116174800D01*
X147770400Y-118034800D02*
X147770400Y-120754800D01*
X147770400Y-120754800D02*
X135470400Y-120754800D01*
X146099450Y-114564800D02*
G75*
G02*
X136941350Y-114564800I-4579050J0D01*
G01*
X136941350Y-114564800D02*
G75*
G02*
X146099450Y-114564800I4579050J0D01*
G01*
%TO.C,SW2*%
X153436600Y-108469400D02*
X165736600Y-108469400D01*
X153436600Y-111189400D02*
X153436600Y-108469400D01*
X153436600Y-116189400D02*
X153436600Y-113049400D01*
X153436600Y-120769400D02*
X153436600Y-118049400D01*
X165736600Y-108469400D02*
X165736600Y-111189400D01*
X165736600Y-113049400D02*
X165736600Y-116189400D01*
X165736600Y-118049400D02*
X165736600Y-120769400D01*
X165736600Y-120769400D02*
X153436600Y-120769400D01*
X164065650Y-114579400D02*
G75*
G02*
X154907550Y-114579400I-4579050J0D01*
G01*
X154907550Y-114579400D02*
G75*
G02*
X164065650Y-114579400I4579050J0D01*
G01*
%TO.C,U1*%
X151130960Y-87052800D02*
X151130960Y-88702800D01*
X151130960Y-90702800D02*
X151130960Y-92352800D01*
X151130960Y-92352800D02*
X169030960Y-92352800D01*
X169030960Y-87052800D02*
X151130960Y-87052800D01*
X169030960Y-92352800D02*
X169030960Y-87052800D01*
X151130960Y-88702800D02*
G75*
G02*
X151130960Y-90702800I0J-1000000D01*
G01*
%TO.C,J1*%
X149495200Y-80204000D02*
X150825200Y-80204000D01*
X149495200Y-81534000D02*
X149495200Y-80204000D01*
X152095200Y-80204000D02*
X169935200Y-80204000D01*
X152095200Y-82864000D02*
X152095200Y-80204000D01*
X152095200Y-82864000D02*
X169935200Y-82864000D01*
X169935200Y-82864000D02*
X169935200Y-80204000D01*
%TO.C,R5*%
X171990000Y-103481200D02*
X171990000Y-103811200D01*
X171990000Y-106221200D02*
X171990000Y-105891200D01*
X178530000Y-103481200D02*
X171990000Y-103481200D01*
X178530000Y-103811200D02*
X178530000Y-103481200D01*
X178530000Y-105891200D02*
X178530000Y-106221200D01*
X178530000Y-106221200D02*
X171990000Y-106221200D01*
%TO.C,R3*%
X153930600Y-103532000D02*
X153930600Y-103862000D01*
X153930600Y-106272000D02*
X153930600Y-105942000D01*
X160470600Y-103532000D02*
X153930600Y-103532000D01*
X160470600Y-103862000D02*
X160470600Y-103532000D01*
X160470600Y-105942000D02*
X160470600Y-106272000D01*
X160470600Y-106272000D02*
X153930600Y-106272000D01*
%TO.C,C3*%
X146254800Y-87133280D02*
X146254800Y-92373280D01*
X148994800Y-87133280D02*
X146254800Y-87133280D01*
X148994800Y-87133280D02*
X148994800Y-92373280D01*
X148994800Y-92373280D02*
X146254800Y-92373280D01*
%TO.C,SW3*%
X171411400Y-108454800D02*
X183711400Y-108454800D01*
X171411400Y-111174800D02*
X171411400Y-108454800D01*
X171411400Y-116174800D02*
X171411400Y-113034800D01*
X171411400Y-120754800D02*
X171411400Y-118034800D01*
X183711400Y-108454800D02*
X183711400Y-111174800D01*
X183711400Y-113034800D02*
X183711400Y-116174800D01*
X183711400Y-118034800D02*
X183711400Y-120754800D01*
X183711400Y-120754800D02*
X171411400Y-120754800D01*
X182040450Y-114564800D02*
G75*
G02*
X172882350Y-114564800I-4579050J0D01*
G01*
X172882350Y-114564800D02*
G75*
G02*
X182040450Y-114564800I4579050J0D01*
G01*
%TO.C,R6*%
X182424400Y-98279200D02*
X182424400Y-104819200D01*
X182424400Y-104819200D02*
X182754400Y-104819200D01*
X182754400Y-98279200D02*
X182424400Y-98279200D01*
X184834400Y-98279200D02*
X185164400Y-98279200D01*
X185164400Y-98279200D02*
X185164400Y-104819200D01*
X185164400Y-104819200D02*
X184834400Y-104819200D01*
%TO.C,R4*%
X164415800Y-98355400D02*
X164415800Y-104895400D01*
X164415800Y-104895400D02*
X164745800Y-104895400D01*
X164745800Y-98355400D02*
X164415800Y-98355400D01*
X166825800Y-98355400D02*
X167155800Y-98355400D01*
X167155800Y-98355400D02*
X167155800Y-104895400D01*
X167155800Y-104895400D02*
X166825800Y-104895400D01*
%TO.C,C1*%
X140841200Y-99486687D02*
X139610200Y-99486687D01*
X140841200Y-99526687D02*
X139614200Y-99526687D01*
X140841200Y-99566687D02*
X139619200Y-99566687D01*
X140841200Y-99606687D02*
X139625200Y-99606687D01*
X140841200Y-99646687D02*
X139631200Y-99646687D01*
X140841200Y-99686687D02*
X139639200Y-99686687D01*
X140841200Y-99726687D02*
X139647200Y-99726687D01*
X140841200Y-99766687D02*
X139656200Y-99766687D01*
X140841200Y-99806687D02*
X139665200Y-99806687D01*
X140841200Y-99846687D02*
X139676200Y-99846687D01*
X140841200Y-99886687D02*
X139687200Y-99886687D01*
X140841200Y-99926687D02*
X139699200Y-99926687D01*
X140841200Y-99966687D02*
X139713200Y-99966687D01*
X140841200Y-100007687D02*
X139727200Y-100007687D01*
X140841200Y-100047687D02*
X139741200Y-100047687D01*
X140841200Y-100087687D02*
X139757200Y-100087687D01*
X140841200Y-100127687D02*
X139774200Y-100127687D01*
X140841200Y-100167687D02*
X139792200Y-100167687D01*
X140841200Y-100207687D02*
X139811200Y-100207687D01*
X140841200Y-100247687D02*
X139830200Y-100247687D01*
X140841200Y-100287687D02*
X139851200Y-100287687D01*
X140841200Y-100327687D02*
X139873200Y-100327687D01*
X140841200Y-100367687D02*
X139896200Y-100367687D01*
X140841200Y-100407687D02*
X139921200Y-100407687D01*
X140841200Y-100447687D02*
X139946200Y-100447687D01*
X140841200Y-100487687D02*
X139973200Y-100487687D01*
X140841200Y-100527687D02*
X140001200Y-100527687D01*
X140841200Y-100567687D02*
X140031200Y-100567687D01*
X140841200Y-100607687D02*
X140062200Y-100607687D01*
X140841200Y-100647687D02*
X140094200Y-100647687D01*
X140841200Y-100687687D02*
X140129200Y-100687687D01*
X140841200Y-100727687D02*
X140165200Y-100727687D01*
X140841200Y-100767687D02*
X140203200Y-100767687D01*
X140841200Y-100807687D02*
X140243200Y-100807687D01*
X140841200Y-100847687D02*
X140285200Y-100847687D01*
X140841200Y-100887687D02*
X140330200Y-100887687D01*
X140841200Y-100927687D02*
X140377200Y-100927687D01*
X140841200Y-100967687D02*
X140427200Y-100967687D01*
X140841200Y-101007687D02*
X140481200Y-101007687D01*
X140841200Y-101047687D02*
X140539200Y-101047687D01*
X140841200Y-101087687D02*
X140601200Y-101087687D01*
X142051200Y-101367687D02*
X141311200Y-101367687D01*
X142218200Y-101327687D02*
X141144200Y-101327687D01*
X142345200Y-101287687D02*
X141017200Y-101287687D01*
X142449200Y-101247687D02*
X140913200Y-101247687D01*
X142540200Y-101207687D02*
X140822200Y-101207687D01*
X142621200Y-101167687D02*
X140741200Y-101167687D01*
X142694200Y-101127687D02*
X140668200Y-101127687D01*
X142761200Y-101087687D02*
X142521200Y-101087687D01*
X142823200Y-101047687D02*
X142521200Y-101047687D01*
X142876200Y-97016886D02*
X142876200Y-97416886D01*
X142881200Y-101007687D02*
X142521200Y-101007687D01*
X142935200Y-100967687D02*
X142521200Y-100967687D01*
X142985200Y-100927687D02*
X142521200Y-100927687D01*
X143032200Y-100887687D02*
X142521200Y-100887687D01*
X143076200Y-97216886D02*
X142676200Y-97216886D01*
X143077200Y-100847687D02*
X142521200Y-100847687D01*
X143119200Y-100807687D02*
X142521200Y-100807687D01*
X143159200Y-100767687D02*
X142521200Y-100767687D01*
X143197200Y-100727687D02*
X142521200Y-100727687D01*
X143233200Y-100687687D02*
X142521200Y-100687687D01*
X143268200Y-100647687D02*
X142521200Y-100647687D01*
X143300200Y-100607687D02*
X142521200Y-100607687D01*
X143331200Y-100567687D02*
X142521200Y-100567687D01*
X143361200Y-100527687D02*
X142521200Y-100527687D01*
X143389200Y-100487687D02*
X142521200Y-100487687D01*
X143416200Y-100447687D02*
X142521200Y-100447687D01*
X143441200Y-100407687D02*
X142521200Y-100407687D01*
X143466200Y-100367687D02*
X142521200Y-100367687D01*
X143489200Y-100327687D02*
X142521200Y-100327687D01*
X143511200Y-100287687D02*
X142521200Y-100287687D01*
X143532200Y-100247687D02*
X142521200Y-100247687D01*
X143551200Y-100207687D02*
X142521200Y-100207687D01*
X143570200Y-100167687D02*
X142521200Y-100167687D01*
X143588200Y-100127687D02*
X142521200Y-100127687D01*
X143605200Y-100087687D02*
X142521200Y-100087687D01*
X143621200Y-100047687D02*
X142521200Y-100047687D01*
X143635200Y-100007687D02*
X142521200Y-100007687D01*
X143649200Y-99966687D02*
X142521200Y-99966687D01*
X143663200Y-99926687D02*
X142521200Y-99926687D01*
X143675200Y-99886687D02*
X142521200Y-99886687D01*
X143686200Y-99846687D02*
X142521200Y-99846687D01*
X143697200Y-99806687D02*
X142521200Y-99806687D01*
X143706200Y-99766687D02*
X142521200Y-99766687D01*
X143715200Y-99726687D02*
X142521200Y-99726687D01*
X143723200Y-99686687D02*
X142521200Y-99686687D01*
X143731200Y-99646687D02*
X142521200Y-99646687D01*
X143737200Y-99606687D02*
X142521200Y-99606687D01*
X143743200Y-99566687D02*
X142521200Y-99566687D01*
X143748200Y-99526687D02*
X142521200Y-99526687D01*
X143752200Y-99486687D02*
X142521200Y-99486687D01*
X143755200Y-99446687D02*
X139607200Y-99446687D01*
X143758200Y-99406687D02*
X139604200Y-99406687D01*
X143760200Y-99366687D02*
X139602200Y-99366687D01*
X143761200Y-99286687D02*
X139601200Y-99286687D01*
X143761200Y-99326687D02*
X139601200Y-99326687D01*
X143801200Y-99286687D02*
G75*
G02*
X139561200Y-99286687I-2120000J0D01*
G01*
X139561200Y-99286687D02*
G75*
G02*
X143801200Y-99286687I2120000J0D01*
G01*
%TD*%
M02*
