M48
; DRILL file {KiCad 8.0.5} date 2024-11-04T17:01:29+0100
; FORMAT={-:-/ absolute / inch / decimal}
; #@! TF.CreationDate,2024-11-04T17:01:29+01:00
; #@! TF.GenerationSoftware,Kicad,Pcbnew,8.0.5
; #@! TF.FileFunction,Plated,1,2,PTH
FMAT,2
INCH
; #@! TA.AperFunction,Plated,PTH,ViaDrill
T1C0.0157
; #@! TA.AperFunction,Plated,PTH,ComponentDrill
T2C0.0236
; #@! TA.AperFunction,Plated,PTH,ComponentDrill
T3C0.0315
; #@! TA.AperFunction,Plated,PTH,ComponentDrill
T4C0.0394
; #@! TA.AperFunction,Plated,PTH,ComponentDrill
T5C0.0512
; #@! TA.AperFunction,Plated,PTH,ComponentDrill
T6C0.1260
%
G90
G05
T1
X6.378Y-3.782
T2
X5.578Y-3.8696
X5.578Y-3.9483
X6.283Y-3.868
X6.283Y-3.9467
X6.994Y-3.864
X6.994Y-3.9427
T3
X5.329Y-4.136
X5.629Y-4.136
X5.812Y-3.4844
X5.812Y-3.5828
X5.822Y-3.855
X5.822Y-4.155
X6.0024Y-3.3816
X6.0024Y-3.6816
X6.039Y-4.13
X6.1024Y-3.3816
X6.1024Y-3.6816
X6.2024Y-3.3816
X6.2024Y-3.6816
X6.3024Y-3.3816
X6.3024Y-3.6816
X6.339Y-4.13
X6.4024Y-3.3816
X6.4024Y-3.6816
X6.5024Y-3.3816
X6.5024Y-3.6816
X6.527Y-3.851
X6.527Y-4.151
X6.6024Y-3.3816
X6.6024Y-3.6816
X6.75Y-4.128
X7.05Y-4.128
X7.236Y-3.848
X7.236Y-4.148
T4
X5.938Y-3.21
X6.038Y-3.21
X6.138Y-3.21
X6.238Y-3.21
X6.338Y-3.21
X6.438Y-3.21
X6.538Y-3.21
X6.638Y-3.21
T5
X5.3295Y-4.4136
X5.3295Y-4.6104
X5.8217Y-4.4136
X5.8217Y-4.6104
X6.0369Y-4.4141
X6.0369Y-4.611
X6.529Y-4.4141
X6.529Y-4.611
X6.7445Y-4.4136
X6.7445Y-4.6104
X7.2367Y-4.4136
X7.2367Y-4.6104
T6
X5.08Y-3.205
X5.08Y-4.705
X7.495Y-3.205
X7.495Y-4.705
M30
