M48
; DRILL file {KiCad (6.0.5-0)} date 2023 April 14, Friday 18:12:15
; FORMAT={-:-/ absolute / inch / decimal}
; #@! TF.CreationDate,2023-04-14T18:12:15+02:00
; #@! TF.GenerationSoftware,Kicad,Pcbnew,(6.0.5-0)
; #@! TF.FileFunction,Plated,1,2,PTH
FMAT,2
INCH
; #@! TA.AperFunction,Plated,PTH,ViaDrill
T1C0.0157
; #@! TA.AperFunction,Plated,PTH,ComponentDrill
T2C0.0295
; #@! TA.AperFunction,Plated,PTH,ComponentDrill
T3C0.0315
; #@! TA.AperFunction,Plated,PTH,ComponentDrill
T4C0.0394
%
G90
G05
T1
X5.5915Y-3.6634
X6.0187Y-3.6634
T2
X5.3291Y-3.5409
X5.3791Y-3.5409
X5.4291Y-3.5409
X5.7492Y-3.5409
X5.7992Y-3.5409
X5.8492Y-3.5409
X6.1795Y-3.5394
X6.2295Y-3.5394
X6.2795Y-3.5394
T3
X5.224Y-3.3386
X5.228Y-3.7795
X5.524Y-3.3386
X5.528Y-3.7795
X5.6531Y-3.3386
X5.6531Y-3.7795
X5.8953Y-3.1181
X5.9531Y-3.3386
X5.9531Y-3.7795
X6.0744Y-3.3386
X6.0783Y-3.7795
X6.1953Y-3.1181
X6.3744Y-3.3386
X6.3783Y-3.7795
T4
X5.5965Y-2.9075
X5.597Y-4.1073
X5.6965Y-2.9075
X5.697Y-4.1073
X5.7965Y-2.9075
X5.797Y-4.1073
X5.8965Y-2.9075
X5.897Y-4.1073
X5.9965Y-2.9075
X5.997Y-4.1073
T0
M30
