%TF.GenerationSoftware,KiCad,Pcbnew,(6.0.5-0)*%
%TF.CreationDate,2023-04-14T18:12:18+02:00*%
%TF.ProjectId,PixelJuice_TransistorStage,50697865-6c4a-4756-9963-655f5472616e,rev?*%
%TF.SameCoordinates,Original*%
%TF.FileFunction,Copper,L1,Top*%
%TF.FilePolarity,Positive*%
%FSLAX46Y46*%
G04 Gerber Fmt 4.6, Leading zero omitted, Abs format (unit mm)*
G04 Created by KiCad (PCBNEW (6.0.5-0)) date 2023-04-14 18:12:18*
%MOMM*%
%LPD*%
G01*
G04 APERTURE LIST*
%TA.AperFunction,ComponentPad*%
%ADD10C,1.600000*%
%TD*%
%TA.AperFunction,ComponentPad*%
%ADD11O,1.600000X1.600000*%
%TD*%
%TA.AperFunction,ComponentPad*%
%ADD12R,1.050000X1.500000*%
%TD*%
%TA.AperFunction,ComponentPad*%
%ADD13O,1.050000X1.500000*%
%TD*%
%TA.AperFunction,ComponentPad*%
%ADD14R,1.700000X1.700000*%
%TD*%
%TA.AperFunction,ComponentPad*%
%ADD15O,1.700000X1.700000*%
%TD*%
%TA.AperFunction,ViaPad*%
%ADD16C,0.800000*%
%TD*%
%TA.AperFunction,Conductor*%
%ADD17C,0.250000*%
%TD*%
G04 APERTURE END LIST*
D10*
%TO.P,R5,1*%
%TO.N,GND*%
X132790000Y-96000000D03*
D11*
%TO.P,R5,2*%
%TO.N,/R-Y_{out}*%
X140410000Y-96000000D03*
%TD*%
D10*
%TO.P,R7,1*%
%TO.N,/B-Y_{out}*%
X154390000Y-96000000D03*
D11*
%TO.P,R7,2*%
%TO.N,GND*%
X162010000Y-96000000D03*
%TD*%
D10*
%TO.P,R4,1*%
%TO.N,GND*%
X161910000Y-84800000D03*
D11*
%TO.P,R4,2*%
%TO.N,Net-(Q3-Pad2)*%
X154290000Y-84800000D03*
%TD*%
D10*
%TO.P,R3,1*%
%TO.N,GND*%
X151210000Y-84800000D03*
D11*
%TO.P,R3,2*%
%TO.N,/Y_{in}*%
X143590000Y-84800000D03*
%TD*%
D12*
%TO.P,Q2,1,E*%
%TO.N,/Y_{out}*%
X148570000Y-89940000D03*
D13*
%TO.P,Q2,2,B*%
%TO.N,/Y_{in}*%
X147300000Y-89940000D03*
%TO.P,Q2,3,C*%
%TO.N,+5V*%
X146030000Y-89940000D03*
%TD*%
D10*
%TO.P,R2,1*%
%TO.N,GND*%
X132690000Y-84800000D03*
D11*
%TO.P,R2,2*%
%TO.N,/R-Y_{in}*%
X140310000Y-84800000D03*
%TD*%
D10*
%TO.P,R6,1*%
%TO.N,GND*%
X151210000Y-96000000D03*
D11*
%TO.P,R6,2*%
%TO.N,/Y_{out}*%
X143590000Y-96000000D03*
%TD*%
D12*
%TO.P,Q3,1,E*%
%TO.N,/B-Y_{out}*%
X159500000Y-89900000D03*
D13*
%TO.P,Q3,2,B*%
%TO.N,Net-(Q3-Pad2)*%
X158230000Y-89900000D03*
%TO.P,Q3,3,C*%
%TO.N,+5V*%
X156960000Y-89900000D03*
%TD*%
D10*
%TO.P,R1,1*%
%TO.N,Net-(Q3-Pad2)*%
X157360000Y-79200000D03*
D11*
%TO.P,R1,2*%
%TO.N,/B-Y_{in}*%
X149740000Y-79200000D03*
%TD*%
D12*
%TO.P,Q1,1,E*%
%TO.N,/R-Y_{out}*%
X137900000Y-89940000D03*
D13*
%TO.P,Q1,2,B*%
%TO.N,/R-Y_{in}*%
X136630000Y-89940000D03*
%TO.P,Q1,3,C*%
%TO.N,+5V*%
X135360000Y-89940000D03*
%TD*%
D14*
%TO.P,J2,1,Pin_1*%
%TO.N,GND*%
X152325000Y-104325000D03*
D15*
%TO.P,J2,2,Pin_2*%
%TO.N,/B-Y_{out}*%
X149785000Y-104325000D03*
%TO.P,J2,3,Pin_3*%
%TO.N,/Y_{out}*%
X147245000Y-104325000D03*
%TO.P,J2,4,Pin_4*%
%TO.N,/R-Y_{out}*%
X144705000Y-104325000D03*
%TO.P,J2,5,Pin_5*%
%TO.N,+5V*%
X142165000Y-104325000D03*
%TD*%
D14*
%TO.P,J1,1,Pin_1*%
%TO.N,+5V*%
X142150000Y-73850000D03*
D15*
%TO.P,J1,2,Pin_2*%
%TO.N,/R-Y_{in}*%
X144690000Y-73850000D03*
%TO.P,J1,3,Pin_3*%
%TO.N,/Y_{in}*%
X147230000Y-73850000D03*
%TO.P,J1,4,Pin_4*%
%TO.N,/B-Y_{in}*%
X149770000Y-73850000D03*
%TO.P,J1,5,Pin_5*%
%TO.N,GND*%
X152310000Y-73850000D03*
%TD*%
D16*
%TO.N,GND*%
X152875000Y-93050000D03*
X142025000Y-93050000D03*
%TD*%
D17*
%TO.N,/B-Y_{out}*%
X154390000Y-96000000D02*
X154390000Y-99720000D01*
X154390000Y-99720000D02*
X149785000Y-104325000D01*
%TO.N,/R-Y_{out}*%
X140410000Y-96000000D02*
X140410000Y-100030000D01*
X140410000Y-100030000D02*
X144705000Y-104325000D01*
%TO.N,/Y_{out}*%
X143590000Y-96000000D02*
X143590000Y-100670000D01*
X143590000Y-100670000D02*
X147245000Y-104325000D01*
%TO.N,/B-Y_{in}*%
X149770000Y-73850000D02*
X149770000Y-79170000D01*
X149770000Y-79170000D02*
X149740000Y-79200000D01*
%TO.N,/Y_{in}*%
X147230000Y-73850000D02*
X147230000Y-81160000D01*
X147230000Y-81160000D02*
X143590000Y-84800000D01*
%TO.N,/R-Y_{in}*%
X144690000Y-73850000D02*
X144690000Y-80420000D01*
X144690000Y-80420000D02*
X140310000Y-84800000D01*
X140310000Y-84800000D02*
X136630000Y-88480000D01*
X136630000Y-88480000D02*
X136630000Y-89940000D01*
%TO.N,/Y_{in}*%
X143590000Y-84800000D02*
X147300000Y-88510000D01*
X147300000Y-88510000D02*
X147300000Y-89940000D01*
%TO.N,/R-Y_{out}*%
X137900000Y-93490000D02*
X140410000Y-96000000D01*
X137900000Y-89940000D02*
X137900000Y-93490000D01*
%TO.N,/Y_{out}*%
X148570000Y-91020000D02*
X143590000Y-96000000D01*
X148570000Y-89940000D02*
X148570000Y-91020000D01*
%TO.N,/B-Y_{out}*%
X159500000Y-89900000D02*
X159500000Y-90890000D01*
X159500000Y-90890000D02*
X154390000Y-96000000D01*
%TO.N,Net-(Q3-Pad2)*%
X157360000Y-81730000D02*
X154290000Y-84800000D01*
X154290000Y-84800000D02*
X158230000Y-88740000D01*
X158230000Y-88740000D02*
X158230000Y-89900000D01*
X157360000Y-79200000D02*
X157360000Y-81730000D01*
%TD*%
%TA.AperFunction,Conductor*%
%TO.N,GND*%
G36*
X163233621Y-71978502D02*
G01*
X163280114Y-72032158D01*
X163291500Y-72084500D01*
X163291500Y-84099295D01*
X163271498Y-84167416D01*
X163217842Y-84213909D01*
X163147568Y-84224013D01*
X163082988Y-84194519D01*
X163051306Y-84152547D01*
X163049414Y-84148491D01*
X163043931Y-84138994D01*
X163007491Y-84086952D01*
X162997012Y-84078576D01*
X162983566Y-84085644D01*
X162282022Y-84787188D01*
X162274408Y-84801132D01*
X162274539Y-84802965D01*
X162278790Y-84809580D01*
X162984287Y-85515077D01*
X162996062Y-85521507D01*
X163008077Y-85512211D01*
X163043931Y-85461006D01*
X163049414Y-85451509D01*
X163051306Y-85447453D01*
X163098224Y-85394169D01*
X163166502Y-85374709D01*
X163234461Y-85395252D01*
X163280526Y-85449275D01*
X163291500Y-85500705D01*
X163291500Y-95150123D01*
X163271498Y-95218244D01*
X163217842Y-95264737D01*
X163147568Y-95274841D01*
X163082988Y-95245347D01*
X163062287Y-95222393D01*
X163018976Y-95160538D01*
X163011916Y-95152125D01*
X162857875Y-94998084D01*
X162849467Y-94991028D01*
X162671007Y-94866069D01*
X162661511Y-94860586D01*
X162464053Y-94768510D01*
X162453761Y-94764764D01*
X162281497Y-94718606D01*
X162267401Y-94718942D01*
X162264000Y-94726884D01*
X162264000Y-97267967D01*
X162267973Y-97281498D01*
X162276522Y-97282727D01*
X162453761Y-97235236D01*
X162464053Y-97231490D01*
X162661511Y-97139414D01*
X162671007Y-97133931D01*
X162849467Y-97008972D01*
X162857875Y-97001916D01*
X163011916Y-96847875D01*
X163018976Y-96839462D01*
X163062287Y-96777607D01*
X163117744Y-96733278D01*
X163188363Y-96725969D01*
X163251724Y-96757999D01*
X163287709Y-96819201D01*
X163291500Y-96849877D01*
X163291500Y-106165500D01*
X163271498Y-106233621D01*
X163217842Y-106280114D01*
X163165500Y-106291500D01*
X131284500Y-106291500D01*
X131216379Y-106271498D01*
X131169886Y-106217842D01*
X131158500Y-106165500D01*
X131158500Y-97086062D01*
X132068493Y-97086062D01*
X132077789Y-97098077D01*
X132128994Y-97133931D01*
X132138489Y-97139414D01*
X132335947Y-97231490D01*
X132346239Y-97235236D01*
X132556688Y-97291625D01*
X132567481Y-97293528D01*
X132784525Y-97312517D01*
X132795475Y-97312517D01*
X133012519Y-97293528D01*
X133023312Y-97291625D01*
X133233761Y-97235236D01*
X133244053Y-97231490D01*
X133441511Y-97139414D01*
X133451006Y-97133931D01*
X133503048Y-97097491D01*
X133511424Y-97087012D01*
X133504356Y-97073566D01*
X132802812Y-96372022D01*
X132788868Y-96364408D01*
X132787035Y-96364539D01*
X132780420Y-96368790D01*
X132074923Y-97074287D01*
X132068493Y-97086062D01*
X131158500Y-97086062D01*
X131158500Y-96005475D01*
X131477483Y-96005475D01*
X131496472Y-96222519D01*
X131498375Y-96233312D01*
X131554764Y-96443761D01*
X131558510Y-96454053D01*
X131650586Y-96651511D01*
X131656069Y-96661006D01*
X131692509Y-96713048D01*
X131702988Y-96721424D01*
X131716434Y-96714356D01*
X132417978Y-96012812D01*
X132424356Y-96001132D01*
X133154408Y-96001132D01*
X133154539Y-96002965D01*
X133158790Y-96009580D01*
X133864287Y-96715077D01*
X133876062Y-96721507D01*
X133888077Y-96712211D01*
X133923931Y-96661006D01*
X133929414Y-96651511D01*
X134021490Y-96454053D01*
X134025236Y-96443761D01*
X134081625Y-96233312D01*
X134083528Y-96222519D01*
X134102517Y-96005475D01*
X134102517Y-95994525D01*
X134083528Y-95777481D01*
X134081625Y-95766688D01*
X134025236Y-95556239D01*
X134021490Y-95545947D01*
X133929414Y-95348489D01*
X133923931Y-95338994D01*
X133887491Y-95286952D01*
X133877012Y-95278576D01*
X133863566Y-95285644D01*
X133162022Y-95987188D01*
X133154408Y-96001132D01*
X132424356Y-96001132D01*
X132425592Y-95998868D01*
X132425461Y-95997035D01*
X132421210Y-95990420D01*
X131715713Y-95284923D01*
X131703938Y-95278493D01*
X131691923Y-95287789D01*
X131656069Y-95338994D01*
X131650586Y-95348489D01*
X131558510Y-95545947D01*
X131554764Y-95556239D01*
X131498375Y-95766688D01*
X131496472Y-95777481D01*
X131477483Y-95994525D01*
X131477483Y-96005475D01*
X131158500Y-96005475D01*
X131158500Y-94912988D01*
X132068576Y-94912988D01*
X132075644Y-94926434D01*
X132777188Y-95627978D01*
X132791132Y-95635592D01*
X132792965Y-95635461D01*
X132799580Y-95631210D01*
X133505077Y-94925713D01*
X133511507Y-94913938D01*
X133502211Y-94901923D01*
X133451006Y-94866069D01*
X133441511Y-94860586D01*
X133244053Y-94768510D01*
X133233761Y-94764764D01*
X133023312Y-94708375D01*
X133012519Y-94706472D01*
X132795475Y-94687483D01*
X132784525Y-94687483D01*
X132567481Y-94706472D01*
X132556688Y-94708375D01*
X132346239Y-94764764D01*
X132335947Y-94768510D01*
X132138489Y-94860586D01*
X132128994Y-94866069D01*
X132076952Y-94902509D01*
X132068576Y-94912988D01*
X131158500Y-94912988D01*
X131158500Y-90216004D01*
X134326500Y-90216004D01*
X134341277Y-90366713D01*
X134399858Y-90560742D01*
X134495010Y-90739698D01*
X134498904Y-90744472D01*
X134498905Y-90744474D01*
X134511826Y-90760316D01*
X134623110Y-90896763D01*
X134627857Y-90900690D01*
X134627859Y-90900692D01*
X134774528Y-91022027D01*
X134774531Y-91022029D01*
X134779278Y-91025956D01*
X134957565Y-91122356D01*
X135043547Y-91148972D01*
X135145293Y-91180468D01*
X135145296Y-91180469D01*
X135151180Y-91182290D01*
X135157305Y-91182934D01*
X135157306Y-91182934D01*
X135346622Y-91202832D01*
X135346623Y-91202832D01*
X135352750Y-91203476D01*
X135449377Y-91194682D01*
X135548457Y-91185665D01*
X135548460Y-91185664D01*
X135554596Y-91185106D01*
X135560502Y-91183368D01*
X135560506Y-91183367D01*
X135743120Y-91129620D01*
X135743119Y-91129620D01*
X135749029Y-91127881D01*
X135754486Y-91125028D01*
X135754489Y-91125027D01*
X135891765Y-91053261D01*
X135928460Y-91034077D01*
X135928462Y-91034077D01*
X135928645Y-91033981D01*
X135928663Y-91034016D01*
X135994441Y-91014111D01*
X136055409Y-91029271D01*
X136227565Y-91122356D01*
X136313547Y-91148972D01*
X136415293Y-91180468D01*
X136415296Y-91180469D01*
X136421180Y-91182290D01*
X136427305Y-91182934D01*
X136427306Y-91182934D01*
X136616622Y-91202832D01*
X136616623Y-91202832D01*
X136622750Y-91203476D01*
X136719377Y-91194682D01*
X136818457Y-91185665D01*
X136818460Y-91185664D01*
X136824596Y-91185106D01*
X136830502Y-91183368D01*
X136830506Y-91183367D01*
X137013121Y-91129620D01*
X137013123Y-91129619D01*
X137016111Y-91128740D01*
X137019029Y-91127881D01*
X137019282Y-91128740D01*
X137084662Y-91122286D01*
X137121406Y-91135452D01*
X137128295Y-91140615D01*
X137136699Y-91143766D01*
X137136700Y-91143766D01*
X137184730Y-91161772D01*
X137241495Y-91204414D01*
X137266194Y-91270976D01*
X137266500Y-91279754D01*
X137266500Y-93411233D01*
X137265973Y-93422416D01*
X137264298Y-93429909D01*
X137264547Y-93437835D01*
X137264547Y-93437836D01*
X137266438Y-93497986D01*
X137266500Y-93501945D01*
X137266500Y-93529856D01*
X137266997Y-93533790D01*
X137266997Y-93533791D01*
X137267005Y-93533856D01*
X137267938Y-93545693D01*
X137269327Y-93589889D01*
X137274978Y-93609339D01*
X137278987Y-93628700D01*
X137281526Y-93648797D01*
X137284445Y-93656168D01*
X137284445Y-93656170D01*
X137297804Y-93689912D01*
X137301649Y-93701142D01*
X137313982Y-93743593D01*
X137318015Y-93750412D01*
X137318017Y-93750417D01*
X137324293Y-93761028D01*
X137332988Y-93778776D01*
X137340448Y-93797617D01*
X137345110Y-93804033D01*
X137345110Y-93804034D01*
X137366436Y-93833387D01*
X137372952Y-93843307D01*
X137395458Y-93881362D01*
X137409779Y-93895683D01*
X137422619Y-93910716D01*
X137434528Y-93927107D01*
X137440634Y-93932158D01*
X137468605Y-93955298D01*
X137477384Y-93963288D01*
X139100848Y-95586752D01*
X139134874Y-95649064D01*
X139133459Y-95708459D01*
X139117882Y-95766591D01*
X139117881Y-95766598D01*
X139116457Y-95771913D01*
X139096502Y-96000000D01*
X139116457Y-96228087D01*
X139117881Y-96233400D01*
X139117881Y-96233402D01*
X139155025Y-96372022D01*
X139175716Y-96449243D01*
X139178039Y-96454224D01*
X139178039Y-96454225D01*
X139270151Y-96651762D01*
X139270154Y-96651767D01*
X139272477Y-96656749D01*
X139403802Y-96844300D01*
X139565700Y-97006198D01*
X139570208Y-97009355D01*
X139570211Y-97009357D01*
X139722771Y-97116181D01*
X139767099Y-97171638D01*
X139776500Y-97219394D01*
X139776500Y-99951233D01*
X139775973Y-99962416D01*
X139774298Y-99969909D01*
X139774547Y-99977835D01*
X139774547Y-99977836D01*
X139776438Y-100037986D01*
X139776500Y-100041945D01*
X139776500Y-100069856D01*
X139776997Y-100073790D01*
X139776997Y-100073791D01*
X139777005Y-100073856D01*
X139777938Y-100085693D01*
X139779327Y-100129889D01*
X139782198Y-100139770D01*
X139784978Y-100149339D01*
X139788987Y-100168700D01*
X139791526Y-100188797D01*
X139794445Y-100196168D01*
X139794445Y-100196170D01*
X139807804Y-100229912D01*
X139811649Y-100241142D01*
X139823982Y-100283593D01*
X139828015Y-100290412D01*
X139828017Y-100290417D01*
X139834293Y-100301028D01*
X139842988Y-100318776D01*
X139850448Y-100337617D01*
X139855110Y-100344033D01*
X139855110Y-100344034D01*
X139876436Y-100373387D01*
X139882952Y-100383307D01*
X139905458Y-100421362D01*
X139919779Y-100435683D01*
X139932619Y-100450716D01*
X139944528Y-100467107D01*
X139950634Y-100472158D01*
X139978605Y-100495298D01*
X139987384Y-100503288D01*
X142235086Y-102750990D01*
X142269112Y-102813302D01*
X142264047Y-102884117D01*
X142221500Y-102940953D01*
X142154980Y-102965764D01*
X142144459Y-102966076D01*
X142096962Y-102965495D01*
X142075080Y-102965228D01*
X142075078Y-102965228D01*
X142069911Y-102965165D01*
X141849091Y-102998955D01*
X141636756Y-103068357D01*
X141438607Y-103171507D01*
X141434474Y-103174610D01*
X141434471Y-103174612D01*
X141351450Y-103236946D01*
X141259965Y-103305635D01*
X141105629Y-103467138D01*
X140979743Y-103651680D01*
X140885688Y-103854305D01*
X140825989Y-104069570D01*
X140802251Y-104291695D01*
X140815110Y-104514715D01*
X140816247Y-104519761D01*
X140816248Y-104519767D01*
X140830606Y-104583475D01*
X140864222Y-104732639D01*
X140948266Y-104939616D01*
X140999942Y-105023944D01*
X141062291Y-105125688D01*
X141064987Y-105130088D01*
X141211250Y-105298938D01*
X141383126Y-105441632D01*
X141576000Y-105554338D01*
X141784692Y-105634030D01*
X141789760Y-105635061D01*
X141789763Y-105635062D01*
X141897017Y-105656883D01*
X142003597Y-105678567D01*
X142008772Y-105678757D01*
X142008774Y-105678757D01*
X142221673Y-105686564D01*
X142221677Y-105686564D01*
X142226837Y-105686753D01*
X142231957Y-105686097D01*
X142231959Y-105686097D01*
X142443288Y-105659025D01*
X142443289Y-105659025D01*
X142448416Y-105658368D01*
X142453366Y-105656883D01*
X142657429Y-105595661D01*
X142657434Y-105595659D01*
X142662384Y-105594174D01*
X142862994Y-105495896D01*
X143044860Y-105366173D01*
X143203096Y-105208489D01*
X143262594Y-105125689D01*
X143333453Y-105027077D01*
X143334776Y-105028028D01*
X143381645Y-104984857D01*
X143451580Y-104972625D01*
X143517026Y-105000144D01*
X143544875Y-105031994D01*
X143604987Y-105130088D01*
X143751250Y-105298938D01*
X143923126Y-105441632D01*
X144116000Y-105554338D01*
X144324692Y-105634030D01*
X144329760Y-105635061D01*
X144329763Y-105635062D01*
X144437017Y-105656883D01*
X144543597Y-105678567D01*
X144548772Y-105678757D01*
X144548774Y-105678757D01*
X144761673Y-105686564D01*
X144761677Y-105686564D01*
X144766837Y-105686753D01*
X144771957Y-105686097D01*
X144771959Y-105686097D01*
X144983288Y-105659025D01*
X144983289Y-105659025D01*
X144988416Y-105658368D01*
X144993366Y-105656883D01*
X145197429Y-105595661D01*
X145197434Y-105595659D01*
X145202384Y-105594174D01*
X145402994Y-105495896D01*
X145584860Y-105366173D01*
X145743096Y-105208489D01*
X145802594Y-105125689D01*
X145873453Y-105027077D01*
X145874776Y-105028028D01*
X145921645Y-104984857D01*
X145991580Y-104972625D01*
X146057026Y-105000144D01*
X146084875Y-105031994D01*
X146144987Y-105130088D01*
X146291250Y-105298938D01*
X146463126Y-105441632D01*
X146656000Y-105554338D01*
X146864692Y-105634030D01*
X146869760Y-105635061D01*
X146869763Y-105635062D01*
X146977017Y-105656883D01*
X147083597Y-105678567D01*
X147088772Y-105678757D01*
X147088774Y-105678757D01*
X147301673Y-105686564D01*
X147301677Y-105686564D01*
X147306837Y-105686753D01*
X147311957Y-105686097D01*
X147311959Y-105686097D01*
X147523288Y-105659025D01*
X147523289Y-105659025D01*
X147528416Y-105658368D01*
X147533366Y-105656883D01*
X147737429Y-105595661D01*
X147737434Y-105595659D01*
X147742384Y-105594174D01*
X147942994Y-105495896D01*
X148124860Y-105366173D01*
X148283096Y-105208489D01*
X148342594Y-105125689D01*
X148413453Y-105027077D01*
X148414776Y-105028028D01*
X148461645Y-104984857D01*
X148531580Y-104972625D01*
X148597026Y-105000144D01*
X148624875Y-105031994D01*
X148684987Y-105130088D01*
X148831250Y-105298938D01*
X149003126Y-105441632D01*
X149196000Y-105554338D01*
X149404692Y-105634030D01*
X149409760Y-105635061D01*
X149409763Y-105635062D01*
X149517017Y-105656883D01*
X149623597Y-105678567D01*
X149628772Y-105678757D01*
X149628774Y-105678757D01*
X149841673Y-105686564D01*
X149841677Y-105686564D01*
X149846837Y-105686753D01*
X149851957Y-105686097D01*
X149851959Y-105686097D01*
X150063288Y-105659025D01*
X150063289Y-105659025D01*
X150068416Y-105658368D01*
X150073366Y-105656883D01*
X150277429Y-105595661D01*
X150277434Y-105595659D01*
X150282384Y-105594174D01*
X150482994Y-105495896D01*
X150664860Y-105366173D01*
X150732331Y-105298938D01*
X150773479Y-105257933D01*
X150835851Y-105224017D01*
X150906658Y-105229205D01*
X150963419Y-105271851D01*
X150980401Y-105302954D01*
X151021676Y-105413054D01*
X151030214Y-105428649D01*
X151106715Y-105530724D01*
X151119276Y-105543285D01*
X151221351Y-105619786D01*
X151236946Y-105628324D01*
X151357394Y-105673478D01*
X151372649Y-105677105D01*
X151423514Y-105682631D01*
X151430328Y-105683000D01*
X152052885Y-105683000D01*
X152068124Y-105678525D01*
X152069329Y-105677135D01*
X152071000Y-105669452D01*
X152071000Y-105664884D01*
X152579000Y-105664884D01*
X152583475Y-105680123D01*
X152584865Y-105681328D01*
X152592548Y-105682999D01*
X153219669Y-105682999D01*
X153226490Y-105682629D01*
X153277352Y-105677105D01*
X153292604Y-105673479D01*
X153413054Y-105628324D01*
X153428649Y-105619786D01*
X153530724Y-105543285D01*
X153543285Y-105530724D01*
X153619786Y-105428649D01*
X153628324Y-105413054D01*
X153673478Y-105292606D01*
X153677105Y-105277351D01*
X153682631Y-105226486D01*
X153683000Y-105219672D01*
X153683000Y-104597115D01*
X153678525Y-104581876D01*
X153677135Y-104580671D01*
X153669452Y-104579000D01*
X152597115Y-104579000D01*
X152581876Y-104583475D01*
X152580671Y-104584865D01*
X152579000Y-104592548D01*
X152579000Y-105664884D01*
X152071000Y-105664884D01*
X152071000Y-104052885D01*
X152579000Y-104052885D01*
X152583475Y-104068124D01*
X152584865Y-104069329D01*
X152592548Y-104071000D01*
X153664884Y-104071000D01*
X153680123Y-104066525D01*
X153681328Y-104065135D01*
X153682999Y-104057452D01*
X153682999Y-103430331D01*
X153682629Y-103423510D01*
X153677105Y-103372648D01*
X153673479Y-103357396D01*
X153628324Y-103236946D01*
X153619786Y-103221351D01*
X153543285Y-103119276D01*
X153530724Y-103106715D01*
X153428649Y-103030214D01*
X153413054Y-103021676D01*
X153292606Y-102976522D01*
X153277351Y-102972895D01*
X153226486Y-102967369D01*
X153219672Y-102967000D01*
X152597115Y-102967000D01*
X152581876Y-102971475D01*
X152580671Y-102972865D01*
X152579000Y-102980548D01*
X152579000Y-104052885D01*
X152071000Y-104052885D01*
X152071000Y-102987094D01*
X152091002Y-102918973D01*
X152107905Y-102897999D01*
X154782247Y-100223657D01*
X154790537Y-100216113D01*
X154797018Y-100212000D01*
X154843659Y-100162332D01*
X154846413Y-100159491D01*
X154866134Y-100139770D01*
X154868612Y-100136575D01*
X154876318Y-100127553D01*
X154901158Y-100101101D01*
X154906586Y-100095321D01*
X154916346Y-100077568D01*
X154927199Y-100061045D01*
X154934753Y-100051306D01*
X154939613Y-100045041D01*
X154957176Y-100004457D01*
X154962383Y-99993827D01*
X154983695Y-99955060D01*
X154985666Y-99947383D01*
X154985668Y-99947378D01*
X154988732Y-99935442D01*
X154995138Y-99916730D01*
X155000034Y-99905417D01*
X155003181Y-99898145D01*
X155010097Y-99854481D01*
X155012504Y-99842860D01*
X155021528Y-99807711D01*
X155021528Y-99807710D01*
X155023500Y-99800030D01*
X155023500Y-99779769D01*
X155025051Y-99760058D01*
X155026979Y-99747885D01*
X155028219Y-99740057D01*
X155024059Y-99696046D01*
X155023500Y-99684189D01*
X155023500Y-97219394D01*
X155043502Y-97151273D01*
X155077229Y-97116181D01*
X155229789Y-97009357D01*
X155229792Y-97009355D01*
X155234300Y-97006198D01*
X155396198Y-96844300D01*
X155527523Y-96656749D01*
X155529846Y-96651767D01*
X155529849Y-96651762D01*
X155621961Y-96454225D01*
X155621961Y-96454224D01*
X155624284Y-96449243D01*
X155644976Y-96372022D01*
X155673245Y-96266522D01*
X160727273Y-96266522D01*
X160774764Y-96443761D01*
X160778510Y-96454053D01*
X160870586Y-96651511D01*
X160876069Y-96661007D01*
X161001028Y-96839467D01*
X161008084Y-96847875D01*
X161162125Y-97001916D01*
X161170533Y-97008972D01*
X161348993Y-97133931D01*
X161358489Y-97139414D01*
X161555947Y-97231490D01*
X161566239Y-97235236D01*
X161738503Y-97281394D01*
X161752599Y-97281058D01*
X161756000Y-97273116D01*
X161756000Y-96272115D01*
X161751525Y-96256876D01*
X161750135Y-96255671D01*
X161742452Y-96254000D01*
X160742033Y-96254000D01*
X160728502Y-96257973D01*
X160727273Y-96266522D01*
X155673245Y-96266522D01*
X155682119Y-96233402D01*
X155682119Y-96233400D01*
X155683543Y-96228087D01*
X155703498Y-96000000D01*
X155683543Y-95771913D01*
X155682119Y-95766598D01*
X155682118Y-95766591D01*
X155671912Y-95728503D01*
X160728606Y-95728503D01*
X160728942Y-95742599D01*
X160736884Y-95746000D01*
X161737885Y-95746000D01*
X161753124Y-95741525D01*
X161754329Y-95740135D01*
X161756000Y-95732452D01*
X161756000Y-94732033D01*
X161752027Y-94718502D01*
X161743478Y-94717273D01*
X161566239Y-94764764D01*
X161555947Y-94768510D01*
X161358489Y-94860586D01*
X161348993Y-94866069D01*
X161170533Y-94991028D01*
X161162125Y-94998084D01*
X161008084Y-95152125D01*
X161001028Y-95160533D01*
X160876069Y-95338993D01*
X160870586Y-95348489D01*
X160778510Y-95545947D01*
X160774764Y-95556239D01*
X160728606Y-95728503D01*
X155671912Y-95728503D01*
X155666541Y-95708459D01*
X155668230Y-95637483D01*
X155699152Y-95586752D01*
X159892247Y-91393657D01*
X159900537Y-91386113D01*
X159907018Y-91382000D01*
X159953659Y-91332332D01*
X159956413Y-91329491D01*
X159976134Y-91309770D01*
X159978612Y-91306575D01*
X159986318Y-91297553D01*
X160011158Y-91271101D01*
X160016586Y-91265321D01*
X160026346Y-91247568D01*
X160037199Y-91231045D01*
X160041241Y-91225834D01*
X160049613Y-91215041D01*
X160051936Y-91209673D01*
X160103152Y-91161851D01*
X160129000Y-91152431D01*
X160135316Y-91151745D01*
X160153026Y-91145106D01*
X160263297Y-91103767D01*
X160271705Y-91100615D01*
X160388261Y-91013261D01*
X160475615Y-90896705D01*
X160526745Y-90760316D01*
X160533500Y-90698134D01*
X160533500Y-89101866D01*
X160526745Y-89039684D01*
X160475615Y-88903295D01*
X160388261Y-88786739D01*
X160271705Y-88699385D01*
X160135316Y-88648255D01*
X160073134Y-88641500D01*
X158957976Y-88641500D01*
X158889855Y-88621498D01*
X158840825Y-88561885D01*
X158832197Y-88540092D01*
X158828359Y-88528885D01*
X158816018Y-88486406D01*
X158811985Y-88479587D01*
X158811983Y-88479582D01*
X158805707Y-88468971D01*
X158797010Y-88451221D01*
X158789552Y-88432383D01*
X158763571Y-88396623D01*
X158757053Y-88386701D01*
X158738578Y-88355460D01*
X158738574Y-88355455D01*
X158734542Y-88348637D01*
X158720218Y-88334313D01*
X158707376Y-88319278D01*
X158695472Y-88302893D01*
X158661406Y-88274711D01*
X158652627Y-88266722D01*
X156271967Y-85886062D01*
X161188493Y-85886062D01*
X161197789Y-85898077D01*
X161248994Y-85933931D01*
X161258489Y-85939414D01*
X161455947Y-86031490D01*
X161466239Y-86035236D01*
X161676688Y-86091625D01*
X161687481Y-86093528D01*
X161904525Y-86112517D01*
X161915475Y-86112517D01*
X162132519Y-86093528D01*
X162143312Y-86091625D01*
X162353761Y-86035236D01*
X162364053Y-86031490D01*
X162561511Y-85939414D01*
X162571006Y-85933931D01*
X162623048Y-85897491D01*
X162631424Y-85887012D01*
X162624356Y-85873566D01*
X161922812Y-85172022D01*
X161908868Y-85164408D01*
X161907035Y-85164539D01*
X161900420Y-85168790D01*
X161194923Y-85874287D01*
X161188493Y-85886062D01*
X156271967Y-85886062D01*
X155599152Y-85213247D01*
X155565126Y-85150935D01*
X155566540Y-85091541D01*
X155574310Y-85062543D01*
X155583543Y-85028087D01*
X155603019Y-84805475D01*
X160597483Y-84805475D01*
X160616472Y-85022519D01*
X160618375Y-85033312D01*
X160674764Y-85243761D01*
X160678510Y-85254053D01*
X160770586Y-85451511D01*
X160776069Y-85461006D01*
X160812509Y-85513048D01*
X160822988Y-85521424D01*
X160836434Y-85514356D01*
X161537978Y-84812812D01*
X161545592Y-84798868D01*
X161545461Y-84797035D01*
X161541210Y-84790420D01*
X160835713Y-84084923D01*
X160823938Y-84078493D01*
X160811923Y-84087789D01*
X160776069Y-84138994D01*
X160770586Y-84148489D01*
X160678510Y-84345947D01*
X160674764Y-84356239D01*
X160618375Y-84566688D01*
X160616472Y-84577481D01*
X160597483Y-84794525D01*
X160597483Y-84805475D01*
X155603019Y-84805475D01*
X155603498Y-84800000D01*
X155583543Y-84571913D01*
X155582119Y-84566598D01*
X155582118Y-84566591D01*
X155566541Y-84508459D01*
X155568230Y-84437483D01*
X155599152Y-84386752D01*
X156272916Y-83712988D01*
X161188576Y-83712988D01*
X161195644Y-83726434D01*
X161897188Y-84427978D01*
X161911132Y-84435592D01*
X161912965Y-84435461D01*
X161919580Y-84431210D01*
X162625077Y-83725713D01*
X162631507Y-83713938D01*
X162622211Y-83701923D01*
X162571006Y-83666069D01*
X162561511Y-83660586D01*
X162364053Y-83568510D01*
X162353761Y-83564764D01*
X162143312Y-83508375D01*
X162132519Y-83506472D01*
X161915475Y-83487483D01*
X161904525Y-83487483D01*
X161687481Y-83506472D01*
X161676688Y-83508375D01*
X161466239Y-83564764D01*
X161455947Y-83568510D01*
X161258489Y-83660586D01*
X161248994Y-83666069D01*
X161196952Y-83702509D01*
X161188576Y-83712988D01*
X156272916Y-83712988D01*
X157752247Y-82233657D01*
X157760537Y-82226113D01*
X157767018Y-82222000D01*
X157813659Y-82172332D01*
X157816413Y-82169491D01*
X157836135Y-82149769D01*
X157838612Y-82146576D01*
X157846317Y-82137555D01*
X157871159Y-82111100D01*
X157876586Y-82105321D01*
X157880407Y-82098371D01*
X157886346Y-82087568D01*
X157897202Y-82071041D01*
X157904757Y-82061302D01*
X157904758Y-82061300D01*
X157909614Y-82055040D01*
X157927174Y-82014460D01*
X157932391Y-82003812D01*
X157949875Y-81972009D01*
X157949876Y-81972007D01*
X157953695Y-81965060D01*
X157958733Y-81945437D01*
X157965137Y-81926734D01*
X157970033Y-81915420D01*
X157970033Y-81915419D01*
X157973181Y-81908145D01*
X157974420Y-81900322D01*
X157974423Y-81900312D01*
X157980099Y-81864476D01*
X157982505Y-81852856D01*
X157991528Y-81817711D01*
X157991528Y-81817710D01*
X157993500Y-81810030D01*
X157993500Y-81789776D01*
X157995051Y-81770065D01*
X157996980Y-81757886D01*
X157998220Y-81750057D01*
X157994059Y-81706038D01*
X157993500Y-81694181D01*
X157993500Y-80419394D01*
X158013502Y-80351273D01*
X158047229Y-80316181D01*
X158199789Y-80209357D01*
X158199792Y-80209355D01*
X158204300Y-80206198D01*
X158366198Y-80044300D01*
X158497523Y-79856749D01*
X158499846Y-79851767D01*
X158499849Y-79851762D01*
X158591961Y-79654225D01*
X158591961Y-79654224D01*
X158594284Y-79649243D01*
X158653543Y-79428087D01*
X158673498Y-79200000D01*
X158653543Y-78971913D01*
X158594284Y-78750757D01*
X158591961Y-78745775D01*
X158499849Y-78548238D01*
X158499846Y-78548233D01*
X158497523Y-78543251D01*
X158366198Y-78355700D01*
X158204300Y-78193802D01*
X158199792Y-78190645D01*
X158199789Y-78190643D01*
X158077229Y-78104826D01*
X158016749Y-78062477D01*
X158011767Y-78060154D01*
X158011762Y-78060151D01*
X157814225Y-77968039D01*
X157814224Y-77968039D01*
X157809243Y-77965716D01*
X157803935Y-77964294D01*
X157803933Y-77964293D01*
X157593402Y-77907881D01*
X157593400Y-77907881D01*
X157588087Y-77906457D01*
X157360000Y-77886502D01*
X157131913Y-77906457D01*
X157126600Y-77907881D01*
X157126598Y-77907881D01*
X156916067Y-77964293D01*
X156916065Y-77964294D01*
X156910757Y-77965716D01*
X156905776Y-77968039D01*
X156905775Y-77968039D01*
X156708238Y-78060151D01*
X156708233Y-78060154D01*
X156703251Y-78062477D01*
X156642771Y-78104826D01*
X156520211Y-78190643D01*
X156520208Y-78190645D01*
X156515700Y-78193802D01*
X156353802Y-78355700D01*
X156222477Y-78543251D01*
X156220154Y-78548233D01*
X156220151Y-78548238D01*
X156128039Y-78745775D01*
X156125716Y-78750757D01*
X156066457Y-78971913D01*
X156046502Y-79200000D01*
X156066457Y-79428087D01*
X156125716Y-79649243D01*
X156128039Y-79654224D01*
X156128039Y-79654225D01*
X156220151Y-79851762D01*
X156220154Y-79851767D01*
X156222477Y-79856749D01*
X156353802Y-80044300D01*
X156515700Y-80206198D01*
X156520208Y-80209355D01*
X156520211Y-80209357D01*
X156672771Y-80316181D01*
X156717099Y-80371638D01*
X156726500Y-80419394D01*
X156726500Y-81415406D01*
X156706498Y-81483527D01*
X156689595Y-81504501D01*
X154703248Y-83490848D01*
X154640936Y-83524874D01*
X154581541Y-83523459D01*
X154523409Y-83507882D01*
X154523398Y-83507880D01*
X154518087Y-83506457D01*
X154290000Y-83486502D01*
X154061913Y-83506457D01*
X154056600Y-83507881D01*
X154056598Y-83507881D01*
X153846067Y-83564293D01*
X153846065Y-83564294D01*
X153840757Y-83565716D01*
X153835776Y-83568039D01*
X153835775Y-83568039D01*
X153638238Y-83660151D01*
X153638233Y-83660154D01*
X153633251Y-83662477D01*
X153576080Y-83702509D01*
X153450211Y-83790643D01*
X153450208Y-83790645D01*
X153445700Y-83793802D01*
X153283802Y-83955700D01*
X153152477Y-84143251D01*
X153150154Y-84148233D01*
X153150151Y-84148238D01*
X153114817Y-84224013D01*
X153055716Y-84350757D01*
X153054294Y-84356065D01*
X153054293Y-84356067D01*
X152997883Y-84566591D01*
X152996457Y-84571913D01*
X152976502Y-84800000D01*
X152996457Y-85028087D01*
X152997880Y-85033398D01*
X152997881Y-85033402D01*
X153035025Y-85172022D01*
X153055716Y-85249243D01*
X153058039Y-85254224D01*
X153058039Y-85254225D01*
X153150151Y-85451762D01*
X153150154Y-85451767D01*
X153152477Y-85456749D01*
X153283802Y-85644300D01*
X153445700Y-85806198D01*
X153450208Y-85809355D01*
X153450211Y-85809357D01*
X153528389Y-85864098D01*
X153633251Y-85937523D01*
X153638233Y-85939846D01*
X153638238Y-85939849D01*
X153834765Y-86031490D01*
X153840757Y-86034284D01*
X153846065Y-86035706D01*
X153846067Y-86035707D01*
X154056598Y-86092119D01*
X154056600Y-86092119D01*
X154061913Y-86093543D01*
X154290000Y-86113498D01*
X154518087Y-86093543D01*
X154523398Y-86092120D01*
X154523409Y-86092118D01*
X154581541Y-86076541D01*
X154652517Y-86078230D01*
X154703248Y-86109152D01*
X157018453Y-88424357D01*
X157052479Y-88486669D01*
X157047414Y-88557484D01*
X157004867Y-88614320D01*
X156940778Y-88638933D01*
X156771543Y-88654335D01*
X156771540Y-88654336D01*
X156765404Y-88654894D01*
X156759498Y-88656632D01*
X156759494Y-88656633D01*
X156624947Y-88696233D01*
X156570971Y-88712119D01*
X156565514Y-88714972D01*
X156565511Y-88714973D01*
X156518815Y-88739385D01*
X156391355Y-88806019D01*
X156386555Y-88809879D01*
X156386554Y-88809879D01*
X156356654Y-88833919D01*
X156233399Y-88933019D01*
X156103119Y-89088281D01*
X156100155Y-89093673D01*
X156100152Y-89093677D01*
X156008444Y-89260494D01*
X156005477Y-89265891D01*
X155944193Y-89459084D01*
X155943507Y-89465201D01*
X155943506Y-89465205D01*
X155935190Y-89539348D01*
X155926500Y-89616817D01*
X155926500Y-90176004D01*
X155941277Y-90326713D01*
X155999858Y-90520742D01*
X156095010Y-90699698D01*
X156223110Y-90856763D01*
X156227857Y-90860690D01*
X156227859Y-90860692D01*
X156374528Y-90982027D01*
X156374531Y-90982029D01*
X156379278Y-90985956D01*
X156557565Y-91082356D01*
X156626733Y-91103767D01*
X156745293Y-91140468D01*
X156745296Y-91140469D01*
X156751180Y-91142290D01*
X156757305Y-91142934D01*
X156757306Y-91142934D01*
X156946622Y-91162832D01*
X156946623Y-91162832D01*
X156952750Y-91163476D01*
X157036014Y-91155898D01*
X157148457Y-91145665D01*
X157148460Y-91145664D01*
X157154596Y-91145106D01*
X157160502Y-91143368D01*
X157160506Y-91143367D01*
X157305763Y-91100615D01*
X157349029Y-91087881D01*
X157354486Y-91085028D01*
X157354489Y-91085027D01*
X157491765Y-91013261D01*
X157528460Y-90994077D01*
X157528462Y-90994077D01*
X157528645Y-90993981D01*
X157528663Y-90994016D01*
X157594441Y-90974111D01*
X157655409Y-90989271D01*
X157827565Y-91082356D01*
X157896733Y-91103767D01*
X158015293Y-91140468D01*
X158015296Y-91140469D01*
X158021180Y-91142290D01*
X158057643Y-91146122D01*
X158123299Y-91173134D01*
X158163929Y-91231355D01*
X158166633Y-91302300D01*
X158133568Y-91360527D01*
X154803247Y-94690848D01*
X154740935Y-94724874D01*
X154681542Y-94723460D01*
X154618087Y-94706457D01*
X154390000Y-94686502D01*
X154161913Y-94706457D01*
X154156600Y-94707881D01*
X154156598Y-94707881D01*
X153946067Y-94764293D01*
X153946065Y-94764294D01*
X153940757Y-94765716D01*
X153935776Y-94768039D01*
X153935775Y-94768039D01*
X153738238Y-94860151D01*
X153738233Y-94860154D01*
X153733251Y-94862477D01*
X153676080Y-94902509D01*
X153550211Y-94990643D01*
X153550208Y-94990645D01*
X153545700Y-94993802D01*
X153383802Y-95155700D01*
X153252477Y-95343251D01*
X153250154Y-95348233D01*
X153250151Y-95348238D01*
X153250034Y-95348489D01*
X153155716Y-95550757D01*
X153154294Y-95556065D01*
X153154293Y-95556067D01*
X153104972Y-95740135D01*
X153096457Y-95771913D01*
X153076502Y-96000000D01*
X153096457Y-96228087D01*
X153097881Y-96233400D01*
X153097881Y-96233402D01*
X153135025Y-96372022D01*
X153155716Y-96449243D01*
X153158039Y-96454224D01*
X153158039Y-96454225D01*
X153250151Y-96651762D01*
X153250154Y-96651767D01*
X153252477Y-96656749D01*
X153383802Y-96844300D01*
X153545700Y-97006198D01*
X153550208Y-97009355D01*
X153550211Y-97009357D01*
X153702771Y-97116181D01*
X153747099Y-97171638D01*
X153756500Y-97219394D01*
X153756500Y-99405405D01*
X153736498Y-99473526D01*
X153719595Y-99494500D01*
X150242345Y-102971750D01*
X150180033Y-103005776D01*
X150131154Y-103006702D01*
X149918373Y-102968800D01*
X149918367Y-102968799D01*
X149913284Y-102967894D01*
X149839452Y-102966992D01*
X149695081Y-102965228D01*
X149695079Y-102965228D01*
X149689911Y-102965165D01*
X149469091Y-102998955D01*
X149256756Y-103068357D01*
X149058607Y-103171507D01*
X149054474Y-103174610D01*
X149054471Y-103174612D01*
X148971450Y-103236946D01*
X148879965Y-103305635D01*
X148725629Y-103467138D01*
X148618201Y-103624621D01*
X148563293Y-103669621D01*
X148492768Y-103677792D01*
X148429021Y-103646538D01*
X148408324Y-103622054D01*
X148327822Y-103497617D01*
X148327820Y-103497614D01*
X148325014Y-103493277D01*
X148174670Y-103328051D01*
X148170619Y-103324852D01*
X148170615Y-103324848D01*
X148003414Y-103192800D01*
X148003410Y-103192798D01*
X147999359Y-103189598D01*
X147803789Y-103081638D01*
X147798920Y-103079914D01*
X147798916Y-103079912D01*
X147598087Y-103008795D01*
X147598083Y-103008794D01*
X147593212Y-103007069D01*
X147588119Y-103006162D01*
X147588116Y-103006161D01*
X147378373Y-102968800D01*
X147378367Y-102968799D01*
X147373284Y-102967894D01*
X147299452Y-102966992D01*
X147155081Y-102965228D01*
X147155079Y-102965228D01*
X147149911Y-102965165D01*
X146929091Y-102998955D01*
X146916532Y-103003060D01*
X146845568Y-103005210D01*
X146788294Y-102972389D01*
X144260405Y-100444500D01*
X144226379Y-100382188D01*
X144223500Y-100355405D01*
X144223500Y-97219394D01*
X144243502Y-97151273D01*
X144277229Y-97116181D01*
X144320243Y-97086062D01*
X150488493Y-97086062D01*
X150497789Y-97098077D01*
X150548994Y-97133931D01*
X150558489Y-97139414D01*
X150755947Y-97231490D01*
X150766239Y-97235236D01*
X150976688Y-97291625D01*
X150987481Y-97293528D01*
X151204525Y-97312517D01*
X151215475Y-97312517D01*
X151432519Y-97293528D01*
X151443312Y-97291625D01*
X151653761Y-97235236D01*
X151664053Y-97231490D01*
X151861511Y-97139414D01*
X151871006Y-97133931D01*
X151923048Y-97097491D01*
X151931424Y-97087012D01*
X151924356Y-97073566D01*
X151222812Y-96372022D01*
X151208868Y-96364408D01*
X151207035Y-96364539D01*
X151200420Y-96368790D01*
X150494923Y-97074287D01*
X150488493Y-97086062D01*
X144320243Y-97086062D01*
X144429789Y-97009357D01*
X144429792Y-97009355D01*
X144434300Y-97006198D01*
X144596198Y-96844300D01*
X144727523Y-96656749D01*
X144729846Y-96651767D01*
X144729849Y-96651762D01*
X144821961Y-96454225D01*
X144821961Y-96454224D01*
X144824284Y-96449243D01*
X144844976Y-96372022D01*
X144882119Y-96233402D01*
X144882119Y-96233400D01*
X144883543Y-96228087D01*
X144903019Y-96005475D01*
X149897483Y-96005475D01*
X149916472Y-96222519D01*
X149918375Y-96233312D01*
X149974764Y-96443761D01*
X149978510Y-96454053D01*
X150070586Y-96651511D01*
X150076069Y-96661006D01*
X150112509Y-96713048D01*
X150122988Y-96721424D01*
X150136434Y-96714356D01*
X150837978Y-96012812D01*
X150844356Y-96001132D01*
X151574408Y-96001132D01*
X151574539Y-96002965D01*
X151578790Y-96009580D01*
X152284287Y-96715077D01*
X152296062Y-96721507D01*
X152308077Y-96712211D01*
X152343931Y-96661006D01*
X152349414Y-96651511D01*
X152441490Y-96454053D01*
X152445236Y-96443761D01*
X152501625Y-96233312D01*
X152503528Y-96222519D01*
X152522517Y-96005475D01*
X152522517Y-95994525D01*
X152503528Y-95777481D01*
X152501625Y-95766688D01*
X152445236Y-95556239D01*
X152441490Y-95545947D01*
X152349414Y-95348489D01*
X152343931Y-95338994D01*
X152307491Y-95286952D01*
X152297012Y-95278576D01*
X152283566Y-95285644D01*
X151582022Y-95987188D01*
X151574408Y-96001132D01*
X150844356Y-96001132D01*
X150845592Y-95998868D01*
X150845461Y-95997035D01*
X150841210Y-95990420D01*
X150135713Y-95284923D01*
X150123938Y-95278493D01*
X150111923Y-95287789D01*
X150076069Y-95338994D01*
X150070586Y-95348489D01*
X149978510Y-95545947D01*
X149974764Y-95556239D01*
X149918375Y-95766688D01*
X149916472Y-95777481D01*
X149897483Y-95994525D01*
X149897483Y-96005475D01*
X144903019Y-96005475D01*
X144903498Y-96000000D01*
X144883543Y-95771913D01*
X144882119Y-95766598D01*
X144882118Y-95766591D01*
X144866541Y-95708459D01*
X144868230Y-95637483D01*
X144899152Y-95586752D01*
X145572916Y-94912988D01*
X150488576Y-94912988D01*
X150495644Y-94926434D01*
X151197188Y-95627978D01*
X151211132Y-95635592D01*
X151212965Y-95635461D01*
X151219580Y-95631210D01*
X151925077Y-94925713D01*
X151931507Y-94913938D01*
X151922211Y-94901923D01*
X151871006Y-94866069D01*
X151861511Y-94860586D01*
X151664053Y-94768510D01*
X151653761Y-94764764D01*
X151443312Y-94708375D01*
X151432519Y-94706472D01*
X151215475Y-94687483D01*
X151204525Y-94687483D01*
X150987481Y-94706472D01*
X150976688Y-94708375D01*
X150766239Y-94764764D01*
X150755947Y-94768510D01*
X150558489Y-94860586D01*
X150548994Y-94866069D01*
X150496952Y-94902509D01*
X150488576Y-94912988D01*
X145572916Y-94912988D01*
X148962247Y-91523657D01*
X148970537Y-91516113D01*
X148977018Y-91512000D01*
X149023659Y-91462332D01*
X149026413Y-91459491D01*
X149046135Y-91439769D01*
X149048612Y-91436576D01*
X149056317Y-91427555D01*
X149081159Y-91401100D01*
X149086586Y-91395321D01*
X149090407Y-91388371D01*
X149096346Y-91377568D01*
X149107202Y-91361041D01*
X149114757Y-91351302D01*
X149114758Y-91351300D01*
X149119614Y-91345040D01*
X149137174Y-91304460D01*
X149142391Y-91293812D01*
X149159876Y-91262007D01*
X149159876Y-91262006D01*
X149163695Y-91255060D01*
X149164894Y-91250392D01*
X149207715Y-91195507D01*
X149236966Y-91179880D01*
X149333297Y-91143767D01*
X149341705Y-91140615D01*
X149458261Y-91053261D01*
X149545615Y-90936705D01*
X149596745Y-90800316D01*
X149603500Y-90738134D01*
X149603500Y-89141866D01*
X149596745Y-89079684D01*
X149545615Y-88943295D01*
X149458261Y-88826739D01*
X149341705Y-88739385D01*
X149205316Y-88688255D01*
X149143134Y-88681500D01*
X148061306Y-88681500D01*
X147993185Y-88661498D01*
X147946692Y-88607842D01*
X147935368Y-88559459D01*
X147933562Y-88502014D01*
X147933500Y-88498055D01*
X147933500Y-88470144D01*
X147932995Y-88466144D01*
X147932062Y-88454301D01*
X147931994Y-88452114D01*
X147930673Y-88410110D01*
X147925022Y-88390658D01*
X147921014Y-88371306D01*
X147919467Y-88359063D01*
X147918474Y-88351203D01*
X147909010Y-88327299D01*
X147902200Y-88310097D01*
X147898355Y-88298870D01*
X147891336Y-88274712D01*
X147886018Y-88256407D01*
X147881984Y-88249585D01*
X147881981Y-88249579D01*
X147875706Y-88238968D01*
X147867010Y-88221218D01*
X147862472Y-88209756D01*
X147862469Y-88209751D01*
X147859552Y-88202383D01*
X147833573Y-88166625D01*
X147827057Y-88156707D01*
X147816005Y-88138019D01*
X147804542Y-88118637D01*
X147790218Y-88104313D01*
X147777376Y-88089278D01*
X147765472Y-88072893D01*
X147731406Y-88044711D01*
X147722627Y-88036722D01*
X145571967Y-85886062D01*
X150488493Y-85886062D01*
X150497789Y-85898077D01*
X150548994Y-85933931D01*
X150558489Y-85939414D01*
X150755947Y-86031490D01*
X150766239Y-86035236D01*
X150976688Y-86091625D01*
X150987481Y-86093528D01*
X151204525Y-86112517D01*
X151215475Y-86112517D01*
X151432519Y-86093528D01*
X151443312Y-86091625D01*
X151653761Y-86035236D01*
X151664053Y-86031490D01*
X151861511Y-85939414D01*
X151871006Y-85933931D01*
X151923048Y-85897491D01*
X151931424Y-85887012D01*
X151924356Y-85873566D01*
X151222812Y-85172022D01*
X151208868Y-85164408D01*
X151207035Y-85164539D01*
X151200420Y-85168790D01*
X150494923Y-85874287D01*
X150488493Y-85886062D01*
X145571967Y-85886062D01*
X144899152Y-85213247D01*
X144865126Y-85150935D01*
X144866540Y-85091541D01*
X144874310Y-85062543D01*
X144883543Y-85028087D01*
X144903019Y-84805475D01*
X149897483Y-84805475D01*
X149916472Y-85022519D01*
X149918375Y-85033312D01*
X149974764Y-85243761D01*
X149978510Y-85254053D01*
X150070586Y-85451511D01*
X150076069Y-85461006D01*
X150112509Y-85513048D01*
X150122988Y-85521424D01*
X150136434Y-85514356D01*
X150837978Y-84812812D01*
X150844356Y-84801132D01*
X151574408Y-84801132D01*
X151574539Y-84802965D01*
X151578790Y-84809580D01*
X152284287Y-85515077D01*
X152296062Y-85521507D01*
X152308077Y-85512211D01*
X152343931Y-85461006D01*
X152349414Y-85451511D01*
X152441490Y-85254053D01*
X152445236Y-85243761D01*
X152501625Y-85033312D01*
X152503528Y-85022519D01*
X152522517Y-84805475D01*
X152522517Y-84794525D01*
X152503528Y-84577481D01*
X152501625Y-84566688D01*
X152445236Y-84356239D01*
X152441490Y-84345947D01*
X152349414Y-84148489D01*
X152343931Y-84138994D01*
X152307491Y-84086952D01*
X152297012Y-84078576D01*
X152283566Y-84085644D01*
X151582022Y-84787188D01*
X151574408Y-84801132D01*
X150844356Y-84801132D01*
X150845592Y-84798868D01*
X150845461Y-84797035D01*
X150841210Y-84790420D01*
X150135713Y-84084923D01*
X150123938Y-84078493D01*
X150111923Y-84087789D01*
X150076069Y-84138994D01*
X150070586Y-84148489D01*
X149978510Y-84345947D01*
X149974764Y-84356239D01*
X149918375Y-84566688D01*
X149916472Y-84577481D01*
X149897483Y-84794525D01*
X149897483Y-84805475D01*
X144903019Y-84805475D01*
X144903498Y-84800000D01*
X144883543Y-84571913D01*
X144882119Y-84566598D01*
X144882118Y-84566591D01*
X144866541Y-84508459D01*
X144868230Y-84437483D01*
X144899152Y-84386752D01*
X145572916Y-83712988D01*
X150488576Y-83712988D01*
X150495644Y-83726434D01*
X151197188Y-84427978D01*
X151211132Y-84435592D01*
X151212965Y-84435461D01*
X151219580Y-84431210D01*
X151925077Y-83725713D01*
X151931507Y-83713938D01*
X151922211Y-83701923D01*
X151871006Y-83666069D01*
X151861511Y-83660586D01*
X151664053Y-83568510D01*
X151653761Y-83564764D01*
X151443312Y-83508375D01*
X151432519Y-83506472D01*
X151215475Y-83487483D01*
X151204525Y-83487483D01*
X150987481Y-83506472D01*
X150976688Y-83508375D01*
X150766239Y-83564764D01*
X150755947Y-83568510D01*
X150558489Y-83660586D01*
X150548994Y-83666069D01*
X150496952Y-83702509D01*
X150488576Y-83712988D01*
X145572916Y-83712988D01*
X147622247Y-81663657D01*
X147630537Y-81656113D01*
X147637018Y-81652000D01*
X147683659Y-81602332D01*
X147686413Y-81599491D01*
X147706134Y-81579770D01*
X147708612Y-81576575D01*
X147716318Y-81567553D01*
X147741158Y-81541101D01*
X147746586Y-81535321D01*
X147756346Y-81517568D01*
X147767199Y-81501045D01*
X147774753Y-81491306D01*
X147779613Y-81485041D01*
X147797176Y-81444457D01*
X147802383Y-81433827D01*
X147823695Y-81395060D01*
X147825666Y-81387383D01*
X147825668Y-81387378D01*
X147828732Y-81375442D01*
X147835138Y-81356730D01*
X147840034Y-81345417D01*
X147843181Y-81338145D01*
X147850097Y-81294481D01*
X147852504Y-81282860D01*
X147861528Y-81247711D01*
X147861528Y-81247710D01*
X147863500Y-81240030D01*
X147863500Y-81219769D01*
X147865051Y-81200058D01*
X147866979Y-81187885D01*
X147868219Y-81180057D01*
X147864059Y-81136046D01*
X147863500Y-81124189D01*
X147863500Y-75130427D01*
X147883502Y-75062306D01*
X147924618Y-75022550D01*
X147927994Y-75020896D01*
X148109860Y-74891173D01*
X148268096Y-74733489D01*
X148398453Y-74552077D01*
X148399776Y-74553028D01*
X148446645Y-74509857D01*
X148516580Y-74497625D01*
X148582026Y-74525144D01*
X148609875Y-74556994D01*
X148669987Y-74655088D01*
X148816250Y-74823938D01*
X148988126Y-74966632D01*
X148992593Y-74969242D01*
X149074070Y-75016853D01*
X149122794Y-75068491D01*
X149136500Y-75125641D01*
X149136500Y-77959600D01*
X149116498Y-78027721D01*
X149082771Y-78062813D01*
X148900211Y-78190643D01*
X148900208Y-78190645D01*
X148895700Y-78193802D01*
X148733802Y-78355700D01*
X148602477Y-78543251D01*
X148600154Y-78548233D01*
X148600151Y-78548238D01*
X148508039Y-78745775D01*
X148505716Y-78750757D01*
X148446457Y-78971913D01*
X148426502Y-79200000D01*
X148446457Y-79428087D01*
X148505716Y-79649243D01*
X148508039Y-79654224D01*
X148508039Y-79654225D01*
X148600151Y-79851762D01*
X148600154Y-79851767D01*
X148602477Y-79856749D01*
X148733802Y-80044300D01*
X148895700Y-80206198D01*
X148900208Y-80209355D01*
X148900211Y-80209357D01*
X148978389Y-80264098D01*
X149083251Y-80337523D01*
X149088233Y-80339846D01*
X149088238Y-80339849D01*
X149258825Y-80419394D01*
X149290757Y-80434284D01*
X149296065Y-80435706D01*
X149296067Y-80435707D01*
X149506598Y-80492119D01*
X149506600Y-80492119D01*
X149511913Y-80493543D01*
X149740000Y-80513498D01*
X149968087Y-80493543D01*
X149973400Y-80492119D01*
X149973402Y-80492119D01*
X150183933Y-80435707D01*
X150183935Y-80435706D01*
X150189243Y-80434284D01*
X150221175Y-80419394D01*
X150391762Y-80339849D01*
X150391767Y-80339846D01*
X150396749Y-80337523D01*
X150501611Y-80264098D01*
X150579789Y-80209357D01*
X150579792Y-80209355D01*
X150584300Y-80206198D01*
X150746198Y-80044300D01*
X150877523Y-79856749D01*
X150879846Y-79851767D01*
X150879849Y-79851762D01*
X150971961Y-79654225D01*
X150971961Y-79654224D01*
X150974284Y-79649243D01*
X151033543Y-79428087D01*
X151053498Y-79200000D01*
X151033543Y-78971913D01*
X150974284Y-78750757D01*
X150971961Y-78745775D01*
X150879849Y-78548238D01*
X150879846Y-78548233D01*
X150877523Y-78543251D01*
X150746198Y-78355700D01*
X150584300Y-78193802D01*
X150579792Y-78190645D01*
X150579789Y-78190643D01*
X150522989Y-78150871D01*
X150457228Y-78104825D01*
X150412901Y-78049369D01*
X150403500Y-78001613D01*
X150403500Y-75130427D01*
X150423502Y-75062306D01*
X150464618Y-75022550D01*
X150467994Y-75020896D01*
X150649860Y-74891173D01*
X150808096Y-74733489D01*
X150938453Y-74552077D01*
X150939640Y-74552930D01*
X150986960Y-74509362D01*
X151056897Y-74497145D01*
X151122338Y-74524678D01*
X151150166Y-74556511D01*
X151207694Y-74650388D01*
X151213777Y-74658699D01*
X151353213Y-74819667D01*
X151360580Y-74826883D01*
X151524434Y-74962916D01*
X151532881Y-74968831D01*
X151716756Y-75076279D01*
X151726042Y-75080729D01*
X151925001Y-75156703D01*
X151934899Y-75159579D01*
X152038250Y-75180606D01*
X152052299Y-75179410D01*
X152056000Y-75169065D01*
X152056000Y-75168517D01*
X152564000Y-75168517D01*
X152568064Y-75182359D01*
X152581478Y-75184393D01*
X152588184Y-75183534D01*
X152598262Y-75181392D01*
X152802255Y-75120191D01*
X152811842Y-75116433D01*
X153003095Y-75022739D01*
X153011945Y-75017464D01*
X153185328Y-74893792D01*
X153193200Y-74887139D01*
X153344052Y-74736812D01*
X153350730Y-74728965D01*
X153475003Y-74556020D01*
X153480313Y-74547183D01*
X153574670Y-74356267D01*
X153578469Y-74346672D01*
X153640377Y-74142910D01*
X153642555Y-74132837D01*
X153643986Y-74121962D01*
X153641775Y-74107778D01*
X153628617Y-74104000D01*
X152582115Y-74104000D01*
X152566876Y-74108475D01*
X152565671Y-74109865D01*
X152564000Y-74117548D01*
X152564000Y-75168517D01*
X152056000Y-75168517D01*
X152056000Y-73577885D01*
X152564000Y-73577885D01*
X152568475Y-73593124D01*
X152569865Y-73594329D01*
X152577548Y-73596000D01*
X153628344Y-73596000D01*
X153641875Y-73592027D01*
X153643180Y-73582947D01*
X153601214Y-73415875D01*
X153597894Y-73406124D01*
X153512972Y-73210814D01*
X153508105Y-73201739D01*
X153392426Y-73022926D01*
X153386136Y-73014757D01*
X153242806Y-72857240D01*
X153235273Y-72850215D01*
X153068139Y-72718222D01*
X153059552Y-72712517D01*
X152873117Y-72609599D01*
X152863705Y-72605369D01*
X152662959Y-72534280D01*
X152652988Y-72531646D01*
X152581837Y-72518972D01*
X152568540Y-72520432D01*
X152564000Y-72534989D01*
X152564000Y-73577885D01*
X152056000Y-73577885D01*
X152056000Y-72533102D01*
X152052082Y-72519758D01*
X152037806Y-72517771D01*
X151999324Y-72523660D01*
X151989288Y-72526051D01*
X151786868Y-72592212D01*
X151777359Y-72596209D01*
X151588463Y-72694542D01*
X151579738Y-72700036D01*
X151409433Y-72827905D01*
X151401726Y-72834748D01*
X151254590Y-72988717D01*
X151248109Y-72996722D01*
X151143498Y-73150074D01*
X151088587Y-73195076D01*
X151018062Y-73203247D01*
X150954315Y-73171993D01*
X150933618Y-73147509D01*
X150852822Y-73022617D01*
X150852820Y-73022614D01*
X150850014Y-73018277D01*
X150699670Y-72853051D01*
X150695619Y-72849852D01*
X150695615Y-72849848D01*
X150528414Y-72717800D01*
X150528410Y-72717798D01*
X150524359Y-72714598D01*
X150488028Y-72694542D01*
X150472136Y-72685769D01*
X150328789Y-72606638D01*
X150323920Y-72604914D01*
X150323916Y-72604912D01*
X150123087Y-72533795D01*
X150123083Y-72533794D01*
X150118212Y-72532069D01*
X150113119Y-72531162D01*
X150113116Y-72531161D01*
X149903373Y-72493800D01*
X149903367Y-72493799D01*
X149898284Y-72492894D01*
X149824452Y-72491992D01*
X149680081Y-72490228D01*
X149680079Y-72490228D01*
X149674911Y-72490165D01*
X149454091Y-72523955D01*
X149241756Y-72593357D01*
X149043607Y-72696507D01*
X149039474Y-72699610D01*
X149039471Y-72699612D01*
X148869100Y-72827530D01*
X148864965Y-72830635D01*
X148861393Y-72834373D01*
X148753729Y-72947037D01*
X148710629Y-72992138D01*
X148603201Y-73149621D01*
X148548293Y-73194621D01*
X148477768Y-73202792D01*
X148414021Y-73171538D01*
X148393324Y-73147054D01*
X148312822Y-73022617D01*
X148312820Y-73022614D01*
X148310014Y-73018277D01*
X148159670Y-72853051D01*
X148155619Y-72849852D01*
X148155615Y-72849848D01*
X147988414Y-72717800D01*
X147988410Y-72717798D01*
X147984359Y-72714598D01*
X147948028Y-72694542D01*
X147932136Y-72685769D01*
X147788789Y-72606638D01*
X147783920Y-72604914D01*
X147783916Y-72604912D01*
X147583087Y-72533795D01*
X147583083Y-72533794D01*
X147578212Y-72532069D01*
X147573119Y-72531162D01*
X147573116Y-72531161D01*
X147363373Y-72493800D01*
X147363367Y-72493799D01*
X147358284Y-72492894D01*
X147284452Y-72491992D01*
X147140081Y-72490228D01*
X147140079Y-72490228D01*
X147134911Y-72490165D01*
X146914091Y-72523955D01*
X146701756Y-72593357D01*
X146503607Y-72696507D01*
X146499474Y-72699610D01*
X146499471Y-72699612D01*
X146329100Y-72827530D01*
X146324965Y-72830635D01*
X146321393Y-72834373D01*
X146213729Y-72947037D01*
X146170629Y-72992138D01*
X146063201Y-73149621D01*
X146008293Y-73194621D01*
X145937768Y-73202792D01*
X145874021Y-73171538D01*
X145853324Y-73147054D01*
X145772822Y-73022617D01*
X145772820Y-73022614D01*
X145770014Y-73018277D01*
X145619670Y-72853051D01*
X145615619Y-72849852D01*
X145615615Y-72849848D01*
X145448414Y-72717800D01*
X145448410Y-72717798D01*
X145444359Y-72714598D01*
X145408028Y-72694542D01*
X145392136Y-72685769D01*
X145248789Y-72606638D01*
X145243920Y-72604914D01*
X145243916Y-72604912D01*
X145043087Y-72533795D01*
X145043083Y-72533794D01*
X145038212Y-72532069D01*
X145033119Y-72531162D01*
X145033116Y-72531161D01*
X144823373Y-72493800D01*
X144823367Y-72493799D01*
X144818284Y-72492894D01*
X144744452Y-72491992D01*
X144600081Y-72490228D01*
X144600079Y-72490228D01*
X144594911Y-72490165D01*
X144374091Y-72523955D01*
X144161756Y-72593357D01*
X143963607Y-72696507D01*
X143959474Y-72699610D01*
X143959471Y-72699612D01*
X143789100Y-72827530D01*
X143784965Y-72830635D01*
X143728537Y-72889684D01*
X143704283Y-72915064D01*
X143642759Y-72950494D01*
X143571846Y-72947037D01*
X143514060Y-72905791D01*
X143495207Y-72872243D01*
X143453767Y-72761703D01*
X143450615Y-72753295D01*
X143363261Y-72636739D01*
X143246705Y-72549385D01*
X143110316Y-72498255D01*
X143048134Y-72491500D01*
X141251866Y-72491500D01*
X141189684Y-72498255D01*
X141053295Y-72549385D01*
X140936739Y-72636739D01*
X140849385Y-72753295D01*
X140798255Y-72889684D01*
X140791500Y-72951866D01*
X140791500Y-74748134D01*
X140798255Y-74810316D01*
X140849385Y-74946705D01*
X140936739Y-75063261D01*
X141053295Y-75150615D01*
X141189684Y-75201745D01*
X141251866Y-75208500D01*
X143048134Y-75208500D01*
X143110316Y-75201745D01*
X143246705Y-75150615D01*
X143363261Y-75063261D01*
X143450615Y-74946705D01*
X143472799Y-74887529D01*
X143494598Y-74829382D01*
X143537240Y-74772618D01*
X143603802Y-74747918D01*
X143673150Y-74763126D01*
X143707817Y-74791114D01*
X143736250Y-74823938D01*
X143908126Y-74966632D01*
X143912593Y-74969242D01*
X143994070Y-75016853D01*
X144042794Y-75068491D01*
X144056500Y-75125641D01*
X144056500Y-80105405D01*
X144036498Y-80173526D01*
X144019595Y-80194500D01*
X140723247Y-83490848D01*
X140660935Y-83524874D01*
X140601542Y-83523460D01*
X140538087Y-83506457D01*
X140310000Y-83486502D01*
X140081913Y-83506457D01*
X140076600Y-83507881D01*
X140076598Y-83507881D01*
X139866067Y-83564293D01*
X139866065Y-83564294D01*
X139860757Y-83565716D01*
X139855776Y-83568039D01*
X139855775Y-83568039D01*
X139658238Y-83660151D01*
X139658233Y-83660154D01*
X139653251Y-83662477D01*
X139596080Y-83702509D01*
X139470211Y-83790643D01*
X139470208Y-83790645D01*
X139465700Y-83793802D01*
X139303802Y-83955700D01*
X139172477Y-84143251D01*
X139170154Y-84148233D01*
X139170151Y-84148238D01*
X139134817Y-84224013D01*
X139075716Y-84350757D01*
X139074294Y-84356065D01*
X139074293Y-84356067D01*
X139017883Y-84566591D01*
X139016457Y-84571913D01*
X138996502Y-84800000D01*
X139016457Y-85028087D01*
X139017880Y-85033398D01*
X139017882Y-85033409D01*
X139033459Y-85091541D01*
X139031770Y-85162517D01*
X139000848Y-85213248D01*
X136237747Y-87976348D01*
X136229461Y-87983888D01*
X136222982Y-87988000D01*
X136217557Y-87993777D01*
X136176357Y-88037651D01*
X136173602Y-88040493D01*
X136153865Y-88060230D01*
X136151385Y-88063427D01*
X136143682Y-88072447D01*
X136113414Y-88104679D01*
X136109595Y-88111625D01*
X136109593Y-88111628D01*
X136103652Y-88122434D01*
X136092801Y-88138953D01*
X136080386Y-88154959D01*
X136077241Y-88162228D01*
X136077238Y-88162232D01*
X136062826Y-88195537D01*
X136057609Y-88206187D01*
X136036305Y-88244940D01*
X136034334Y-88252615D01*
X136034334Y-88252616D01*
X136031267Y-88264562D01*
X136024863Y-88283266D01*
X136016819Y-88301855D01*
X136015580Y-88309678D01*
X136015577Y-88309688D01*
X136009901Y-88345524D01*
X136007495Y-88357144D01*
X136003859Y-88371306D01*
X135996500Y-88399970D01*
X135996500Y-88420224D01*
X135994949Y-88439934D01*
X135991780Y-88459943D01*
X135995001Y-88494012D01*
X135995941Y-88503961D01*
X135996500Y-88515819D01*
X135996500Y-88672835D01*
X135976498Y-88740956D01*
X135922842Y-88787449D01*
X135852568Y-88797553D01*
X135810571Y-88783671D01*
X135789733Y-88772404D01*
X135762435Y-88757644D01*
X135615368Y-88712119D01*
X135574707Y-88699532D01*
X135574704Y-88699531D01*
X135568820Y-88697710D01*
X135562695Y-88697066D01*
X135562694Y-88697066D01*
X135373378Y-88677168D01*
X135373377Y-88677168D01*
X135367250Y-88676524D01*
X135283986Y-88684102D01*
X135171543Y-88694335D01*
X135171540Y-88694336D01*
X135165404Y-88694894D01*
X135159498Y-88696632D01*
X135159494Y-88696633D01*
X135024947Y-88736233D01*
X134970971Y-88752119D01*
X134965514Y-88754972D01*
X134965511Y-88754973D01*
X134932169Y-88772404D01*
X134791355Y-88846019D01*
X134633399Y-88973019D01*
X134503119Y-89128281D01*
X134500155Y-89133673D01*
X134500152Y-89133677D01*
X134493772Y-89145283D01*
X134405477Y-89305891D01*
X134344193Y-89499084D01*
X134326500Y-89656817D01*
X134326500Y-90216004D01*
X131158500Y-90216004D01*
X131158500Y-85886062D01*
X131968493Y-85886062D01*
X131977789Y-85898077D01*
X132028994Y-85933931D01*
X132038489Y-85939414D01*
X132235947Y-86031490D01*
X132246239Y-86035236D01*
X132456688Y-86091625D01*
X132467481Y-86093528D01*
X132684525Y-86112517D01*
X132695475Y-86112517D01*
X132912519Y-86093528D01*
X132923312Y-86091625D01*
X133133761Y-86035236D01*
X133144053Y-86031490D01*
X133341511Y-85939414D01*
X133351006Y-85933931D01*
X133403048Y-85897491D01*
X133411424Y-85887012D01*
X133404356Y-85873566D01*
X132702812Y-85172022D01*
X132688868Y-85164408D01*
X132687035Y-85164539D01*
X132680420Y-85168790D01*
X131974923Y-85874287D01*
X131968493Y-85886062D01*
X131158500Y-85886062D01*
X131158500Y-85095154D01*
X131178502Y-85027033D01*
X131232158Y-84980540D01*
X131302432Y-84970436D01*
X131367012Y-84999930D01*
X131406207Y-85062543D01*
X131454764Y-85243761D01*
X131458510Y-85254053D01*
X131550586Y-85451511D01*
X131556069Y-85461006D01*
X131592509Y-85513048D01*
X131602988Y-85521424D01*
X131616434Y-85514356D01*
X132317978Y-84812812D01*
X132324356Y-84801132D01*
X133054408Y-84801132D01*
X133054539Y-84802965D01*
X133058790Y-84809580D01*
X133764287Y-85515077D01*
X133776062Y-85521507D01*
X133788077Y-85512211D01*
X133823931Y-85461006D01*
X133829414Y-85451511D01*
X133921490Y-85254053D01*
X133925236Y-85243761D01*
X133981625Y-85033312D01*
X133983528Y-85022519D01*
X134002517Y-84805475D01*
X134002517Y-84794525D01*
X133983528Y-84577481D01*
X133981625Y-84566688D01*
X133925236Y-84356239D01*
X133921490Y-84345947D01*
X133829414Y-84148489D01*
X133823931Y-84138994D01*
X133787491Y-84086952D01*
X133777012Y-84078576D01*
X133763566Y-84085644D01*
X133062022Y-84787188D01*
X133054408Y-84801132D01*
X132324356Y-84801132D01*
X132325592Y-84798868D01*
X132325461Y-84797035D01*
X132321210Y-84790420D01*
X131615713Y-84084923D01*
X131603938Y-84078493D01*
X131591923Y-84087789D01*
X131556069Y-84138994D01*
X131550586Y-84148489D01*
X131458510Y-84345947D01*
X131454764Y-84356239D01*
X131406207Y-84537457D01*
X131369255Y-84598080D01*
X131305395Y-84629101D01*
X131234900Y-84620673D01*
X131180153Y-84575470D01*
X131158500Y-84504846D01*
X131158500Y-83712988D01*
X131968576Y-83712988D01*
X131975644Y-83726434D01*
X132677188Y-84427978D01*
X132691132Y-84435592D01*
X132692965Y-84435461D01*
X132699580Y-84431210D01*
X133405077Y-83725713D01*
X133411507Y-83713938D01*
X133402211Y-83701923D01*
X133351006Y-83666069D01*
X133341511Y-83660586D01*
X133144053Y-83568510D01*
X133133761Y-83564764D01*
X132923312Y-83508375D01*
X132912519Y-83506472D01*
X132695475Y-83487483D01*
X132684525Y-83487483D01*
X132467481Y-83506472D01*
X132456688Y-83508375D01*
X132246239Y-83564764D01*
X132235947Y-83568510D01*
X132038489Y-83660586D01*
X132028994Y-83666069D01*
X131976952Y-83702509D01*
X131968576Y-83712988D01*
X131158500Y-83712988D01*
X131158500Y-72084500D01*
X131178502Y-72016379D01*
X131232158Y-71969886D01*
X131284500Y-71958500D01*
X163165500Y-71958500D01*
X163233621Y-71978502D01*
G37*
%TD.AperFunction*%
%TA.AperFunction,Conductor*%
G36*
X146042026Y-74525144D02*
G01*
X146069875Y-74556994D01*
X146129987Y-74655088D01*
X146276250Y-74823938D01*
X146448126Y-74966632D01*
X146452593Y-74969242D01*
X146534070Y-75016853D01*
X146582794Y-75068491D01*
X146596500Y-75125641D01*
X146596500Y-80845405D01*
X146576498Y-80913526D01*
X146559595Y-80934500D01*
X144003247Y-83490848D01*
X143940935Y-83524874D01*
X143881542Y-83523460D01*
X143818087Y-83506457D01*
X143590000Y-83486502D01*
X143361913Y-83506457D01*
X143356600Y-83507881D01*
X143356598Y-83507881D01*
X143146067Y-83564293D01*
X143146065Y-83564294D01*
X143140757Y-83565716D01*
X143135776Y-83568039D01*
X143135775Y-83568039D01*
X142938238Y-83660151D01*
X142938233Y-83660154D01*
X142933251Y-83662477D01*
X142876080Y-83702509D01*
X142750211Y-83790643D01*
X142750208Y-83790645D01*
X142745700Y-83793802D01*
X142583802Y-83955700D01*
X142452477Y-84143251D01*
X142450154Y-84148233D01*
X142450151Y-84148238D01*
X142414817Y-84224013D01*
X142355716Y-84350757D01*
X142354294Y-84356065D01*
X142354293Y-84356067D01*
X142297883Y-84566591D01*
X142296457Y-84571913D01*
X142276502Y-84800000D01*
X142296457Y-85028087D01*
X142297880Y-85033398D01*
X142297881Y-85033402D01*
X142335025Y-85172022D01*
X142355716Y-85249243D01*
X142358039Y-85254224D01*
X142358039Y-85254225D01*
X142450151Y-85451762D01*
X142450154Y-85451767D01*
X142452477Y-85456749D01*
X142583802Y-85644300D01*
X142745700Y-85806198D01*
X142750208Y-85809355D01*
X142750211Y-85809357D01*
X142828389Y-85864098D01*
X142933251Y-85937523D01*
X142938233Y-85939846D01*
X142938238Y-85939849D01*
X143134765Y-86031490D01*
X143140757Y-86034284D01*
X143146065Y-86035706D01*
X143146067Y-86035707D01*
X143356598Y-86092119D01*
X143356600Y-86092119D01*
X143361913Y-86093543D01*
X143590000Y-86113498D01*
X143818087Y-86093543D01*
X143823398Y-86092120D01*
X143823409Y-86092118D01*
X143881541Y-86076541D01*
X143952517Y-86078230D01*
X144003248Y-86109152D01*
X146390045Y-88495949D01*
X146424071Y-88558261D01*
X146419006Y-88629076D01*
X146376459Y-88685912D01*
X146309939Y-88710723D01*
X146263692Y-88705409D01*
X146238820Y-88697710D01*
X146232695Y-88697066D01*
X146232694Y-88697066D01*
X146043378Y-88677168D01*
X146043377Y-88677168D01*
X146037250Y-88676524D01*
X145953986Y-88684102D01*
X145841543Y-88694335D01*
X145841540Y-88694336D01*
X145835404Y-88694894D01*
X145829498Y-88696632D01*
X145829494Y-88696633D01*
X145694947Y-88736233D01*
X145640971Y-88752119D01*
X145635514Y-88754972D01*
X145635511Y-88754973D01*
X145602169Y-88772404D01*
X145461355Y-88846019D01*
X145303399Y-88973019D01*
X145173119Y-89128281D01*
X145170155Y-89133673D01*
X145170152Y-89133677D01*
X145163772Y-89145283D01*
X145075477Y-89305891D01*
X145014193Y-89499084D01*
X144996500Y-89656817D01*
X144996500Y-90216004D01*
X145011277Y-90366713D01*
X145069858Y-90560742D01*
X145165010Y-90739698D01*
X145168904Y-90744472D01*
X145168905Y-90744474D01*
X145181826Y-90760316D01*
X145293110Y-90896763D01*
X145297857Y-90900690D01*
X145297859Y-90900692D01*
X145444528Y-91022027D01*
X145444531Y-91022029D01*
X145449278Y-91025956D01*
X145627565Y-91122356D01*
X145713547Y-91148972D01*
X145815293Y-91180468D01*
X145815296Y-91180469D01*
X145821180Y-91182290D01*
X145827305Y-91182934D01*
X145827306Y-91182934D01*
X146016622Y-91202832D01*
X146016623Y-91202832D01*
X146022750Y-91203476D01*
X146119377Y-91194682D01*
X146218457Y-91185665D01*
X146218460Y-91185664D01*
X146224596Y-91185106D01*
X146230502Y-91183368D01*
X146230506Y-91183367D01*
X146413120Y-91129620D01*
X146413119Y-91129620D01*
X146419029Y-91127881D01*
X146424486Y-91125028D01*
X146424489Y-91125027D01*
X146561765Y-91053261D01*
X146598460Y-91034077D01*
X146598462Y-91034077D01*
X146598645Y-91033981D01*
X146598663Y-91034016D01*
X146664441Y-91014111D01*
X146725409Y-91029271D01*
X146897565Y-91122356D01*
X146983547Y-91148972D01*
X147085293Y-91180468D01*
X147085296Y-91180469D01*
X147091180Y-91182290D01*
X147209085Y-91194682D01*
X147274741Y-91221695D01*
X147315371Y-91279917D01*
X147318074Y-91350862D01*
X147285009Y-91409087D01*
X144003248Y-94690848D01*
X143940936Y-94724874D01*
X143881541Y-94723459D01*
X143823409Y-94707882D01*
X143823398Y-94707880D01*
X143818087Y-94706457D01*
X143590000Y-94686502D01*
X143361913Y-94706457D01*
X143356600Y-94707881D01*
X143356598Y-94707881D01*
X143146067Y-94764293D01*
X143146065Y-94764294D01*
X143140757Y-94765716D01*
X143135776Y-94768039D01*
X143135775Y-94768039D01*
X142938238Y-94860151D01*
X142938233Y-94860154D01*
X142933251Y-94862477D01*
X142876080Y-94902509D01*
X142750211Y-94990643D01*
X142750208Y-94990645D01*
X142745700Y-94993802D01*
X142583802Y-95155700D01*
X142452477Y-95343251D01*
X142450154Y-95348233D01*
X142450151Y-95348238D01*
X142450034Y-95348489D01*
X142355716Y-95550757D01*
X142354294Y-95556065D01*
X142354293Y-95556067D01*
X142304972Y-95740135D01*
X142296457Y-95771913D01*
X142276502Y-96000000D01*
X142296457Y-96228087D01*
X142297881Y-96233400D01*
X142297881Y-96233402D01*
X142335025Y-96372022D01*
X142355716Y-96449243D01*
X142358039Y-96454224D01*
X142358039Y-96454225D01*
X142450151Y-96651762D01*
X142450154Y-96651767D01*
X142452477Y-96656749D01*
X142583802Y-96844300D01*
X142745700Y-97006198D01*
X142750208Y-97009355D01*
X142750211Y-97009357D01*
X142902771Y-97116181D01*
X142947099Y-97171638D01*
X142956500Y-97219394D01*
X142956500Y-100591233D01*
X142955973Y-100602416D01*
X142954298Y-100609909D01*
X142954547Y-100617835D01*
X142954547Y-100617836D01*
X142956438Y-100677986D01*
X142956500Y-100681945D01*
X142956500Y-100709856D01*
X142956997Y-100713790D01*
X142956997Y-100713791D01*
X142957005Y-100713856D01*
X142957938Y-100725693D01*
X142959327Y-100769889D01*
X142964978Y-100789339D01*
X142968987Y-100808700D01*
X142971526Y-100828797D01*
X142974445Y-100836168D01*
X142974445Y-100836170D01*
X142987804Y-100869912D01*
X142991649Y-100881142D01*
X143003982Y-100923593D01*
X143008015Y-100930412D01*
X143008017Y-100930417D01*
X143014293Y-100941028D01*
X143022988Y-100958776D01*
X143030448Y-100977617D01*
X143035110Y-100984033D01*
X143035110Y-100984034D01*
X143056436Y-101013387D01*
X143062952Y-101023307D01*
X143085458Y-101061362D01*
X143099779Y-101075683D01*
X143112619Y-101090716D01*
X143124528Y-101107107D01*
X143130634Y-101112158D01*
X143158605Y-101135298D01*
X143167384Y-101143288D01*
X144775086Y-102750990D01*
X144809112Y-102813302D01*
X144804047Y-102884117D01*
X144761500Y-102940953D01*
X144694980Y-102965764D01*
X144684459Y-102966076D01*
X144636962Y-102965495D01*
X144615080Y-102965228D01*
X144615078Y-102965228D01*
X144609911Y-102965165D01*
X144389091Y-102998955D01*
X144376532Y-103003060D01*
X144305568Y-103005210D01*
X144248294Y-102972389D01*
X141080405Y-99804500D01*
X141046379Y-99742188D01*
X141043500Y-99715405D01*
X141043500Y-97219394D01*
X141063502Y-97151273D01*
X141097229Y-97116181D01*
X141249789Y-97009357D01*
X141249792Y-97009355D01*
X141254300Y-97006198D01*
X141416198Y-96844300D01*
X141547523Y-96656749D01*
X141549846Y-96651767D01*
X141549849Y-96651762D01*
X141641961Y-96454225D01*
X141641961Y-96454224D01*
X141644284Y-96449243D01*
X141664976Y-96372022D01*
X141702119Y-96233402D01*
X141702119Y-96233400D01*
X141703543Y-96228087D01*
X141723498Y-96000000D01*
X141703543Y-95771913D01*
X141695028Y-95740135D01*
X141645707Y-95556067D01*
X141645706Y-95556065D01*
X141644284Y-95550757D01*
X141549966Y-95348489D01*
X141549849Y-95348238D01*
X141549846Y-95348233D01*
X141547523Y-95343251D01*
X141416198Y-95155700D01*
X141254300Y-94993802D01*
X141249792Y-94990645D01*
X141249789Y-94990643D01*
X141123920Y-94902509D01*
X141066749Y-94862477D01*
X141061767Y-94860154D01*
X141061762Y-94860151D01*
X140864225Y-94768039D01*
X140864224Y-94768039D01*
X140859243Y-94765716D01*
X140853935Y-94764294D01*
X140853933Y-94764293D01*
X140643402Y-94707881D01*
X140643400Y-94707881D01*
X140638087Y-94706457D01*
X140410000Y-94686502D01*
X140181913Y-94706457D01*
X140176602Y-94707880D01*
X140176591Y-94707882D01*
X140118459Y-94723459D01*
X140047483Y-94721770D01*
X139996752Y-94690848D01*
X138570405Y-93264500D01*
X138536379Y-93202188D01*
X138533500Y-93175405D01*
X138533500Y-91279754D01*
X138553502Y-91211633D01*
X138607158Y-91165140D01*
X138615270Y-91161772D01*
X138663297Y-91143767D01*
X138671705Y-91140615D01*
X138788261Y-91053261D01*
X138875615Y-90936705D01*
X138926745Y-90800316D01*
X138933500Y-90738134D01*
X138933500Y-89141866D01*
X138926745Y-89079684D01*
X138875615Y-88943295D01*
X138788261Y-88826739D01*
X138671705Y-88739385D01*
X138535316Y-88688255D01*
X138473134Y-88681500D01*
X137628594Y-88681500D01*
X137560473Y-88661498D01*
X137513980Y-88607842D01*
X137503876Y-88537568D01*
X137533370Y-88472988D01*
X137539499Y-88466405D01*
X139896752Y-86109152D01*
X139959064Y-86075126D01*
X140018459Y-86076541D01*
X140076591Y-86092118D01*
X140076602Y-86092120D01*
X140081913Y-86093543D01*
X140310000Y-86113498D01*
X140538087Y-86093543D01*
X140543400Y-86092119D01*
X140543402Y-86092119D01*
X140753933Y-86035707D01*
X140753935Y-86035706D01*
X140759243Y-86034284D01*
X140765235Y-86031490D01*
X140961762Y-85939849D01*
X140961767Y-85939846D01*
X140966749Y-85937523D01*
X141071611Y-85864098D01*
X141149789Y-85809357D01*
X141149792Y-85809355D01*
X141154300Y-85806198D01*
X141316198Y-85644300D01*
X141447523Y-85456749D01*
X141449846Y-85451767D01*
X141449849Y-85451762D01*
X141541961Y-85254225D01*
X141541961Y-85254224D01*
X141544284Y-85249243D01*
X141564976Y-85172022D01*
X141602119Y-85033402D01*
X141602120Y-85033398D01*
X141603543Y-85028087D01*
X141623498Y-84800000D01*
X141603543Y-84571913D01*
X141602119Y-84566598D01*
X141602118Y-84566591D01*
X141586541Y-84508459D01*
X141588230Y-84437483D01*
X141619152Y-84386752D01*
X145082247Y-80923657D01*
X145090537Y-80916113D01*
X145097018Y-80912000D01*
X145143659Y-80862332D01*
X145146413Y-80859491D01*
X145166134Y-80839770D01*
X145168612Y-80836575D01*
X145176318Y-80827553D01*
X145201158Y-80801101D01*
X145206586Y-80795321D01*
X145216346Y-80777568D01*
X145227199Y-80761045D01*
X145234753Y-80751306D01*
X145239613Y-80745041D01*
X145257176Y-80704457D01*
X145262383Y-80693827D01*
X145283695Y-80655060D01*
X145285666Y-80647383D01*
X145285668Y-80647378D01*
X145288732Y-80635442D01*
X145295138Y-80616730D01*
X145300034Y-80605417D01*
X145303181Y-80598145D01*
X145310097Y-80554481D01*
X145312504Y-80542860D01*
X145321528Y-80507711D01*
X145321528Y-80507710D01*
X145323500Y-80500030D01*
X145323500Y-80479769D01*
X145325051Y-80460058D01*
X145326979Y-80447885D01*
X145328219Y-80440057D01*
X145324059Y-80396046D01*
X145323500Y-80384189D01*
X145323500Y-75130427D01*
X145343502Y-75062306D01*
X145384618Y-75022550D01*
X145387994Y-75020896D01*
X145569860Y-74891173D01*
X145728096Y-74733489D01*
X145858453Y-74552077D01*
X145859776Y-74553028D01*
X145906645Y-74509857D01*
X145976580Y-74497625D01*
X146042026Y-74525144D01*
G37*
%TD.AperFunction*%
%TD*%
M02*
