%TF.GenerationSoftware,KiCad,Pcbnew,(6.0.5-0)*%
%TF.CreationDate,2023-04-14T18:12:18+02:00*%
%TF.ProjectId,PixelJuice_TransistorStage,50697865-6c4a-4756-9963-655f5472616e,rev?*%
%TF.SameCoordinates,Original*%
%TF.FileFunction,Legend,Top*%
%TF.FilePolarity,Positive*%
%FSLAX46Y46*%
G04 Gerber Fmt 4.6, Leading zero omitted, Abs format (unit mm)*
G04 Created by KiCad (PCBNEW (6.0.5-0)) date 2023-04-14 18:12:18*
%MOMM*%
%LPD*%
G01*
G04 APERTURE LIST*
%ADD10C,0.150000*%
%ADD11C,0.120000*%
G04 APERTURE END LIST*
D10*
X144959523Y-102202380D02*
X144626190Y-101726190D01*
X144388095Y-102202380D02*
X144388095Y-101202380D01*
X144769047Y-101202380D01*
X144864285Y-101250000D01*
X144911904Y-101297619D01*
X144959523Y-101392857D01*
X144959523Y-101535714D01*
X144911904Y-101630952D01*
X144864285Y-101678571D01*
X144769047Y-101726190D01*
X144388095Y-101726190D01*
X144959523Y-77102380D02*
X144626190Y-76626190D01*
X144388095Y-77102380D02*
X144388095Y-76102380D01*
X144769047Y-76102380D01*
X144864285Y-76150000D01*
X144911904Y-76197619D01*
X144959523Y-76292857D01*
X144959523Y-76435714D01*
X144911904Y-76530952D01*
X144864285Y-76578571D01*
X144769047Y-76626190D01*
X144388095Y-76626190D01*
X151588095Y-101200000D02*
X151492857Y-101152380D01*
X151350000Y-101152380D01*
X151207142Y-101200000D01*
X151111904Y-101295238D01*
X151064285Y-101390476D01*
X151016666Y-101580952D01*
X151016666Y-101723809D01*
X151064285Y-101914285D01*
X151111904Y-102009523D01*
X151207142Y-102104761D01*
X151350000Y-102152380D01*
X151445238Y-102152380D01*
X151588095Y-102104761D01*
X151635714Y-102057142D01*
X151635714Y-101723809D01*
X151445238Y-101723809D01*
X152064285Y-102152380D02*
X152064285Y-101152380D01*
X152635714Y-102152380D01*
X152635714Y-101152380D01*
X153111904Y-102152380D02*
X153111904Y-101152380D01*
X153350000Y-101152380D01*
X153492857Y-101200000D01*
X153588095Y-101295238D01*
X153635714Y-101390476D01*
X153683333Y-101580952D01*
X153683333Y-101723809D01*
X153635714Y-101914285D01*
X153588095Y-102009523D01*
X153492857Y-102104761D01*
X153350000Y-102152380D01*
X153111904Y-102152380D01*
X147250000Y-101726190D02*
X147250000Y-102202380D01*
X146916666Y-101202380D02*
X147250000Y-101726190D01*
X147583333Y-101202380D01*
X147250000Y-76626190D02*
X147250000Y-77102380D01*
X146916666Y-76102380D02*
X147250000Y-76626190D01*
X147583333Y-76102380D01*
X149871428Y-101628571D02*
X150014285Y-101676190D01*
X150061904Y-101723809D01*
X150109523Y-101819047D01*
X150109523Y-101961904D01*
X150061904Y-102057142D01*
X150014285Y-102104761D01*
X149919047Y-102152380D01*
X149538095Y-102152380D01*
X149538095Y-101152380D01*
X149871428Y-101152380D01*
X149966666Y-101200000D01*
X150014285Y-101247619D01*
X150061904Y-101342857D01*
X150061904Y-101438095D01*
X150014285Y-101533333D01*
X149966666Y-101580952D01*
X149871428Y-101628571D01*
X149538095Y-101628571D01*
X140314285Y-101771428D02*
X141076190Y-101771428D01*
X140695238Y-102152380D02*
X140695238Y-101390476D01*
X142028571Y-101152380D02*
X141552380Y-101152380D01*
X141504761Y-101628571D01*
X141552380Y-101580952D01*
X141647619Y-101533333D01*
X141885714Y-101533333D01*
X141980952Y-101580952D01*
X142028571Y-101628571D01*
X142076190Y-101723809D01*
X142076190Y-101961904D01*
X142028571Y-102057142D01*
X141980952Y-102104761D01*
X141885714Y-102152380D01*
X141647619Y-102152380D01*
X141552380Y-102104761D01*
X141504761Y-102057142D01*
X142361904Y-101152380D02*
X142695238Y-102152380D01*
X143028571Y-101152380D01*
X156321428Y-103223571D02*
X156464285Y-103271190D01*
X156511904Y-103318809D01*
X156559523Y-103414047D01*
X156559523Y-103556904D01*
X156511904Y-103652142D01*
X156464285Y-103699761D01*
X156369047Y-103747380D01*
X155988095Y-103747380D01*
X155988095Y-102747380D01*
X156321428Y-102747380D01*
X156416666Y-102795000D01*
X156464285Y-102842619D01*
X156511904Y-102937857D01*
X156511904Y-103033095D01*
X156464285Y-103128333D01*
X156416666Y-103175952D01*
X156321428Y-103223571D01*
X155988095Y-103223571D01*
X157416666Y-103747380D02*
X157416666Y-103223571D01*
X157369047Y-103128333D01*
X157273809Y-103080714D01*
X157083333Y-103080714D01*
X156988095Y-103128333D01*
X157416666Y-103699761D02*
X157321428Y-103747380D01*
X157083333Y-103747380D01*
X156988095Y-103699761D01*
X156940476Y-103604523D01*
X156940476Y-103509285D01*
X156988095Y-103414047D01*
X157083333Y-103366428D01*
X157321428Y-103366428D01*
X157416666Y-103318809D01*
X158321428Y-103699761D02*
X158226190Y-103747380D01*
X158035714Y-103747380D01*
X157940476Y-103699761D01*
X157892857Y-103652142D01*
X157845238Y-103556904D01*
X157845238Y-103271190D01*
X157892857Y-103175952D01*
X157940476Y-103128333D01*
X158035714Y-103080714D01*
X158226190Y-103080714D01*
X158321428Y-103128333D01*
X158750000Y-103747380D02*
X158750000Y-102747380D01*
X158845238Y-103366428D02*
X159130952Y-103747380D01*
X159130952Y-103080714D02*
X158750000Y-103461666D01*
X160178571Y-102747380D02*
X160750000Y-102747380D01*
X160464285Y-103747380D02*
X160464285Y-102747380D01*
X161226190Y-103747380D02*
X161130952Y-103699761D01*
X161083333Y-103652142D01*
X161035714Y-103556904D01*
X161035714Y-103271190D01*
X161083333Y-103175952D01*
X161130952Y-103128333D01*
X161226190Y-103080714D01*
X161369047Y-103080714D01*
X161464285Y-103128333D01*
X161511904Y-103175952D01*
X161559523Y-103271190D01*
X161559523Y-103556904D01*
X161511904Y-103652142D01*
X161464285Y-103699761D01*
X161369047Y-103747380D01*
X161226190Y-103747380D01*
X154845238Y-105357380D02*
X154845238Y-104357380D01*
X155226190Y-104357380D01*
X155321428Y-104405000D01*
X155369047Y-104452619D01*
X155416666Y-104547857D01*
X155416666Y-104690714D01*
X155369047Y-104785952D01*
X155321428Y-104833571D01*
X155226190Y-104881190D01*
X154845238Y-104881190D01*
X155845238Y-105357380D02*
X155845238Y-104690714D01*
X155845238Y-104357380D02*
X155797619Y-104405000D01*
X155845238Y-104452619D01*
X155892857Y-104405000D01*
X155845238Y-104357380D01*
X155845238Y-104452619D01*
X156226190Y-105357380D02*
X156750000Y-104690714D01*
X156226190Y-104690714D02*
X156750000Y-105357380D01*
X157511904Y-105309761D02*
X157416666Y-105357380D01*
X157226190Y-105357380D01*
X157130952Y-105309761D01*
X157083333Y-105214523D01*
X157083333Y-104833571D01*
X157130952Y-104738333D01*
X157226190Y-104690714D01*
X157416666Y-104690714D01*
X157511904Y-104738333D01*
X157559523Y-104833571D01*
X157559523Y-104928809D01*
X157083333Y-105024047D01*
X158130952Y-105357380D02*
X158035714Y-105309761D01*
X157988095Y-105214523D01*
X157988095Y-104357380D01*
X159559523Y-104357380D02*
X159559523Y-105071666D01*
X159511904Y-105214523D01*
X159416666Y-105309761D01*
X159273809Y-105357380D01*
X159178571Y-105357380D01*
X160464285Y-104690714D02*
X160464285Y-105357380D01*
X160035714Y-104690714D02*
X160035714Y-105214523D01*
X160083333Y-105309761D01*
X160178571Y-105357380D01*
X160321428Y-105357380D01*
X160416666Y-105309761D01*
X160464285Y-105262142D01*
X160940476Y-105357380D02*
X160940476Y-104690714D01*
X160940476Y-104357380D02*
X160892857Y-104405000D01*
X160940476Y-104452619D01*
X160988095Y-104405000D01*
X160940476Y-104357380D01*
X160940476Y-104452619D01*
X161845238Y-105309761D02*
X161750000Y-105357380D01*
X161559523Y-105357380D01*
X161464285Y-105309761D01*
X161416666Y-105262142D01*
X161369047Y-105166904D01*
X161369047Y-104881190D01*
X161416666Y-104785952D01*
X161464285Y-104738333D01*
X161559523Y-104690714D01*
X161750000Y-104690714D01*
X161845238Y-104738333D01*
X162654761Y-105309761D02*
X162559523Y-105357380D01*
X162369047Y-105357380D01*
X162273809Y-105309761D01*
X162226190Y-105214523D01*
X162226190Y-104833571D01*
X162273809Y-104738333D01*
X162369047Y-104690714D01*
X162559523Y-104690714D01*
X162654761Y-104738333D01*
X162702380Y-104833571D01*
X162702380Y-104928809D01*
X162226190Y-105024047D01*
X134564285Y-73373571D02*
X134230952Y-73373571D01*
X134230952Y-73897380D02*
X134230952Y-72897380D01*
X134707142Y-72897380D01*
X135088095Y-73897380D02*
X135088095Y-73230714D01*
X135088095Y-73421190D02*
X135135714Y-73325952D01*
X135183333Y-73278333D01*
X135278571Y-73230714D01*
X135373809Y-73230714D01*
X135850000Y-73897380D02*
X135754761Y-73849761D01*
X135707142Y-73802142D01*
X135659523Y-73706904D01*
X135659523Y-73421190D01*
X135707142Y-73325952D01*
X135754761Y-73278333D01*
X135850000Y-73230714D01*
X135992857Y-73230714D01*
X136088095Y-73278333D01*
X136135714Y-73325952D01*
X136183333Y-73421190D01*
X136183333Y-73706904D01*
X136135714Y-73802142D01*
X136088095Y-73849761D01*
X135992857Y-73897380D01*
X135850000Y-73897380D01*
X136611904Y-73897380D02*
X136611904Y-73230714D01*
X136611904Y-73325952D02*
X136659523Y-73278333D01*
X136754761Y-73230714D01*
X136897619Y-73230714D01*
X136992857Y-73278333D01*
X137040476Y-73373571D01*
X137040476Y-73897380D01*
X137040476Y-73373571D02*
X137088095Y-73278333D01*
X137183333Y-73230714D01*
X137326190Y-73230714D01*
X137421428Y-73278333D01*
X137469047Y-73373571D01*
X137469047Y-73897380D01*
X131945238Y-75507380D02*
X131945238Y-74507380D01*
X132326190Y-74507380D01*
X132421428Y-74555000D01*
X132469047Y-74602619D01*
X132516666Y-74697857D01*
X132516666Y-74840714D01*
X132469047Y-74935952D01*
X132421428Y-74983571D01*
X132326190Y-75031190D01*
X131945238Y-75031190D01*
X132945238Y-75507380D02*
X132945238Y-74840714D01*
X132945238Y-74507380D02*
X132897619Y-74555000D01*
X132945238Y-74602619D01*
X132992857Y-74555000D01*
X132945238Y-74507380D01*
X132945238Y-74602619D01*
X133326190Y-75507380D02*
X133850000Y-74840714D01*
X133326190Y-74840714D02*
X133850000Y-75507380D01*
X134611904Y-75459761D02*
X134516666Y-75507380D01*
X134326190Y-75507380D01*
X134230952Y-75459761D01*
X134183333Y-75364523D01*
X134183333Y-74983571D01*
X134230952Y-74888333D01*
X134326190Y-74840714D01*
X134516666Y-74840714D01*
X134611904Y-74888333D01*
X134659523Y-74983571D01*
X134659523Y-75078809D01*
X134183333Y-75174047D01*
X135230952Y-75507380D02*
X135135714Y-75459761D01*
X135088095Y-75364523D01*
X135088095Y-74507380D01*
X136659523Y-74507380D02*
X136659523Y-75221666D01*
X136611904Y-75364523D01*
X136516666Y-75459761D01*
X136373809Y-75507380D01*
X136278571Y-75507380D01*
X137564285Y-74840714D02*
X137564285Y-75507380D01*
X137135714Y-74840714D02*
X137135714Y-75364523D01*
X137183333Y-75459761D01*
X137278571Y-75507380D01*
X137421428Y-75507380D01*
X137516666Y-75459761D01*
X137564285Y-75412142D01*
X138040476Y-75507380D02*
X138040476Y-74840714D01*
X138040476Y-74507380D02*
X137992857Y-74555000D01*
X138040476Y-74602619D01*
X138088095Y-74555000D01*
X138040476Y-74507380D01*
X138040476Y-74602619D01*
X138945238Y-75459761D02*
X138850000Y-75507380D01*
X138659523Y-75507380D01*
X138564285Y-75459761D01*
X138516666Y-75412142D01*
X138469047Y-75316904D01*
X138469047Y-75031190D01*
X138516666Y-74935952D01*
X138564285Y-74888333D01*
X138659523Y-74840714D01*
X138850000Y-74840714D01*
X138945238Y-74888333D01*
X139754761Y-75459761D02*
X139659523Y-75507380D01*
X139469047Y-75507380D01*
X139373809Y-75459761D01*
X139326190Y-75364523D01*
X139326190Y-74983571D01*
X139373809Y-74888333D01*
X139469047Y-74840714D01*
X139659523Y-74840714D01*
X139754761Y-74888333D01*
X139802380Y-74983571D01*
X139802380Y-75078809D01*
X139326190Y-75174047D01*
X151588095Y-76100000D02*
X151492857Y-76052380D01*
X151350000Y-76052380D01*
X151207142Y-76100000D01*
X151111904Y-76195238D01*
X151064285Y-76290476D01*
X151016666Y-76480952D01*
X151016666Y-76623809D01*
X151064285Y-76814285D01*
X151111904Y-76909523D01*
X151207142Y-77004761D01*
X151350000Y-77052380D01*
X151445238Y-77052380D01*
X151588095Y-77004761D01*
X151635714Y-76957142D01*
X151635714Y-76623809D01*
X151445238Y-76623809D01*
X152064285Y-77052380D02*
X152064285Y-76052380D01*
X152635714Y-77052380D01*
X152635714Y-76052380D01*
X153111904Y-77052380D02*
X153111904Y-76052380D01*
X153350000Y-76052380D01*
X153492857Y-76100000D01*
X153588095Y-76195238D01*
X153635714Y-76290476D01*
X153683333Y-76480952D01*
X153683333Y-76623809D01*
X153635714Y-76814285D01*
X153588095Y-76909523D01*
X153492857Y-77004761D01*
X153350000Y-77052380D01*
X153111904Y-77052380D01*
X140314285Y-76671428D02*
X141076190Y-76671428D01*
X140695238Y-77052380D02*
X140695238Y-76290476D01*
X142028571Y-76052380D02*
X141552380Y-76052380D01*
X141504761Y-76528571D01*
X141552380Y-76480952D01*
X141647619Y-76433333D01*
X141885714Y-76433333D01*
X141980952Y-76480952D01*
X142028571Y-76528571D01*
X142076190Y-76623809D01*
X142076190Y-76861904D01*
X142028571Y-76957142D01*
X141980952Y-77004761D01*
X141885714Y-77052380D01*
X141647619Y-77052380D01*
X141552380Y-77004761D01*
X141504761Y-76957142D01*
X142361904Y-76052380D02*
X142695238Y-77052380D01*
X143028571Y-76052380D01*
X149871428Y-76528571D02*
X150014285Y-76576190D01*
X150061904Y-76623809D01*
X150109523Y-76719047D01*
X150109523Y-76861904D01*
X150061904Y-76957142D01*
X150014285Y-77004761D01*
X149919047Y-77052380D01*
X149538095Y-77052380D01*
X149538095Y-76052380D01*
X149871428Y-76052380D01*
X149966666Y-76100000D01*
X150014285Y-76147619D01*
X150061904Y-76242857D01*
X150061904Y-76338095D01*
X150014285Y-76433333D01*
X149966666Y-76480952D01*
X149871428Y-76528571D01*
X149538095Y-76528571D01*
%TO.C,R5*%
X136433333Y-94082380D02*
X136100000Y-93606190D01*
X135861904Y-94082380D02*
X135861904Y-93082380D01*
X136242857Y-93082380D01*
X136338095Y-93130000D01*
X136385714Y-93177619D01*
X136433333Y-93272857D01*
X136433333Y-93415714D01*
X136385714Y-93510952D01*
X136338095Y-93558571D01*
X136242857Y-93606190D01*
X135861904Y-93606190D01*
X137338095Y-93082380D02*
X136861904Y-93082380D01*
X136814285Y-93558571D01*
X136861904Y-93510952D01*
X136957142Y-93463333D01*
X137195238Y-93463333D01*
X137290476Y-93510952D01*
X137338095Y-93558571D01*
X137385714Y-93653809D01*
X137385714Y-93891904D01*
X137338095Y-93987142D01*
X137290476Y-94034761D01*
X137195238Y-94082380D01*
X136957142Y-94082380D01*
X136861904Y-94034761D01*
X136814285Y-93987142D01*
%TO.C,R7*%
X158033333Y-94082380D02*
X157700000Y-93606190D01*
X157461904Y-94082380D02*
X157461904Y-93082380D01*
X157842857Y-93082380D01*
X157938095Y-93130000D01*
X157985714Y-93177619D01*
X158033333Y-93272857D01*
X158033333Y-93415714D01*
X157985714Y-93510952D01*
X157938095Y-93558571D01*
X157842857Y-93606190D01*
X157461904Y-93606190D01*
X158366666Y-93082380D02*
X159033333Y-93082380D01*
X158604761Y-94082380D01*
%TO.C,R4*%
X157933333Y-82902380D02*
X157600000Y-82426190D01*
X157361904Y-82902380D02*
X157361904Y-81902380D01*
X157742857Y-81902380D01*
X157838095Y-81950000D01*
X157885714Y-81997619D01*
X157933333Y-82092857D01*
X157933333Y-82235714D01*
X157885714Y-82330952D01*
X157838095Y-82378571D01*
X157742857Y-82426190D01*
X157361904Y-82426190D01*
X158790476Y-82235714D02*
X158790476Y-82902380D01*
X158552380Y-81854761D02*
X158314285Y-82569047D01*
X158933333Y-82569047D01*
%TO.C,R3*%
X147233333Y-82902380D02*
X146900000Y-82426190D01*
X146661904Y-82902380D02*
X146661904Y-81902380D01*
X147042857Y-81902380D01*
X147138095Y-81950000D01*
X147185714Y-81997619D01*
X147233333Y-82092857D01*
X147233333Y-82235714D01*
X147185714Y-82330952D01*
X147138095Y-82378571D01*
X147042857Y-82426190D01*
X146661904Y-82426190D01*
X147566666Y-81902380D02*
X148185714Y-81902380D01*
X147852380Y-82283333D01*
X147995238Y-82283333D01*
X148090476Y-82330952D01*
X148138095Y-82378571D01*
X148185714Y-82473809D01*
X148185714Y-82711904D01*
X148138095Y-82807142D01*
X148090476Y-82854761D01*
X147995238Y-82902380D01*
X147709523Y-82902380D01*
X147614285Y-82854761D01*
X147566666Y-82807142D01*
%TO.C,Q2*%
X147204761Y-87697619D02*
X147109523Y-87650000D01*
X147014285Y-87554761D01*
X146871428Y-87411904D01*
X146776190Y-87364285D01*
X146680952Y-87364285D01*
X146728571Y-87602380D02*
X146633333Y-87554761D01*
X146538095Y-87459523D01*
X146490476Y-87269047D01*
X146490476Y-86935714D01*
X146538095Y-86745238D01*
X146633333Y-86650000D01*
X146728571Y-86602380D01*
X146919047Y-86602380D01*
X147014285Y-86650000D01*
X147109523Y-86745238D01*
X147157142Y-86935714D01*
X147157142Y-87269047D01*
X147109523Y-87459523D01*
X147014285Y-87554761D01*
X146919047Y-87602380D01*
X146728571Y-87602380D01*
X147538095Y-86697619D02*
X147585714Y-86650000D01*
X147680952Y-86602380D01*
X147919047Y-86602380D01*
X148014285Y-86650000D01*
X148061904Y-86697619D01*
X148109523Y-86792857D01*
X148109523Y-86888095D01*
X148061904Y-87030952D01*
X147490476Y-87602380D01*
X148109523Y-87602380D01*
%TO.C,R2*%
X136333333Y-82882380D02*
X136000000Y-82406190D01*
X135761904Y-82882380D02*
X135761904Y-81882380D01*
X136142857Y-81882380D01*
X136238095Y-81930000D01*
X136285714Y-81977619D01*
X136333333Y-82072857D01*
X136333333Y-82215714D01*
X136285714Y-82310952D01*
X136238095Y-82358571D01*
X136142857Y-82406190D01*
X135761904Y-82406190D01*
X136714285Y-81977619D02*
X136761904Y-81930000D01*
X136857142Y-81882380D01*
X137095238Y-81882380D01*
X137190476Y-81930000D01*
X137238095Y-81977619D01*
X137285714Y-82072857D01*
X137285714Y-82168095D01*
X137238095Y-82310952D01*
X136666666Y-82882380D01*
X137285714Y-82882380D01*
%TO.C,R6*%
X147233333Y-94052380D02*
X146900000Y-93576190D01*
X146661904Y-94052380D02*
X146661904Y-93052380D01*
X147042857Y-93052380D01*
X147138095Y-93100000D01*
X147185714Y-93147619D01*
X147233333Y-93242857D01*
X147233333Y-93385714D01*
X147185714Y-93480952D01*
X147138095Y-93528571D01*
X147042857Y-93576190D01*
X146661904Y-93576190D01*
X148090476Y-93052380D02*
X147900000Y-93052380D01*
X147804761Y-93100000D01*
X147757142Y-93147619D01*
X147661904Y-93290476D01*
X147614285Y-93480952D01*
X147614285Y-93861904D01*
X147661904Y-93957142D01*
X147709523Y-94004761D01*
X147804761Y-94052380D01*
X147995238Y-94052380D01*
X148090476Y-94004761D01*
X148138095Y-93957142D01*
X148185714Y-93861904D01*
X148185714Y-93623809D01*
X148138095Y-93528571D01*
X148090476Y-93480952D01*
X147995238Y-93433333D01*
X147804761Y-93433333D01*
X147709523Y-93480952D01*
X147661904Y-93528571D01*
X147614285Y-93623809D01*
%TO.C,Q3*%
X158134761Y-87647619D02*
X158039523Y-87600000D01*
X157944285Y-87504761D01*
X157801428Y-87361904D01*
X157706190Y-87314285D01*
X157610952Y-87314285D01*
X157658571Y-87552380D02*
X157563333Y-87504761D01*
X157468095Y-87409523D01*
X157420476Y-87219047D01*
X157420476Y-86885714D01*
X157468095Y-86695238D01*
X157563333Y-86600000D01*
X157658571Y-86552380D01*
X157849047Y-86552380D01*
X157944285Y-86600000D01*
X158039523Y-86695238D01*
X158087142Y-86885714D01*
X158087142Y-87219047D01*
X158039523Y-87409523D01*
X157944285Y-87504761D01*
X157849047Y-87552380D01*
X157658571Y-87552380D01*
X158420476Y-86552380D02*
X159039523Y-86552380D01*
X158706190Y-86933333D01*
X158849047Y-86933333D01*
X158944285Y-86980952D01*
X158991904Y-87028571D01*
X159039523Y-87123809D01*
X159039523Y-87361904D01*
X158991904Y-87457142D01*
X158944285Y-87504761D01*
X158849047Y-87552380D01*
X158563333Y-87552380D01*
X158468095Y-87504761D01*
X158420476Y-87457142D01*
%TO.C,R1*%
X157383333Y-77352380D02*
X157050000Y-76876190D01*
X156811904Y-77352380D02*
X156811904Y-76352380D01*
X157192857Y-76352380D01*
X157288095Y-76400000D01*
X157335714Y-76447619D01*
X157383333Y-76542857D01*
X157383333Y-76685714D01*
X157335714Y-76780952D01*
X157288095Y-76828571D01*
X157192857Y-76876190D01*
X156811904Y-76876190D01*
X158335714Y-77352380D02*
X157764285Y-77352380D01*
X158050000Y-77352380D02*
X158050000Y-76352380D01*
X157954761Y-76495238D01*
X157859523Y-76590476D01*
X157764285Y-76638095D01*
%TO.C,Q1*%
X136534761Y-87697619D02*
X136439523Y-87650000D01*
X136344285Y-87554761D01*
X136201428Y-87411904D01*
X136106190Y-87364285D01*
X136010952Y-87364285D01*
X136058571Y-87602380D02*
X135963333Y-87554761D01*
X135868095Y-87459523D01*
X135820476Y-87269047D01*
X135820476Y-86935714D01*
X135868095Y-86745238D01*
X135963333Y-86650000D01*
X136058571Y-86602380D01*
X136249047Y-86602380D01*
X136344285Y-86650000D01*
X136439523Y-86745238D01*
X136487142Y-86935714D01*
X136487142Y-87269047D01*
X136439523Y-87459523D01*
X136344285Y-87554761D01*
X136249047Y-87602380D01*
X136058571Y-87602380D01*
X137439523Y-87602380D02*
X136868095Y-87602380D01*
X137153809Y-87602380D02*
X137153809Y-86602380D01*
X137058571Y-86745238D01*
X136963333Y-86840476D01*
X136868095Y-86888095D01*
D11*
%TO.C,R5*%
X139870000Y-97370000D02*
X139870000Y-97040000D01*
X139870000Y-94630000D02*
X139870000Y-94960000D01*
X133330000Y-94630000D02*
X139870000Y-94630000D01*
X133330000Y-97040000D02*
X133330000Y-97370000D01*
X133330000Y-97370000D02*
X139870000Y-97370000D01*
X133330000Y-94960000D02*
X133330000Y-94630000D01*
%TO.C,R7*%
X154930000Y-94630000D02*
X161470000Y-94630000D01*
X154930000Y-97370000D02*
X161470000Y-97370000D01*
X161470000Y-94630000D02*
X161470000Y-94960000D01*
X154930000Y-94960000D02*
X154930000Y-94630000D01*
X154930000Y-97040000D02*
X154930000Y-97370000D01*
X161470000Y-97370000D02*
X161470000Y-97040000D01*
%TO.C,R4*%
X154830000Y-83430000D02*
X154830000Y-83760000D01*
X161370000Y-83760000D02*
X161370000Y-83430000D01*
X161370000Y-83430000D02*
X154830000Y-83430000D01*
X161370000Y-86170000D02*
X154830000Y-86170000D01*
X161370000Y-85840000D02*
X161370000Y-86170000D01*
X154830000Y-86170000D02*
X154830000Y-85840000D01*
%TO.C,R3*%
X150670000Y-83760000D02*
X150670000Y-83430000D01*
X150670000Y-85840000D02*
X150670000Y-86170000D01*
X150670000Y-83430000D02*
X144130000Y-83430000D01*
X150670000Y-86170000D02*
X144130000Y-86170000D01*
X144130000Y-86170000D02*
X144130000Y-85840000D01*
X144130000Y-83430000D02*
X144130000Y-83760000D01*
%TO.C,Q2*%
X149100000Y-88090000D02*
X145500000Y-88090000D01*
X147300000Y-92540001D02*
G75*
G03*
X149138478Y-88101522I0J2600001D01*
G01*
X145461522Y-88101522D02*
G75*
G03*
X147300000Y-92540000I1838478J-1838478D01*
G01*
%TO.C,R2*%
X133230000Y-85840000D02*
X133230000Y-86170000D01*
X139770000Y-83430000D02*
X139770000Y-83760000D01*
X133230000Y-83760000D02*
X133230000Y-83430000D01*
X133230000Y-86170000D02*
X139770000Y-86170000D01*
X139770000Y-86170000D02*
X139770000Y-85840000D01*
X133230000Y-83430000D02*
X139770000Y-83430000D01*
%TO.C,R6*%
X144130000Y-94630000D02*
X144130000Y-94960000D01*
X150670000Y-97040000D02*
X150670000Y-97370000D01*
X150670000Y-94960000D02*
X150670000Y-94630000D01*
X150670000Y-94630000D02*
X144130000Y-94630000D01*
X150670000Y-97370000D02*
X144130000Y-97370000D01*
X144130000Y-97370000D02*
X144130000Y-97040000D01*
%TO.C,Q3*%
X160030000Y-88050000D02*
X156430000Y-88050000D01*
X158230000Y-92500001D02*
G75*
G03*
X160068478Y-88061522I0J2600001D01*
G01*
X156391522Y-88061522D02*
G75*
G03*
X158230000Y-92500000I1838478J-1838478D01*
G01*
%TO.C,R1*%
X156820000Y-77830000D02*
X150280000Y-77830000D01*
X156820000Y-80240000D02*
X156820000Y-80570000D01*
X156820000Y-78160000D02*
X156820000Y-77830000D01*
X150280000Y-80570000D02*
X150280000Y-80240000D01*
X156820000Y-80570000D02*
X150280000Y-80570000D01*
X150280000Y-77830000D02*
X150280000Y-78160000D01*
%TO.C,Q1*%
X138430000Y-88090000D02*
X134830000Y-88090000D01*
X136630000Y-92540001D02*
G75*
G03*
X138468478Y-88101522I0J2600001D01*
G01*
X134791522Y-88101522D02*
G75*
G03*
X136630000Y-92540000I1838478J-1838478D01*
G01*
%TD*%
M02*
