%TF.GenerationSoftware,KiCad,Pcbnew,(6.0.5-0)*%
%TF.CreationDate,2022-07-20T14:51:46+02:00*%
%TF.ProjectId,bus driver,62757320-6472-4697-9665-722e6b696361,rev?*%
%TF.SameCoordinates,Original*%
%TF.FileFunction,Soldermask,Bot*%
%TF.FilePolarity,Negative*%
%FSLAX46Y46*%
G04 Gerber Fmt 4.6, Leading zero omitted, Abs format (unit mm)*
G04 Created by KiCad (PCBNEW (6.0.5-0)) date 2022-07-20 14:51:46*
%MOMM*%
%LPD*%
G01*
G04 APERTURE LIST*
%ADD10C,1.600000*%
%ADD11C,5.600000*%
%ADD12R,1.600000X1.600000*%
%ADD13O,1.600000X1.600000*%
%ADD14R,2.032000X2.032000*%
%ADD15C,2.032000*%
%ADD16R,1.700000X1.700000*%
%ADD17O,1.700000X1.700000*%
G04 APERTURE END LIST*
D10*
%TO.C,C1*%
X132727454Y-104871200D03*
X132727454Y-107371200D03*
%TD*%
%TO.C,C2*%
X132778254Y-93238000D03*
X132778254Y-95738000D03*
%TD*%
D11*
%TO.C,*%
X167728654Y-124358400D03*
%TD*%
D12*
%TO.C,RN2*%
X137322800Y-73914000D03*
D13*
X139862800Y-73914000D03*
X142402800Y-73914000D03*
X144942800Y-73914000D03*
X147482800Y-73914000D03*
X150022800Y-73914000D03*
X152562800Y-73914000D03*
X155102800Y-73914000D03*
X157642800Y-73914000D03*
%TD*%
D14*
%TO.C,BAR1*%
X137318300Y-86410800D03*
D15*
X139858300Y-86410800D03*
X142398300Y-86410800D03*
X144938300Y-86410800D03*
X147478300Y-86410800D03*
X150018300Y-86410800D03*
X152558300Y-86410800D03*
X155098300Y-86410800D03*
X157638300Y-86410800D03*
X160178300Y-86410800D03*
X160178300Y-78790800D03*
X157638300Y-78790800D03*
X155098300Y-78790800D03*
X152558300Y-78790800D03*
X150018300Y-78790800D03*
X147478300Y-78790800D03*
X144938300Y-78790800D03*
X142398300Y-78790800D03*
X139858300Y-78790800D03*
X137318300Y-78790800D03*
%TD*%
D12*
%TO.C,SW1*%
X139842400Y-125941500D03*
D13*
X142382400Y-125941500D03*
X144922400Y-125941500D03*
X147462400Y-125941500D03*
X150002400Y-125941500D03*
X152542400Y-125941500D03*
X155082400Y-125941500D03*
X157622400Y-125941500D03*
X157622400Y-118321500D03*
X155082400Y-118321500D03*
X152542400Y-118321500D03*
X150002400Y-118321500D03*
X147462400Y-118321500D03*
X144922400Y-118321500D03*
X142382400Y-118321500D03*
X139842400Y-118321500D03*
%TD*%
D12*
%TO.C,RN1*%
X160162000Y-113792000D03*
D13*
X157622000Y-113792000D03*
X155082000Y-113792000D03*
X152542000Y-113792000D03*
X150002000Y-113792000D03*
X147462000Y-113792000D03*
X144922000Y-113792000D03*
X142382000Y-113792000D03*
X139842000Y-113792000D03*
%TD*%
D16*
%TO.C,SW2*%
X167677854Y-112486200D03*
D17*
X167677854Y-115026200D03*
X167677854Y-117566200D03*
%TD*%
D12*
%TO.C,U2*%
X137292000Y-98288000D03*
D13*
X139832000Y-98288000D03*
X142372000Y-98288000D03*
X144912000Y-98288000D03*
X147452000Y-98288000D03*
X149992000Y-98288000D03*
X152532000Y-98288000D03*
X155072000Y-98288000D03*
X157612000Y-98288000D03*
X160152000Y-98288000D03*
X160152000Y-90668000D03*
X157612000Y-90668000D03*
X155072000Y-90668000D03*
X152532000Y-90668000D03*
X149992000Y-90668000D03*
X147452000Y-90668000D03*
X144912000Y-90668000D03*
X142372000Y-90668000D03*
X139832000Y-90668000D03*
X137292000Y-90668000D03*
%TD*%
D10*
%TO.C,R1*%
X167627054Y-99822000D03*
D13*
X167627054Y-107442000D03*
%TD*%
D11*
%TO.C,*%
X167728654Y-69443600D03*
%TD*%
D16*
%TO.C,J1*%
X137350254Y-68173600D03*
D17*
X139890254Y-68173600D03*
X142430254Y-68173600D03*
X144970254Y-68173600D03*
X147510254Y-68173600D03*
X150050254Y-68173600D03*
X152590254Y-68173600D03*
X155130254Y-68173600D03*
X157670254Y-68173600D03*
X160210254Y-68173600D03*
%TD*%
D11*
%TO.C,*%
X129781054Y-69443600D03*
%TD*%
%TO.C,*%
X129730254Y-124409200D03*
%TD*%
D12*
%TO.C,U1*%
X137292000Y-109921200D03*
D13*
X139832000Y-109921200D03*
X142372000Y-109921200D03*
X144912000Y-109921200D03*
X147452000Y-109921200D03*
X149992000Y-109921200D03*
X152532000Y-109921200D03*
X155072000Y-109921200D03*
X157612000Y-109921200D03*
X160152000Y-109921200D03*
X160152000Y-102301200D03*
X157612000Y-102301200D03*
X155072000Y-102301200D03*
X152532000Y-102301200D03*
X149992000Y-102301200D03*
X147452000Y-102301200D03*
X144912000Y-102301200D03*
X142372000Y-102301200D03*
X139832000Y-102301200D03*
X137292000Y-102301200D03*
%TD*%
M02*
