%TF.GenerationSoftware,KiCad,Pcbnew,(6.0.5-0)*%
%TF.CreationDate,2022-07-20T14:51:46+02:00*%
%TF.ProjectId,bus driver,62757320-6472-4697-9665-722e6b696361,rev?*%
%TF.SameCoordinates,Original*%
%TF.FileFunction,Copper,L1,Top*%
%TF.FilePolarity,Positive*%
%FSLAX46Y46*%
G04 Gerber Fmt 4.6, Leading zero omitted, Abs format (unit mm)*
G04 Created by KiCad (PCBNEW (6.0.5-0)) date 2022-07-20 14:51:46*
%MOMM*%
%LPD*%
G01*
G04 APERTURE LIST*
%TA.AperFunction,ComponentPad*%
%ADD10C,1.600000*%
%TD*%
%TA.AperFunction,ComponentPad*%
%ADD11C,5.600000*%
%TD*%
%TA.AperFunction,ComponentPad*%
%ADD12R,1.600000X1.600000*%
%TD*%
%TA.AperFunction,ComponentPad*%
%ADD13O,1.600000X1.600000*%
%TD*%
%TA.AperFunction,ComponentPad*%
%ADD14R,2.032000X2.032000*%
%TD*%
%TA.AperFunction,ComponentPad*%
%ADD15C,2.032000*%
%TD*%
%TA.AperFunction,ComponentPad*%
%ADD16R,1.700000X1.700000*%
%TD*%
%TA.AperFunction,ComponentPad*%
%ADD17O,1.700000X1.700000*%
%TD*%
%TA.AperFunction,Conductor*%
%ADD18C,0.250000*%
%TD*%
G04 APERTURE END LIST*
D10*
%TO.P,C1,1*%
%TO.N,+5V*%
X132727454Y-104871200D03*
%TO.P,C1,2*%
%TO.N,GND*%
X132727454Y-107371200D03*
%TD*%
%TO.P,C2,1*%
%TO.N,+5V*%
X132778254Y-93238000D03*
%TO.P,C2,2*%
%TO.N,GND*%
X132778254Y-95738000D03*
%TD*%
D11*
%TO.P,,1*%
%TO.N,N/C*%
X167728654Y-124358400D03*
%TD*%
D12*
%TO.P,RN2,1,common*%
%TO.N,GND*%
X137322800Y-73914000D03*
D13*
%TO.P,RN2,2,R1*%
%TO.N,Net-(BAR1-Pad19)*%
X139862800Y-73914000D03*
%TO.P,RN2,3,R2*%
%TO.N,Net-(BAR1-Pad18)*%
X142402800Y-73914000D03*
%TO.P,RN2,4,R3*%
%TO.N,Net-(BAR1-Pad17)*%
X144942800Y-73914000D03*
%TO.P,RN2,5,R4*%
%TO.N,Net-(BAR1-Pad16)*%
X147482800Y-73914000D03*
%TO.P,RN2,6,R5*%
%TO.N,Net-(BAR1-Pad15)*%
X150022800Y-73914000D03*
%TO.P,RN2,7,R6*%
%TO.N,Net-(BAR1-Pad14)*%
X152562800Y-73914000D03*
%TO.P,RN2,8,R7*%
%TO.N,Net-(BAR1-Pad13)*%
X155102800Y-73914000D03*
%TO.P,RN2,9,R8*%
%TO.N,Net-(BAR1-Pad12)*%
X157642800Y-73914000D03*
%TD*%
D14*
%TO.P,BAR1,1,A*%
%TO.N,unconnected-(BAR1-Pad1)*%
X137318300Y-86410800D03*
D15*
%TO.P,BAR1,2,A*%
%TO.N,Net-(BAR1-Pad2)*%
X139858300Y-86410800D03*
%TO.P,BAR1,3,A*%
%TO.N,Net-(BAR1-Pad3)*%
X142398300Y-86410800D03*
%TO.P,BAR1,4,A*%
%TO.N,Net-(BAR1-Pad4)*%
X144938300Y-86410800D03*
%TO.P,BAR1,5,A*%
%TO.N,Net-(BAR1-Pad5)*%
X147478300Y-86410800D03*
%TO.P,BAR1,6,A*%
%TO.N,Net-(BAR1-Pad6)*%
X150018300Y-86410800D03*
%TO.P,BAR1,7,A*%
%TO.N,Net-(BAR1-Pad7)*%
X152558300Y-86410800D03*
%TO.P,BAR1,8,A*%
%TO.N,Net-(BAR1-Pad8)*%
X155098300Y-86410800D03*
%TO.P,BAR1,9,A*%
%TO.N,Net-(BAR1-Pad9)*%
X157638300Y-86410800D03*
%TO.P,BAR1,10,A*%
%TO.N,unconnected-(BAR1-Pad10)*%
X160178300Y-86410800D03*
%TO.P,BAR1,11,K*%
%TO.N,unconnected-(BAR1-Pad11)*%
X160178300Y-78790800D03*
%TO.P,BAR1,12,K*%
%TO.N,Net-(BAR1-Pad12)*%
X157638300Y-78790800D03*
%TO.P,BAR1,13,K*%
%TO.N,Net-(BAR1-Pad13)*%
X155098300Y-78790800D03*
%TO.P,BAR1,14,K*%
%TO.N,Net-(BAR1-Pad14)*%
X152558300Y-78790800D03*
%TO.P,BAR1,15,K*%
%TO.N,Net-(BAR1-Pad15)*%
X150018300Y-78790800D03*
%TO.P,BAR1,16,K*%
%TO.N,Net-(BAR1-Pad16)*%
X147478300Y-78790800D03*
%TO.P,BAR1,17,K*%
%TO.N,Net-(BAR1-Pad17)*%
X144938300Y-78790800D03*
%TO.P,BAR1,18,K*%
%TO.N,Net-(BAR1-Pad18)*%
X142398300Y-78790800D03*
%TO.P,BAR1,19,K*%
%TO.N,Net-(BAR1-Pad19)*%
X139858300Y-78790800D03*
%TO.P,BAR1,20,K*%
%TO.N,unconnected-(BAR1-Pad20)*%
X137318300Y-78790800D03*
%TD*%
D12*
%TO.P,SW1,1*%
%TO.N,+5V*%
X139842400Y-125941500D03*
D13*
%TO.P,SW1,2*%
X142382400Y-125941500D03*
%TO.P,SW1,3*%
X144922400Y-125941500D03*
%TO.P,SW1,4*%
X147462400Y-125941500D03*
%TO.P,SW1,5*%
X150002400Y-125941500D03*
%TO.P,SW1,6*%
X152542400Y-125941500D03*
%TO.P,SW1,7*%
X155082400Y-125941500D03*
%TO.P,SW1,8*%
X157622400Y-125941500D03*
%TO.P,SW1,9*%
%TO.N,Net-(RN1-Pad2)*%
X157622400Y-118321500D03*
%TO.P,SW1,10*%
%TO.N,Net-(RN1-Pad3)*%
X155082400Y-118321500D03*
%TO.P,SW1,11*%
%TO.N,Net-(RN1-Pad4)*%
X152542400Y-118321500D03*
%TO.P,SW1,12*%
%TO.N,Net-(RN1-Pad5)*%
X150002400Y-118321500D03*
%TO.P,SW1,13*%
%TO.N,Net-(RN1-Pad6)*%
X147462400Y-118321500D03*
%TO.P,SW1,14*%
%TO.N,Net-(RN1-Pad7)*%
X144922400Y-118321500D03*
%TO.P,SW1,15*%
%TO.N,Net-(RN1-Pad8)*%
X142382400Y-118321500D03*
%TO.P,SW1,16*%
%TO.N,Net-(RN1-Pad9)*%
X139842400Y-118321500D03*
%TD*%
D12*
%TO.P,RN1,1,common*%
%TO.N,GND*%
X160162000Y-113792000D03*
D13*
%TO.P,RN1,2,R1*%
%TO.N,Net-(RN1-Pad2)*%
X157622000Y-113792000D03*
%TO.P,RN1,3,R2*%
%TO.N,Net-(RN1-Pad3)*%
X155082000Y-113792000D03*
%TO.P,RN1,4,R3*%
%TO.N,Net-(RN1-Pad4)*%
X152542000Y-113792000D03*
%TO.P,RN1,5,R4*%
%TO.N,Net-(RN1-Pad5)*%
X150002000Y-113792000D03*
%TO.P,RN1,6,R5*%
%TO.N,Net-(RN1-Pad6)*%
X147462000Y-113792000D03*
%TO.P,RN1,7,R6*%
%TO.N,Net-(RN1-Pad7)*%
X144922000Y-113792000D03*
%TO.P,RN1,8,R7*%
%TO.N,Net-(RN1-Pad8)*%
X142382000Y-113792000D03*
%TO.P,RN1,9,R8*%
%TO.N,Net-(RN1-Pad9)*%
X139842000Y-113792000D03*
%TD*%
D16*
%TO.P,SW2,1,A*%
%TO.N,GND*%
X167677854Y-112486200D03*
D17*
%TO.P,SW2,2,B*%
%TO.N,~{OE}*%
X167677854Y-115026200D03*
%TO.P,SW2,3,C*%
%TO.N,unconnected-(SW2-Pad3)*%
X167677854Y-117566200D03*
%TD*%
D12*
%TO.P,U2,1,A->B*%
%TO.N,+5V*%
X137292000Y-98288000D03*
D13*
%TO.P,U2,2,A0*%
%TO.N,/D7*%
X139832000Y-98288000D03*
%TO.P,U2,3,A1*%
%TO.N,/D6*%
X142372000Y-98288000D03*
%TO.P,U2,4,A2*%
%TO.N,/D5*%
X144912000Y-98288000D03*
%TO.P,U2,5,A3*%
%TO.N,/D4*%
X147452000Y-98288000D03*
%TO.P,U2,6,A4*%
%TO.N,/D3*%
X149992000Y-98288000D03*
%TO.P,U2,7,A5*%
%TO.N,/D2*%
X152532000Y-98288000D03*
%TO.P,U2,8,A6*%
%TO.N,/D1*%
X155072000Y-98288000D03*
%TO.P,U2,9,A7*%
%TO.N,/D0*%
X157612000Y-98288000D03*
%TO.P,U2,10,GND*%
%TO.N,GND*%
X160152000Y-98288000D03*
%TO.P,U2,11,B7*%
%TO.N,Net-(BAR1-Pad9)*%
X160152000Y-90668000D03*
%TO.P,U2,12,B6*%
%TO.N,Net-(BAR1-Pad8)*%
X157612000Y-90668000D03*
%TO.P,U2,13,B5*%
%TO.N,Net-(BAR1-Pad7)*%
X155072000Y-90668000D03*
%TO.P,U2,14,B4*%
%TO.N,Net-(BAR1-Pad6)*%
X152532000Y-90668000D03*
%TO.P,U2,15,B3*%
%TO.N,Net-(BAR1-Pad5)*%
X149992000Y-90668000D03*
%TO.P,U2,16,B2*%
%TO.N,Net-(BAR1-Pad4)*%
X147452000Y-90668000D03*
%TO.P,U2,17,B1*%
%TO.N,Net-(BAR1-Pad3)*%
X144912000Y-90668000D03*
%TO.P,U2,18,B0*%
%TO.N,Net-(BAR1-Pad2)*%
X142372000Y-90668000D03*
%TO.P,U2,19,CE*%
%TO.N,GND*%
X139832000Y-90668000D03*
%TO.P,U2,20,VCC*%
%TO.N,+5V*%
X137292000Y-90668000D03*
%TD*%
D10*
%TO.P,R1,1*%
%TO.N,~{OE}*%
X167627054Y-99822000D03*
D13*
%TO.P,R1,2*%
%TO.N,+5V*%
X167627054Y-107442000D03*
%TD*%
D11*
%TO.P,,1*%
%TO.N,N/C*%
X167728654Y-69443600D03*
%TD*%
D16*
%TO.P,J1,1,Pin_1*%
%TO.N,+5V*%
X137350254Y-68173600D03*
D17*
%TO.P,J1,2,Pin_2*%
%TO.N,/D7*%
X139890254Y-68173600D03*
%TO.P,J1,3,Pin_3*%
%TO.N,/D6*%
X142430254Y-68173600D03*
%TO.P,J1,4,Pin_4*%
%TO.N,/D5*%
X144970254Y-68173600D03*
%TO.P,J1,5,Pin_5*%
%TO.N,/D4*%
X147510254Y-68173600D03*
%TO.P,J1,6,Pin_6*%
%TO.N,/D3*%
X150050254Y-68173600D03*
%TO.P,J1,7,Pin_7*%
%TO.N,/D2*%
X152590254Y-68173600D03*
%TO.P,J1,8,Pin_8*%
%TO.N,/D1*%
X155130254Y-68173600D03*
%TO.P,J1,9,Pin_9*%
%TO.N,/D0*%
X157670254Y-68173600D03*
%TO.P,J1,10,Pin_10*%
%TO.N,GND*%
X160210254Y-68173600D03*
%TD*%
D11*
%TO.P,,1*%
%TO.N,N/C*%
X129781054Y-69443600D03*
%TD*%
%TO.P,,1*%
%TO.N,N/C*%
X129730254Y-124409200D03*
%TD*%
D12*
%TO.P,U1,1,A->B*%
%TO.N,+5V*%
X137292000Y-109921200D03*
D13*
%TO.P,U1,2,A0*%
%TO.N,Net-(RN1-Pad9)*%
X139832000Y-109921200D03*
%TO.P,U1,3,A1*%
%TO.N,Net-(RN1-Pad8)*%
X142372000Y-109921200D03*
%TO.P,U1,4,A2*%
%TO.N,Net-(RN1-Pad7)*%
X144912000Y-109921200D03*
%TO.P,U1,5,A3*%
%TO.N,Net-(RN1-Pad6)*%
X147452000Y-109921200D03*
%TO.P,U1,6,A4*%
%TO.N,Net-(RN1-Pad5)*%
X149992000Y-109921200D03*
%TO.P,U1,7,A5*%
%TO.N,Net-(RN1-Pad4)*%
X152532000Y-109921200D03*
%TO.P,U1,8,A6*%
%TO.N,Net-(RN1-Pad3)*%
X155072000Y-109921200D03*
%TO.P,U1,9,A7*%
%TO.N,Net-(RN1-Pad2)*%
X157612000Y-109921200D03*
%TO.P,U1,10,GND*%
%TO.N,GND*%
X160152000Y-109921200D03*
%TO.P,U1,11,B7*%
%TO.N,/D0*%
X160152000Y-102301200D03*
%TO.P,U1,12,B6*%
%TO.N,/D1*%
X157612000Y-102301200D03*
%TO.P,U1,13,B5*%
%TO.N,/D2*%
X155072000Y-102301200D03*
%TO.P,U1,14,B4*%
%TO.N,/D3*%
X152532000Y-102301200D03*
%TO.P,U1,15,B3*%
%TO.N,/D4*%
X149992000Y-102301200D03*
%TO.P,U1,16,B2*%
%TO.N,/D5*%
X147452000Y-102301200D03*
%TO.P,U1,17,B1*%
%TO.N,/D6*%
X144912000Y-102301200D03*
%TO.P,U1,18,B0*%
%TO.N,/D7*%
X142372000Y-102301200D03*
%TO.P,U1,19,CE*%
%TO.N,~{OE}*%
X139832000Y-102301200D03*
%TO.P,U1,20,VCC*%
%TO.N,+5V*%
X137292000Y-102301200D03*
%TD*%
D18*
%TO.N,Net-(BAR1-Pad2)*%
X142372000Y-88924500D02*
X139858300Y-86410800D01*
X142372000Y-90668000D02*
X142372000Y-88924500D01*
%TO.N,Net-(BAR1-Pad3)*%
X144912000Y-90668000D02*
X144912000Y-88924500D01*
X144912000Y-88924500D02*
X142398300Y-86410800D01*
%TO.N,Net-(BAR1-Pad4)*%
X147452000Y-88924500D02*
X144938300Y-86410800D01*
X147452000Y-90668000D02*
X147452000Y-88924500D01*
%TO.N,Net-(BAR1-Pad5)*%
X149992000Y-90668000D02*
X149992000Y-88924500D01*
X149992000Y-88924500D02*
X147478300Y-86410800D01*
%TO.N,Net-(BAR1-Pad6)*%
X152532000Y-88924500D02*
X150018300Y-86410800D01*
X152532000Y-90668000D02*
X152532000Y-88924500D01*
%TO.N,Net-(BAR1-Pad7)*%
X155072000Y-88924500D02*
X152558300Y-86410800D01*
X155072000Y-90668000D02*
X155072000Y-88924500D01*
%TO.N,Net-(BAR1-Pad8)*%
X157612000Y-90668000D02*
X157612000Y-88924500D01*
X157612000Y-88924500D02*
X155098300Y-86410800D01*
%TO.N,Net-(BAR1-Pad13)*%
X155098300Y-78790800D02*
X155098300Y-73918500D01*
X155098300Y-73918500D02*
X155102800Y-73914000D01*
%TO.N,Net-(BAR1-Pad14)*%
X152558300Y-73918500D02*
X152562800Y-73914000D01*
X152558300Y-78790800D02*
X152558300Y-73918500D01*
%TO.N,Net-(BAR1-Pad15)*%
X150018300Y-73918500D02*
X150022800Y-73914000D01*
X150018300Y-78790800D02*
X150018300Y-73918500D01*
%TO.N,Net-(BAR1-Pad16)*%
X147478300Y-78790800D02*
X147478300Y-73918500D01*
X147478300Y-73918500D02*
X147482800Y-73914000D01*
%TO.N,Net-(BAR1-Pad17)*%
X144938300Y-78790800D02*
X144938300Y-73918500D01*
X144938300Y-73918500D02*
X144942800Y-73914000D01*
%TO.N,Net-(BAR1-Pad18)*%
X142398300Y-73918500D02*
X142402800Y-73914000D01*
X142398300Y-78790800D02*
X142398300Y-73918500D01*
%TO.N,Net-(BAR1-Pad19)*%
X139858300Y-73918500D02*
X139862800Y-73914000D01*
X139858300Y-78790800D02*
X139858300Y-73918500D01*
%TO.N,Net-(RN1-Pad2)*%
X157622000Y-109931200D02*
X157612000Y-109921200D01*
X157622000Y-113792000D02*
X157622000Y-109931200D01*
X157622400Y-118321500D02*
X157622400Y-113792400D01*
X157622400Y-113792400D02*
X157622000Y-113792000D01*
%TO.N,Net-(RN1-Pad3)*%
X155082400Y-118321500D02*
X155082400Y-113792400D01*
X155082000Y-109931200D02*
X155072000Y-109921200D01*
X155082400Y-113792400D02*
X155082000Y-113792000D01*
X155082000Y-113792000D02*
X155082000Y-109931200D01*
%TO.N,Net-(RN1-Pad4)*%
X152542000Y-109931200D02*
X152532000Y-109921200D01*
X152542000Y-113792000D02*
X152542000Y-109931200D01*
X152542400Y-118321500D02*
X152542400Y-113792400D01*
X152542400Y-113792400D02*
X152542000Y-113792000D01*
%TO.N,Net-(RN1-Pad5)*%
X150002400Y-118321500D02*
X150002400Y-113792400D01*
X150002000Y-113792000D02*
X150002000Y-109931200D01*
X150002000Y-109931200D02*
X149992000Y-109921200D01*
X150002400Y-113792400D02*
X150002000Y-113792000D01*
%TO.N,Net-(RN1-Pad6)*%
X147462400Y-118321500D02*
X147462400Y-113792400D01*
X147462000Y-109931200D02*
X147452000Y-109921200D01*
X147462400Y-113792400D02*
X147462000Y-113792000D01*
X147462000Y-113792000D02*
X147462000Y-109931200D01*
%TO.N,Net-(RN1-Pad7)*%
X144922400Y-118321500D02*
X144922400Y-113792400D01*
X144922400Y-113792400D02*
X144922000Y-113792000D01*
X144922000Y-109931200D02*
X144912000Y-109921200D01*
X144922000Y-113792000D02*
X144922000Y-109931200D01*
%TO.N,Net-(RN1-Pad8)*%
X142382400Y-118321500D02*
X142382400Y-113792400D01*
X142382400Y-113792400D02*
X142382000Y-113792000D01*
X142382000Y-109931200D02*
X142372000Y-109921200D01*
X142382000Y-113792000D02*
X142382000Y-109931200D01*
%TO.N,Net-(RN1-Pad9)*%
X139842400Y-118321500D02*
X139842400Y-113792400D01*
X139842000Y-113792000D02*
X139842000Y-109931200D01*
X139842400Y-113792400D02*
X139842000Y-113792000D01*
X139842000Y-109931200D02*
X139832000Y-109921200D01*
%TO.N,+5V*%
X137292000Y-109921200D02*
X137292000Y-90668000D01*
X139842400Y-125941500D02*
X157622400Y-125941500D01*
X137292000Y-90668000D02*
X135348254Y-90668000D01*
X137292000Y-102301200D02*
X135297454Y-102301200D01*
X137292000Y-98288000D02*
X137292000Y-97751746D01*
X135348254Y-90668000D02*
X132778254Y-93238000D01*
X137292000Y-123391100D02*
X137292000Y-109921200D01*
X135297454Y-102301200D02*
X132727454Y-104871200D01*
X139842400Y-125941500D02*
X137292000Y-123391100D01*
%TO.N,~{OE}*%
X164036289Y-103425711D02*
X140956511Y-103425711D01*
X140956511Y-103425711D02*
X139832000Y-102301200D01*
X168852365Y-113851689D02*
X168852365Y-101047311D01*
X167677854Y-115026200D02*
X168852365Y-113851689D01*
X165100000Y-102349054D02*
X165100000Y-102362000D01*
X167627054Y-99822000D02*
X165100000Y-102349054D01*
X168852365Y-101047311D02*
X167627054Y-99822000D01*
X165100000Y-102362000D02*
X164036289Y-103425711D01*
%TO.N,/D0*%
X160152000Y-102301200D02*
X160152000Y-100828000D01*
X160152000Y-100828000D02*
X157612000Y-98288000D01*
%TO.N,/D1*%
X157612000Y-100828000D02*
X155072000Y-98288000D01*
X157612000Y-102301200D02*
X157612000Y-100828000D01*
%TO.N,/D2*%
X155072000Y-100828000D02*
X152532000Y-98288000D01*
X155072000Y-102301200D02*
X155072000Y-100828000D01*
%TO.N,/D3*%
X152532000Y-102301200D02*
X152532000Y-100828000D01*
X152532000Y-100828000D02*
X149992000Y-98288000D01*
%TO.N,/D4*%
X149992000Y-102301200D02*
X149992000Y-100828000D01*
X149992000Y-100828000D02*
X147452000Y-98288000D01*
%TO.N,/D5*%
X147452000Y-102301200D02*
X147452000Y-100828000D01*
X147452000Y-100828000D02*
X144912000Y-98288000D01*
%TO.N,/D6*%
X144912000Y-100828000D02*
X142372000Y-98288000D01*
X144912000Y-102301200D02*
X144912000Y-100828000D01*
%TO.N,/D7*%
X142372000Y-102301200D02*
X142372000Y-100828000D01*
X142372000Y-100828000D02*
X139832000Y-98288000D01*
%TO.N,Net-(BAR1-Pad9)*%
X160152000Y-88924500D02*
X157638300Y-86410800D01*
X160152000Y-90668000D02*
X160152000Y-88924500D01*
%TO.N,Net-(BAR1-Pad12)*%
X157638300Y-78790800D02*
X157638300Y-73918500D01*
X157638300Y-73918500D02*
X157642800Y-73914000D01*
%TD*%
%TA.AperFunction,Conductor*%
%TO.N,GND*%
G36*
X169578378Y-64518016D02*
G01*
X169581308Y-64518472D01*
X169601985Y-64521691D01*
X169610887Y-64520527D01*
X169610890Y-64520527D01*
X169619979Y-64519338D01*
X169643379Y-64518472D01*
X169908292Y-64533345D01*
X169922318Y-64534925D01*
X170134632Y-64570996D01*
X170211600Y-64584073D01*
X170225375Y-64587217D01*
X170507331Y-64668443D01*
X170520668Y-64673110D01*
X170567865Y-64692659D01*
X170791757Y-64785396D01*
X170804471Y-64791518D01*
X171061294Y-64933456D01*
X171073250Y-64940968D01*
X171312565Y-65110768D01*
X171323601Y-65119570D01*
X171392154Y-65180831D01*
X171542393Y-65315091D01*
X171552383Y-65325081D01*
X171563935Y-65338007D01*
X171747903Y-65543865D01*
X171756713Y-65554912D01*
X171926506Y-65794210D01*
X171934024Y-65806174D01*
X172075960Y-66062984D01*
X172082091Y-66075715D01*
X172194380Y-66346803D01*
X172199046Y-66360139D01*
X172280273Y-66642080D01*
X172283418Y-66655856D01*
X172291161Y-66701425D01*
X172330038Y-66930238D01*
X172332569Y-66945136D01*
X172334151Y-66959173D01*
X172338792Y-67041822D01*
X172348606Y-67216574D01*
X172347304Y-67243020D01*
X172347145Y-67244044D01*
X172347145Y-67244049D01*
X172345763Y-67252924D01*
X172346927Y-67261826D01*
X172346927Y-67261828D01*
X172349890Y-67284483D01*
X172350954Y-67300821D01*
X172350954Y-126239433D01*
X172349454Y-126258818D01*
X172347144Y-126273651D01*
X172347144Y-126273655D01*
X172345763Y-126282524D01*
X172348116Y-126300520D01*
X172348982Y-126323916D01*
X172334832Y-126575880D01*
X172334105Y-126588818D01*
X172332524Y-126602854D01*
X172284387Y-126886166D01*
X172283375Y-126892124D01*
X172280232Y-126905897D01*
X172202729Y-127174915D01*
X172199002Y-127187850D01*
X172194334Y-127201187D01*
X172082046Y-127472269D01*
X172075916Y-127484999D01*
X171933985Y-127741802D01*
X171926467Y-127753766D01*
X171756677Y-127993060D01*
X171747867Y-128004107D01*
X171552356Y-128222881D01*
X171542365Y-128232873D01*
X171323572Y-128428395D01*
X171312527Y-128437202D01*
X171073226Y-128606993D01*
X171061270Y-128614505D01*
X170971982Y-128663852D01*
X170804459Y-128756436D01*
X170791729Y-128762566D01*
X170520652Y-128874846D01*
X170507315Y-128879513D01*
X170225365Y-128960738D01*
X170211590Y-128963882D01*
X170135275Y-128976848D01*
X169922313Y-129013029D01*
X169908287Y-129014609D01*
X169650448Y-129029086D01*
X169623995Y-129027782D01*
X169623411Y-129027691D01*
X169614537Y-129026309D01*
X169605634Y-129027473D01*
X169605632Y-129027473D01*
X169583066Y-129030423D01*
X169566694Y-129031486D01*
X127862230Y-129018570D01*
X127842882Y-129017070D01*
X127827947Y-129014744D01*
X127827944Y-129014744D01*
X127819076Y-129013363D01*
X127801080Y-129015716D01*
X127777684Y-129016582D01*
X127512778Y-129001705D01*
X127498746Y-129000124D01*
X127209472Y-128950974D01*
X127195703Y-128947832D01*
X126913746Y-128866601D01*
X126900413Y-128861934D01*
X126629331Y-128749646D01*
X126616601Y-128743516D01*
X126359798Y-128601585D01*
X126347834Y-128594067D01*
X126108540Y-128424277D01*
X126097493Y-128415467D01*
X125878719Y-128219956D01*
X125868727Y-128209965D01*
X125684764Y-128004107D01*
X125673204Y-127991170D01*
X125664396Y-127980125D01*
X125494610Y-127740831D01*
X125487092Y-127728866D01*
X125480384Y-127716727D01*
X125414421Y-127597374D01*
X125345164Y-127472059D01*
X125339034Y-127459329D01*
X125226754Y-127188252D01*
X125222087Y-127174915D01*
X125140862Y-126892965D01*
X125137718Y-126879190D01*
X125103426Y-126677350D01*
X125088571Y-126589913D01*
X125086990Y-126575880D01*
X125086941Y-126575000D01*
X125072514Y-126318048D01*
X125073818Y-126291595D01*
X125073909Y-126291011D01*
X125075291Y-126282137D01*
X125071163Y-126250565D01*
X125070100Y-126234230D01*
X125070100Y-124397634D01*
X126416915Y-124397634D01*
X126435046Y-124755540D01*
X126435583Y-124758895D01*
X126435584Y-124758901D01*
X126463333Y-124932143D01*
X126491724Y-125109395D01*
X126586287Y-125455059D01*
X126685962Y-125708098D01*
X126710015Y-125769160D01*
X126717628Y-125788488D01*
X126748405Y-125847109D01*
X126873139Y-126084692D01*
X126884211Y-126105782D01*
X126886112Y-126108611D01*
X126886118Y-126108621D01*
X127015066Y-126300514D01*
X127084088Y-126403229D01*
X127314919Y-126677350D01*
X127574005Y-126924938D01*
X127858315Y-127143097D01*
X127943103Y-127194649D01*
X128161609Y-127327503D01*
X128161614Y-127327506D01*
X128164524Y-127329275D01*
X128167612Y-127330721D01*
X128167611Y-127330721D01*
X128485964Y-127479849D01*
X128485974Y-127479853D01*
X128489048Y-127481293D01*
X128492266Y-127482395D01*
X128492269Y-127482396D01*
X128824869Y-127596271D01*
X128824877Y-127596273D01*
X128828092Y-127597374D01*
X129177689Y-127676159D01*
X129229982Y-127682117D01*
X129530368Y-127716342D01*
X129530376Y-127716342D01*
X129533751Y-127716727D01*
X129537155Y-127716745D01*
X129537158Y-127716745D01*
X129731481Y-127717762D01*
X129892111Y-127718603D01*
X129895497Y-127718253D01*
X129895499Y-127718253D01*
X130245186Y-127682117D01*
X130245195Y-127682116D01*
X130248578Y-127681766D01*
X130251911Y-127681052D01*
X130251914Y-127681051D01*
X130485538Y-127630966D01*
X130598981Y-127606646D01*
X130939222Y-127494122D01*
X131265320Y-127345511D01*
X131436119Y-127244098D01*
X131570516Y-127164299D01*
X131570521Y-127164296D01*
X131573461Y-127162550D01*
X131860040Y-126947380D01*
X132121705Y-126702519D01*
X132355394Y-126430830D01*
X132470538Y-126263295D01*
X132556444Y-126138301D01*
X132556449Y-126138294D01*
X132558374Y-126135492D01*
X132559986Y-126132498D01*
X132559991Y-126132490D01*
X132726649Y-125822972D01*
X132728271Y-125819960D01*
X132846456Y-125528904D01*
X132861816Y-125491077D01*
X132861818Y-125491072D01*
X132863096Y-125487924D01*
X132873396Y-125451768D01*
X132929654Y-125254271D01*
X132961274Y-125143270D01*
X132978589Y-125041971D01*
X133021083Y-124793375D01*
X133021083Y-124793373D01*
X133021655Y-124790028D01*
X133022706Y-124772858D01*
X133043422Y-124434128D01*
X133043532Y-124432331D01*
X133043613Y-124409200D01*
X133024233Y-124051359D01*
X132966320Y-123697705D01*
X132870551Y-123352373D01*
X132867497Y-123344697D01*
X132739306Y-123022569D01*
X132738047Y-123019405D01*
X132704005Y-122955111D01*
X132571956Y-122705713D01*
X132571952Y-122705706D01*
X132570357Y-122702694D01*
X132369444Y-122405946D01*
X132328758Y-122357970D01*
X132273760Y-122293119D01*
X132137657Y-122132632D01*
X131877708Y-121885950D01*
X131592638Y-121668785D01*
X131589726Y-121667028D01*
X131589721Y-121667025D01*
X131288697Y-121485436D01*
X131288691Y-121485433D01*
X131285782Y-121483678D01*
X130960729Y-121332793D01*
X130791006Y-121275345D01*
X130624509Y-121218989D01*
X130624504Y-121218988D01*
X130621282Y-121217897D01*
X130392140Y-121167097D01*
X130274747Y-121141071D01*
X130274741Y-121141070D01*
X130271412Y-121140332D01*
X130268023Y-121139958D01*
X130268018Y-121139957D01*
X129918592Y-121101380D01*
X129918587Y-121101380D01*
X129915211Y-121101007D01*
X129911812Y-121101001D01*
X129911811Y-121101001D01*
X129742334Y-121100705D01*
X129556846Y-121100382D01*
X129443667Y-121112477D01*
X129203893Y-121138101D01*
X129203885Y-121138102D01*
X129200510Y-121138463D01*
X128850371Y-121214806D01*
X128510525Y-121328517D01*
X128507432Y-121329939D01*
X128507431Y-121329940D01*
X128501228Y-121332793D01*
X128184948Y-121478266D01*
X128182014Y-121480022D01*
X128182012Y-121480023D01*
X127948049Y-121620047D01*
X127877447Y-121662301D01*
X127874721Y-121664363D01*
X127874719Y-121664364D01*
X127645805Y-121837491D01*
X127591621Y-121878470D01*
X127330813Y-122124243D01*
X127098073Y-122396746D01*
X127096154Y-122399558D01*
X127096151Y-122399563D01*
X127002878Y-122536297D01*
X126896125Y-122692791D01*
X126727331Y-123008914D01*
X126593665Y-123341418D01*
X126592745Y-123344692D01*
X126592743Y-123344697D01*
X126506500Y-123651517D01*
X126496691Y-123686413D01*
X126496129Y-123689770D01*
X126496129Y-123689771D01*
X126495866Y-123691346D01*
X126437544Y-124039863D01*
X126416915Y-124397634D01*
X125070100Y-124397634D01*
X125070100Y-108457262D01*
X132005947Y-108457262D01*
X132015243Y-108469277D01*
X132066448Y-108505131D01*
X132075943Y-108510614D01*
X132273401Y-108602690D01*
X132283693Y-108606436D01*
X132494142Y-108662825D01*
X132504935Y-108664728D01*
X132721979Y-108683717D01*
X132732929Y-108683717D01*
X132949973Y-108664728D01*
X132960766Y-108662825D01*
X133171215Y-108606436D01*
X133181507Y-108602690D01*
X133378965Y-108510614D01*
X133388460Y-108505131D01*
X133440502Y-108468691D01*
X133448878Y-108458212D01*
X133441810Y-108444766D01*
X132740266Y-107743222D01*
X132726322Y-107735608D01*
X132724489Y-107735739D01*
X132717874Y-107739990D01*
X132012377Y-108445487D01*
X132005947Y-108457262D01*
X125070100Y-108457262D01*
X125070100Y-107376675D01*
X131414937Y-107376675D01*
X131433926Y-107593719D01*
X131435829Y-107604512D01*
X131492218Y-107814961D01*
X131495964Y-107825253D01*
X131588040Y-108022711D01*
X131593523Y-108032206D01*
X131629963Y-108084248D01*
X131640442Y-108092624D01*
X131653888Y-108085556D01*
X132355432Y-107384012D01*
X132361810Y-107372332D01*
X133091862Y-107372332D01*
X133091993Y-107374165D01*
X133096244Y-107380780D01*
X133801741Y-108086277D01*
X133813516Y-108092707D01*
X133825531Y-108083411D01*
X133861385Y-108032206D01*
X133866868Y-108022711D01*
X133958944Y-107825253D01*
X133962690Y-107814961D01*
X134019079Y-107604512D01*
X134020982Y-107593719D01*
X134039971Y-107376675D01*
X134039971Y-107365725D01*
X134020982Y-107148681D01*
X134019079Y-107137888D01*
X133962690Y-106927439D01*
X133958944Y-106917147D01*
X133866868Y-106719689D01*
X133861385Y-106710194D01*
X133824945Y-106658152D01*
X133814466Y-106649776D01*
X133801020Y-106656844D01*
X133099476Y-107358388D01*
X133091862Y-107372332D01*
X132361810Y-107372332D01*
X132363046Y-107370068D01*
X132362915Y-107368235D01*
X132358664Y-107361620D01*
X131653167Y-106656123D01*
X131641392Y-106649693D01*
X131629377Y-106658989D01*
X131593523Y-106710194D01*
X131588040Y-106719689D01*
X131495964Y-106917147D01*
X131492218Y-106927439D01*
X131435829Y-107137888D01*
X131433926Y-107148681D01*
X131414937Y-107365725D01*
X131414937Y-107376675D01*
X125070100Y-107376675D01*
X125070100Y-104871200D01*
X131413956Y-104871200D01*
X131433911Y-105099287D01*
X131493170Y-105320443D01*
X131495493Y-105325424D01*
X131495493Y-105325425D01*
X131587605Y-105522962D01*
X131587608Y-105522967D01*
X131589931Y-105527949D01*
X131721256Y-105715500D01*
X131883154Y-105877398D01*
X131887662Y-105880555D01*
X131887665Y-105880557D01*
X131991330Y-105953144D01*
X132070705Y-106008723D01*
X132075689Y-106011047D01*
X132077982Y-106012371D01*
X132126975Y-106063753D01*
X132140411Y-106133467D01*
X132114025Y-106199378D01*
X132077982Y-106230609D01*
X132066452Y-106237266D01*
X132014406Y-106273709D01*
X132006030Y-106284188D01*
X132013098Y-106297634D01*
X132714642Y-106999178D01*
X132728586Y-107006792D01*
X132730419Y-107006661D01*
X132737034Y-107002410D01*
X133442531Y-106296913D01*
X133448961Y-106285138D01*
X133439665Y-106273123D01*
X133388456Y-106237266D01*
X133376926Y-106230609D01*
X133327933Y-106179227D01*
X133314496Y-106109513D01*
X133340883Y-106043602D01*
X133376926Y-106012371D01*
X133379219Y-106011047D01*
X133384203Y-106008723D01*
X133463578Y-105953144D01*
X133567243Y-105880557D01*
X133567246Y-105880555D01*
X133571754Y-105877398D01*
X133733652Y-105715500D01*
X133864977Y-105527949D01*
X133867300Y-105522967D01*
X133867303Y-105522962D01*
X133959415Y-105325425D01*
X133959415Y-105325424D01*
X133961738Y-105320443D01*
X134020997Y-105099287D01*
X134040952Y-104871200D01*
X134020997Y-104643113D01*
X134019573Y-104637798D01*
X134019572Y-104637791D01*
X134003995Y-104579659D01*
X134005684Y-104508683D01*
X134036606Y-104457952D01*
X135522954Y-102971605D01*
X135585266Y-102937579D01*
X135612049Y-102934700D01*
X136072606Y-102934700D01*
X136140727Y-102954702D01*
X136175819Y-102988429D01*
X136285802Y-103145500D01*
X136447700Y-103307398D01*
X136452208Y-103310555D01*
X136452211Y-103310557D01*
X136604771Y-103417381D01*
X136649099Y-103472838D01*
X136658500Y-103520594D01*
X136658500Y-108486700D01*
X136638498Y-108554821D01*
X136584842Y-108601314D01*
X136532500Y-108612700D01*
X136443866Y-108612700D01*
X136381684Y-108619455D01*
X136245295Y-108670585D01*
X136128739Y-108757939D01*
X136041385Y-108874495D01*
X135990255Y-109010884D01*
X135983500Y-109073066D01*
X135983500Y-110769334D01*
X135990255Y-110831516D01*
X136041385Y-110967905D01*
X136128739Y-111084461D01*
X136245295Y-111171815D01*
X136381684Y-111222945D01*
X136443866Y-111229700D01*
X136532500Y-111229700D01*
X136600621Y-111249702D01*
X136647114Y-111303358D01*
X136658500Y-111355700D01*
X136658500Y-123312333D01*
X136657973Y-123323516D01*
X136656298Y-123331009D01*
X136656547Y-123338935D01*
X136656547Y-123338936D01*
X136658438Y-123399086D01*
X136658500Y-123403045D01*
X136658500Y-123430956D01*
X136658997Y-123434890D01*
X136658997Y-123434891D01*
X136659005Y-123434956D01*
X136659938Y-123446793D01*
X136661327Y-123490989D01*
X136666978Y-123510439D01*
X136670987Y-123529800D01*
X136673526Y-123549897D01*
X136676445Y-123557268D01*
X136676445Y-123557270D01*
X136689804Y-123591012D01*
X136693649Y-123602242D01*
X136705982Y-123644693D01*
X136710015Y-123651512D01*
X136710017Y-123651517D01*
X136716293Y-123662128D01*
X136724988Y-123679876D01*
X136732448Y-123698717D01*
X136737110Y-123705133D01*
X136737110Y-123705134D01*
X136758436Y-123734487D01*
X136764952Y-123744407D01*
X136787458Y-123782462D01*
X136801779Y-123796783D01*
X136814619Y-123811816D01*
X136826528Y-123828207D01*
X136832634Y-123833258D01*
X136860605Y-123856398D01*
X136869384Y-123864388D01*
X138496995Y-125491999D01*
X138531021Y-125554311D01*
X138533900Y-125581094D01*
X138533900Y-126789634D01*
X138540655Y-126851816D01*
X138591785Y-126988205D01*
X138679139Y-127104761D01*
X138795695Y-127192115D01*
X138932084Y-127243245D01*
X138994266Y-127250000D01*
X140690534Y-127250000D01*
X140752716Y-127243245D01*
X140889105Y-127192115D01*
X141005661Y-127104761D01*
X141093015Y-126988205D01*
X141144145Y-126851816D01*
X141145317Y-126841026D01*
X141146203Y-126838894D01*
X141146825Y-126836278D01*
X141147248Y-126836379D01*
X141172555Y-126775465D01*
X141230917Y-126735037D01*
X141301871Y-126732578D01*
X141362890Y-126768871D01*
X141369889Y-126777531D01*
X141373043Y-126781289D01*
X141376202Y-126785800D01*
X141538100Y-126947698D01*
X141542608Y-126950855D01*
X141542611Y-126950857D01*
X141583942Y-126979797D01*
X141725651Y-127079023D01*
X141730633Y-127081346D01*
X141730638Y-127081349D01*
X141904776Y-127162550D01*
X141933157Y-127175784D01*
X141938465Y-127177206D01*
X141938467Y-127177207D01*
X142148998Y-127233619D01*
X142149000Y-127233619D01*
X142154313Y-127235043D01*
X142382400Y-127254998D01*
X142610487Y-127235043D01*
X142615800Y-127233619D01*
X142615802Y-127233619D01*
X142826333Y-127177207D01*
X142826335Y-127177206D01*
X142831643Y-127175784D01*
X142860024Y-127162550D01*
X143034162Y-127081349D01*
X143034167Y-127081346D01*
X143039149Y-127079023D01*
X143180858Y-126979797D01*
X143222189Y-126950857D01*
X143222192Y-126950855D01*
X143226700Y-126947698D01*
X143388598Y-126785800D01*
X143445286Y-126704842D01*
X143498581Y-126628729D01*
X143554038Y-126584401D01*
X143601794Y-126575000D01*
X143703006Y-126575000D01*
X143771127Y-126595002D01*
X143806219Y-126628729D01*
X143859514Y-126704842D01*
X143916202Y-126785800D01*
X144078100Y-126947698D01*
X144082608Y-126950855D01*
X144082611Y-126950857D01*
X144123942Y-126979797D01*
X144265651Y-127079023D01*
X144270633Y-127081346D01*
X144270638Y-127081349D01*
X144444776Y-127162550D01*
X144473157Y-127175784D01*
X144478465Y-127177206D01*
X144478467Y-127177207D01*
X144688998Y-127233619D01*
X144689000Y-127233619D01*
X144694313Y-127235043D01*
X144922400Y-127254998D01*
X145150487Y-127235043D01*
X145155800Y-127233619D01*
X145155802Y-127233619D01*
X145366333Y-127177207D01*
X145366335Y-127177206D01*
X145371643Y-127175784D01*
X145400024Y-127162550D01*
X145574162Y-127081349D01*
X145574167Y-127081346D01*
X145579149Y-127079023D01*
X145720858Y-126979797D01*
X145762189Y-126950857D01*
X145762192Y-126950855D01*
X145766700Y-126947698D01*
X145928598Y-126785800D01*
X145985286Y-126704842D01*
X146038581Y-126628729D01*
X146094038Y-126584401D01*
X146141794Y-126575000D01*
X146243006Y-126575000D01*
X146311127Y-126595002D01*
X146346219Y-126628729D01*
X146399514Y-126704842D01*
X146456202Y-126785800D01*
X146618100Y-126947698D01*
X146622608Y-126950855D01*
X146622611Y-126950857D01*
X146663942Y-126979797D01*
X146805651Y-127079023D01*
X146810633Y-127081346D01*
X146810638Y-127081349D01*
X146984776Y-127162550D01*
X147013157Y-127175784D01*
X147018465Y-127177206D01*
X147018467Y-127177207D01*
X147228998Y-127233619D01*
X147229000Y-127233619D01*
X147234313Y-127235043D01*
X147462400Y-127254998D01*
X147690487Y-127235043D01*
X147695800Y-127233619D01*
X147695802Y-127233619D01*
X147906333Y-127177207D01*
X147906335Y-127177206D01*
X147911643Y-127175784D01*
X147940024Y-127162550D01*
X148114162Y-127081349D01*
X148114167Y-127081346D01*
X148119149Y-127079023D01*
X148260858Y-126979797D01*
X148302189Y-126950857D01*
X148302192Y-126950855D01*
X148306700Y-126947698D01*
X148468598Y-126785800D01*
X148525286Y-126704842D01*
X148578581Y-126628729D01*
X148634038Y-126584401D01*
X148681794Y-126575000D01*
X148783006Y-126575000D01*
X148851127Y-126595002D01*
X148886219Y-126628729D01*
X148939514Y-126704842D01*
X148996202Y-126785800D01*
X149158100Y-126947698D01*
X149162608Y-126950855D01*
X149162611Y-126950857D01*
X149203942Y-126979797D01*
X149345651Y-127079023D01*
X149350633Y-127081346D01*
X149350638Y-127081349D01*
X149524776Y-127162550D01*
X149553157Y-127175784D01*
X149558465Y-127177206D01*
X149558467Y-127177207D01*
X149768998Y-127233619D01*
X149769000Y-127233619D01*
X149774313Y-127235043D01*
X150002400Y-127254998D01*
X150230487Y-127235043D01*
X150235800Y-127233619D01*
X150235802Y-127233619D01*
X150446333Y-127177207D01*
X150446335Y-127177206D01*
X150451643Y-127175784D01*
X150480024Y-127162550D01*
X150654162Y-127081349D01*
X150654167Y-127081346D01*
X150659149Y-127079023D01*
X150800858Y-126979797D01*
X150842189Y-126950857D01*
X150842192Y-126950855D01*
X150846700Y-126947698D01*
X151008598Y-126785800D01*
X151065286Y-126704842D01*
X151118581Y-126628729D01*
X151174038Y-126584401D01*
X151221794Y-126575000D01*
X151323006Y-126575000D01*
X151391127Y-126595002D01*
X151426219Y-126628729D01*
X151479514Y-126704842D01*
X151536202Y-126785800D01*
X151698100Y-126947698D01*
X151702608Y-126950855D01*
X151702611Y-126950857D01*
X151743942Y-126979797D01*
X151885651Y-127079023D01*
X151890633Y-127081346D01*
X151890638Y-127081349D01*
X152064776Y-127162550D01*
X152093157Y-127175784D01*
X152098465Y-127177206D01*
X152098467Y-127177207D01*
X152308998Y-127233619D01*
X152309000Y-127233619D01*
X152314313Y-127235043D01*
X152542400Y-127254998D01*
X152770487Y-127235043D01*
X152775800Y-127233619D01*
X152775802Y-127233619D01*
X152986333Y-127177207D01*
X152986335Y-127177206D01*
X152991643Y-127175784D01*
X153020024Y-127162550D01*
X153194162Y-127081349D01*
X153194167Y-127081346D01*
X153199149Y-127079023D01*
X153340858Y-126979797D01*
X153382189Y-126950857D01*
X153382192Y-126950855D01*
X153386700Y-126947698D01*
X153548598Y-126785800D01*
X153605286Y-126704842D01*
X153658581Y-126628729D01*
X153714038Y-126584401D01*
X153761794Y-126575000D01*
X153863006Y-126575000D01*
X153931127Y-126595002D01*
X153966219Y-126628729D01*
X154019514Y-126704842D01*
X154076202Y-126785800D01*
X154238100Y-126947698D01*
X154242608Y-126950855D01*
X154242611Y-126950857D01*
X154283942Y-126979797D01*
X154425651Y-127079023D01*
X154430633Y-127081346D01*
X154430638Y-127081349D01*
X154604776Y-127162550D01*
X154633157Y-127175784D01*
X154638465Y-127177206D01*
X154638467Y-127177207D01*
X154848998Y-127233619D01*
X154849000Y-127233619D01*
X154854313Y-127235043D01*
X155082400Y-127254998D01*
X155310487Y-127235043D01*
X155315800Y-127233619D01*
X155315802Y-127233619D01*
X155526333Y-127177207D01*
X155526335Y-127177206D01*
X155531643Y-127175784D01*
X155560024Y-127162550D01*
X155734162Y-127081349D01*
X155734167Y-127081346D01*
X155739149Y-127079023D01*
X155880858Y-126979797D01*
X155922189Y-126950857D01*
X155922192Y-126950855D01*
X155926700Y-126947698D01*
X156088598Y-126785800D01*
X156145286Y-126704842D01*
X156198581Y-126628729D01*
X156254038Y-126584401D01*
X156301794Y-126575000D01*
X156403006Y-126575000D01*
X156471127Y-126595002D01*
X156506219Y-126628729D01*
X156559514Y-126704842D01*
X156616202Y-126785800D01*
X156778100Y-126947698D01*
X156782608Y-126950855D01*
X156782611Y-126950857D01*
X156823942Y-126979797D01*
X156965651Y-127079023D01*
X156970633Y-127081346D01*
X156970638Y-127081349D01*
X157144776Y-127162550D01*
X157173157Y-127175784D01*
X157178465Y-127177206D01*
X157178467Y-127177207D01*
X157388998Y-127233619D01*
X157389000Y-127233619D01*
X157394313Y-127235043D01*
X157622400Y-127254998D01*
X157850487Y-127235043D01*
X157855800Y-127233619D01*
X157855802Y-127233619D01*
X158066333Y-127177207D01*
X158066335Y-127177206D01*
X158071643Y-127175784D01*
X158100024Y-127162550D01*
X158274162Y-127081349D01*
X158274167Y-127081346D01*
X158279149Y-127079023D01*
X158420858Y-126979797D01*
X158462189Y-126950857D01*
X158462192Y-126950855D01*
X158466700Y-126947698D01*
X158628598Y-126785800D01*
X158759923Y-126598249D01*
X158762246Y-126593267D01*
X158762249Y-126593262D01*
X158854361Y-126395725D01*
X158854361Y-126395724D01*
X158856684Y-126390743D01*
X158880637Y-126301352D01*
X158914519Y-126174902D01*
X158914519Y-126174900D01*
X158915943Y-126169587D01*
X158935898Y-125941500D01*
X158915943Y-125713413D01*
X158880488Y-125581094D01*
X158858107Y-125497567D01*
X158858106Y-125497565D01*
X158856684Y-125492257D01*
X158840817Y-125458229D01*
X158762249Y-125289738D01*
X158762246Y-125289733D01*
X158759923Y-125284751D01*
X158628598Y-125097200D01*
X158466700Y-124935302D01*
X158462192Y-124932145D01*
X158462189Y-124932143D01*
X158384011Y-124877402D01*
X158279149Y-124803977D01*
X158274167Y-124801654D01*
X158274162Y-124801651D01*
X158076625Y-124709539D01*
X158076624Y-124709539D01*
X158071643Y-124707216D01*
X158066335Y-124705794D01*
X158066333Y-124705793D01*
X157855802Y-124649381D01*
X157855800Y-124649381D01*
X157850487Y-124647957D01*
X157622400Y-124628002D01*
X157394313Y-124647957D01*
X157389000Y-124649381D01*
X157388998Y-124649381D01*
X157178467Y-124705793D01*
X157178465Y-124705794D01*
X157173157Y-124707216D01*
X157168176Y-124709539D01*
X157168175Y-124709539D01*
X156970638Y-124801651D01*
X156970633Y-124801654D01*
X156965651Y-124803977D01*
X156860789Y-124877402D01*
X156782611Y-124932143D01*
X156782608Y-124932145D01*
X156778100Y-124935302D01*
X156616202Y-125097200D01*
X156613045Y-125101708D01*
X156613043Y-125101711D01*
X156506219Y-125254271D01*
X156450762Y-125298599D01*
X156403006Y-125308000D01*
X156301794Y-125308000D01*
X156233673Y-125287998D01*
X156198581Y-125254271D01*
X156091757Y-125101711D01*
X156091755Y-125101708D01*
X156088598Y-125097200D01*
X155926700Y-124935302D01*
X155922192Y-124932145D01*
X155922189Y-124932143D01*
X155844011Y-124877402D01*
X155739149Y-124803977D01*
X155734167Y-124801654D01*
X155734162Y-124801651D01*
X155536625Y-124709539D01*
X155536624Y-124709539D01*
X155531643Y-124707216D01*
X155526335Y-124705794D01*
X155526333Y-124705793D01*
X155315802Y-124649381D01*
X155315800Y-124649381D01*
X155310487Y-124647957D01*
X155082400Y-124628002D01*
X154854313Y-124647957D01*
X154849000Y-124649381D01*
X154848998Y-124649381D01*
X154638467Y-124705793D01*
X154638465Y-124705794D01*
X154633157Y-124707216D01*
X154628176Y-124709539D01*
X154628175Y-124709539D01*
X154430638Y-124801651D01*
X154430633Y-124801654D01*
X154425651Y-124803977D01*
X154320789Y-124877402D01*
X154242611Y-124932143D01*
X154242608Y-124932145D01*
X154238100Y-124935302D01*
X154076202Y-125097200D01*
X154073045Y-125101708D01*
X154073043Y-125101711D01*
X153966219Y-125254271D01*
X153910762Y-125298599D01*
X153863006Y-125308000D01*
X153761794Y-125308000D01*
X153693673Y-125287998D01*
X153658581Y-125254271D01*
X153551757Y-125101711D01*
X153551755Y-125101708D01*
X153548598Y-125097200D01*
X153386700Y-124935302D01*
X153382192Y-124932145D01*
X153382189Y-124932143D01*
X153304011Y-124877402D01*
X153199149Y-124803977D01*
X153194167Y-124801654D01*
X153194162Y-124801651D01*
X152996625Y-124709539D01*
X152996624Y-124709539D01*
X152991643Y-124707216D01*
X152986335Y-124705794D01*
X152986333Y-124705793D01*
X152775802Y-124649381D01*
X152775800Y-124649381D01*
X152770487Y-124647957D01*
X152542400Y-124628002D01*
X152314313Y-124647957D01*
X152309000Y-124649381D01*
X152308998Y-124649381D01*
X152098467Y-124705793D01*
X152098465Y-124705794D01*
X152093157Y-124707216D01*
X152088176Y-124709539D01*
X152088175Y-124709539D01*
X151890638Y-124801651D01*
X151890633Y-124801654D01*
X151885651Y-124803977D01*
X151780789Y-124877402D01*
X151702611Y-124932143D01*
X151702608Y-124932145D01*
X151698100Y-124935302D01*
X151536202Y-125097200D01*
X151533045Y-125101708D01*
X151533043Y-125101711D01*
X151426219Y-125254271D01*
X151370762Y-125298599D01*
X151323006Y-125308000D01*
X151221794Y-125308000D01*
X151153673Y-125287998D01*
X151118581Y-125254271D01*
X151011757Y-125101711D01*
X151011755Y-125101708D01*
X151008598Y-125097200D01*
X150846700Y-124935302D01*
X150842192Y-124932145D01*
X150842189Y-124932143D01*
X150764011Y-124877402D01*
X150659149Y-124803977D01*
X150654167Y-124801654D01*
X150654162Y-124801651D01*
X150456625Y-124709539D01*
X150456624Y-124709539D01*
X150451643Y-124707216D01*
X150446335Y-124705794D01*
X150446333Y-124705793D01*
X150235802Y-124649381D01*
X150235800Y-124649381D01*
X150230487Y-124647957D01*
X150002400Y-124628002D01*
X149774313Y-124647957D01*
X149769000Y-124649381D01*
X149768998Y-124649381D01*
X149558467Y-124705793D01*
X149558465Y-124705794D01*
X149553157Y-124707216D01*
X149548176Y-124709539D01*
X149548175Y-124709539D01*
X149350638Y-124801651D01*
X149350633Y-124801654D01*
X149345651Y-124803977D01*
X149240789Y-124877402D01*
X149162611Y-124932143D01*
X149162608Y-124932145D01*
X149158100Y-124935302D01*
X148996202Y-125097200D01*
X148993045Y-125101708D01*
X148993043Y-125101711D01*
X148886219Y-125254271D01*
X148830762Y-125298599D01*
X148783006Y-125308000D01*
X148681794Y-125308000D01*
X148613673Y-125287998D01*
X148578581Y-125254271D01*
X148471757Y-125101711D01*
X148471755Y-125101708D01*
X148468598Y-125097200D01*
X148306700Y-124935302D01*
X148302192Y-124932145D01*
X148302189Y-124932143D01*
X148224011Y-124877402D01*
X148119149Y-124803977D01*
X148114167Y-124801654D01*
X148114162Y-124801651D01*
X147916625Y-124709539D01*
X147916624Y-124709539D01*
X147911643Y-124707216D01*
X147906335Y-124705794D01*
X147906333Y-124705793D01*
X147695802Y-124649381D01*
X147695800Y-124649381D01*
X147690487Y-124647957D01*
X147462400Y-124628002D01*
X147234313Y-124647957D01*
X147229000Y-124649381D01*
X147228998Y-124649381D01*
X147018467Y-124705793D01*
X147018465Y-124705794D01*
X147013157Y-124707216D01*
X147008176Y-124709539D01*
X147008175Y-124709539D01*
X146810638Y-124801651D01*
X146810633Y-124801654D01*
X146805651Y-124803977D01*
X146700789Y-124877402D01*
X146622611Y-124932143D01*
X146622608Y-124932145D01*
X146618100Y-124935302D01*
X146456202Y-125097200D01*
X146453045Y-125101708D01*
X146453043Y-125101711D01*
X146346219Y-125254271D01*
X146290762Y-125298599D01*
X146243006Y-125308000D01*
X146141794Y-125308000D01*
X146073673Y-125287998D01*
X146038581Y-125254271D01*
X145931757Y-125101711D01*
X145931755Y-125101708D01*
X145928598Y-125097200D01*
X145766700Y-124935302D01*
X145762192Y-124932145D01*
X145762189Y-124932143D01*
X145684011Y-124877402D01*
X145579149Y-124803977D01*
X145574167Y-124801654D01*
X145574162Y-124801651D01*
X145376625Y-124709539D01*
X145376624Y-124709539D01*
X145371643Y-124707216D01*
X145366335Y-124705794D01*
X145366333Y-124705793D01*
X145155802Y-124649381D01*
X145155800Y-124649381D01*
X145150487Y-124647957D01*
X144922400Y-124628002D01*
X144694313Y-124647957D01*
X144689000Y-124649381D01*
X144688998Y-124649381D01*
X144478467Y-124705793D01*
X144478465Y-124705794D01*
X144473157Y-124707216D01*
X144468176Y-124709539D01*
X144468175Y-124709539D01*
X144270638Y-124801651D01*
X144270633Y-124801654D01*
X144265651Y-124803977D01*
X144160789Y-124877402D01*
X144082611Y-124932143D01*
X144082608Y-124932145D01*
X144078100Y-124935302D01*
X143916202Y-125097200D01*
X143913045Y-125101708D01*
X143913043Y-125101711D01*
X143806219Y-125254271D01*
X143750762Y-125298599D01*
X143703006Y-125308000D01*
X143601794Y-125308000D01*
X143533673Y-125287998D01*
X143498581Y-125254271D01*
X143391757Y-125101711D01*
X143391755Y-125101708D01*
X143388598Y-125097200D01*
X143226700Y-124935302D01*
X143222192Y-124932145D01*
X143222189Y-124932143D01*
X143144011Y-124877402D01*
X143039149Y-124803977D01*
X143034167Y-124801654D01*
X143034162Y-124801651D01*
X142836625Y-124709539D01*
X142836624Y-124709539D01*
X142831643Y-124707216D01*
X142826335Y-124705794D01*
X142826333Y-124705793D01*
X142615802Y-124649381D01*
X142615800Y-124649381D01*
X142610487Y-124647957D01*
X142382400Y-124628002D01*
X142154313Y-124647957D01*
X142149000Y-124649381D01*
X142148998Y-124649381D01*
X141938467Y-124705793D01*
X141938465Y-124705794D01*
X141933157Y-124707216D01*
X141928176Y-124709539D01*
X141928175Y-124709539D01*
X141730638Y-124801651D01*
X141730633Y-124801654D01*
X141725651Y-124803977D01*
X141620789Y-124877402D01*
X141542611Y-124932143D01*
X141542608Y-124932145D01*
X141538100Y-124935302D01*
X141376202Y-125097200D01*
X141373043Y-125101711D01*
X141369508Y-125105924D01*
X141368374Y-125104973D01*
X141318329Y-125144971D01*
X141247710Y-125152276D01*
X141184351Y-125120242D01*
X141148370Y-125059038D01*
X141145318Y-125041983D01*
X141144145Y-125031184D01*
X141093015Y-124894795D01*
X141005661Y-124778239D01*
X140889105Y-124690885D01*
X140752716Y-124639755D01*
X140690534Y-124633000D01*
X139481995Y-124633000D01*
X139413874Y-124612998D01*
X139392900Y-124596095D01*
X139143639Y-124346834D01*
X164415315Y-124346834D01*
X164415487Y-124350229D01*
X164415487Y-124350230D01*
X164419555Y-124430526D01*
X164433446Y-124704740D01*
X164433983Y-124708095D01*
X164433984Y-124708101D01*
X164449341Y-124803977D01*
X164490124Y-125058595D01*
X164584687Y-125404259D01*
X164716028Y-125737688D01*
X164746805Y-125796309D01*
X164823032Y-125941500D01*
X164882611Y-126054982D01*
X164884512Y-126057811D01*
X164884518Y-126057821D01*
X165063329Y-126323918D01*
X165082488Y-126352429D01*
X165313319Y-126626550D01*
X165572405Y-126874138D01*
X165856715Y-127092297D01*
X165886065Y-127110142D01*
X166160009Y-127276703D01*
X166160014Y-127276706D01*
X166162924Y-127278475D01*
X166166012Y-127279921D01*
X166166011Y-127279921D01*
X166484364Y-127429049D01*
X166484374Y-127429053D01*
X166487448Y-127430493D01*
X166490666Y-127431595D01*
X166490669Y-127431596D01*
X166823269Y-127545471D01*
X166823277Y-127545473D01*
X166826492Y-127546574D01*
X167176089Y-127625359D01*
X167228382Y-127631317D01*
X167528768Y-127665542D01*
X167528776Y-127665542D01*
X167532151Y-127665927D01*
X167535555Y-127665945D01*
X167535558Y-127665945D01*
X167729881Y-127666962D01*
X167890511Y-127667803D01*
X167893897Y-127667453D01*
X167893899Y-127667453D01*
X168243586Y-127631317D01*
X168243595Y-127631316D01*
X168246978Y-127630966D01*
X168250311Y-127630252D01*
X168250314Y-127630251D01*
X168422840Y-127593264D01*
X168597381Y-127555846D01*
X168937622Y-127443322D01*
X169263720Y-127294711D01*
X169357706Y-127238906D01*
X169568916Y-127113499D01*
X169568921Y-127113496D01*
X169571861Y-127111750D01*
X169581170Y-127104761D01*
X169736407Y-126988205D01*
X169858440Y-126896580D01*
X170120105Y-126651719D01*
X170353794Y-126380030D01*
X170460404Y-126224912D01*
X170554844Y-126087501D01*
X170554849Y-126087494D01*
X170556774Y-126084692D01*
X170558386Y-126081698D01*
X170558391Y-126081690D01*
X170725049Y-125772172D01*
X170726671Y-125769160D01*
X170839588Y-125491077D01*
X170860216Y-125440277D01*
X170860218Y-125440272D01*
X170861496Y-125437124D01*
X170871796Y-125400968D01*
X170913583Y-125254271D01*
X170959674Y-125092470D01*
X171009385Y-124801651D01*
X171019483Y-124742575D01*
X171019483Y-124742573D01*
X171020055Y-124739228D01*
X171022165Y-124704740D01*
X171041822Y-124383328D01*
X171041932Y-124381531D01*
X171042013Y-124358400D01*
X171022633Y-124000559D01*
X170964720Y-123646905D01*
X170868951Y-123301573D01*
X170865897Y-123293897D01*
X170737706Y-122971769D01*
X170736447Y-122968605D01*
X170597253Y-122705713D01*
X170570356Y-122654913D01*
X170570352Y-122654906D01*
X170568757Y-122651894D01*
X170367844Y-122355146D01*
X170136057Y-122081832D01*
X169876108Y-121835150D01*
X169591038Y-121617985D01*
X169588126Y-121616228D01*
X169588121Y-121616225D01*
X169287097Y-121434636D01*
X169287091Y-121434633D01*
X169284182Y-121432878D01*
X168959129Y-121281993D01*
X168769765Y-121217897D01*
X168622909Y-121168189D01*
X168622904Y-121168188D01*
X168619682Y-121167097D01*
X168421335Y-121123124D01*
X168273147Y-121090271D01*
X168273141Y-121090270D01*
X168269812Y-121089532D01*
X168266423Y-121089158D01*
X168266418Y-121089157D01*
X167916992Y-121050580D01*
X167916987Y-121050580D01*
X167913611Y-121050207D01*
X167910212Y-121050201D01*
X167910211Y-121050201D01*
X167740734Y-121049905D01*
X167555246Y-121049582D01*
X167442067Y-121061677D01*
X167202293Y-121087301D01*
X167202285Y-121087302D01*
X167198910Y-121087663D01*
X166848771Y-121164006D01*
X166508925Y-121277717D01*
X166505832Y-121279139D01*
X166505831Y-121279140D01*
X166499628Y-121281993D01*
X166183348Y-121427466D01*
X165875847Y-121611501D01*
X165873121Y-121613563D01*
X165873119Y-121613564D01*
X165797378Y-121670847D01*
X165590021Y-121827670D01*
X165587536Y-121830012D01*
X165587531Y-121830016D01*
X165490280Y-121921661D01*
X165329213Y-122073443D01*
X165327001Y-122076033D01*
X165326999Y-122076035D01*
X165278661Y-122132632D01*
X165096473Y-122345946D01*
X165094554Y-122348758D01*
X165094551Y-122348763D01*
X165059898Y-122399563D01*
X164894525Y-122641991D01*
X164725731Y-122958114D01*
X164592065Y-123290618D01*
X164591145Y-123293892D01*
X164591143Y-123293897D01*
X164507628Y-123591012D01*
X164495091Y-123635613D01*
X164494529Y-123638970D01*
X164494529Y-123638971D01*
X164468121Y-123796783D01*
X164435944Y-123989063D01*
X164415315Y-124346834D01*
X139143639Y-124346834D01*
X137962405Y-123165600D01*
X137928379Y-123103288D01*
X137925500Y-123076505D01*
X137925500Y-111355700D01*
X137945502Y-111287579D01*
X137999158Y-111241086D01*
X138051500Y-111229700D01*
X138140134Y-111229700D01*
X138202316Y-111222945D01*
X138338705Y-111171815D01*
X138455261Y-111084461D01*
X138542615Y-110967905D01*
X138593745Y-110831516D01*
X138594917Y-110820726D01*
X138595803Y-110818594D01*
X138596425Y-110815978D01*
X138596848Y-110816079D01*
X138622155Y-110755165D01*
X138680517Y-110714737D01*
X138751471Y-110712278D01*
X138812490Y-110748571D01*
X138819489Y-110757231D01*
X138822643Y-110760989D01*
X138825802Y-110765500D01*
X138987700Y-110927398D01*
X138992208Y-110930555D01*
X138992211Y-110930557D01*
X139154771Y-111044383D01*
X139199099Y-111099840D01*
X139208500Y-111147596D01*
X139208500Y-112572606D01*
X139188498Y-112640727D01*
X139154771Y-112675819D01*
X139002211Y-112782643D01*
X139002208Y-112782645D01*
X138997700Y-112785802D01*
X138835802Y-112947700D01*
X138832645Y-112952208D01*
X138832643Y-112952211D01*
X138777902Y-113030389D01*
X138704477Y-113135251D01*
X138702154Y-113140233D01*
X138702151Y-113140238D01*
X138686195Y-113174457D01*
X138607716Y-113342757D01*
X138606294Y-113348065D01*
X138606293Y-113348067D01*
X138556972Y-113532135D01*
X138548457Y-113563913D01*
X138528502Y-113792000D01*
X138548457Y-114020087D01*
X138549881Y-114025400D01*
X138549881Y-114025402D01*
X138590430Y-114176730D01*
X138607716Y-114241243D01*
X138610039Y-114246224D01*
X138610039Y-114246225D01*
X138702151Y-114443762D01*
X138702154Y-114443767D01*
X138704477Y-114448749D01*
X138707634Y-114453257D01*
X138826269Y-114622685D01*
X138835802Y-114636300D01*
X138997700Y-114798198D01*
X139002208Y-114801355D01*
X139002211Y-114801357D01*
X139155171Y-114908461D01*
X139199499Y-114963918D01*
X139208900Y-115011674D01*
X139208900Y-117102106D01*
X139188898Y-117170227D01*
X139155171Y-117205319D01*
X139002611Y-117312143D01*
X139002608Y-117312145D01*
X138998100Y-117315302D01*
X138836202Y-117477200D01*
X138833045Y-117481708D01*
X138833043Y-117481711D01*
X138778302Y-117559889D01*
X138704877Y-117664751D01*
X138702554Y-117669733D01*
X138702551Y-117669738D01*
X138662252Y-117756161D01*
X138608116Y-117872257D01*
X138606694Y-117877565D01*
X138606693Y-117877567D01*
X138572400Y-118005550D01*
X138548857Y-118093413D01*
X138528902Y-118321500D01*
X138548857Y-118549587D01*
X138550281Y-118554900D01*
X138550281Y-118554902D01*
X138585260Y-118685442D01*
X138608116Y-118770743D01*
X138610439Y-118775724D01*
X138610439Y-118775725D01*
X138702551Y-118973262D01*
X138702554Y-118973267D01*
X138704877Y-118978249D01*
X138836202Y-119165800D01*
X138998100Y-119327698D01*
X139002608Y-119330855D01*
X139002611Y-119330857D01*
X139080789Y-119385598D01*
X139185651Y-119459023D01*
X139190633Y-119461346D01*
X139190638Y-119461349D01*
X139388175Y-119553461D01*
X139393157Y-119555784D01*
X139398465Y-119557206D01*
X139398467Y-119557207D01*
X139608998Y-119613619D01*
X139609000Y-119613619D01*
X139614313Y-119615043D01*
X139842400Y-119634998D01*
X140070487Y-119615043D01*
X140075800Y-119613619D01*
X140075802Y-119613619D01*
X140286333Y-119557207D01*
X140286335Y-119557206D01*
X140291643Y-119555784D01*
X140296625Y-119553461D01*
X140494162Y-119461349D01*
X140494167Y-119461346D01*
X140499149Y-119459023D01*
X140604011Y-119385598D01*
X140682189Y-119330857D01*
X140682192Y-119330855D01*
X140686700Y-119327698D01*
X140848598Y-119165800D01*
X140979923Y-118978249D01*
X140982246Y-118973267D01*
X140982249Y-118973262D01*
X140998205Y-118939043D01*
X141045122Y-118885758D01*
X141113399Y-118866297D01*
X141181359Y-118886839D01*
X141226595Y-118939043D01*
X141242551Y-118973262D01*
X141242554Y-118973267D01*
X141244877Y-118978249D01*
X141376202Y-119165800D01*
X141538100Y-119327698D01*
X141542608Y-119330855D01*
X141542611Y-119330857D01*
X141620789Y-119385598D01*
X141725651Y-119459023D01*
X141730633Y-119461346D01*
X141730638Y-119461349D01*
X141928175Y-119553461D01*
X141933157Y-119555784D01*
X141938465Y-119557206D01*
X141938467Y-119557207D01*
X142148998Y-119613619D01*
X142149000Y-119613619D01*
X142154313Y-119615043D01*
X142382400Y-119634998D01*
X142610487Y-119615043D01*
X142615800Y-119613619D01*
X142615802Y-119613619D01*
X142826333Y-119557207D01*
X142826335Y-119557206D01*
X142831643Y-119555784D01*
X142836625Y-119553461D01*
X143034162Y-119461349D01*
X143034167Y-119461346D01*
X143039149Y-119459023D01*
X143144011Y-119385598D01*
X143222189Y-119330857D01*
X143222192Y-119330855D01*
X143226700Y-119327698D01*
X143388598Y-119165800D01*
X143519923Y-118978249D01*
X143522246Y-118973267D01*
X143522249Y-118973262D01*
X143538205Y-118939043D01*
X143585122Y-118885758D01*
X143653399Y-118866297D01*
X143721359Y-118886839D01*
X143766595Y-118939043D01*
X143782551Y-118973262D01*
X143782554Y-118973267D01*
X143784877Y-118978249D01*
X143916202Y-119165800D01*
X144078100Y-119327698D01*
X144082608Y-119330855D01*
X144082611Y-119330857D01*
X144160789Y-119385598D01*
X144265651Y-119459023D01*
X144270633Y-119461346D01*
X144270638Y-119461349D01*
X144468175Y-119553461D01*
X144473157Y-119555784D01*
X144478465Y-119557206D01*
X144478467Y-119557207D01*
X144688998Y-119613619D01*
X144689000Y-119613619D01*
X144694313Y-119615043D01*
X144922400Y-119634998D01*
X145150487Y-119615043D01*
X145155800Y-119613619D01*
X145155802Y-119613619D01*
X145366333Y-119557207D01*
X145366335Y-119557206D01*
X145371643Y-119555784D01*
X145376625Y-119553461D01*
X145574162Y-119461349D01*
X145574167Y-119461346D01*
X145579149Y-119459023D01*
X145684011Y-119385598D01*
X145762189Y-119330857D01*
X145762192Y-119330855D01*
X145766700Y-119327698D01*
X145928598Y-119165800D01*
X146059923Y-118978249D01*
X146062246Y-118973267D01*
X146062249Y-118973262D01*
X146078205Y-118939043D01*
X146125122Y-118885758D01*
X146193399Y-118866297D01*
X146261359Y-118886839D01*
X146306595Y-118939043D01*
X146322551Y-118973262D01*
X146322554Y-118973267D01*
X146324877Y-118978249D01*
X146456202Y-119165800D01*
X146618100Y-119327698D01*
X146622608Y-119330855D01*
X146622611Y-119330857D01*
X146700789Y-119385598D01*
X146805651Y-119459023D01*
X146810633Y-119461346D01*
X146810638Y-119461349D01*
X147008175Y-119553461D01*
X147013157Y-119555784D01*
X147018465Y-119557206D01*
X147018467Y-119557207D01*
X147228998Y-119613619D01*
X147229000Y-119613619D01*
X147234313Y-119615043D01*
X147462400Y-119634998D01*
X147690487Y-119615043D01*
X147695800Y-119613619D01*
X147695802Y-119613619D01*
X147906333Y-119557207D01*
X147906335Y-119557206D01*
X147911643Y-119555784D01*
X147916625Y-119553461D01*
X148114162Y-119461349D01*
X148114167Y-119461346D01*
X148119149Y-119459023D01*
X148224011Y-119385598D01*
X148302189Y-119330857D01*
X148302192Y-119330855D01*
X148306700Y-119327698D01*
X148468598Y-119165800D01*
X148599923Y-118978249D01*
X148602246Y-118973267D01*
X148602249Y-118973262D01*
X148618205Y-118939043D01*
X148665122Y-118885758D01*
X148733399Y-118866297D01*
X148801359Y-118886839D01*
X148846595Y-118939043D01*
X148862551Y-118973262D01*
X148862554Y-118973267D01*
X148864877Y-118978249D01*
X148996202Y-119165800D01*
X149158100Y-119327698D01*
X149162608Y-119330855D01*
X149162611Y-119330857D01*
X149240789Y-119385598D01*
X149345651Y-119459023D01*
X149350633Y-119461346D01*
X149350638Y-119461349D01*
X149548175Y-119553461D01*
X149553157Y-119555784D01*
X149558465Y-119557206D01*
X149558467Y-119557207D01*
X149768998Y-119613619D01*
X149769000Y-119613619D01*
X149774313Y-119615043D01*
X150002400Y-119634998D01*
X150230487Y-119615043D01*
X150235800Y-119613619D01*
X150235802Y-119613619D01*
X150446333Y-119557207D01*
X150446335Y-119557206D01*
X150451643Y-119555784D01*
X150456625Y-119553461D01*
X150654162Y-119461349D01*
X150654167Y-119461346D01*
X150659149Y-119459023D01*
X150764011Y-119385598D01*
X150842189Y-119330857D01*
X150842192Y-119330855D01*
X150846700Y-119327698D01*
X151008598Y-119165800D01*
X151139923Y-118978249D01*
X151142246Y-118973267D01*
X151142249Y-118973262D01*
X151158205Y-118939043D01*
X151205122Y-118885758D01*
X151273399Y-118866297D01*
X151341359Y-118886839D01*
X151386595Y-118939043D01*
X151402551Y-118973262D01*
X151402554Y-118973267D01*
X151404877Y-118978249D01*
X151536202Y-119165800D01*
X151698100Y-119327698D01*
X151702608Y-119330855D01*
X151702611Y-119330857D01*
X151780789Y-119385598D01*
X151885651Y-119459023D01*
X151890633Y-119461346D01*
X151890638Y-119461349D01*
X152088175Y-119553461D01*
X152093157Y-119555784D01*
X152098465Y-119557206D01*
X152098467Y-119557207D01*
X152308998Y-119613619D01*
X152309000Y-119613619D01*
X152314313Y-119615043D01*
X152542400Y-119634998D01*
X152770487Y-119615043D01*
X152775800Y-119613619D01*
X152775802Y-119613619D01*
X152986333Y-119557207D01*
X152986335Y-119557206D01*
X152991643Y-119555784D01*
X152996625Y-119553461D01*
X153194162Y-119461349D01*
X153194167Y-119461346D01*
X153199149Y-119459023D01*
X153304011Y-119385598D01*
X153382189Y-119330857D01*
X153382192Y-119330855D01*
X153386700Y-119327698D01*
X153548598Y-119165800D01*
X153679923Y-118978249D01*
X153682246Y-118973267D01*
X153682249Y-118973262D01*
X153698205Y-118939043D01*
X153745122Y-118885758D01*
X153813399Y-118866297D01*
X153881359Y-118886839D01*
X153926595Y-118939043D01*
X153942551Y-118973262D01*
X153942554Y-118973267D01*
X153944877Y-118978249D01*
X154076202Y-119165800D01*
X154238100Y-119327698D01*
X154242608Y-119330855D01*
X154242611Y-119330857D01*
X154320789Y-119385598D01*
X154425651Y-119459023D01*
X154430633Y-119461346D01*
X154430638Y-119461349D01*
X154628175Y-119553461D01*
X154633157Y-119555784D01*
X154638465Y-119557206D01*
X154638467Y-119557207D01*
X154848998Y-119613619D01*
X154849000Y-119613619D01*
X154854313Y-119615043D01*
X155082400Y-119634998D01*
X155310487Y-119615043D01*
X155315800Y-119613619D01*
X155315802Y-119613619D01*
X155526333Y-119557207D01*
X155526335Y-119557206D01*
X155531643Y-119555784D01*
X155536625Y-119553461D01*
X155734162Y-119461349D01*
X155734167Y-119461346D01*
X155739149Y-119459023D01*
X155844011Y-119385598D01*
X155922189Y-119330857D01*
X155922192Y-119330855D01*
X155926700Y-119327698D01*
X156088598Y-119165800D01*
X156219923Y-118978249D01*
X156222246Y-118973267D01*
X156222249Y-118973262D01*
X156238205Y-118939043D01*
X156285122Y-118885758D01*
X156353399Y-118866297D01*
X156421359Y-118886839D01*
X156466595Y-118939043D01*
X156482551Y-118973262D01*
X156482554Y-118973267D01*
X156484877Y-118978249D01*
X156616202Y-119165800D01*
X156778100Y-119327698D01*
X156782608Y-119330855D01*
X156782611Y-119330857D01*
X156860789Y-119385598D01*
X156965651Y-119459023D01*
X156970633Y-119461346D01*
X156970638Y-119461349D01*
X157168175Y-119553461D01*
X157173157Y-119555784D01*
X157178465Y-119557206D01*
X157178467Y-119557207D01*
X157388998Y-119613619D01*
X157389000Y-119613619D01*
X157394313Y-119615043D01*
X157622400Y-119634998D01*
X157850487Y-119615043D01*
X157855800Y-119613619D01*
X157855802Y-119613619D01*
X158066333Y-119557207D01*
X158066335Y-119557206D01*
X158071643Y-119555784D01*
X158076625Y-119553461D01*
X158274162Y-119461349D01*
X158274167Y-119461346D01*
X158279149Y-119459023D01*
X158384011Y-119385598D01*
X158462189Y-119330857D01*
X158462192Y-119330855D01*
X158466700Y-119327698D01*
X158628598Y-119165800D01*
X158759923Y-118978249D01*
X158762246Y-118973267D01*
X158762249Y-118973262D01*
X158854361Y-118775725D01*
X158854361Y-118775724D01*
X158856684Y-118770743D01*
X158879541Y-118685442D01*
X158914519Y-118554902D01*
X158914519Y-118554900D01*
X158915943Y-118549587D01*
X158935898Y-118321500D01*
X158915943Y-118093413D01*
X158892400Y-118005550D01*
X158858107Y-117877567D01*
X158858106Y-117877565D01*
X158856684Y-117872257D01*
X158802548Y-117756161D01*
X158762249Y-117669738D01*
X158762246Y-117669733D01*
X158759923Y-117664751D01*
X158686498Y-117559889D01*
X158631757Y-117481711D01*
X158631755Y-117481708D01*
X158628598Y-117477200D01*
X158466700Y-117315302D01*
X158462192Y-117312145D01*
X158462189Y-117312143D01*
X158309629Y-117205319D01*
X158265301Y-117149862D01*
X158255900Y-117102106D01*
X158255900Y-115011114D01*
X158275902Y-114942993D01*
X158309629Y-114907901D01*
X158461789Y-114801357D01*
X158461792Y-114801355D01*
X158466300Y-114798198D01*
X158628198Y-114636300D01*
X158631357Y-114631789D01*
X158634892Y-114627576D01*
X158635860Y-114628388D01*
X158686494Y-114587910D01*
X158757113Y-114580596D01*
X158820476Y-114612624D01*
X158856464Y-114673823D01*
X158859520Y-114690901D01*
X158859895Y-114694352D01*
X158863521Y-114709604D01*
X158908676Y-114830054D01*
X158917214Y-114845649D01*
X158993715Y-114947724D01*
X159006276Y-114960285D01*
X159108351Y-115036786D01*
X159123946Y-115045324D01*
X159244394Y-115090478D01*
X159259649Y-115094105D01*
X159310514Y-115099631D01*
X159317328Y-115100000D01*
X159889885Y-115100000D01*
X159905124Y-115095525D01*
X159906329Y-115094135D01*
X159908000Y-115086452D01*
X159908000Y-115081884D01*
X160416000Y-115081884D01*
X160420475Y-115097123D01*
X160421865Y-115098328D01*
X160429548Y-115099999D01*
X161006669Y-115099999D01*
X161013490Y-115099629D01*
X161064352Y-115094105D01*
X161079604Y-115090479D01*
X161200054Y-115045324D01*
X161215649Y-115036786D01*
X161317724Y-114960285D01*
X161330285Y-114947724D01*
X161406786Y-114845649D01*
X161415324Y-114830054D01*
X161460478Y-114709606D01*
X161464105Y-114694351D01*
X161469631Y-114643486D01*
X161470000Y-114636672D01*
X161470000Y-114064115D01*
X161465525Y-114048876D01*
X161464135Y-114047671D01*
X161456452Y-114046000D01*
X160434115Y-114046000D01*
X160418876Y-114050475D01*
X160417671Y-114051865D01*
X160416000Y-114059548D01*
X160416000Y-115081884D01*
X159908000Y-115081884D01*
X159908000Y-113519885D01*
X160416000Y-113519885D01*
X160420475Y-113535124D01*
X160421865Y-113536329D01*
X160429548Y-113538000D01*
X161451884Y-113538000D01*
X161467123Y-113533525D01*
X161468328Y-113532135D01*
X161469999Y-113524452D01*
X161469999Y-112947331D01*
X161469629Y-112940510D01*
X161464105Y-112889648D01*
X161460479Y-112874396D01*
X161415324Y-112753946D01*
X161406786Y-112738351D01*
X161330285Y-112636276D01*
X161317724Y-112623715D01*
X161215649Y-112547214D01*
X161200054Y-112538676D01*
X161079606Y-112493522D01*
X161064351Y-112489895D01*
X161013486Y-112484369D01*
X161006672Y-112484000D01*
X160434115Y-112484000D01*
X160418876Y-112488475D01*
X160417671Y-112489865D01*
X160416000Y-112497548D01*
X160416000Y-113519885D01*
X159908000Y-113519885D01*
X159908000Y-112502116D01*
X159903525Y-112486877D01*
X159902135Y-112485672D01*
X159894452Y-112484001D01*
X159317331Y-112484001D01*
X159310510Y-112484371D01*
X159259648Y-112489895D01*
X159244396Y-112493521D01*
X159123946Y-112538676D01*
X159108351Y-112547214D01*
X159006276Y-112623715D01*
X158993715Y-112636276D01*
X158917214Y-112738351D01*
X158908676Y-112753946D01*
X158863522Y-112874394D01*
X158859896Y-112889643D01*
X158859521Y-112893096D01*
X158858478Y-112895606D01*
X158858068Y-112897331D01*
X158857789Y-112897265D01*
X158832281Y-112958659D01*
X158773920Y-112999088D01*
X158702966Y-113001546D01*
X158641946Y-112965253D01*
X158632656Y-112953760D01*
X158631359Y-112952214D01*
X158628198Y-112947700D01*
X158466300Y-112785802D01*
X158461792Y-112782645D01*
X158461789Y-112782643D01*
X158309229Y-112675819D01*
X158264901Y-112620362D01*
X158255500Y-112572606D01*
X158255500Y-112214085D01*
X166319854Y-112214085D01*
X166324329Y-112229324D01*
X166325719Y-112230529D01*
X166333402Y-112232200D01*
X167405739Y-112232200D01*
X167420978Y-112227725D01*
X167422183Y-112226335D01*
X167423854Y-112218652D01*
X167423854Y-111146316D01*
X167419379Y-111131077D01*
X167417989Y-111129872D01*
X167410306Y-111128201D01*
X166783185Y-111128201D01*
X166776364Y-111128571D01*
X166725502Y-111134095D01*
X166710250Y-111137721D01*
X166589800Y-111182876D01*
X166574205Y-111191414D01*
X166472130Y-111267915D01*
X166459569Y-111280476D01*
X166383068Y-111382551D01*
X166374530Y-111398146D01*
X166329376Y-111518594D01*
X166325749Y-111533849D01*
X166320223Y-111584714D01*
X166319854Y-111591528D01*
X166319854Y-112214085D01*
X158255500Y-112214085D01*
X158255500Y-111133592D01*
X158275502Y-111065471D01*
X158309229Y-111030379D01*
X158451789Y-110930557D01*
X158451792Y-110930555D01*
X158456300Y-110927398D01*
X158618198Y-110765500D01*
X158749523Y-110577949D01*
X158751846Y-110572967D01*
X158751849Y-110572962D01*
X158768081Y-110538151D01*
X158814998Y-110484866D01*
X158883275Y-110465405D01*
X158951235Y-110485947D01*
X158996471Y-110538151D01*
X159012586Y-110572711D01*
X159018069Y-110582207D01*
X159143028Y-110760667D01*
X159150084Y-110769075D01*
X159304125Y-110923116D01*
X159312533Y-110930172D01*
X159490993Y-111055131D01*
X159500489Y-111060614D01*
X159697947Y-111152690D01*
X159708239Y-111156436D01*
X159880503Y-111202594D01*
X159894599Y-111202258D01*
X159898000Y-111194316D01*
X159898000Y-111189167D01*
X160406000Y-111189167D01*
X160409973Y-111202698D01*
X160418522Y-111203927D01*
X160595761Y-111156436D01*
X160606053Y-111152690D01*
X160803511Y-111060614D01*
X160813007Y-111055131D01*
X160991467Y-110930172D01*
X160999875Y-110923116D01*
X161153916Y-110769075D01*
X161160972Y-110760667D01*
X161285931Y-110582207D01*
X161291414Y-110572711D01*
X161383490Y-110375253D01*
X161387236Y-110364961D01*
X161433394Y-110192697D01*
X161433058Y-110178601D01*
X161425116Y-110175200D01*
X160424115Y-110175200D01*
X160408876Y-110179675D01*
X160407671Y-110181065D01*
X160406000Y-110188748D01*
X160406000Y-111189167D01*
X159898000Y-111189167D01*
X159898000Y-109649085D01*
X160406000Y-109649085D01*
X160410475Y-109664324D01*
X160411865Y-109665529D01*
X160419548Y-109667200D01*
X161419967Y-109667200D01*
X161433498Y-109663227D01*
X161434727Y-109654678D01*
X161387236Y-109477439D01*
X161383490Y-109467147D01*
X161291414Y-109269689D01*
X161285931Y-109260193D01*
X161160972Y-109081733D01*
X161153916Y-109073325D01*
X160999875Y-108919284D01*
X160991467Y-108912228D01*
X160813007Y-108787269D01*
X160803511Y-108781786D01*
X160606053Y-108689710D01*
X160595761Y-108685964D01*
X160423497Y-108639806D01*
X160409401Y-108640142D01*
X160406000Y-108648084D01*
X160406000Y-109649085D01*
X159898000Y-109649085D01*
X159898000Y-108653233D01*
X159894027Y-108639702D01*
X159885478Y-108638473D01*
X159708239Y-108685964D01*
X159697947Y-108689710D01*
X159500489Y-108781786D01*
X159490993Y-108787269D01*
X159312533Y-108912228D01*
X159304125Y-108919284D01*
X159150084Y-109073325D01*
X159143028Y-109081733D01*
X159018069Y-109260193D01*
X159012586Y-109269689D01*
X158996471Y-109304249D01*
X158949554Y-109357534D01*
X158881277Y-109376995D01*
X158813317Y-109356453D01*
X158768081Y-109304249D01*
X158751849Y-109269438D01*
X158751846Y-109269433D01*
X158749523Y-109264451D01*
X158618198Y-109076900D01*
X158456300Y-108915002D01*
X158451792Y-108911845D01*
X158451789Y-108911843D01*
X158273967Y-108787331D01*
X158268749Y-108783677D01*
X158263767Y-108781354D01*
X158263762Y-108781351D01*
X158066225Y-108689239D01*
X158066224Y-108689239D01*
X158061243Y-108686916D01*
X158055935Y-108685494D01*
X158055933Y-108685493D01*
X157845402Y-108629081D01*
X157845400Y-108629081D01*
X157840087Y-108627657D01*
X157612000Y-108607702D01*
X157383913Y-108627657D01*
X157378600Y-108629081D01*
X157378598Y-108629081D01*
X157168067Y-108685493D01*
X157168065Y-108685494D01*
X157162757Y-108686916D01*
X157157776Y-108689239D01*
X157157775Y-108689239D01*
X156960238Y-108781351D01*
X156960233Y-108781354D01*
X156955251Y-108783677D01*
X156950033Y-108787331D01*
X156772211Y-108911843D01*
X156772208Y-108911845D01*
X156767700Y-108915002D01*
X156605802Y-109076900D01*
X156474477Y-109264451D01*
X156472154Y-109269433D01*
X156472151Y-109269438D01*
X156456195Y-109303657D01*
X156409278Y-109356942D01*
X156341001Y-109376403D01*
X156273041Y-109355861D01*
X156227805Y-109303657D01*
X156211849Y-109269438D01*
X156211846Y-109269433D01*
X156209523Y-109264451D01*
X156078198Y-109076900D01*
X155916300Y-108915002D01*
X155911792Y-108911845D01*
X155911789Y-108911843D01*
X155733967Y-108787331D01*
X155728749Y-108783677D01*
X155723767Y-108781354D01*
X155723762Y-108781351D01*
X155526225Y-108689239D01*
X155526224Y-108689239D01*
X155521243Y-108686916D01*
X155515935Y-108685494D01*
X155515933Y-108685493D01*
X155305402Y-108629081D01*
X155305400Y-108629081D01*
X155300087Y-108627657D01*
X155072000Y-108607702D01*
X154843913Y-108627657D01*
X154838600Y-108629081D01*
X154838598Y-108629081D01*
X154628067Y-108685493D01*
X154628065Y-108685494D01*
X154622757Y-108686916D01*
X154617776Y-108689239D01*
X154617775Y-108689239D01*
X154420238Y-108781351D01*
X154420233Y-108781354D01*
X154415251Y-108783677D01*
X154410033Y-108787331D01*
X154232211Y-108911843D01*
X154232208Y-108911845D01*
X154227700Y-108915002D01*
X154065802Y-109076900D01*
X153934477Y-109264451D01*
X153932154Y-109269433D01*
X153932151Y-109269438D01*
X153916195Y-109303657D01*
X153869278Y-109356942D01*
X153801001Y-109376403D01*
X153733041Y-109355861D01*
X153687805Y-109303657D01*
X153671849Y-109269438D01*
X153671846Y-109269433D01*
X153669523Y-109264451D01*
X153538198Y-109076900D01*
X153376300Y-108915002D01*
X153371792Y-108911845D01*
X153371789Y-108911843D01*
X153193967Y-108787331D01*
X153188749Y-108783677D01*
X153183767Y-108781354D01*
X153183762Y-108781351D01*
X152986225Y-108689239D01*
X152986224Y-108689239D01*
X152981243Y-108686916D01*
X152975935Y-108685494D01*
X152975933Y-108685493D01*
X152765402Y-108629081D01*
X152765400Y-108629081D01*
X152760087Y-108627657D01*
X152532000Y-108607702D01*
X152303913Y-108627657D01*
X152298600Y-108629081D01*
X152298598Y-108629081D01*
X152088067Y-108685493D01*
X152088065Y-108685494D01*
X152082757Y-108686916D01*
X152077776Y-108689239D01*
X152077775Y-108689239D01*
X151880238Y-108781351D01*
X151880233Y-108781354D01*
X151875251Y-108783677D01*
X151870033Y-108787331D01*
X151692211Y-108911843D01*
X151692208Y-108911845D01*
X151687700Y-108915002D01*
X151525802Y-109076900D01*
X151394477Y-109264451D01*
X151392154Y-109269433D01*
X151392151Y-109269438D01*
X151376195Y-109303657D01*
X151329278Y-109356942D01*
X151261001Y-109376403D01*
X151193041Y-109355861D01*
X151147805Y-109303657D01*
X151131849Y-109269438D01*
X151131846Y-109269433D01*
X151129523Y-109264451D01*
X150998198Y-109076900D01*
X150836300Y-108915002D01*
X150831792Y-108911845D01*
X150831789Y-108911843D01*
X150653967Y-108787331D01*
X150648749Y-108783677D01*
X150643767Y-108781354D01*
X150643762Y-108781351D01*
X150446225Y-108689239D01*
X150446224Y-108689239D01*
X150441243Y-108686916D01*
X150435935Y-108685494D01*
X150435933Y-108685493D01*
X150225402Y-108629081D01*
X150225400Y-108629081D01*
X150220087Y-108627657D01*
X149992000Y-108607702D01*
X149763913Y-108627657D01*
X149758600Y-108629081D01*
X149758598Y-108629081D01*
X149548067Y-108685493D01*
X149548065Y-108685494D01*
X149542757Y-108686916D01*
X149537776Y-108689239D01*
X149537775Y-108689239D01*
X149340238Y-108781351D01*
X149340233Y-108781354D01*
X149335251Y-108783677D01*
X149330033Y-108787331D01*
X149152211Y-108911843D01*
X149152208Y-108911845D01*
X149147700Y-108915002D01*
X148985802Y-109076900D01*
X148854477Y-109264451D01*
X148852154Y-109269433D01*
X148852151Y-109269438D01*
X148836195Y-109303657D01*
X148789278Y-109356942D01*
X148721001Y-109376403D01*
X148653041Y-109355861D01*
X148607805Y-109303657D01*
X148591849Y-109269438D01*
X148591846Y-109269433D01*
X148589523Y-109264451D01*
X148458198Y-109076900D01*
X148296300Y-108915002D01*
X148291792Y-108911845D01*
X148291789Y-108911843D01*
X148113967Y-108787331D01*
X148108749Y-108783677D01*
X148103767Y-108781354D01*
X148103762Y-108781351D01*
X147906225Y-108689239D01*
X147906224Y-108689239D01*
X147901243Y-108686916D01*
X147895935Y-108685494D01*
X147895933Y-108685493D01*
X147685402Y-108629081D01*
X147685400Y-108629081D01*
X147680087Y-108627657D01*
X147452000Y-108607702D01*
X147223913Y-108627657D01*
X147218600Y-108629081D01*
X147218598Y-108629081D01*
X147008067Y-108685493D01*
X147008065Y-108685494D01*
X147002757Y-108686916D01*
X146997776Y-108689239D01*
X146997775Y-108689239D01*
X146800238Y-108781351D01*
X146800233Y-108781354D01*
X146795251Y-108783677D01*
X146790033Y-108787331D01*
X146612211Y-108911843D01*
X146612208Y-108911845D01*
X146607700Y-108915002D01*
X146445802Y-109076900D01*
X146314477Y-109264451D01*
X146312154Y-109269433D01*
X146312151Y-109269438D01*
X146296195Y-109303657D01*
X146249278Y-109356942D01*
X146181001Y-109376403D01*
X146113041Y-109355861D01*
X146067805Y-109303657D01*
X146051849Y-109269438D01*
X146051846Y-109269433D01*
X146049523Y-109264451D01*
X145918198Y-109076900D01*
X145756300Y-108915002D01*
X145751792Y-108911845D01*
X145751789Y-108911843D01*
X145573967Y-108787331D01*
X145568749Y-108783677D01*
X145563767Y-108781354D01*
X145563762Y-108781351D01*
X145366225Y-108689239D01*
X145366224Y-108689239D01*
X145361243Y-108686916D01*
X145355935Y-108685494D01*
X145355933Y-108685493D01*
X145145402Y-108629081D01*
X145145400Y-108629081D01*
X145140087Y-108627657D01*
X144912000Y-108607702D01*
X144683913Y-108627657D01*
X144678600Y-108629081D01*
X144678598Y-108629081D01*
X144468067Y-108685493D01*
X144468065Y-108685494D01*
X144462757Y-108686916D01*
X144457776Y-108689239D01*
X144457775Y-108689239D01*
X144260238Y-108781351D01*
X144260233Y-108781354D01*
X144255251Y-108783677D01*
X144250033Y-108787331D01*
X144072211Y-108911843D01*
X144072208Y-108911845D01*
X144067700Y-108915002D01*
X143905802Y-109076900D01*
X143774477Y-109264451D01*
X143772154Y-109269433D01*
X143772151Y-109269438D01*
X143756195Y-109303657D01*
X143709278Y-109356942D01*
X143641001Y-109376403D01*
X143573041Y-109355861D01*
X143527805Y-109303657D01*
X143511849Y-109269438D01*
X143511846Y-109269433D01*
X143509523Y-109264451D01*
X143378198Y-109076900D01*
X143216300Y-108915002D01*
X143211792Y-108911845D01*
X143211789Y-108911843D01*
X143033967Y-108787331D01*
X143028749Y-108783677D01*
X143023767Y-108781354D01*
X143023762Y-108781351D01*
X142826225Y-108689239D01*
X142826224Y-108689239D01*
X142821243Y-108686916D01*
X142815935Y-108685494D01*
X142815933Y-108685493D01*
X142605402Y-108629081D01*
X142605400Y-108629081D01*
X142600087Y-108627657D01*
X142372000Y-108607702D01*
X142143913Y-108627657D01*
X142138600Y-108629081D01*
X142138598Y-108629081D01*
X141928067Y-108685493D01*
X141928065Y-108685494D01*
X141922757Y-108686916D01*
X141917776Y-108689239D01*
X141917775Y-108689239D01*
X141720238Y-108781351D01*
X141720233Y-108781354D01*
X141715251Y-108783677D01*
X141710033Y-108787331D01*
X141532211Y-108911843D01*
X141532208Y-108911845D01*
X141527700Y-108915002D01*
X141365802Y-109076900D01*
X141234477Y-109264451D01*
X141232154Y-109269433D01*
X141232151Y-109269438D01*
X141216195Y-109303657D01*
X141169278Y-109356942D01*
X141101001Y-109376403D01*
X141033041Y-109355861D01*
X140987805Y-109303657D01*
X140971849Y-109269438D01*
X140971846Y-109269433D01*
X140969523Y-109264451D01*
X140838198Y-109076900D01*
X140676300Y-108915002D01*
X140671792Y-108911845D01*
X140671789Y-108911843D01*
X140493967Y-108787331D01*
X140488749Y-108783677D01*
X140483767Y-108781354D01*
X140483762Y-108781351D01*
X140286225Y-108689239D01*
X140286224Y-108689239D01*
X140281243Y-108686916D01*
X140275935Y-108685494D01*
X140275933Y-108685493D01*
X140065402Y-108629081D01*
X140065400Y-108629081D01*
X140060087Y-108627657D01*
X139832000Y-108607702D01*
X139603913Y-108627657D01*
X139598600Y-108629081D01*
X139598598Y-108629081D01*
X139388067Y-108685493D01*
X139388065Y-108685494D01*
X139382757Y-108686916D01*
X139377776Y-108689239D01*
X139377775Y-108689239D01*
X139180238Y-108781351D01*
X139180233Y-108781354D01*
X139175251Y-108783677D01*
X139170033Y-108787331D01*
X138992211Y-108911843D01*
X138992208Y-108911845D01*
X138987700Y-108915002D01*
X138825802Y-109076900D01*
X138822643Y-109081411D01*
X138819108Y-109085624D01*
X138817974Y-109084673D01*
X138767929Y-109124671D01*
X138697310Y-109131976D01*
X138633951Y-109099942D01*
X138597970Y-109038738D01*
X138594918Y-109021683D01*
X138593745Y-109010884D01*
X138542615Y-108874495D01*
X138455261Y-108757939D01*
X138338705Y-108670585D01*
X138202316Y-108619455D01*
X138140134Y-108612700D01*
X138051500Y-108612700D01*
X137983379Y-108592698D01*
X137936886Y-108539042D01*
X137925500Y-108486700D01*
X137925500Y-103520594D01*
X137945502Y-103452473D01*
X137979229Y-103417381D01*
X138131789Y-103310557D01*
X138131792Y-103310555D01*
X138136300Y-103307398D01*
X138298198Y-103145500D01*
X138429523Y-102957949D01*
X138431846Y-102952967D01*
X138431849Y-102952962D01*
X138447805Y-102918743D01*
X138494722Y-102865458D01*
X138562999Y-102845997D01*
X138630959Y-102866539D01*
X138676195Y-102918743D01*
X138692151Y-102952962D01*
X138692154Y-102952967D01*
X138694477Y-102957949D01*
X138825802Y-103145500D01*
X138987700Y-103307398D01*
X138992208Y-103310555D01*
X138992211Y-103310557D01*
X139070389Y-103365298D01*
X139175251Y-103438723D01*
X139180233Y-103441046D01*
X139180238Y-103441049D01*
X139350825Y-103520594D01*
X139382757Y-103535484D01*
X139388065Y-103536906D01*
X139388067Y-103536907D01*
X139598598Y-103593319D01*
X139598600Y-103593319D01*
X139603913Y-103594743D01*
X139832000Y-103614698D01*
X140060087Y-103594743D01*
X140065398Y-103593320D01*
X140065409Y-103593318D01*
X140123541Y-103577741D01*
X140194517Y-103579430D01*
X140245248Y-103610352D01*
X140452854Y-103817958D01*
X140460398Y-103826248D01*
X140464511Y-103832729D01*
X140470288Y-103838154D01*
X140514178Y-103879369D01*
X140517020Y-103882124D01*
X140536742Y-103901846D01*
X140539884Y-103904283D01*
X140539944Y-103904330D01*
X140548956Y-103912028D01*
X140562389Y-103924642D01*
X140581190Y-103942297D01*
X140588133Y-103946114D01*
X140598942Y-103952056D01*
X140615464Y-103962909D01*
X140631470Y-103975325D01*
X140638748Y-103978475D01*
X140638749Y-103978475D01*
X140672048Y-103992885D01*
X140682698Y-103998102D01*
X140721451Y-104019406D01*
X140729126Y-104021377D01*
X140729127Y-104021377D01*
X140741073Y-104024444D01*
X140759778Y-104030848D01*
X140778366Y-104038892D01*
X140786189Y-104040131D01*
X140786199Y-104040134D01*
X140822035Y-104045810D01*
X140833655Y-104048216D01*
X140865470Y-104056384D01*
X140876481Y-104059211D01*
X140896735Y-104059211D01*
X140916445Y-104060762D01*
X140936454Y-104063931D01*
X140944346Y-104063185D01*
X140963091Y-104061413D01*
X140980473Y-104059770D01*
X140992330Y-104059211D01*
X163957522Y-104059211D01*
X163968705Y-104059738D01*
X163976198Y-104061413D01*
X163984124Y-104061164D01*
X163984125Y-104061164D01*
X164044275Y-104059273D01*
X164048234Y-104059211D01*
X164076145Y-104059211D01*
X164080080Y-104058714D01*
X164080145Y-104058706D01*
X164091982Y-104057773D01*
X164124240Y-104056759D01*
X164128259Y-104056633D01*
X164136178Y-104056384D01*
X164155632Y-104050732D01*
X164174989Y-104046724D01*
X164187219Y-104045179D01*
X164187220Y-104045179D01*
X164195086Y-104044185D01*
X164202457Y-104041266D01*
X164202459Y-104041266D01*
X164236201Y-104027907D01*
X164247431Y-104024062D01*
X164282272Y-104013940D01*
X164282273Y-104013940D01*
X164289882Y-104011729D01*
X164296701Y-104007696D01*
X164296706Y-104007694D01*
X164307317Y-104001418D01*
X164325065Y-103992723D01*
X164343906Y-103985263D01*
X164379676Y-103959275D01*
X164389596Y-103952759D01*
X164420824Y-103934291D01*
X164420827Y-103934289D01*
X164427651Y-103930253D01*
X164441972Y-103915932D01*
X164457006Y-103903091D01*
X164458720Y-103901846D01*
X164473396Y-103891183D01*
X164501587Y-103857106D01*
X164509577Y-103848327D01*
X165492247Y-102865657D01*
X165500537Y-102858113D01*
X165507018Y-102854000D01*
X165553659Y-102804332D01*
X165556413Y-102801491D01*
X165576135Y-102781769D01*
X165578612Y-102778576D01*
X165586317Y-102769555D01*
X165611157Y-102743102D01*
X165616586Y-102737321D01*
X165620408Y-102730369D01*
X165625062Y-102723963D01*
X165625525Y-102724300D01*
X165640193Y-102704765D01*
X167213806Y-101131152D01*
X167276118Y-101097126D01*
X167335513Y-101098541D01*
X167393645Y-101114118D01*
X167393656Y-101114120D01*
X167398967Y-101115543D01*
X167627054Y-101135498D01*
X167855141Y-101115543D01*
X167860452Y-101114120D01*
X167860463Y-101114118D01*
X167918595Y-101098541D01*
X167989571Y-101100230D01*
X168040302Y-101131152D01*
X168181960Y-101272810D01*
X168215986Y-101335122D01*
X168218865Y-101361905D01*
X168218865Y-106081710D01*
X168198863Y-106149831D01*
X168145207Y-106196324D01*
X168074933Y-106206428D01*
X168060254Y-106203417D01*
X167860456Y-106149881D01*
X167860454Y-106149881D01*
X167855141Y-106148457D01*
X167627054Y-106128502D01*
X167398967Y-106148457D01*
X167393654Y-106149881D01*
X167393652Y-106149881D01*
X167183121Y-106206293D01*
X167183119Y-106206294D01*
X167177811Y-106207716D01*
X167172830Y-106210039D01*
X167172829Y-106210039D01*
X166975292Y-106302151D01*
X166975287Y-106302154D01*
X166970305Y-106304477D01*
X166865443Y-106377902D01*
X166787265Y-106432643D01*
X166787262Y-106432645D01*
X166782754Y-106435802D01*
X166620856Y-106597700D01*
X166489531Y-106785251D01*
X166487208Y-106790233D01*
X166487205Y-106790238D01*
X166428027Y-106917147D01*
X166392770Y-106992757D01*
X166333511Y-107213913D01*
X166313556Y-107442000D01*
X166333511Y-107670087D01*
X166334935Y-107675400D01*
X166334935Y-107675402D01*
X166353108Y-107743222D01*
X166392770Y-107891243D01*
X166395093Y-107896224D01*
X166395093Y-107896225D01*
X166487205Y-108093762D01*
X166487208Y-108093767D01*
X166489531Y-108098749D01*
X166620856Y-108286300D01*
X166782754Y-108448198D01*
X166787262Y-108451355D01*
X166787265Y-108451357D01*
X166797055Y-108458212D01*
X166970305Y-108579523D01*
X166975287Y-108581846D01*
X166975292Y-108581849D01*
X167148948Y-108662825D01*
X167177811Y-108676284D01*
X167183119Y-108677706D01*
X167183121Y-108677707D01*
X167393652Y-108734119D01*
X167393654Y-108734119D01*
X167398967Y-108735543D01*
X167627054Y-108755498D01*
X167855141Y-108735543D01*
X167860454Y-108734119D01*
X167860456Y-108734119D01*
X168060254Y-108680583D01*
X168131230Y-108682273D01*
X168190026Y-108722067D01*
X168217974Y-108787331D01*
X168218865Y-108802290D01*
X168218865Y-111002200D01*
X168198863Y-111070321D01*
X168145207Y-111116814D01*
X168092865Y-111128200D01*
X167949969Y-111128200D01*
X167934730Y-111132675D01*
X167933525Y-111134065D01*
X167931854Y-111141748D01*
X167931854Y-112614200D01*
X167911852Y-112682321D01*
X167858196Y-112728814D01*
X167805854Y-112740200D01*
X166337970Y-112740200D01*
X166322731Y-112744675D01*
X166321526Y-112746065D01*
X166319855Y-112753748D01*
X166319855Y-113380869D01*
X166320225Y-113387690D01*
X166325749Y-113438552D01*
X166329375Y-113453804D01*
X166374530Y-113574254D01*
X166383068Y-113589849D01*
X166459569Y-113691924D01*
X166472130Y-113704485D01*
X166574205Y-113780986D01*
X166589800Y-113789524D01*
X166698681Y-113830342D01*
X166755445Y-113872984D01*
X166780145Y-113939545D01*
X166764937Y-114008894D01*
X166745545Y-114035375D01*
X166676191Y-114107950D01*
X166618483Y-114168338D01*
X166615569Y-114172610D01*
X166615568Y-114172611D01*
X166553517Y-114263575D01*
X166492597Y-114352880D01*
X166398542Y-114555505D01*
X166338843Y-114770770D01*
X166315105Y-114992895D01*
X166315402Y-114998048D01*
X166315402Y-114998051D01*
X166327666Y-115210747D01*
X166327964Y-115215915D01*
X166329101Y-115220961D01*
X166329102Y-115220967D01*
X166348973Y-115309139D01*
X166377076Y-115433839D01*
X166461120Y-115640816D01*
X166577841Y-115831288D01*
X166724104Y-116000138D01*
X166895980Y-116142832D01*
X166966449Y-116184011D01*
X166969299Y-116185676D01*
X167018023Y-116237314D01*
X167031094Y-116307097D01*
X167004363Y-116372869D01*
X166963909Y-116406227D01*
X166951461Y-116412707D01*
X166947328Y-116415810D01*
X166947325Y-116415812D01*
X166923101Y-116434000D01*
X166772819Y-116546835D01*
X166618483Y-116708338D01*
X166492597Y-116892880D01*
X166398542Y-117095505D01*
X166338843Y-117310770D01*
X166315105Y-117532895D01*
X166315402Y-117538048D01*
X166315402Y-117538051D01*
X166322995Y-117669738D01*
X166327964Y-117755915D01*
X166329101Y-117760961D01*
X166329102Y-117760967D01*
X166348973Y-117849139D01*
X166377076Y-117973839D01*
X166461120Y-118180816D01*
X166577841Y-118371288D01*
X166724104Y-118540138D01*
X166895980Y-118682832D01*
X167088854Y-118795538D01*
X167297546Y-118875230D01*
X167302614Y-118876261D01*
X167302617Y-118876262D01*
X167409871Y-118898083D01*
X167516451Y-118919767D01*
X167521626Y-118919957D01*
X167521628Y-118919957D01*
X167734527Y-118927764D01*
X167734531Y-118927764D01*
X167739691Y-118927953D01*
X167744811Y-118927297D01*
X167744813Y-118927297D01*
X167956142Y-118900225D01*
X167956143Y-118900225D01*
X167961270Y-118899568D01*
X168007301Y-118885758D01*
X168170283Y-118836861D01*
X168170288Y-118836859D01*
X168175238Y-118835374D01*
X168375848Y-118737096D01*
X168557714Y-118607373D01*
X168621202Y-118544107D01*
X168712289Y-118453337D01*
X168715950Y-118449689D01*
X168775448Y-118366889D01*
X168843289Y-118272477D01*
X168846307Y-118268277D01*
X168935357Y-118088098D01*
X168942990Y-118072653D01*
X168942991Y-118072651D01*
X168945284Y-118068011D01*
X169004759Y-117872257D01*
X169008719Y-117859223D01*
X169008719Y-117859221D01*
X169010224Y-117854269D01*
X169039383Y-117632790D01*
X169041010Y-117566200D01*
X169022706Y-117343561D01*
X168968285Y-117126902D01*
X168879208Y-116922040D01*
X168757868Y-116734477D01*
X168607524Y-116569251D01*
X168603473Y-116566052D01*
X168603469Y-116566048D01*
X168436268Y-116434000D01*
X168436264Y-116433998D01*
X168432213Y-116430798D01*
X168390907Y-116407996D01*
X168340938Y-116357564D01*
X168326166Y-116288121D01*
X168351282Y-116221716D01*
X168378634Y-116195109D01*
X168422457Y-116163850D01*
X168557714Y-116067373D01*
X168715950Y-115909689D01*
X168775448Y-115826889D01*
X168843289Y-115732477D01*
X168846307Y-115728277D01*
X168945284Y-115528011D01*
X169010224Y-115314269D01*
X169039383Y-115092790D01*
X169039538Y-115086452D01*
X169040928Y-115029565D01*
X169040928Y-115029561D01*
X169041010Y-115026200D01*
X169022706Y-114803561D01*
X168994675Y-114691965D01*
X168997479Y-114621023D01*
X169027784Y-114572174D01*
X169244612Y-114355346D01*
X169252902Y-114347802D01*
X169259383Y-114343689D01*
X169306024Y-114294021D01*
X169308778Y-114291180D01*
X169328499Y-114271459D01*
X169330977Y-114268264D01*
X169338683Y-114259242D01*
X169363523Y-114232790D01*
X169368951Y-114227010D01*
X169378711Y-114209257D01*
X169389564Y-114192734D01*
X169397118Y-114182995D01*
X169401978Y-114176730D01*
X169419541Y-114136146D01*
X169424748Y-114125516D01*
X169446060Y-114086749D01*
X169448031Y-114079072D01*
X169448033Y-114079067D01*
X169451097Y-114067131D01*
X169457503Y-114048419D01*
X169462399Y-114037106D01*
X169465546Y-114029834D01*
X169472462Y-113986170D01*
X169474869Y-113974549D01*
X169483893Y-113939400D01*
X169483893Y-113939399D01*
X169485865Y-113931719D01*
X169485865Y-113911458D01*
X169487416Y-113891747D01*
X169489344Y-113879574D01*
X169490584Y-113871746D01*
X169486424Y-113827735D01*
X169485865Y-113815878D01*
X169485865Y-101126074D01*
X169486392Y-101114890D01*
X169488066Y-101107402D01*
X169485927Y-101039343D01*
X169485865Y-101035386D01*
X169485865Y-101007455D01*
X169485359Y-101003449D01*
X169484426Y-100991603D01*
X169484319Y-100988181D01*
X169483038Y-100947421D01*
X169477387Y-100927969D01*
X169473379Y-100908617D01*
X169471833Y-100896379D01*
X169471832Y-100896377D01*
X169470839Y-100888514D01*
X169467535Y-100880168D01*
X169466845Y-100878427D01*
X169454559Y-100847397D01*
X169450724Y-100836196D01*
X169438383Y-100793717D01*
X169434350Y-100786898D01*
X169434348Y-100786893D01*
X169428072Y-100776282D01*
X169419375Y-100758532D01*
X169411917Y-100739694D01*
X169385936Y-100703934D01*
X169379418Y-100694012D01*
X169360943Y-100662771D01*
X169360939Y-100662766D01*
X169356907Y-100655948D01*
X169342583Y-100641624D01*
X169329741Y-100626589D01*
X169317837Y-100610204D01*
X169283771Y-100582022D01*
X169274992Y-100574033D01*
X168936206Y-100235247D01*
X168902180Y-100172935D01*
X168903594Y-100113541D01*
X168920597Y-100050087D01*
X168940552Y-99822000D01*
X168920597Y-99593913D01*
X168917411Y-99582022D01*
X168862761Y-99378067D01*
X168862760Y-99378065D01*
X168861338Y-99372757D01*
X168843594Y-99334705D01*
X168766903Y-99170238D01*
X168766900Y-99170233D01*
X168764577Y-99165251D01*
X168633252Y-98977700D01*
X168471354Y-98815802D01*
X168466846Y-98812645D01*
X168466843Y-98812643D01*
X168351331Y-98731761D01*
X168283803Y-98684477D01*
X168278821Y-98682154D01*
X168278816Y-98682151D01*
X168081279Y-98590039D01*
X168081278Y-98590039D01*
X168076297Y-98587716D01*
X168070989Y-98586294D01*
X168070987Y-98586293D01*
X167860456Y-98529881D01*
X167860454Y-98529881D01*
X167855141Y-98528457D01*
X167627054Y-98508502D01*
X167398967Y-98528457D01*
X167393654Y-98529881D01*
X167393652Y-98529881D01*
X167183121Y-98586293D01*
X167183119Y-98586294D01*
X167177811Y-98587716D01*
X167172830Y-98590039D01*
X167172829Y-98590039D01*
X166975292Y-98682151D01*
X166975287Y-98682154D01*
X166970305Y-98684477D01*
X166902777Y-98731761D01*
X166787265Y-98812643D01*
X166787262Y-98812645D01*
X166782754Y-98815802D01*
X166620856Y-98977700D01*
X166489531Y-99165251D01*
X166487208Y-99170233D01*
X166487205Y-99170238D01*
X166410514Y-99334705D01*
X166392770Y-99372757D01*
X166391348Y-99378065D01*
X166391347Y-99378067D01*
X166336697Y-99582022D01*
X166333511Y-99593913D01*
X166313556Y-99822000D01*
X166333511Y-100050087D01*
X166334934Y-100055398D01*
X166334936Y-100055409D01*
X166350513Y-100113541D01*
X166348824Y-100184517D01*
X166317903Y-100235247D01*
X165487656Y-101065493D01*
X164707747Y-101845402D01*
X164699461Y-101852942D01*
X164692982Y-101857054D01*
X164687557Y-101862831D01*
X164646357Y-101906705D01*
X164643602Y-101909547D01*
X164623865Y-101929284D01*
X164621385Y-101932481D01*
X164613682Y-101941501D01*
X164583414Y-101973733D01*
X164579595Y-101980679D01*
X164574937Y-101987091D01*
X164574474Y-101986754D01*
X164559808Y-102006288D01*
X163810788Y-102755307D01*
X163748476Y-102789332D01*
X163721693Y-102792211D01*
X161539299Y-102792211D01*
X161471178Y-102772209D01*
X161424685Y-102718553D01*
X161414581Y-102648279D01*
X161417592Y-102633599D01*
X161422000Y-102617150D01*
X161445543Y-102529287D01*
X161465498Y-102301200D01*
X161445543Y-102073113D01*
X161409118Y-101937174D01*
X161387707Y-101857267D01*
X161387706Y-101857265D01*
X161386284Y-101851957D01*
X161383961Y-101846975D01*
X161291849Y-101649438D01*
X161291846Y-101649433D01*
X161289523Y-101644451D01*
X161158198Y-101456900D01*
X160996300Y-101295002D01*
X160991792Y-101291845D01*
X160991789Y-101291843D01*
X160839229Y-101185019D01*
X160794901Y-101129562D01*
X160785500Y-101081806D01*
X160785500Y-100906763D01*
X160786027Y-100895579D01*
X160787701Y-100888091D01*
X160785562Y-100820032D01*
X160785500Y-100816075D01*
X160785500Y-100788144D01*
X160784994Y-100784138D01*
X160784061Y-100772292D01*
X160783629Y-100758523D01*
X160782673Y-100728110D01*
X160777022Y-100708658D01*
X160773014Y-100689306D01*
X160771468Y-100677068D01*
X160771467Y-100677066D01*
X160770474Y-100669203D01*
X160754194Y-100628086D01*
X160750359Y-100616885D01*
X160738018Y-100574406D01*
X160733985Y-100567587D01*
X160733983Y-100567582D01*
X160727707Y-100556971D01*
X160719010Y-100539221D01*
X160711552Y-100520383D01*
X160685571Y-100484623D01*
X160679053Y-100474701D01*
X160660578Y-100443460D01*
X160660574Y-100443455D01*
X160656542Y-100436637D01*
X160642218Y-100422313D01*
X160629376Y-100407278D01*
X160617472Y-100390893D01*
X160583406Y-100362711D01*
X160574627Y-100354722D01*
X159923228Y-99703323D01*
X159889202Y-99641011D01*
X159896496Y-99564629D01*
X159898000Y-99561117D01*
X159898000Y-99555967D01*
X160406000Y-99555967D01*
X160409973Y-99569498D01*
X160418522Y-99570727D01*
X160595761Y-99523236D01*
X160606053Y-99519490D01*
X160803511Y-99427414D01*
X160813007Y-99421931D01*
X160991467Y-99296972D01*
X160999875Y-99289916D01*
X161153916Y-99135875D01*
X161160972Y-99127467D01*
X161285931Y-98949007D01*
X161291414Y-98939511D01*
X161383490Y-98742053D01*
X161387236Y-98731761D01*
X161433394Y-98559497D01*
X161433058Y-98545401D01*
X161425116Y-98542000D01*
X160424115Y-98542000D01*
X160408876Y-98546475D01*
X160407671Y-98547865D01*
X160406000Y-98555548D01*
X160406000Y-99555967D01*
X159898000Y-99555967D01*
X159898000Y-98015885D01*
X160406000Y-98015885D01*
X160410475Y-98031124D01*
X160411865Y-98032329D01*
X160419548Y-98034000D01*
X161419967Y-98034000D01*
X161433498Y-98030027D01*
X161434727Y-98021478D01*
X161387236Y-97844239D01*
X161383490Y-97833947D01*
X161291414Y-97636489D01*
X161285931Y-97626993D01*
X161160972Y-97448533D01*
X161153916Y-97440125D01*
X160999875Y-97286084D01*
X160991467Y-97279028D01*
X160813007Y-97154069D01*
X160803511Y-97148586D01*
X160606053Y-97056510D01*
X160595761Y-97052764D01*
X160423497Y-97006606D01*
X160409401Y-97006942D01*
X160406000Y-97014884D01*
X160406000Y-98015885D01*
X159898000Y-98015885D01*
X159898000Y-97020033D01*
X159894027Y-97006502D01*
X159885478Y-97005273D01*
X159708239Y-97052764D01*
X159697947Y-97056510D01*
X159500489Y-97148586D01*
X159490993Y-97154069D01*
X159312533Y-97279028D01*
X159304125Y-97286084D01*
X159150084Y-97440125D01*
X159143028Y-97448533D01*
X159018069Y-97626993D01*
X159012586Y-97636489D01*
X158996471Y-97671049D01*
X158949554Y-97724334D01*
X158881277Y-97743795D01*
X158813317Y-97723253D01*
X158768081Y-97671049D01*
X158751849Y-97636238D01*
X158751846Y-97636233D01*
X158749523Y-97631251D01*
X158618198Y-97443700D01*
X158456300Y-97281802D01*
X158451792Y-97278645D01*
X158451789Y-97278643D01*
X158373611Y-97223902D01*
X158268749Y-97150477D01*
X158263767Y-97148154D01*
X158263762Y-97148151D01*
X158066225Y-97056039D01*
X158066224Y-97056039D01*
X158061243Y-97053716D01*
X158055935Y-97052294D01*
X158055933Y-97052293D01*
X157845402Y-96995881D01*
X157845400Y-96995881D01*
X157840087Y-96994457D01*
X157612000Y-96974502D01*
X157383913Y-96994457D01*
X157378600Y-96995881D01*
X157378598Y-96995881D01*
X157168067Y-97052293D01*
X157168065Y-97052294D01*
X157162757Y-97053716D01*
X157157776Y-97056039D01*
X157157775Y-97056039D01*
X156960238Y-97148151D01*
X156960233Y-97148154D01*
X156955251Y-97150477D01*
X156850389Y-97223902D01*
X156772211Y-97278643D01*
X156772208Y-97278645D01*
X156767700Y-97281802D01*
X156605802Y-97443700D01*
X156474477Y-97631251D01*
X156472154Y-97636233D01*
X156472151Y-97636238D01*
X156456195Y-97670457D01*
X156409278Y-97723742D01*
X156341001Y-97743203D01*
X156273041Y-97722661D01*
X156227805Y-97670457D01*
X156211849Y-97636238D01*
X156211846Y-97636233D01*
X156209523Y-97631251D01*
X156078198Y-97443700D01*
X155916300Y-97281802D01*
X155911792Y-97278645D01*
X155911789Y-97278643D01*
X155833611Y-97223902D01*
X155728749Y-97150477D01*
X155723767Y-97148154D01*
X155723762Y-97148151D01*
X155526225Y-97056039D01*
X155526224Y-97056039D01*
X155521243Y-97053716D01*
X155515935Y-97052294D01*
X155515933Y-97052293D01*
X155305402Y-96995881D01*
X155305400Y-96995881D01*
X155300087Y-96994457D01*
X155072000Y-96974502D01*
X154843913Y-96994457D01*
X154838600Y-96995881D01*
X154838598Y-96995881D01*
X154628067Y-97052293D01*
X154628065Y-97052294D01*
X154622757Y-97053716D01*
X154617776Y-97056039D01*
X154617775Y-97056039D01*
X154420238Y-97148151D01*
X154420233Y-97148154D01*
X154415251Y-97150477D01*
X154310389Y-97223902D01*
X154232211Y-97278643D01*
X154232208Y-97278645D01*
X154227700Y-97281802D01*
X154065802Y-97443700D01*
X153934477Y-97631251D01*
X153932154Y-97636233D01*
X153932151Y-97636238D01*
X153916195Y-97670457D01*
X153869278Y-97723742D01*
X153801001Y-97743203D01*
X153733041Y-97722661D01*
X153687805Y-97670457D01*
X153671849Y-97636238D01*
X153671846Y-97636233D01*
X153669523Y-97631251D01*
X153538198Y-97443700D01*
X153376300Y-97281802D01*
X153371792Y-97278645D01*
X153371789Y-97278643D01*
X153293611Y-97223902D01*
X153188749Y-97150477D01*
X153183767Y-97148154D01*
X153183762Y-97148151D01*
X152986225Y-97056039D01*
X152986224Y-97056039D01*
X152981243Y-97053716D01*
X152975935Y-97052294D01*
X152975933Y-97052293D01*
X152765402Y-96995881D01*
X152765400Y-96995881D01*
X152760087Y-96994457D01*
X152532000Y-96974502D01*
X152303913Y-96994457D01*
X152298600Y-96995881D01*
X152298598Y-96995881D01*
X152088067Y-97052293D01*
X152088065Y-97052294D01*
X152082757Y-97053716D01*
X152077776Y-97056039D01*
X152077775Y-97056039D01*
X151880238Y-97148151D01*
X151880233Y-97148154D01*
X151875251Y-97150477D01*
X151770389Y-97223902D01*
X151692211Y-97278643D01*
X151692208Y-97278645D01*
X151687700Y-97281802D01*
X151525802Y-97443700D01*
X151394477Y-97631251D01*
X151392154Y-97636233D01*
X151392151Y-97636238D01*
X151376195Y-97670457D01*
X151329278Y-97723742D01*
X151261001Y-97743203D01*
X151193041Y-97722661D01*
X151147805Y-97670457D01*
X151131849Y-97636238D01*
X151131846Y-97636233D01*
X151129523Y-97631251D01*
X150998198Y-97443700D01*
X150836300Y-97281802D01*
X150831792Y-97278645D01*
X150831789Y-97278643D01*
X150753611Y-97223902D01*
X150648749Y-97150477D01*
X150643767Y-97148154D01*
X150643762Y-97148151D01*
X150446225Y-97056039D01*
X150446224Y-97056039D01*
X150441243Y-97053716D01*
X150435935Y-97052294D01*
X150435933Y-97052293D01*
X150225402Y-96995881D01*
X150225400Y-96995881D01*
X150220087Y-96994457D01*
X149992000Y-96974502D01*
X149763913Y-96994457D01*
X149758600Y-96995881D01*
X149758598Y-96995881D01*
X149548067Y-97052293D01*
X149548065Y-97052294D01*
X149542757Y-97053716D01*
X149537776Y-97056039D01*
X149537775Y-97056039D01*
X149340238Y-97148151D01*
X149340233Y-97148154D01*
X149335251Y-97150477D01*
X149230389Y-97223902D01*
X149152211Y-97278643D01*
X149152208Y-97278645D01*
X149147700Y-97281802D01*
X148985802Y-97443700D01*
X148854477Y-97631251D01*
X148852154Y-97636233D01*
X148852151Y-97636238D01*
X148836195Y-97670457D01*
X148789278Y-97723742D01*
X148721001Y-97743203D01*
X148653041Y-97722661D01*
X148607805Y-97670457D01*
X148591849Y-97636238D01*
X148591846Y-97636233D01*
X148589523Y-97631251D01*
X148458198Y-97443700D01*
X148296300Y-97281802D01*
X148291792Y-97278645D01*
X148291789Y-97278643D01*
X148213611Y-97223902D01*
X148108749Y-97150477D01*
X148103767Y-97148154D01*
X148103762Y-97148151D01*
X147906225Y-97056039D01*
X147906224Y-97056039D01*
X147901243Y-97053716D01*
X147895935Y-97052294D01*
X147895933Y-97052293D01*
X147685402Y-96995881D01*
X147685400Y-96995881D01*
X147680087Y-96994457D01*
X147452000Y-96974502D01*
X147223913Y-96994457D01*
X147218600Y-96995881D01*
X147218598Y-96995881D01*
X147008067Y-97052293D01*
X147008065Y-97052294D01*
X147002757Y-97053716D01*
X146997776Y-97056039D01*
X146997775Y-97056039D01*
X146800238Y-97148151D01*
X146800233Y-97148154D01*
X146795251Y-97150477D01*
X146690389Y-97223902D01*
X146612211Y-97278643D01*
X146612208Y-97278645D01*
X146607700Y-97281802D01*
X146445802Y-97443700D01*
X146314477Y-97631251D01*
X146312154Y-97636233D01*
X146312151Y-97636238D01*
X146296195Y-97670457D01*
X146249278Y-97723742D01*
X146181001Y-97743203D01*
X146113041Y-97722661D01*
X146067805Y-97670457D01*
X146051849Y-97636238D01*
X146051846Y-97636233D01*
X146049523Y-97631251D01*
X145918198Y-97443700D01*
X145756300Y-97281802D01*
X145751792Y-97278645D01*
X145751789Y-97278643D01*
X145673611Y-97223902D01*
X145568749Y-97150477D01*
X145563767Y-97148154D01*
X145563762Y-97148151D01*
X145366225Y-97056039D01*
X145366224Y-97056039D01*
X145361243Y-97053716D01*
X145355935Y-97052294D01*
X145355933Y-97052293D01*
X145145402Y-96995881D01*
X145145400Y-96995881D01*
X145140087Y-96994457D01*
X144912000Y-96974502D01*
X144683913Y-96994457D01*
X144678600Y-96995881D01*
X144678598Y-96995881D01*
X144468067Y-97052293D01*
X144468065Y-97052294D01*
X144462757Y-97053716D01*
X144457776Y-97056039D01*
X144457775Y-97056039D01*
X144260238Y-97148151D01*
X144260233Y-97148154D01*
X144255251Y-97150477D01*
X144150389Y-97223902D01*
X144072211Y-97278643D01*
X144072208Y-97278645D01*
X144067700Y-97281802D01*
X143905802Y-97443700D01*
X143774477Y-97631251D01*
X143772154Y-97636233D01*
X143772151Y-97636238D01*
X143756195Y-97670457D01*
X143709278Y-97723742D01*
X143641001Y-97743203D01*
X143573041Y-97722661D01*
X143527805Y-97670457D01*
X143511849Y-97636238D01*
X143511846Y-97636233D01*
X143509523Y-97631251D01*
X143378198Y-97443700D01*
X143216300Y-97281802D01*
X143211792Y-97278645D01*
X143211789Y-97278643D01*
X143133611Y-97223902D01*
X143028749Y-97150477D01*
X143023767Y-97148154D01*
X143023762Y-97148151D01*
X142826225Y-97056039D01*
X142826224Y-97056039D01*
X142821243Y-97053716D01*
X142815935Y-97052294D01*
X142815933Y-97052293D01*
X142605402Y-96995881D01*
X142605400Y-96995881D01*
X142600087Y-96994457D01*
X142372000Y-96974502D01*
X142143913Y-96994457D01*
X142138600Y-96995881D01*
X142138598Y-96995881D01*
X141928067Y-97052293D01*
X141928065Y-97052294D01*
X141922757Y-97053716D01*
X141917776Y-97056039D01*
X141917775Y-97056039D01*
X141720238Y-97148151D01*
X141720233Y-97148154D01*
X141715251Y-97150477D01*
X141610389Y-97223902D01*
X141532211Y-97278643D01*
X141532208Y-97278645D01*
X141527700Y-97281802D01*
X141365802Y-97443700D01*
X141234477Y-97631251D01*
X141232154Y-97636233D01*
X141232151Y-97636238D01*
X141216195Y-97670457D01*
X141169278Y-97723742D01*
X141101001Y-97743203D01*
X141033041Y-97722661D01*
X140987805Y-97670457D01*
X140971849Y-97636238D01*
X140971846Y-97636233D01*
X140969523Y-97631251D01*
X140838198Y-97443700D01*
X140676300Y-97281802D01*
X140671792Y-97278645D01*
X140671789Y-97278643D01*
X140593611Y-97223902D01*
X140488749Y-97150477D01*
X140483767Y-97148154D01*
X140483762Y-97148151D01*
X140286225Y-97056039D01*
X140286224Y-97056039D01*
X140281243Y-97053716D01*
X140275935Y-97052294D01*
X140275933Y-97052293D01*
X140065402Y-96995881D01*
X140065400Y-96995881D01*
X140060087Y-96994457D01*
X139832000Y-96974502D01*
X139603913Y-96994457D01*
X139598600Y-96995881D01*
X139598598Y-96995881D01*
X139388067Y-97052293D01*
X139388065Y-97052294D01*
X139382757Y-97053716D01*
X139377776Y-97056039D01*
X139377775Y-97056039D01*
X139180238Y-97148151D01*
X139180233Y-97148154D01*
X139175251Y-97150477D01*
X139070389Y-97223902D01*
X138992211Y-97278643D01*
X138992208Y-97278645D01*
X138987700Y-97281802D01*
X138825802Y-97443700D01*
X138822643Y-97448211D01*
X138819108Y-97452424D01*
X138817974Y-97451473D01*
X138767929Y-97491471D01*
X138697310Y-97498776D01*
X138633951Y-97466742D01*
X138597970Y-97405538D01*
X138594918Y-97388483D01*
X138593745Y-97377684D01*
X138542615Y-97241295D01*
X138455261Y-97124739D01*
X138338705Y-97037385D01*
X138202316Y-96986255D01*
X138140134Y-96979500D01*
X138051500Y-96979500D01*
X137983379Y-96959498D01*
X137936886Y-96905842D01*
X137925500Y-96853500D01*
X137925500Y-91887394D01*
X137945502Y-91819273D01*
X137979229Y-91784181D01*
X138131789Y-91677357D01*
X138131792Y-91677355D01*
X138136300Y-91674198D01*
X138298198Y-91512300D01*
X138429523Y-91324749D01*
X138431846Y-91319767D01*
X138431849Y-91319762D01*
X138448081Y-91284951D01*
X138494998Y-91231666D01*
X138563275Y-91212205D01*
X138631235Y-91232747D01*
X138676471Y-91284951D01*
X138692586Y-91319511D01*
X138698069Y-91329007D01*
X138823028Y-91507467D01*
X138830084Y-91515875D01*
X138984125Y-91669916D01*
X138992533Y-91676972D01*
X139170993Y-91801931D01*
X139180489Y-91807414D01*
X139377947Y-91899490D01*
X139388239Y-91903236D01*
X139560503Y-91949394D01*
X139574599Y-91949058D01*
X139578000Y-91941116D01*
X139578000Y-89400033D01*
X139574027Y-89386502D01*
X139565478Y-89385273D01*
X139388239Y-89432764D01*
X139377947Y-89436510D01*
X139180489Y-89528586D01*
X139170993Y-89534069D01*
X138992533Y-89659028D01*
X138984125Y-89666084D01*
X138830084Y-89820125D01*
X138823028Y-89828533D01*
X138698069Y-90006993D01*
X138692586Y-90016489D01*
X138676471Y-90051049D01*
X138629554Y-90104334D01*
X138561277Y-90123795D01*
X138493317Y-90103253D01*
X138448081Y-90051049D01*
X138431849Y-90016238D01*
X138431846Y-90016233D01*
X138429523Y-90011251D01*
X138298198Y-89823700D01*
X138136300Y-89661802D01*
X138131792Y-89658645D01*
X138131789Y-89658643D01*
X137979228Y-89551819D01*
X137948749Y-89530477D01*
X137943767Y-89528154D01*
X137943762Y-89528151D01*
X137746225Y-89436039D01*
X137746224Y-89436039D01*
X137741243Y-89433716D01*
X137735935Y-89432294D01*
X137735933Y-89432293D01*
X137525402Y-89375881D01*
X137525400Y-89375881D01*
X137520087Y-89374457D01*
X137292000Y-89354502D01*
X137063913Y-89374457D01*
X137058600Y-89375881D01*
X137058598Y-89375881D01*
X136848067Y-89432293D01*
X136848065Y-89432294D01*
X136842757Y-89433716D01*
X136837776Y-89436039D01*
X136837775Y-89436039D01*
X136640238Y-89528151D01*
X136640233Y-89528154D01*
X136635251Y-89530477D01*
X136604772Y-89551819D01*
X136452211Y-89658643D01*
X136452208Y-89658645D01*
X136447700Y-89661802D01*
X136285802Y-89823700D01*
X136282645Y-89828208D01*
X136282643Y-89828211D01*
X136175819Y-89980771D01*
X136120362Y-90025099D01*
X136072606Y-90034500D01*
X135427021Y-90034500D01*
X135415838Y-90033973D01*
X135408345Y-90032298D01*
X135400419Y-90032547D01*
X135400418Y-90032547D01*
X135340255Y-90034438D01*
X135336297Y-90034500D01*
X135308398Y-90034500D01*
X135304408Y-90035004D01*
X135292574Y-90035936D01*
X135248365Y-90037326D01*
X135240751Y-90039538D01*
X135240746Y-90039539D01*
X135228913Y-90042977D01*
X135209550Y-90046988D01*
X135189457Y-90049526D01*
X135182090Y-90052443D01*
X135182085Y-90052444D01*
X135148346Y-90065802D01*
X135137119Y-90069646D01*
X135094661Y-90081982D01*
X135087835Y-90086019D01*
X135077226Y-90092293D01*
X135059478Y-90100988D01*
X135040637Y-90108448D01*
X135034221Y-90113110D01*
X135034220Y-90113110D01*
X135004867Y-90134436D01*
X134994947Y-90140952D01*
X134963719Y-90159420D01*
X134963716Y-90159422D01*
X134956892Y-90163458D01*
X134942571Y-90177779D01*
X134927538Y-90190619D01*
X134911147Y-90202528D01*
X134882956Y-90236605D01*
X134874966Y-90245384D01*
X133191502Y-91928848D01*
X133129190Y-91962874D01*
X133069795Y-91961459D01*
X133011663Y-91945882D01*
X133011652Y-91945880D01*
X133006341Y-91944457D01*
X132778254Y-91924502D01*
X132550167Y-91944457D01*
X132544854Y-91945881D01*
X132544852Y-91945881D01*
X132334321Y-92002293D01*
X132334319Y-92002294D01*
X132329011Y-92003716D01*
X132324030Y-92006039D01*
X132324029Y-92006039D01*
X132126492Y-92098151D01*
X132126487Y-92098154D01*
X132121505Y-92100477D01*
X132016643Y-92173902D01*
X131938465Y-92228643D01*
X131938462Y-92228645D01*
X131933954Y-92231802D01*
X131772056Y-92393700D01*
X131640731Y-92581251D01*
X131638408Y-92586233D01*
X131638405Y-92586238D01*
X131546293Y-92783775D01*
X131543970Y-92788757D01*
X131542548Y-92794065D01*
X131542547Y-92794067D01*
X131486137Y-93004591D01*
X131484711Y-93009913D01*
X131464756Y-93238000D01*
X131484711Y-93466087D01*
X131543970Y-93687243D01*
X131546293Y-93692224D01*
X131546293Y-93692225D01*
X131638405Y-93889762D01*
X131638408Y-93889767D01*
X131640731Y-93894749D01*
X131772056Y-94082300D01*
X131933954Y-94244198D01*
X131938462Y-94247355D01*
X131938465Y-94247357D01*
X132042130Y-94319944D01*
X132121505Y-94375523D01*
X132126489Y-94377847D01*
X132128782Y-94379171D01*
X132177775Y-94430553D01*
X132191211Y-94500267D01*
X132164825Y-94566178D01*
X132128782Y-94597409D01*
X132117252Y-94604066D01*
X132065206Y-94640509D01*
X132056830Y-94650988D01*
X132063898Y-94664434D01*
X132765442Y-95365978D01*
X132779386Y-95373592D01*
X132781219Y-95373461D01*
X132787834Y-95369210D01*
X133493331Y-94663713D01*
X133499761Y-94651938D01*
X133490465Y-94639923D01*
X133439256Y-94604066D01*
X133427726Y-94597409D01*
X133378733Y-94546027D01*
X133365296Y-94476313D01*
X133391683Y-94410402D01*
X133427726Y-94379171D01*
X133430019Y-94377847D01*
X133435003Y-94375523D01*
X133514378Y-94319944D01*
X133618043Y-94247357D01*
X133618046Y-94247355D01*
X133622554Y-94244198D01*
X133784452Y-94082300D01*
X133915777Y-93894749D01*
X133918100Y-93889767D01*
X133918103Y-93889762D01*
X134010215Y-93692225D01*
X134010215Y-93692224D01*
X134012538Y-93687243D01*
X134071797Y-93466087D01*
X134091752Y-93238000D01*
X134071797Y-93009913D01*
X134070373Y-93004598D01*
X134070372Y-93004591D01*
X134054795Y-92946459D01*
X134056484Y-92875483D01*
X134087406Y-92824752D01*
X135573754Y-91338405D01*
X135636066Y-91304379D01*
X135662849Y-91301500D01*
X136072606Y-91301500D01*
X136140727Y-91321502D01*
X136175819Y-91355229D01*
X136285802Y-91512300D01*
X136447700Y-91674198D01*
X136452208Y-91677355D01*
X136452211Y-91677357D01*
X136604771Y-91784181D01*
X136649099Y-91839638D01*
X136658500Y-91887394D01*
X136658500Y-96853500D01*
X136638498Y-96921621D01*
X136584842Y-96968114D01*
X136532500Y-96979500D01*
X136443866Y-96979500D01*
X136381684Y-96986255D01*
X136245295Y-97037385D01*
X136128739Y-97124739D01*
X136041385Y-97241295D01*
X135990255Y-97377684D01*
X135983500Y-97439866D01*
X135983500Y-99136134D01*
X135990255Y-99198316D01*
X136041385Y-99334705D01*
X136128739Y-99451261D01*
X136245295Y-99538615D01*
X136381684Y-99589745D01*
X136443866Y-99596500D01*
X136532500Y-99596500D01*
X136600621Y-99616502D01*
X136647114Y-99670158D01*
X136658500Y-99722500D01*
X136658500Y-101081806D01*
X136638498Y-101149927D01*
X136604771Y-101185019D01*
X136452211Y-101291843D01*
X136452208Y-101291845D01*
X136447700Y-101295002D01*
X136285802Y-101456900D01*
X136282645Y-101461408D01*
X136282643Y-101461411D01*
X136175819Y-101613971D01*
X136120362Y-101658299D01*
X136072606Y-101667700D01*
X135376221Y-101667700D01*
X135365038Y-101667173D01*
X135357545Y-101665498D01*
X135349619Y-101665747D01*
X135349618Y-101665747D01*
X135289455Y-101667638D01*
X135285497Y-101667700D01*
X135257598Y-101667700D01*
X135253608Y-101668204D01*
X135241774Y-101669136D01*
X135197565Y-101670526D01*
X135189951Y-101672738D01*
X135189946Y-101672739D01*
X135178113Y-101676177D01*
X135158750Y-101680188D01*
X135138657Y-101682726D01*
X135131290Y-101685643D01*
X135131285Y-101685644D01*
X135097546Y-101699002D01*
X135086319Y-101702846D01*
X135043861Y-101715182D01*
X135037035Y-101719219D01*
X135026426Y-101725493D01*
X135008678Y-101734188D01*
X134989837Y-101741648D01*
X134983421Y-101746310D01*
X134983420Y-101746310D01*
X134954067Y-101767636D01*
X134944147Y-101774152D01*
X134912919Y-101792620D01*
X134912916Y-101792622D01*
X134906092Y-101796658D01*
X134891771Y-101810979D01*
X134876738Y-101823819D01*
X134860347Y-101835728D01*
X134837925Y-101862831D01*
X134832156Y-101869805D01*
X134824166Y-101878584D01*
X133140702Y-103562048D01*
X133078390Y-103596074D01*
X133018995Y-103594659D01*
X132960863Y-103579082D01*
X132960852Y-103579080D01*
X132955541Y-103577657D01*
X132727454Y-103557702D01*
X132499367Y-103577657D01*
X132494054Y-103579081D01*
X132494052Y-103579081D01*
X132283521Y-103635493D01*
X132283519Y-103635494D01*
X132278211Y-103636916D01*
X132273230Y-103639239D01*
X132273229Y-103639239D01*
X132075692Y-103731351D01*
X132075687Y-103731354D01*
X132070705Y-103733677D01*
X131965843Y-103807102D01*
X131887665Y-103861843D01*
X131887662Y-103861845D01*
X131883154Y-103865002D01*
X131721256Y-104026900D01*
X131718099Y-104031408D01*
X131718097Y-104031411D01*
X131663356Y-104109589D01*
X131589931Y-104214451D01*
X131587608Y-104219433D01*
X131587605Y-104219438D01*
X131495493Y-104416975D01*
X131493170Y-104421957D01*
X131491748Y-104427265D01*
X131491747Y-104427267D01*
X131435337Y-104637791D01*
X131433911Y-104643113D01*
X131413956Y-104871200D01*
X125070100Y-104871200D01*
X125070100Y-96824062D01*
X132056747Y-96824062D01*
X132066043Y-96836077D01*
X132117248Y-96871931D01*
X132126743Y-96877414D01*
X132324201Y-96969490D01*
X132334493Y-96973236D01*
X132544942Y-97029625D01*
X132555735Y-97031528D01*
X132772779Y-97050517D01*
X132783729Y-97050517D01*
X133000773Y-97031528D01*
X133011566Y-97029625D01*
X133222015Y-96973236D01*
X133232307Y-96969490D01*
X133429765Y-96877414D01*
X133439260Y-96871931D01*
X133491302Y-96835491D01*
X133499678Y-96825012D01*
X133492610Y-96811566D01*
X132791066Y-96110022D01*
X132777122Y-96102408D01*
X132775289Y-96102539D01*
X132768674Y-96106790D01*
X132063177Y-96812287D01*
X132056747Y-96824062D01*
X125070100Y-96824062D01*
X125070100Y-95743475D01*
X131465737Y-95743475D01*
X131484726Y-95960519D01*
X131486629Y-95971312D01*
X131543018Y-96181761D01*
X131546764Y-96192053D01*
X131638840Y-96389511D01*
X131644323Y-96399006D01*
X131680763Y-96451048D01*
X131691242Y-96459424D01*
X131704688Y-96452356D01*
X132406232Y-95750812D01*
X132412610Y-95739132D01*
X133142662Y-95739132D01*
X133142793Y-95740965D01*
X133147044Y-95747580D01*
X133852541Y-96453077D01*
X133864316Y-96459507D01*
X133876331Y-96450211D01*
X133912185Y-96399006D01*
X133917668Y-96389511D01*
X134009744Y-96192053D01*
X134013490Y-96181761D01*
X134069879Y-95971312D01*
X134071782Y-95960519D01*
X134090771Y-95743475D01*
X134090771Y-95732525D01*
X134071782Y-95515481D01*
X134069879Y-95504688D01*
X134013490Y-95294239D01*
X134009744Y-95283947D01*
X133917668Y-95086489D01*
X133912185Y-95076994D01*
X133875745Y-95024952D01*
X133865266Y-95016576D01*
X133851820Y-95023644D01*
X133150276Y-95725188D01*
X133142662Y-95739132D01*
X132412610Y-95739132D01*
X132413846Y-95736868D01*
X132413715Y-95735035D01*
X132409464Y-95728420D01*
X131703967Y-95022923D01*
X131692192Y-95016493D01*
X131680177Y-95025789D01*
X131644323Y-95076994D01*
X131638840Y-95086489D01*
X131546764Y-95283947D01*
X131543018Y-95294239D01*
X131486629Y-95504688D01*
X131484726Y-95515481D01*
X131465737Y-95732525D01*
X131465737Y-95743475D01*
X125070100Y-95743475D01*
X125070100Y-87474934D01*
X135793800Y-87474934D01*
X135800555Y-87537116D01*
X135851685Y-87673505D01*
X135939039Y-87790061D01*
X136055595Y-87877415D01*
X136191984Y-87928545D01*
X136254166Y-87935300D01*
X138382434Y-87935300D01*
X138444616Y-87928545D01*
X138581005Y-87877415D01*
X138697561Y-87790061D01*
X138784624Y-87673893D01*
X138841482Y-87631379D01*
X138912300Y-87626353D01*
X138958305Y-87646982D01*
X138959451Y-87647960D01*
X139164051Y-87773340D01*
X139168621Y-87775233D01*
X139168623Y-87775234D01*
X139381174Y-87863275D01*
X139385747Y-87865169D01*
X139449884Y-87880567D01*
X139614265Y-87920032D01*
X139614271Y-87920033D01*
X139619078Y-87921187D01*
X139858300Y-87940014D01*
X140097522Y-87921187D01*
X140102329Y-87920033D01*
X140102335Y-87920032D01*
X140330853Y-87865169D01*
X140331387Y-87867392D01*
X140392878Y-87865613D01*
X140449986Y-87898390D01*
X141701595Y-89149999D01*
X141735621Y-89212311D01*
X141738500Y-89239094D01*
X141738500Y-89448606D01*
X141718498Y-89516727D01*
X141684771Y-89551819D01*
X141532211Y-89658643D01*
X141532208Y-89658645D01*
X141527700Y-89661802D01*
X141365802Y-89823700D01*
X141234477Y-90011251D01*
X141232154Y-90016233D01*
X141232151Y-90016238D01*
X141215919Y-90051049D01*
X141169002Y-90104334D01*
X141100725Y-90123795D01*
X141032765Y-90103253D01*
X140987529Y-90051049D01*
X140971414Y-90016489D01*
X140965931Y-90006993D01*
X140840972Y-89828533D01*
X140833916Y-89820125D01*
X140679875Y-89666084D01*
X140671467Y-89659028D01*
X140493007Y-89534069D01*
X140483511Y-89528586D01*
X140286053Y-89436510D01*
X140275761Y-89432764D01*
X140103497Y-89386606D01*
X140089401Y-89386942D01*
X140086000Y-89394884D01*
X140086000Y-91935967D01*
X140089973Y-91949498D01*
X140098522Y-91950727D01*
X140275761Y-91903236D01*
X140286053Y-91899490D01*
X140483511Y-91807414D01*
X140493007Y-91801931D01*
X140671467Y-91676972D01*
X140679875Y-91669916D01*
X140833916Y-91515875D01*
X140840972Y-91507467D01*
X140965931Y-91329007D01*
X140971414Y-91319511D01*
X140987529Y-91284951D01*
X141034446Y-91231666D01*
X141102723Y-91212205D01*
X141170683Y-91232747D01*
X141215919Y-91284951D01*
X141232151Y-91319762D01*
X141232154Y-91319767D01*
X141234477Y-91324749D01*
X141365802Y-91512300D01*
X141527700Y-91674198D01*
X141532208Y-91677355D01*
X141532211Y-91677357D01*
X141610389Y-91732098D01*
X141715251Y-91805523D01*
X141720233Y-91807846D01*
X141720238Y-91807849D01*
X141890825Y-91887394D01*
X141922757Y-91902284D01*
X141928065Y-91903706D01*
X141928067Y-91903707D01*
X142138598Y-91960119D01*
X142138600Y-91960119D01*
X142143913Y-91961543D01*
X142372000Y-91981498D01*
X142600087Y-91961543D01*
X142605400Y-91960119D01*
X142605402Y-91960119D01*
X142815933Y-91903707D01*
X142815935Y-91903706D01*
X142821243Y-91902284D01*
X142853175Y-91887394D01*
X143023762Y-91807849D01*
X143023767Y-91807846D01*
X143028749Y-91805523D01*
X143133611Y-91732098D01*
X143211789Y-91677357D01*
X143211792Y-91677355D01*
X143216300Y-91674198D01*
X143378198Y-91512300D01*
X143509523Y-91324749D01*
X143511846Y-91319767D01*
X143511849Y-91319762D01*
X143527805Y-91285543D01*
X143574722Y-91232258D01*
X143642999Y-91212797D01*
X143710959Y-91233339D01*
X143756195Y-91285543D01*
X143772151Y-91319762D01*
X143772154Y-91319767D01*
X143774477Y-91324749D01*
X143905802Y-91512300D01*
X144067700Y-91674198D01*
X144072208Y-91677355D01*
X144072211Y-91677357D01*
X144150389Y-91732098D01*
X144255251Y-91805523D01*
X144260233Y-91807846D01*
X144260238Y-91807849D01*
X144430825Y-91887394D01*
X144462757Y-91902284D01*
X144468065Y-91903706D01*
X144468067Y-91903707D01*
X144678598Y-91960119D01*
X144678600Y-91960119D01*
X144683913Y-91961543D01*
X144912000Y-91981498D01*
X145140087Y-91961543D01*
X145145400Y-91960119D01*
X145145402Y-91960119D01*
X145355933Y-91903707D01*
X145355935Y-91903706D01*
X145361243Y-91902284D01*
X145393175Y-91887394D01*
X145563762Y-91807849D01*
X145563767Y-91807846D01*
X145568749Y-91805523D01*
X145673611Y-91732098D01*
X145751789Y-91677357D01*
X145751792Y-91677355D01*
X145756300Y-91674198D01*
X145918198Y-91512300D01*
X146049523Y-91324749D01*
X146051846Y-91319767D01*
X146051849Y-91319762D01*
X146067805Y-91285543D01*
X146114722Y-91232258D01*
X146182999Y-91212797D01*
X146250959Y-91233339D01*
X146296195Y-91285543D01*
X146312151Y-91319762D01*
X146312154Y-91319767D01*
X146314477Y-91324749D01*
X146445802Y-91512300D01*
X146607700Y-91674198D01*
X146612208Y-91677355D01*
X146612211Y-91677357D01*
X146690389Y-91732098D01*
X146795251Y-91805523D01*
X146800233Y-91807846D01*
X146800238Y-91807849D01*
X146970825Y-91887394D01*
X147002757Y-91902284D01*
X147008065Y-91903706D01*
X147008067Y-91903707D01*
X147218598Y-91960119D01*
X147218600Y-91960119D01*
X147223913Y-91961543D01*
X147452000Y-91981498D01*
X147680087Y-91961543D01*
X147685400Y-91960119D01*
X147685402Y-91960119D01*
X147895933Y-91903707D01*
X147895935Y-91903706D01*
X147901243Y-91902284D01*
X147933175Y-91887394D01*
X148103762Y-91807849D01*
X148103767Y-91807846D01*
X148108749Y-91805523D01*
X148213611Y-91732098D01*
X148291789Y-91677357D01*
X148291792Y-91677355D01*
X148296300Y-91674198D01*
X148458198Y-91512300D01*
X148589523Y-91324749D01*
X148591846Y-91319767D01*
X148591849Y-91319762D01*
X148607805Y-91285543D01*
X148654722Y-91232258D01*
X148722999Y-91212797D01*
X148790959Y-91233339D01*
X148836195Y-91285543D01*
X148852151Y-91319762D01*
X148852154Y-91319767D01*
X148854477Y-91324749D01*
X148985802Y-91512300D01*
X149147700Y-91674198D01*
X149152208Y-91677355D01*
X149152211Y-91677357D01*
X149230389Y-91732098D01*
X149335251Y-91805523D01*
X149340233Y-91807846D01*
X149340238Y-91807849D01*
X149510825Y-91887394D01*
X149542757Y-91902284D01*
X149548065Y-91903706D01*
X149548067Y-91903707D01*
X149758598Y-91960119D01*
X149758600Y-91960119D01*
X149763913Y-91961543D01*
X149992000Y-91981498D01*
X150220087Y-91961543D01*
X150225400Y-91960119D01*
X150225402Y-91960119D01*
X150435933Y-91903707D01*
X150435935Y-91903706D01*
X150441243Y-91902284D01*
X150473175Y-91887394D01*
X150643762Y-91807849D01*
X150643767Y-91807846D01*
X150648749Y-91805523D01*
X150753611Y-91732098D01*
X150831789Y-91677357D01*
X150831792Y-91677355D01*
X150836300Y-91674198D01*
X150998198Y-91512300D01*
X151129523Y-91324749D01*
X151131846Y-91319767D01*
X151131849Y-91319762D01*
X151147805Y-91285543D01*
X151194722Y-91232258D01*
X151262999Y-91212797D01*
X151330959Y-91233339D01*
X151376195Y-91285543D01*
X151392151Y-91319762D01*
X151392154Y-91319767D01*
X151394477Y-91324749D01*
X151525802Y-91512300D01*
X151687700Y-91674198D01*
X151692208Y-91677355D01*
X151692211Y-91677357D01*
X151770389Y-91732098D01*
X151875251Y-91805523D01*
X151880233Y-91807846D01*
X151880238Y-91807849D01*
X152050825Y-91887394D01*
X152082757Y-91902284D01*
X152088065Y-91903706D01*
X152088067Y-91903707D01*
X152298598Y-91960119D01*
X152298600Y-91960119D01*
X152303913Y-91961543D01*
X152532000Y-91981498D01*
X152760087Y-91961543D01*
X152765400Y-91960119D01*
X152765402Y-91960119D01*
X152975933Y-91903707D01*
X152975935Y-91903706D01*
X152981243Y-91902284D01*
X153013175Y-91887394D01*
X153183762Y-91807849D01*
X153183767Y-91807846D01*
X153188749Y-91805523D01*
X153293611Y-91732098D01*
X153371789Y-91677357D01*
X153371792Y-91677355D01*
X153376300Y-91674198D01*
X153538198Y-91512300D01*
X153669523Y-91324749D01*
X153671846Y-91319767D01*
X153671849Y-91319762D01*
X153687805Y-91285543D01*
X153734722Y-91232258D01*
X153802999Y-91212797D01*
X153870959Y-91233339D01*
X153916195Y-91285543D01*
X153932151Y-91319762D01*
X153932154Y-91319767D01*
X153934477Y-91324749D01*
X154065802Y-91512300D01*
X154227700Y-91674198D01*
X154232208Y-91677355D01*
X154232211Y-91677357D01*
X154310389Y-91732098D01*
X154415251Y-91805523D01*
X154420233Y-91807846D01*
X154420238Y-91807849D01*
X154590825Y-91887394D01*
X154622757Y-91902284D01*
X154628065Y-91903706D01*
X154628067Y-91903707D01*
X154838598Y-91960119D01*
X154838600Y-91960119D01*
X154843913Y-91961543D01*
X155072000Y-91981498D01*
X155300087Y-91961543D01*
X155305400Y-91960119D01*
X155305402Y-91960119D01*
X155515933Y-91903707D01*
X155515935Y-91903706D01*
X155521243Y-91902284D01*
X155553175Y-91887394D01*
X155723762Y-91807849D01*
X155723767Y-91807846D01*
X155728749Y-91805523D01*
X155833611Y-91732098D01*
X155911789Y-91677357D01*
X155911792Y-91677355D01*
X155916300Y-91674198D01*
X156078198Y-91512300D01*
X156209523Y-91324749D01*
X156211846Y-91319767D01*
X156211849Y-91319762D01*
X156227805Y-91285543D01*
X156274722Y-91232258D01*
X156342999Y-91212797D01*
X156410959Y-91233339D01*
X156456195Y-91285543D01*
X156472151Y-91319762D01*
X156472154Y-91319767D01*
X156474477Y-91324749D01*
X156605802Y-91512300D01*
X156767700Y-91674198D01*
X156772208Y-91677355D01*
X156772211Y-91677357D01*
X156850389Y-91732098D01*
X156955251Y-91805523D01*
X156960233Y-91807846D01*
X156960238Y-91807849D01*
X157130825Y-91887394D01*
X157162757Y-91902284D01*
X157168065Y-91903706D01*
X157168067Y-91903707D01*
X157378598Y-91960119D01*
X157378600Y-91960119D01*
X157383913Y-91961543D01*
X157612000Y-91981498D01*
X157840087Y-91961543D01*
X157845400Y-91960119D01*
X157845402Y-91960119D01*
X158055933Y-91903707D01*
X158055935Y-91903706D01*
X158061243Y-91902284D01*
X158093175Y-91887394D01*
X158263762Y-91807849D01*
X158263767Y-91807846D01*
X158268749Y-91805523D01*
X158373611Y-91732098D01*
X158451789Y-91677357D01*
X158451792Y-91677355D01*
X158456300Y-91674198D01*
X158618198Y-91512300D01*
X158749523Y-91324749D01*
X158751846Y-91319767D01*
X158751849Y-91319762D01*
X158767805Y-91285543D01*
X158814722Y-91232258D01*
X158882999Y-91212797D01*
X158950959Y-91233339D01*
X158996195Y-91285543D01*
X159012151Y-91319762D01*
X159012154Y-91319767D01*
X159014477Y-91324749D01*
X159145802Y-91512300D01*
X159307700Y-91674198D01*
X159312208Y-91677355D01*
X159312211Y-91677357D01*
X159390389Y-91732098D01*
X159495251Y-91805523D01*
X159500233Y-91807846D01*
X159500238Y-91807849D01*
X159670825Y-91887394D01*
X159702757Y-91902284D01*
X159708065Y-91903706D01*
X159708067Y-91903707D01*
X159918598Y-91960119D01*
X159918600Y-91960119D01*
X159923913Y-91961543D01*
X160152000Y-91981498D01*
X160380087Y-91961543D01*
X160385400Y-91960119D01*
X160385402Y-91960119D01*
X160595933Y-91903707D01*
X160595935Y-91903706D01*
X160601243Y-91902284D01*
X160633175Y-91887394D01*
X160803762Y-91807849D01*
X160803767Y-91807846D01*
X160808749Y-91805523D01*
X160913611Y-91732098D01*
X160991789Y-91677357D01*
X160991792Y-91677355D01*
X160996300Y-91674198D01*
X161158198Y-91512300D01*
X161289523Y-91324749D01*
X161291846Y-91319767D01*
X161291849Y-91319762D01*
X161383961Y-91122225D01*
X161383961Y-91122224D01*
X161386284Y-91117243D01*
X161445543Y-90896087D01*
X161465498Y-90668000D01*
X161445543Y-90439913D01*
X161393419Y-90245384D01*
X161387707Y-90224067D01*
X161387706Y-90224065D01*
X161386284Y-90218757D01*
X161373164Y-90190620D01*
X161291849Y-90016238D01*
X161291846Y-90016233D01*
X161289523Y-90011251D01*
X161158198Y-89823700D01*
X160996300Y-89661802D01*
X160991792Y-89658645D01*
X160991789Y-89658643D01*
X160839229Y-89551819D01*
X160794901Y-89496362D01*
X160785500Y-89448606D01*
X160785500Y-89003268D01*
X160786027Y-88992085D01*
X160787702Y-88984592D01*
X160785562Y-88916501D01*
X160785500Y-88912544D01*
X160785500Y-88884644D01*
X160784996Y-88880653D01*
X160784063Y-88868811D01*
X160782923Y-88832536D01*
X160782674Y-88824611D01*
X160777021Y-88805152D01*
X160773012Y-88785793D01*
X160772846Y-88784483D01*
X160770474Y-88765703D01*
X160767558Y-88758337D01*
X160767556Y-88758331D01*
X160754200Y-88724598D01*
X160750355Y-88713368D01*
X160740230Y-88678517D01*
X160740230Y-88678516D01*
X160738019Y-88670907D01*
X160727705Y-88653466D01*
X160719008Y-88635713D01*
X160714472Y-88624258D01*
X160711552Y-88616883D01*
X160685563Y-88581112D01*
X160679047Y-88571192D01*
X160660578Y-88539963D01*
X160656542Y-88533138D01*
X160642221Y-88518817D01*
X160629380Y-88503783D01*
X160622131Y-88493806D01*
X160617472Y-88487393D01*
X160611368Y-88482343D01*
X160611363Y-88482338D01*
X160583402Y-88459207D01*
X160574622Y-88451217D01*
X160265064Y-88141659D01*
X160231038Y-88079347D01*
X160236103Y-88008532D01*
X160278650Y-87951696D01*
X160344273Y-87926952D01*
X160373609Y-87924643D01*
X160417522Y-87921187D01*
X160422329Y-87920033D01*
X160422335Y-87920032D01*
X160586716Y-87880567D01*
X160650853Y-87865169D01*
X160655426Y-87863275D01*
X160867977Y-87775234D01*
X160867979Y-87775233D01*
X160872549Y-87773340D01*
X161077149Y-87647960D01*
X161259618Y-87492118D01*
X161415460Y-87309649D01*
X161540840Y-87105049D01*
X161632669Y-86883353D01*
X161652257Y-86801763D01*
X161687532Y-86654835D01*
X161687533Y-86654829D01*
X161688687Y-86650022D01*
X161707514Y-86410800D01*
X161688687Y-86171578D01*
X161687533Y-86166771D01*
X161687532Y-86166765D01*
X161633824Y-85943059D01*
X161632669Y-85938247D01*
X161540840Y-85716551D01*
X161415460Y-85511951D01*
X161259618Y-85329482D01*
X161077149Y-85173640D01*
X160872549Y-85048260D01*
X160867979Y-85046367D01*
X160867977Y-85046366D01*
X160655426Y-84958325D01*
X160655424Y-84958324D01*
X160650853Y-84956431D01*
X160569263Y-84936843D01*
X160422335Y-84901568D01*
X160422329Y-84901567D01*
X160417522Y-84900413D01*
X160178300Y-84881586D01*
X159939078Y-84900413D01*
X159934271Y-84901567D01*
X159934265Y-84901568D01*
X159787337Y-84936843D01*
X159705747Y-84956431D01*
X159701176Y-84958324D01*
X159701174Y-84958325D01*
X159488623Y-85046366D01*
X159488621Y-85046367D01*
X159484051Y-85048260D01*
X159279451Y-85173640D01*
X159096982Y-85329482D01*
X159004109Y-85438223D01*
X158944661Y-85477030D01*
X158873666Y-85477538D01*
X158812491Y-85438223D01*
X158719618Y-85329482D01*
X158537149Y-85173640D01*
X158332549Y-85048260D01*
X158327979Y-85046367D01*
X158327977Y-85046366D01*
X158115426Y-84958325D01*
X158115424Y-84958324D01*
X158110853Y-84956431D01*
X158029263Y-84936843D01*
X157882335Y-84901568D01*
X157882329Y-84901567D01*
X157877522Y-84900413D01*
X157638300Y-84881586D01*
X157399078Y-84900413D01*
X157394271Y-84901567D01*
X157394265Y-84901568D01*
X157247337Y-84936843D01*
X157165747Y-84956431D01*
X157161176Y-84958324D01*
X157161174Y-84958325D01*
X156948623Y-85046366D01*
X156948621Y-85046367D01*
X156944051Y-85048260D01*
X156739451Y-85173640D01*
X156556982Y-85329482D01*
X156464109Y-85438223D01*
X156404661Y-85477030D01*
X156333666Y-85477538D01*
X156272491Y-85438223D01*
X156179618Y-85329482D01*
X155997149Y-85173640D01*
X155792549Y-85048260D01*
X155787979Y-85046367D01*
X155787977Y-85046366D01*
X155575426Y-84958325D01*
X155575424Y-84958324D01*
X155570853Y-84956431D01*
X155489263Y-84936843D01*
X155342335Y-84901568D01*
X155342329Y-84901567D01*
X155337522Y-84900413D01*
X155098300Y-84881586D01*
X154859078Y-84900413D01*
X154854271Y-84901567D01*
X154854265Y-84901568D01*
X154707337Y-84936843D01*
X154625747Y-84956431D01*
X154621176Y-84958324D01*
X154621174Y-84958325D01*
X154408623Y-85046366D01*
X154408621Y-85046367D01*
X154404051Y-85048260D01*
X154199451Y-85173640D01*
X154016982Y-85329482D01*
X153924109Y-85438223D01*
X153864661Y-85477030D01*
X153793666Y-85477538D01*
X153732491Y-85438223D01*
X153639618Y-85329482D01*
X153457149Y-85173640D01*
X153252549Y-85048260D01*
X153247979Y-85046367D01*
X153247977Y-85046366D01*
X153035426Y-84958325D01*
X153035424Y-84958324D01*
X153030853Y-84956431D01*
X152949263Y-84936843D01*
X152802335Y-84901568D01*
X152802329Y-84901567D01*
X152797522Y-84900413D01*
X152558300Y-84881586D01*
X152319078Y-84900413D01*
X152314271Y-84901567D01*
X152314265Y-84901568D01*
X152167337Y-84936843D01*
X152085747Y-84956431D01*
X152081176Y-84958324D01*
X152081174Y-84958325D01*
X151868623Y-85046366D01*
X151868621Y-85046367D01*
X151864051Y-85048260D01*
X151659451Y-85173640D01*
X151476982Y-85329482D01*
X151384109Y-85438223D01*
X151324661Y-85477030D01*
X151253666Y-85477538D01*
X151192491Y-85438223D01*
X151099618Y-85329482D01*
X150917149Y-85173640D01*
X150712549Y-85048260D01*
X150707979Y-85046367D01*
X150707977Y-85046366D01*
X150495426Y-84958325D01*
X150495424Y-84958324D01*
X150490853Y-84956431D01*
X150409263Y-84936843D01*
X150262335Y-84901568D01*
X150262329Y-84901567D01*
X150257522Y-84900413D01*
X150018300Y-84881586D01*
X149779078Y-84900413D01*
X149774271Y-84901567D01*
X149774265Y-84901568D01*
X149627337Y-84936843D01*
X149545747Y-84956431D01*
X149541176Y-84958324D01*
X149541174Y-84958325D01*
X149328623Y-85046366D01*
X149328621Y-85046367D01*
X149324051Y-85048260D01*
X149119451Y-85173640D01*
X148936982Y-85329482D01*
X148844109Y-85438223D01*
X148784661Y-85477030D01*
X148713666Y-85477538D01*
X148652491Y-85438223D01*
X148559618Y-85329482D01*
X148377149Y-85173640D01*
X148172549Y-85048260D01*
X148167979Y-85046367D01*
X148167977Y-85046366D01*
X147955426Y-84958325D01*
X147955424Y-84958324D01*
X147950853Y-84956431D01*
X147869263Y-84936843D01*
X147722335Y-84901568D01*
X147722329Y-84901567D01*
X147717522Y-84900413D01*
X147478300Y-84881586D01*
X147239078Y-84900413D01*
X147234271Y-84901567D01*
X147234265Y-84901568D01*
X147087337Y-84936843D01*
X147005747Y-84956431D01*
X147001176Y-84958324D01*
X147001174Y-84958325D01*
X146788623Y-85046366D01*
X146788621Y-85046367D01*
X146784051Y-85048260D01*
X146579451Y-85173640D01*
X146396982Y-85329482D01*
X146304109Y-85438223D01*
X146244661Y-85477030D01*
X146173666Y-85477538D01*
X146112491Y-85438223D01*
X146019618Y-85329482D01*
X145837149Y-85173640D01*
X145632549Y-85048260D01*
X145627979Y-85046367D01*
X145627977Y-85046366D01*
X145415426Y-84958325D01*
X145415424Y-84958324D01*
X145410853Y-84956431D01*
X145329263Y-84936843D01*
X145182335Y-84901568D01*
X145182329Y-84901567D01*
X145177522Y-84900413D01*
X144938300Y-84881586D01*
X144699078Y-84900413D01*
X144694271Y-84901567D01*
X144694265Y-84901568D01*
X144547337Y-84936843D01*
X144465747Y-84956431D01*
X144461176Y-84958324D01*
X144461174Y-84958325D01*
X144248623Y-85046366D01*
X144248621Y-85046367D01*
X144244051Y-85048260D01*
X144039451Y-85173640D01*
X143856982Y-85329482D01*
X143764109Y-85438223D01*
X143704661Y-85477030D01*
X143633666Y-85477538D01*
X143572491Y-85438223D01*
X143479618Y-85329482D01*
X143297149Y-85173640D01*
X143092549Y-85048260D01*
X143087979Y-85046367D01*
X143087977Y-85046366D01*
X142875426Y-84958325D01*
X142875424Y-84958324D01*
X142870853Y-84956431D01*
X142789263Y-84936843D01*
X142642335Y-84901568D01*
X142642329Y-84901567D01*
X142637522Y-84900413D01*
X142398300Y-84881586D01*
X142159078Y-84900413D01*
X142154271Y-84901567D01*
X142154265Y-84901568D01*
X142007337Y-84936843D01*
X141925747Y-84956431D01*
X141921176Y-84958324D01*
X141921174Y-84958325D01*
X141708623Y-85046366D01*
X141708621Y-85046367D01*
X141704051Y-85048260D01*
X141499451Y-85173640D01*
X141316982Y-85329482D01*
X141224109Y-85438223D01*
X141164661Y-85477030D01*
X141093666Y-85477538D01*
X141032491Y-85438223D01*
X140939618Y-85329482D01*
X140757149Y-85173640D01*
X140552549Y-85048260D01*
X140547979Y-85046367D01*
X140547977Y-85046366D01*
X140335426Y-84958325D01*
X140335424Y-84958324D01*
X140330853Y-84956431D01*
X140249263Y-84936843D01*
X140102335Y-84901568D01*
X140102329Y-84901567D01*
X140097522Y-84900413D01*
X139858300Y-84881586D01*
X139619078Y-84900413D01*
X139614271Y-84901567D01*
X139614265Y-84901568D01*
X139467337Y-84936843D01*
X139385747Y-84956431D01*
X139381176Y-84958324D01*
X139381174Y-84958325D01*
X139168623Y-85046366D01*
X139168621Y-85046367D01*
X139164051Y-85048260D01*
X138959451Y-85173640D01*
X138958526Y-85174430D01*
X138892635Y-85197936D01*
X138823485Y-85181852D01*
X138784623Y-85147706D01*
X138702942Y-85038719D01*
X138697561Y-85031539D01*
X138581005Y-84944185D01*
X138444616Y-84893055D01*
X138382434Y-84886300D01*
X136254166Y-84886300D01*
X136191984Y-84893055D01*
X136055595Y-84944185D01*
X135939039Y-85031539D01*
X135851685Y-85148095D01*
X135800555Y-85284484D01*
X135793800Y-85346666D01*
X135793800Y-87474934D01*
X125070100Y-87474934D01*
X125070100Y-78790800D01*
X135789086Y-78790800D01*
X135807913Y-79030022D01*
X135809067Y-79034829D01*
X135809068Y-79034835D01*
X135844343Y-79181763D01*
X135863931Y-79263353D01*
X135955760Y-79485049D01*
X136081140Y-79689649D01*
X136236982Y-79872118D01*
X136419451Y-80027960D01*
X136624051Y-80153340D01*
X136628621Y-80155233D01*
X136628623Y-80155234D01*
X136841174Y-80243275D01*
X136845747Y-80245169D01*
X136927337Y-80264757D01*
X137074265Y-80300032D01*
X137074271Y-80300033D01*
X137079078Y-80301187D01*
X137318300Y-80320014D01*
X137557522Y-80301187D01*
X137562329Y-80300033D01*
X137562335Y-80300032D01*
X137709263Y-80264757D01*
X137790853Y-80245169D01*
X137795426Y-80243275D01*
X138007977Y-80155234D01*
X138007979Y-80155233D01*
X138012549Y-80153340D01*
X138217149Y-80027960D01*
X138399618Y-79872118D01*
X138492491Y-79763377D01*
X138551939Y-79724570D01*
X138622934Y-79724062D01*
X138684109Y-79763377D01*
X138776982Y-79872118D01*
X138959451Y-80027960D01*
X139164051Y-80153340D01*
X139168621Y-80155233D01*
X139168623Y-80155234D01*
X139381174Y-80243275D01*
X139385747Y-80245169D01*
X139467337Y-80264757D01*
X139614265Y-80300032D01*
X139614271Y-80300033D01*
X139619078Y-80301187D01*
X139858300Y-80320014D01*
X140097522Y-80301187D01*
X140102329Y-80300033D01*
X140102335Y-80300032D01*
X140249263Y-80264757D01*
X140330853Y-80245169D01*
X140335426Y-80243275D01*
X140547977Y-80155234D01*
X140547979Y-80155233D01*
X140552549Y-80153340D01*
X140757149Y-80027960D01*
X140939618Y-79872118D01*
X141032491Y-79763377D01*
X141091939Y-79724570D01*
X141162934Y-79724062D01*
X141224109Y-79763377D01*
X141316982Y-79872118D01*
X141499451Y-80027960D01*
X141704051Y-80153340D01*
X141708621Y-80155233D01*
X141708623Y-80155234D01*
X141921174Y-80243275D01*
X141925747Y-80245169D01*
X142007337Y-80264757D01*
X142154265Y-80300032D01*
X142154271Y-80300033D01*
X142159078Y-80301187D01*
X142398300Y-80320014D01*
X142637522Y-80301187D01*
X142642329Y-80300033D01*
X142642335Y-80300032D01*
X142789263Y-80264757D01*
X142870853Y-80245169D01*
X142875426Y-80243275D01*
X143087977Y-80155234D01*
X143087979Y-80155233D01*
X143092549Y-80153340D01*
X143297149Y-80027960D01*
X143479618Y-79872118D01*
X143572491Y-79763377D01*
X143631939Y-79724570D01*
X143702934Y-79724062D01*
X143764109Y-79763377D01*
X143856982Y-79872118D01*
X144039451Y-80027960D01*
X144244051Y-80153340D01*
X144248621Y-80155233D01*
X144248623Y-80155234D01*
X144461174Y-80243275D01*
X144465747Y-80245169D01*
X144547337Y-80264757D01*
X144694265Y-80300032D01*
X144694271Y-80300033D01*
X144699078Y-80301187D01*
X144938300Y-80320014D01*
X145177522Y-80301187D01*
X145182329Y-80300033D01*
X145182335Y-80300032D01*
X145329263Y-80264757D01*
X145410853Y-80245169D01*
X145415426Y-80243275D01*
X145627977Y-80155234D01*
X145627979Y-80155233D01*
X145632549Y-80153340D01*
X145837149Y-80027960D01*
X146019618Y-79872118D01*
X146112491Y-79763377D01*
X146171939Y-79724570D01*
X146242934Y-79724062D01*
X146304109Y-79763377D01*
X146396982Y-79872118D01*
X146579451Y-80027960D01*
X146784051Y-80153340D01*
X146788621Y-80155233D01*
X146788623Y-80155234D01*
X147001174Y-80243275D01*
X147005747Y-80245169D01*
X147087337Y-80264757D01*
X147234265Y-80300032D01*
X147234271Y-80300033D01*
X147239078Y-80301187D01*
X147478300Y-80320014D01*
X147717522Y-80301187D01*
X147722329Y-80300033D01*
X147722335Y-80300032D01*
X147869263Y-80264757D01*
X147950853Y-80245169D01*
X147955426Y-80243275D01*
X148167977Y-80155234D01*
X148167979Y-80155233D01*
X148172549Y-80153340D01*
X148377149Y-80027960D01*
X148559618Y-79872118D01*
X148652491Y-79763377D01*
X148711939Y-79724570D01*
X148782934Y-79724062D01*
X148844109Y-79763377D01*
X148936982Y-79872118D01*
X149119451Y-80027960D01*
X149324051Y-80153340D01*
X149328621Y-80155233D01*
X149328623Y-80155234D01*
X149541174Y-80243275D01*
X149545747Y-80245169D01*
X149627337Y-80264757D01*
X149774265Y-80300032D01*
X149774271Y-80300033D01*
X149779078Y-80301187D01*
X150018300Y-80320014D01*
X150257522Y-80301187D01*
X150262329Y-80300033D01*
X150262335Y-80300032D01*
X150409263Y-80264757D01*
X150490853Y-80245169D01*
X150495426Y-80243275D01*
X150707977Y-80155234D01*
X150707979Y-80155233D01*
X150712549Y-80153340D01*
X150917149Y-80027960D01*
X151099618Y-79872118D01*
X151192491Y-79763377D01*
X151251939Y-79724570D01*
X151322934Y-79724062D01*
X151384109Y-79763377D01*
X151476982Y-79872118D01*
X151659451Y-80027960D01*
X151864051Y-80153340D01*
X151868621Y-80155233D01*
X151868623Y-80155234D01*
X152081174Y-80243275D01*
X152085747Y-80245169D01*
X152167337Y-80264757D01*
X152314265Y-80300032D01*
X152314271Y-80300033D01*
X152319078Y-80301187D01*
X152558300Y-80320014D01*
X152797522Y-80301187D01*
X152802329Y-80300033D01*
X152802335Y-80300032D01*
X152949263Y-80264757D01*
X153030853Y-80245169D01*
X153035426Y-80243275D01*
X153247977Y-80155234D01*
X153247979Y-80155233D01*
X153252549Y-80153340D01*
X153457149Y-80027960D01*
X153639618Y-79872118D01*
X153732491Y-79763377D01*
X153791939Y-79724570D01*
X153862934Y-79724062D01*
X153924109Y-79763377D01*
X154016982Y-79872118D01*
X154199451Y-80027960D01*
X154404051Y-80153340D01*
X154408621Y-80155233D01*
X154408623Y-80155234D01*
X154621174Y-80243275D01*
X154625747Y-80245169D01*
X154707337Y-80264757D01*
X154854265Y-80300032D01*
X154854271Y-80300033D01*
X154859078Y-80301187D01*
X155098300Y-80320014D01*
X155337522Y-80301187D01*
X155342329Y-80300033D01*
X155342335Y-80300032D01*
X155489263Y-80264757D01*
X155570853Y-80245169D01*
X155575426Y-80243275D01*
X155787977Y-80155234D01*
X155787979Y-80155233D01*
X155792549Y-80153340D01*
X155997149Y-80027960D01*
X156179618Y-79872118D01*
X156272491Y-79763377D01*
X156331939Y-79724570D01*
X156402934Y-79724062D01*
X156464109Y-79763377D01*
X156556982Y-79872118D01*
X156739451Y-80027960D01*
X156944051Y-80153340D01*
X156948621Y-80155233D01*
X156948623Y-80155234D01*
X157161174Y-80243275D01*
X157165747Y-80245169D01*
X157247337Y-80264757D01*
X157394265Y-80300032D01*
X157394271Y-80300033D01*
X157399078Y-80301187D01*
X157638300Y-80320014D01*
X157877522Y-80301187D01*
X157882329Y-80300033D01*
X157882335Y-80300032D01*
X158029263Y-80264757D01*
X158110853Y-80245169D01*
X158115426Y-80243275D01*
X158327977Y-80155234D01*
X158327979Y-80155233D01*
X158332549Y-80153340D01*
X158537149Y-80027960D01*
X158719618Y-79872118D01*
X158812491Y-79763377D01*
X158871939Y-79724570D01*
X158942934Y-79724062D01*
X159004109Y-79763377D01*
X159096982Y-79872118D01*
X159279451Y-80027960D01*
X159484051Y-80153340D01*
X159488621Y-80155233D01*
X159488623Y-80155234D01*
X159701174Y-80243275D01*
X159705747Y-80245169D01*
X159787337Y-80264757D01*
X159934265Y-80300032D01*
X159934271Y-80300033D01*
X159939078Y-80301187D01*
X160178300Y-80320014D01*
X160417522Y-80301187D01*
X160422329Y-80300033D01*
X160422335Y-80300032D01*
X160569263Y-80264757D01*
X160650853Y-80245169D01*
X160655426Y-80243275D01*
X160867977Y-80155234D01*
X160867979Y-80155233D01*
X160872549Y-80153340D01*
X161077149Y-80027960D01*
X161259618Y-79872118D01*
X161415460Y-79689649D01*
X161540840Y-79485049D01*
X161632669Y-79263353D01*
X161652257Y-79181763D01*
X161687532Y-79034835D01*
X161687533Y-79034829D01*
X161688687Y-79030022D01*
X161707514Y-78790800D01*
X161688687Y-78551578D01*
X161687533Y-78546771D01*
X161687532Y-78546765D01*
X161633824Y-78323059D01*
X161632669Y-78318247D01*
X161540840Y-78096551D01*
X161415460Y-77891951D01*
X161259618Y-77709482D01*
X161077149Y-77553640D01*
X160872549Y-77428260D01*
X160867979Y-77426367D01*
X160867977Y-77426366D01*
X160655426Y-77338325D01*
X160655424Y-77338324D01*
X160650853Y-77336431D01*
X160569263Y-77316843D01*
X160422335Y-77281568D01*
X160422329Y-77281567D01*
X160417522Y-77280413D01*
X160178300Y-77261586D01*
X159939078Y-77280413D01*
X159934271Y-77281567D01*
X159934265Y-77281568D01*
X159787337Y-77316843D01*
X159705747Y-77336431D01*
X159701176Y-77338324D01*
X159701174Y-77338325D01*
X159488623Y-77426366D01*
X159488621Y-77426367D01*
X159484051Y-77428260D01*
X159279451Y-77553640D01*
X159096982Y-77709482D01*
X159004109Y-77818223D01*
X158944661Y-77857030D01*
X158873666Y-77857538D01*
X158812491Y-77818223D01*
X158719618Y-77709482D01*
X158537149Y-77553640D01*
X158332549Y-77428260D01*
X158333730Y-77426332D01*
X158288944Y-77383984D01*
X158271800Y-77320530D01*
X158271800Y-75136545D01*
X158291802Y-75068424D01*
X158325529Y-75033332D01*
X158482589Y-74923357D01*
X158482592Y-74923355D01*
X158487100Y-74920198D01*
X158648998Y-74758300D01*
X158653242Y-74752240D01*
X158777166Y-74575257D01*
X158780323Y-74570749D01*
X158782646Y-74565767D01*
X158782649Y-74565762D01*
X158874761Y-74368225D01*
X158874761Y-74368224D01*
X158877084Y-74363243D01*
X158925770Y-74181548D01*
X158934919Y-74147402D01*
X158934919Y-74147400D01*
X158936343Y-74142087D01*
X158956298Y-73914000D01*
X158936343Y-73685913D01*
X158927828Y-73654135D01*
X158878507Y-73470067D01*
X158878506Y-73470065D01*
X158877084Y-73464757D01*
X158798605Y-73296457D01*
X158782649Y-73262238D01*
X158782646Y-73262233D01*
X158780323Y-73257251D01*
X158706898Y-73152389D01*
X158652157Y-73074211D01*
X158652155Y-73074208D01*
X158648998Y-73069700D01*
X158487100Y-72907802D01*
X158482592Y-72904645D01*
X158482589Y-72904643D01*
X158404411Y-72849902D01*
X158299549Y-72776477D01*
X158294567Y-72774154D01*
X158294562Y-72774151D01*
X158097025Y-72682039D01*
X158097024Y-72682039D01*
X158092043Y-72679716D01*
X158086735Y-72678294D01*
X158086733Y-72678293D01*
X157876202Y-72621881D01*
X157876200Y-72621881D01*
X157870887Y-72620457D01*
X157642800Y-72600502D01*
X157414713Y-72620457D01*
X157409400Y-72621881D01*
X157409398Y-72621881D01*
X157198867Y-72678293D01*
X157198865Y-72678294D01*
X157193557Y-72679716D01*
X157188576Y-72682039D01*
X157188575Y-72682039D01*
X156991038Y-72774151D01*
X156991033Y-72774154D01*
X156986051Y-72776477D01*
X156881189Y-72849902D01*
X156803011Y-72904643D01*
X156803008Y-72904645D01*
X156798500Y-72907802D01*
X156636602Y-73069700D01*
X156633445Y-73074208D01*
X156633443Y-73074211D01*
X156578702Y-73152389D01*
X156505277Y-73257251D01*
X156502954Y-73262233D01*
X156502951Y-73262238D01*
X156486995Y-73296457D01*
X156440078Y-73349742D01*
X156371801Y-73369203D01*
X156303841Y-73348661D01*
X156258605Y-73296457D01*
X156242649Y-73262238D01*
X156242646Y-73262233D01*
X156240323Y-73257251D01*
X156166898Y-73152389D01*
X156112157Y-73074211D01*
X156112155Y-73074208D01*
X156108998Y-73069700D01*
X155947100Y-72907802D01*
X155942592Y-72904645D01*
X155942589Y-72904643D01*
X155864411Y-72849902D01*
X155759549Y-72776477D01*
X155754567Y-72774154D01*
X155754562Y-72774151D01*
X155557025Y-72682039D01*
X155557024Y-72682039D01*
X155552043Y-72679716D01*
X155546735Y-72678294D01*
X155546733Y-72678293D01*
X155336202Y-72621881D01*
X155336200Y-72621881D01*
X155330887Y-72620457D01*
X155102800Y-72600502D01*
X154874713Y-72620457D01*
X154869400Y-72621881D01*
X154869398Y-72621881D01*
X154658867Y-72678293D01*
X154658865Y-72678294D01*
X154653557Y-72679716D01*
X154648576Y-72682039D01*
X154648575Y-72682039D01*
X154451038Y-72774151D01*
X154451033Y-72774154D01*
X154446051Y-72776477D01*
X154341189Y-72849902D01*
X154263011Y-72904643D01*
X154263008Y-72904645D01*
X154258500Y-72907802D01*
X154096602Y-73069700D01*
X154093445Y-73074208D01*
X154093443Y-73074211D01*
X154038702Y-73152389D01*
X153965277Y-73257251D01*
X153962954Y-73262233D01*
X153962951Y-73262238D01*
X153946995Y-73296457D01*
X153900078Y-73349742D01*
X153831801Y-73369203D01*
X153763841Y-73348661D01*
X153718605Y-73296457D01*
X153702649Y-73262238D01*
X153702646Y-73262233D01*
X153700323Y-73257251D01*
X153626898Y-73152389D01*
X153572157Y-73074211D01*
X153572155Y-73074208D01*
X153568998Y-73069700D01*
X153407100Y-72907802D01*
X153402592Y-72904645D01*
X153402589Y-72904643D01*
X153324411Y-72849902D01*
X153219549Y-72776477D01*
X153214567Y-72774154D01*
X153214562Y-72774151D01*
X153017025Y-72682039D01*
X153017024Y-72682039D01*
X153012043Y-72679716D01*
X153006735Y-72678294D01*
X153006733Y-72678293D01*
X152796202Y-72621881D01*
X152796200Y-72621881D01*
X152790887Y-72620457D01*
X152562800Y-72600502D01*
X152334713Y-72620457D01*
X152329400Y-72621881D01*
X152329398Y-72621881D01*
X152118867Y-72678293D01*
X152118865Y-72678294D01*
X152113557Y-72679716D01*
X152108576Y-72682039D01*
X152108575Y-72682039D01*
X151911038Y-72774151D01*
X151911033Y-72774154D01*
X151906051Y-72776477D01*
X151801189Y-72849902D01*
X151723011Y-72904643D01*
X151723008Y-72904645D01*
X151718500Y-72907802D01*
X151556602Y-73069700D01*
X151553445Y-73074208D01*
X151553443Y-73074211D01*
X151498702Y-73152389D01*
X151425277Y-73257251D01*
X151422954Y-73262233D01*
X151422951Y-73262238D01*
X151406995Y-73296457D01*
X151360078Y-73349742D01*
X151291801Y-73369203D01*
X151223841Y-73348661D01*
X151178605Y-73296457D01*
X151162649Y-73262238D01*
X151162646Y-73262233D01*
X151160323Y-73257251D01*
X151086898Y-73152389D01*
X151032157Y-73074211D01*
X151032155Y-73074208D01*
X151028998Y-73069700D01*
X150867100Y-72907802D01*
X150862592Y-72904645D01*
X150862589Y-72904643D01*
X150784411Y-72849902D01*
X150679549Y-72776477D01*
X150674567Y-72774154D01*
X150674562Y-72774151D01*
X150477025Y-72682039D01*
X150477024Y-72682039D01*
X150472043Y-72679716D01*
X150466735Y-72678294D01*
X150466733Y-72678293D01*
X150256202Y-72621881D01*
X150256200Y-72621881D01*
X150250887Y-72620457D01*
X150022800Y-72600502D01*
X149794713Y-72620457D01*
X149789400Y-72621881D01*
X149789398Y-72621881D01*
X149578867Y-72678293D01*
X149578865Y-72678294D01*
X149573557Y-72679716D01*
X149568576Y-72682039D01*
X149568575Y-72682039D01*
X149371038Y-72774151D01*
X149371033Y-72774154D01*
X149366051Y-72776477D01*
X149261189Y-72849902D01*
X149183011Y-72904643D01*
X149183008Y-72904645D01*
X149178500Y-72907802D01*
X149016602Y-73069700D01*
X149013445Y-73074208D01*
X149013443Y-73074211D01*
X148958702Y-73152389D01*
X148885277Y-73257251D01*
X148882954Y-73262233D01*
X148882951Y-73262238D01*
X148866995Y-73296457D01*
X148820078Y-73349742D01*
X148751801Y-73369203D01*
X148683841Y-73348661D01*
X148638605Y-73296457D01*
X148622649Y-73262238D01*
X148622646Y-73262233D01*
X148620323Y-73257251D01*
X148546898Y-73152389D01*
X148492157Y-73074211D01*
X148492155Y-73074208D01*
X148488998Y-73069700D01*
X148327100Y-72907802D01*
X148322592Y-72904645D01*
X148322589Y-72904643D01*
X148244411Y-72849902D01*
X148139549Y-72776477D01*
X148134567Y-72774154D01*
X148134562Y-72774151D01*
X147937025Y-72682039D01*
X147937024Y-72682039D01*
X147932043Y-72679716D01*
X147926735Y-72678294D01*
X147926733Y-72678293D01*
X147716202Y-72621881D01*
X147716200Y-72621881D01*
X147710887Y-72620457D01*
X147482800Y-72600502D01*
X147254713Y-72620457D01*
X147249400Y-72621881D01*
X147249398Y-72621881D01*
X147038867Y-72678293D01*
X147038865Y-72678294D01*
X147033557Y-72679716D01*
X147028576Y-72682039D01*
X147028575Y-72682039D01*
X146831038Y-72774151D01*
X146831033Y-72774154D01*
X146826051Y-72776477D01*
X146721189Y-72849902D01*
X146643011Y-72904643D01*
X146643008Y-72904645D01*
X146638500Y-72907802D01*
X146476602Y-73069700D01*
X146473445Y-73074208D01*
X146473443Y-73074211D01*
X146418702Y-73152389D01*
X146345277Y-73257251D01*
X146342954Y-73262233D01*
X146342951Y-73262238D01*
X146326995Y-73296457D01*
X146280078Y-73349742D01*
X146211801Y-73369203D01*
X146143841Y-73348661D01*
X146098605Y-73296457D01*
X146082649Y-73262238D01*
X146082646Y-73262233D01*
X146080323Y-73257251D01*
X146006898Y-73152389D01*
X145952157Y-73074211D01*
X145952155Y-73074208D01*
X145948998Y-73069700D01*
X145787100Y-72907802D01*
X145782592Y-72904645D01*
X145782589Y-72904643D01*
X145704411Y-72849902D01*
X145599549Y-72776477D01*
X145594567Y-72774154D01*
X145594562Y-72774151D01*
X145397025Y-72682039D01*
X145397024Y-72682039D01*
X145392043Y-72679716D01*
X145386735Y-72678294D01*
X145386733Y-72678293D01*
X145176202Y-72621881D01*
X145176200Y-72621881D01*
X145170887Y-72620457D01*
X144942800Y-72600502D01*
X144714713Y-72620457D01*
X144709400Y-72621881D01*
X144709398Y-72621881D01*
X144498867Y-72678293D01*
X144498865Y-72678294D01*
X144493557Y-72679716D01*
X144488576Y-72682039D01*
X144488575Y-72682039D01*
X144291038Y-72774151D01*
X144291033Y-72774154D01*
X144286051Y-72776477D01*
X144181189Y-72849902D01*
X144103011Y-72904643D01*
X144103008Y-72904645D01*
X144098500Y-72907802D01*
X143936602Y-73069700D01*
X143933445Y-73074208D01*
X143933443Y-73074211D01*
X143878702Y-73152389D01*
X143805277Y-73257251D01*
X143802954Y-73262233D01*
X143802951Y-73262238D01*
X143786995Y-73296457D01*
X143740078Y-73349742D01*
X143671801Y-73369203D01*
X143603841Y-73348661D01*
X143558605Y-73296457D01*
X143542649Y-73262238D01*
X143542646Y-73262233D01*
X143540323Y-73257251D01*
X143466898Y-73152389D01*
X143412157Y-73074211D01*
X143412155Y-73074208D01*
X143408998Y-73069700D01*
X143247100Y-72907802D01*
X143242592Y-72904645D01*
X143242589Y-72904643D01*
X143164411Y-72849902D01*
X143059549Y-72776477D01*
X143054567Y-72774154D01*
X143054562Y-72774151D01*
X142857025Y-72682039D01*
X142857024Y-72682039D01*
X142852043Y-72679716D01*
X142846735Y-72678294D01*
X142846733Y-72678293D01*
X142636202Y-72621881D01*
X142636200Y-72621881D01*
X142630887Y-72620457D01*
X142402800Y-72600502D01*
X142174713Y-72620457D01*
X142169400Y-72621881D01*
X142169398Y-72621881D01*
X141958867Y-72678293D01*
X141958865Y-72678294D01*
X141953557Y-72679716D01*
X141948576Y-72682039D01*
X141948575Y-72682039D01*
X141751038Y-72774151D01*
X141751033Y-72774154D01*
X141746051Y-72776477D01*
X141641189Y-72849902D01*
X141563011Y-72904643D01*
X141563008Y-72904645D01*
X141558500Y-72907802D01*
X141396602Y-73069700D01*
X141393445Y-73074208D01*
X141393443Y-73074211D01*
X141338702Y-73152389D01*
X141265277Y-73257251D01*
X141262954Y-73262233D01*
X141262951Y-73262238D01*
X141246995Y-73296457D01*
X141200078Y-73349742D01*
X141131801Y-73369203D01*
X141063841Y-73348661D01*
X141018605Y-73296457D01*
X141002649Y-73262238D01*
X141002646Y-73262233D01*
X141000323Y-73257251D01*
X140926898Y-73152389D01*
X140872157Y-73074211D01*
X140872155Y-73074208D01*
X140868998Y-73069700D01*
X140707100Y-72907802D01*
X140702592Y-72904645D01*
X140702589Y-72904643D01*
X140624411Y-72849902D01*
X140519549Y-72776477D01*
X140514567Y-72774154D01*
X140514562Y-72774151D01*
X140317025Y-72682039D01*
X140317024Y-72682039D01*
X140312043Y-72679716D01*
X140306735Y-72678294D01*
X140306733Y-72678293D01*
X140096202Y-72621881D01*
X140096200Y-72621881D01*
X140090887Y-72620457D01*
X139862800Y-72600502D01*
X139634713Y-72620457D01*
X139629400Y-72621881D01*
X139629398Y-72621881D01*
X139418867Y-72678293D01*
X139418865Y-72678294D01*
X139413557Y-72679716D01*
X139408576Y-72682039D01*
X139408575Y-72682039D01*
X139211038Y-72774151D01*
X139211033Y-72774154D01*
X139206051Y-72776477D01*
X139101189Y-72849902D01*
X139023011Y-72904643D01*
X139023008Y-72904645D01*
X139018500Y-72907802D01*
X138856602Y-73069700D01*
X138853443Y-73074211D01*
X138849908Y-73078424D01*
X138848940Y-73077612D01*
X138798306Y-73118090D01*
X138727687Y-73125404D01*
X138664324Y-73093376D01*
X138628336Y-73032177D01*
X138625280Y-73015099D01*
X138624905Y-73011648D01*
X138621279Y-72996396D01*
X138576124Y-72875946D01*
X138567586Y-72860351D01*
X138491085Y-72758276D01*
X138478524Y-72745715D01*
X138376449Y-72669214D01*
X138360854Y-72660676D01*
X138240406Y-72615522D01*
X138225151Y-72611895D01*
X138174286Y-72606369D01*
X138167472Y-72606000D01*
X137594915Y-72606000D01*
X137579676Y-72610475D01*
X137578471Y-72611865D01*
X137576800Y-72619548D01*
X137576800Y-75203884D01*
X137581275Y-75219123D01*
X137582665Y-75220328D01*
X137590348Y-75221999D01*
X138167469Y-75221999D01*
X138174290Y-75221629D01*
X138225152Y-75216105D01*
X138240404Y-75212479D01*
X138360854Y-75167324D01*
X138376449Y-75158786D01*
X138478524Y-75082285D01*
X138491085Y-75069724D01*
X138567586Y-74967649D01*
X138576124Y-74952054D01*
X138621278Y-74831606D01*
X138624904Y-74816357D01*
X138625279Y-74812904D01*
X138626322Y-74810394D01*
X138626732Y-74808669D01*
X138627011Y-74808735D01*
X138652519Y-74747341D01*
X138710880Y-74706912D01*
X138781834Y-74704454D01*
X138842854Y-74740747D01*
X138852144Y-74752240D01*
X138853441Y-74753786D01*
X138856602Y-74758300D01*
X139018500Y-74920198D01*
X139023008Y-74923355D01*
X139023011Y-74923357D01*
X139171071Y-75027030D01*
X139215399Y-75082487D01*
X139224800Y-75130243D01*
X139224800Y-77320530D01*
X139204798Y-77388651D01*
X139162978Y-77426509D01*
X139164051Y-77428260D01*
X138959451Y-77553640D01*
X138776982Y-77709482D01*
X138684109Y-77818223D01*
X138624661Y-77857030D01*
X138553666Y-77857538D01*
X138492491Y-77818223D01*
X138399618Y-77709482D01*
X138217149Y-77553640D01*
X138012549Y-77428260D01*
X138007979Y-77426367D01*
X138007977Y-77426366D01*
X137795426Y-77338325D01*
X137795424Y-77338324D01*
X137790853Y-77336431D01*
X137709263Y-77316843D01*
X137562335Y-77281568D01*
X137562329Y-77281567D01*
X137557522Y-77280413D01*
X137318300Y-77261586D01*
X137079078Y-77280413D01*
X137074271Y-77281567D01*
X137074265Y-77281568D01*
X136927337Y-77316843D01*
X136845747Y-77336431D01*
X136841176Y-77338324D01*
X136841174Y-77338325D01*
X136628623Y-77426366D01*
X136628621Y-77426367D01*
X136624051Y-77428260D01*
X136419451Y-77553640D01*
X136236982Y-77709482D01*
X136081140Y-77891951D01*
X135955760Y-78096551D01*
X135863931Y-78318247D01*
X135862776Y-78323059D01*
X135809068Y-78546765D01*
X135809067Y-78546771D01*
X135807913Y-78551578D01*
X135789086Y-78790800D01*
X125070100Y-78790800D01*
X125070100Y-74758669D01*
X136014801Y-74758669D01*
X136015171Y-74765490D01*
X136020695Y-74816352D01*
X136024321Y-74831604D01*
X136069476Y-74952054D01*
X136078014Y-74967649D01*
X136154515Y-75069724D01*
X136167076Y-75082285D01*
X136269151Y-75158786D01*
X136284746Y-75167324D01*
X136405194Y-75212478D01*
X136420449Y-75216105D01*
X136471314Y-75221631D01*
X136478128Y-75222000D01*
X137050685Y-75222000D01*
X137065924Y-75217525D01*
X137067129Y-75216135D01*
X137068800Y-75208452D01*
X137068800Y-74186115D01*
X137064325Y-74170876D01*
X137062935Y-74169671D01*
X137055252Y-74168000D01*
X136032916Y-74168000D01*
X136017677Y-74172475D01*
X136016472Y-74173865D01*
X136014801Y-74181548D01*
X136014801Y-74758669D01*
X125070100Y-74758669D01*
X125070100Y-73641885D01*
X136014800Y-73641885D01*
X136019275Y-73657124D01*
X136020665Y-73658329D01*
X136028348Y-73660000D01*
X137050685Y-73660000D01*
X137065924Y-73655525D01*
X137067129Y-73654135D01*
X137068800Y-73646452D01*
X137068800Y-72624116D01*
X137064325Y-72608877D01*
X137062935Y-72607672D01*
X137055252Y-72606001D01*
X136478131Y-72606001D01*
X136471310Y-72606371D01*
X136420448Y-72611895D01*
X136405196Y-72615521D01*
X136284746Y-72660676D01*
X136269151Y-72669214D01*
X136167076Y-72745715D01*
X136154515Y-72758276D01*
X136078014Y-72860351D01*
X136069476Y-72875946D01*
X136024322Y-72996394D01*
X136020695Y-73011649D01*
X136015169Y-73062514D01*
X136014800Y-73069328D01*
X136014800Y-73641885D01*
X125070100Y-73641885D01*
X125070100Y-69432034D01*
X126467715Y-69432034D01*
X126467887Y-69435429D01*
X126467887Y-69435430D01*
X126472784Y-69532100D01*
X126485846Y-69789940D01*
X126486383Y-69793295D01*
X126486384Y-69793301D01*
X126491370Y-69824428D01*
X126542524Y-70143795D01*
X126637087Y-70489459D01*
X126768428Y-70822888D01*
X126935011Y-71140182D01*
X126936912Y-71143011D01*
X126936918Y-71143021D01*
X127120623Y-71416400D01*
X127134888Y-71437629D01*
X127365719Y-71711750D01*
X127624805Y-71959338D01*
X127909115Y-72177497D01*
X127941110Y-72196950D01*
X128212409Y-72361903D01*
X128212414Y-72361906D01*
X128215324Y-72363675D01*
X128218412Y-72365121D01*
X128218411Y-72365121D01*
X128536764Y-72514249D01*
X128536774Y-72514253D01*
X128539848Y-72515693D01*
X128543066Y-72516795D01*
X128543069Y-72516796D01*
X128875669Y-72630671D01*
X128875677Y-72630673D01*
X128878892Y-72631774D01*
X129228489Y-72710559D01*
X129280782Y-72716517D01*
X129581168Y-72750742D01*
X129581176Y-72750742D01*
X129584551Y-72751127D01*
X129587955Y-72751145D01*
X129587958Y-72751145D01*
X129782281Y-72752162D01*
X129942911Y-72753003D01*
X129946297Y-72752653D01*
X129946299Y-72752653D01*
X130295986Y-72716517D01*
X130295995Y-72716516D01*
X130299378Y-72716166D01*
X130302711Y-72715452D01*
X130302714Y-72715451D01*
X130558215Y-72660676D01*
X130649781Y-72641046D01*
X130990022Y-72528522D01*
X131316120Y-72379911D01*
X131410106Y-72324106D01*
X131621316Y-72198699D01*
X131621321Y-72198696D01*
X131624261Y-72196950D01*
X131910840Y-71981780D01*
X132172505Y-71736919D01*
X132406194Y-71465230D01*
X132512804Y-71310112D01*
X132607244Y-71172701D01*
X132607249Y-71172694D01*
X132609174Y-71169892D01*
X132610786Y-71166898D01*
X132610791Y-71166890D01*
X132777449Y-70857372D01*
X132779071Y-70854360D01*
X132913896Y-70522324D01*
X132924196Y-70486168D01*
X132944581Y-70414606D01*
X133012074Y-70177670D01*
X133072455Y-69824428D01*
X133074565Y-69789940D01*
X133094222Y-69468528D01*
X133094332Y-69466731D01*
X133094413Y-69443600D01*
X133075033Y-69085759D01*
X133072736Y-69071734D01*
X135991754Y-69071734D01*
X135998509Y-69133916D01*
X136049639Y-69270305D01*
X136136993Y-69386861D01*
X136253549Y-69474215D01*
X136389938Y-69525345D01*
X136452120Y-69532100D01*
X138248388Y-69532100D01*
X138310570Y-69525345D01*
X138446959Y-69474215D01*
X138563515Y-69386861D01*
X138650869Y-69270305D01*
X138673053Y-69211129D01*
X138694852Y-69152982D01*
X138737494Y-69096218D01*
X138804056Y-69071518D01*
X138873404Y-69086726D01*
X138908071Y-69114714D01*
X138936504Y-69147538D01*
X139108380Y-69290232D01*
X139301254Y-69402938D01*
X139509946Y-69482630D01*
X139515014Y-69483661D01*
X139515017Y-69483662D01*
X139610116Y-69503010D01*
X139728851Y-69527167D01*
X139734026Y-69527357D01*
X139734028Y-69527357D01*
X139946927Y-69535164D01*
X139946931Y-69535164D01*
X139952091Y-69535353D01*
X139957211Y-69534697D01*
X139957213Y-69534697D01*
X140168542Y-69507625D01*
X140168543Y-69507625D01*
X140173670Y-69506968D01*
X140178620Y-69505483D01*
X140382683Y-69444261D01*
X140382688Y-69444259D01*
X140387638Y-69442774D01*
X140588248Y-69344496D01*
X140770114Y-69214773D01*
X140928350Y-69057089D01*
X141058707Y-68875677D01*
X141060030Y-68876628D01*
X141106899Y-68833457D01*
X141176834Y-68821225D01*
X141242280Y-68848744D01*
X141270129Y-68880594D01*
X141330241Y-68978688D01*
X141476504Y-69147538D01*
X141648380Y-69290232D01*
X141841254Y-69402938D01*
X142049946Y-69482630D01*
X142055014Y-69483661D01*
X142055017Y-69483662D01*
X142150116Y-69503010D01*
X142268851Y-69527167D01*
X142274026Y-69527357D01*
X142274028Y-69527357D01*
X142486927Y-69535164D01*
X142486931Y-69535164D01*
X142492091Y-69535353D01*
X142497211Y-69534697D01*
X142497213Y-69534697D01*
X142708542Y-69507625D01*
X142708543Y-69507625D01*
X142713670Y-69506968D01*
X142718620Y-69505483D01*
X142922683Y-69444261D01*
X142922688Y-69444259D01*
X142927638Y-69442774D01*
X143128248Y-69344496D01*
X143310114Y-69214773D01*
X143468350Y-69057089D01*
X143598707Y-68875677D01*
X143600030Y-68876628D01*
X143646899Y-68833457D01*
X143716834Y-68821225D01*
X143782280Y-68848744D01*
X143810129Y-68880594D01*
X143870241Y-68978688D01*
X144016504Y-69147538D01*
X144188380Y-69290232D01*
X144381254Y-69402938D01*
X144589946Y-69482630D01*
X144595014Y-69483661D01*
X144595017Y-69483662D01*
X144690116Y-69503010D01*
X144808851Y-69527167D01*
X144814026Y-69527357D01*
X144814028Y-69527357D01*
X145026927Y-69535164D01*
X145026931Y-69535164D01*
X145032091Y-69535353D01*
X145037211Y-69534697D01*
X145037213Y-69534697D01*
X145248542Y-69507625D01*
X145248543Y-69507625D01*
X145253670Y-69506968D01*
X145258620Y-69505483D01*
X145462683Y-69444261D01*
X145462688Y-69444259D01*
X145467638Y-69442774D01*
X145668248Y-69344496D01*
X145850114Y-69214773D01*
X146008350Y-69057089D01*
X146138707Y-68875677D01*
X146140030Y-68876628D01*
X146186899Y-68833457D01*
X146256834Y-68821225D01*
X146322280Y-68848744D01*
X146350129Y-68880594D01*
X146410241Y-68978688D01*
X146556504Y-69147538D01*
X146728380Y-69290232D01*
X146921254Y-69402938D01*
X147129946Y-69482630D01*
X147135014Y-69483661D01*
X147135017Y-69483662D01*
X147230116Y-69503010D01*
X147348851Y-69527167D01*
X147354026Y-69527357D01*
X147354028Y-69527357D01*
X147566927Y-69535164D01*
X147566931Y-69535164D01*
X147572091Y-69535353D01*
X147577211Y-69534697D01*
X147577213Y-69534697D01*
X147788542Y-69507625D01*
X147788543Y-69507625D01*
X147793670Y-69506968D01*
X147798620Y-69505483D01*
X148002683Y-69444261D01*
X148002688Y-69444259D01*
X148007638Y-69442774D01*
X148208248Y-69344496D01*
X148390114Y-69214773D01*
X148548350Y-69057089D01*
X148678707Y-68875677D01*
X148680030Y-68876628D01*
X148726899Y-68833457D01*
X148796834Y-68821225D01*
X148862280Y-68848744D01*
X148890129Y-68880594D01*
X148950241Y-68978688D01*
X149096504Y-69147538D01*
X149268380Y-69290232D01*
X149461254Y-69402938D01*
X149669946Y-69482630D01*
X149675014Y-69483661D01*
X149675017Y-69483662D01*
X149770116Y-69503010D01*
X149888851Y-69527167D01*
X149894026Y-69527357D01*
X149894028Y-69527357D01*
X150106927Y-69535164D01*
X150106931Y-69535164D01*
X150112091Y-69535353D01*
X150117211Y-69534697D01*
X150117213Y-69534697D01*
X150328542Y-69507625D01*
X150328543Y-69507625D01*
X150333670Y-69506968D01*
X150338620Y-69505483D01*
X150542683Y-69444261D01*
X150542688Y-69444259D01*
X150547638Y-69442774D01*
X150748248Y-69344496D01*
X150930114Y-69214773D01*
X151088350Y-69057089D01*
X151218707Y-68875677D01*
X151220030Y-68876628D01*
X151266899Y-68833457D01*
X151336834Y-68821225D01*
X151402280Y-68848744D01*
X151430129Y-68880594D01*
X151490241Y-68978688D01*
X151636504Y-69147538D01*
X151808380Y-69290232D01*
X152001254Y-69402938D01*
X152209946Y-69482630D01*
X152215014Y-69483661D01*
X152215017Y-69483662D01*
X152310116Y-69503010D01*
X152428851Y-69527167D01*
X152434026Y-69527357D01*
X152434028Y-69527357D01*
X152646927Y-69535164D01*
X152646931Y-69535164D01*
X152652091Y-69535353D01*
X152657211Y-69534697D01*
X152657213Y-69534697D01*
X152868542Y-69507625D01*
X152868543Y-69507625D01*
X152873670Y-69506968D01*
X152878620Y-69505483D01*
X153082683Y-69444261D01*
X153082688Y-69444259D01*
X153087638Y-69442774D01*
X153288248Y-69344496D01*
X153470114Y-69214773D01*
X153628350Y-69057089D01*
X153758707Y-68875677D01*
X153760030Y-68876628D01*
X153806899Y-68833457D01*
X153876834Y-68821225D01*
X153942280Y-68848744D01*
X153970129Y-68880594D01*
X154030241Y-68978688D01*
X154176504Y-69147538D01*
X154348380Y-69290232D01*
X154541254Y-69402938D01*
X154749946Y-69482630D01*
X154755014Y-69483661D01*
X154755017Y-69483662D01*
X154850116Y-69503010D01*
X154968851Y-69527167D01*
X154974026Y-69527357D01*
X154974028Y-69527357D01*
X155186927Y-69535164D01*
X155186931Y-69535164D01*
X155192091Y-69535353D01*
X155197211Y-69534697D01*
X155197213Y-69534697D01*
X155408542Y-69507625D01*
X155408543Y-69507625D01*
X155413670Y-69506968D01*
X155418620Y-69505483D01*
X155622683Y-69444261D01*
X155622688Y-69444259D01*
X155627638Y-69442774D01*
X155828248Y-69344496D01*
X156010114Y-69214773D01*
X156168350Y-69057089D01*
X156298707Y-68875677D01*
X156300030Y-68876628D01*
X156346899Y-68833457D01*
X156416834Y-68821225D01*
X156482280Y-68848744D01*
X156510129Y-68880594D01*
X156570241Y-68978688D01*
X156716504Y-69147538D01*
X156888380Y-69290232D01*
X157081254Y-69402938D01*
X157289946Y-69482630D01*
X157295014Y-69483661D01*
X157295017Y-69483662D01*
X157390116Y-69503010D01*
X157508851Y-69527167D01*
X157514026Y-69527357D01*
X157514028Y-69527357D01*
X157726927Y-69535164D01*
X157726931Y-69535164D01*
X157732091Y-69535353D01*
X157737211Y-69534697D01*
X157737213Y-69534697D01*
X157948542Y-69507625D01*
X157948543Y-69507625D01*
X157953670Y-69506968D01*
X157958620Y-69505483D01*
X158162683Y-69444261D01*
X158162688Y-69444259D01*
X158167638Y-69442774D01*
X158368248Y-69344496D01*
X158550114Y-69214773D01*
X158708350Y-69057089D01*
X158838707Y-68875677D01*
X158839894Y-68876530D01*
X158887214Y-68832962D01*
X158957151Y-68820745D01*
X159022592Y-68848278D01*
X159050420Y-68880111D01*
X159107948Y-68973988D01*
X159114031Y-68982299D01*
X159253467Y-69143267D01*
X159260834Y-69150483D01*
X159424688Y-69286516D01*
X159433135Y-69292431D01*
X159617010Y-69399879D01*
X159626296Y-69404329D01*
X159825255Y-69480303D01*
X159835153Y-69483179D01*
X159938504Y-69504206D01*
X159952553Y-69503010D01*
X159956254Y-69492665D01*
X159956254Y-69492117D01*
X160464254Y-69492117D01*
X160468318Y-69505959D01*
X160481732Y-69507993D01*
X160488438Y-69507134D01*
X160498516Y-69504992D01*
X160702509Y-69443791D01*
X160712096Y-69440033D01*
X160728424Y-69432034D01*
X164415315Y-69432034D01*
X164415487Y-69435429D01*
X164415487Y-69435430D01*
X164420384Y-69532100D01*
X164433446Y-69789940D01*
X164433983Y-69793295D01*
X164433984Y-69793301D01*
X164438970Y-69824428D01*
X164490124Y-70143795D01*
X164584687Y-70489459D01*
X164716028Y-70822888D01*
X164882611Y-71140182D01*
X164884512Y-71143011D01*
X164884518Y-71143021D01*
X165068223Y-71416400D01*
X165082488Y-71437629D01*
X165313319Y-71711750D01*
X165572405Y-71959338D01*
X165856715Y-72177497D01*
X165888710Y-72196950D01*
X166160009Y-72361903D01*
X166160014Y-72361906D01*
X166162924Y-72363675D01*
X166166012Y-72365121D01*
X166166011Y-72365121D01*
X166484364Y-72514249D01*
X166484374Y-72514253D01*
X166487448Y-72515693D01*
X166490666Y-72516795D01*
X166490669Y-72516796D01*
X166823269Y-72630671D01*
X166823277Y-72630673D01*
X166826492Y-72631774D01*
X167176089Y-72710559D01*
X167228382Y-72716517D01*
X167528768Y-72750742D01*
X167528776Y-72750742D01*
X167532151Y-72751127D01*
X167535555Y-72751145D01*
X167535558Y-72751145D01*
X167729881Y-72752162D01*
X167890511Y-72753003D01*
X167893897Y-72752653D01*
X167893899Y-72752653D01*
X168243586Y-72716517D01*
X168243595Y-72716516D01*
X168246978Y-72716166D01*
X168250311Y-72715452D01*
X168250314Y-72715451D01*
X168505815Y-72660676D01*
X168597381Y-72641046D01*
X168937622Y-72528522D01*
X169263720Y-72379911D01*
X169357706Y-72324106D01*
X169568916Y-72198699D01*
X169568921Y-72198696D01*
X169571861Y-72196950D01*
X169858440Y-71981780D01*
X170120105Y-71736919D01*
X170353794Y-71465230D01*
X170460404Y-71310112D01*
X170554844Y-71172701D01*
X170554849Y-71172694D01*
X170556774Y-71169892D01*
X170558386Y-71166898D01*
X170558391Y-71166890D01*
X170725049Y-70857372D01*
X170726671Y-70854360D01*
X170861496Y-70522324D01*
X170871796Y-70486168D01*
X170892181Y-70414606D01*
X170959674Y-70177670D01*
X171020055Y-69824428D01*
X171022165Y-69789940D01*
X171041822Y-69468528D01*
X171041932Y-69466731D01*
X171042013Y-69443600D01*
X171022633Y-69085759D01*
X170964720Y-68732105D01*
X170868951Y-68386773D01*
X170865897Y-68379097D01*
X170737706Y-68056969D01*
X170736447Y-68053805D01*
X170663866Y-67916724D01*
X170570356Y-67740113D01*
X170570352Y-67740106D01*
X170568757Y-67737094D01*
X170367844Y-67440346D01*
X170136057Y-67167032D01*
X169876108Y-66920350D01*
X169591038Y-66703185D01*
X169588126Y-66701428D01*
X169588121Y-66701425D01*
X169287097Y-66519836D01*
X169287091Y-66519833D01*
X169284182Y-66518078D01*
X168959129Y-66367193D01*
X168789406Y-66309745D01*
X168622909Y-66253389D01*
X168622904Y-66253388D01*
X168619682Y-66252297D01*
X168421335Y-66208324D01*
X168273147Y-66175471D01*
X168273141Y-66175470D01*
X168269812Y-66174732D01*
X168266423Y-66174358D01*
X168266418Y-66174357D01*
X167916992Y-66135780D01*
X167916987Y-66135780D01*
X167913611Y-66135407D01*
X167910212Y-66135401D01*
X167910211Y-66135401D01*
X167740734Y-66135105D01*
X167555246Y-66134782D01*
X167442067Y-66146877D01*
X167202293Y-66172501D01*
X167202285Y-66172502D01*
X167198910Y-66172863D01*
X166848771Y-66249206D01*
X166508925Y-66362917D01*
X166505832Y-66364339D01*
X166505831Y-66364340D01*
X166501631Y-66366272D01*
X166183348Y-66512666D01*
X166180414Y-66514422D01*
X166180412Y-66514423D01*
X165945483Y-66655025D01*
X165875847Y-66696701D01*
X165873121Y-66698763D01*
X165873119Y-66698764D01*
X165635637Y-66878371D01*
X165590021Y-66912870D01*
X165587536Y-66915212D01*
X165587531Y-66915216D01*
X165540881Y-66959177D01*
X165329213Y-67158643D01*
X165096473Y-67431146D01*
X165094554Y-67433958D01*
X165094551Y-67433963D01*
X165036764Y-67518676D01*
X164894525Y-67727191D01*
X164725731Y-68043314D01*
X164592065Y-68375818D01*
X164591145Y-68379092D01*
X164591143Y-68379097D01*
X164566573Y-68466510D01*
X164495091Y-68720813D01*
X164435944Y-69074263D01*
X164415315Y-69432034D01*
X160728424Y-69432034D01*
X160903349Y-69346339D01*
X160912199Y-69341064D01*
X161085582Y-69217392D01*
X161093454Y-69210739D01*
X161244306Y-69060412D01*
X161250984Y-69052565D01*
X161375257Y-68879620D01*
X161380567Y-68870783D01*
X161474924Y-68679867D01*
X161478723Y-68670272D01*
X161540631Y-68466510D01*
X161542809Y-68456437D01*
X161544240Y-68445562D01*
X161542029Y-68431378D01*
X161528871Y-68427600D01*
X160482369Y-68427600D01*
X160467130Y-68432075D01*
X160465925Y-68433465D01*
X160464254Y-68441148D01*
X160464254Y-69492117D01*
X159956254Y-69492117D01*
X159956254Y-67901485D01*
X160464254Y-67901485D01*
X160468729Y-67916724D01*
X160470119Y-67917929D01*
X160477802Y-67919600D01*
X161528598Y-67919600D01*
X161542129Y-67915627D01*
X161543434Y-67906547D01*
X161501468Y-67739475D01*
X161498148Y-67729724D01*
X161413226Y-67534414D01*
X161408359Y-67525339D01*
X161292680Y-67346526D01*
X161286390Y-67338357D01*
X161143060Y-67180840D01*
X161135527Y-67173815D01*
X160968393Y-67041822D01*
X160959806Y-67036117D01*
X160773371Y-66933199D01*
X160763959Y-66928969D01*
X160563213Y-66857880D01*
X160553242Y-66855246D01*
X160482091Y-66842572D01*
X160468794Y-66844032D01*
X160464254Y-66858589D01*
X160464254Y-67901485D01*
X159956254Y-67901485D01*
X159956254Y-66856702D01*
X159952336Y-66843358D01*
X159938060Y-66841371D01*
X159899578Y-66847260D01*
X159889542Y-66849651D01*
X159687122Y-66915812D01*
X159677613Y-66919809D01*
X159488717Y-67018142D01*
X159479992Y-67023636D01*
X159309687Y-67151505D01*
X159301980Y-67158348D01*
X159154844Y-67312317D01*
X159148363Y-67320322D01*
X159043752Y-67473674D01*
X158988841Y-67518676D01*
X158918316Y-67526847D01*
X158854569Y-67495593D01*
X158833872Y-67471109D01*
X158753076Y-67346217D01*
X158753074Y-67346214D01*
X158750268Y-67341877D01*
X158599924Y-67176651D01*
X158595873Y-67173452D01*
X158595869Y-67173448D01*
X158428668Y-67041400D01*
X158428664Y-67041398D01*
X158424613Y-67038198D01*
X158388282Y-67018142D01*
X158304903Y-66972115D01*
X158229043Y-66930238D01*
X158224174Y-66928514D01*
X158224170Y-66928512D01*
X158023341Y-66857395D01*
X158023337Y-66857394D01*
X158018466Y-66855669D01*
X158013373Y-66854762D01*
X158013370Y-66854761D01*
X157803627Y-66817400D01*
X157803621Y-66817399D01*
X157798538Y-66816494D01*
X157724706Y-66815592D01*
X157580335Y-66813828D01*
X157580333Y-66813828D01*
X157575165Y-66813765D01*
X157354345Y-66847555D01*
X157142010Y-66916957D01*
X156943861Y-67020107D01*
X156939728Y-67023210D01*
X156939725Y-67023212D01*
X156769354Y-67151130D01*
X156765219Y-67154235D01*
X156746859Y-67173448D01*
X156653983Y-67270637D01*
X156610883Y-67315738D01*
X156503455Y-67473221D01*
X156448547Y-67518221D01*
X156378022Y-67526392D01*
X156314275Y-67495138D01*
X156293578Y-67470654D01*
X156213076Y-67346217D01*
X156213074Y-67346214D01*
X156210268Y-67341877D01*
X156059924Y-67176651D01*
X156055873Y-67173452D01*
X156055869Y-67173448D01*
X155888668Y-67041400D01*
X155888664Y-67041398D01*
X155884613Y-67038198D01*
X155848282Y-67018142D01*
X155764903Y-66972115D01*
X155689043Y-66930238D01*
X155684174Y-66928514D01*
X155684170Y-66928512D01*
X155483341Y-66857395D01*
X155483337Y-66857394D01*
X155478466Y-66855669D01*
X155473373Y-66854762D01*
X155473370Y-66854761D01*
X155263627Y-66817400D01*
X155263621Y-66817399D01*
X155258538Y-66816494D01*
X155184706Y-66815592D01*
X155040335Y-66813828D01*
X155040333Y-66813828D01*
X155035165Y-66813765D01*
X154814345Y-66847555D01*
X154602010Y-66916957D01*
X154403861Y-67020107D01*
X154399728Y-67023210D01*
X154399725Y-67023212D01*
X154229354Y-67151130D01*
X154225219Y-67154235D01*
X154206859Y-67173448D01*
X154113983Y-67270637D01*
X154070883Y-67315738D01*
X153963455Y-67473221D01*
X153908547Y-67518221D01*
X153838022Y-67526392D01*
X153774275Y-67495138D01*
X153753578Y-67470654D01*
X153673076Y-67346217D01*
X153673074Y-67346214D01*
X153670268Y-67341877D01*
X153519924Y-67176651D01*
X153515873Y-67173452D01*
X153515869Y-67173448D01*
X153348668Y-67041400D01*
X153348664Y-67041398D01*
X153344613Y-67038198D01*
X153308282Y-67018142D01*
X153224903Y-66972115D01*
X153149043Y-66930238D01*
X153144174Y-66928514D01*
X153144170Y-66928512D01*
X152943341Y-66857395D01*
X152943337Y-66857394D01*
X152938466Y-66855669D01*
X152933373Y-66854762D01*
X152933370Y-66854761D01*
X152723627Y-66817400D01*
X152723621Y-66817399D01*
X152718538Y-66816494D01*
X152644706Y-66815592D01*
X152500335Y-66813828D01*
X152500333Y-66813828D01*
X152495165Y-66813765D01*
X152274345Y-66847555D01*
X152062010Y-66916957D01*
X151863861Y-67020107D01*
X151859728Y-67023210D01*
X151859725Y-67023212D01*
X151689354Y-67151130D01*
X151685219Y-67154235D01*
X151666859Y-67173448D01*
X151573983Y-67270637D01*
X151530883Y-67315738D01*
X151423455Y-67473221D01*
X151368547Y-67518221D01*
X151298022Y-67526392D01*
X151234275Y-67495138D01*
X151213578Y-67470654D01*
X151133076Y-67346217D01*
X151133074Y-67346214D01*
X151130268Y-67341877D01*
X150979924Y-67176651D01*
X150975873Y-67173452D01*
X150975869Y-67173448D01*
X150808668Y-67041400D01*
X150808664Y-67041398D01*
X150804613Y-67038198D01*
X150768282Y-67018142D01*
X150684903Y-66972115D01*
X150609043Y-66930238D01*
X150604174Y-66928514D01*
X150604170Y-66928512D01*
X150403341Y-66857395D01*
X150403337Y-66857394D01*
X150398466Y-66855669D01*
X150393373Y-66854762D01*
X150393370Y-66854761D01*
X150183627Y-66817400D01*
X150183621Y-66817399D01*
X150178538Y-66816494D01*
X150104706Y-66815592D01*
X149960335Y-66813828D01*
X149960333Y-66813828D01*
X149955165Y-66813765D01*
X149734345Y-66847555D01*
X149522010Y-66916957D01*
X149323861Y-67020107D01*
X149319728Y-67023210D01*
X149319725Y-67023212D01*
X149149354Y-67151130D01*
X149145219Y-67154235D01*
X149126859Y-67173448D01*
X149033983Y-67270637D01*
X148990883Y-67315738D01*
X148883455Y-67473221D01*
X148828547Y-67518221D01*
X148758022Y-67526392D01*
X148694275Y-67495138D01*
X148673578Y-67470654D01*
X148593076Y-67346217D01*
X148593074Y-67346214D01*
X148590268Y-67341877D01*
X148439924Y-67176651D01*
X148435873Y-67173452D01*
X148435869Y-67173448D01*
X148268668Y-67041400D01*
X148268664Y-67041398D01*
X148264613Y-67038198D01*
X148228282Y-67018142D01*
X148144903Y-66972115D01*
X148069043Y-66930238D01*
X148064174Y-66928514D01*
X148064170Y-66928512D01*
X147863341Y-66857395D01*
X147863337Y-66857394D01*
X147858466Y-66855669D01*
X147853373Y-66854762D01*
X147853370Y-66854761D01*
X147643627Y-66817400D01*
X147643621Y-66817399D01*
X147638538Y-66816494D01*
X147564706Y-66815592D01*
X147420335Y-66813828D01*
X147420333Y-66813828D01*
X147415165Y-66813765D01*
X147194345Y-66847555D01*
X146982010Y-66916957D01*
X146783861Y-67020107D01*
X146779728Y-67023210D01*
X146779725Y-67023212D01*
X146609354Y-67151130D01*
X146605219Y-67154235D01*
X146586859Y-67173448D01*
X146493983Y-67270637D01*
X146450883Y-67315738D01*
X146343455Y-67473221D01*
X146288547Y-67518221D01*
X146218022Y-67526392D01*
X146154275Y-67495138D01*
X146133578Y-67470654D01*
X146053076Y-67346217D01*
X146053074Y-67346214D01*
X146050268Y-67341877D01*
X145899924Y-67176651D01*
X145895873Y-67173452D01*
X145895869Y-67173448D01*
X145728668Y-67041400D01*
X145728664Y-67041398D01*
X145724613Y-67038198D01*
X145688282Y-67018142D01*
X145604903Y-66972115D01*
X145529043Y-66930238D01*
X145524174Y-66928514D01*
X145524170Y-66928512D01*
X145323341Y-66857395D01*
X145323337Y-66857394D01*
X145318466Y-66855669D01*
X145313373Y-66854762D01*
X145313370Y-66854761D01*
X145103627Y-66817400D01*
X145103621Y-66817399D01*
X145098538Y-66816494D01*
X145024706Y-66815592D01*
X144880335Y-66813828D01*
X144880333Y-66813828D01*
X144875165Y-66813765D01*
X144654345Y-66847555D01*
X144442010Y-66916957D01*
X144243861Y-67020107D01*
X144239728Y-67023210D01*
X144239725Y-67023212D01*
X144069354Y-67151130D01*
X144065219Y-67154235D01*
X144046859Y-67173448D01*
X143953983Y-67270637D01*
X143910883Y-67315738D01*
X143803455Y-67473221D01*
X143748547Y-67518221D01*
X143678022Y-67526392D01*
X143614275Y-67495138D01*
X143593578Y-67470654D01*
X143513076Y-67346217D01*
X143513074Y-67346214D01*
X143510268Y-67341877D01*
X143359924Y-67176651D01*
X143355873Y-67173452D01*
X143355869Y-67173448D01*
X143188668Y-67041400D01*
X143188664Y-67041398D01*
X143184613Y-67038198D01*
X143148282Y-67018142D01*
X143064903Y-66972115D01*
X142989043Y-66930238D01*
X142984174Y-66928514D01*
X142984170Y-66928512D01*
X142783341Y-66857395D01*
X142783337Y-66857394D01*
X142778466Y-66855669D01*
X142773373Y-66854762D01*
X142773370Y-66854761D01*
X142563627Y-66817400D01*
X142563621Y-66817399D01*
X142558538Y-66816494D01*
X142484706Y-66815592D01*
X142340335Y-66813828D01*
X142340333Y-66813828D01*
X142335165Y-66813765D01*
X142114345Y-66847555D01*
X141902010Y-66916957D01*
X141703861Y-67020107D01*
X141699728Y-67023210D01*
X141699725Y-67023212D01*
X141529354Y-67151130D01*
X141525219Y-67154235D01*
X141506859Y-67173448D01*
X141413983Y-67270637D01*
X141370883Y-67315738D01*
X141263455Y-67473221D01*
X141208547Y-67518221D01*
X141138022Y-67526392D01*
X141074275Y-67495138D01*
X141053578Y-67470654D01*
X140973076Y-67346217D01*
X140973074Y-67346214D01*
X140970268Y-67341877D01*
X140819924Y-67176651D01*
X140815873Y-67173452D01*
X140815869Y-67173448D01*
X140648668Y-67041400D01*
X140648664Y-67041398D01*
X140644613Y-67038198D01*
X140608282Y-67018142D01*
X140524903Y-66972115D01*
X140449043Y-66930238D01*
X140444174Y-66928514D01*
X140444170Y-66928512D01*
X140243341Y-66857395D01*
X140243337Y-66857394D01*
X140238466Y-66855669D01*
X140233373Y-66854762D01*
X140233370Y-66854761D01*
X140023627Y-66817400D01*
X140023621Y-66817399D01*
X140018538Y-66816494D01*
X139944706Y-66815592D01*
X139800335Y-66813828D01*
X139800333Y-66813828D01*
X139795165Y-66813765D01*
X139574345Y-66847555D01*
X139362010Y-66916957D01*
X139163861Y-67020107D01*
X139159728Y-67023210D01*
X139159725Y-67023212D01*
X138989354Y-67151130D01*
X138985219Y-67154235D01*
X138912942Y-67229869D01*
X138904537Y-67238664D01*
X138843013Y-67274094D01*
X138772100Y-67270637D01*
X138714314Y-67229391D01*
X138695461Y-67195843D01*
X138654021Y-67085303D01*
X138650869Y-67076895D01*
X138563515Y-66960339D01*
X138446959Y-66872985D01*
X138310570Y-66821855D01*
X138248388Y-66815100D01*
X136452120Y-66815100D01*
X136389938Y-66821855D01*
X136253549Y-66872985D01*
X136136993Y-66960339D01*
X136049639Y-67076895D01*
X135998509Y-67213284D01*
X135991754Y-67275466D01*
X135991754Y-69071734D01*
X133072736Y-69071734D01*
X133017120Y-68732105D01*
X132921351Y-68386773D01*
X132918297Y-68379097D01*
X132790106Y-68056969D01*
X132788847Y-68053805D01*
X132716266Y-67916724D01*
X132622756Y-67740113D01*
X132622752Y-67740106D01*
X132621157Y-67737094D01*
X132420244Y-67440346D01*
X132188457Y-67167032D01*
X131928508Y-66920350D01*
X131643438Y-66703185D01*
X131640526Y-66701428D01*
X131640521Y-66701425D01*
X131339497Y-66519836D01*
X131339491Y-66519833D01*
X131336582Y-66518078D01*
X131011529Y-66367193D01*
X130841806Y-66309745D01*
X130675309Y-66253389D01*
X130675304Y-66253388D01*
X130672082Y-66252297D01*
X130473735Y-66208324D01*
X130325547Y-66175471D01*
X130325541Y-66175470D01*
X130322212Y-66174732D01*
X130318823Y-66174358D01*
X130318818Y-66174357D01*
X129969392Y-66135780D01*
X129969387Y-66135780D01*
X129966011Y-66135407D01*
X129962612Y-66135401D01*
X129962611Y-66135401D01*
X129793134Y-66135105D01*
X129607646Y-66134782D01*
X129494467Y-66146877D01*
X129254693Y-66172501D01*
X129254685Y-66172502D01*
X129251310Y-66172863D01*
X128901171Y-66249206D01*
X128561325Y-66362917D01*
X128558232Y-66364339D01*
X128558231Y-66364340D01*
X128554031Y-66366272D01*
X128235748Y-66512666D01*
X128232814Y-66514422D01*
X128232812Y-66514423D01*
X127997883Y-66655025D01*
X127928247Y-66696701D01*
X127925521Y-66698763D01*
X127925519Y-66698764D01*
X127688037Y-66878371D01*
X127642421Y-66912870D01*
X127639936Y-66915212D01*
X127639931Y-66915216D01*
X127593281Y-66959177D01*
X127381613Y-67158643D01*
X127148873Y-67431146D01*
X127146954Y-67433958D01*
X127146951Y-67433963D01*
X127089164Y-67518676D01*
X126946925Y-67727191D01*
X126778131Y-68043314D01*
X126644465Y-68375818D01*
X126643545Y-68379092D01*
X126643543Y-68379097D01*
X126618973Y-68466510D01*
X126547491Y-68720813D01*
X126488344Y-69074263D01*
X126467715Y-69432034D01*
X125070100Y-69432034D01*
X125070100Y-67321506D01*
X125071600Y-67302122D01*
X125073910Y-67287288D01*
X125073910Y-67287285D01*
X125075291Y-67278415D01*
X125072938Y-67260421D01*
X125072072Y-67237021D01*
X125075461Y-67176651D01*
X125086945Y-66972108D01*
X125088525Y-66958082D01*
X125137673Y-66668800D01*
X125140817Y-66655025D01*
X125222043Y-66373069D01*
X125226710Y-66359732D01*
X125246259Y-66312535D01*
X125338996Y-66088643D01*
X125345118Y-66075929D01*
X125487056Y-65819106D01*
X125494571Y-65807145D01*
X125664364Y-65567840D01*
X125673170Y-65556799D01*
X125868691Y-65338007D01*
X125878682Y-65328016D01*
X126097465Y-65132497D01*
X126108512Y-65123687D01*
X126347810Y-64953894D01*
X126359774Y-64946376D01*
X126616584Y-64804440D01*
X126629315Y-64798309D01*
X126900403Y-64686020D01*
X126913739Y-64681354D01*
X127195680Y-64600127D01*
X127209456Y-64596982D01*
X127348615Y-64573338D01*
X127498741Y-64547830D01*
X127512773Y-64546249D01*
X127614512Y-64540536D01*
X127770174Y-64531794D01*
X127796620Y-64533096D01*
X127797644Y-64533255D01*
X127797649Y-64533255D01*
X127806524Y-64534637D01*
X127838195Y-64530495D01*
X127854478Y-64529432D01*
X169558957Y-64516516D01*
X169578378Y-64518016D01*
G37*
%TD.AperFunction*%
%TD*%
M02*
