%TF.GenerationSoftware,KiCad,Pcbnew,(6.0.5-0)*%
%TF.CreationDate,2022-07-20T14:51:46+02:00*%
%TF.ProjectId,bus driver,62757320-6472-4697-9665-722e6b696361,rev?*%
%TF.SameCoordinates,Original*%
%TF.FileFunction,Legend,Bot*%
%TF.FilePolarity,Positive*%
%FSLAX46Y46*%
G04 Gerber Fmt 4.6, Leading zero omitted, Abs format (unit mm)*
G04 Created by KiCad (PCBNEW (6.0.5-0)) date 2022-07-20 14:51:46*
%MOMM*%
%LPD*%
G01*
G04 APERTURE LIST*
%ADD10C,0.150000*%
G04 APERTURE END LIST*
D10*
X166272914Y-80783757D02*
X166939580Y-81021852D01*
X166272914Y-81259947D01*
X166939580Y-82164709D02*
X166939580Y-81593280D01*
X166939580Y-81878995D02*
X165939580Y-81878995D01*
X166082438Y-81783757D01*
X166177676Y-81688519D01*
X166225295Y-81593280D01*
X166844342Y-82593280D02*
X166891961Y-82640900D01*
X166939580Y-82593280D01*
X166891961Y-82545661D01*
X166844342Y-82593280D01*
X166939580Y-82593280D01*
X165939580Y-83259947D02*
X165939580Y-83355185D01*
X165987200Y-83450423D01*
X166034819Y-83498042D01*
X166130057Y-83545661D01*
X166320533Y-83593280D01*
X166558628Y-83593280D01*
X166749104Y-83545661D01*
X166844342Y-83498042D01*
X166891961Y-83450423D01*
X166939580Y-83355185D01*
X166939580Y-83259947D01*
X166891961Y-83164709D01*
X166844342Y-83117090D01*
X166749104Y-83069471D01*
X166558628Y-83021852D01*
X166320533Y-83021852D01*
X166130057Y-83069471D01*
X166034819Y-83117090D01*
X165987200Y-83164709D01*
X165939580Y-83259947D01*
X168549580Y-80878995D02*
X167549580Y-80878995D01*
X167930533Y-80878995D02*
X167882914Y-80974233D01*
X167882914Y-81164709D01*
X167930533Y-81259947D01*
X167978152Y-81307566D01*
X168073390Y-81355185D01*
X168359104Y-81355185D01*
X168454342Y-81307566D01*
X168501961Y-81259947D01*
X168549580Y-81164709D01*
X168549580Y-80974233D01*
X168501961Y-80878995D01*
X167882914Y-81688519D02*
X168549580Y-81926614D01*
X167882914Y-82164709D02*
X168549580Y-81926614D01*
X168787676Y-81831376D01*
X168835295Y-81783757D01*
X168882914Y-81688519D01*
X168549580Y-83307566D02*
X167549580Y-83307566D01*
X168549580Y-83878995D01*
X167549580Y-83878995D01*
X168549580Y-84783757D02*
X168025771Y-84783757D01*
X167930533Y-84736138D01*
X167882914Y-84640900D01*
X167882914Y-84450423D01*
X167930533Y-84355185D01*
X168501961Y-84783757D02*
X168549580Y-84688519D01*
X168549580Y-84450423D01*
X168501961Y-84355185D01*
X168406723Y-84307566D01*
X168311485Y-84307566D01*
X168216247Y-84355185D01*
X168168628Y-84450423D01*
X168168628Y-84688519D01*
X168121009Y-84783757D01*
X167882914Y-85117090D02*
X167882914Y-85498042D01*
X167549580Y-85259947D02*
X168406723Y-85259947D01*
X168501961Y-85307566D01*
X168549580Y-85402804D01*
X168549580Y-85498042D01*
X168501961Y-86212328D02*
X168549580Y-86117090D01*
X168549580Y-85926614D01*
X168501961Y-85831376D01*
X168406723Y-85783757D01*
X168025771Y-85783757D01*
X167930533Y-85831376D01*
X167882914Y-85926614D01*
X167882914Y-86117090D01*
X167930533Y-86212328D01*
X168025771Y-86259947D01*
X168121009Y-86259947D01*
X168216247Y-85783757D01*
X168549580Y-88021852D02*
X168073390Y-87688519D01*
X168549580Y-87450423D02*
X167549580Y-87450423D01*
X167549580Y-87831376D01*
X167597200Y-87926614D01*
X167644819Y-87974233D01*
X167740057Y-88021852D01*
X167882914Y-88021852D01*
X167978152Y-87974233D01*
X168025771Y-87926614D01*
X168073390Y-87831376D01*
X168073390Y-87450423D01*
X168549580Y-88450423D02*
X167882914Y-88450423D01*
X167549580Y-88450423D02*
X167597200Y-88402804D01*
X167644819Y-88450423D01*
X167597200Y-88498042D01*
X167549580Y-88450423D01*
X167644819Y-88450423D01*
X167882914Y-88831376D02*
X168549580Y-89069471D01*
X167882914Y-89307566D01*
X168549580Y-90117090D02*
X168025771Y-90117090D01*
X167930533Y-90069471D01*
X167882914Y-89974233D01*
X167882914Y-89783757D01*
X167930533Y-89688519D01*
X168501961Y-90117090D02*
X168549580Y-90021852D01*
X168549580Y-89783757D01*
X168501961Y-89688519D01*
X168406723Y-89640900D01*
X168311485Y-89640900D01*
X168216247Y-89688519D01*
X168168628Y-89783757D01*
X168168628Y-90021852D01*
X168121009Y-90117090D01*
X168549580Y-90593280D02*
X167882914Y-90593280D01*
X168073390Y-90593280D02*
X167978152Y-90640900D01*
X167930533Y-90688519D01*
X167882914Y-90783757D01*
X167882914Y-90878995D01*
X168549580Y-91640900D02*
X167549580Y-91640900D01*
X168501961Y-91640900D02*
X168549580Y-91545661D01*
X168549580Y-91355185D01*
X168501961Y-91259947D01*
X168454342Y-91212328D01*
X168359104Y-91164709D01*
X168073390Y-91164709D01*
X167978152Y-91212328D01*
X167930533Y-91259947D01*
X167882914Y-91355185D01*
X167882914Y-91545661D01*
X167930533Y-91640900D01*
X169159580Y-81164709D02*
X169873866Y-81164709D01*
X170016723Y-81117090D01*
X170111961Y-81021852D01*
X170159580Y-80878995D01*
X170159580Y-80783757D01*
X169492914Y-82069471D02*
X170159580Y-82069471D01*
X169492914Y-81640900D02*
X170016723Y-81640900D01*
X170111961Y-81688519D01*
X170159580Y-81783757D01*
X170159580Y-81926614D01*
X170111961Y-82021852D01*
X170064342Y-82069471D01*
X170159580Y-82688519D02*
X170111961Y-82593280D01*
X170016723Y-82545661D01*
X169159580Y-82545661D01*
X169492914Y-82974233D02*
X170159580Y-83212328D01*
X169492914Y-83450423D02*
X170159580Y-83212328D01*
X170397676Y-83117090D01*
X170445295Y-83069471D01*
X170492914Y-82974233D01*
X169254819Y-84545661D02*
X169207200Y-84593280D01*
X169159580Y-84688519D01*
X169159580Y-84926614D01*
X169207200Y-85021852D01*
X169254819Y-85069471D01*
X169350057Y-85117090D01*
X169445295Y-85117090D01*
X169588152Y-85069471D01*
X170159580Y-84498042D01*
X170159580Y-85117090D01*
X169159580Y-85736138D02*
X169159580Y-85831376D01*
X169207200Y-85926614D01*
X169254819Y-85974233D01*
X169350057Y-86021852D01*
X169540533Y-86069471D01*
X169778628Y-86069471D01*
X169969104Y-86021852D01*
X170064342Y-85974233D01*
X170111961Y-85926614D01*
X170159580Y-85831376D01*
X170159580Y-85736138D01*
X170111961Y-85640900D01*
X170064342Y-85593280D01*
X169969104Y-85545661D01*
X169778628Y-85498042D01*
X169540533Y-85498042D01*
X169350057Y-85545661D01*
X169254819Y-85593280D01*
X169207200Y-85640900D01*
X169159580Y-85736138D01*
X169254819Y-86450423D02*
X169207200Y-86498042D01*
X169159580Y-86593280D01*
X169159580Y-86831376D01*
X169207200Y-86926614D01*
X169254819Y-86974233D01*
X169350057Y-87021852D01*
X169445295Y-87021852D01*
X169588152Y-86974233D01*
X170159580Y-86402804D01*
X170159580Y-87021852D01*
X169254819Y-87402804D02*
X169207200Y-87450423D01*
X169159580Y-87545661D01*
X169159580Y-87783757D01*
X169207200Y-87878995D01*
X169254819Y-87926614D01*
X169350057Y-87974233D01*
X169445295Y-87974233D01*
X169588152Y-87926614D01*
X170159580Y-87355185D01*
X170159580Y-87974233D01*
M02*
