%TF.GenerationSoftware,KiCad,Pcbnew,(6.0.5-0)*%
%TF.CreationDate,2022-07-20T14:51:46+02:00*%
%TF.ProjectId,bus driver,62757320-6472-4697-9665-722e6b696361,rev?*%
%TF.SameCoordinates,Original*%
%TF.FileFunction,Legend,Top*%
%TF.FilePolarity,Positive*%
%FSLAX46Y46*%
G04 Gerber Fmt 4.6, Leading zero omitted, Abs format (unit mm)*
G04 Created by KiCad (PCBNEW (6.0.5-0)) date 2022-07-20 14:51:46*
%MOMM*%
%LPD*%
G01*
G04 APERTURE LIST*
%ADD10C,0.150000*%
%ADD11C,0.400000*%
%ADD12C,0.120000*%
G04 APERTURE END LIST*
D10*
X144809152Y-81900780D02*
X144809152Y-82615066D01*
X144761533Y-82757923D01*
X144666295Y-82853161D01*
X144523438Y-82900780D01*
X144428200Y-82900780D01*
X145761533Y-82900780D02*
X145285342Y-82900780D01*
X145285342Y-81900780D01*
X146666295Y-82805542D02*
X146618676Y-82853161D01*
X146475819Y-82900780D01*
X146380580Y-82900780D01*
X146237723Y-82853161D01*
X146142485Y-82757923D01*
X146094866Y-82662685D01*
X146047247Y-82472209D01*
X146047247Y-82329352D01*
X146094866Y-82138876D01*
X146142485Y-82043638D01*
X146237723Y-81948400D01*
X146380580Y-81900780D01*
X146475819Y-81900780D01*
X146618676Y-81948400D01*
X146666295Y-81996019D01*
X147380580Y-81900780D02*
X147380580Y-82615066D01*
X147332961Y-82757923D01*
X147237723Y-82853161D01*
X147094866Y-82900780D01*
X146999628Y-82900780D01*
X148332961Y-82900780D02*
X147856771Y-82900780D01*
X147856771Y-81900780D01*
X149237723Y-82805542D02*
X149190104Y-82853161D01*
X149047247Y-82900780D01*
X148952009Y-82900780D01*
X148809152Y-82853161D01*
X148713914Y-82757923D01*
X148666295Y-82662685D01*
X148618676Y-82472209D01*
X148618676Y-82329352D01*
X148666295Y-82138876D01*
X148713914Y-82043638D01*
X148809152Y-81948400D01*
X148952009Y-81900780D01*
X149047247Y-81900780D01*
X149190104Y-81948400D01*
X149237723Y-81996019D01*
X149952009Y-81900780D02*
X149952009Y-82615066D01*
X149904390Y-82757923D01*
X149809152Y-82853161D01*
X149666295Y-82900780D01*
X149571057Y-82900780D01*
X150904390Y-82900780D02*
X150428200Y-82900780D01*
X150428200Y-81900780D01*
X151809152Y-82805542D02*
X151761533Y-82853161D01*
X151618676Y-82900780D01*
X151523438Y-82900780D01*
X151380580Y-82853161D01*
X151285342Y-82757923D01*
X151237723Y-82662685D01*
X151190104Y-82472209D01*
X151190104Y-82329352D01*
X151237723Y-82138876D01*
X151285342Y-82043638D01*
X151380580Y-81948400D01*
X151523438Y-81900780D01*
X151618676Y-81900780D01*
X151761533Y-81948400D01*
X151809152Y-81996019D01*
X152523438Y-81900780D02*
X152523438Y-82615066D01*
X152475819Y-82757923D01*
X152380580Y-82853161D01*
X152237723Y-82900780D01*
X152142485Y-82900780D01*
X153475819Y-82900780D02*
X152999628Y-82900780D01*
X152999628Y-81900780D01*
X154380580Y-82805542D02*
X154332961Y-82853161D01*
X154190104Y-82900780D01*
X154094866Y-82900780D01*
X153952009Y-82853161D01*
X153856771Y-82757923D01*
X153809152Y-82662685D01*
X153761533Y-82472209D01*
X153761533Y-82329352D01*
X153809152Y-82138876D01*
X153856771Y-82043638D01*
X153952009Y-81948400D01*
X154094866Y-81900780D01*
X154190104Y-81900780D01*
X154332961Y-81948400D01*
X154380580Y-81996019D01*
X135658139Y-65552628D02*
X136420044Y-65552628D01*
X136039092Y-65933580D02*
X136039092Y-65171676D01*
X137372425Y-64933580D02*
X136896234Y-64933580D01*
X136848615Y-65409771D01*
X136896234Y-65362152D01*
X136991473Y-65314533D01*
X137229568Y-65314533D01*
X137324806Y-65362152D01*
X137372425Y-65409771D01*
X137420044Y-65505009D01*
X137420044Y-65743104D01*
X137372425Y-65838342D01*
X137324806Y-65885961D01*
X137229568Y-65933580D01*
X136991473Y-65933580D01*
X136896234Y-65885961D01*
X136848615Y-65838342D01*
X137705758Y-64933580D02*
X138039092Y-65933580D01*
X138372425Y-64933580D01*
X146708904Y-128823980D02*
X146708904Y-127823980D01*
X146947000Y-127823980D01*
X147089857Y-127871600D01*
X147185095Y-127966838D01*
X147232714Y-128062076D01*
X147280333Y-128252552D01*
X147280333Y-128395409D01*
X147232714Y-128585885D01*
X147185095Y-128681123D01*
X147089857Y-128776361D01*
X146947000Y-128823980D01*
X146708904Y-128823980D01*
X148137476Y-128157314D02*
X148137476Y-128823980D01*
X147899380Y-127776361D02*
X147661285Y-128490647D01*
X148280333Y-128490647D01*
X144168904Y-128823980D02*
X144168904Y-127823980D01*
X144407000Y-127823980D01*
X144549857Y-127871600D01*
X144645095Y-127966838D01*
X144692714Y-128062076D01*
X144740333Y-128252552D01*
X144740333Y-128395409D01*
X144692714Y-128585885D01*
X144645095Y-128681123D01*
X144549857Y-128776361D01*
X144407000Y-128823980D01*
X144168904Y-128823980D01*
X145645095Y-127823980D02*
X145168904Y-127823980D01*
X145121285Y-128300171D01*
X145168904Y-128252552D01*
X145264142Y-128204933D01*
X145502238Y-128204933D01*
X145597476Y-128252552D01*
X145645095Y-128300171D01*
X145692714Y-128395409D01*
X145692714Y-128633504D01*
X145645095Y-128728742D01*
X145597476Y-128776361D01*
X145502238Y-128823980D01*
X145264142Y-128823980D01*
X145168904Y-128776361D01*
X145121285Y-128728742D01*
X139152158Y-65933580D02*
X139152158Y-64933580D01*
X139390254Y-64933580D01*
X139533111Y-64981200D01*
X139628349Y-65076438D01*
X139675968Y-65171676D01*
X139723587Y-65362152D01*
X139723587Y-65505009D01*
X139675968Y-65695485D01*
X139628349Y-65790723D01*
X139533111Y-65885961D01*
X139390254Y-65933580D01*
X139152158Y-65933580D01*
X140056920Y-64933580D02*
X140723587Y-64933580D01*
X140295015Y-65933580D01*
X151788904Y-128823980D02*
X151788904Y-127823980D01*
X152027000Y-127823980D01*
X152169857Y-127871600D01*
X152265095Y-127966838D01*
X152312714Y-128062076D01*
X152360333Y-128252552D01*
X152360333Y-128395409D01*
X152312714Y-128585885D01*
X152265095Y-128681123D01*
X152169857Y-128776361D01*
X152027000Y-128823980D01*
X151788904Y-128823980D01*
X152741285Y-127919219D02*
X152788904Y-127871600D01*
X152884142Y-127823980D01*
X153122238Y-127823980D01*
X153217476Y-127871600D01*
X153265095Y-127919219D01*
X153312714Y-128014457D01*
X153312714Y-128109695D01*
X153265095Y-128252552D01*
X152693666Y-128823980D01*
X153312714Y-128823980D01*
X170230673Y-117359180D02*
X170421149Y-117359180D01*
X170516387Y-117406800D01*
X170611625Y-117502038D01*
X170659244Y-117692514D01*
X170659244Y-118025847D01*
X170611625Y-118216323D01*
X170516387Y-118311561D01*
X170421149Y-118359180D01*
X170230673Y-118359180D01*
X170135434Y-118311561D01*
X170040196Y-118216323D01*
X169992577Y-118025847D01*
X169992577Y-117692514D01*
X170040196Y-117502038D01*
X170135434Y-117406800D01*
X170230673Y-117359180D01*
X171421149Y-117835371D02*
X171087815Y-117835371D01*
X171087815Y-118359180D02*
X171087815Y-117359180D01*
X171564006Y-117359180D01*
X172278292Y-117835371D02*
X171944958Y-117835371D01*
X171944958Y-118359180D02*
X171944958Y-117359180D01*
X172421149Y-117359180D01*
X154328904Y-128823980D02*
X154328904Y-127823980D01*
X154567000Y-127823980D01*
X154709857Y-127871600D01*
X154805095Y-127966838D01*
X154852714Y-128062076D01*
X154900333Y-128252552D01*
X154900333Y-128395409D01*
X154852714Y-128585885D01*
X154805095Y-128681123D01*
X154709857Y-128776361D01*
X154567000Y-128823980D01*
X154328904Y-128823980D01*
X155852714Y-128823980D02*
X155281285Y-128823980D01*
X155567000Y-128823980D02*
X155567000Y-127823980D01*
X155471761Y-127966838D01*
X155376523Y-128062076D01*
X155281285Y-128109695D01*
X156932158Y-65933580D02*
X156932158Y-64933580D01*
X157170254Y-64933580D01*
X157313111Y-64981200D01*
X157408349Y-65076438D01*
X157455968Y-65171676D01*
X157503587Y-65362152D01*
X157503587Y-65505009D01*
X157455968Y-65695485D01*
X157408349Y-65790723D01*
X157313111Y-65885961D01*
X157170254Y-65933580D01*
X156932158Y-65933580D01*
X158122634Y-64933580D02*
X158217873Y-64933580D01*
X158313111Y-64981200D01*
X158360730Y-65028819D01*
X158408349Y-65124057D01*
X158455968Y-65314533D01*
X158455968Y-65552628D01*
X158408349Y-65743104D01*
X158360730Y-65838342D01*
X158313111Y-65885961D01*
X158217873Y-65933580D01*
X158122634Y-65933580D01*
X158027396Y-65885961D01*
X157979777Y-65838342D01*
X157932158Y-65743104D01*
X157884539Y-65552628D01*
X157884539Y-65314533D01*
X157932158Y-65124057D01*
X157979777Y-65028819D01*
X158027396Y-64981200D01*
X158122634Y-64933580D01*
X159803949Y-64981200D02*
X159708711Y-64933580D01*
X159565854Y-64933580D01*
X159422996Y-64981200D01*
X159327758Y-65076438D01*
X159280139Y-65171676D01*
X159232520Y-65362152D01*
X159232520Y-65505009D01*
X159280139Y-65695485D01*
X159327758Y-65790723D01*
X159422996Y-65885961D01*
X159565854Y-65933580D01*
X159661092Y-65933580D01*
X159803949Y-65885961D01*
X159851568Y-65838342D01*
X159851568Y-65505009D01*
X159661092Y-65505009D01*
X160280139Y-65933580D02*
X160280139Y-64933580D01*
X160851568Y-65933580D01*
X160851568Y-64933580D01*
X161327758Y-65933580D02*
X161327758Y-64933580D01*
X161565854Y-64933580D01*
X161708711Y-64981200D01*
X161803949Y-65076438D01*
X161851568Y-65171676D01*
X161899187Y-65362152D01*
X161899187Y-65505009D01*
X161851568Y-65695485D01*
X161803949Y-65790723D01*
X161708711Y-65885961D01*
X161565854Y-65933580D01*
X161327758Y-65933580D01*
X149248904Y-128823980D02*
X149248904Y-127823980D01*
X149487000Y-127823980D01*
X149629857Y-127871600D01*
X149725095Y-127966838D01*
X149772714Y-128062076D01*
X149820333Y-128252552D01*
X149820333Y-128395409D01*
X149772714Y-128585885D01*
X149725095Y-128681123D01*
X149629857Y-128776361D01*
X149487000Y-128823980D01*
X149248904Y-128823980D01*
X150153666Y-127823980D02*
X150772714Y-127823980D01*
X150439380Y-128204933D01*
X150582238Y-128204933D01*
X150677476Y-128252552D01*
X150725095Y-128300171D01*
X150772714Y-128395409D01*
X150772714Y-128633504D01*
X150725095Y-128728742D01*
X150677476Y-128776361D01*
X150582238Y-128823980D01*
X150296523Y-128823980D01*
X150201285Y-128776361D01*
X150153666Y-128728742D01*
X163094863Y-114384400D02*
X164142482Y-114384400D01*
X163523434Y-114666780D02*
X163713911Y-114666780D01*
X163809149Y-114714400D01*
X163904387Y-114809638D01*
X163952006Y-115000114D01*
X163952006Y-115333447D01*
X163904387Y-115523923D01*
X163809149Y-115619161D01*
X163713911Y-115666780D01*
X163523434Y-115666780D01*
X163428196Y-115619161D01*
X163332958Y-115523923D01*
X163285339Y-115333447D01*
X163285339Y-115000114D01*
X163332958Y-114809638D01*
X163428196Y-114714400D01*
X163523434Y-114666780D01*
X164142482Y-114384400D02*
X165047244Y-114384400D01*
X164380577Y-115142971D02*
X164713911Y-115142971D01*
X164856768Y-115666780D02*
X164380577Y-115666780D01*
X164380577Y-114666780D01*
X164856768Y-114666780D01*
X156868904Y-128823980D02*
X156868904Y-127823980D01*
X157107000Y-127823980D01*
X157249857Y-127871600D01*
X157345095Y-127966838D01*
X157392714Y-128062076D01*
X157440333Y-128252552D01*
X157440333Y-128395409D01*
X157392714Y-128585885D01*
X157345095Y-128681123D01*
X157249857Y-128776361D01*
X157107000Y-128823980D01*
X156868904Y-128823980D01*
X158059380Y-127823980D02*
X158154619Y-127823980D01*
X158249857Y-127871600D01*
X158297476Y-127919219D01*
X158345095Y-128014457D01*
X158392714Y-128204933D01*
X158392714Y-128443028D01*
X158345095Y-128633504D01*
X158297476Y-128728742D01*
X158249857Y-128776361D01*
X158154619Y-128823980D01*
X158059380Y-128823980D01*
X157964142Y-128776361D01*
X157916523Y-128728742D01*
X157868904Y-128633504D01*
X157821285Y-128443028D01*
X157821285Y-128204933D01*
X157868904Y-128014457D01*
X157916523Y-127919219D01*
X157964142Y-127871600D01*
X158059380Y-127823980D01*
X149312158Y-65933580D02*
X149312158Y-64933580D01*
X149550254Y-64933580D01*
X149693111Y-64981200D01*
X149788349Y-65076438D01*
X149835968Y-65171676D01*
X149883587Y-65362152D01*
X149883587Y-65505009D01*
X149835968Y-65695485D01*
X149788349Y-65790723D01*
X149693111Y-65885961D01*
X149550254Y-65933580D01*
X149312158Y-65933580D01*
X150216920Y-64933580D02*
X150835968Y-64933580D01*
X150502634Y-65314533D01*
X150645492Y-65314533D01*
X150740730Y-65362152D01*
X150788349Y-65409771D01*
X150835968Y-65505009D01*
X150835968Y-65743104D01*
X150788349Y-65838342D01*
X150740730Y-65885961D01*
X150645492Y-65933580D01*
X150359777Y-65933580D01*
X150264539Y-65885961D01*
X150216920Y-65838342D01*
X154392158Y-65933580D02*
X154392158Y-64933580D01*
X154630254Y-64933580D01*
X154773111Y-64981200D01*
X154868349Y-65076438D01*
X154915968Y-65171676D01*
X154963587Y-65362152D01*
X154963587Y-65505009D01*
X154915968Y-65695485D01*
X154868349Y-65790723D01*
X154773111Y-65885961D01*
X154630254Y-65933580D01*
X154392158Y-65933580D01*
X155915968Y-65933580D02*
X155344539Y-65933580D01*
X155630254Y-65933580D02*
X155630254Y-64933580D01*
X155535015Y-65076438D01*
X155439777Y-65171676D01*
X155344539Y-65219295D01*
X141692158Y-65933580D02*
X141692158Y-64933580D01*
X141930254Y-64933580D01*
X142073111Y-64981200D01*
X142168349Y-65076438D01*
X142215968Y-65171676D01*
X142263587Y-65362152D01*
X142263587Y-65505009D01*
X142215968Y-65695485D01*
X142168349Y-65790723D01*
X142073111Y-65885961D01*
X141930254Y-65933580D01*
X141692158Y-65933580D01*
X143120730Y-64933580D02*
X142930254Y-64933580D01*
X142835015Y-64981200D01*
X142787396Y-65028819D01*
X142692158Y-65171676D01*
X142644539Y-65362152D01*
X142644539Y-65743104D01*
X142692158Y-65838342D01*
X142739777Y-65885961D01*
X142835015Y-65933580D01*
X143025492Y-65933580D01*
X143120730Y-65885961D01*
X143168349Y-65838342D01*
X143215968Y-65743104D01*
X143215968Y-65505009D01*
X143168349Y-65409771D01*
X143120730Y-65362152D01*
X143025492Y-65314533D01*
X142835015Y-65314533D01*
X142739777Y-65362152D01*
X142692158Y-65409771D01*
X142644539Y-65505009D01*
X141628904Y-128823980D02*
X141628904Y-127823980D01*
X141867000Y-127823980D01*
X142009857Y-127871600D01*
X142105095Y-127966838D01*
X142152714Y-128062076D01*
X142200333Y-128252552D01*
X142200333Y-128395409D01*
X142152714Y-128585885D01*
X142105095Y-128681123D01*
X142009857Y-128776361D01*
X141867000Y-128823980D01*
X141628904Y-128823980D01*
X143057476Y-127823980D02*
X142867000Y-127823980D01*
X142771761Y-127871600D01*
X142724142Y-127919219D01*
X142628904Y-128062076D01*
X142581285Y-128252552D01*
X142581285Y-128633504D01*
X142628904Y-128728742D01*
X142676523Y-128776361D01*
X142771761Y-128823980D01*
X142962238Y-128823980D01*
X143057476Y-128776361D01*
X143105095Y-128728742D01*
X143152714Y-128633504D01*
X143152714Y-128395409D01*
X143105095Y-128300171D01*
X143057476Y-128252552D01*
X142962238Y-128204933D01*
X142771761Y-128204933D01*
X142676523Y-128252552D01*
X142628904Y-128300171D01*
X142581285Y-128395409D01*
X146772158Y-65933580D02*
X146772158Y-64933580D01*
X147010254Y-64933580D01*
X147153111Y-64981200D01*
X147248349Y-65076438D01*
X147295968Y-65171676D01*
X147343587Y-65362152D01*
X147343587Y-65505009D01*
X147295968Y-65695485D01*
X147248349Y-65790723D01*
X147153111Y-65885961D01*
X147010254Y-65933580D01*
X146772158Y-65933580D01*
X148200730Y-65266914D02*
X148200730Y-65933580D01*
X147962634Y-64885961D02*
X147724539Y-65600247D01*
X148343587Y-65600247D01*
X144232158Y-65933580D02*
X144232158Y-64933580D01*
X144470254Y-64933580D01*
X144613111Y-64981200D01*
X144708349Y-65076438D01*
X144755968Y-65171676D01*
X144803587Y-65362152D01*
X144803587Y-65505009D01*
X144755968Y-65695485D01*
X144708349Y-65790723D01*
X144613111Y-65885961D01*
X144470254Y-65933580D01*
X144232158Y-65933580D01*
X145708349Y-64933580D02*
X145232158Y-64933580D01*
X145184539Y-65409771D01*
X145232158Y-65362152D01*
X145327396Y-65314533D01*
X145565492Y-65314533D01*
X145660730Y-65362152D01*
X145708349Y-65409771D01*
X145755968Y-65505009D01*
X145755968Y-65743104D01*
X145708349Y-65838342D01*
X145660730Y-65885961D01*
X145565492Y-65933580D01*
X145327396Y-65933580D01*
X145232158Y-65885961D01*
X145184539Y-65838342D01*
X139088904Y-128823980D02*
X139088904Y-127823980D01*
X139327000Y-127823980D01*
X139469857Y-127871600D01*
X139565095Y-127966838D01*
X139612714Y-128062076D01*
X139660333Y-128252552D01*
X139660333Y-128395409D01*
X139612714Y-128585885D01*
X139565095Y-128681123D01*
X139469857Y-128776361D01*
X139327000Y-128823980D01*
X139088904Y-128823980D01*
X139993666Y-127823980D02*
X140660333Y-127823980D01*
X140231761Y-128823980D01*
X170513206Y-111974380D02*
X170703682Y-111974380D01*
X170798920Y-112022000D01*
X170894158Y-112117238D01*
X170941777Y-112307714D01*
X170941777Y-112641047D01*
X170894158Y-112831523D01*
X170798920Y-112926761D01*
X170703682Y-112974380D01*
X170513206Y-112974380D01*
X170417968Y-112926761D01*
X170322730Y-112831523D01*
X170275111Y-112641047D01*
X170275111Y-112307714D01*
X170322730Y-112117238D01*
X170417968Y-112022000D01*
X170513206Y-111974380D01*
X171370349Y-112974380D02*
X171370349Y-111974380D01*
X171941777Y-112974380D01*
X171941777Y-111974380D01*
X151852158Y-65933580D02*
X151852158Y-64933580D01*
X152090254Y-64933580D01*
X152233111Y-64981200D01*
X152328349Y-65076438D01*
X152375968Y-65171676D01*
X152423587Y-65362152D01*
X152423587Y-65505009D01*
X152375968Y-65695485D01*
X152328349Y-65790723D01*
X152233111Y-65885961D01*
X152090254Y-65933580D01*
X151852158Y-65933580D01*
X152804539Y-65028819D02*
X152852158Y-64981200D01*
X152947396Y-64933580D01*
X153185492Y-64933580D01*
X153280730Y-64981200D01*
X153328349Y-65028819D01*
X153375968Y-65124057D01*
X153375968Y-65219295D01*
X153328349Y-65362152D01*
X152756920Y-65933580D01*
X153375968Y-65933580D01*
D11*
X167547942Y-92671066D02*
X167643180Y-92385352D01*
X167738419Y-92290114D01*
X167928895Y-92194876D01*
X168214609Y-92194876D01*
X168405085Y-92290114D01*
X168500323Y-92385352D01*
X168595561Y-92575828D01*
X168595561Y-93337733D01*
X166595561Y-93337733D01*
X166595561Y-92671066D01*
X166690800Y-92480590D01*
X166786038Y-92385352D01*
X166976514Y-92290114D01*
X167166990Y-92290114D01*
X167357466Y-92385352D01*
X167452704Y-92480590D01*
X167547942Y-92671066D01*
X167547942Y-93337733D01*
X167262228Y-90480590D02*
X168595561Y-90480590D01*
X167262228Y-91337733D02*
X168309847Y-91337733D01*
X168500323Y-91242495D01*
X168595561Y-91052019D01*
X168595561Y-90766304D01*
X168500323Y-90575828D01*
X168405085Y-90480590D01*
X168500323Y-89623447D02*
X168595561Y-89432971D01*
X168595561Y-89052019D01*
X168500323Y-88861542D01*
X168309847Y-88766304D01*
X168214609Y-88766304D01*
X168024133Y-88861542D01*
X167928895Y-89052019D01*
X167928895Y-89337733D01*
X167833657Y-89528209D01*
X167643180Y-89623447D01*
X167547942Y-89623447D01*
X167357466Y-89528209D01*
X167262228Y-89337733D01*
X167262228Y-89052019D01*
X167357466Y-88861542D01*
X168595561Y-86385352D02*
X166595561Y-86385352D01*
X166595561Y-85909161D01*
X166690800Y-85623447D01*
X166881276Y-85432971D01*
X167071752Y-85337733D01*
X167452704Y-85242495D01*
X167738419Y-85242495D01*
X168119371Y-85337733D01*
X168309847Y-85432971D01*
X168500323Y-85623447D01*
X168595561Y-85909161D01*
X168595561Y-86385352D01*
X168595561Y-84385352D02*
X167262228Y-84385352D01*
X167643180Y-84385352D02*
X167452704Y-84290114D01*
X167357466Y-84194876D01*
X167262228Y-84004400D01*
X167262228Y-83813923D01*
X168595561Y-83147257D02*
X167262228Y-83147257D01*
X166595561Y-83147257D02*
X166690800Y-83242495D01*
X166786038Y-83147257D01*
X166690800Y-83052019D01*
X166595561Y-83147257D01*
X166786038Y-83147257D01*
X167262228Y-82385352D02*
X168595561Y-81909161D01*
X167262228Y-81432971D01*
X168500323Y-79909161D02*
X168595561Y-80099638D01*
X168595561Y-80480590D01*
X168500323Y-80671066D01*
X168309847Y-80766304D01*
X167547942Y-80766304D01*
X167357466Y-80671066D01*
X167262228Y-80480590D01*
X167262228Y-80099638D01*
X167357466Y-79909161D01*
X167547942Y-79813923D01*
X167738419Y-79813923D01*
X167928895Y-80766304D01*
X168595561Y-78956780D02*
X167262228Y-78956780D01*
X167643180Y-78956780D02*
X167452704Y-78861542D01*
X167357466Y-78766304D01*
X167262228Y-78575828D01*
X167262228Y-78385352D01*
D10*
%TO.C,C1*%
X130646196Y-106237066D02*
X130693815Y-106284685D01*
X130741434Y-106427542D01*
X130741434Y-106522780D01*
X130693815Y-106665638D01*
X130598577Y-106760876D01*
X130503339Y-106808495D01*
X130312863Y-106856114D01*
X130170006Y-106856114D01*
X129979530Y-106808495D01*
X129884292Y-106760876D01*
X129789054Y-106665638D01*
X129741434Y-106522780D01*
X129741434Y-106427542D01*
X129789054Y-106284685D01*
X129836673Y-106237066D01*
X130741434Y-105284685D02*
X130741434Y-105856114D01*
X130741434Y-105570400D02*
X129741434Y-105570400D01*
X129884292Y-105665638D01*
X129979530Y-105760876D01*
X130027149Y-105856114D01*
%TO.C,C2*%
X130696996Y-94654666D02*
X130744615Y-94702285D01*
X130792234Y-94845142D01*
X130792234Y-94940380D01*
X130744615Y-95083238D01*
X130649377Y-95178476D01*
X130554139Y-95226095D01*
X130363663Y-95273714D01*
X130220806Y-95273714D01*
X130030330Y-95226095D01*
X129935092Y-95178476D01*
X129839854Y-95083238D01*
X129792234Y-94940380D01*
X129792234Y-94845142D01*
X129839854Y-94702285D01*
X129887473Y-94654666D01*
X129887473Y-94273714D02*
X129839854Y-94226095D01*
X129792234Y-94130857D01*
X129792234Y-93892761D01*
X129839854Y-93797523D01*
X129887473Y-93749904D01*
X129982711Y-93702285D01*
X130077949Y-93702285D01*
X130220806Y-93749904D01*
X130792234Y-94321333D01*
X130792234Y-93702285D01*
%TO.C,*%
%TO.C,RN2*%
X148062323Y-71966380D02*
X147728990Y-71490190D01*
X147490895Y-71966380D02*
X147490895Y-70966380D01*
X147871847Y-70966380D01*
X147967085Y-71014000D01*
X148014704Y-71061619D01*
X148062323Y-71156857D01*
X148062323Y-71299714D01*
X148014704Y-71394952D01*
X147967085Y-71442571D01*
X147871847Y-71490190D01*
X147490895Y-71490190D01*
X148490895Y-71966380D02*
X148490895Y-70966380D01*
X149062323Y-71966380D01*
X149062323Y-70966380D01*
X149490895Y-71061619D02*
X149538514Y-71014000D01*
X149633752Y-70966380D01*
X149871847Y-70966380D01*
X149967085Y-71014000D01*
X150014704Y-71061619D01*
X150062323Y-71156857D01*
X150062323Y-71252095D01*
X150014704Y-71394952D01*
X149443276Y-71966380D01*
X150062323Y-71966380D01*
%TO.C,BAR1*%
X134596871Y-87214133D02*
X134644490Y-87071276D01*
X134692109Y-87023657D01*
X134787347Y-86976038D01*
X134930204Y-86976038D01*
X135025442Y-87023657D01*
X135073061Y-87071276D01*
X135120680Y-87166514D01*
X135120680Y-87547466D01*
X134120680Y-87547466D01*
X134120680Y-87214133D01*
X134168300Y-87118895D01*
X134215919Y-87071276D01*
X134311157Y-87023657D01*
X134406395Y-87023657D01*
X134501633Y-87071276D01*
X134549252Y-87118895D01*
X134596871Y-87214133D01*
X134596871Y-87547466D01*
X134834966Y-86595085D02*
X134834966Y-86118895D01*
X135120680Y-86690323D02*
X134120680Y-86356990D01*
X135120680Y-86023657D01*
X135120680Y-85118895D02*
X134644490Y-85452228D01*
X135120680Y-85690323D02*
X134120680Y-85690323D01*
X134120680Y-85309371D01*
X134168300Y-85214133D01*
X134215919Y-85166514D01*
X134311157Y-85118895D01*
X134454014Y-85118895D01*
X134549252Y-85166514D01*
X134596871Y-85214133D01*
X134644490Y-85309371D01*
X134644490Y-85690323D01*
X135120680Y-84166514D02*
X135120680Y-84737942D01*
X135120680Y-84452228D02*
X134120680Y-84452228D01*
X134263538Y-84547466D01*
X134358776Y-84642704D01*
X134406395Y-84737942D01*
%TO.C,SW1*%
X147485266Y-116609761D02*
X147628123Y-116657380D01*
X147866219Y-116657380D01*
X147961457Y-116609761D01*
X148009076Y-116562142D01*
X148056695Y-116466904D01*
X148056695Y-116371666D01*
X148009076Y-116276428D01*
X147961457Y-116228809D01*
X147866219Y-116181190D01*
X147675742Y-116133571D01*
X147580504Y-116085952D01*
X147532885Y-116038333D01*
X147485266Y-115943095D01*
X147485266Y-115847857D01*
X147532885Y-115752619D01*
X147580504Y-115705000D01*
X147675742Y-115657380D01*
X147913838Y-115657380D01*
X148056695Y-115705000D01*
X148390028Y-115657380D02*
X148628123Y-116657380D01*
X148818600Y-115943095D01*
X149009076Y-116657380D01*
X149247171Y-115657380D01*
X150151933Y-116657380D02*
X149580504Y-116657380D01*
X149866219Y-116657380D02*
X149866219Y-115657380D01*
X149770980Y-115800238D01*
X149675742Y-115895476D01*
X149580504Y-115943095D01*
%TO.C,RN1*%
X148041523Y-112110780D02*
X147708190Y-111634590D01*
X147470095Y-112110780D02*
X147470095Y-111110780D01*
X147851047Y-111110780D01*
X147946285Y-111158400D01*
X147993904Y-111206019D01*
X148041523Y-111301257D01*
X148041523Y-111444114D01*
X147993904Y-111539352D01*
X147946285Y-111586971D01*
X147851047Y-111634590D01*
X147470095Y-111634590D01*
X148470095Y-112110780D02*
X148470095Y-111110780D01*
X149041523Y-112110780D01*
X149041523Y-111110780D01*
X150041523Y-112110780D02*
X149470095Y-112110780D01*
X149755809Y-112110780D02*
X149755809Y-111110780D01*
X149660571Y-111253638D01*
X149565333Y-111348876D01*
X149470095Y-111396495D01*
%TO.C,SW2*%
X166344520Y-110560961D02*
X166487377Y-110608580D01*
X166725473Y-110608580D01*
X166820711Y-110560961D01*
X166868330Y-110513342D01*
X166915949Y-110418104D01*
X166915949Y-110322866D01*
X166868330Y-110227628D01*
X166820711Y-110180009D01*
X166725473Y-110132390D01*
X166534996Y-110084771D01*
X166439758Y-110037152D01*
X166392139Y-109989533D01*
X166344520Y-109894295D01*
X166344520Y-109799057D01*
X166392139Y-109703819D01*
X166439758Y-109656200D01*
X166534996Y-109608580D01*
X166773092Y-109608580D01*
X166915949Y-109656200D01*
X167249282Y-109608580D02*
X167487377Y-110608580D01*
X167677854Y-109894295D01*
X167868330Y-110608580D01*
X168106425Y-109608580D01*
X168439758Y-109703819D02*
X168487377Y-109656200D01*
X168582615Y-109608580D01*
X168820711Y-109608580D01*
X168915949Y-109656200D01*
X168963568Y-109703819D01*
X169011187Y-109799057D01*
X169011187Y-109894295D01*
X168963568Y-110037152D01*
X168392139Y-110608580D01*
X169011187Y-110608580D01*
%TO.C,U2*%
X134414380Y-95239904D02*
X135223904Y-95239904D01*
X135319142Y-95192285D01*
X135366761Y-95144666D01*
X135414380Y-95049428D01*
X135414380Y-94858952D01*
X135366761Y-94763714D01*
X135319142Y-94716095D01*
X135223904Y-94668476D01*
X134414380Y-94668476D01*
X134509619Y-94239904D02*
X134462000Y-94192285D01*
X134414380Y-94097047D01*
X134414380Y-93858952D01*
X134462000Y-93763714D01*
X134509619Y-93716095D01*
X134604857Y-93668476D01*
X134700095Y-93668476D01*
X134842952Y-93716095D01*
X135414380Y-94287523D01*
X135414380Y-93668476D01*
%TO.C,R1*%
X165641034Y-103798666D02*
X165164844Y-104132000D01*
X165641034Y-104370095D02*
X164641034Y-104370095D01*
X164641034Y-103989142D01*
X164688654Y-103893904D01*
X164736273Y-103846285D01*
X164831511Y-103798666D01*
X164974368Y-103798666D01*
X165069606Y-103846285D01*
X165117225Y-103893904D01*
X165164844Y-103989142D01*
X165164844Y-104370095D01*
X165641034Y-102846285D02*
X165641034Y-103417714D01*
X165641034Y-103132000D02*
X164641034Y-103132000D01*
X164783892Y-103227238D01*
X164879130Y-103322476D01*
X164926749Y-103417714D01*
%TO.C,*%
%TO.C,J1*%
X134032634Y-68506933D02*
X134746920Y-68506933D01*
X134889777Y-68554552D01*
X134985015Y-68649790D01*
X135032634Y-68792647D01*
X135032634Y-68887885D01*
X135032634Y-67506933D02*
X135032634Y-68078361D01*
X135032634Y-67792647D02*
X134032634Y-67792647D01*
X134175492Y-67887885D01*
X134270730Y-67983123D01*
X134318349Y-68078361D01*
%TO.C,*%
%TO.C,U1*%
X134414380Y-106873104D02*
X135223904Y-106873104D01*
X135319142Y-106825485D01*
X135366761Y-106777866D01*
X135414380Y-106682628D01*
X135414380Y-106492152D01*
X135366761Y-106396914D01*
X135319142Y-106349295D01*
X135223904Y-106301676D01*
X134414380Y-106301676D01*
X135414380Y-105301676D02*
X135414380Y-105873104D01*
X135414380Y-105587390D02*
X134414380Y-105587390D01*
X134557238Y-105682628D01*
X134652476Y-105777866D01*
X134700095Y-105873104D01*
D12*
%TO.C,C1*%
X134097454Y-103501200D02*
X131357454Y-103501200D01*
X131357454Y-103501200D02*
X131357454Y-108741200D01*
X134097454Y-108741200D02*
X131357454Y-108741200D01*
X134097454Y-103501200D02*
X134097454Y-108741200D01*
%TO.C,C2*%
X134148254Y-91868000D02*
X131408254Y-91868000D01*
X134148254Y-97108000D02*
X131408254Y-97108000D01*
X131408254Y-91868000D02*
X131408254Y-97108000D01*
X134148254Y-91868000D02*
X134148254Y-97108000D01*
%TO.C,RN2*%
X159082800Y-72514000D02*
X135882800Y-72514000D01*
X138592800Y-72514000D02*
X138592800Y-75314000D01*
X135882800Y-72514000D02*
X135882800Y-75314000D01*
X159082800Y-75314000D02*
X159082800Y-72514000D01*
X135882800Y-75314000D02*
X159082800Y-75314000D01*
%TO.C,BAR1*%
X135618300Y-88110800D02*
X137318300Y-88110800D01*
X161588300Y-77380800D02*
X161588300Y-87820800D01*
X135618300Y-86410800D02*
X135618300Y-88110800D01*
X161588300Y-87820800D02*
X135908300Y-87820800D01*
X135908300Y-87820800D02*
X135908300Y-77380800D01*
X135908300Y-77380800D02*
X161588300Y-77380800D01*
%TO.C,SW1*%
X144527400Y-124161500D02*
X144527400Y-122808167D01*
X148097400Y-120101500D02*
X146827400Y-120101500D01*
X142107400Y-124161500D02*
X142107400Y-122808167D01*
X158257400Y-124161500D02*
X158257400Y-120101500D01*
X144887400Y-124161500D02*
X144887400Y-122808167D01*
X147787400Y-124161500D02*
X147787400Y-122808167D01*
X147667400Y-124161500D02*
X147667400Y-122808167D01*
X160043400Y-127081500D02*
X160043400Y-117181500D01*
X140477400Y-120101500D02*
X139207400Y-120101500D01*
X137422400Y-127081500D02*
X160043400Y-127081500D01*
X146827400Y-122808167D02*
X148097400Y-122808167D01*
X150637400Y-124161500D02*
X150637400Y-120101500D01*
X158067400Y-124161500D02*
X158067400Y-122808167D01*
X142947400Y-124161500D02*
X142947400Y-122808167D01*
X155717400Y-124161500D02*
X155717400Y-120101500D01*
X139447400Y-124161500D02*
X139447400Y-122808167D01*
X139327400Y-124161500D02*
X139327400Y-122808167D01*
X155167400Y-124161500D02*
X155167400Y-122808167D01*
X156987400Y-122808167D02*
X158257400Y-122808167D01*
X149967400Y-124161500D02*
X149967400Y-122808167D01*
X140477400Y-124161500D02*
X140477400Y-120101500D01*
X139207400Y-122808167D02*
X140477400Y-122808167D01*
X155717400Y-120101500D02*
X154447400Y-120101500D01*
X147547400Y-124161500D02*
X147547400Y-122808167D01*
X157227400Y-124161500D02*
X157227400Y-122808167D01*
X147067400Y-124161500D02*
X147067400Y-122808167D01*
X152267400Y-124161500D02*
X152267400Y-122808167D01*
X140287400Y-124161500D02*
X140287400Y-122808167D01*
X156987400Y-120101500D02*
X156987400Y-124161500D01*
X143017400Y-120101500D02*
X141747400Y-120101500D01*
X152627400Y-124161500D02*
X152627400Y-122808167D01*
X154927400Y-124161500D02*
X154927400Y-122808167D01*
X142587400Y-124161500D02*
X142587400Y-122808167D01*
X156987400Y-124161500D02*
X158257400Y-124161500D01*
X152867400Y-124161500D02*
X152867400Y-122808167D01*
X144287400Y-122808167D02*
X145557400Y-122808167D01*
X137182400Y-127321500D02*
X138565400Y-127321500D01*
X149367400Y-124161500D02*
X150637400Y-124161500D01*
X157827400Y-124161500D02*
X157827400Y-122808167D01*
X149487400Y-124161500D02*
X149487400Y-122808167D01*
X144287400Y-124161500D02*
X145557400Y-124161500D01*
X145247400Y-124161500D02*
X145247400Y-122808167D01*
X145127400Y-124161500D02*
X145127400Y-122808167D01*
X141747400Y-124161500D02*
X143017400Y-124161500D01*
X146947400Y-124161500D02*
X146947400Y-122808167D01*
X152507400Y-124161500D02*
X152507400Y-122808167D01*
X145557400Y-120101500D02*
X144287400Y-120101500D01*
X137182400Y-127321500D02*
X137182400Y-125937500D01*
X154447400Y-120101500D02*
X154447400Y-124161500D01*
X157947400Y-124161500D02*
X157947400Y-122808167D01*
X151907400Y-124161500D02*
X153177400Y-124161500D01*
X137422400Y-117181500D02*
X160043400Y-117181500D01*
X149367400Y-122808167D02*
X150637400Y-122808167D01*
X140407400Y-124161500D02*
X140407400Y-122808167D01*
X155647400Y-124161500D02*
X155647400Y-122808167D01*
X149847400Y-124161500D02*
X149847400Y-122808167D01*
X141987400Y-124161500D02*
X141987400Y-122808167D01*
X145487400Y-124161500D02*
X145487400Y-122808167D01*
X144287400Y-120101500D02*
X144287400Y-124161500D01*
X147307400Y-124161500D02*
X147307400Y-122808167D01*
X153177400Y-124161500D02*
X153177400Y-120101500D01*
X143017400Y-124161500D02*
X143017400Y-120101500D01*
X154807400Y-124161500D02*
X154807400Y-122808167D01*
X142347400Y-124161500D02*
X142347400Y-122808167D01*
X149727400Y-124161500D02*
X149727400Y-122808167D01*
X155047400Y-124161500D02*
X155047400Y-122808167D01*
X142827400Y-124161500D02*
X142827400Y-122808167D01*
X150637400Y-120101500D02*
X149367400Y-120101500D01*
X155527400Y-124161500D02*
X155527400Y-122808167D01*
X147907400Y-124161500D02*
X147907400Y-122808167D01*
X158187400Y-124161500D02*
X158187400Y-122808167D01*
X150447400Y-124161500D02*
X150447400Y-122808167D01*
X152147400Y-124161500D02*
X152147400Y-122808167D01*
X142227400Y-124161500D02*
X142227400Y-122808167D01*
X157467400Y-124161500D02*
X157467400Y-122808167D01*
X157587400Y-124161500D02*
X157587400Y-122808167D01*
X150207400Y-124161500D02*
X150207400Y-122808167D01*
X155287400Y-124161500D02*
X155287400Y-122808167D01*
X145367400Y-124161500D02*
X145367400Y-122808167D01*
X141747400Y-122808167D02*
X143017400Y-122808167D01*
X150567400Y-124161500D02*
X150567400Y-122808167D01*
X150087400Y-124161500D02*
X150087400Y-122808167D01*
X157347400Y-124161500D02*
X157347400Y-122808167D01*
X149367400Y-120101500D02*
X149367400Y-124161500D01*
X141867400Y-124161500D02*
X141867400Y-122808167D01*
X152987400Y-124161500D02*
X152987400Y-122808167D01*
X144407400Y-124161500D02*
X144407400Y-122808167D01*
X152027400Y-124161500D02*
X152027400Y-122808167D01*
X140167400Y-124161500D02*
X140167400Y-122808167D01*
X139207400Y-120101500D02*
X139207400Y-124161500D01*
X153107400Y-124161500D02*
X153107400Y-122808167D01*
X141747400Y-120101500D02*
X141747400Y-124161500D01*
X140047400Y-124161500D02*
X140047400Y-122808167D01*
X152747400Y-124161500D02*
X152747400Y-122808167D01*
X139207400Y-124161500D02*
X140477400Y-124161500D01*
X139567400Y-124161500D02*
X139567400Y-122808167D01*
X146827400Y-120101500D02*
X146827400Y-124161500D01*
X153177400Y-120101500D02*
X151907400Y-120101500D01*
X146827400Y-124161500D02*
X148097400Y-124161500D01*
X144767400Y-124161500D02*
X144767400Y-122808167D01*
X157707400Y-124161500D02*
X157707400Y-122808167D01*
X144647400Y-124161500D02*
X144647400Y-122808167D01*
X150327400Y-124161500D02*
X150327400Y-122808167D01*
X154447400Y-122808167D02*
X155717400Y-122808167D01*
X151907400Y-122808167D02*
X153177400Y-122808167D01*
X154447400Y-124161500D02*
X155717400Y-124161500D01*
X147427400Y-124161500D02*
X147427400Y-122808167D01*
X139687400Y-124161500D02*
X139687400Y-122808167D01*
X154567400Y-124161500D02*
X154567400Y-122808167D01*
X145007400Y-124161500D02*
X145007400Y-122808167D01*
X158257400Y-120101500D02*
X156987400Y-120101500D01*
X142467400Y-124161500D02*
X142467400Y-122808167D01*
X147187400Y-124161500D02*
X147187400Y-122808167D01*
X137422400Y-127081500D02*
X137422400Y-117181500D01*
X148097400Y-124161500D02*
X148097400Y-120101500D01*
X157107400Y-124161500D02*
X157107400Y-122808167D01*
X139927400Y-124161500D02*
X139927400Y-122808167D01*
X149607400Y-124161500D02*
X149607400Y-122808167D01*
X152387400Y-124161500D02*
X152387400Y-122808167D01*
X151907400Y-120101500D02*
X151907400Y-124161500D01*
X148027400Y-124161500D02*
X148027400Y-122808167D01*
X145557400Y-124161500D02*
X145557400Y-120101500D01*
X139807400Y-124161500D02*
X139807400Y-122808167D01*
X155407400Y-124161500D02*
X155407400Y-122808167D01*
X154687400Y-124161500D02*
X154687400Y-122808167D01*
X142707400Y-124161500D02*
X142707400Y-122808167D01*
%TO.C,RN1*%
X158892000Y-115192000D02*
X158892000Y-112392000D01*
X161602000Y-115192000D02*
X161602000Y-112392000D01*
X161602000Y-112392000D02*
X138402000Y-112392000D01*
X138402000Y-115192000D02*
X161602000Y-115192000D01*
X138402000Y-112392000D02*
X138402000Y-115192000D01*
%TO.C,SW2*%
X166347854Y-113756200D02*
X169007854Y-113756200D01*
X166347854Y-111156200D02*
X167677854Y-111156200D01*
X166347854Y-113756200D02*
X166347854Y-118896200D01*
X169007854Y-113756200D02*
X169007854Y-118896200D01*
X166347854Y-118896200D02*
X169007854Y-118896200D01*
X166347854Y-112486200D02*
X166347854Y-111156200D01*
%TO.C,U2*%
X161482000Y-91828000D02*
X135962000Y-91828000D01*
X135962000Y-91828000D02*
X135962000Y-93478000D01*
X135962000Y-97128000D02*
X161482000Y-97128000D01*
X161482000Y-97128000D02*
X161482000Y-91828000D01*
X135962000Y-95478000D02*
X135962000Y-97128000D01*
X135962000Y-95478000D02*
G75*
G03*
X135962000Y-93478000I0J1000000D01*
G01*
%TO.C,R1*%
X166257054Y-100362000D02*
X166257054Y-106902000D01*
X168667054Y-100362000D02*
X168997054Y-100362000D01*
X166587054Y-100362000D02*
X166257054Y-100362000D01*
X168997054Y-100362000D02*
X168997054Y-106902000D01*
X166257054Y-106902000D02*
X166587054Y-106902000D01*
X168997054Y-106902000D02*
X168667054Y-106902000D01*
%TO.C,J1*%
X136020254Y-66843600D02*
X137350254Y-66843600D01*
X138620254Y-66843600D02*
X161540254Y-66843600D01*
X161540254Y-69503600D02*
X161540254Y-66843600D01*
X136020254Y-68173600D02*
X136020254Y-66843600D01*
X138620254Y-69503600D02*
X138620254Y-66843600D01*
X138620254Y-69503600D02*
X161540254Y-69503600D01*
%TO.C,U1*%
X135962000Y-107111200D02*
X135962000Y-108761200D01*
X161482000Y-108761200D02*
X161482000Y-103461200D01*
X135962000Y-103461200D02*
X135962000Y-105111200D01*
X161482000Y-103461200D02*
X135962000Y-103461200D01*
X135962000Y-108761200D02*
X161482000Y-108761200D01*
X135962000Y-107111200D02*
G75*
G03*
X135962000Y-105111200I0J1000000D01*
G01*
%TD*%
M02*
