M48
; DRILL file {KiCad (6.0.5-0)} date 2022 July 20, Wednesday 14:51:43
; FORMAT={-:-/ absolute / inch / decimal}
; #@! TF.CreationDate,2022-07-20T14:51:43+02:00
; #@! TF.GenerationSoftware,Kicad,Pcbnew,(6.0.5-0)
; #@! TF.FileFunction,Plated,1,2,PTH
FMAT,2
INCH
; #@! TA.AperFunction,Plated,PTH,ComponentDrill
T1C0.0315
; #@! TA.AperFunction,Plated,PTH,ComponentDrill
T2C0.0360
; #@! TA.AperFunction,Plated,PTH,ComponentDrill
T3C0.0394
; #@! TA.AperFunction,Plated,PTH,ComponentDrill
T4C0.1260
%
G90
G05
T1
X5.2255Y-4.1288
X5.2255Y-4.2272
X5.2275Y-3.6708
X5.2275Y-3.7692
X5.4052Y-3.5696
X5.4052Y-3.8696
X5.4052Y-4.0276
X5.4052Y-4.3276
X5.4064Y-2.91
X5.5052Y-3.5696
X5.5052Y-3.8696
X5.5052Y-4.0276
X5.5052Y-4.3276
X5.5056Y-4.48
X5.5056Y-4.6583
X5.5056Y-4.9583
X5.5064Y-2.91
X5.6052Y-3.5696
X5.6052Y-3.8696
X5.6052Y-4.0276
X5.6052Y-4.3276
X5.6056Y-4.48
X5.6056Y-4.6583
X5.6056Y-4.9583
X5.6064Y-2.91
X5.7052Y-3.5696
X5.7052Y-3.8696
X5.7052Y-4.0276
X5.7052Y-4.3276
X5.7056Y-4.48
X5.7056Y-4.6583
X5.7056Y-4.9583
X5.7064Y-2.91
X5.8052Y-3.5696
X5.8052Y-3.8696
X5.8052Y-4.0276
X5.8052Y-4.3276
X5.8056Y-4.48
X5.8056Y-4.6583
X5.8056Y-4.9583
X5.8064Y-2.91
X5.9052Y-3.5696
X5.9052Y-3.8696
X5.9052Y-4.0276
X5.9052Y-4.3276
X5.9056Y-4.48
X5.9056Y-4.6583
X5.9056Y-4.9583
X5.9064Y-2.91
X6.0052Y-3.5696
X6.0052Y-3.8696
X6.0052Y-4.0276
X6.0052Y-4.3276
X6.0056Y-4.48
X6.0056Y-4.6583
X6.0056Y-4.9583
X6.0064Y-2.91
X6.1052Y-3.5696
X6.1052Y-3.8696
X6.1052Y-4.0276
X6.1052Y-4.3276
X6.1056Y-4.48
X6.1056Y-4.6583
X6.1056Y-4.9583
X6.1064Y-2.91
X6.2052Y-3.5696
X6.2052Y-3.8696
X6.2052Y-4.0276
X6.2052Y-4.3276
X6.2056Y-4.48
X6.2056Y-4.6583
X6.2056Y-4.9583
X6.2064Y-2.91
X6.3052Y-3.5696
X6.3052Y-3.8696
X6.3052Y-4.0276
X6.3052Y-4.3276
X6.3056Y-4.48
X6.5995Y-3.93
X6.5995Y-4.23
T2
X5.4062Y-3.102
X5.4062Y-3.402
X5.5062Y-3.102
X5.5062Y-3.402
X5.6062Y-3.102
X5.6062Y-3.402
X5.7062Y-3.102
X5.7062Y-3.402
X5.8062Y-3.102
X5.8062Y-3.402
X5.9062Y-3.102
X5.9062Y-3.402
X6.0062Y-3.102
X6.0062Y-3.402
X6.1062Y-3.102
X6.1062Y-3.402
X6.2062Y-3.102
X6.2062Y-3.402
X6.3062Y-3.102
X6.3062Y-3.402
T3
X5.4075Y-2.684
X5.5075Y-2.684
X5.6075Y-2.684
X5.7075Y-2.684
X5.8075Y-2.684
X5.9075Y-2.684
X6.0075Y-2.684
X6.1075Y-2.684
X6.2075Y-2.684
X6.3075Y-2.684
X6.6015Y-4.4286
X6.6015Y-4.5286
X6.6015Y-4.6286
T4
X5.1075Y-4.898
X5.1095Y-2.734
X6.6035Y-2.734
X6.6035Y-4.896
T0
M30
