M48
; DRILL file {KiCad (6.0.5-0)} date 2023 April 14, Friday 17:42:19
; FORMAT={-:-/ absolute / inch / decimal}
; #@! TF.CreationDate,2023-04-14T17:42:19+02:00
; #@! TF.GenerationSoftware,Kicad,Pcbnew,(6.0.5-0)
; #@! TF.FileFunction,Plated,1,4,PTH
FMAT,2
INCH
; #@! TA.AperFunction,Plated,PTH,ViaDrill
T1C0.0157
; #@! TA.AperFunction,Plated,PTH,ComponentDrill
T2C0.0315
; #@! TA.AperFunction,Plated,PTH,ComponentDrill
T3C0.0394
; #@! TA.AperFunction,Plated,PTH,ComponentDrill
T4C0.0512
%
G90
G05
T1
X4.0709Y-3.6122
X4.5394Y-4.3366
X4.6437Y-4.0433
X4.8425Y-4.3484
X4.9409Y-3.3366
X5.0Y-3.6762
X5.0453Y-3.7047
X5.0945Y-3.5709
X5.1909Y-2.7736
X5.2933Y-3.1358
X5.3366Y-2.6043
X5.5965Y-3.0846
X5.6457Y-2.8091
X5.6831Y-3.6181
X5.7343Y-3.4035
X5.7835Y-3.5906
X5.8022Y-3.1821
X5.8819Y-3.6476
X5.9311Y-3.2087
X6.0256Y-3.061
T2
X4.0907Y-2.679
X4.0907Y-3.279
X4.1907Y-2.679
X4.1907Y-3.279
X4.2254Y-3.4717
X4.2254Y-3.7717
X4.2907Y-2.679
X4.2907Y-3.279
X4.3254Y-3.4717
X4.3254Y-3.7717
X4.3907Y-2.679
X4.3907Y-3.279
X4.4254Y-3.4717
X4.4254Y-3.7717
X4.4907Y-2.679
X4.4907Y-3.279
X4.5254Y-3.4717
X4.5254Y-3.7717
X4.5463Y-4.009
X4.5463Y-4.1586
X4.5907Y-2.679
X4.5907Y-3.279
X4.6254Y-3.4717
X4.6254Y-3.7717
X4.6907Y-2.679
X4.6907Y-3.279
X4.7254Y-3.4717
X4.7254Y-3.7717
X4.7907Y-2.679
X4.7907Y-3.279
X4.8254Y-3.4717
X4.8254Y-3.7717
X4.8907Y-2.679
X4.8907Y-3.279
X4.9907Y-2.679
X4.9907Y-3.279
X5.0907Y-2.679
X5.0907Y-3.279
X5.1844Y-3.4677
X5.1844Y-3.7677
X5.1844Y-3.9362
X5.1844Y-4.2362
X5.1907Y-2.679
X5.1907Y-3.279
X5.2844Y-3.4677
X5.2844Y-3.7677
X5.2844Y-3.9362
X5.2844Y-4.2362
X5.2907Y-2.679
X5.2907Y-3.279
X5.3844Y-3.4677
X5.3844Y-3.7677
X5.3844Y-3.9362
X5.3844Y-4.2362
X5.3907Y-2.679
X5.3907Y-3.279
X5.4844Y-3.4677
X5.4844Y-3.7677
X5.4844Y-3.9362
X5.4844Y-4.2362
X5.4907Y-2.679
X5.4907Y-3.279
X5.5844Y-3.4677
X5.5844Y-3.7677
X5.5844Y-3.9362
X5.5844Y-4.2362
X5.5907Y-2.679
X5.5907Y-3.279
X5.6844Y-3.4677
X5.6844Y-3.7677
X5.6844Y-3.9362
X5.6844Y-4.2362
X5.6907Y-2.679
X5.6907Y-3.279
X5.7844Y-3.4677
X5.7844Y-3.7677
X5.7844Y-3.9362
X5.7844Y-4.2362
X5.7907Y-2.679
X5.7907Y-3.279
X5.8844Y-3.4677
X5.8844Y-3.7677
X5.8844Y-3.9362
X5.8844Y-4.2362
X5.8907Y-2.679
X5.8907Y-3.279
X5.9844Y-3.4677
X5.9844Y-3.7677
X5.9844Y-3.9362
X5.9844Y-4.2362
X5.9907Y-2.679
X5.9907Y-3.279
X6.1811Y-2.815
X6.1811Y-3.0079
X6.2795Y-2.815
X6.2795Y-3.0079
X6.436Y-2.815
X6.436Y-3.0079
T3
X4.1496Y-3.9882
X4.1496Y-4.0882
X4.1496Y-4.1882
X4.2965Y-4.43
X4.2965Y-4.53
X4.3965Y-4.43
X4.3965Y-4.53
X4.4965Y-4.43
X4.4965Y-4.53
X4.5965Y-4.43
X4.5965Y-4.53
X4.6965Y-4.43
X4.6965Y-4.53
X4.7965Y-4.43
X4.7965Y-4.53
X4.8965Y-4.43
X4.8965Y-4.53
X4.9965Y-4.43
X4.9965Y-4.53
X5.0965Y-4.43
X5.0965Y-4.53
X5.1965Y-4.43
X5.1965Y-4.53
X5.2965Y-4.43
X5.2965Y-4.53
X5.3965Y-4.43
X5.3965Y-4.53
X5.4965Y-4.43
X5.4965Y-4.53
X5.5965Y-4.43
X5.5965Y-4.53
X5.6965Y-4.43
X5.6965Y-4.53
X5.7965Y-4.43
X5.7965Y-4.53
X6.5665Y-4.5059
X6.5669Y-3.3061
X6.6665Y-4.5059
X6.6669Y-3.3061
X6.7665Y-4.5059
X6.7669Y-3.3061
X6.8665Y-4.5059
X6.8669Y-3.3061
X6.9665Y-4.5059
X6.9669Y-3.3061
X7.6604Y-2.7343
X7.7604Y-2.7343
T3
G00X7.6024Y-2.9528
M15
G01X7.5433Y-2.9528
M16
G05
G00X7.6024Y-3.248
M15
G01X7.5433Y-3.248
M16
G05
G00X7.6024Y-3.5433
M15
G01X7.5433Y-3.5433
M16
G05
G00X7.6024Y-3.8386
M15
G01X7.5433Y-3.8386
M16
G05
G00X7.6024Y-4.1339
M15
G01X7.5433Y-4.1339
M16
G05
G00X7.6024Y-4.4291
M15
G01X7.5433Y-4.4291
M16
G05
T4
G00X7.7185Y-3.124
M15
G01X7.7185Y-3.0768
M16
G05
G00X7.7185Y-3.7146
M15
G01X7.7185Y-3.6673
M16
G05
G00X7.7185Y-4.3051
M15
G01X7.7185Y-4.2579
M16
G05
T0
M30
