%TF.GenerationSoftware,KiCad,Pcbnew,(6.0.5-0)*%
%TF.CreationDate,2023-04-14T17:42:22+02:00*%
%TF.ProjectId,pixel juice,70697865-6c20-46a7-9569-63652e6b6963,rev?*%
%TF.SameCoordinates,Original*%
%TF.FileFunction,Legend,Bot*%
%TF.FilePolarity,Positive*%
%FSLAX46Y46*%
G04 Gerber Fmt 4.6, Leading zero omitted, Abs format (unit mm)*
G04 Created by KiCad (PCBNEW (6.0.5-0)) date 2023-04-14 17:42:22*
%MOMM*%
%LPD*%
G01*
G04 APERTURE LIST*
%ADD10C,0.150000*%
%ADD11C,0.300000*%
%ADD12C,0.120000*%
G04 APERTURE END LIST*
D10*
X192112023Y-124029904D02*
X192112023Y-123229904D01*
X192112023Y-123534666D02*
X192035833Y-123496571D01*
X191883452Y-123496571D01*
X191807261Y-123534666D01*
X191769166Y-123572761D01*
X191731071Y-123648952D01*
X191731071Y-123877523D01*
X191769166Y-123953714D01*
X191807261Y-123991809D01*
X191883452Y-124029904D01*
X192035833Y-124029904D01*
X192112023Y-123991809D01*
X191464404Y-123496571D02*
X191273928Y-124029904D01*
X191083452Y-123496571D02*
X191273928Y-124029904D01*
X191350119Y-124220380D01*
X191388214Y-124258476D01*
X191464404Y-124296571D01*
X190169166Y-124029904D02*
X190169166Y-123229904D01*
X189712023Y-124029904D01*
X189712023Y-123229904D01*
X188988214Y-124029904D02*
X188988214Y-123610857D01*
X189026309Y-123534666D01*
X189102500Y-123496571D01*
X189254880Y-123496571D01*
X189331071Y-123534666D01*
X188988214Y-123991809D02*
X189064404Y-124029904D01*
X189254880Y-124029904D01*
X189331071Y-123991809D01*
X189369166Y-123915619D01*
X189369166Y-123839428D01*
X189331071Y-123763238D01*
X189254880Y-123725142D01*
X189064404Y-123725142D01*
X188988214Y-123687047D01*
X188721547Y-123496571D02*
X188416785Y-123496571D01*
X188607261Y-123229904D02*
X188607261Y-123915619D01*
X188569166Y-123991809D01*
X188492976Y-124029904D01*
X188416785Y-124029904D01*
X187845357Y-123991809D02*
X187921547Y-124029904D01*
X188073928Y-124029904D01*
X188150119Y-123991809D01*
X188188214Y-123915619D01*
X188188214Y-123610857D01*
X188150119Y-123534666D01*
X188073928Y-123496571D01*
X187921547Y-123496571D01*
X187845357Y-123534666D01*
X187807261Y-123610857D01*
X187807261Y-123687047D01*
X188188214Y-123763238D01*
X186397738Y-124029904D02*
X186664404Y-123648952D01*
X186854880Y-124029904D02*
X186854880Y-123229904D01*
X186550119Y-123229904D01*
X186473928Y-123268000D01*
X186435833Y-123306095D01*
X186397738Y-123382285D01*
X186397738Y-123496571D01*
X186435833Y-123572761D01*
X186473928Y-123610857D01*
X186550119Y-123648952D01*
X186854880Y-123648952D01*
X186054880Y-124029904D02*
X186054880Y-123496571D01*
X186054880Y-123229904D02*
X186092976Y-123268000D01*
X186054880Y-123306095D01*
X186016785Y-123268000D01*
X186054880Y-123229904D01*
X186054880Y-123306095D01*
X185750119Y-123496571D02*
X185559642Y-124029904D01*
X185369166Y-123496571D01*
X184721547Y-124029904D02*
X184721547Y-123610857D01*
X184759642Y-123534666D01*
X184835833Y-123496571D01*
X184988214Y-123496571D01*
X185064404Y-123534666D01*
X184721547Y-123991809D02*
X184797738Y-124029904D01*
X184988214Y-124029904D01*
X185064404Y-123991809D01*
X185102500Y-123915619D01*
X185102500Y-123839428D01*
X185064404Y-123763238D01*
X184988214Y-123725142D01*
X184797738Y-123725142D01*
X184721547Y-123687047D01*
X184340595Y-124029904D02*
X184340595Y-123496571D01*
X184340595Y-123648952D02*
X184302500Y-123572761D01*
X184264404Y-123534666D01*
X184188214Y-123496571D01*
X184112023Y-123496571D01*
X183502500Y-124029904D02*
X183502500Y-123229904D01*
X183502500Y-123991809D02*
X183578690Y-124029904D01*
X183731071Y-124029904D01*
X183807261Y-123991809D01*
X183845357Y-123953714D01*
X183883452Y-123877523D01*
X183883452Y-123648952D01*
X183845357Y-123572761D01*
X183807261Y-123534666D01*
X183731071Y-123496571D01*
X183578690Y-123496571D01*
X183502500Y-123534666D01*
X192112023Y-125317904D02*
X192112023Y-124517904D01*
X191769166Y-125317904D02*
X191769166Y-124898857D01*
X191807261Y-124822666D01*
X191883452Y-124784571D01*
X191997738Y-124784571D01*
X192073928Y-124822666D01*
X192112023Y-124860761D01*
X191502500Y-124784571D02*
X191197738Y-124784571D01*
X191388214Y-124517904D02*
X191388214Y-125203619D01*
X191350119Y-125279809D01*
X191273928Y-125317904D01*
X191197738Y-125317904D01*
X191045357Y-124784571D02*
X190740595Y-124784571D01*
X190931071Y-124517904D02*
X190931071Y-125203619D01*
X190892976Y-125279809D01*
X190816785Y-125317904D01*
X190740595Y-125317904D01*
X190473928Y-124784571D02*
X190473928Y-125584571D01*
X190473928Y-124822666D02*
X190397738Y-124784571D01*
X190245357Y-124784571D01*
X190169166Y-124822666D01*
X190131071Y-124860761D01*
X190092976Y-124936952D01*
X190092976Y-125165523D01*
X190131071Y-125241714D01*
X190169166Y-125279809D01*
X190245357Y-125317904D01*
X190397738Y-125317904D01*
X190473928Y-125279809D01*
X189788214Y-125279809D02*
X189712023Y-125317904D01*
X189559642Y-125317904D01*
X189483452Y-125279809D01*
X189445357Y-125203619D01*
X189445357Y-125165523D01*
X189483452Y-125089333D01*
X189559642Y-125051238D01*
X189673928Y-125051238D01*
X189750119Y-125013142D01*
X189788214Y-124936952D01*
X189788214Y-124898857D01*
X189750119Y-124822666D01*
X189673928Y-124784571D01*
X189559642Y-124784571D01*
X189483452Y-124822666D01*
X189102500Y-125241714D02*
X189064404Y-125279809D01*
X189102500Y-125317904D01*
X189140595Y-125279809D01*
X189102500Y-125241714D01*
X189102500Y-125317904D01*
X189102500Y-124822666D02*
X189064404Y-124860761D01*
X189102500Y-124898857D01*
X189140595Y-124860761D01*
X189102500Y-124822666D01*
X189102500Y-124898857D01*
X188150119Y-124479809D02*
X188835833Y-125508380D01*
X187312023Y-124479809D02*
X187997738Y-125508380D01*
X186702499Y-124784571D02*
X186702499Y-125432190D01*
X186740595Y-125508380D01*
X186778690Y-125546476D01*
X186854880Y-125584571D01*
X186969166Y-125584571D01*
X187045357Y-125546476D01*
X186702499Y-125279809D02*
X186778690Y-125317904D01*
X186931071Y-125317904D01*
X187007261Y-125279809D01*
X187045357Y-125241714D01*
X187083452Y-125165523D01*
X187083452Y-124936952D01*
X187045357Y-124860761D01*
X187007261Y-124822666D01*
X186931071Y-124784571D01*
X186778690Y-124784571D01*
X186702499Y-124822666D01*
X186321547Y-125317904D02*
X186321547Y-124784571D01*
X186321547Y-124517904D02*
X186359642Y-124556000D01*
X186321547Y-124594095D01*
X186283452Y-124556000D01*
X186321547Y-124517904D01*
X186321547Y-124594095D01*
X186054880Y-124784571D02*
X185750119Y-124784571D01*
X185940595Y-124517904D02*
X185940595Y-125203619D01*
X185902499Y-125279809D01*
X185826309Y-125317904D01*
X185750119Y-125317904D01*
X185483452Y-125317904D02*
X185483452Y-124517904D01*
X185140595Y-125317904D02*
X185140595Y-124898857D01*
X185178690Y-124822666D01*
X185254880Y-124784571D01*
X185369166Y-124784571D01*
X185445357Y-124822666D01*
X185483452Y-124860761D01*
X184416785Y-124784571D02*
X184416785Y-125317904D01*
X184759642Y-124784571D02*
X184759642Y-125203619D01*
X184721547Y-125279809D01*
X184645357Y-125317904D01*
X184531071Y-125317904D01*
X184454880Y-125279809D01*
X184416785Y-125241714D01*
X184035833Y-125317904D02*
X184035833Y-124517904D01*
X184035833Y-124822666D02*
X183959642Y-124784571D01*
X183807261Y-124784571D01*
X183731071Y-124822666D01*
X183692976Y-124860761D01*
X183654880Y-124936952D01*
X183654880Y-125165523D01*
X183692976Y-125241714D01*
X183731071Y-125279809D01*
X183807261Y-125317904D01*
X183959642Y-125317904D01*
X184035833Y-125279809D01*
X183312023Y-125241714D02*
X183273928Y-125279809D01*
X183312023Y-125317904D01*
X183350119Y-125279809D01*
X183312023Y-125241714D01*
X183312023Y-125317904D01*
X182588214Y-125279809D02*
X182664404Y-125317904D01*
X182816785Y-125317904D01*
X182892976Y-125279809D01*
X182931071Y-125241714D01*
X182969166Y-125165523D01*
X182969166Y-124936952D01*
X182931071Y-124860761D01*
X182892976Y-124822666D01*
X182816785Y-124784571D01*
X182664404Y-124784571D01*
X182588214Y-124822666D01*
X182131071Y-125317904D02*
X182207261Y-125279809D01*
X182245357Y-125241714D01*
X182283452Y-125165523D01*
X182283452Y-124936952D01*
X182245357Y-124860761D01*
X182207261Y-124822666D01*
X182131071Y-124784571D01*
X182016785Y-124784571D01*
X181940595Y-124822666D01*
X181902499Y-124860761D01*
X181864404Y-124936952D01*
X181864404Y-125165523D01*
X181902499Y-125241714D01*
X181940595Y-125279809D01*
X182016785Y-125317904D01*
X182131071Y-125317904D01*
X181521547Y-125317904D02*
X181521547Y-124784571D01*
X181521547Y-124860761D02*
X181483452Y-124822666D01*
X181407261Y-124784571D01*
X181292976Y-124784571D01*
X181216785Y-124822666D01*
X181178690Y-124898857D01*
X181178690Y-125317904D01*
X181178690Y-124898857D02*
X181140595Y-124822666D01*
X181064404Y-124784571D01*
X180950119Y-124784571D01*
X180873928Y-124822666D01*
X180835833Y-124898857D01*
X180835833Y-125317904D01*
X179883452Y-124479809D02*
X180569166Y-125508380D01*
X179616785Y-124784571D02*
X179616785Y-125317904D01*
X179616785Y-124860761D02*
X179578690Y-124822666D01*
X179502499Y-124784571D01*
X179388214Y-124784571D01*
X179312023Y-124822666D01*
X179273928Y-124898857D01*
X179273928Y-125317904D01*
X178892976Y-125317904D02*
X178892976Y-124784571D01*
X178892976Y-124936952D02*
X178854880Y-124860761D01*
X178816785Y-124822666D01*
X178740595Y-124784571D01*
X178664404Y-124784571D01*
X178397738Y-125317904D02*
X178397738Y-124784571D01*
X178397738Y-124517904D02*
X178435833Y-124556000D01*
X178397738Y-124594095D01*
X178359642Y-124556000D01*
X178397738Y-124517904D01*
X178397738Y-124594095D01*
X178092976Y-124784571D02*
X177902499Y-125317904D01*
X177712023Y-124784571D01*
X177064404Y-125317904D02*
X177064404Y-124898857D01*
X177102499Y-124822666D01*
X177178690Y-124784571D01*
X177331071Y-124784571D01*
X177407261Y-124822666D01*
X177064404Y-125279809D02*
X177140595Y-125317904D01*
X177331071Y-125317904D01*
X177407261Y-125279809D01*
X177445357Y-125203619D01*
X177445357Y-125127428D01*
X177407261Y-125051238D01*
X177331071Y-125013142D01*
X177140595Y-125013142D01*
X177064404Y-124975047D01*
X176683452Y-125317904D02*
X176683452Y-124784571D01*
X176683452Y-124936952D02*
X176645357Y-124860761D01*
X176607261Y-124822666D01*
X176531071Y-124784571D01*
X176454880Y-124784571D01*
X175845357Y-125317904D02*
X175845357Y-124517904D01*
X175845357Y-125279809D02*
X175921547Y-125317904D01*
X176073928Y-125317904D01*
X176150119Y-125279809D01*
X176188214Y-125241714D01*
X176226309Y-125165523D01*
X176226309Y-124936952D01*
X176188214Y-124860761D01*
X176150119Y-124822666D01*
X176073928Y-124784571D01*
X175921547Y-124784571D01*
X175845357Y-124822666D01*
X174892976Y-124479809D02*
X175578690Y-125508380D01*
X174512023Y-125317904D02*
X174588214Y-125279809D01*
X174626309Y-125203619D01*
X174626309Y-124517904D01*
X174207261Y-125317904D02*
X174207261Y-124784571D01*
X174207261Y-124860761D02*
X174169166Y-124822666D01*
X174092976Y-124784571D01*
X173978690Y-124784571D01*
X173902500Y-124822666D01*
X173864404Y-124898857D01*
X173864404Y-125317904D01*
X173864404Y-124898857D02*
X173826309Y-124822666D01*
X173750119Y-124784571D01*
X173635833Y-124784571D01*
X173559642Y-124822666D01*
X173521547Y-124898857D01*
X173521547Y-125317904D01*
X172797738Y-125317904D02*
X172797738Y-124898857D01*
X172835833Y-124822666D01*
X172912023Y-124784571D01*
X173064404Y-124784571D01*
X173140595Y-124822666D01*
X172797738Y-125279809D02*
X172873928Y-125317904D01*
X173064404Y-125317904D01*
X173140595Y-125279809D01*
X173178690Y-125203619D01*
X173178690Y-125127428D01*
X173140595Y-125051238D01*
X173064404Y-125013142D01*
X172873928Y-125013142D01*
X172797738Y-124975047D01*
X172302500Y-125317904D02*
X172378690Y-125279809D01*
X172416785Y-125241714D01*
X172454880Y-125165523D01*
X172454880Y-124936952D01*
X172416785Y-124860761D01*
X172378690Y-124822666D01*
X172302500Y-124784571D01*
X172188214Y-124784571D01*
X172112023Y-124822666D01*
X172073928Y-124860761D01*
X172035833Y-124936952D01*
X172035833Y-125165523D01*
X172073928Y-125241714D01*
X172112023Y-125279809D01*
X172188214Y-125317904D01*
X172302500Y-125317904D01*
X171731071Y-125279809D02*
X171654880Y-125317904D01*
X171502500Y-125317904D01*
X171426309Y-125279809D01*
X171388214Y-125203619D01*
X171388214Y-125165523D01*
X171426309Y-125089333D01*
X171502500Y-125051238D01*
X171616785Y-125051238D01*
X171692976Y-125013142D01*
X171731071Y-124936952D01*
X171731071Y-124898857D01*
X171692976Y-124822666D01*
X171616785Y-124784571D01*
X171502500Y-124784571D01*
X171426309Y-124822666D01*
X192226309Y-125805904D02*
X191959642Y-126605904D01*
X191692976Y-125805904D01*
X191121547Y-126567809D02*
X191197738Y-126605904D01*
X191350119Y-126605904D01*
X191426309Y-126567809D01*
X191464404Y-126491619D01*
X191464404Y-126186857D01*
X191426309Y-126110666D01*
X191350119Y-126072571D01*
X191197738Y-126072571D01*
X191121547Y-126110666D01*
X191083452Y-126186857D01*
X191083452Y-126263047D01*
X191464404Y-126339238D01*
X190740595Y-126605904D02*
X190740595Y-126072571D01*
X190740595Y-126224952D02*
X190702500Y-126148761D01*
X190664404Y-126110666D01*
X190588214Y-126072571D01*
X190512023Y-126072571D01*
X190283452Y-126567809D02*
X190207261Y-126605904D01*
X190054880Y-126605904D01*
X189978690Y-126567809D01*
X189940595Y-126491619D01*
X189940595Y-126453523D01*
X189978690Y-126377333D01*
X190054880Y-126339238D01*
X190169166Y-126339238D01*
X190245357Y-126301142D01*
X190283452Y-126224952D01*
X190283452Y-126186857D01*
X190245357Y-126110666D01*
X190169166Y-126072571D01*
X190054880Y-126072571D01*
X189978690Y-126110666D01*
X189597738Y-126605904D02*
X189597738Y-126072571D01*
X189597738Y-125805904D02*
X189635833Y-125844000D01*
X189597738Y-125882095D01*
X189559642Y-125844000D01*
X189597738Y-125805904D01*
X189597738Y-125882095D01*
X189102500Y-126605904D02*
X189178690Y-126567809D01*
X189216785Y-126529714D01*
X189254880Y-126453523D01*
X189254880Y-126224952D01*
X189216785Y-126148761D01*
X189178690Y-126110666D01*
X189102500Y-126072571D01*
X188988214Y-126072571D01*
X188912023Y-126110666D01*
X188873928Y-126148761D01*
X188835833Y-126224952D01*
X188835833Y-126453523D01*
X188873928Y-126529714D01*
X188912023Y-126567809D01*
X188988214Y-126605904D01*
X189102500Y-126605904D01*
X188492976Y-126072571D02*
X188492976Y-126605904D01*
X188492976Y-126148761D02*
X188454880Y-126110666D01*
X188378690Y-126072571D01*
X188264404Y-126072571D01*
X188188214Y-126110666D01*
X188150119Y-126186857D01*
X188150119Y-126605904D01*
X186740595Y-126605904D02*
X187197738Y-126605904D01*
X186969166Y-126605904D02*
X186969166Y-125805904D01*
X187045357Y-125920190D01*
X187121547Y-125996380D01*
X187197738Y-126034476D01*
X192112023Y-127893904D02*
X192112023Y-127093904D01*
X191845357Y-127665333D01*
X191578690Y-127093904D01*
X191578690Y-127893904D01*
X190854880Y-127893904D02*
X190854880Y-127474857D01*
X190892976Y-127398666D01*
X190969166Y-127360571D01*
X191121547Y-127360571D01*
X191197738Y-127398666D01*
X190854880Y-127855809D02*
X190931071Y-127893904D01*
X191121547Y-127893904D01*
X191197738Y-127855809D01*
X191235833Y-127779619D01*
X191235833Y-127703428D01*
X191197738Y-127627238D01*
X191121547Y-127589142D01*
X190931071Y-127589142D01*
X190854880Y-127551047D01*
X190473928Y-127893904D02*
X190473928Y-127360571D01*
X190473928Y-127512952D02*
X190435833Y-127436761D01*
X190397738Y-127398666D01*
X190321547Y-127360571D01*
X190245357Y-127360571D01*
X189407261Y-127170095D02*
X189369166Y-127132000D01*
X189292976Y-127093904D01*
X189102500Y-127093904D01*
X189026309Y-127132000D01*
X188988214Y-127170095D01*
X188950119Y-127246285D01*
X188950119Y-127322476D01*
X188988214Y-127436761D01*
X189445357Y-127893904D01*
X188950119Y-127893904D01*
X188454880Y-127093904D02*
X188378690Y-127093904D01*
X188302500Y-127132000D01*
X188264404Y-127170095D01*
X188226309Y-127246285D01*
X188188214Y-127398666D01*
X188188214Y-127589142D01*
X188226309Y-127741523D01*
X188264404Y-127817714D01*
X188302500Y-127855809D01*
X188378690Y-127893904D01*
X188454880Y-127893904D01*
X188531071Y-127855809D01*
X188569166Y-127817714D01*
X188607261Y-127741523D01*
X188645357Y-127589142D01*
X188645357Y-127398666D01*
X188607261Y-127246285D01*
X188569166Y-127170095D01*
X188531071Y-127132000D01*
X188454880Y-127093904D01*
X187883452Y-127170095D02*
X187845357Y-127132000D01*
X187769166Y-127093904D01*
X187578690Y-127093904D01*
X187502500Y-127132000D01*
X187464404Y-127170095D01*
X187426309Y-127246285D01*
X187426309Y-127322476D01*
X187464404Y-127436761D01*
X187921547Y-127893904D01*
X187426309Y-127893904D01*
X186664404Y-127893904D02*
X187121547Y-127893904D01*
X186892976Y-127893904D02*
X186892976Y-127093904D01*
X186969166Y-127208190D01*
X187045357Y-127284380D01*
X187121547Y-127322476D01*
D11*
X186497857Y-102663571D02*
X186497857Y-101163571D01*
X185926428Y-101163571D01*
X185783571Y-101235000D01*
X185712142Y-101306428D01*
X185640714Y-101449285D01*
X185640714Y-101663571D01*
X185712142Y-101806428D01*
X185783571Y-101877857D01*
X185926428Y-101949285D01*
X186497857Y-101949285D01*
X184997857Y-102663571D02*
X184997857Y-101663571D01*
X184997857Y-101163571D02*
X185069285Y-101235000D01*
X184997857Y-101306428D01*
X184926428Y-101235000D01*
X184997857Y-101163571D01*
X184997857Y-101306428D01*
X184426428Y-102663571D02*
X183640714Y-101663571D01*
X184426428Y-101663571D02*
X183640714Y-102663571D01*
X182497857Y-102592142D02*
X182640714Y-102663571D01*
X182926428Y-102663571D01*
X183069285Y-102592142D01*
X183140714Y-102449285D01*
X183140714Y-101877857D01*
X183069285Y-101735000D01*
X182926428Y-101663571D01*
X182640714Y-101663571D01*
X182497857Y-101735000D01*
X182426428Y-101877857D01*
X182426428Y-102020714D01*
X183140714Y-102163571D01*
X181569285Y-102663571D02*
X181712142Y-102592142D01*
X181783571Y-102449285D01*
X181783571Y-101163571D01*
X179426428Y-101163571D02*
X179426428Y-102235000D01*
X179497857Y-102449285D01*
X179640714Y-102592142D01*
X179855000Y-102663571D01*
X179997857Y-102663571D01*
X178069285Y-101663571D02*
X178069285Y-102663571D01*
X178712142Y-101663571D02*
X178712142Y-102449285D01*
X178640714Y-102592142D01*
X178497857Y-102663571D01*
X178283571Y-102663571D01*
X178140714Y-102592142D01*
X178069285Y-102520714D01*
X177355000Y-102663571D02*
X177355000Y-101663571D01*
X177355000Y-101163571D02*
X177426428Y-101235000D01*
X177355000Y-101306428D01*
X177283571Y-101235000D01*
X177355000Y-101163571D01*
X177355000Y-101306428D01*
X175997857Y-102592142D02*
X176140714Y-102663571D01*
X176426428Y-102663571D01*
X176569285Y-102592142D01*
X176640714Y-102520714D01*
X176712142Y-102377857D01*
X176712142Y-101949285D01*
X176640714Y-101806428D01*
X176569285Y-101735000D01*
X176426428Y-101663571D01*
X176140714Y-101663571D01*
X175997857Y-101735000D01*
X174783571Y-102592142D02*
X174926428Y-102663571D01*
X175212142Y-102663571D01*
X175355000Y-102592142D01*
X175426428Y-102449285D01*
X175426428Y-101877857D01*
X175355000Y-101735000D01*
X175212142Y-101663571D01*
X174926428Y-101663571D01*
X174783571Y-101735000D01*
X174712142Y-101877857D01*
X174712142Y-102020714D01*
X175426428Y-102163571D01*
X186640714Y-104078571D02*
X186283571Y-105078571D01*
X185926428Y-104078571D01*
X184569285Y-105078571D02*
X185426428Y-105078571D01*
X184997857Y-105078571D02*
X184997857Y-103578571D01*
X185140714Y-103792857D01*
X185283571Y-103935714D01*
X185426428Y-104007142D01*
X183926428Y-104935714D02*
X183855000Y-105007142D01*
X183926428Y-105078571D01*
X183997857Y-105007142D01*
X183926428Y-104935714D01*
X183926428Y-105078571D01*
X182926428Y-103578571D02*
X182783571Y-103578571D01*
X182640714Y-103650000D01*
X182569285Y-103721428D01*
X182497857Y-103864285D01*
X182426428Y-104150000D01*
X182426428Y-104507142D01*
X182497857Y-104792857D01*
X182569285Y-104935714D01*
X182640714Y-105007142D01*
X182783571Y-105078571D01*
X182926428Y-105078571D01*
X183069285Y-105007142D01*
X183140714Y-104935714D01*
X183212142Y-104792857D01*
X183283571Y-104507142D01*
X183283571Y-104150000D01*
X183212142Y-103864285D01*
X183140714Y-103721428D01*
X183069285Y-103650000D01*
X182926428Y-103578571D01*
X181783571Y-105078571D02*
X181783571Y-103578571D01*
X181783571Y-104150000D02*
X181640714Y-104078571D01*
X181355000Y-104078571D01*
X181212142Y-104150000D01*
X181140714Y-104221428D01*
X181069285Y-104364285D01*
X181069285Y-104792857D01*
X181140714Y-104935714D01*
X181212142Y-105007142D01*
X181355000Y-105078571D01*
X181640714Y-105078571D01*
X181783571Y-105007142D01*
X180355000Y-105007142D02*
X180355000Y-105078571D01*
X180426428Y-105221428D01*
X180497857Y-105292857D01*
X178640714Y-104650000D02*
X177926428Y-104650000D01*
X178783571Y-105078571D02*
X178283571Y-103578571D01*
X177783571Y-105078571D01*
X177283571Y-104078571D02*
X177283571Y-105578571D01*
X177283571Y-104150000D02*
X177140714Y-104078571D01*
X176855000Y-104078571D01*
X176712142Y-104150000D01*
X176640714Y-104221428D01*
X176569285Y-104364285D01*
X176569285Y-104792857D01*
X176640714Y-104935714D01*
X176712142Y-105007142D01*
X176855000Y-105078571D01*
X177140714Y-105078571D01*
X177283571Y-105007142D01*
X175926428Y-105078571D02*
X175926428Y-104078571D01*
X175926428Y-104364285D02*
X175855000Y-104221428D01*
X175783571Y-104150000D01*
X175640714Y-104078571D01*
X175497857Y-104078571D01*
X174997857Y-105078571D02*
X174997857Y-104078571D01*
X174997857Y-103578571D02*
X175069285Y-103650000D01*
X174997857Y-103721428D01*
X174926428Y-103650000D01*
X174997857Y-103578571D01*
X174997857Y-103721428D01*
X174069285Y-105078571D02*
X174212142Y-105007142D01*
X174283571Y-104864285D01*
X174283571Y-103578571D01*
X172426428Y-103721428D02*
X172355000Y-103650000D01*
X172212142Y-103578571D01*
X171855000Y-103578571D01*
X171712142Y-103650000D01*
X171640714Y-103721428D01*
X171569285Y-103864285D01*
X171569285Y-104007142D01*
X171640714Y-104221428D01*
X172497857Y-105078571D01*
X171569285Y-105078571D01*
X170640714Y-103578571D02*
X170497857Y-103578571D01*
X170355000Y-103650000D01*
X170283571Y-103721428D01*
X170212142Y-103864285D01*
X170140714Y-104150000D01*
X170140714Y-104507142D01*
X170212142Y-104792857D01*
X170283571Y-104935714D01*
X170355000Y-105007142D01*
X170497857Y-105078571D01*
X170640714Y-105078571D01*
X170783571Y-105007142D01*
X170855000Y-104935714D01*
X170926428Y-104792857D01*
X170997857Y-104507142D01*
X170997857Y-104150000D01*
X170926428Y-103864285D01*
X170855000Y-103721428D01*
X170783571Y-103650000D01*
X170640714Y-103578571D01*
X169569285Y-103721428D02*
X169497857Y-103650000D01*
X169355000Y-103578571D01*
X168997857Y-103578571D01*
X168855000Y-103650000D01*
X168783571Y-103721428D01*
X168712142Y-103864285D01*
X168712142Y-104007142D01*
X168783571Y-104221428D01*
X169640714Y-105078571D01*
X168712142Y-105078571D01*
X168212142Y-103578571D02*
X167283571Y-103578571D01*
X167783571Y-104150000D01*
X167569285Y-104150000D01*
X167426428Y-104221428D01*
X167355000Y-104292857D01*
X167283571Y-104435714D01*
X167283571Y-104792857D01*
X167355000Y-104935714D01*
X167426428Y-105007142D01*
X167569285Y-105078571D01*
X167997857Y-105078571D01*
X168140714Y-105007142D01*
X168212142Y-104935714D01*
X186497857Y-107493571D02*
X186497857Y-105993571D01*
X186497857Y-106565000D02*
X186355000Y-106493571D01*
X186069285Y-106493571D01*
X185926428Y-106565000D01*
X185855000Y-106636428D01*
X185783571Y-106779285D01*
X185783571Y-107207857D01*
X185855000Y-107350714D01*
X185926428Y-107422142D01*
X186069285Y-107493571D01*
X186355000Y-107493571D01*
X186497857Y-107422142D01*
X185283571Y-106493571D02*
X184926428Y-107493571D01*
X184569285Y-106493571D02*
X184926428Y-107493571D01*
X185069285Y-107850714D01*
X185140714Y-107922142D01*
X185283571Y-107993571D01*
X182855000Y-107493571D02*
X182855000Y-105993571D01*
X181997857Y-107493571D01*
X181997857Y-105993571D01*
X180640714Y-107493571D02*
X180640714Y-106707857D01*
X180712142Y-106565000D01*
X180855000Y-106493571D01*
X181140714Y-106493571D01*
X181283571Y-106565000D01*
X180640714Y-107422142D02*
X180783571Y-107493571D01*
X181140714Y-107493571D01*
X181283571Y-107422142D01*
X181355000Y-107279285D01*
X181355000Y-107136428D01*
X181283571Y-106993571D01*
X181140714Y-106922142D01*
X180783571Y-106922142D01*
X180640714Y-106850714D01*
X180140714Y-106493571D02*
X179569285Y-106493571D01*
X179926428Y-105993571D02*
X179926428Y-107279285D01*
X179855000Y-107422142D01*
X179712142Y-107493571D01*
X179569285Y-107493571D01*
X178497857Y-107422142D02*
X178640714Y-107493571D01*
X178926428Y-107493571D01*
X179069285Y-107422142D01*
X179140714Y-107279285D01*
X179140714Y-106707857D01*
X179069285Y-106565000D01*
X178926428Y-106493571D01*
X178640714Y-106493571D01*
X178497857Y-106565000D01*
X178426428Y-106707857D01*
X178426428Y-106850714D01*
X179140714Y-106993571D01*
X175783571Y-107493571D02*
X176283571Y-106779285D01*
X176640714Y-107493571D02*
X176640714Y-105993571D01*
X176069285Y-105993571D01*
X175926428Y-106065000D01*
X175855000Y-106136428D01*
X175783571Y-106279285D01*
X175783571Y-106493571D01*
X175855000Y-106636428D01*
X175926428Y-106707857D01*
X176069285Y-106779285D01*
X176640714Y-106779285D01*
X175140714Y-107493571D02*
X175140714Y-106493571D01*
X175140714Y-105993571D02*
X175212142Y-106065000D01*
X175140714Y-106136428D01*
X175069285Y-106065000D01*
X175140714Y-105993571D01*
X175140714Y-106136428D01*
X174569285Y-106493571D02*
X174212142Y-107493571D01*
X173855000Y-106493571D01*
X172640714Y-107493571D02*
X172640714Y-106707857D01*
X172712142Y-106565000D01*
X172855000Y-106493571D01*
X173140714Y-106493571D01*
X173283571Y-106565000D01*
X172640714Y-107422142D02*
X172783571Y-107493571D01*
X173140714Y-107493571D01*
X173283571Y-107422142D01*
X173355000Y-107279285D01*
X173355000Y-107136428D01*
X173283571Y-106993571D01*
X173140714Y-106922142D01*
X172783571Y-106922142D01*
X172640714Y-106850714D01*
X171926428Y-107493571D02*
X171926428Y-106493571D01*
X171926428Y-106779285D02*
X171855000Y-106636428D01*
X171783571Y-106565000D01*
X171640714Y-106493571D01*
X171497857Y-106493571D01*
X170355000Y-107493571D02*
X170355000Y-105993571D01*
X170355000Y-107422142D02*
X170497857Y-107493571D01*
X170783571Y-107493571D01*
X170926428Y-107422142D01*
X170997857Y-107350714D01*
X171069285Y-107207857D01*
X171069285Y-106779285D01*
X170997857Y-106636428D01*
X170926428Y-106565000D01*
X170783571Y-106493571D01*
X170497857Y-106493571D01*
X170355000Y-106565000D01*
D10*
%TO.C,C5*%
X137966666Y-78207142D02*
X138014285Y-78254761D01*
X138157142Y-78302380D01*
X138252380Y-78302380D01*
X138395238Y-78254761D01*
X138490476Y-78159523D01*
X138538095Y-78064285D01*
X138585714Y-77873809D01*
X138585714Y-77730952D01*
X138538095Y-77540476D01*
X138490476Y-77445238D01*
X138395238Y-77350000D01*
X138252380Y-77302380D01*
X138157142Y-77302380D01*
X138014285Y-77350000D01*
X137966666Y-77397619D01*
X137061904Y-77302380D02*
X137538095Y-77302380D01*
X137585714Y-77778571D01*
X137538095Y-77730952D01*
X137442857Y-77683333D01*
X137204761Y-77683333D01*
X137109523Y-77730952D01*
X137061904Y-77778571D01*
X137014285Y-77873809D01*
X137014285Y-78111904D01*
X137061904Y-78207142D01*
X137109523Y-78254761D01*
X137204761Y-78302380D01*
X137442857Y-78302380D01*
X137538095Y-78254761D01*
X137585714Y-78207142D01*
D12*
X137538748Y-78815000D02*
X138061252Y-78815000D01*
X137538748Y-80285000D02*
X138061252Y-80285000D01*
%TD*%
M02*
