%TF.GenerationSoftware,KiCad,Pcbnew,(5.1.9-0-10_14)*%
%TF.CreationDate,2021-03-24T13:41:59+01:00*%
%TF.ProjectId,kids serial,6b696473-2073-4657-9269-616c2e6b6963,rev?*%
%TF.SameCoordinates,Original*%
%TF.FileFunction,Soldermask,Bot*%
%TF.FilePolarity,Negative*%
%FSLAX46Y46*%
G04 Gerber Fmt 4.6, Leading zero omitted, Abs format (unit mm)*
G04 Created by KiCad (PCBNEW (5.1.9-0-10_14)) date 2021-03-24 13:41:59*
%MOMM*%
%LPD*%
G01*
G04 APERTURE LIST*
%ADD10C,1.600000*%
%ADD11R,1.600000X1.600000*%
%ADD12C,1.422400*%
%ADD13R,1.422400X1.422400*%
%ADD14O,1.600000X1.600000*%
%ADD15C,1.800000*%
%ADD16R,1.800000X1.800000*%
%ADD17R,1.700000X1.700000*%
%ADD18O,1.700000X1.700000*%
G04 APERTURE END LIST*
D10*
%TO.C,X1*%
X147574000Y-92329000D03*
X139954000Y-92329000D03*
X139954000Y-99949000D03*
D11*
X147574000Y-99949000D03*
%TD*%
D12*
%TO.C,U1*%
X129286000Y-88392000D03*
X129286000Y-90932000D03*
X129286000Y-93472000D03*
X129286000Y-96012000D03*
X129286000Y-98552000D03*
X126746000Y-85852000D03*
X126746000Y-90932000D03*
X126746000Y-93472000D03*
X126746000Y-96012000D03*
X126746000Y-98552000D03*
X126746000Y-101092000D03*
X126746000Y-103632000D03*
X124206000Y-103632000D03*
X121666000Y-103632000D03*
X119126000Y-103632000D03*
X116586000Y-103632000D03*
X114046000Y-103632000D03*
X129286000Y-101092000D03*
X124206000Y-101092000D03*
X121666000Y-101092000D03*
X119126000Y-101092000D03*
X116586000Y-101092000D03*
X114046000Y-101092000D03*
X111506000Y-101092000D03*
X111506000Y-98552000D03*
X111506000Y-96012000D03*
X111506000Y-93472000D03*
X111506000Y-90932000D03*
X111506000Y-88392000D03*
X114046000Y-98552000D03*
X114046000Y-96012000D03*
X114046000Y-93472000D03*
X114046000Y-90932000D03*
X114046000Y-88392000D03*
X124206000Y-85852000D03*
X121666000Y-85852000D03*
X114046000Y-85852000D03*
X116586000Y-85852000D03*
X119126000Y-85852000D03*
X126746000Y-88392000D03*
X124206000Y-88392000D03*
X116586000Y-88392000D03*
X119126000Y-88392000D03*
D13*
X121666000Y-88392000D03*
%TD*%
D14*
%TO.C,R4*%
X162242000Y-107251500D03*
D10*
X162242000Y-99631500D03*
%TD*%
D14*
%TO.C,R3*%
X166878000Y-107315000D03*
D10*
X166878000Y-99695000D03*
%TD*%
D14*
%TO.C,R2*%
X157290000Y-92011500D03*
D10*
X157290000Y-99631500D03*
%TD*%
D14*
%TO.C,R1*%
X171577000Y-91948000D03*
D10*
X171577000Y-99568000D03*
%TD*%
D15*
%TO.C,D2*%
X156908000Y-85471000D03*
D16*
X159448000Y-85471000D03*
%TD*%
D15*
%TO.C,D1*%
X172021500Y-85471000D03*
D16*
X169481500Y-85471000D03*
%TD*%
D10*
%TO.C,C5*%
X157416000Y-104815000D03*
X157416000Y-107315000D03*
%TD*%
%TO.C,C4*%
X171704000Y-104815000D03*
X171704000Y-107315000D03*
%TD*%
%TO.C,C3*%
X163235000Y-85915500D03*
X165735000Y-85915500D03*
%TD*%
%TO.C,C2*%
X118976000Y-79184500D03*
X121476000Y-79184500D03*
%TD*%
%TO.C,C1*%
X142470000Y-86360000D03*
X144970000Y-86360000D03*
%TD*%
D17*
%TO.C,J1*%
X110109000Y-112649000D03*
D18*
X110109000Y-115189000D03*
X112649000Y-112649000D03*
X112649000Y-115189000D03*
X115189000Y-112649000D03*
X115189000Y-115189000D03*
X117729000Y-112649000D03*
X117729000Y-115189000D03*
X120269000Y-112649000D03*
X120269000Y-115189000D03*
X122809000Y-112649000D03*
X122809000Y-115189000D03*
X125349000Y-112649000D03*
X125349000Y-115189000D03*
X127889000Y-112649000D03*
X127889000Y-115189000D03*
X130429000Y-112649000D03*
X130429000Y-115189000D03*
X132969000Y-112649000D03*
X132969000Y-115189000D03*
X135509000Y-112649000D03*
X135509000Y-115189000D03*
X138049000Y-112649000D03*
X138049000Y-115189000D03*
X140589000Y-112649000D03*
X140589000Y-115189000D03*
X143129000Y-112649000D03*
X143129000Y-115189000D03*
X145669000Y-112649000D03*
X145669000Y-115189000D03*
X148209000Y-112649000D03*
X148209000Y-115189000D03*
%TD*%
M02*
