%TF.GenerationSoftware,KiCad,Pcbnew,(5.1.9-0-10_14)*%
%TF.CreationDate,2021-03-24T13:41:59+01:00*%
%TF.ProjectId,kids serial,6b696473-2073-4657-9269-616c2e6b6963,rev?*%
%TF.SameCoordinates,Original*%
%TF.FileFunction,Legend,Bot*%
%TF.FilePolarity,Positive*%
%FSLAX46Y46*%
G04 Gerber Fmt 4.6, Leading zero omitted, Abs format (unit mm)*
G04 Created by KiCad (PCBNEW (5.1.9-0-10_14)) date 2021-03-24 13:41:59*
%MOMM*%
%LPD*%
G01*
G04 APERTURE LIST*
%ADD10C,0.150000*%
%ADD11C,0.120000*%
G04 APERTURE END LIST*
D10*
X174908523Y-112509904D02*
X174908523Y-111709904D01*
X174908523Y-112014666D02*
X174832333Y-111976571D01*
X174679952Y-111976571D01*
X174603761Y-112014666D01*
X174565666Y-112052761D01*
X174527571Y-112128952D01*
X174527571Y-112357523D01*
X174565666Y-112433714D01*
X174603761Y-112471809D01*
X174679952Y-112509904D01*
X174832333Y-112509904D01*
X174908523Y-112471809D01*
X174260904Y-111976571D02*
X174070428Y-112509904D01*
X173879952Y-111976571D02*
X174070428Y-112509904D01*
X174146619Y-112700380D01*
X174184714Y-112738476D01*
X174260904Y-112776571D01*
X172965666Y-112509904D02*
X172965666Y-111709904D01*
X172508523Y-112509904D01*
X172508523Y-111709904D01*
X171784714Y-112509904D02*
X171784714Y-112090857D01*
X171822809Y-112014666D01*
X171899000Y-111976571D01*
X172051380Y-111976571D01*
X172127571Y-112014666D01*
X171784714Y-112471809D02*
X171860904Y-112509904D01*
X172051380Y-112509904D01*
X172127571Y-112471809D01*
X172165666Y-112395619D01*
X172165666Y-112319428D01*
X172127571Y-112243238D01*
X172051380Y-112205142D01*
X171860904Y-112205142D01*
X171784714Y-112167047D01*
X171518047Y-111976571D02*
X171213285Y-111976571D01*
X171403761Y-111709904D02*
X171403761Y-112395619D01*
X171365666Y-112471809D01*
X171289476Y-112509904D01*
X171213285Y-112509904D01*
X170641857Y-112471809D02*
X170718047Y-112509904D01*
X170870428Y-112509904D01*
X170946619Y-112471809D01*
X170984714Y-112395619D01*
X170984714Y-112090857D01*
X170946619Y-112014666D01*
X170870428Y-111976571D01*
X170718047Y-111976571D01*
X170641857Y-112014666D01*
X170603761Y-112090857D01*
X170603761Y-112167047D01*
X170984714Y-112243238D01*
X169194238Y-112509904D02*
X169460904Y-112128952D01*
X169651380Y-112509904D02*
X169651380Y-111709904D01*
X169346619Y-111709904D01*
X169270428Y-111748000D01*
X169232333Y-111786095D01*
X169194238Y-111862285D01*
X169194238Y-111976571D01*
X169232333Y-112052761D01*
X169270428Y-112090857D01*
X169346619Y-112128952D01*
X169651380Y-112128952D01*
X168851380Y-112509904D02*
X168851380Y-111976571D01*
X168851380Y-111709904D02*
X168889476Y-111748000D01*
X168851380Y-111786095D01*
X168813285Y-111748000D01*
X168851380Y-111709904D01*
X168851380Y-111786095D01*
X168546619Y-111976571D02*
X168356142Y-112509904D01*
X168165666Y-111976571D01*
X167518047Y-112509904D02*
X167518047Y-112090857D01*
X167556142Y-112014666D01*
X167632333Y-111976571D01*
X167784714Y-111976571D01*
X167860904Y-112014666D01*
X167518047Y-112471809D02*
X167594238Y-112509904D01*
X167784714Y-112509904D01*
X167860904Y-112471809D01*
X167899000Y-112395619D01*
X167899000Y-112319428D01*
X167860904Y-112243238D01*
X167784714Y-112205142D01*
X167594238Y-112205142D01*
X167518047Y-112167047D01*
X167137095Y-112509904D02*
X167137095Y-111976571D01*
X167137095Y-112128952D02*
X167099000Y-112052761D01*
X167060904Y-112014666D01*
X166984714Y-111976571D01*
X166908523Y-111976571D01*
X166299000Y-112509904D02*
X166299000Y-111709904D01*
X166299000Y-112471809D02*
X166375190Y-112509904D01*
X166527571Y-112509904D01*
X166603761Y-112471809D01*
X166641857Y-112433714D01*
X166679952Y-112357523D01*
X166679952Y-112128952D01*
X166641857Y-112052761D01*
X166603761Y-112014666D01*
X166527571Y-111976571D01*
X166375190Y-111976571D01*
X166299000Y-112014666D01*
X174908523Y-113859904D02*
X174908523Y-113059904D01*
X174565666Y-113859904D02*
X174565666Y-113440857D01*
X174603761Y-113364666D01*
X174679952Y-113326571D01*
X174794238Y-113326571D01*
X174870428Y-113364666D01*
X174908523Y-113402761D01*
X174299000Y-113326571D02*
X173994238Y-113326571D01*
X174184714Y-113059904D02*
X174184714Y-113745619D01*
X174146619Y-113821809D01*
X174070428Y-113859904D01*
X173994238Y-113859904D01*
X173841857Y-113326571D02*
X173537095Y-113326571D01*
X173727571Y-113059904D02*
X173727571Y-113745619D01*
X173689476Y-113821809D01*
X173613285Y-113859904D01*
X173537095Y-113859904D01*
X173270428Y-113326571D02*
X173270428Y-114126571D01*
X173270428Y-113364666D02*
X173194238Y-113326571D01*
X173041857Y-113326571D01*
X172965666Y-113364666D01*
X172927571Y-113402761D01*
X172889476Y-113478952D01*
X172889476Y-113707523D01*
X172927571Y-113783714D01*
X172965666Y-113821809D01*
X173041857Y-113859904D01*
X173194238Y-113859904D01*
X173270428Y-113821809D01*
X172584714Y-113821809D02*
X172508523Y-113859904D01*
X172356142Y-113859904D01*
X172279952Y-113821809D01*
X172241857Y-113745619D01*
X172241857Y-113707523D01*
X172279952Y-113631333D01*
X172356142Y-113593238D01*
X172470428Y-113593238D01*
X172546619Y-113555142D01*
X172584714Y-113478952D01*
X172584714Y-113440857D01*
X172546619Y-113364666D01*
X172470428Y-113326571D01*
X172356142Y-113326571D01*
X172279952Y-113364666D01*
X171899000Y-113783714D02*
X171860904Y-113821809D01*
X171899000Y-113859904D01*
X171937095Y-113821809D01*
X171899000Y-113783714D01*
X171899000Y-113859904D01*
X171899000Y-113364666D02*
X171860904Y-113402761D01*
X171899000Y-113440857D01*
X171937095Y-113402761D01*
X171899000Y-113364666D01*
X171899000Y-113440857D01*
X170946619Y-113021809D02*
X171632333Y-114050380D01*
X170108523Y-113021809D02*
X170794238Y-114050380D01*
X169498999Y-113326571D02*
X169498999Y-113974190D01*
X169537095Y-114050380D01*
X169575190Y-114088476D01*
X169651380Y-114126571D01*
X169765666Y-114126571D01*
X169841857Y-114088476D01*
X169498999Y-113821809D02*
X169575190Y-113859904D01*
X169727571Y-113859904D01*
X169803761Y-113821809D01*
X169841857Y-113783714D01*
X169879952Y-113707523D01*
X169879952Y-113478952D01*
X169841857Y-113402761D01*
X169803761Y-113364666D01*
X169727571Y-113326571D01*
X169575190Y-113326571D01*
X169498999Y-113364666D01*
X169118047Y-113859904D02*
X169118047Y-113326571D01*
X169118047Y-113059904D02*
X169156142Y-113098000D01*
X169118047Y-113136095D01*
X169079952Y-113098000D01*
X169118047Y-113059904D01*
X169118047Y-113136095D01*
X168851380Y-113326571D02*
X168546619Y-113326571D01*
X168737095Y-113059904D02*
X168737095Y-113745619D01*
X168698999Y-113821809D01*
X168622809Y-113859904D01*
X168546619Y-113859904D01*
X168279952Y-113859904D02*
X168279952Y-113059904D01*
X167937095Y-113859904D02*
X167937095Y-113440857D01*
X167975190Y-113364666D01*
X168051380Y-113326571D01*
X168165666Y-113326571D01*
X168241857Y-113364666D01*
X168279952Y-113402761D01*
X167213285Y-113326571D02*
X167213285Y-113859904D01*
X167556142Y-113326571D02*
X167556142Y-113745619D01*
X167518047Y-113821809D01*
X167441857Y-113859904D01*
X167327571Y-113859904D01*
X167251380Y-113821809D01*
X167213285Y-113783714D01*
X166832333Y-113859904D02*
X166832333Y-113059904D01*
X166832333Y-113364666D02*
X166756142Y-113326571D01*
X166603761Y-113326571D01*
X166527571Y-113364666D01*
X166489476Y-113402761D01*
X166451380Y-113478952D01*
X166451380Y-113707523D01*
X166489476Y-113783714D01*
X166527571Y-113821809D01*
X166603761Y-113859904D01*
X166756142Y-113859904D01*
X166832333Y-113821809D01*
X166108523Y-113783714D02*
X166070428Y-113821809D01*
X166108523Y-113859904D01*
X166146619Y-113821809D01*
X166108523Y-113783714D01*
X166108523Y-113859904D01*
X165384714Y-113821809D02*
X165460904Y-113859904D01*
X165613285Y-113859904D01*
X165689476Y-113821809D01*
X165727571Y-113783714D01*
X165765666Y-113707523D01*
X165765666Y-113478952D01*
X165727571Y-113402761D01*
X165689476Y-113364666D01*
X165613285Y-113326571D01*
X165460904Y-113326571D01*
X165384714Y-113364666D01*
X164927571Y-113859904D02*
X165003761Y-113821809D01*
X165041857Y-113783714D01*
X165079952Y-113707523D01*
X165079952Y-113478952D01*
X165041857Y-113402761D01*
X165003761Y-113364666D01*
X164927571Y-113326571D01*
X164813285Y-113326571D01*
X164737095Y-113364666D01*
X164698999Y-113402761D01*
X164660904Y-113478952D01*
X164660904Y-113707523D01*
X164698999Y-113783714D01*
X164737095Y-113821809D01*
X164813285Y-113859904D01*
X164927571Y-113859904D01*
X164318047Y-113859904D02*
X164318047Y-113326571D01*
X164318047Y-113402761D02*
X164279952Y-113364666D01*
X164203761Y-113326571D01*
X164089476Y-113326571D01*
X164013285Y-113364666D01*
X163975190Y-113440857D01*
X163975190Y-113859904D01*
X163975190Y-113440857D02*
X163937095Y-113364666D01*
X163860904Y-113326571D01*
X163746619Y-113326571D01*
X163670428Y-113364666D01*
X163632333Y-113440857D01*
X163632333Y-113859904D01*
X162679952Y-113021809D02*
X163365666Y-114050380D01*
X162413285Y-113326571D02*
X162413285Y-113859904D01*
X162413285Y-113402761D02*
X162375190Y-113364666D01*
X162298999Y-113326571D01*
X162184714Y-113326571D01*
X162108523Y-113364666D01*
X162070428Y-113440857D01*
X162070428Y-113859904D01*
X161689476Y-113859904D02*
X161689476Y-113326571D01*
X161689476Y-113478952D02*
X161651380Y-113402761D01*
X161613285Y-113364666D01*
X161537095Y-113326571D01*
X161460904Y-113326571D01*
X161194238Y-113859904D02*
X161194238Y-113326571D01*
X161194238Y-113059904D02*
X161232333Y-113098000D01*
X161194238Y-113136095D01*
X161156142Y-113098000D01*
X161194238Y-113059904D01*
X161194238Y-113136095D01*
X160889476Y-113326571D02*
X160698999Y-113859904D01*
X160508523Y-113326571D01*
X159860904Y-113859904D02*
X159860904Y-113440857D01*
X159898999Y-113364666D01*
X159975190Y-113326571D01*
X160127571Y-113326571D01*
X160203761Y-113364666D01*
X159860904Y-113821809D02*
X159937095Y-113859904D01*
X160127571Y-113859904D01*
X160203761Y-113821809D01*
X160241857Y-113745619D01*
X160241857Y-113669428D01*
X160203761Y-113593238D01*
X160127571Y-113555142D01*
X159937095Y-113555142D01*
X159860904Y-113517047D01*
X159479952Y-113859904D02*
X159479952Y-113326571D01*
X159479952Y-113478952D02*
X159441857Y-113402761D01*
X159403761Y-113364666D01*
X159327571Y-113326571D01*
X159251380Y-113326571D01*
X158641857Y-113859904D02*
X158641857Y-113059904D01*
X158641857Y-113821809D02*
X158718047Y-113859904D01*
X158870428Y-113859904D01*
X158946619Y-113821809D01*
X158984714Y-113783714D01*
X159022809Y-113707523D01*
X159022809Y-113478952D01*
X158984714Y-113402761D01*
X158946619Y-113364666D01*
X158870428Y-113326571D01*
X158718047Y-113326571D01*
X158641857Y-113364666D01*
X157689476Y-113021809D02*
X158375190Y-114050380D01*
X157308523Y-113859904D02*
X157384714Y-113821809D01*
X157422809Y-113745619D01*
X157422809Y-113059904D01*
X157003761Y-113859904D02*
X157003761Y-113326571D01*
X157003761Y-113402761D02*
X156965666Y-113364666D01*
X156889476Y-113326571D01*
X156775190Y-113326571D01*
X156699000Y-113364666D01*
X156660904Y-113440857D01*
X156660904Y-113859904D01*
X156660904Y-113440857D02*
X156622809Y-113364666D01*
X156546619Y-113326571D01*
X156432333Y-113326571D01*
X156356142Y-113364666D01*
X156318047Y-113440857D01*
X156318047Y-113859904D01*
X155594238Y-113859904D02*
X155594238Y-113440857D01*
X155632333Y-113364666D01*
X155708523Y-113326571D01*
X155860904Y-113326571D01*
X155937095Y-113364666D01*
X155594238Y-113821809D02*
X155670428Y-113859904D01*
X155860904Y-113859904D01*
X155937095Y-113821809D01*
X155975190Y-113745619D01*
X155975190Y-113669428D01*
X155937095Y-113593238D01*
X155860904Y-113555142D01*
X155670428Y-113555142D01*
X155594238Y-113517047D01*
X155099000Y-113859904D02*
X155175190Y-113821809D01*
X155213285Y-113783714D01*
X155251380Y-113707523D01*
X155251380Y-113478952D01*
X155213285Y-113402761D01*
X155175190Y-113364666D01*
X155099000Y-113326571D01*
X154984714Y-113326571D01*
X154908523Y-113364666D01*
X154870428Y-113402761D01*
X154832333Y-113478952D01*
X154832333Y-113707523D01*
X154870428Y-113783714D01*
X154908523Y-113821809D01*
X154984714Y-113859904D01*
X155099000Y-113859904D01*
X154527571Y-113821809D02*
X154451380Y-113859904D01*
X154299000Y-113859904D01*
X154222809Y-113821809D01*
X154184714Y-113745619D01*
X154184714Y-113707523D01*
X154222809Y-113631333D01*
X154299000Y-113593238D01*
X154413285Y-113593238D01*
X154489476Y-113555142D01*
X154527571Y-113478952D01*
X154527571Y-113440857D01*
X154489476Y-113364666D01*
X154413285Y-113326571D01*
X154299000Y-113326571D01*
X154222809Y-113364666D01*
X175022809Y-114409904D02*
X174756142Y-115209904D01*
X174489476Y-114409904D01*
X173918047Y-115171809D02*
X173994238Y-115209904D01*
X174146619Y-115209904D01*
X174222809Y-115171809D01*
X174260904Y-115095619D01*
X174260904Y-114790857D01*
X174222809Y-114714666D01*
X174146619Y-114676571D01*
X173994238Y-114676571D01*
X173918047Y-114714666D01*
X173879952Y-114790857D01*
X173879952Y-114867047D01*
X174260904Y-114943238D01*
X173537095Y-115209904D02*
X173537095Y-114676571D01*
X173537095Y-114828952D02*
X173499000Y-114752761D01*
X173460904Y-114714666D01*
X173384714Y-114676571D01*
X173308523Y-114676571D01*
X173079952Y-115171809D02*
X173003761Y-115209904D01*
X172851380Y-115209904D01*
X172775190Y-115171809D01*
X172737095Y-115095619D01*
X172737095Y-115057523D01*
X172775190Y-114981333D01*
X172851380Y-114943238D01*
X172965666Y-114943238D01*
X173041857Y-114905142D01*
X173079952Y-114828952D01*
X173079952Y-114790857D01*
X173041857Y-114714666D01*
X172965666Y-114676571D01*
X172851380Y-114676571D01*
X172775190Y-114714666D01*
X172394238Y-115209904D02*
X172394238Y-114676571D01*
X172394238Y-114409904D02*
X172432333Y-114448000D01*
X172394238Y-114486095D01*
X172356142Y-114448000D01*
X172394238Y-114409904D01*
X172394238Y-114486095D01*
X171899000Y-115209904D02*
X171975190Y-115171809D01*
X172013285Y-115133714D01*
X172051380Y-115057523D01*
X172051380Y-114828952D01*
X172013285Y-114752761D01*
X171975190Y-114714666D01*
X171899000Y-114676571D01*
X171784714Y-114676571D01*
X171708523Y-114714666D01*
X171670428Y-114752761D01*
X171632333Y-114828952D01*
X171632333Y-115057523D01*
X171670428Y-115133714D01*
X171708523Y-115171809D01*
X171784714Y-115209904D01*
X171899000Y-115209904D01*
X171289476Y-114676571D02*
X171289476Y-115209904D01*
X171289476Y-114752761D02*
X171251380Y-114714666D01*
X171175190Y-114676571D01*
X171060904Y-114676571D01*
X170984714Y-114714666D01*
X170946619Y-114790857D01*
X170946619Y-115209904D01*
X169537095Y-115209904D02*
X169994238Y-115209904D01*
X169765666Y-115209904D02*
X169765666Y-114409904D01*
X169841857Y-114524190D01*
X169918047Y-114600380D01*
X169994238Y-114638476D01*
X174908523Y-116559904D02*
X174908523Y-115759904D01*
X174641857Y-116331333D01*
X174375190Y-115759904D01*
X174375190Y-116559904D01*
X173651380Y-116559904D02*
X173651380Y-116140857D01*
X173689476Y-116064666D01*
X173765666Y-116026571D01*
X173918047Y-116026571D01*
X173994238Y-116064666D01*
X173651380Y-116521809D02*
X173727571Y-116559904D01*
X173918047Y-116559904D01*
X173994238Y-116521809D01*
X174032333Y-116445619D01*
X174032333Y-116369428D01*
X173994238Y-116293238D01*
X173918047Y-116255142D01*
X173727571Y-116255142D01*
X173651380Y-116217047D01*
X173270428Y-116559904D02*
X173270428Y-116026571D01*
X173270428Y-116178952D02*
X173232333Y-116102761D01*
X173194238Y-116064666D01*
X173118047Y-116026571D01*
X173041857Y-116026571D01*
X172203761Y-115836095D02*
X172165666Y-115798000D01*
X172089476Y-115759904D01*
X171899000Y-115759904D01*
X171822809Y-115798000D01*
X171784714Y-115836095D01*
X171746619Y-115912285D01*
X171746619Y-115988476D01*
X171784714Y-116102761D01*
X172241857Y-116559904D01*
X171746619Y-116559904D01*
X171251380Y-115759904D02*
X171175190Y-115759904D01*
X171099000Y-115798000D01*
X171060904Y-115836095D01*
X171022809Y-115912285D01*
X170984714Y-116064666D01*
X170984714Y-116255142D01*
X171022809Y-116407523D01*
X171060904Y-116483714D01*
X171099000Y-116521809D01*
X171175190Y-116559904D01*
X171251380Y-116559904D01*
X171327571Y-116521809D01*
X171365666Y-116483714D01*
X171403761Y-116407523D01*
X171441857Y-116255142D01*
X171441857Y-116064666D01*
X171403761Y-115912285D01*
X171365666Y-115836095D01*
X171327571Y-115798000D01*
X171251380Y-115759904D01*
X170679952Y-115836095D02*
X170641857Y-115798000D01*
X170565666Y-115759904D01*
X170375190Y-115759904D01*
X170299000Y-115798000D01*
X170260904Y-115836095D01*
X170222809Y-115912285D01*
X170222809Y-115988476D01*
X170260904Y-116102761D01*
X170718047Y-116559904D01*
X170222809Y-116559904D01*
X169460904Y-116559904D02*
X169918047Y-116559904D01*
X169689476Y-116559904D02*
X169689476Y-115759904D01*
X169765666Y-115874190D01*
X169841857Y-115950380D01*
X169918047Y-115988476D01*
D11*
%TO.C,J1*%
X108839000Y-111379000D02*
X108839000Y-112649000D01*
X110109000Y-111379000D02*
X108839000Y-111379000D01*
X148589000Y-113691929D02*
X148589000Y-114146071D01*
X147829000Y-113691929D02*
X147829000Y-114146071D01*
X148589000Y-116231929D02*
X148589000Y-116629000D01*
X147829000Y-116231929D02*
X147829000Y-116629000D01*
X148589000Y-125289000D02*
X148589000Y-119289000D01*
X147829000Y-125289000D02*
X148589000Y-125289000D01*
X147829000Y-119289000D02*
X147829000Y-125289000D01*
X146939000Y-116629000D02*
X146939000Y-119289000D01*
X146049000Y-113691929D02*
X146049000Y-114146071D01*
X145289000Y-113691929D02*
X145289000Y-114146071D01*
X146049000Y-116231929D02*
X146049000Y-116629000D01*
X145289000Y-116231929D02*
X145289000Y-116629000D01*
X146049000Y-125289000D02*
X146049000Y-119289000D01*
X145289000Y-125289000D02*
X146049000Y-125289000D01*
X145289000Y-119289000D02*
X145289000Y-125289000D01*
X144399000Y-116629000D02*
X144399000Y-119289000D01*
X143509000Y-113691929D02*
X143509000Y-114146071D01*
X142749000Y-113691929D02*
X142749000Y-114146071D01*
X143509000Y-116231929D02*
X143509000Y-116629000D01*
X142749000Y-116231929D02*
X142749000Y-116629000D01*
X143509000Y-125289000D02*
X143509000Y-119289000D01*
X142749000Y-125289000D02*
X143509000Y-125289000D01*
X142749000Y-119289000D02*
X142749000Y-125289000D01*
X141859000Y-116629000D02*
X141859000Y-119289000D01*
X140969000Y-113691929D02*
X140969000Y-114146071D01*
X140209000Y-113691929D02*
X140209000Y-114146071D01*
X140969000Y-116231929D02*
X140969000Y-116629000D01*
X140209000Y-116231929D02*
X140209000Y-116629000D01*
X140969000Y-125289000D02*
X140969000Y-119289000D01*
X140209000Y-125289000D02*
X140969000Y-125289000D01*
X140209000Y-119289000D02*
X140209000Y-125289000D01*
X139319000Y-116629000D02*
X139319000Y-119289000D01*
X138429000Y-113691929D02*
X138429000Y-114146071D01*
X137669000Y-113691929D02*
X137669000Y-114146071D01*
X138429000Y-116231929D02*
X138429000Y-116629000D01*
X137669000Y-116231929D02*
X137669000Y-116629000D01*
X138429000Y-125289000D02*
X138429000Y-119289000D01*
X137669000Y-125289000D02*
X138429000Y-125289000D01*
X137669000Y-119289000D02*
X137669000Y-125289000D01*
X136779000Y-116629000D02*
X136779000Y-119289000D01*
X135889000Y-113691929D02*
X135889000Y-114146071D01*
X135129000Y-113691929D02*
X135129000Y-114146071D01*
X135889000Y-116231929D02*
X135889000Y-116629000D01*
X135129000Y-116231929D02*
X135129000Y-116629000D01*
X135889000Y-125289000D02*
X135889000Y-119289000D01*
X135129000Y-125289000D02*
X135889000Y-125289000D01*
X135129000Y-119289000D02*
X135129000Y-125289000D01*
X134239000Y-116629000D02*
X134239000Y-119289000D01*
X133349000Y-113691929D02*
X133349000Y-114146071D01*
X132589000Y-113691929D02*
X132589000Y-114146071D01*
X133349000Y-116231929D02*
X133349000Y-116629000D01*
X132589000Y-116231929D02*
X132589000Y-116629000D01*
X133349000Y-125289000D02*
X133349000Y-119289000D01*
X132589000Y-125289000D02*
X133349000Y-125289000D01*
X132589000Y-119289000D02*
X132589000Y-125289000D01*
X131699000Y-116629000D02*
X131699000Y-119289000D01*
X130809000Y-113691929D02*
X130809000Y-114146071D01*
X130049000Y-113691929D02*
X130049000Y-114146071D01*
X130809000Y-116231929D02*
X130809000Y-116629000D01*
X130049000Y-116231929D02*
X130049000Y-116629000D01*
X130809000Y-125289000D02*
X130809000Y-119289000D01*
X130049000Y-125289000D02*
X130809000Y-125289000D01*
X130049000Y-119289000D02*
X130049000Y-125289000D01*
X129159000Y-116629000D02*
X129159000Y-119289000D01*
X128269000Y-113691929D02*
X128269000Y-114146071D01*
X127509000Y-113691929D02*
X127509000Y-114146071D01*
X128269000Y-116231929D02*
X128269000Y-116629000D01*
X127509000Y-116231929D02*
X127509000Y-116629000D01*
X128269000Y-125289000D02*
X128269000Y-119289000D01*
X127509000Y-125289000D02*
X128269000Y-125289000D01*
X127509000Y-119289000D02*
X127509000Y-125289000D01*
X126619000Y-116629000D02*
X126619000Y-119289000D01*
X125729000Y-113691929D02*
X125729000Y-114146071D01*
X124969000Y-113691929D02*
X124969000Y-114146071D01*
X125729000Y-116231929D02*
X125729000Y-116629000D01*
X124969000Y-116231929D02*
X124969000Y-116629000D01*
X125729000Y-125289000D02*
X125729000Y-119289000D01*
X124969000Y-125289000D02*
X125729000Y-125289000D01*
X124969000Y-119289000D02*
X124969000Y-125289000D01*
X124079000Y-116629000D02*
X124079000Y-119289000D01*
X123189000Y-113691929D02*
X123189000Y-114146071D01*
X122429000Y-113691929D02*
X122429000Y-114146071D01*
X123189000Y-116231929D02*
X123189000Y-116629000D01*
X122429000Y-116231929D02*
X122429000Y-116629000D01*
X123189000Y-125289000D02*
X123189000Y-119289000D01*
X122429000Y-125289000D02*
X123189000Y-125289000D01*
X122429000Y-119289000D02*
X122429000Y-125289000D01*
X121539000Y-116629000D02*
X121539000Y-119289000D01*
X120649000Y-113691929D02*
X120649000Y-114146071D01*
X119889000Y-113691929D02*
X119889000Y-114146071D01*
X120649000Y-116231929D02*
X120649000Y-116629000D01*
X119889000Y-116231929D02*
X119889000Y-116629000D01*
X120649000Y-125289000D02*
X120649000Y-119289000D01*
X119889000Y-125289000D02*
X120649000Y-125289000D01*
X119889000Y-119289000D02*
X119889000Y-125289000D01*
X118999000Y-116629000D02*
X118999000Y-119289000D01*
X118109000Y-113691929D02*
X118109000Y-114146071D01*
X117349000Y-113691929D02*
X117349000Y-114146071D01*
X118109000Y-116231929D02*
X118109000Y-116629000D01*
X117349000Y-116231929D02*
X117349000Y-116629000D01*
X118109000Y-125289000D02*
X118109000Y-119289000D01*
X117349000Y-125289000D02*
X118109000Y-125289000D01*
X117349000Y-119289000D02*
X117349000Y-125289000D01*
X116459000Y-116629000D02*
X116459000Y-119289000D01*
X115569000Y-113691929D02*
X115569000Y-114146071D01*
X114809000Y-113691929D02*
X114809000Y-114146071D01*
X115569000Y-116231929D02*
X115569000Y-116629000D01*
X114809000Y-116231929D02*
X114809000Y-116629000D01*
X115569000Y-125289000D02*
X115569000Y-119289000D01*
X114809000Y-125289000D02*
X115569000Y-125289000D01*
X114809000Y-119289000D02*
X114809000Y-125289000D01*
X113919000Y-116629000D02*
X113919000Y-119289000D01*
X113029000Y-113691929D02*
X113029000Y-114146071D01*
X112269000Y-113691929D02*
X112269000Y-114146071D01*
X113029000Y-116231929D02*
X113029000Y-116629000D01*
X112269000Y-116231929D02*
X112269000Y-116629000D01*
X113029000Y-125289000D02*
X113029000Y-119289000D01*
X112269000Y-125289000D02*
X113029000Y-125289000D01*
X112269000Y-119289000D02*
X112269000Y-125289000D01*
X111379000Y-116629000D02*
X111379000Y-119289000D01*
X110489000Y-113759000D02*
X110489000Y-114146071D01*
X109729000Y-113759000D02*
X109729000Y-114146071D01*
X110489000Y-116231929D02*
X110489000Y-116629000D01*
X109729000Y-116231929D02*
X109729000Y-116629000D01*
X110389000Y-119289000D02*
X110389000Y-125289000D01*
X110269000Y-119289000D02*
X110269000Y-125289000D01*
X110149000Y-119289000D02*
X110149000Y-125289000D01*
X110029000Y-119289000D02*
X110029000Y-125289000D01*
X109909000Y-119289000D02*
X109909000Y-125289000D01*
X109789000Y-119289000D02*
X109789000Y-125289000D01*
X110489000Y-125289000D02*
X110489000Y-119289000D01*
X109729000Y-125289000D02*
X110489000Y-125289000D01*
X109729000Y-119289000D02*
X109729000Y-125289000D01*
X108779000Y-119289000D02*
X108779000Y-116629000D01*
X149539000Y-119289000D02*
X108779000Y-119289000D01*
X149539000Y-116629000D02*
X149539000Y-119289000D01*
X108779000Y-116629000D02*
X149539000Y-116629000D01*
D10*
X107291380Y-117970666D02*
X108005666Y-117970666D01*
X108148523Y-117923047D01*
X108243761Y-117827809D01*
X108291380Y-117684952D01*
X108291380Y-117589714D01*
X108291380Y-118970666D02*
X108291380Y-118399238D01*
X108291380Y-118684952D02*
X107291380Y-118684952D01*
X107434238Y-118589714D01*
X107529476Y-118494476D01*
X107577095Y-118399238D01*
%TD*%
M02*
