%TF.GenerationSoftware,KiCad,Pcbnew,(5.1.12-1-10_14)*%
%TF.CreationDate,2022-01-05T16:58:03+01:00*%
%TF.ProjectId,kids serial,6b696473-2073-4657-9269-616c2e6b6963,rev?*%
%TF.SameCoordinates,Original*%
%TF.FileFunction,Copper,L2,Bot*%
%TF.FilePolarity,Positive*%
%FSLAX46Y46*%
G04 Gerber Fmt 4.6, Leading zero omitted, Abs format (unit mm)*
G04 Created by KiCad (PCBNEW (5.1.12-1-10_14)) date 2022-01-05 16:58:03*
%MOMM*%
%LPD*%
G01*
G04 APERTURE LIST*
%TA.AperFunction,ComponentPad*%
%ADD10O,1.700000X1.700000*%
%TD*%
%TA.AperFunction,ComponentPad*%
%ADD11R,1.700000X1.700000*%
%TD*%
%TA.AperFunction,ComponentPad*%
%ADD12O,1.600000X1.600000*%
%TD*%
%TA.AperFunction,ComponentPad*%
%ADD13R,1.600000X1.600000*%
%TD*%
%TA.AperFunction,ComponentPad*%
%ADD14C,1.600000*%
%TD*%
%TA.AperFunction,ViaPad*%
%ADD15C,0.800000*%
%TD*%
%TA.AperFunction,Conductor*%
%ADD16C,0.500000*%
%TD*%
%TA.AperFunction,Conductor*%
%ADD17C,0.250000*%
%TD*%
%TA.AperFunction,Conductor*%
%ADD18C,0.254000*%
%TD*%
%TA.AperFunction,Conductor*%
%ADD19C,0.100000*%
%TD*%
G04 APERTURE END LIST*
D10*
%TO.P,J1,32*%
%TO.N,+5V*%
X109016800Y-115138200D03*
%TO.P,J1,31*%
X109016800Y-112598200D03*
%TO.P,J1,30*%
%TO.N,GND*%
X111556800Y-115138200D03*
%TO.P,J1,29*%
X111556800Y-112598200D03*
%TO.P,J1,28*%
%TO.N,/A0*%
X114096800Y-115138200D03*
%TO.P,J1,27*%
%TO.N,/D0*%
X114096800Y-112598200D03*
%TO.P,J1,26*%
%TO.N,/A1*%
X116636800Y-115138200D03*
%TO.P,J1,25*%
%TO.N,/D1*%
X116636800Y-112598200D03*
%TO.P,J1,24*%
%TO.N,/A2*%
X119176800Y-115138200D03*
%TO.P,J1,23*%
%TO.N,/D2*%
X119176800Y-112598200D03*
%TO.P,J1,22*%
%TO.N,/A3*%
X121716800Y-115138200D03*
%TO.P,J1,21*%
%TO.N,/D3*%
X121716800Y-112598200D03*
%TO.P,J1,20*%
%TO.N,/A4*%
X124256800Y-115138200D03*
%TO.P,J1,19*%
%TO.N,/D4*%
X124256800Y-112598200D03*
%TO.P,J1,18*%
%TO.N,/A5*%
X126796800Y-115138200D03*
%TO.P,J1,17*%
%TO.N,/D5*%
X126796800Y-112598200D03*
%TO.P,J1,16*%
%TO.N,~CS*%
X129336800Y-115138200D03*
%TO.P,J1,15*%
%TO.N,/D6*%
X129336800Y-112598200D03*
%TO.P,J1,14*%
%TO.N,R~W*%
X131876800Y-115138200D03*
%TO.P,J1,13*%
%TO.N,/D7*%
X131876800Y-112598200D03*
%TO.P,J1,12*%
%TO.N,CLK*%
X134416800Y-115138200D03*
%TO.P,J1,11*%
%TO.N,~IRQ*%
X134416800Y-112598200D03*
%TO.P,J1,10*%
%TO.N,~RES*%
X136956800Y-115138200D03*
%TO.P,J1,9*%
%TO.N,Net-(J1-Pad9)*%
X136956800Y-112598200D03*
%TO.P,J1,8*%
%TO.N,Net-(J1-Pad8)*%
X139496800Y-115138200D03*
%TO.P,J1,7*%
%TO.N,Net-(J1-Pad7)*%
X139496800Y-112598200D03*
%TO.P,J1,6*%
%TO.N,Net-(J1-Pad6)*%
X142036800Y-115138200D03*
%TO.P,J1,5*%
%TO.N,Net-(J1-Pad5)*%
X142036800Y-112598200D03*
%TO.P,J1,4*%
%TO.N,+5V*%
X144576800Y-115138200D03*
%TO.P,J1,3*%
X144576800Y-112598200D03*
%TO.P,J1,2*%
%TO.N,GND*%
X147116800Y-115138200D03*
D11*
%TO.P,J1,1*%
X147116800Y-112598200D03*
%TD*%
D12*
%TO.P,U1,28*%
%TO.N,R~W*%
X143129000Y-103251000D03*
%TO.P,U1,14*%
%TO.N,/A1*%
X110109000Y-88011000D03*
%TO.P,U1,27*%
%TO.N,CLK*%
X140589000Y-103251000D03*
%TO.P,U1,13*%
%TO.N,/A0*%
X112649000Y-88011000D03*
%TO.P,U1,26*%
%TO.N,~IRQ*%
X138049000Y-103251000D03*
%TO.P,U1,12*%
%TO.N,TXD_IO*%
X115189000Y-88011000D03*
%TO.P,U1,25*%
%TO.N,/D7*%
X135509000Y-103251000D03*
%TO.P,U1,11*%
%TO.N,Net-(U1-Pad11)*%
X117729000Y-88011000D03*
%TO.P,U1,24*%
%TO.N,/D6*%
X132969000Y-103251000D03*
%TO.P,U1,10*%
%TO.N,RXD_IO*%
X120269000Y-88011000D03*
%TO.P,U1,23*%
%TO.N,/D5*%
X130429000Y-103251000D03*
%TO.P,U1,9*%
%TO.N,~RTS_IO*%
X122809000Y-88011000D03*
%TO.P,U1,22*%
%TO.N,/D4*%
X127889000Y-103251000D03*
%TO.P,U1,8*%
%TO.N,~CTS_IO*%
X125349000Y-88011000D03*
%TO.P,U1,21*%
%TO.N,/D3*%
X125349000Y-103251000D03*
%TO.P,U1,7*%
%TO.N,Net-(U1-Pad7)*%
X127889000Y-88011000D03*
%TO.P,U1,20*%
%TO.N,/D2*%
X122809000Y-103251000D03*
%TO.P,U1,6*%
%TO.N,XTAL_CLK*%
X130429000Y-88011000D03*
%TO.P,U1,19*%
%TO.N,/D1*%
X120269000Y-103251000D03*
%TO.P,U1,5*%
%TO.N,Net-(U1-Pad5)*%
X132969000Y-88011000D03*
%TO.P,U1,18*%
%TO.N,/D0*%
X117729000Y-103251000D03*
%TO.P,U1,4*%
%TO.N,~RES*%
X135509000Y-88011000D03*
%TO.P,U1,17*%
%TO.N,GND*%
X115189000Y-103251000D03*
%TO.P,U1,3*%
%TO.N,~CS*%
X138049000Y-88011000D03*
%TO.P,U1,16*%
%TO.N,GND*%
X112649000Y-103251000D03*
%TO.P,U1,2*%
%TO.N,+5V*%
X140589000Y-88011000D03*
%TO.P,U1,15*%
X110109000Y-103251000D03*
D13*
%TO.P,U1,1*%
%TO.N,GND*%
X143129000Y-88011000D03*
%TD*%
D10*
%TO.P,J3,2*%
%TO.N,VCC_IO*%
X166243000Y-84328000D03*
D11*
%TO.P,J3,1*%
%TO.N,+5V*%
X166243000Y-81788000D03*
%TD*%
D10*
%TO.P,J2,6*%
%TO.N,~CTS_IO*%
X166243000Y-102235000D03*
%TO.P,J2,5*%
%TO.N,~RTS_IO*%
X166243000Y-99695000D03*
%TO.P,J2,4*%
%TO.N,RXD_IO*%
X166243000Y-97155000D03*
%TO.P,J2,3*%
%TO.N,TXD_IO*%
X166243000Y-94615000D03*
%TO.P,J2,2*%
%TO.N,GND*%
X166243000Y-92075000D03*
D11*
%TO.P,J2,1*%
%TO.N,VCC_IO*%
X166243000Y-89535000D03*
%TD*%
D14*
%TO.P,C1,2*%
%TO.N,GND*%
X105537000Y-100370000D03*
%TO.P,C1,1*%
%TO.N,+5V*%
X105537000Y-102870000D03*
%TD*%
D13*
%TO.P,X1,1*%
%TO.N,Net-(X1-Pad1)*%
X158750000Y-103251000D03*
D14*
%TO.P,X1,14*%
%TO.N,+5V*%
X151130000Y-103251000D03*
%TO.P,X1,8*%
%TO.N,XTAL_CLK*%
X151130000Y-88011000D03*
%TO.P,X1,7*%
%TO.N,GND*%
X158750000Y-88011000D03*
%TD*%
D15*
%TO.N,GND*%
X126873000Y-95758000D03*
X166243000Y-108585000D03*
X166243000Y-78359000D03*
X105537000Y-78359000D03*
X137033000Y-78486000D03*
%TD*%
D16*
%TO.N,+5V*%
X146812000Y-81788000D02*
X166243000Y-81788000D01*
X140589000Y-88011000D02*
X146812000Y-81788000D01*
X151130000Y-98552000D02*
X140589000Y-88011000D01*
X151130000Y-103251000D02*
X151130000Y-98552000D01*
X143176799Y-116538201D02*
X144576800Y-115138200D01*
X110416801Y-116538201D02*
X143176799Y-116538201D01*
X109016800Y-115138200D02*
X110416801Y-116538201D01*
%TO.N,GND*%
X162814000Y-92075000D02*
X158750000Y-88011000D01*
X166243000Y-92075000D02*
X162814000Y-92075000D01*
X144479001Y-86660999D02*
X143129000Y-88011000D01*
X157399999Y-86660999D02*
X144479001Y-86660999D01*
X158750000Y-88011000D02*
X157399999Y-86660999D01*
X147116800Y-111201200D02*
X147116800Y-112598200D01*
X166243000Y-92075000D02*
X147116800Y-111201200D01*
X147116800Y-112598200D02*
X147116800Y-115138200D01*
D17*
%TO.N,/A0*%
X112921799Y-113963199D02*
X114096800Y-115138200D01*
X112921799Y-112034199D02*
X112921799Y-113963199D01*
X113874001Y-111081997D02*
X112921799Y-112034199D01*
X113874001Y-89236001D02*
X113874001Y-111081997D01*
X112649000Y-88011000D02*
X113874001Y-89236001D01*
%TO.N,/A1*%
X115461799Y-113963199D02*
X116636800Y-115138200D01*
X116414001Y-110966799D02*
X115461799Y-111919001D01*
X116414001Y-87572301D02*
X116414001Y-110966799D01*
X115727699Y-86885999D02*
X116414001Y-87572301D01*
X111234001Y-86885999D02*
X115727699Y-86885999D01*
X115461799Y-111919001D02*
X115461799Y-113963199D01*
X110109000Y-88011000D02*
X111234001Y-86885999D01*
%TO.N,~CS*%
X130511801Y-113963199D02*
X129336800Y-115138200D01*
X130511801Y-112224197D02*
X130511801Y-113963199D01*
X134094001Y-108641997D02*
X130511801Y-112224197D01*
X134094001Y-91965999D02*
X134094001Y-108641997D01*
X138049000Y-88011000D02*
X134094001Y-91965999D01*
%TO.N,~RES*%
X138131801Y-113963199D02*
X136956800Y-115138200D01*
X139363999Y-110991999D02*
X138131801Y-112224197D01*
X138589001Y-86885999D02*
X139363999Y-87660997D01*
X138131801Y-112224197D02*
X138131801Y-113963199D01*
X136634001Y-86885999D02*
X138589001Y-86885999D01*
X139363999Y-87660997D02*
X139363999Y-110991999D01*
X135509000Y-88011000D02*
X136634001Y-86885999D01*
%TD*%
D18*
%TO.N,GND*%
X102582353Y-75488000D02*
X171201620Y-75488000D01*
X176099000Y-80385381D01*
X176099001Y-115984647D01*
X176108289Y-116078951D01*
X176094766Y-116216876D01*
X176017551Y-116472624D01*
X175892131Y-116708504D01*
X175723289Y-116915525D01*
X175517446Y-117085813D01*
X175282444Y-117212879D01*
X175027240Y-117291877D01*
X174880291Y-117307322D01*
X174785647Y-117298000D01*
X143632714Y-117298000D01*
X143670858Y-117277612D01*
X143805616Y-117167018D01*
X143833333Y-117133245D01*
X144357840Y-116608739D01*
X144430540Y-116623200D01*
X144723060Y-116623200D01*
X145009958Y-116566132D01*
X145280211Y-116454190D01*
X145523432Y-116291675D01*
X145730275Y-116084832D01*
X145851995Y-115902666D01*
X145921622Y-116019555D01*
X146116531Y-116235788D01*
X146349880Y-116409841D01*
X146612701Y-116535025D01*
X146759910Y-116579676D01*
X146989800Y-116458355D01*
X146989800Y-115265200D01*
X147243800Y-115265200D01*
X147243800Y-116458355D01*
X147473690Y-116579676D01*
X147620899Y-116535025D01*
X147883720Y-116409841D01*
X148117069Y-116235788D01*
X148311978Y-116019555D01*
X148460957Y-115769452D01*
X148558281Y-115495091D01*
X148437614Y-115265200D01*
X147243800Y-115265200D01*
X146989800Y-115265200D01*
X146969800Y-115265200D01*
X146969800Y-115011200D01*
X146989800Y-115011200D01*
X146989800Y-112725200D01*
X147243800Y-112725200D01*
X147243800Y-115011200D01*
X148437614Y-115011200D01*
X148558281Y-114781309D01*
X148460957Y-114506948D01*
X148311978Y-114256845D01*
X148135174Y-114060698D01*
X148210980Y-114037702D01*
X148321294Y-113978737D01*
X148417985Y-113899385D01*
X148497337Y-113802694D01*
X148556302Y-113692380D01*
X148592612Y-113572682D01*
X148604872Y-113448200D01*
X148601800Y-112883950D01*
X148443050Y-112725200D01*
X147243800Y-112725200D01*
X146989800Y-112725200D01*
X146969800Y-112725200D01*
X146969800Y-112471200D01*
X146989800Y-112471200D01*
X146989800Y-111271950D01*
X147243800Y-111271950D01*
X147243800Y-112471200D01*
X148443050Y-112471200D01*
X148601800Y-112312450D01*
X148604872Y-111748200D01*
X148592612Y-111623718D01*
X148556302Y-111504020D01*
X148497337Y-111393706D01*
X148417985Y-111297015D01*
X148321294Y-111217663D01*
X148210980Y-111158698D01*
X148091282Y-111122388D01*
X147966800Y-111110128D01*
X147402550Y-111113200D01*
X147243800Y-111271950D01*
X146989800Y-111271950D01*
X146831050Y-111113200D01*
X146266800Y-111110128D01*
X146142318Y-111122388D01*
X146022620Y-111158698D01*
X145912306Y-111217663D01*
X145815615Y-111297015D01*
X145736263Y-111393706D01*
X145677298Y-111504020D01*
X145655287Y-111576580D01*
X145523432Y-111444725D01*
X145280211Y-111282210D01*
X145009958Y-111170268D01*
X144723060Y-111113200D01*
X144430540Y-111113200D01*
X144143642Y-111170268D01*
X143873389Y-111282210D01*
X143630168Y-111444725D01*
X143423325Y-111651568D01*
X143306800Y-111825960D01*
X143190275Y-111651568D01*
X142983432Y-111444725D01*
X142740211Y-111282210D01*
X142469958Y-111170268D01*
X142183060Y-111113200D01*
X141890540Y-111113200D01*
X141603642Y-111170268D01*
X141333389Y-111282210D01*
X141090168Y-111444725D01*
X140883325Y-111651568D01*
X140766800Y-111825960D01*
X140650275Y-111651568D01*
X140443432Y-111444725D01*
X140200211Y-111282210D01*
X140084679Y-111234355D01*
X140104201Y-111169998D01*
X140113002Y-111140985D01*
X140123999Y-111029332D01*
X140123999Y-111029323D01*
X140127675Y-110992000D01*
X140123999Y-110954677D01*
X140123999Y-104611622D01*
X140170426Y-104630853D01*
X140447665Y-104686000D01*
X140730335Y-104686000D01*
X141007574Y-104630853D01*
X141268727Y-104522680D01*
X141503759Y-104365637D01*
X141703637Y-104165759D01*
X141859000Y-103933241D01*
X142014363Y-104165759D01*
X142214241Y-104365637D01*
X142449273Y-104522680D01*
X142710426Y-104630853D01*
X142987665Y-104686000D01*
X143270335Y-104686000D01*
X143547574Y-104630853D01*
X143808727Y-104522680D01*
X144043759Y-104365637D01*
X144243637Y-104165759D01*
X144400680Y-103930727D01*
X144508853Y-103669574D01*
X144564000Y-103392335D01*
X144564000Y-103109665D01*
X144508853Y-102832426D01*
X144400680Y-102571273D01*
X144243637Y-102336241D01*
X144043759Y-102136363D01*
X143808727Y-101979320D01*
X143547574Y-101871147D01*
X143270335Y-101816000D01*
X142987665Y-101816000D01*
X142710426Y-101871147D01*
X142449273Y-101979320D01*
X142214241Y-102136363D01*
X142014363Y-102336241D01*
X141859000Y-102568759D01*
X141703637Y-102336241D01*
X141503759Y-102136363D01*
X141268727Y-101979320D01*
X141007574Y-101871147D01*
X140730335Y-101816000D01*
X140447665Y-101816000D01*
X140170426Y-101871147D01*
X140123999Y-101890378D01*
X140123999Y-89371622D01*
X140170426Y-89390853D01*
X140447665Y-89446000D01*
X140730335Y-89446000D01*
X140765439Y-89439017D01*
X150245001Y-98918580D01*
X150245000Y-102116479D01*
X150215241Y-102136363D01*
X150015363Y-102336241D01*
X149858320Y-102571273D01*
X149750147Y-102832426D01*
X149695000Y-103109665D01*
X149695000Y-103392335D01*
X149750147Y-103669574D01*
X149858320Y-103930727D01*
X150015363Y-104165759D01*
X150215241Y-104365637D01*
X150450273Y-104522680D01*
X150711426Y-104630853D01*
X150988665Y-104686000D01*
X151271335Y-104686000D01*
X151548574Y-104630853D01*
X151809727Y-104522680D01*
X152044759Y-104365637D01*
X152244637Y-104165759D01*
X152401680Y-103930727D01*
X152509853Y-103669574D01*
X152565000Y-103392335D01*
X152565000Y-103109665D01*
X152509853Y-102832426D01*
X152401680Y-102571273D01*
X152321317Y-102451000D01*
X157311928Y-102451000D01*
X157311928Y-104051000D01*
X157324188Y-104175482D01*
X157360498Y-104295180D01*
X157419463Y-104405494D01*
X157498815Y-104502185D01*
X157595506Y-104581537D01*
X157705820Y-104640502D01*
X157825518Y-104676812D01*
X157950000Y-104689072D01*
X159550000Y-104689072D01*
X159674482Y-104676812D01*
X159794180Y-104640502D01*
X159904494Y-104581537D01*
X160001185Y-104502185D01*
X160080537Y-104405494D01*
X160139502Y-104295180D01*
X160175812Y-104175482D01*
X160188072Y-104051000D01*
X160188072Y-102451000D01*
X160175812Y-102326518D01*
X160139502Y-102206820D01*
X160080537Y-102096506D01*
X160001185Y-101999815D01*
X159904494Y-101920463D01*
X159794180Y-101861498D01*
X159674482Y-101825188D01*
X159550000Y-101812928D01*
X157950000Y-101812928D01*
X157825518Y-101825188D01*
X157705820Y-101861498D01*
X157595506Y-101920463D01*
X157498815Y-101999815D01*
X157419463Y-102096506D01*
X157360498Y-102206820D01*
X157324188Y-102326518D01*
X157311928Y-102451000D01*
X152321317Y-102451000D01*
X152244637Y-102336241D01*
X152044759Y-102136363D01*
X152015000Y-102116479D01*
X152015000Y-98595465D01*
X152019281Y-98551999D01*
X152015000Y-98508533D01*
X152015000Y-98508523D01*
X152002195Y-98378510D01*
X151951589Y-98211687D01*
X151869411Y-98057941D01*
X151758817Y-97923183D01*
X151725049Y-97895470D01*
X148298319Y-94468740D01*
X164758000Y-94468740D01*
X164758000Y-94761260D01*
X164815068Y-95048158D01*
X164927010Y-95318411D01*
X165089525Y-95561632D01*
X165296368Y-95768475D01*
X165470760Y-95885000D01*
X165296368Y-96001525D01*
X165089525Y-96208368D01*
X164927010Y-96451589D01*
X164815068Y-96721842D01*
X164758000Y-97008740D01*
X164758000Y-97301260D01*
X164815068Y-97588158D01*
X164927010Y-97858411D01*
X165089525Y-98101632D01*
X165296368Y-98308475D01*
X165470760Y-98425000D01*
X165296368Y-98541525D01*
X165089525Y-98748368D01*
X164927010Y-98991589D01*
X164815068Y-99261842D01*
X164758000Y-99548740D01*
X164758000Y-99841260D01*
X164815068Y-100128158D01*
X164927010Y-100398411D01*
X165089525Y-100641632D01*
X165296368Y-100848475D01*
X165470760Y-100965000D01*
X165296368Y-101081525D01*
X165089525Y-101288368D01*
X164927010Y-101531589D01*
X164815068Y-101801842D01*
X164758000Y-102088740D01*
X164758000Y-102381260D01*
X164815068Y-102668158D01*
X164927010Y-102938411D01*
X165089525Y-103181632D01*
X165296368Y-103388475D01*
X165539589Y-103550990D01*
X165809842Y-103662932D01*
X166096740Y-103720000D01*
X166389260Y-103720000D01*
X166676158Y-103662932D01*
X166946411Y-103550990D01*
X167189632Y-103388475D01*
X167396475Y-103181632D01*
X167558990Y-102938411D01*
X167670932Y-102668158D01*
X167728000Y-102381260D01*
X167728000Y-102088740D01*
X167670932Y-101801842D01*
X167558990Y-101531589D01*
X167396475Y-101288368D01*
X167189632Y-101081525D01*
X167015240Y-100965000D01*
X167189632Y-100848475D01*
X167396475Y-100641632D01*
X167558990Y-100398411D01*
X167670932Y-100128158D01*
X167728000Y-99841260D01*
X167728000Y-99548740D01*
X167670932Y-99261842D01*
X167558990Y-98991589D01*
X167396475Y-98748368D01*
X167189632Y-98541525D01*
X167015240Y-98425000D01*
X167189632Y-98308475D01*
X167396475Y-98101632D01*
X167558990Y-97858411D01*
X167670932Y-97588158D01*
X167728000Y-97301260D01*
X167728000Y-97008740D01*
X167670932Y-96721842D01*
X167558990Y-96451589D01*
X167396475Y-96208368D01*
X167189632Y-96001525D01*
X167015240Y-95885000D01*
X167189632Y-95768475D01*
X167396475Y-95561632D01*
X167558990Y-95318411D01*
X167670932Y-95048158D01*
X167728000Y-94761260D01*
X167728000Y-94468740D01*
X167670932Y-94181842D01*
X167558990Y-93911589D01*
X167396475Y-93668368D01*
X167189632Y-93461525D01*
X167007466Y-93339805D01*
X167124355Y-93270178D01*
X167340588Y-93075269D01*
X167514641Y-92841920D01*
X167639825Y-92579099D01*
X167684476Y-92431890D01*
X167563155Y-92202000D01*
X166370000Y-92202000D01*
X166370000Y-92222000D01*
X166116000Y-92222000D01*
X166116000Y-92202000D01*
X164922845Y-92202000D01*
X164801524Y-92431890D01*
X164846175Y-92579099D01*
X164971359Y-92841920D01*
X165145412Y-93075269D01*
X165361645Y-93270178D01*
X165478534Y-93339805D01*
X165296368Y-93461525D01*
X165089525Y-93668368D01*
X164927010Y-93911589D01*
X164815068Y-94181842D01*
X164758000Y-94468740D01*
X148298319Y-94468740D01*
X143256002Y-89426424D01*
X143256002Y-89287252D01*
X143414750Y-89446000D01*
X143929000Y-89449072D01*
X144053482Y-89436812D01*
X144173180Y-89400502D01*
X144283494Y-89341537D01*
X144380185Y-89262185D01*
X144459537Y-89165494D01*
X144518502Y-89055180D01*
X144554812Y-88935482D01*
X144567072Y-88811000D01*
X144564000Y-88296750D01*
X144405250Y-88138000D01*
X143256000Y-88138000D01*
X143256000Y-88158000D01*
X143002000Y-88158000D01*
X143002000Y-88138000D01*
X142982000Y-88138000D01*
X142982000Y-87884000D01*
X143002000Y-87884000D01*
X143002000Y-87864000D01*
X143256000Y-87864000D01*
X143256000Y-87884000D01*
X144405250Y-87884000D01*
X144419585Y-87869665D01*
X149695000Y-87869665D01*
X149695000Y-88152335D01*
X149750147Y-88429574D01*
X149858320Y-88690727D01*
X150015363Y-88925759D01*
X150215241Y-89125637D01*
X150450273Y-89282680D01*
X150711426Y-89390853D01*
X150988665Y-89446000D01*
X151271335Y-89446000D01*
X151548574Y-89390853D01*
X151809727Y-89282680D01*
X152044759Y-89125637D01*
X152166694Y-89003702D01*
X157936903Y-89003702D01*
X158008486Y-89247671D01*
X158263996Y-89368571D01*
X158538184Y-89437300D01*
X158820512Y-89451217D01*
X159100130Y-89409787D01*
X159366292Y-89314603D01*
X159491514Y-89247671D01*
X159563097Y-89003702D01*
X158750000Y-88190605D01*
X157936903Y-89003702D01*
X152166694Y-89003702D01*
X152244637Y-88925759D01*
X152401680Y-88690727D01*
X152509853Y-88429574D01*
X152565000Y-88152335D01*
X152565000Y-88081512D01*
X157309783Y-88081512D01*
X157351213Y-88361130D01*
X157446397Y-88627292D01*
X157513329Y-88752514D01*
X157757298Y-88824097D01*
X158570395Y-88011000D01*
X158929605Y-88011000D01*
X159742702Y-88824097D01*
X159986671Y-88752514D01*
X160018616Y-88685000D01*
X164754928Y-88685000D01*
X164754928Y-90385000D01*
X164767188Y-90509482D01*
X164803498Y-90629180D01*
X164862463Y-90739494D01*
X164941815Y-90836185D01*
X165038506Y-90915537D01*
X165148820Y-90974502D01*
X165229466Y-90998966D01*
X165145412Y-91074731D01*
X164971359Y-91308080D01*
X164846175Y-91570901D01*
X164801524Y-91718110D01*
X164922845Y-91948000D01*
X166116000Y-91948000D01*
X166116000Y-91928000D01*
X166370000Y-91928000D01*
X166370000Y-91948000D01*
X167563155Y-91948000D01*
X167684476Y-91718110D01*
X167639825Y-91570901D01*
X167514641Y-91308080D01*
X167340588Y-91074731D01*
X167256534Y-90998966D01*
X167337180Y-90974502D01*
X167447494Y-90915537D01*
X167544185Y-90836185D01*
X167623537Y-90739494D01*
X167682502Y-90629180D01*
X167718812Y-90509482D01*
X167731072Y-90385000D01*
X167731072Y-88685000D01*
X167718812Y-88560518D01*
X167682502Y-88440820D01*
X167623537Y-88330506D01*
X167544185Y-88233815D01*
X167447494Y-88154463D01*
X167337180Y-88095498D01*
X167217482Y-88059188D01*
X167093000Y-88046928D01*
X165393000Y-88046928D01*
X165268518Y-88059188D01*
X165148820Y-88095498D01*
X165038506Y-88154463D01*
X164941815Y-88233815D01*
X164862463Y-88330506D01*
X164803498Y-88440820D01*
X164767188Y-88560518D01*
X164754928Y-88685000D01*
X160018616Y-88685000D01*
X160107571Y-88497004D01*
X160176300Y-88222816D01*
X160190217Y-87940488D01*
X160148787Y-87660870D01*
X160053603Y-87394708D01*
X159986671Y-87269486D01*
X159742702Y-87197903D01*
X158929605Y-88011000D01*
X158570395Y-88011000D01*
X157757298Y-87197903D01*
X157513329Y-87269486D01*
X157392429Y-87524996D01*
X157323700Y-87799184D01*
X157309783Y-88081512D01*
X152565000Y-88081512D01*
X152565000Y-87869665D01*
X152509853Y-87592426D01*
X152401680Y-87331273D01*
X152244637Y-87096241D01*
X152166694Y-87018298D01*
X157936903Y-87018298D01*
X158750000Y-87831395D01*
X159563097Y-87018298D01*
X159491514Y-86774329D01*
X159236004Y-86653429D01*
X158961816Y-86584700D01*
X158679488Y-86570783D01*
X158399870Y-86612213D01*
X158133708Y-86707397D01*
X158008486Y-86774329D01*
X157936903Y-87018298D01*
X152166694Y-87018298D01*
X152044759Y-86896363D01*
X151809727Y-86739320D01*
X151548574Y-86631147D01*
X151271335Y-86576000D01*
X150988665Y-86576000D01*
X150711426Y-86631147D01*
X150450273Y-86739320D01*
X150215241Y-86896363D01*
X150015363Y-87096241D01*
X149858320Y-87331273D01*
X149750147Y-87592426D01*
X149695000Y-87869665D01*
X144419585Y-87869665D01*
X144564000Y-87725250D01*
X144567072Y-87211000D01*
X144554812Y-87086518D01*
X144518502Y-86966820D01*
X144459537Y-86856506D01*
X144380185Y-86759815D01*
X144283494Y-86680463D01*
X144173180Y-86621498D01*
X144053482Y-86585188D01*
X143929000Y-86572928D01*
X143414750Y-86576000D01*
X143256002Y-86734748D01*
X143256002Y-86595576D01*
X147178579Y-82673000D01*
X164758375Y-82673000D01*
X164767188Y-82762482D01*
X164803498Y-82882180D01*
X164862463Y-82992494D01*
X164941815Y-83089185D01*
X165038506Y-83168537D01*
X165148820Y-83227502D01*
X165221380Y-83249513D01*
X165089525Y-83381368D01*
X164927010Y-83624589D01*
X164815068Y-83894842D01*
X164758000Y-84181740D01*
X164758000Y-84474260D01*
X164815068Y-84761158D01*
X164927010Y-85031411D01*
X165089525Y-85274632D01*
X165296368Y-85481475D01*
X165539589Y-85643990D01*
X165809842Y-85755932D01*
X166096740Y-85813000D01*
X166389260Y-85813000D01*
X166676158Y-85755932D01*
X166946411Y-85643990D01*
X167189632Y-85481475D01*
X167396475Y-85274632D01*
X167558990Y-85031411D01*
X167670932Y-84761158D01*
X167728000Y-84474260D01*
X167728000Y-84181740D01*
X167670932Y-83894842D01*
X167558990Y-83624589D01*
X167396475Y-83381368D01*
X167264620Y-83249513D01*
X167337180Y-83227502D01*
X167447494Y-83168537D01*
X167544185Y-83089185D01*
X167623537Y-82992494D01*
X167682502Y-82882180D01*
X167718812Y-82762482D01*
X167731072Y-82638000D01*
X167731072Y-80938000D01*
X167718812Y-80813518D01*
X167682502Y-80693820D01*
X167623537Y-80583506D01*
X167544185Y-80486815D01*
X167447494Y-80407463D01*
X167337180Y-80348498D01*
X167217482Y-80312188D01*
X167093000Y-80299928D01*
X165393000Y-80299928D01*
X165268518Y-80312188D01*
X165148820Y-80348498D01*
X165038506Y-80407463D01*
X164941815Y-80486815D01*
X164862463Y-80583506D01*
X164803498Y-80693820D01*
X164767188Y-80813518D01*
X164758375Y-80903000D01*
X146855469Y-80903000D01*
X146812000Y-80898719D01*
X146768531Y-80903000D01*
X146768523Y-80903000D01*
X146653306Y-80914348D01*
X146638509Y-80915805D01*
X146587903Y-80931157D01*
X146471687Y-80966411D01*
X146317941Y-81048589D01*
X146317939Y-81048590D01*
X146317940Y-81048590D01*
X146216953Y-81131468D01*
X146216951Y-81131470D01*
X146183183Y-81159183D01*
X146155470Y-81192951D01*
X140765439Y-86582983D01*
X140730335Y-86576000D01*
X140447665Y-86576000D01*
X140170426Y-86631147D01*
X139909273Y-86739320D01*
X139674241Y-86896363D01*
X139674204Y-86896400D01*
X139152804Y-86375001D01*
X139129002Y-86345998D01*
X139013277Y-86251025D01*
X138881248Y-86180453D01*
X138737987Y-86136996D01*
X138626334Y-86125999D01*
X138626323Y-86125999D01*
X138589001Y-86122323D01*
X138551679Y-86125999D01*
X136671326Y-86125999D01*
X136634001Y-86122323D01*
X136596676Y-86125999D01*
X136596668Y-86125999D01*
X136485015Y-86136996D01*
X136341754Y-86180453D01*
X136209725Y-86251025D01*
X136094000Y-86345998D01*
X136070202Y-86374996D01*
X135832886Y-86612312D01*
X135650335Y-86576000D01*
X135367665Y-86576000D01*
X135090426Y-86631147D01*
X134829273Y-86739320D01*
X134594241Y-86896363D01*
X134394363Y-87096241D01*
X134239000Y-87328759D01*
X134083637Y-87096241D01*
X133883759Y-86896363D01*
X133648727Y-86739320D01*
X133387574Y-86631147D01*
X133110335Y-86576000D01*
X132827665Y-86576000D01*
X132550426Y-86631147D01*
X132289273Y-86739320D01*
X132054241Y-86896363D01*
X131854363Y-87096241D01*
X131699000Y-87328759D01*
X131543637Y-87096241D01*
X131343759Y-86896363D01*
X131108727Y-86739320D01*
X130847574Y-86631147D01*
X130570335Y-86576000D01*
X130287665Y-86576000D01*
X130010426Y-86631147D01*
X129749273Y-86739320D01*
X129514241Y-86896363D01*
X129314363Y-87096241D01*
X129159000Y-87328759D01*
X129003637Y-87096241D01*
X128803759Y-86896363D01*
X128568727Y-86739320D01*
X128307574Y-86631147D01*
X128030335Y-86576000D01*
X127747665Y-86576000D01*
X127470426Y-86631147D01*
X127209273Y-86739320D01*
X126974241Y-86896363D01*
X126774363Y-87096241D01*
X126619000Y-87328759D01*
X126463637Y-87096241D01*
X126263759Y-86896363D01*
X126028727Y-86739320D01*
X125767574Y-86631147D01*
X125490335Y-86576000D01*
X125207665Y-86576000D01*
X124930426Y-86631147D01*
X124669273Y-86739320D01*
X124434241Y-86896363D01*
X124234363Y-87096241D01*
X124079000Y-87328759D01*
X123923637Y-87096241D01*
X123723759Y-86896363D01*
X123488727Y-86739320D01*
X123227574Y-86631147D01*
X122950335Y-86576000D01*
X122667665Y-86576000D01*
X122390426Y-86631147D01*
X122129273Y-86739320D01*
X121894241Y-86896363D01*
X121694363Y-87096241D01*
X121539000Y-87328759D01*
X121383637Y-87096241D01*
X121183759Y-86896363D01*
X120948727Y-86739320D01*
X120687574Y-86631147D01*
X120410335Y-86576000D01*
X120127665Y-86576000D01*
X119850426Y-86631147D01*
X119589273Y-86739320D01*
X119354241Y-86896363D01*
X119154363Y-87096241D01*
X118999000Y-87328759D01*
X118843637Y-87096241D01*
X118643759Y-86896363D01*
X118408727Y-86739320D01*
X118147574Y-86631147D01*
X117870335Y-86576000D01*
X117587665Y-86576000D01*
X117310426Y-86631147D01*
X117049273Y-86739320D01*
X116814241Y-86896363D01*
X116813553Y-86897051D01*
X116291502Y-86375001D01*
X116267700Y-86345998D01*
X116151975Y-86251025D01*
X116019946Y-86180453D01*
X115876685Y-86136996D01*
X115765032Y-86125999D01*
X115765021Y-86125999D01*
X115727699Y-86122323D01*
X115690377Y-86125999D01*
X111271326Y-86125999D01*
X111234001Y-86122323D01*
X111196676Y-86125999D01*
X111196668Y-86125999D01*
X111085015Y-86136996D01*
X110941754Y-86180453D01*
X110809725Y-86251025D01*
X110694000Y-86345998D01*
X110670202Y-86374996D01*
X110432886Y-86612312D01*
X110250335Y-86576000D01*
X109967665Y-86576000D01*
X109690426Y-86631147D01*
X109429273Y-86739320D01*
X109194241Y-86896363D01*
X108994363Y-87096241D01*
X108837320Y-87331273D01*
X108729147Y-87592426D01*
X108674000Y-87869665D01*
X108674000Y-88152335D01*
X108729147Y-88429574D01*
X108837320Y-88690727D01*
X108994363Y-88925759D01*
X109194241Y-89125637D01*
X109429273Y-89282680D01*
X109690426Y-89390853D01*
X109967665Y-89446000D01*
X110250335Y-89446000D01*
X110527574Y-89390853D01*
X110788727Y-89282680D01*
X111023759Y-89125637D01*
X111223637Y-88925759D01*
X111379000Y-88693241D01*
X111534363Y-88925759D01*
X111734241Y-89125637D01*
X111969273Y-89282680D01*
X112230426Y-89390853D01*
X112507665Y-89446000D01*
X112790335Y-89446000D01*
X112972886Y-89409688D01*
X113114001Y-89550803D01*
X113114002Y-101894269D01*
X112998039Y-101859096D01*
X112776000Y-101981085D01*
X112776000Y-103124000D01*
X112796000Y-103124000D01*
X112796000Y-103378000D01*
X112776000Y-103378000D01*
X112776000Y-104520915D01*
X112998039Y-104642904D01*
X113114002Y-104607731D01*
X113114002Y-110767194D01*
X112455984Y-111425213D01*
X112323720Y-111326559D01*
X112060899Y-111201375D01*
X111913690Y-111156724D01*
X111683800Y-111278045D01*
X111683800Y-112471200D01*
X111703800Y-112471200D01*
X111703800Y-112725200D01*
X111683800Y-112725200D01*
X111683800Y-115011200D01*
X111703800Y-115011200D01*
X111703800Y-115265200D01*
X111683800Y-115265200D01*
X111683800Y-115285200D01*
X111429800Y-115285200D01*
X111429800Y-115265200D01*
X111409800Y-115265200D01*
X111409800Y-115011200D01*
X111429800Y-115011200D01*
X111429800Y-112725200D01*
X111409800Y-112725200D01*
X111409800Y-112471200D01*
X111429800Y-112471200D01*
X111429800Y-111278045D01*
X111199910Y-111156724D01*
X111052701Y-111201375D01*
X110789880Y-111326559D01*
X110556531Y-111500612D01*
X110361622Y-111716845D01*
X110291995Y-111833734D01*
X110170275Y-111651568D01*
X109963432Y-111444725D01*
X109720211Y-111282210D01*
X109449958Y-111170268D01*
X109163060Y-111113200D01*
X108870540Y-111113200D01*
X108583642Y-111170268D01*
X108313389Y-111282210D01*
X108070168Y-111444725D01*
X107863325Y-111651568D01*
X107700810Y-111894789D01*
X107588868Y-112165042D01*
X107531800Y-112451940D01*
X107531800Y-112744460D01*
X107588868Y-113031358D01*
X107700810Y-113301611D01*
X107863325Y-113544832D01*
X108070168Y-113751675D01*
X108244560Y-113868200D01*
X108070168Y-113984725D01*
X107863325Y-114191568D01*
X107700810Y-114434789D01*
X107588868Y-114705042D01*
X107531800Y-114991940D01*
X107531800Y-115284460D01*
X107588868Y-115571358D01*
X107700810Y-115841611D01*
X107863325Y-116084832D01*
X108070168Y-116291675D01*
X108313389Y-116454190D01*
X108583642Y-116566132D01*
X108870540Y-116623200D01*
X109163060Y-116623200D01*
X109235760Y-116608739D01*
X109760271Y-117133250D01*
X109787984Y-117167018D01*
X109821752Y-117194731D01*
X109821754Y-117194733D01*
X109869449Y-117233875D01*
X109922742Y-117277612D01*
X109960886Y-117298000D01*
X102582353Y-117298000D01*
X102488044Y-117307289D01*
X102350124Y-117293766D01*
X102094376Y-117216551D01*
X101858496Y-117091131D01*
X101651475Y-116922289D01*
X101481187Y-116716446D01*
X101354121Y-116481444D01*
X101275123Y-116226240D01*
X101259678Y-116079291D01*
X101269000Y-115984647D01*
X101269000Y-102728665D01*
X104102000Y-102728665D01*
X104102000Y-103011335D01*
X104157147Y-103288574D01*
X104265320Y-103549727D01*
X104422363Y-103784759D01*
X104622241Y-103984637D01*
X104857273Y-104141680D01*
X105118426Y-104249853D01*
X105395665Y-104305000D01*
X105678335Y-104305000D01*
X105955574Y-104249853D01*
X106216727Y-104141680D01*
X106451759Y-103984637D01*
X106651637Y-103784759D01*
X106808680Y-103549727D01*
X106916853Y-103288574D01*
X106952440Y-103109665D01*
X108674000Y-103109665D01*
X108674000Y-103392335D01*
X108729147Y-103669574D01*
X108837320Y-103930727D01*
X108994363Y-104165759D01*
X109194241Y-104365637D01*
X109429273Y-104522680D01*
X109690426Y-104630853D01*
X109967665Y-104686000D01*
X110250335Y-104686000D01*
X110527574Y-104630853D01*
X110788727Y-104522680D01*
X111023759Y-104365637D01*
X111223637Y-104165759D01*
X111380680Y-103930727D01*
X111385067Y-103920135D01*
X111496615Y-104106131D01*
X111685586Y-104314519D01*
X111911580Y-104482037D01*
X112165913Y-104602246D01*
X112299961Y-104642904D01*
X112522000Y-104520915D01*
X112522000Y-103378000D01*
X112502000Y-103378000D01*
X112502000Y-103124000D01*
X112522000Y-103124000D01*
X112522000Y-101981085D01*
X112299961Y-101859096D01*
X112165913Y-101899754D01*
X111911580Y-102019963D01*
X111685586Y-102187481D01*
X111496615Y-102395869D01*
X111385067Y-102581865D01*
X111380680Y-102571273D01*
X111223637Y-102336241D01*
X111023759Y-102136363D01*
X110788727Y-101979320D01*
X110527574Y-101871147D01*
X110250335Y-101816000D01*
X109967665Y-101816000D01*
X109690426Y-101871147D01*
X109429273Y-101979320D01*
X109194241Y-102136363D01*
X108994363Y-102336241D01*
X108837320Y-102571273D01*
X108729147Y-102832426D01*
X108674000Y-103109665D01*
X106952440Y-103109665D01*
X106972000Y-103011335D01*
X106972000Y-102728665D01*
X106916853Y-102451426D01*
X106808680Y-102190273D01*
X106651637Y-101955241D01*
X106451759Y-101755363D01*
X106251131Y-101621308D01*
X106278514Y-101606671D01*
X106350097Y-101362702D01*
X105537000Y-100549605D01*
X104723903Y-101362702D01*
X104795486Y-101606671D01*
X104824341Y-101620324D01*
X104622241Y-101755363D01*
X104422363Y-101955241D01*
X104265320Y-102190273D01*
X104157147Y-102451426D01*
X104102000Y-102728665D01*
X101269000Y-102728665D01*
X101269000Y-100440512D01*
X104096783Y-100440512D01*
X104138213Y-100720130D01*
X104233397Y-100986292D01*
X104300329Y-101111514D01*
X104544298Y-101183097D01*
X105357395Y-100370000D01*
X105716605Y-100370000D01*
X106529702Y-101183097D01*
X106773671Y-101111514D01*
X106894571Y-100856004D01*
X106963300Y-100581816D01*
X106977217Y-100299488D01*
X106935787Y-100019870D01*
X106840603Y-99753708D01*
X106773671Y-99628486D01*
X106529702Y-99556903D01*
X105716605Y-100370000D01*
X105357395Y-100370000D01*
X104544298Y-99556903D01*
X104300329Y-99628486D01*
X104179429Y-99883996D01*
X104110700Y-100158184D01*
X104096783Y-100440512D01*
X101269000Y-100440512D01*
X101269000Y-99377298D01*
X104723903Y-99377298D01*
X105537000Y-100190395D01*
X106350097Y-99377298D01*
X106278514Y-99133329D01*
X106023004Y-99012429D01*
X105748816Y-98943700D01*
X105466488Y-98929783D01*
X105186870Y-98971213D01*
X104920708Y-99066397D01*
X104795486Y-99133329D01*
X104723903Y-99377298D01*
X101269000Y-99377298D01*
X101269000Y-76801353D01*
X101259711Y-76707043D01*
X101273234Y-76569125D01*
X101350448Y-76313378D01*
X101475869Y-76077496D01*
X101644716Y-75870470D01*
X101850554Y-75700187D01*
X102085556Y-75573121D01*
X102340756Y-75494124D01*
X102487711Y-75478678D01*
X102582353Y-75488000D01*
%TA.AperFunction,Conductor*%
D19*
G36*
X102582353Y-75488000D02*
G01*
X171201620Y-75488000D01*
X176099000Y-80385381D01*
X176099001Y-115984647D01*
X176108289Y-116078951D01*
X176094766Y-116216876D01*
X176017551Y-116472624D01*
X175892131Y-116708504D01*
X175723289Y-116915525D01*
X175517446Y-117085813D01*
X175282444Y-117212879D01*
X175027240Y-117291877D01*
X174880291Y-117307322D01*
X174785647Y-117298000D01*
X143632714Y-117298000D01*
X143670858Y-117277612D01*
X143805616Y-117167018D01*
X143833333Y-117133245D01*
X144357840Y-116608739D01*
X144430540Y-116623200D01*
X144723060Y-116623200D01*
X145009958Y-116566132D01*
X145280211Y-116454190D01*
X145523432Y-116291675D01*
X145730275Y-116084832D01*
X145851995Y-115902666D01*
X145921622Y-116019555D01*
X146116531Y-116235788D01*
X146349880Y-116409841D01*
X146612701Y-116535025D01*
X146759910Y-116579676D01*
X146989800Y-116458355D01*
X146989800Y-115265200D01*
X147243800Y-115265200D01*
X147243800Y-116458355D01*
X147473690Y-116579676D01*
X147620899Y-116535025D01*
X147883720Y-116409841D01*
X148117069Y-116235788D01*
X148311978Y-116019555D01*
X148460957Y-115769452D01*
X148558281Y-115495091D01*
X148437614Y-115265200D01*
X147243800Y-115265200D01*
X146989800Y-115265200D01*
X146969800Y-115265200D01*
X146969800Y-115011200D01*
X146989800Y-115011200D01*
X146989800Y-112725200D01*
X147243800Y-112725200D01*
X147243800Y-115011200D01*
X148437614Y-115011200D01*
X148558281Y-114781309D01*
X148460957Y-114506948D01*
X148311978Y-114256845D01*
X148135174Y-114060698D01*
X148210980Y-114037702D01*
X148321294Y-113978737D01*
X148417985Y-113899385D01*
X148497337Y-113802694D01*
X148556302Y-113692380D01*
X148592612Y-113572682D01*
X148604872Y-113448200D01*
X148601800Y-112883950D01*
X148443050Y-112725200D01*
X147243800Y-112725200D01*
X146989800Y-112725200D01*
X146969800Y-112725200D01*
X146969800Y-112471200D01*
X146989800Y-112471200D01*
X146989800Y-111271950D01*
X147243800Y-111271950D01*
X147243800Y-112471200D01*
X148443050Y-112471200D01*
X148601800Y-112312450D01*
X148604872Y-111748200D01*
X148592612Y-111623718D01*
X148556302Y-111504020D01*
X148497337Y-111393706D01*
X148417985Y-111297015D01*
X148321294Y-111217663D01*
X148210980Y-111158698D01*
X148091282Y-111122388D01*
X147966800Y-111110128D01*
X147402550Y-111113200D01*
X147243800Y-111271950D01*
X146989800Y-111271950D01*
X146831050Y-111113200D01*
X146266800Y-111110128D01*
X146142318Y-111122388D01*
X146022620Y-111158698D01*
X145912306Y-111217663D01*
X145815615Y-111297015D01*
X145736263Y-111393706D01*
X145677298Y-111504020D01*
X145655287Y-111576580D01*
X145523432Y-111444725D01*
X145280211Y-111282210D01*
X145009958Y-111170268D01*
X144723060Y-111113200D01*
X144430540Y-111113200D01*
X144143642Y-111170268D01*
X143873389Y-111282210D01*
X143630168Y-111444725D01*
X143423325Y-111651568D01*
X143306800Y-111825960D01*
X143190275Y-111651568D01*
X142983432Y-111444725D01*
X142740211Y-111282210D01*
X142469958Y-111170268D01*
X142183060Y-111113200D01*
X141890540Y-111113200D01*
X141603642Y-111170268D01*
X141333389Y-111282210D01*
X141090168Y-111444725D01*
X140883325Y-111651568D01*
X140766800Y-111825960D01*
X140650275Y-111651568D01*
X140443432Y-111444725D01*
X140200211Y-111282210D01*
X140084679Y-111234355D01*
X140104201Y-111169998D01*
X140113002Y-111140985D01*
X140123999Y-111029332D01*
X140123999Y-111029323D01*
X140127675Y-110992000D01*
X140123999Y-110954677D01*
X140123999Y-104611622D01*
X140170426Y-104630853D01*
X140447665Y-104686000D01*
X140730335Y-104686000D01*
X141007574Y-104630853D01*
X141268727Y-104522680D01*
X141503759Y-104365637D01*
X141703637Y-104165759D01*
X141859000Y-103933241D01*
X142014363Y-104165759D01*
X142214241Y-104365637D01*
X142449273Y-104522680D01*
X142710426Y-104630853D01*
X142987665Y-104686000D01*
X143270335Y-104686000D01*
X143547574Y-104630853D01*
X143808727Y-104522680D01*
X144043759Y-104365637D01*
X144243637Y-104165759D01*
X144400680Y-103930727D01*
X144508853Y-103669574D01*
X144564000Y-103392335D01*
X144564000Y-103109665D01*
X144508853Y-102832426D01*
X144400680Y-102571273D01*
X144243637Y-102336241D01*
X144043759Y-102136363D01*
X143808727Y-101979320D01*
X143547574Y-101871147D01*
X143270335Y-101816000D01*
X142987665Y-101816000D01*
X142710426Y-101871147D01*
X142449273Y-101979320D01*
X142214241Y-102136363D01*
X142014363Y-102336241D01*
X141859000Y-102568759D01*
X141703637Y-102336241D01*
X141503759Y-102136363D01*
X141268727Y-101979320D01*
X141007574Y-101871147D01*
X140730335Y-101816000D01*
X140447665Y-101816000D01*
X140170426Y-101871147D01*
X140123999Y-101890378D01*
X140123999Y-89371622D01*
X140170426Y-89390853D01*
X140447665Y-89446000D01*
X140730335Y-89446000D01*
X140765439Y-89439017D01*
X150245001Y-98918580D01*
X150245000Y-102116479D01*
X150215241Y-102136363D01*
X150015363Y-102336241D01*
X149858320Y-102571273D01*
X149750147Y-102832426D01*
X149695000Y-103109665D01*
X149695000Y-103392335D01*
X149750147Y-103669574D01*
X149858320Y-103930727D01*
X150015363Y-104165759D01*
X150215241Y-104365637D01*
X150450273Y-104522680D01*
X150711426Y-104630853D01*
X150988665Y-104686000D01*
X151271335Y-104686000D01*
X151548574Y-104630853D01*
X151809727Y-104522680D01*
X152044759Y-104365637D01*
X152244637Y-104165759D01*
X152401680Y-103930727D01*
X152509853Y-103669574D01*
X152565000Y-103392335D01*
X152565000Y-103109665D01*
X152509853Y-102832426D01*
X152401680Y-102571273D01*
X152321317Y-102451000D01*
X157311928Y-102451000D01*
X157311928Y-104051000D01*
X157324188Y-104175482D01*
X157360498Y-104295180D01*
X157419463Y-104405494D01*
X157498815Y-104502185D01*
X157595506Y-104581537D01*
X157705820Y-104640502D01*
X157825518Y-104676812D01*
X157950000Y-104689072D01*
X159550000Y-104689072D01*
X159674482Y-104676812D01*
X159794180Y-104640502D01*
X159904494Y-104581537D01*
X160001185Y-104502185D01*
X160080537Y-104405494D01*
X160139502Y-104295180D01*
X160175812Y-104175482D01*
X160188072Y-104051000D01*
X160188072Y-102451000D01*
X160175812Y-102326518D01*
X160139502Y-102206820D01*
X160080537Y-102096506D01*
X160001185Y-101999815D01*
X159904494Y-101920463D01*
X159794180Y-101861498D01*
X159674482Y-101825188D01*
X159550000Y-101812928D01*
X157950000Y-101812928D01*
X157825518Y-101825188D01*
X157705820Y-101861498D01*
X157595506Y-101920463D01*
X157498815Y-101999815D01*
X157419463Y-102096506D01*
X157360498Y-102206820D01*
X157324188Y-102326518D01*
X157311928Y-102451000D01*
X152321317Y-102451000D01*
X152244637Y-102336241D01*
X152044759Y-102136363D01*
X152015000Y-102116479D01*
X152015000Y-98595465D01*
X152019281Y-98551999D01*
X152015000Y-98508533D01*
X152015000Y-98508523D01*
X152002195Y-98378510D01*
X151951589Y-98211687D01*
X151869411Y-98057941D01*
X151758817Y-97923183D01*
X151725049Y-97895470D01*
X148298319Y-94468740D01*
X164758000Y-94468740D01*
X164758000Y-94761260D01*
X164815068Y-95048158D01*
X164927010Y-95318411D01*
X165089525Y-95561632D01*
X165296368Y-95768475D01*
X165470760Y-95885000D01*
X165296368Y-96001525D01*
X165089525Y-96208368D01*
X164927010Y-96451589D01*
X164815068Y-96721842D01*
X164758000Y-97008740D01*
X164758000Y-97301260D01*
X164815068Y-97588158D01*
X164927010Y-97858411D01*
X165089525Y-98101632D01*
X165296368Y-98308475D01*
X165470760Y-98425000D01*
X165296368Y-98541525D01*
X165089525Y-98748368D01*
X164927010Y-98991589D01*
X164815068Y-99261842D01*
X164758000Y-99548740D01*
X164758000Y-99841260D01*
X164815068Y-100128158D01*
X164927010Y-100398411D01*
X165089525Y-100641632D01*
X165296368Y-100848475D01*
X165470760Y-100965000D01*
X165296368Y-101081525D01*
X165089525Y-101288368D01*
X164927010Y-101531589D01*
X164815068Y-101801842D01*
X164758000Y-102088740D01*
X164758000Y-102381260D01*
X164815068Y-102668158D01*
X164927010Y-102938411D01*
X165089525Y-103181632D01*
X165296368Y-103388475D01*
X165539589Y-103550990D01*
X165809842Y-103662932D01*
X166096740Y-103720000D01*
X166389260Y-103720000D01*
X166676158Y-103662932D01*
X166946411Y-103550990D01*
X167189632Y-103388475D01*
X167396475Y-103181632D01*
X167558990Y-102938411D01*
X167670932Y-102668158D01*
X167728000Y-102381260D01*
X167728000Y-102088740D01*
X167670932Y-101801842D01*
X167558990Y-101531589D01*
X167396475Y-101288368D01*
X167189632Y-101081525D01*
X167015240Y-100965000D01*
X167189632Y-100848475D01*
X167396475Y-100641632D01*
X167558990Y-100398411D01*
X167670932Y-100128158D01*
X167728000Y-99841260D01*
X167728000Y-99548740D01*
X167670932Y-99261842D01*
X167558990Y-98991589D01*
X167396475Y-98748368D01*
X167189632Y-98541525D01*
X167015240Y-98425000D01*
X167189632Y-98308475D01*
X167396475Y-98101632D01*
X167558990Y-97858411D01*
X167670932Y-97588158D01*
X167728000Y-97301260D01*
X167728000Y-97008740D01*
X167670932Y-96721842D01*
X167558990Y-96451589D01*
X167396475Y-96208368D01*
X167189632Y-96001525D01*
X167015240Y-95885000D01*
X167189632Y-95768475D01*
X167396475Y-95561632D01*
X167558990Y-95318411D01*
X167670932Y-95048158D01*
X167728000Y-94761260D01*
X167728000Y-94468740D01*
X167670932Y-94181842D01*
X167558990Y-93911589D01*
X167396475Y-93668368D01*
X167189632Y-93461525D01*
X167007466Y-93339805D01*
X167124355Y-93270178D01*
X167340588Y-93075269D01*
X167514641Y-92841920D01*
X167639825Y-92579099D01*
X167684476Y-92431890D01*
X167563155Y-92202000D01*
X166370000Y-92202000D01*
X166370000Y-92222000D01*
X166116000Y-92222000D01*
X166116000Y-92202000D01*
X164922845Y-92202000D01*
X164801524Y-92431890D01*
X164846175Y-92579099D01*
X164971359Y-92841920D01*
X165145412Y-93075269D01*
X165361645Y-93270178D01*
X165478534Y-93339805D01*
X165296368Y-93461525D01*
X165089525Y-93668368D01*
X164927010Y-93911589D01*
X164815068Y-94181842D01*
X164758000Y-94468740D01*
X148298319Y-94468740D01*
X143256002Y-89426424D01*
X143256002Y-89287252D01*
X143414750Y-89446000D01*
X143929000Y-89449072D01*
X144053482Y-89436812D01*
X144173180Y-89400502D01*
X144283494Y-89341537D01*
X144380185Y-89262185D01*
X144459537Y-89165494D01*
X144518502Y-89055180D01*
X144554812Y-88935482D01*
X144567072Y-88811000D01*
X144564000Y-88296750D01*
X144405250Y-88138000D01*
X143256000Y-88138000D01*
X143256000Y-88158000D01*
X143002000Y-88158000D01*
X143002000Y-88138000D01*
X142982000Y-88138000D01*
X142982000Y-87884000D01*
X143002000Y-87884000D01*
X143002000Y-87864000D01*
X143256000Y-87864000D01*
X143256000Y-87884000D01*
X144405250Y-87884000D01*
X144419585Y-87869665D01*
X149695000Y-87869665D01*
X149695000Y-88152335D01*
X149750147Y-88429574D01*
X149858320Y-88690727D01*
X150015363Y-88925759D01*
X150215241Y-89125637D01*
X150450273Y-89282680D01*
X150711426Y-89390853D01*
X150988665Y-89446000D01*
X151271335Y-89446000D01*
X151548574Y-89390853D01*
X151809727Y-89282680D01*
X152044759Y-89125637D01*
X152166694Y-89003702D01*
X157936903Y-89003702D01*
X158008486Y-89247671D01*
X158263996Y-89368571D01*
X158538184Y-89437300D01*
X158820512Y-89451217D01*
X159100130Y-89409787D01*
X159366292Y-89314603D01*
X159491514Y-89247671D01*
X159563097Y-89003702D01*
X158750000Y-88190605D01*
X157936903Y-89003702D01*
X152166694Y-89003702D01*
X152244637Y-88925759D01*
X152401680Y-88690727D01*
X152509853Y-88429574D01*
X152565000Y-88152335D01*
X152565000Y-88081512D01*
X157309783Y-88081512D01*
X157351213Y-88361130D01*
X157446397Y-88627292D01*
X157513329Y-88752514D01*
X157757298Y-88824097D01*
X158570395Y-88011000D01*
X158929605Y-88011000D01*
X159742702Y-88824097D01*
X159986671Y-88752514D01*
X160018616Y-88685000D01*
X164754928Y-88685000D01*
X164754928Y-90385000D01*
X164767188Y-90509482D01*
X164803498Y-90629180D01*
X164862463Y-90739494D01*
X164941815Y-90836185D01*
X165038506Y-90915537D01*
X165148820Y-90974502D01*
X165229466Y-90998966D01*
X165145412Y-91074731D01*
X164971359Y-91308080D01*
X164846175Y-91570901D01*
X164801524Y-91718110D01*
X164922845Y-91948000D01*
X166116000Y-91948000D01*
X166116000Y-91928000D01*
X166370000Y-91928000D01*
X166370000Y-91948000D01*
X167563155Y-91948000D01*
X167684476Y-91718110D01*
X167639825Y-91570901D01*
X167514641Y-91308080D01*
X167340588Y-91074731D01*
X167256534Y-90998966D01*
X167337180Y-90974502D01*
X167447494Y-90915537D01*
X167544185Y-90836185D01*
X167623537Y-90739494D01*
X167682502Y-90629180D01*
X167718812Y-90509482D01*
X167731072Y-90385000D01*
X167731072Y-88685000D01*
X167718812Y-88560518D01*
X167682502Y-88440820D01*
X167623537Y-88330506D01*
X167544185Y-88233815D01*
X167447494Y-88154463D01*
X167337180Y-88095498D01*
X167217482Y-88059188D01*
X167093000Y-88046928D01*
X165393000Y-88046928D01*
X165268518Y-88059188D01*
X165148820Y-88095498D01*
X165038506Y-88154463D01*
X164941815Y-88233815D01*
X164862463Y-88330506D01*
X164803498Y-88440820D01*
X164767188Y-88560518D01*
X164754928Y-88685000D01*
X160018616Y-88685000D01*
X160107571Y-88497004D01*
X160176300Y-88222816D01*
X160190217Y-87940488D01*
X160148787Y-87660870D01*
X160053603Y-87394708D01*
X159986671Y-87269486D01*
X159742702Y-87197903D01*
X158929605Y-88011000D01*
X158570395Y-88011000D01*
X157757298Y-87197903D01*
X157513329Y-87269486D01*
X157392429Y-87524996D01*
X157323700Y-87799184D01*
X157309783Y-88081512D01*
X152565000Y-88081512D01*
X152565000Y-87869665D01*
X152509853Y-87592426D01*
X152401680Y-87331273D01*
X152244637Y-87096241D01*
X152166694Y-87018298D01*
X157936903Y-87018298D01*
X158750000Y-87831395D01*
X159563097Y-87018298D01*
X159491514Y-86774329D01*
X159236004Y-86653429D01*
X158961816Y-86584700D01*
X158679488Y-86570783D01*
X158399870Y-86612213D01*
X158133708Y-86707397D01*
X158008486Y-86774329D01*
X157936903Y-87018298D01*
X152166694Y-87018298D01*
X152044759Y-86896363D01*
X151809727Y-86739320D01*
X151548574Y-86631147D01*
X151271335Y-86576000D01*
X150988665Y-86576000D01*
X150711426Y-86631147D01*
X150450273Y-86739320D01*
X150215241Y-86896363D01*
X150015363Y-87096241D01*
X149858320Y-87331273D01*
X149750147Y-87592426D01*
X149695000Y-87869665D01*
X144419585Y-87869665D01*
X144564000Y-87725250D01*
X144567072Y-87211000D01*
X144554812Y-87086518D01*
X144518502Y-86966820D01*
X144459537Y-86856506D01*
X144380185Y-86759815D01*
X144283494Y-86680463D01*
X144173180Y-86621498D01*
X144053482Y-86585188D01*
X143929000Y-86572928D01*
X143414750Y-86576000D01*
X143256002Y-86734748D01*
X143256002Y-86595576D01*
X147178579Y-82673000D01*
X164758375Y-82673000D01*
X164767188Y-82762482D01*
X164803498Y-82882180D01*
X164862463Y-82992494D01*
X164941815Y-83089185D01*
X165038506Y-83168537D01*
X165148820Y-83227502D01*
X165221380Y-83249513D01*
X165089525Y-83381368D01*
X164927010Y-83624589D01*
X164815068Y-83894842D01*
X164758000Y-84181740D01*
X164758000Y-84474260D01*
X164815068Y-84761158D01*
X164927010Y-85031411D01*
X165089525Y-85274632D01*
X165296368Y-85481475D01*
X165539589Y-85643990D01*
X165809842Y-85755932D01*
X166096740Y-85813000D01*
X166389260Y-85813000D01*
X166676158Y-85755932D01*
X166946411Y-85643990D01*
X167189632Y-85481475D01*
X167396475Y-85274632D01*
X167558990Y-85031411D01*
X167670932Y-84761158D01*
X167728000Y-84474260D01*
X167728000Y-84181740D01*
X167670932Y-83894842D01*
X167558990Y-83624589D01*
X167396475Y-83381368D01*
X167264620Y-83249513D01*
X167337180Y-83227502D01*
X167447494Y-83168537D01*
X167544185Y-83089185D01*
X167623537Y-82992494D01*
X167682502Y-82882180D01*
X167718812Y-82762482D01*
X167731072Y-82638000D01*
X167731072Y-80938000D01*
X167718812Y-80813518D01*
X167682502Y-80693820D01*
X167623537Y-80583506D01*
X167544185Y-80486815D01*
X167447494Y-80407463D01*
X167337180Y-80348498D01*
X167217482Y-80312188D01*
X167093000Y-80299928D01*
X165393000Y-80299928D01*
X165268518Y-80312188D01*
X165148820Y-80348498D01*
X165038506Y-80407463D01*
X164941815Y-80486815D01*
X164862463Y-80583506D01*
X164803498Y-80693820D01*
X164767188Y-80813518D01*
X164758375Y-80903000D01*
X146855469Y-80903000D01*
X146812000Y-80898719D01*
X146768531Y-80903000D01*
X146768523Y-80903000D01*
X146653306Y-80914348D01*
X146638509Y-80915805D01*
X146587903Y-80931157D01*
X146471687Y-80966411D01*
X146317941Y-81048589D01*
X146317939Y-81048590D01*
X146317940Y-81048590D01*
X146216953Y-81131468D01*
X146216951Y-81131470D01*
X146183183Y-81159183D01*
X146155470Y-81192951D01*
X140765439Y-86582983D01*
X140730335Y-86576000D01*
X140447665Y-86576000D01*
X140170426Y-86631147D01*
X139909273Y-86739320D01*
X139674241Y-86896363D01*
X139674204Y-86896400D01*
X139152804Y-86375001D01*
X139129002Y-86345998D01*
X139013277Y-86251025D01*
X138881248Y-86180453D01*
X138737987Y-86136996D01*
X138626334Y-86125999D01*
X138626323Y-86125999D01*
X138589001Y-86122323D01*
X138551679Y-86125999D01*
X136671326Y-86125999D01*
X136634001Y-86122323D01*
X136596676Y-86125999D01*
X136596668Y-86125999D01*
X136485015Y-86136996D01*
X136341754Y-86180453D01*
X136209725Y-86251025D01*
X136094000Y-86345998D01*
X136070202Y-86374996D01*
X135832886Y-86612312D01*
X135650335Y-86576000D01*
X135367665Y-86576000D01*
X135090426Y-86631147D01*
X134829273Y-86739320D01*
X134594241Y-86896363D01*
X134394363Y-87096241D01*
X134239000Y-87328759D01*
X134083637Y-87096241D01*
X133883759Y-86896363D01*
X133648727Y-86739320D01*
X133387574Y-86631147D01*
X133110335Y-86576000D01*
X132827665Y-86576000D01*
X132550426Y-86631147D01*
X132289273Y-86739320D01*
X132054241Y-86896363D01*
X131854363Y-87096241D01*
X131699000Y-87328759D01*
X131543637Y-87096241D01*
X131343759Y-86896363D01*
X131108727Y-86739320D01*
X130847574Y-86631147D01*
X130570335Y-86576000D01*
X130287665Y-86576000D01*
X130010426Y-86631147D01*
X129749273Y-86739320D01*
X129514241Y-86896363D01*
X129314363Y-87096241D01*
X129159000Y-87328759D01*
X129003637Y-87096241D01*
X128803759Y-86896363D01*
X128568727Y-86739320D01*
X128307574Y-86631147D01*
X128030335Y-86576000D01*
X127747665Y-86576000D01*
X127470426Y-86631147D01*
X127209273Y-86739320D01*
X126974241Y-86896363D01*
X126774363Y-87096241D01*
X126619000Y-87328759D01*
X126463637Y-87096241D01*
X126263759Y-86896363D01*
X126028727Y-86739320D01*
X125767574Y-86631147D01*
X125490335Y-86576000D01*
X125207665Y-86576000D01*
X124930426Y-86631147D01*
X124669273Y-86739320D01*
X124434241Y-86896363D01*
X124234363Y-87096241D01*
X124079000Y-87328759D01*
X123923637Y-87096241D01*
X123723759Y-86896363D01*
X123488727Y-86739320D01*
X123227574Y-86631147D01*
X122950335Y-86576000D01*
X122667665Y-86576000D01*
X122390426Y-86631147D01*
X122129273Y-86739320D01*
X121894241Y-86896363D01*
X121694363Y-87096241D01*
X121539000Y-87328759D01*
X121383637Y-87096241D01*
X121183759Y-86896363D01*
X120948727Y-86739320D01*
X120687574Y-86631147D01*
X120410335Y-86576000D01*
X120127665Y-86576000D01*
X119850426Y-86631147D01*
X119589273Y-86739320D01*
X119354241Y-86896363D01*
X119154363Y-87096241D01*
X118999000Y-87328759D01*
X118843637Y-87096241D01*
X118643759Y-86896363D01*
X118408727Y-86739320D01*
X118147574Y-86631147D01*
X117870335Y-86576000D01*
X117587665Y-86576000D01*
X117310426Y-86631147D01*
X117049273Y-86739320D01*
X116814241Y-86896363D01*
X116813553Y-86897051D01*
X116291502Y-86375001D01*
X116267700Y-86345998D01*
X116151975Y-86251025D01*
X116019946Y-86180453D01*
X115876685Y-86136996D01*
X115765032Y-86125999D01*
X115765021Y-86125999D01*
X115727699Y-86122323D01*
X115690377Y-86125999D01*
X111271326Y-86125999D01*
X111234001Y-86122323D01*
X111196676Y-86125999D01*
X111196668Y-86125999D01*
X111085015Y-86136996D01*
X110941754Y-86180453D01*
X110809725Y-86251025D01*
X110694000Y-86345998D01*
X110670202Y-86374996D01*
X110432886Y-86612312D01*
X110250335Y-86576000D01*
X109967665Y-86576000D01*
X109690426Y-86631147D01*
X109429273Y-86739320D01*
X109194241Y-86896363D01*
X108994363Y-87096241D01*
X108837320Y-87331273D01*
X108729147Y-87592426D01*
X108674000Y-87869665D01*
X108674000Y-88152335D01*
X108729147Y-88429574D01*
X108837320Y-88690727D01*
X108994363Y-88925759D01*
X109194241Y-89125637D01*
X109429273Y-89282680D01*
X109690426Y-89390853D01*
X109967665Y-89446000D01*
X110250335Y-89446000D01*
X110527574Y-89390853D01*
X110788727Y-89282680D01*
X111023759Y-89125637D01*
X111223637Y-88925759D01*
X111379000Y-88693241D01*
X111534363Y-88925759D01*
X111734241Y-89125637D01*
X111969273Y-89282680D01*
X112230426Y-89390853D01*
X112507665Y-89446000D01*
X112790335Y-89446000D01*
X112972886Y-89409688D01*
X113114001Y-89550803D01*
X113114002Y-101894269D01*
X112998039Y-101859096D01*
X112776000Y-101981085D01*
X112776000Y-103124000D01*
X112796000Y-103124000D01*
X112796000Y-103378000D01*
X112776000Y-103378000D01*
X112776000Y-104520915D01*
X112998039Y-104642904D01*
X113114002Y-104607731D01*
X113114002Y-110767194D01*
X112455984Y-111425213D01*
X112323720Y-111326559D01*
X112060899Y-111201375D01*
X111913690Y-111156724D01*
X111683800Y-111278045D01*
X111683800Y-112471200D01*
X111703800Y-112471200D01*
X111703800Y-112725200D01*
X111683800Y-112725200D01*
X111683800Y-115011200D01*
X111703800Y-115011200D01*
X111703800Y-115265200D01*
X111683800Y-115265200D01*
X111683800Y-115285200D01*
X111429800Y-115285200D01*
X111429800Y-115265200D01*
X111409800Y-115265200D01*
X111409800Y-115011200D01*
X111429800Y-115011200D01*
X111429800Y-112725200D01*
X111409800Y-112725200D01*
X111409800Y-112471200D01*
X111429800Y-112471200D01*
X111429800Y-111278045D01*
X111199910Y-111156724D01*
X111052701Y-111201375D01*
X110789880Y-111326559D01*
X110556531Y-111500612D01*
X110361622Y-111716845D01*
X110291995Y-111833734D01*
X110170275Y-111651568D01*
X109963432Y-111444725D01*
X109720211Y-111282210D01*
X109449958Y-111170268D01*
X109163060Y-111113200D01*
X108870540Y-111113200D01*
X108583642Y-111170268D01*
X108313389Y-111282210D01*
X108070168Y-111444725D01*
X107863325Y-111651568D01*
X107700810Y-111894789D01*
X107588868Y-112165042D01*
X107531800Y-112451940D01*
X107531800Y-112744460D01*
X107588868Y-113031358D01*
X107700810Y-113301611D01*
X107863325Y-113544832D01*
X108070168Y-113751675D01*
X108244560Y-113868200D01*
X108070168Y-113984725D01*
X107863325Y-114191568D01*
X107700810Y-114434789D01*
X107588868Y-114705042D01*
X107531800Y-114991940D01*
X107531800Y-115284460D01*
X107588868Y-115571358D01*
X107700810Y-115841611D01*
X107863325Y-116084832D01*
X108070168Y-116291675D01*
X108313389Y-116454190D01*
X108583642Y-116566132D01*
X108870540Y-116623200D01*
X109163060Y-116623200D01*
X109235760Y-116608739D01*
X109760271Y-117133250D01*
X109787984Y-117167018D01*
X109821752Y-117194731D01*
X109821754Y-117194733D01*
X109869449Y-117233875D01*
X109922742Y-117277612D01*
X109960886Y-117298000D01*
X102582353Y-117298000D01*
X102488044Y-117307289D01*
X102350124Y-117293766D01*
X102094376Y-117216551D01*
X101858496Y-117091131D01*
X101651475Y-116922289D01*
X101481187Y-116716446D01*
X101354121Y-116481444D01*
X101275123Y-116226240D01*
X101259678Y-116079291D01*
X101269000Y-115984647D01*
X101269000Y-102728665D01*
X104102000Y-102728665D01*
X104102000Y-103011335D01*
X104157147Y-103288574D01*
X104265320Y-103549727D01*
X104422363Y-103784759D01*
X104622241Y-103984637D01*
X104857273Y-104141680D01*
X105118426Y-104249853D01*
X105395665Y-104305000D01*
X105678335Y-104305000D01*
X105955574Y-104249853D01*
X106216727Y-104141680D01*
X106451759Y-103984637D01*
X106651637Y-103784759D01*
X106808680Y-103549727D01*
X106916853Y-103288574D01*
X106952440Y-103109665D01*
X108674000Y-103109665D01*
X108674000Y-103392335D01*
X108729147Y-103669574D01*
X108837320Y-103930727D01*
X108994363Y-104165759D01*
X109194241Y-104365637D01*
X109429273Y-104522680D01*
X109690426Y-104630853D01*
X109967665Y-104686000D01*
X110250335Y-104686000D01*
X110527574Y-104630853D01*
X110788727Y-104522680D01*
X111023759Y-104365637D01*
X111223637Y-104165759D01*
X111380680Y-103930727D01*
X111385067Y-103920135D01*
X111496615Y-104106131D01*
X111685586Y-104314519D01*
X111911580Y-104482037D01*
X112165913Y-104602246D01*
X112299961Y-104642904D01*
X112522000Y-104520915D01*
X112522000Y-103378000D01*
X112502000Y-103378000D01*
X112502000Y-103124000D01*
X112522000Y-103124000D01*
X112522000Y-101981085D01*
X112299961Y-101859096D01*
X112165913Y-101899754D01*
X111911580Y-102019963D01*
X111685586Y-102187481D01*
X111496615Y-102395869D01*
X111385067Y-102581865D01*
X111380680Y-102571273D01*
X111223637Y-102336241D01*
X111023759Y-102136363D01*
X110788727Y-101979320D01*
X110527574Y-101871147D01*
X110250335Y-101816000D01*
X109967665Y-101816000D01*
X109690426Y-101871147D01*
X109429273Y-101979320D01*
X109194241Y-102136363D01*
X108994363Y-102336241D01*
X108837320Y-102571273D01*
X108729147Y-102832426D01*
X108674000Y-103109665D01*
X106952440Y-103109665D01*
X106972000Y-103011335D01*
X106972000Y-102728665D01*
X106916853Y-102451426D01*
X106808680Y-102190273D01*
X106651637Y-101955241D01*
X106451759Y-101755363D01*
X106251131Y-101621308D01*
X106278514Y-101606671D01*
X106350097Y-101362702D01*
X105537000Y-100549605D01*
X104723903Y-101362702D01*
X104795486Y-101606671D01*
X104824341Y-101620324D01*
X104622241Y-101755363D01*
X104422363Y-101955241D01*
X104265320Y-102190273D01*
X104157147Y-102451426D01*
X104102000Y-102728665D01*
X101269000Y-102728665D01*
X101269000Y-100440512D01*
X104096783Y-100440512D01*
X104138213Y-100720130D01*
X104233397Y-100986292D01*
X104300329Y-101111514D01*
X104544298Y-101183097D01*
X105357395Y-100370000D01*
X105716605Y-100370000D01*
X106529702Y-101183097D01*
X106773671Y-101111514D01*
X106894571Y-100856004D01*
X106963300Y-100581816D01*
X106977217Y-100299488D01*
X106935787Y-100019870D01*
X106840603Y-99753708D01*
X106773671Y-99628486D01*
X106529702Y-99556903D01*
X105716605Y-100370000D01*
X105357395Y-100370000D01*
X104544298Y-99556903D01*
X104300329Y-99628486D01*
X104179429Y-99883996D01*
X104110700Y-100158184D01*
X104096783Y-100440512D01*
X101269000Y-100440512D01*
X101269000Y-99377298D01*
X104723903Y-99377298D01*
X105537000Y-100190395D01*
X106350097Y-99377298D01*
X106278514Y-99133329D01*
X106023004Y-99012429D01*
X105748816Y-98943700D01*
X105466488Y-98929783D01*
X105186870Y-98971213D01*
X104920708Y-99066397D01*
X104795486Y-99133329D01*
X104723903Y-99377298D01*
X101269000Y-99377298D01*
X101269000Y-76801353D01*
X101259711Y-76707043D01*
X101273234Y-76569125D01*
X101350448Y-76313378D01*
X101475869Y-76077496D01*
X101644716Y-75870470D01*
X101850554Y-75700187D01*
X102085556Y-75573121D01*
X102340756Y-75494124D01*
X102487711Y-75478678D01*
X102582353Y-75488000D01*
G37*
%TD.AperFunction*%
D18*
X114770426Y-89390853D02*
X115047665Y-89446000D01*
X115330335Y-89446000D01*
X115607574Y-89390853D01*
X115654001Y-89371622D01*
X115654002Y-101894269D01*
X115538039Y-101859096D01*
X115316000Y-101981085D01*
X115316000Y-103124000D01*
X115336000Y-103124000D01*
X115336000Y-103378000D01*
X115316000Y-103378000D01*
X115316000Y-104520915D01*
X115538039Y-104642904D01*
X115654002Y-104607731D01*
X115654002Y-110651996D01*
X114950801Y-111355197D01*
X114932241Y-111370430D01*
X114800211Y-111282210D01*
X114625102Y-111209678D01*
X114634001Y-111119330D01*
X114634001Y-111119320D01*
X114637677Y-111081997D01*
X114634001Y-111044675D01*
X114634001Y-104568257D01*
X114705913Y-104602246D01*
X114839961Y-104642904D01*
X115062000Y-104520915D01*
X115062000Y-103378000D01*
X115042000Y-103378000D01*
X115042000Y-103124000D01*
X115062000Y-103124000D01*
X115062000Y-101981085D01*
X114839961Y-101859096D01*
X114705913Y-101899754D01*
X114634001Y-101933743D01*
X114634001Y-89334344D01*
X114770426Y-89390853D01*
%TA.AperFunction,Conductor*%
D19*
G36*
X114770426Y-89390853D02*
G01*
X115047665Y-89446000D01*
X115330335Y-89446000D01*
X115607574Y-89390853D01*
X115654001Y-89371622D01*
X115654002Y-101894269D01*
X115538039Y-101859096D01*
X115316000Y-101981085D01*
X115316000Y-103124000D01*
X115336000Y-103124000D01*
X115336000Y-103378000D01*
X115316000Y-103378000D01*
X115316000Y-104520915D01*
X115538039Y-104642904D01*
X115654002Y-104607731D01*
X115654002Y-110651996D01*
X114950801Y-111355197D01*
X114932241Y-111370430D01*
X114800211Y-111282210D01*
X114625102Y-111209678D01*
X114634001Y-111119330D01*
X114634001Y-111119320D01*
X114637677Y-111081997D01*
X114634001Y-111044675D01*
X114634001Y-104568257D01*
X114705913Y-104602246D01*
X114839961Y-104642904D01*
X115062000Y-104520915D01*
X115062000Y-103378000D01*
X115042000Y-103378000D01*
X115042000Y-103124000D01*
X115062000Y-103124000D01*
X115062000Y-101981085D01*
X114839961Y-101859096D01*
X114705913Y-101899754D01*
X114634001Y-101933743D01*
X114634001Y-89334344D01*
X114770426Y-89390853D01*
G37*
%TD.AperFunction*%
D18*
X134394363Y-88925759D02*
X134594241Y-89125637D01*
X134829273Y-89282680D01*
X135090426Y-89390853D01*
X135367665Y-89446000D01*
X135539198Y-89446000D01*
X133583004Y-91402195D01*
X133554000Y-91425998D01*
X133498872Y-91493173D01*
X133459027Y-91541723D01*
X133443431Y-91570901D01*
X133388455Y-91673753D01*
X133344998Y-91817014D01*
X133334001Y-91928667D01*
X133334001Y-91928677D01*
X133330325Y-91965999D01*
X133334001Y-92003321D01*
X133334002Y-101860491D01*
X133110335Y-101816000D01*
X132827665Y-101816000D01*
X132550426Y-101871147D01*
X132289273Y-101979320D01*
X132054241Y-102136363D01*
X131854363Y-102336241D01*
X131699000Y-102568759D01*
X131543637Y-102336241D01*
X131343759Y-102136363D01*
X131108727Y-101979320D01*
X130847574Y-101871147D01*
X130570335Y-101816000D01*
X130287665Y-101816000D01*
X130010426Y-101871147D01*
X129749273Y-101979320D01*
X129514241Y-102136363D01*
X129314363Y-102336241D01*
X129159000Y-102568759D01*
X129003637Y-102336241D01*
X128803759Y-102136363D01*
X128568727Y-101979320D01*
X128307574Y-101871147D01*
X128030335Y-101816000D01*
X127747665Y-101816000D01*
X127470426Y-101871147D01*
X127209273Y-101979320D01*
X126974241Y-102136363D01*
X126774363Y-102336241D01*
X126619000Y-102568759D01*
X126463637Y-102336241D01*
X126263759Y-102136363D01*
X126028727Y-101979320D01*
X125767574Y-101871147D01*
X125490335Y-101816000D01*
X125207665Y-101816000D01*
X124930426Y-101871147D01*
X124669273Y-101979320D01*
X124434241Y-102136363D01*
X124234363Y-102336241D01*
X124079000Y-102568759D01*
X123923637Y-102336241D01*
X123723759Y-102136363D01*
X123488727Y-101979320D01*
X123227574Y-101871147D01*
X122950335Y-101816000D01*
X122667665Y-101816000D01*
X122390426Y-101871147D01*
X122129273Y-101979320D01*
X121894241Y-102136363D01*
X121694363Y-102336241D01*
X121539000Y-102568759D01*
X121383637Y-102336241D01*
X121183759Y-102136363D01*
X120948727Y-101979320D01*
X120687574Y-101871147D01*
X120410335Y-101816000D01*
X120127665Y-101816000D01*
X119850426Y-101871147D01*
X119589273Y-101979320D01*
X119354241Y-102136363D01*
X119154363Y-102336241D01*
X118999000Y-102568759D01*
X118843637Y-102336241D01*
X118643759Y-102136363D01*
X118408727Y-101979320D01*
X118147574Y-101871147D01*
X117870335Y-101816000D01*
X117587665Y-101816000D01*
X117310426Y-101871147D01*
X117174001Y-101927656D01*
X117174001Y-89334344D01*
X117310426Y-89390853D01*
X117587665Y-89446000D01*
X117870335Y-89446000D01*
X118147574Y-89390853D01*
X118408727Y-89282680D01*
X118643759Y-89125637D01*
X118843637Y-88925759D01*
X118999000Y-88693241D01*
X119154363Y-88925759D01*
X119354241Y-89125637D01*
X119589273Y-89282680D01*
X119850426Y-89390853D01*
X120127665Y-89446000D01*
X120410335Y-89446000D01*
X120687574Y-89390853D01*
X120948727Y-89282680D01*
X121183759Y-89125637D01*
X121383637Y-88925759D01*
X121539000Y-88693241D01*
X121694363Y-88925759D01*
X121894241Y-89125637D01*
X122129273Y-89282680D01*
X122390426Y-89390853D01*
X122667665Y-89446000D01*
X122950335Y-89446000D01*
X123227574Y-89390853D01*
X123488727Y-89282680D01*
X123723759Y-89125637D01*
X123923637Y-88925759D01*
X124079000Y-88693241D01*
X124234363Y-88925759D01*
X124434241Y-89125637D01*
X124669273Y-89282680D01*
X124930426Y-89390853D01*
X125207665Y-89446000D01*
X125490335Y-89446000D01*
X125767574Y-89390853D01*
X126028727Y-89282680D01*
X126263759Y-89125637D01*
X126463637Y-88925759D01*
X126619000Y-88693241D01*
X126774363Y-88925759D01*
X126974241Y-89125637D01*
X127209273Y-89282680D01*
X127470426Y-89390853D01*
X127747665Y-89446000D01*
X128030335Y-89446000D01*
X128307574Y-89390853D01*
X128568727Y-89282680D01*
X128803759Y-89125637D01*
X129003637Y-88925759D01*
X129159000Y-88693241D01*
X129314363Y-88925759D01*
X129514241Y-89125637D01*
X129749273Y-89282680D01*
X130010426Y-89390853D01*
X130287665Y-89446000D01*
X130570335Y-89446000D01*
X130847574Y-89390853D01*
X131108727Y-89282680D01*
X131343759Y-89125637D01*
X131543637Y-88925759D01*
X131699000Y-88693241D01*
X131854363Y-88925759D01*
X132054241Y-89125637D01*
X132289273Y-89282680D01*
X132550426Y-89390853D01*
X132827665Y-89446000D01*
X133110335Y-89446000D01*
X133387574Y-89390853D01*
X133648727Y-89282680D01*
X133883759Y-89125637D01*
X134083637Y-88925759D01*
X134239000Y-88693241D01*
X134394363Y-88925759D01*
%TA.AperFunction,Conductor*%
D19*
G36*
X134394363Y-88925759D02*
G01*
X134594241Y-89125637D01*
X134829273Y-89282680D01*
X135090426Y-89390853D01*
X135367665Y-89446000D01*
X135539198Y-89446000D01*
X133583004Y-91402195D01*
X133554000Y-91425998D01*
X133498872Y-91493173D01*
X133459027Y-91541723D01*
X133443431Y-91570901D01*
X133388455Y-91673753D01*
X133344998Y-91817014D01*
X133334001Y-91928667D01*
X133334001Y-91928677D01*
X133330325Y-91965999D01*
X133334001Y-92003321D01*
X133334002Y-101860491D01*
X133110335Y-101816000D01*
X132827665Y-101816000D01*
X132550426Y-101871147D01*
X132289273Y-101979320D01*
X132054241Y-102136363D01*
X131854363Y-102336241D01*
X131699000Y-102568759D01*
X131543637Y-102336241D01*
X131343759Y-102136363D01*
X131108727Y-101979320D01*
X130847574Y-101871147D01*
X130570335Y-101816000D01*
X130287665Y-101816000D01*
X130010426Y-101871147D01*
X129749273Y-101979320D01*
X129514241Y-102136363D01*
X129314363Y-102336241D01*
X129159000Y-102568759D01*
X129003637Y-102336241D01*
X128803759Y-102136363D01*
X128568727Y-101979320D01*
X128307574Y-101871147D01*
X128030335Y-101816000D01*
X127747665Y-101816000D01*
X127470426Y-101871147D01*
X127209273Y-101979320D01*
X126974241Y-102136363D01*
X126774363Y-102336241D01*
X126619000Y-102568759D01*
X126463637Y-102336241D01*
X126263759Y-102136363D01*
X126028727Y-101979320D01*
X125767574Y-101871147D01*
X125490335Y-101816000D01*
X125207665Y-101816000D01*
X124930426Y-101871147D01*
X124669273Y-101979320D01*
X124434241Y-102136363D01*
X124234363Y-102336241D01*
X124079000Y-102568759D01*
X123923637Y-102336241D01*
X123723759Y-102136363D01*
X123488727Y-101979320D01*
X123227574Y-101871147D01*
X122950335Y-101816000D01*
X122667665Y-101816000D01*
X122390426Y-101871147D01*
X122129273Y-101979320D01*
X121894241Y-102136363D01*
X121694363Y-102336241D01*
X121539000Y-102568759D01*
X121383637Y-102336241D01*
X121183759Y-102136363D01*
X120948727Y-101979320D01*
X120687574Y-101871147D01*
X120410335Y-101816000D01*
X120127665Y-101816000D01*
X119850426Y-101871147D01*
X119589273Y-101979320D01*
X119354241Y-102136363D01*
X119154363Y-102336241D01*
X118999000Y-102568759D01*
X118843637Y-102336241D01*
X118643759Y-102136363D01*
X118408727Y-101979320D01*
X118147574Y-101871147D01*
X117870335Y-101816000D01*
X117587665Y-101816000D01*
X117310426Y-101871147D01*
X117174001Y-101927656D01*
X117174001Y-89334344D01*
X117310426Y-89390853D01*
X117587665Y-89446000D01*
X117870335Y-89446000D01*
X118147574Y-89390853D01*
X118408727Y-89282680D01*
X118643759Y-89125637D01*
X118843637Y-88925759D01*
X118999000Y-88693241D01*
X119154363Y-88925759D01*
X119354241Y-89125637D01*
X119589273Y-89282680D01*
X119850426Y-89390853D01*
X120127665Y-89446000D01*
X120410335Y-89446000D01*
X120687574Y-89390853D01*
X120948727Y-89282680D01*
X121183759Y-89125637D01*
X121383637Y-88925759D01*
X121539000Y-88693241D01*
X121694363Y-88925759D01*
X121894241Y-89125637D01*
X122129273Y-89282680D01*
X122390426Y-89390853D01*
X122667665Y-89446000D01*
X122950335Y-89446000D01*
X123227574Y-89390853D01*
X123488727Y-89282680D01*
X123723759Y-89125637D01*
X123923637Y-88925759D01*
X124079000Y-88693241D01*
X124234363Y-88925759D01*
X124434241Y-89125637D01*
X124669273Y-89282680D01*
X124930426Y-89390853D01*
X125207665Y-89446000D01*
X125490335Y-89446000D01*
X125767574Y-89390853D01*
X126028727Y-89282680D01*
X126263759Y-89125637D01*
X126463637Y-88925759D01*
X126619000Y-88693241D01*
X126774363Y-88925759D01*
X126974241Y-89125637D01*
X127209273Y-89282680D01*
X127470426Y-89390853D01*
X127747665Y-89446000D01*
X128030335Y-89446000D01*
X128307574Y-89390853D01*
X128568727Y-89282680D01*
X128803759Y-89125637D01*
X129003637Y-88925759D01*
X129159000Y-88693241D01*
X129314363Y-88925759D01*
X129514241Y-89125637D01*
X129749273Y-89282680D01*
X130010426Y-89390853D01*
X130287665Y-89446000D01*
X130570335Y-89446000D01*
X130847574Y-89390853D01*
X131108727Y-89282680D01*
X131343759Y-89125637D01*
X131543637Y-88925759D01*
X131699000Y-88693241D01*
X131854363Y-88925759D01*
X132054241Y-89125637D01*
X132289273Y-89282680D01*
X132550426Y-89390853D01*
X132827665Y-89446000D01*
X133110335Y-89446000D01*
X133387574Y-89390853D01*
X133648727Y-89282680D01*
X133883759Y-89125637D01*
X134083637Y-88925759D01*
X134239000Y-88693241D01*
X134394363Y-88925759D01*
G37*
%TD.AperFunction*%
%TD*%
M02*
