%TF.GenerationSoftware,KiCad,Pcbnew,(5.1.12-1-10_14)*%
%TF.CreationDate,2022-01-05T16:58:03+01:00*%
%TF.ProjectId,kids serial,6b696473-2073-4657-9269-616c2e6b6963,rev?*%
%TF.SameCoordinates,Original*%
%TF.FileFunction,Copper,L1,Top*%
%TF.FilePolarity,Positive*%
%FSLAX46Y46*%
G04 Gerber Fmt 4.6, Leading zero omitted, Abs format (unit mm)*
G04 Created by KiCad (PCBNEW (5.1.12-1-10_14)) date 2022-01-05 16:58:03*
%MOMM*%
%LPD*%
G01*
G04 APERTURE LIST*
%TA.AperFunction,ComponentPad*%
%ADD10O,1.700000X1.700000*%
%TD*%
%TA.AperFunction,ComponentPad*%
%ADD11R,1.700000X1.700000*%
%TD*%
%TA.AperFunction,ComponentPad*%
%ADD12O,1.600000X1.600000*%
%TD*%
%TA.AperFunction,ComponentPad*%
%ADD13R,1.600000X1.600000*%
%TD*%
%TA.AperFunction,ComponentPad*%
%ADD14C,1.600000*%
%TD*%
%TA.AperFunction,ViaPad*%
%ADD15C,0.800000*%
%TD*%
%TA.AperFunction,Conductor*%
%ADD16C,0.500000*%
%TD*%
%TA.AperFunction,Conductor*%
%ADD17C,0.250000*%
%TD*%
%TA.AperFunction,Conductor*%
%ADD18C,0.254000*%
%TD*%
%TA.AperFunction,Conductor*%
%ADD19C,0.100000*%
%TD*%
G04 APERTURE END LIST*
D10*
%TO.P,J1,32*%
%TO.N,+5V*%
X109016800Y-115138200D03*
%TO.P,J1,31*%
X109016800Y-112598200D03*
%TO.P,J1,30*%
%TO.N,GND*%
X111556800Y-115138200D03*
%TO.P,J1,29*%
X111556800Y-112598200D03*
%TO.P,J1,28*%
%TO.N,/A0*%
X114096800Y-115138200D03*
%TO.P,J1,27*%
%TO.N,/D0*%
X114096800Y-112598200D03*
%TO.P,J1,26*%
%TO.N,/A1*%
X116636800Y-115138200D03*
%TO.P,J1,25*%
%TO.N,/D1*%
X116636800Y-112598200D03*
%TO.P,J1,24*%
%TO.N,/A2*%
X119176800Y-115138200D03*
%TO.P,J1,23*%
%TO.N,/D2*%
X119176800Y-112598200D03*
%TO.P,J1,22*%
%TO.N,/A3*%
X121716800Y-115138200D03*
%TO.P,J1,21*%
%TO.N,/D3*%
X121716800Y-112598200D03*
%TO.P,J1,20*%
%TO.N,/A4*%
X124256800Y-115138200D03*
%TO.P,J1,19*%
%TO.N,/D4*%
X124256800Y-112598200D03*
%TO.P,J1,18*%
%TO.N,/A5*%
X126796800Y-115138200D03*
%TO.P,J1,17*%
%TO.N,/D5*%
X126796800Y-112598200D03*
%TO.P,J1,16*%
%TO.N,~CS*%
X129336800Y-115138200D03*
%TO.P,J1,15*%
%TO.N,/D6*%
X129336800Y-112598200D03*
%TO.P,J1,14*%
%TO.N,R~W*%
X131876800Y-115138200D03*
%TO.P,J1,13*%
%TO.N,/D7*%
X131876800Y-112598200D03*
%TO.P,J1,12*%
%TO.N,CLK*%
X134416800Y-115138200D03*
%TO.P,J1,11*%
%TO.N,~IRQ*%
X134416800Y-112598200D03*
%TO.P,J1,10*%
%TO.N,~RES*%
X136956800Y-115138200D03*
%TO.P,J1,9*%
%TO.N,Net-(J1-Pad9)*%
X136956800Y-112598200D03*
%TO.P,J1,8*%
%TO.N,Net-(J1-Pad8)*%
X139496800Y-115138200D03*
%TO.P,J1,7*%
%TO.N,Net-(J1-Pad7)*%
X139496800Y-112598200D03*
%TO.P,J1,6*%
%TO.N,Net-(J1-Pad6)*%
X142036800Y-115138200D03*
%TO.P,J1,5*%
%TO.N,Net-(J1-Pad5)*%
X142036800Y-112598200D03*
%TO.P,J1,4*%
%TO.N,+5V*%
X144576800Y-115138200D03*
%TO.P,J1,3*%
X144576800Y-112598200D03*
%TO.P,J1,2*%
%TO.N,GND*%
X147116800Y-115138200D03*
D11*
%TO.P,J1,1*%
X147116800Y-112598200D03*
%TD*%
D12*
%TO.P,U1,28*%
%TO.N,R~W*%
X143129000Y-103251000D03*
%TO.P,U1,14*%
%TO.N,/A1*%
X110109000Y-88011000D03*
%TO.P,U1,27*%
%TO.N,CLK*%
X140589000Y-103251000D03*
%TO.P,U1,13*%
%TO.N,/A0*%
X112649000Y-88011000D03*
%TO.P,U1,26*%
%TO.N,~IRQ*%
X138049000Y-103251000D03*
%TO.P,U1,12*%
%TO.N,TXD_IO*%
X115189000Y-88011000D03*
%TO.P,U1,25*%
%TO.N,/D7*%
X135509000Y-103251000D03*
%TO.P,U1,11*%
%TO.N,Net-(U1-Pad11)*%
X117729000Y-88011000D03*
%TO.P,U1,24*%
%TO.N,/D6*%
X132969000Y-103251000D03*
%TO.P,U1,10*%
%TO.N,RXD_IO*%
X120269000Y-88011000D03*
%TO.P,U1,23*%
%TO.N,/D5*%
X130429000Y-103251000D03*
%TO.P,U1,9*%
%TO.N,~RTS_IO*%
X122809000Y-88011000D03*
%TO.P,U1,22*%
%TO.N,/D4*%
X127889000Y-103251000D03*
%TO.P,U1,8*%
%TO.N,~CTS_IO*%
X125349000Y-88011000D03*
%TO.P,U1,21*%
%TO.N,/D3*%
X125349000Y-103251000D03*
%TO.P,U1,7*%
%TO.N,Net-(U1-Pad7)*%
X127889000Y-88011000D03*
%TO.P,U1,20*%
%TO.N,/D2*%
X122809000Y-103251000D03*
%TO.P,U1,6*%
%TO.N,XTAL_CLK*%
X130429000Y-88011000D03*
%TO.P,U1,19*%
%TO.N,/D1*%
X120269000Y-103251000D03*
%TO.P,U1,5*%
%TO.N,Net-(U1-Pad5)*%
X132969000Y-88011000D03*
%TO.P,U1,18*%
%TO.N,/D0*%
X117729000Y-103251000D03*
%TO.P,U1,4*%
%TO.N,~RES*%
X135509000Y-88011000D03*
%TO.P,U1,17*%
%TO.N,GND*%
X115189000Y-103251000D03*
%TO.P,U1,3*%
%TO.N,~CS*%
X138049000Y-88011000D03*
%TO.P,U1,16*%
%TO.N,GND*%
X112649000Y-103251000D03*
%TO.P,U1,2*%
%TO.N,+5V*%
X140589000Y-88011000D03*
%TO.P,U1,15*%
X110109000Y-103251000D03*
D13*
%TO.P,U1,1*%
%TO.N,GND*%
X143129000Y-88011000D03*
%TD*%
D10*
%TO.P,J3,2*%
%TO.N,VCC_IO*%
X166243000Y-84328000D03*
D11*
%TO.P,J3,1*%
%TO.N,+5V*%
X166243000Y-81788000D03*
%TD*%
D10*
%TO.P,J2,6*%
%TO.N,~CTS_IO*%
X166243000Y-102235000D03*
%TO.P,J2,5*%
%TO.N,~RTS_IO*%
X166243000Y-99695000D03*
%TO.P,J2,4*%
%TO.N,RXD_IO*%
X166243000Y-97155000D03*
%TO.P,J2,3*%
%TO.N,TXD_IO*%
X166243000Y-94615000D03*
%TO.P,J2,2*%
%TO.N,GND*%
X166243000Y-92075000D03*
D11*
%TO.P,J2,1*%
%TO.N,VCC_IO*%
X166243000Y-89535000D03*
%TD*%
D14*
%TO.P,C1,2*%
%TO.N,GND*%
X105537000Y-100370000D03*
%TO.P,C1,1*%
%TO.N,+5V*%
X105537000Y-102870000D03*
%TD*%
D13*
%TO.P,X1,1*%
%TO.N,Net-(X1-Pad1)*%
X158750000Y-103251000D03*
D14*
%TO.P,X1,14*%
%TO.N,+5V*%
X151130000Y-103251000D03*
%TO.P,X1,8*%
%TO.N,XTAL_CLK*%
X151130000Y-88011000D03*
%TO.P,X1,7*%
%TO.N,GND*%
X158750000Y-88011000D03*
%TD*%
D15*
%TO.N,GND*%
X126873000Y-95758000D03*
X166243000Y-108585000D03*
X166243000Y-78359000D03*
X105537000Y-78359000D03*
X137033000Y-78486000D03*
%TD*%
D16*
%TO.N,+5V*%
X105918000Y-103251000D02*
X105537000Y-102870000D01*
X110109000Y-103251000D02*
X105918000Y-103251000D01*
X105537000Y-109118400D02*
X109016800Y-112598200D01*
X105537000Y-102870000D02*
X105537000Y-109118400D01*
X109016800Y-112598200D02*
X109016800Y-115138200D01*
X144576800Y-115138200D02*
X144576800Y-112598200D01*
X144576800Y-109804200D02*
X145859500Y-108521500D01*
X145859500Y-108521500D02*
X151130000Y-103251000D01*
X144576800Y-112598200D02*
X144576800Y-109804200D01*
X145669000Y-108712000D02*
X145859500Y-108521500D01*
%TO.N,GND*%
X115189000Y-103251000D02*
X112649000Y-103251000D01*
X109768000Y-100370000D02*
X105537000Y-100370000D01*
X112649000Y-103251000D02*
X109768000Y-100370000D01*
D17*
%TO.N,/D0*%
X117729000Y-108966000D02*
X114096800Y-112598200D01*
X117729000Y-103251000D02*
X117729000Y-108966000D01*
%TO.N,/D1*%
X120269000Y-108966000D02*
X116636800Y-112598200D01*
X120269000Y-103251000D02*
X120269000Y-108966000D01*
%TO.N,/D2*%
X122809000Y-108966000D02*
X119176800Y-112598200D01*
X122809000Y-103251000D02*
X122809000Y-108966000D01*
%TO.N,/D3*%
X125349000Y-108966000D02*
X121716800Y-112598200D01*
X125349000Y-103251000D02*
X125349000Y-108966000D01*
%TO.N,/D4*%
X127889000Y-108966000D02*
X124256800Y-112598200D01*
X127889000Y-103251000D02*
X127889000Y-108966000D01*
%TO.N,/D5*%
X130429000Y-108966000D02*
X126796800Y-112598200D01*
X130429000Y-103251000D02*
X130429000Y-108966000D01*
%TO.N,/D6*%
X132969000Y-108966000D02*
X129336800Y-112598200D01*
X132969000Y-103251000D02*
X132969000Y-108966000D01*
%TO.N,R~W*%
X138131801Y-114574199D02*
X138131801Y-115702201D01*
X138932799Y-113773201D02*
X138131801Y-114574199D01*
X137520801Y-116313201D02*
X133051801Y-116313201D01*
X140671801Y-113162201D02*
X140060801Y-113773201D01*
X138131801Y-115702201D02*
X137520801Y-116313201D01*
X140060801Y-113773201D02*
X138932799Y-113773201D01*
X140671801Y-112034199D02*
X140671801Y-113162201D01*
X133051801Y-116313201D02*
X131876800Y-115138200D01*
X143129000Y-109577000D02*
X140671801Y-112034199D01*
X143129000Y-103251000D02*
X143129000Y-109577000D01*
%TO.N,/D7*%
X135509000Y-108966000D02*
X131876800Y-112598200D01*
X135509000Y-103251000D02*
X135509000Y-108966000D01*
%TO.N,CLK*%
X135591801Y-113963199D02*
X134416800Y-115138200D01*
X138131801Y-113162201D02*
X137330803Y-113963199D01*
X138131801Y-112034199D02*
X138131801Y-113162201D01*
X137330803Y-113963199D02*
X135591801Y-113963199D01*
X140589000Y-109577000D02*
X138131801Y-112034199D01*
X140589000Y-103251000D02*
X140589000Y-109577000D01*
%TO.N,~IRQ*%
X138049000Y-108966000D02*
X134416800Y-112598200D01*
X138049000Y-103251000D02*
X138049000Y-108966000D01*
D16*
%TO.N,VCC_IO*%
X166243000Y-89535000D02*
X166243000Y-84455000D01*
D17*
%TO.N,TXD_IO*%
X164967999Y-93339999D02*
X166243000Y-94615000D01*
X118214039Y-84985961D02*
X157537963Y-84985961D01*
X164967999Y-92415997D02*
X164967999Y-93339999D01*
X157537963Y-84985961D02*
X164967999Y-92415997D01*
X115189000Y-88011000D02*
X118214039Y-84985961D01*
%TO.N,RXD_IO*%
X166080998Y-97155000D02*
X166243000Y-97155000D01*
X154361969Y-85435971D02*
X166080998Y-97155000D01*
X122844029Y-85435971D02*
X154361969Y-85435971D01*
X120269000Y-88011000D02*
X122844029Y-85435971D01*
%TO.N,~RTS_IO*%
X152433980Y-85885980D02*
X166243000Y-99695000D01*
X124934020Y-85885980D02*
X152433980Y-85885980D01*
X122809000Y-88011000D02*
X124934020Y-85885980D01*
%TO.N,~CTS_IO*%
X127024011Y-86335989D02*
X151232989Y-86335989D01*
X125349000Y-88011000D02*
X127024011Y-86335989D01*
X151232989Y-86335989D02*
X160528000Y-95631000D01*
X160528000Y-96520000D02*
X166243000Y-102235000D01*
X160528000Y-95631000D02*
X160528000Y-96520000D01*
%TO.N,XTAL_CLK*%
X131654001Y-86785999D02*
X130429000Y-88011000D01*
X149904999Y-86785999D02*
X131654001Y-86785999D01*
X151130000Y-88011000D02*
X149904999Y-86785999D01*
%TD*%
D18*
%TO.N,GND*%
X102582353Y-75488000D02*
X171201620Y-75488000D01*
X176099000Y-80385381D01*
X176099001Y-115984647D01*
X176108289Y-116078951D01*
X176094766Y-116216876D01*
X176017551Y-116472624D01*
X175892131Y-116708504D01*
X175723289Y-116915525D01*
X175517446Y-117085813D01*
X175282444Y-117212879D01*
X175027240Y-117291877D01*
X174880291Y-117307322D01*
X174785647Y-117298000D01*
X102582353Y-117298000D01*
X102488044Y-117307289D01*
X102350124Y-117293766D01*
X102094376Y-117216551D01*
X101858496Y-117091131D01*
X101651475Y-116922289D01*
X101481187Y-116716446D01*
X101354121Y-116481444D01*
X101275123Y-116226240D01*
X101259678Y-116079291D01*
X101269000Y-115984647D01*
X101269000Y-102728665D01*
X104102000Y-102728665D01*
X104102000Y-103011335D01*
X104157147Y-103288574D01*
X104265320Y-103549727D01*
X104422363Y-103784759D01*
X104622241Y-103984637D01*
X104652000Y-104004521D01*
X104652001Y-109074921D01*
X104647719Y-109118400D01*
X104664805Y-109291890D01*
X104715412Y-109458713D01*
X104797590Y-109612459D01*
X104880468Y-109713446D01*
X104880471Y-109713449D01*
X104908184Y-109747217D01*
X104941951Y-109774929D01*
X107546261Y-112379240D01*
X107531800Y-112451940D01*
X107531800Y-112744460D01*
X107588868Y-113031358D01*
X107700810Y-113301611D01*
X107863325Y-113544832D01*
X108070168Y-113751675D01*
X108131800Y-113792856D01*
X108131801Y-113943543D01*
X108070168Y-113984725D01*
X107863325Y-114191568D01*
X107700810Y-114434789D01*
X107588868Y-114705042D01*
X107531800Y-114991940D01*
X107531800Y-115284460D01*
X107588868Y-115571358D01*
X107700810Y-115841611D01*
X107863325Y-116084832D01*
X108070168Y-116291675D01*
X108313389Y-116454190D01*
X108583642Y-116566132D01*
X108870540Y-116623200D01*
X109163060Y-116623200D01*
X109449958Y-116566132D01*
X109720211Y-116454190D01*
X109963432Y-116291675D01*
X110170275Y-116084832D01*
X110291995Y-115902666D01*
X110361622Y-116019555D01*
X110556531Y-116235788D01*
X110789880Y-116409841D01*
X111052701Y-116535025D01*
X111199910Y-116579676D01*
X111429800Y-116458355D01*
X111429800Y-115265200D01*
X111409800Y-115265200D01*
X111409800Y-115011200D01*
X111429800Y-115011200D01*
X111429800Y-112725200D01*
X111409800Y-112725200D01*
X111409800Y-112471200D01*
X111429800Y-112471200D01*
X111429800Y-111278045D01*
X111683800Y-111278045D01*
X111683800Y-112471200D01*
X111703800Y-112471200D01*
X111703800Y-112725200D01*
X111683800Y-112725200D01*
X111683800Y-115011200D01*
X111703800Y-115011200D01*
X111703800Y-115265200D01*
X111683800Y-115265200D01*
X111683800Y-116458355D01*
X111913690Y-116579676D01*
X112060899Y-116535025D01*
X112323720Y-116409841D01*
X112557069Y-116235788D01*
X112751978Y-116019555D01*
X112821605Y-115902666D01*
X112943325Y-116084832D01*
X113150168Y-116291675D01*
X113393389Y-116454190D01*
X113663642Y-116566132D01*
X113950540Y-116623200D01*
X114243060Y-116623200D01*
X114529958Y-116566132D01*
X114800211Y-116454190D01*
X115043432Y-116291675D01*
X115250275Y-116084832D01*
X115366800Y-115910440D01*
X115483325Y-116084832D01*
X115690168Y-116291675D01*
X115933389Y-116454190D01*
X116203642Y-116566132D01*
X116490540Y-116623200D01*
X116783060Y-116623200D01*
X117069958Y-116566132D01*
X117340211Y-116454190D01*
X117583432Y-116291675D01*
X117790275Y-116084832D01*
X117906800Y-115910440D01*
X118023325Y-116084832D01*
X118230168Y-116291675D01*
X118473389Y-116454190D01*
X118743642Y-116566132D01*
X119030540Y-116623200D01*
X119323060Y-116623200D01*
X119609958Y-116566132D01*
X119880211Y-116454190D01*
X120123432Y-116291675D01*
X120330275Y-116084832D01*
X120446800Y-115910440D01*
X120563325Y-116084832D01*
X120770168Y-116291675D01*
X121013389Y-116454190D01*
X121283642Y-116566132D01*
X121570540Y-116623200D01*
X121863060Y-116623200D01*
X122149958Y-116566132D01*
X122420211Y-116454190D01*
X122663432Y-116291675D01*
X122870275Y-116084832D01*
X122986800Y-115910440D01*
X123103325Y-116084832D01*
X123310168Y-116291675D01*
X123553389Y-116454190D01*
X123823642Y-116566132D01*
X124110540Y-116623200D01*
X124403060Y-116623200D01*
X124689958Y-116566132D01*
X124960211Y-116454190D01*
X125203432Y-116291675D01*
X125410275Y-116084832D01*
X125526800Y-115910440D01*
X125643325Y-116084832D01*
X125850168Y-116291675D01*
X126093389Y-116454190D01*
X126363642Y-116566132D01*
X126650540Y-116623200D01*
X126943060Y-116623200D01*
X127229958Y-116566132D01*
X127500211Y-116454190D01*
X127743432Y-116291675D01*
X127950275Y-116084832D01*
X128066800Y-115910440D01*
X128183325Y-116084832D01*
X128390168Y-116291675D01*
X128633389Y-116454190D01*
X128903642Y-116566132D01*
X129190540Y-116623200D01*
X129483060Y-116623200D01*
X129769958Y-116566132D01*
X130040211Y-116454190D01*
X130283432Y-116291675D01*
X130490275Y-116084832D01*
X130606800Y-115910440D01*
X130723325Y-116084832D01*
X130930168Y-116291675D01*
X131173389Y-116454190D01*
X131443642Y-116566132D01*
X131730540Y-116623200D01*
X132023060Y-116623200D01*
X132243208Y-116579410D01*
X132488002Y-116824204D01*
X132511800Y-116853202D01*
X132627525Y-116948175D01*
X132759554Y-117018747D01*
X132902815Y-117062204D01*
X133014468Y-117073201D01*
X133014477Y-117073201D01*
X133051800Y-117076877D01*
X133089123Y-117073201D01*
X137483479Y-117073201D01*
X137520801Y-117076877D01*
X137558123Y-117073201D01*
X137558134Y-117073201D01*
X137669787Y-117062204D01*
X137813048Y-117018747D01*
X137945077Y-116948175D01*
X138060802Y-116853202D01*
X138084604Y-116824199D01*
X138590309Y-116318496D01*
X138793389Y-116454190D01*
X139063642Y-116566132D01*
X139350540Y-116623200D01*
X139643060Y-116623200D01*
X139929958Y-116566132D01*
X140200211Y-116454190D01*
X140443432Y-116291675D01*
X140650275Y-116084832D01*
X140766800Y-115910440D01*
X140883325Y-116084832D01*
X141090168Y-116291675D01*
X141333389Y-116454190D01*
X141603642Y-116566132D01*
X141890540Y-116623200D01*
X142183060Y-116623200D01*
X142469958Y-116566132D01*
X142740211Y-116454190D01*
X142983432Y-116291675D01*
X143190275Y-116084832D01*
X143306800Y-115910440D01*
X143423325Y-116084832D01*
X143630168Y-116291675D01*
X143873389Y-116454190D01*
X144143642Y-116566132D01*
X144430540Y-116623200D01*
X144723060Y-116623200D01*
X145009958Y-116566132D01*
X145280211Y-116454190D01*
X145523432Y-116291675D01*
X145730275Y-116084832D01*
X145851995Y-115902666D01*
X145921622Y-116019555D01*
X146116531Y-116235788D01*
X146349880Y-116409841D01*
X146612701Y-116535025D01*
X146759910Y-116579676D01*
X146989800Y-116458355D01*
X146989800Y-115265200D01*
X147243800Y-115265200D01*
X147243800Y-116458355D01*
X147473690Y-116579676D01*
X147620899Y-116535025D01*
X147883720Y-116409841D01*
X148117069Y-116235788D01*
X148311978Y-116019555D01*
X148460957Y-115769452D01*
X148558281Y-115495091D01*
X148437614Y-115265200D01*
X147243800Y-115265200D01*
X146989800Y-115265200D01*
X146969800Y-115265200D01*
X146969800Y-115011200D01*
X146989800Y-115011200D01*
X146989800Y-112725200D01*
X147243800Y-112725200D01*
X147243800Y-115011200D01*
X148437614Y-115011200D01*
X148558281Y-114781309D01*
X148460957Y-114506948D01*
X148311978Y-114256845D01*
X148135174Y-114060698D01*
X148210980Y-114037702D01*
X148321294Y-113978737D01*
X148417985Y-113899385D01*
X148497337Y-113802694D01*
X148556302Y-113692380D01*
X148592612Y-113572682D01*
X148604872Y-113448200D01*
X148601800Y-112883950D01*
X148443050Y-112725200D01*
X147243800Y-112725200D01*
X146989800Y-112725200D01*
X146969800Y-112725200D01*
X146969800Y-112471200D01*
X146989800Y-112471200D01*
X146989800Y-111271950D01*
X147243800Y-111271950D01*
X147243800Y-112471200D01*
X148443050Y-112471200D01*
X148601800Y-112312450D01*
X148604872Y-111748200D01*
X148592612Y-111623718D01*
X148556302Y-111504020D01*
X148497337Y-111393706D01*
X148417985Y-111297015D01*
X148321294Y-111217663D01*
X148210980Y-111158698D01*
X148091282Y-111122388D01*
X147966800Y-111110128D01*
X147402550Y-111113200D01*
X147243800Y-111271950D01*
X146989800Y-111271950D01*
X146831050Y-111113200D01*
X146266800Y-111110128D01*
X146142318Y-111122388D01*
X146022620Y-111158698D01*
X145912306Y-111217663D01*
X145815615Y-111297015D01*
X145736263Y-111393706D01*
X145677298Y-111504020D01*
X145655287Y-111576580D01*
X145523432Y-111444725D01*
X145461800Y-111403544D01*
X145461800Y-110170778D01*
X146516032Y-109116547D01*
X146516037Y-109116541D01*
X150953561Y-104679017D01*
X150988665Y-104686000D01*
X151271335Y-104686000D01*
X151548574Y-104630853D01*
X151809727Y-104522680D01*
X152044759Y-104365637D01*
X152244637Y-104165759D01*
X152401680Y-103930727D01*
X152509853Y-103669574D01*
X152565000Y-103392335D01*
X152565000Y-103109665D01*
X152509853Y-102832426D01*
X152401680Y-102571273D01*
X152321317Y-102451000D01*
X157311928Y-102451000D01*
X157311928Y-104051000D01*
X157324188Y-104175482D01*
X157360498Y-104295180D01*
X157419463Y-104405494D01*
X157498815Y-104502185D01*
X157595506Y-104581537D01*
X157705820Y-104640502D01*
X157825518Y-104676812D01*
X157950000Y-104689072D01*
X159550000Y-104689072D01*
X159674482Y-104676812D01*
X159794180Y-104640502D01*
X159904494Y-104581537D01*
X160001185Y-104502185D01*
X160080537Y-104405494D01*
X160139502Y-104295180D01*
X160175812Y-104175482D01*
X160188072Y-104051000D01*
X160188072Y-102451000D01*
X160175812Y-102326518D01*
X160139502Y-102206820D01*
X160080537Y-102096506D01*
X160001185Y-101999815D01*
X159904494Y-101920463D01*
X159794180Y-101861498D01*
X159674482Y-101825188D01*
X159550000Y-101812928D01*
X157950000Y-101812928D01*
X157825518Y-101825188D01*
X157705820Y-101861498D01*
X157595506Y-101920463D01*
X157498815Y-101999815D01*
X157419463Y-102096506D01*
X157360498Y-102206820D01*
X157324188Y-102326518D01*
X157311928Y-102451000D01*
X152321317Y-102451000D01*
X152244637Y-102336241D01*
X152044759Y-102136363D01*
X151809727Y-101979320D01*
X151548574Y-101871147D01*
X151271335Y-101816000D01*
X150988665Y-101816000D01*
X150711426Y-101871147D01*
X150450273Y-101979320D01*
X150215241Y-102136363D01*
X150015363Y-102336241D01*
X149858320Y-102571273D01*
X149750147Y-102832426D01*
X149695000Y-103109665D01*
X149695000Y-103392335D01*
X149701983Y-103427439D01*
X145264459Y-107864963D01*
X145264453Y-107864968D01*
X143981751Y-109147671D01*
X143947984Y-109175383D01*
X143920271Y-109209151D01*
X143920268Y-109209154D01*
X143889000Y-109247254D01*
X143889000Y-104469043D01*
X144043759Y-104365637D01*
X144243637Y-104165759D01*
X144400680Y-103930727D01*
X144508853Y-103669574D01*
X144564000Y-103392335D01*
X144564000Y-103109665D01*
X144508853Y-102832426D01*
X144400680Y-102571273D01*
X144243637Y-102336241D01*
X144043759Y-102136363D01*
X143808727Y-101979320D01*
X143547574Y-101871147D01*
X143270335Y-101816000D01*
X142987665Y-101816000D01*
X142710426Y-101871147D01*
X142449273Y-101979320D01*
X142214241Y-102136363D01*
X142014363Y-102336241D01*
X141859000Y-102568759D01*
X141703637Y-102336241D01*
X141503759Y-102136363D01*
X141268727Y-101979320D01*
X141007574Y-101871147D01*
X140730335Y-101816000D01*
X140447665Y-101816000D01*
X140170426Y-101871147D01*
X139909273Y-101979320D01*
X139674241Y-102136363D01*
X139474363Y-102336241D01*
X139319000Y-102568759D01*
X139163637Y-102336241D01*
X138963759Y-102136363D01*
X138728727Y-101979320D01*
X138467574Y-101871147D01*
X138190335Y-101816000D01*
X137907665Y-101816000D01*
X137630426Y-101871147D01*
X137369273Y-101979320D01*
X137134241Y-102136363D01*
X136934363Y-102336241D01*
X136779000Y-102568759D01*
X136623637Y-102336241D01*
X136423759Y-102136363D01*
X136188727Y-101979320D01*
X135927574Y-101871147D01*
X135650335Y-101816000D01*
X135367665Y-101816000D01*
X135090426Y-101871147D01*
X134829273Y-101979320D01*
X134594241Y-102136363D01*
X134394363Y-102336241D01*
X134239000Y-102568759D01*
X134083637Y-102336241D01*
X133883759Y-102136363D01*
X133648727Y-101979320D01*
X133387574Y-101871147D01*
X133110335Y-101816000D01*
X132827665Y-101816000D01*
X132550426Y-101871147D01*
X132289273Y-101979320D01*
X132054241Y-102136363D01*
X131854363Y-102336241D01*
X131699000Y-102568759D01*
X131543637Y-102336241D01*
X131343759Y-102136363D01*
X131108727Y-101979320D01*
X130847574Y-101871147D01*
X130570335Y-101816000D01*
X130287665Y-101816000D01*
X130010426Y-101871147D01*
X129749273Y-101979320D01*
X129514241Y-102136363D01*
X129314363Y-102336241D01*
X129159000Y-102568759D01*
X129003637Y-102336241D01*
X128803759Y-102136363D01*
X128568727Y-101979320D01*
X128307574Y-101871147D01*
X128030335Y-101816000D01*
X127747665Y-101816000D01*
X127470426Y-101871147D01*
X127209273Y-101979320D01*
X126974241Y-102136363D01*
X126774363Y-102336241D01*
X126619000Y-102568759D01*
X126463637Y-102336241D01*
X126263759Y-102136363D01*
X126028727Y-101979320D01*
X125767574Y-101871147D01*
X125490335Y-101816000D01*
X125207665Y-101816000D01*
X124930426Y-101871147D01*
X124669273Y-101979320D01*
X124434241Y-102136363D01*
X124234363Y-102336241D01*
X124079000Y-102568759D01*
X123923637Y-102336241D01*
X123723759Y-102136363D01*
X123488727Y-101979320D01*
X123227574Y-101871147D01*
X122950335Y-101816000D01*
X122667665Y-101816000D01*
X122390426Y-101871147D01*
X122129273Y-101979320D01*
X121894241Y-102136363D01*
X121694363Y-102336241D01*
X121539000Y-102568759D01*
X121383637Y-102336241D01*
X121183759Y-102136363D01*
X120948727Y-101979320D01*
X120687574Y-101871147D01*
X120410335Y-101816000D01*
X120127665Y-101816000D01*
X119850426Y-101871147D01*
X119589273Y-101979320D01*
X119354241Y-102136363D01*
X119154363Y-102336241D01*
X118999000Y-102568759D01*
X118843637Y-102336241D01*
X118643759Y-102136363D01*
X118408727Y-101979320D01*
X118147574Y-101871147D01*
X117870335Y-101816000D01*
X117587665Y-101816000D01*
X117310426Y-101871147D01*
X117049273Y-101979320D01*
X116814241Y-102136363D01*
X116614363Y-102336241D01*
X116457320Y-102571273D01*
X116452933Y-102581865D01*
X116341385Y-102395869D01*
X116152414Y-102187481D01*
X115926420Y-102019963D01*
X115672087Y-101899754D01*
X115538039Y-101859096D01*
X115316000Y-101981085D01*
X115316000Y-103124000D01*
X115336000Y-103124000D01*
X115336000Y-103378000D01*
X115316000Y-103378000D01*
X115316000Y-104520915D01*
X115538039Y-104642904D01*
X115672087Y-104602246D01*
X115926420Y-104482037D01*
X116152414Y-104314519D01*
X116341385Y-104106131D01*
X116452933Y-103920135D01*
X116457320Y-103930727D01*
X116614363Y-104165759D01*
X116814241Y-104365637D01*
X116969000Y-104469044D01*
X116969001Y-108651197D01*
X114463208Y-111156991D01*
X114243060Y-111113200D01*
X113950540Y-111113200D01*
X113663642Y-111170268D01*
X113393389Y-111282210D01*
X113150168Y-111444725D01*
X112943325Y-111651568D01*
X112821605Y-111833734D01*
X112751978Y-111716845D01*
X112557069Y-111500612D01*
X112323720Y-111326559D01*
X112060899Y-111201375D01*
X111913690Y-111156724D01*
X111683800Y-111278045D01*
X111429800Y-111278045D01*
X111199910Y-111156724D01*
X111052701Y-111201375D01*
X110789880Y-111326559D01*
X110556531Y-111500612D01*
X110361622Y-111716845D01*
X110291995Y-111833734D01*
X110170275Y-111651568D01*
X109963432Y-111444725D01*
X109720211Y-111282210D01*
X109449958Y-111170268D01*
X109163060Y-111113200D01*
X108870540Y-111113200D01*
X108797840Y-111127661D01*
X106422000Y-108751822D01*
X106422000Y-104136000D01*
X108974479Y-104136000D01*
X108994363Y-104165759D01*
X109194241Y-104365637D01*
X109429273Y-104522680D01*
X109690426Y-104630853D01*
X109967665Y-104686000D01*
X110250335Y-104686000D01*
X110527574Y-104630853D01*
X110788727Y-104522680D01*
X111023759Y-104365637D01*
X111223637Y-104165759D01*
X111380680Y-103930727D01*
X111385067Y-103920135D01*
X111496615Y-104106131D01*
X111685586Y-104314519D01*
X111911580Y-104482037D01*
X112165913Y-104602246D01*
X112299961Y-104642904D01*
X112522000Y-104520915D01*
X112522000Y-103378000D01*
X112776000Y-103378000D01*
X112776000Y-104520915D01*
X112998039Y-104642904D01*
X113132087Y-104602246D01*
X113386420Y-104482037D01*
X113612414Y-104314519D01*
X113801385Y-104106131D01*
X113919000Y-103910018D01*
X114036615Y-104106131D01*
X114225586Y-104314519D01*
X114451580Y-104482037D01*
X114705913Y-104602246D01*
X114839961Y-104642904D01*
X115062000Y-104520915D01*
X115062000Y-103378000D01*
X112776000Y-103378000D01*
X112522000Y-103378000D01*
X112502000Y-103378000D01*
X112502000Y-103124000D01*
X112522000Y-103124000D01*
X112522000Y-101981085D01*
X112776000Y-101981085D01*
X112776000Y-103124000D01*
X115062000Y-103124000D01*
X115062000Y-101981085D01*
X114839961Y-101859096D01*
X114705913Y-101899754D01*
X114451580Y-102019963D01*
X114225586Y-102187481D01*
X114036615Y-102395869D01*
X113919000Y-102591982D01*
X113801385Y-102395869D01*
X113612414Y-102187481D01*
X113386420Y-102019963D01*
X113132087Y-101899754D01*
X112998039Y-101859096D01*
X112776000Y-101981085D01*
X112522000Y-101981085D01*
X112299961Y-101859096D01*
X112165913Y-101899754D01*
X111911580Y-102019963D01*
X111685586Y-102187481D01*
X111496615Y-102395869D01*
X111385067Y-102581865D01*
X111380680Y-102571273D01*
X111223637Y-102336241D01*
X111023759Y-102136363D01*
X110788727Y-101979320D01*
X110527574Y-101871147D01*
X110250335Y-101816000D01*
X109967665Y-101816000D01*
X109690426Y-101871147D01*
X109429273Y-101979320D01*
X109194241Y-102136363D01*
X108994363Y-102336241D01*
X108974479Y-102366000D01*
X106881468Y-102366000D01*
X106808680Y-102190273D01*
X106651637Y-101955241D01*
X106451759Y-101755363D01*
X106251131Y-101621308D01*
X106278514Y-101606671D01*
X106350097Y-101362702D01*
X105537000Y-100549605D01*
X104723903Y-101362702D01*
X104795486Y-101606671D01*
X104824341Y-101620324D01*
X104622241Y-101755363D01*
X104422363Y-101955241D01*
X104265320Y-102190273D01*
X104157147Y-102451426D01*
X104102000Y-102728665D01*
X101269000Y-102728665D01*
X101269000Y-100440512D01*
X104096783Y-100440512D01*
X104138213Y-100720130D01*
X104233397Y-100986292D01*
X104300329Y-101111514D01*
X104544298Y-101183097D01*
X105357395Y-100370000D01*
X105716605Y-100370000D01*
X106529702Y-101183097D01*
X106773671Y-101111514D01*
X106894571Y-100856004D01*
X106963300Y-100581816D01*
X106977217Y-100299488D01*
X106935787Y-100019870D01*
X106840603Y-99753708D01*
X106773671Y-99628486D01*
X106529702Y-99556903D01*
X105716605Y-100370000D01*
X105357395Y-100370000D01*
X104544298Y-99556903D01*
X104300329Y-99628486D01*
X104179429Y-99883996D01*
X104110700Y-100158184D01*
X104096783Y-100440512D01*
X101269000Y-100440512D01*
X101269000Y-99377298D01*
X104723903Y-99377298D01*
X105537000Y-100190395D01*
X106350097Y-99377298D01*
X106278514Y-99133329D01*
X106023004Y-99012429D01*
X105748816Y-98943700D01*
X105466488Y-98929783D01*
X105186870Y-98971213D01*
X104920708Y-99066397D01*
X104795486Y-99133329D01*
X104723903Y-99377298D01*
X101269000Y-99377298D01*
X101269000Y-87869665D01*
X108674000Y-87869665D01*
X108674000Y-88152335D01*
X108729147Y-88429574D01*
X108837320Y-88690727D01*
X108994363Y-88925759D01*
X109194241Y-89125637D01*
X109429273Y-89282680D01*
X109690426Y-89390853D01*
X109967665Y-89446000D01*
X110250335Y-89446000D01*
X110527574Y-89390853D01*
X110788727Y-89282680D01*
X111023759Y-89125637D01*
X111223637Y-88925759D01*
X111379000Y-88693241D01*
X111534363Y-88925759D01*
X111734241Y-89125637D01*
X111969273Y-89282680D01*
X112230426Y-89390853D01*
X112507665Y-89446000D01*
X112790335Y-89446000D01*
X113067574Y-89390853D01*
X113328727Y-89282680D01*
X113563759Y-89125637D01*
X113763637Y-88925759D01*
X113919000Y-88693241D01*
X114074363Y-88925759D01*
X114274241Y-89125637D01*
X114509273Y-89282680D01*
X114770426Y-89390853D01*
X115047665Y-89446000D01*
X115330335Y-89446000D01*
X115607574Y-89390853D01*
X115868727Y-89282680D01*
X116103759Y-89125637D01*
X116303637Y-88925759D01*
X116459000Y-88693241D01*
X116614363Y-88925759D01*
X116814241Y-89125637D01*
X117049273Y-89282680D01*
X117310426Y-89390853D01*
X117587665Y-89446000D01*
X117870335Y-89446000D01*
X118147574Y-89390853D01*
X118408727Y-89282680D01*
X118643759Y-89125637D01*
X118843637Y-88925759D01*
X118999000Y-88693241D01*
X119154363Y-88925759D01*
X119354241Y-89125637D01*
X119589273Y-89282680D01*
X119850426Y-89390853D01*
X120127665Y-89446000D01*
X120410335Y-89446000D01*
X120687574Y-89390853D01*
X120948727Y-89282680D01*
X121183759Y-89125637D01*
X121383637Y-88925759D01*
X121539000Y-88693241D01*
X121694363Y-88925759D01*
X121894241Y-89125637D01*
X122129273Y-89282680D01*
X122390426Y-89390853D01*
X122667665Y-89446000D01*
X122950335Y-89446000D01*
X123227574Y-89390853D01*
X123488727Y-89282680D01*
X123723759Y-89125637D01*
X123923637Y-88925759D01*
X124079000Y-88693241D01*
X124234363Y-88925759D01*
X124434241Y-89125637D01*
X124669273Y-89282680D01*
X124930426Y-89390853D01*
X125207665Y-89446000D01*
X125490335Y-89446000D01*
X125767574Y-89390853D01*
X126028727Y-89282680D01*
X126263759Y-89125637D01*
X126463637Y-88925759D01*
X126619000Y-88693241D01*
X126774363Y-88925759D01*
X126974241Y-89125637D01*
X127209273Y-89282680D01*
X127470426Y-89390853D01*
X127747665Y-89446000D01*
X128030335Y-89446000D01*
X128307574Y-89390853D01*
X128568727Y-89282680D01*
X128803759Y-89125637D01*
X129003637Y-88925759D01*
X129159000Y-88693241D01*
X129314363Y-88925759D01*
X129514241Y-89125637D01*
X129749273Y-89282680D01*
X130010426Y-89390853D01*
X130287665Y-89446000D01*
X130570335Y-89446000D01*
X130847574Y-89390853D01*
X131108727Y-89282680D01*
X131343759Y-89125637D01*
X131543637Y-88925759D01*
X131699000Y-88693241D01*
X131854363Y-88925759D01*
X132054241Y-89125637D01*
X132289273Y-89282680D01*
X132550426Y-89390853D01*
X132827665Y-89446000D01*
X133110335Y-89446000D01*
X133387574Y-89390853D01*
X133648727Y-89282680D01*
X133883759Y-89125637D01*
X134083637Y-88925759D01*
X134239000Y-88693241D01*
X134394363Y-88925759D01*
X134594241Y-89125637D01*
X134829273Y-89282680D01*
X135090426Y-89390853D01*
X135367665Y-89446000D01*
X135650335Y-89446000D01*
X135927574Y-89390853D01*
X136188727Y-89282680D01*
X136423759Y-89125637D01*
X136623637Y-88925759D01*
X136779000Y-88693241D01*
X136934363Y-88925759D01*
X137134241Y-89125637D01*
X137369273Y-89282680D01*
X137630426Y-89390853D01*
X137907665Y-89446000D01*
X138190335Y-89446000D01*
X138467574Y-89390853D01*
X138728727Y-89282680D01*
X138963759Y-89125637D01*
X139163637Y-88925759D01*
X139319000Y-88693241D01*
X139474363Y-88925759D01*
X139674241Y-89125637D01*
X139909273Y-89282680D01*
X140170426Y-89390853D01*
X140447665Y-89446000D01*
X140730335Y-89446000D01*
X141007574Y-89390853D01*
X141268727Y-89282680D01*
X141503759Y-89125637D01*
X141702357Y-88927039D01*
X141703188Y-88935482D01*
X141739498Y-89055180D01*
X141798463Y-89165494D01*
X141877815Y-89262185D01*
X141974506Y-89341537D01*
X142084820Y-89400502D01*
X142204518Y-89436812D01*
X142329000Y-89449072D01*
X142843250Y-89446000D01*
X143002000Y-89287250D01*
X143002000Y-88138000D01*
X143256000Y-88138000D01*
X143256000Y-89287250D01*
X143414750Y-89446000D01*
X143929000Y-89449072D01*
X144053482Y-89436812D01*
X144173180Y-89400502D01*
X144283494Y-89341537D01*
X144380185Y-89262185D01*
X144459537Y-89165494D01*
X144518502Y-89055180D01*
X144554812Y-88935482D01*
X144567072Y-88811000D01*
X144564000Y-88296750D01*
X144405250Y-88138000D01*
X143256000Y-88138000D01*
X143002000Y-88138000D01*
X142982000Y-88138000D01*
X142982000Y-87884000D01*
X143002000Y-87884000D01*
X143002000Y-87864000D01*
X143256000Y-87864000D01*
X143256000Y-87884000D01*
X144405250Y-87884000D01*
X144564000Y-87725250D01*
X144565071Y-87545999D01*
X149590198Y-87545999D01*
X149731312Y-87687114D01*
X149695000Y-87869665D01*
X149695000Y-88152335D01*
X149750147Y-88429574D01*
X149858320Y-88690727D01*
X150015363Y-88925759D01*
X150215241Y-89125637D01*
X150450273Y-89282680D01*
X150711426Y-89390853D01*
X150988665Y-89446000D01*
X151271335Y-89446000D01*
X151548574Y-89390853D01*
X151809727Y-89282680D01*
X152044759Y-89125637D01*
X152244637Y-88925759D01*
X152401680Y-88690727D01*
X152434263Y-88612064D01*
X159768000Y-95945802D01*
X159768000Y-96482678D01*
X159764324Y-96520000D01*
X159768000Y-96557322D01*
X159768000Y-96557333D01*
X159776537Y-96643997D01*
X159778998Y-96668985D01*
X159822454Y-96812246D01*
X159893026Y-96944276D01*
X159943694Y-97006014D01*
X159988000Y-97060001D01*
X160016998Y-97083799D01*
X164801790Y-101868592D01*
X164758000Y-102088740D01*
X164758000Y-102381260D01*
X164815068Y-102668158D01*
X164927010Y-102938411D01*
X165089525Y-103181632D01*
X165296368Y-103388475D01*
X165539589Y-103550990D01*
X165809842Y-103662932D01*
X166096740Y-103720000D01*
X166389260Y-103720000D01*
X166676158Y-103662932D01*
X166946411Y-103550990D01*
X167189632Y-103388475D01*
X167396475Y-103181632D01*
X167558990Y-102938411D01*
X167670932Y-102668158D01*
X167728000Y-102381260D01*
X167728000Y-102088740D01*
X167670932Y-101801842D01*
X167558990Y-101531589D01*
X167396475Y-101288368D01*
X167189632Y-101081525D01*
X167015240Y-100965000D01*
X167189632Y-100848475D01*
X167396475Y-100641632D01*
X167558990Y-100398411D01*
X167670932Y-100128158D01*
X167728000Y-99841260D01*
X167728000Y-99548740D01*
X167670932Y-99261842D01*
X167558990Y-98991589D01*
X167396475Y-98748368D01*
X167189632Y-98541525D01*
X167015240Y-98425000D01*
X167189632Y-98308475D01*
X167396475Y-98101632D01*
X167558990Y-97858411D01*
X167670932Y-97588158D01*
X167728000Y-97301260D01*
X167728000Y-97008740D01*
X167670932Y-96721842D01*
X167558990Y-96451589D01*
X167396475Y-96208368D01*
X167189632Y-96001525D01*
X167015240Y-95885000D01*
X167189632Y-95768475D01*
X167396475Y-95561632D01*
X167558990Y-95318411D01*
X167670932Y-95048158D01*
X167728000Y-94761260D01*
X167728000Y-94468740D01*
X167670932Y-94181842D01*
X167558990Y-93911589D01*
X167396475Y-93668368D01*
X167189632Y-93461525D01*
X167007466Y-93339805D01*
X167124355Y-93270178D01*
X167340588Y-93075269D01*
X167514641Y-92841920D01*
X167639825Y-92579099D01*
X167684476Y-92431890D01*
X167563155Y-92202000D01*
X166370000Y-92202000D01*
X166370000Y-92222000D01*
X166116000Y-92222000D01*
X166116000Y-92202000D01*
X166096000Y-92202000D01*
X166096000Y-91948000D01*
X166116000Y-91948000D01*
X166116000Y-91928000D01*
X166370000Y-91928000D01*
X166370000Y-91948000D01*
X167563155Y-91948000D01*
X167684476Y-91718110D01*
X167639825Y-91570901D01*
X167514641Y-91308080D01*
X167340588Y-91074731D01*
X167256534Y-90998966D01*
X167337180Y-90974502D01*
X167447494Y-90915537D01*
X167544185Y-90836185D01*
X167623537Y-90739494D01*
X167682502Y-90629180D01*
X167718812Y-90509482D01*
X167731072Y-90385000D01*
X167731072Y-88685000D01*
X167718812Y-88560518D01*
X167682502Y-88440820D01*
X167623537Y-88330506D01*
X167544185Y-88233815D01*
X167447494Y-88154463D01*
X167337180Y-88095498D01*
X167217482Y-88059188D01*
X167128000Y-88050375D01*
X167128000Y-85522656D01*
X167189632Y-85481475D01*
X167396475Y-85274632D01*
X167558990Y-85031411D01*
X167670932Y-84761158D01*
X167728000Y-84474260D01*
X167728000Y-84181740D01*
X167670932Y-83894842D01*
X167558990Y-83624589D01*
X167396475Y-83381368D01*
X167264620Y-83249513D01*
X167337180Y-83227502D01*
X167447494Y-83168537D01*
X167544185Y-83089185D01*
X167623537Y-82992494D01*
X167682502Y-82882180D01*
X167718812Y-82762482D01*
X167731072Y-82638000D01*
X167731072Y-80938000D01*
X167718812Y-80813518D01*
X167682502Y-80693820D01*
X167623537Y-80583506D01*
X167544185Y-80486815D01*
X167447494Y-80407463D01*
X167337180Y-80348498D01*
X167217482Y-80312188D01*
X167093000Y-80299928D01*
X165393000Y-80299928D01*
X165268518Y-80312188D01*
X165148820Y-80348498D01*
X165038506Y-80407463D01*
X164941815Y-80486815D01*
X164862463Y-80583506D01*
X164803498Y-80693820D01*
X164767188Y-80813518D01*
X164754928Y-80938000D01*
X164754928Y-82638000D01*
X164767188Y-82762482D01*
X164803498Y-82882180D01*
X164862463Y-82992494D01*
X164941815Y-83089185D01*
X165038506Y-83168537D01*
X165148820Y-83227502D01*
X165221380Y-83249513D01*
X165089525Y-83381368D01*
X164927010Y-83624589D01*
X164815068Y-83894842D01*
X164758000Y-84181740D01*
X164758000Y-84474260D01*
X164815068Y-84761158D01*
X164927010Y-85031411D01*
X165089525Y-85274632D01*
X165296368Y-85481475D01*
X165358001Y-85522657D01*
X165358000Y-88050375D01*
X165268518Y-88059188D01*
X165148820Y-88095498D01*
X165038506Y-88154463D01*
X164941815Y-88233815D01*
X164862463Y-88330506D01*
X164803498Y-88440820D01*
X164767188Y-88560518D01*
X164754928Y-88685000D01*
X164754928Y-90385000D01*
X164767188Y-90509482D01*
X164803498Y-90629180D01*
X164862463Y-90739494D01*
X164941815Y-90836185D01*
X165038506Y-90915537D01*
X165148820Y-90974502D01*
X165229466Y-90998966D01*
X165145412Y-91074731D01*
X164971359Y-91308080D01*
X164959591Y-91332787D01*
X158101767Y-84474964D01*
X158077964Y-84445960D01*
X157962239Y-84350987D01*
X157830210Y-84280415D01*
X157686949Y-84236958D01*
X157575296Y-84225961D01*
X157575285Y-84225961D01*
X157537963Y-84222285D01*
X157500641Y-84225961D01*
X118251361Y-84225961D01*
X118214038Y-84222285D01*
X118176715Y-84225961D01*
X118176706Y-84225961D01*
X118065053Y-84236958D01*
X117921792Y-84280415D01*
X117789763Y-84350987D01*
X117674038Y-84445960D01*
X117650240Y-84474958D01*
X115512886Y-86612312D01*
X115330335Y-86576000D01*
X115047665Y-86576000D01*
X114770426Y-86631147D01*
X114509273Y-86739320D01*
X114274241Y-86896363D01*
X114074363Y-87096241D01*
X113919000Y-87328759D01*
X113763637Y-87096241D01*
X113563759Y-86896363D01*
X113328727Y-86739320D01*
X113067574Y-86631147D01*
X112790335Y-86576000D01*
X112507665Y-86576000D01*
X112230426Y-86631147D01*
X111969273Y-86739320D01*
X111734241Y-86896363D01*
X111534363Y-87096241D01*
X111379000Y-87328759D01*
X111223637Y-87096241D01*
X111023759Y-86896363D01*
X110788727Y-86739320D01*
X110527574Y-86631147D01*
X110250335Y-86576000D01*
X109967665Y-86576000D01*
X109690426Y-86631147D01*
X109429273Y-86739320D01*
X109194241Y-86896363D01*
X108994363Y-87096241D01*
X108837320Y-87331273D01*
X108729147Y-87592426D01*
X108674000Y-87869665D01*
X101269000Y-87869665D01*
X101269000Y-76801353D01*
X101259711Y-76707043D01*
X101273234Y-76569125D01*
X101350448Y-76313378D01*
X101475869Y-76077496D01*
X101644716Y-75870470D01*
X101850554Y-75700187D01*
X102085556Y-75573121D01*
X102340756Y-75494124D01*
X102487711Y-75478678D01*
X102582353Y-75488000D01*
%TA.AperFunction,Conductor*%
D19*
G36*
X102582353Y-75488000D02*
G01*
X171201620Y-75488000D01*
X176099000Y-80385381D01*
X176099001Y-115984647D01*
X176108289Y-116078951D01*
X176094766Y-116216876D01*
X176017551Y-116472624D01*
X175892131Y-116708504D01*
X175723289Y-116915525D01*
X175517446Y-117085813D01*
X175282444Y-117212879D01*
X175027240Y-117291877D01*
X174880291Y-117307322D01*
X174785647Y-117298000D01*
X102582353Y-117298000D01*
X102488044Y-117307289D01*
X102350124Y-117293766D01*
X102094376Y-117216551D01*
X101858496Y-117091131D01*
X101651475Y-116922289D01*
X101481187Y-116716446D01*
X101354121Y-116481444D01*
X101275123Y-116226240D01*
X101259678Y-116079291D01*
X101269000Y-115984647D01*
X101269000Y-102728665D01*
X104102000Y-102728665D01*
X104102000Y-103011335D01*
X104157147Y-103288574D01*
X104265320Y-103549727D01*
X104422363Y-103784759D01*
X104622241Y-103984637D01*
X104652000Y-104004521D01*
X104652001Y-109074921D01*
X104647719Y-109118400D01*
X104664805Y-109291890D01*
X104715412Y-109458713D01*
X104797590Y-109612459D01*
X104880468Y-109713446D01*
X104880471Y-109713449D01*
X104908184Y-109747217D01*
X104941951Y-109774929D01*
X107546261Y-112379240D01*
X107531800Y-112451940D01*
X107531800Y-112744460D01*
X107588868Y-113031358D01*
X107700810Y-113301611D01*
X107863325Y-113544832D01*
X108070168Y-113751675D01*
X108131800Y-113792856D01*
X108131801Y-113943543D01*
X108070168Y-113984725D01*
X107863325Y-114191568D01*
X107700810Y-114434789D01*
X107588868Y-114705042D01*
X107531800Y-114991940D01*
X107531800Y-115284460D01*
X107588868Y-115571358D01*
X107700810Y-115841611D01*
X107863325Y-116084832D01*
X108070168Y-116291675D01*
X108313389Y-116454190D01*
X108583642Y-116566132D01*
X108870540Y-116623200D01*
X109163060Y-116623200D01*
X109449958Y-116566132D01*
X109720211Y-116454190D01*
X109963432Y-116291675D01*
X110170275Y-116084832D01*
X110291995Y-115902666D01*
X110361622Y-116019555D01*
X110556531Y-116235788D01*
X110789880Y-116409841D01*
X111052701Y-116535025D01*
X111199910Y-116579676D01*
X111429800Y-116458355D01*
X111429800Y-115265200D01*
X111409800Y-115265200D01*
X111409800Y-115011200D01*
X111429800Y-115011200D01*
X111429800Y-112725200D01*
X111409800Y-112725200D01*
X111409800Y-112471200D01*
X111429800Y-112471200D01*
X111429800Y-111278045D01*
X111683800Y-111278045D01*
X111683800Y-112471200D01*
X111703800Y-112471200D01*
X111703800Y-112725200D01*
X111683800Y-112725200D01*
X111683800Y-115011200D01*
X111703800Y-115011200D01*
X111703800Y-115265200D01*
X111683800Y-115265200D01*
X111683800Y-116458355D01*
X111913690Y-116579676D01*
X112060899Y-116535025D01*
X112323720Y-116409841D01*
X112557069Y-116235788D01*
X112751978Y-116019555D01*
X112821605Y-115902666D01*
X112943325Y-116084832D01*
X113150168Y-116291675D01*
X113393389Y-116454190D01*
X113663642Y-116566132D01*
X113950540Y-116623200D01*
X114243060Y-116623200D01*
X114529958Y-116566132D01*
X114800211Y-116454190D01*
X115043432Y-116291675D01*
X115250275Y-116084832D01*
X115366800Y-115910440D01*
X115483325Y-116084832D01*
X115690168Y-116291675D01*
X115933389Y-116454190D01*
X116203642Y-116566132D01*
X116490540Y-116623200D01*
X116783060Y-116623200D01*
X117069958Y-116566132D01*
X117340211Y-116454190D01*
X117583432Y-116291675D01*
X117790275Y-116084832D01*
X117906800Y-115910440D01*
X118023325Y-116084832D01*
X118230168Y-116291675D01*
X118473389Y-116454190D01*
X118743642Y-116566132D01*
X119030540Y-116623200D01*
X119323060Y-116623200D01*
X119609958Y-116566132D01*
X119880211Y-116454190D01*
X120123432Y-116291675D01*
X120330275Y-116084832D01*
X120446800Y-115910440D01*
X120563325Y-116084832D01*
X120770168Y-116291675D01*
X121013389Y-116454190D01*
X121283642Y-116566132D01*
X121570540Y-116623200D01*
X121863060Y-116623200D01*
X122149958Y-116566132D01*
X122420211Y-116454190D01*
X122663432Y-116291675D01*
X122870275Y-116084832D01*
X122986800Y-115910440D01*
X123103325Y-116084832D01*
X123310168Y-116291675D01*
X123553389Y-116454190D01*
X123823642Y-116566132D01*
X124110540Y-116623200D01*
X124403060Y-116623200D01*
X124689958Y-116566132D01*
X124960211Y-116454190D01*
X125203432Y-116291675D01*
X125410275Y-116084832D01*
X125526800Y-115910440D01*
X125643325Y-116084832D01*
X125850168Y-116291675D01*
X126093389Y-116454190D01*
X126363642Y-116566132D01*
X126650540Y-116623200D01*
X126943060Y-116623200D01*
X127229958Y-116566132D01*
X127500211Y-116454190D01*
X127743432Y-116291675D01*
X127950275Y-116084832D01*
X128066800Y-115910440D01*
X128183325Y-116084832D01*
X128390168Y-116291675D01*
X128633389Y-116454190D01*
X128903642Y-116566132D01*
X129190540Y-116623200D01*
X129483060Y-116623200D01*
X129769958Y-116566132D01*
X130040211Y-116454190D01*
X130283432Y-116291675D01*
X130490275Y-116084832D01*
X130606800Y-115910440D01*
X130723325Y-116084832D01*
X130930168Y-116291675D01*
X131173389Y-116454190D01*
X131443642Y-116566132D01*
X131730540Y-116623200D01*
X132023060Y-116623200D01*
X132243208Y-116579410D01*
X132488002Y-116824204D01*
X132511800Y-116853202D01*
X132627525Y-116948175D01*
X132759554Y-117018747D01*
X132902815Y-117062204D01*
X133014468Y-117073201D01*
X133014477Y-117073201D01*
X133051800Y-117076877D01*
X133089123Y-117073201D01*
X137483479Y-117073201D01*
X137520801Y-117076877D01*
X137558123Y-117073201D01*
X137558134Y-117073201D01*
X137669787Y-117062204D01*
X137813048Y-117018747D01*
X137945077Y-116948175D01*
X138060802Y-116853202D01*
X138084604Y-116824199D01*
X138590309Y-116318496D01*
X138793389Y-116454190D01*
X139063642Y-116566132D01*
X139350540Y-116623200D01*
X139643060Y-116623200D01*
X139929958Y-116566132D01*
X140200211Y-116454190D01*
X140443432Y-116291675D01*
X140650275Y-116084832D01*
X140766800Y-115910440D01*
X140883325Y-116084832D01*
X141090168Y-116291675D01*
X141333389Y-116454190D01*
X141603642Y-116566132D01*
X141890540Y-116623200D01*
X142183060Y-116623200D01*
X142469958Y-116566132D01*
X142740211Y-116454190D01*
X142983432Y-116291675D01*
X143190275Y-116084832D01*
X143306800Y-115910440D01*
X143423325Y-116084832D01*
X143630168Y-116291675D01*
X143873389Y-116454190D01*
X144143642Y-116566132D01*
X144430540Y-116623200D01*
X144723060Y-116623200D01*
X145009958Y-116566132D01*
X145280211Y-116454190D01*
X145523432Y-116291675D01*
X145730275Y-116084832D01*
X145851995Y-115902666D01*
X145921622Y-116019555D01*
X146116531Y-116235788D01*
X146349880Y-116409841D01*
X146612701Y-116535025D01*
X146759910Y-116579676D01*
X146989800Y-116458355D01*
X146989800Y-115265200D01*
X147243800Y-115265200D01*
X147243800Y-116458355D01*
X147473690Y-116579676D01*
X147620899Y-116535025D01*
X147883720Y-116409841D01*
X148117069Y-116235788D01*
X148311978Y-116019555D01*
X148460957Y-115769452D01*
X148558281Y-115495091D01*
X148437614Y-115265200D01*
X147243800Y-115265200D01*
X146989800Y-115265200D01*
X146969800Y-115265200D01*
X146969800Y-115011200D01*
X146989800Y-115011200D01*
X146989800Y-112725200D01*
X147243800Y-112725200D01*
X147243800Y-115011200D01*
X148437614Y-115011200D01*
X148558281Y-114781309D01*
X148460957Y-114506948D01*
X148311978Y-114256845D01*
X148135174Y-114060698D01*
X148210980Y-114037702D01*
X148321294Y-113978737D01*
X148417985Y-113899385D01*
X148497337Y-113802694D01*
X148556302Y-113692380D01*
X148592612Y-113572682D01*
X148604872Y-113448200D01*
X148601800Y-112883950D01*
X148443050Y-112725200D01*
X147243800Y-112725200D01*
X146989800Y-112725200D01*
X146969800Y-112725200D01*
X146969800Y-112471200D01*
X146989800Y-112471200D01*
X146989800Y-111271950D01*
X147243800Y-111271950D01*
X147243800Y-112471200D01*
X148443050Y-112471200D01*
X148601800Y-112312450D01*
X148604872Y-111748200D01*
X148592612Y-111623718D01*
X148556302Y-111504020D01*
X148497337Y-111393706D01*
X148417985Y-111297015D01*
X148321294Y-111217663D01*
X148210980Y-111158698D01*
X148091282Y-111122388D01*
X147966800Y-111110128D01*
X147402550Y-111113200D01*
X147243800Y-111271950D01*
X146989800Y-111271950D01*
X146831050Y-111113200D01*
X146266800Y-111110128D01*
X146142318Y-111122388D01*
X146022620Y-111158698D01*
X145912306Y-111217663D01*
X145815615Y-111297015D01*
X145736263Y-111393706D01*
X145677298Y-111504020D01*
X145655287Y-111576580D01*
X145523432Y-111444725D01*
X145461800Y-111403544D01*
X145461800Y-110170778D01*
X146516032Y-109116547D01*
X146516037Y-109116541D01*
X150953561Y-104679017D01*
X150988665Y-104686000D01*
X151271335Y-104686000D01*
X151548574Y-104630853D01*
X151809727Y-104522680D01*
X152044759Y-104365637D01*
X152244637Y-104165759D01*
X152401680Y-103930727D01*
X152509853Y-103669574D01*
X152565000Y-103392335D01*
X152565000Y-103109665D01*
X152509853Y-102832426D01*
X152401680Y-102571273D01*
X152321317Y-102451000D01*
X157311928Y-102451000D01*
X157311928Y-104051000D01*
X157324188Y-104175482D01*
X157360498Y-104295180D01*
X157419463Y-104405494D01*
X157498815Y-104502185D01*
X157595506Y-104581537D01*
X157705820Y-104640502D01*
X157825518Y-104676812D01*
X157950000Y-104689072D01*
X159550000Y-104689072D01*
X159674482Y-104676812D01*
X159794180Y-104640502D01*
X159904494Y-104581537D01*
X160001185Y-104502185D01*
X160080537Y-104405494D01*
X160139502Y-104295180D01*
X160175812Y-104175482D01*
X160188072Y-104051000D01*
X160188072Y-102451000D01*
X160175812Y-102326518D01*
X160139502Y-102206820D01*
X160080537Y-102096506D01*
X160001185Y-101999815D01*
X159904494Y-101920463D01*
X159794180Y-101861498D01*
X159674482Y-101825188D01*
X159550000Y-101812928D01*
X157950000Y-101812928D01*
X157825518Y-101825188D01*
X157705820Y-101861498D01*
X157595506Y-101920463D01*
X157498815Y-101999815D01*
X157419463Y-102096506D01*
X157360498Y-102206820D01*
X157324188Y-102326518D01*
X157311928Y-102451000D01*
X152321317Y-102451000D01*
X152244637Y-102336241D01*
X152044759Y-102136363D01*
X151809727Y-101979320D01*
X151548574Y-101871147D01*
X151271335Y-101816000D01*
X150988665Y-101816000D01*
X150711426Y-101871147D01*
X150450273Y-101979320D01*
X150215241Y-102136363D01*
X150015363Y-102336241D01*
X149858320Y-102571273D01*
X149750147Y-102832426D01*
X149695000Y-103109665D01*
X149695000Y-103392335D01*
X149701983Y-103427439D01*
X145264459Y-107864963D01*
X145264453Y-107864968D01*
X143981751Y-109147671D01*
X143947984Y-109175383D01*
X143920271Y-109209151D01*
X143920268Y-109209154D01*
X143889000Y-109247254D01*
X143889000Y-104469043D01*
X144043759Y-104365637D01*
X144243637Y-104165759D01*
X144400680Y-103930727D01*
X144508853Y-103669574D01*
X144564000Y-103392335D01*
X144564000Y-103109665D01*
X144508853Y-102832426D01*
X144400680Y-102571273D01*
X144243637Y-102336241D01*
X144043759Y-102136363D01*
X143808727Y-101979320D01*
X143547574Y-101871147D01*
X143270335Y-101816000D01*
X142987665Y-101816000D01*
X142710426Y-101871147D01*
X142449273Y-101979320D01*
X142214241Y-102136363D01*
X142014363Y-102336241D01*
X141859000Y-102568759D01*
X141703637Y-102336241D01*
X141503759Y-102136363D01*
X141268727Y-101979320D01*
X141007574Y-101871147D01*
X140730335Y-101816000D01*
X140447665Y-101816000D01*
X140170426Y-101871147D01*
X139909273Y-101979320D01*
X139674241Y-102136363D01*
X139474363Y-102336241D01*
X139319000Y-102568759D01*
X139163637Y-102336241D01*
X138963759Y-102136363D01*
X138728727Y-101979320D01*
X138467574Y-101871147D01*
X138190335Y-101816000D01*
X137907665Y-101816000D01*
X137630426Y-101871147D01*
X137369273Y-101979320D01*
X137134241Y-102136363D01*
X136934363Y-102336241D01*
X136779000Y-102568759D01*
X136623637Y-102336241D01*
X136423759Y-102136363D01*
X136188727Y-101979320D01*
X135927574Y-101871147D01*
X135650335Y-101816000D01*
X135367665Y-101816000D01*
X135090426Y-101871147D01*
X134829273Y-101979320D01*
X134594241Y-102136363D01*
X134394363Y-102336241D01*
X134239000Y-102568759D01*
X134083637Y-102336241D01*
X133883759Y-102136363D01*
X133648727Y-101979320D01*
X133387574Y-101871147D01*
X133110335Y-101816000D01*
X132827665Y-101816000D01*
X132550426Y-101871147D01*
X132289273Y-101979320D01*
X132054241Y-102136363D01*
X131854363Y-102336241D01*
X131699000Y-102568759D01*
X131543637Y-102336241D01*
X131343759Y-102136363D01*
X131108727Y-101979320D01*
X130847574Y-101871147D01*
X130570335Y-101816000D01*
X130287665Y-101816000D01*
X130010426Y-101871147D01*
X129749273Y-101979320D01*
X129514241Y-102136363D01*
X129314363Y-102336241D01*
X129159000Y-102568759D01*
X129003637Y-102336241D01*
X128803759Y-102136363D01*
X128568727Y-101979320D01*
X128307574Y-101871147D01*
X128030335Y-101816000D01*
X127747665Y-101816000D01*
X127470426Y-101871147D01*
X127209273Y-101979320D01*
X126974241Y-102136363D01*
X126774363Y-102336241D01*
X126619000Y-102568759D01*
X126463637Y-102336241D01*
X126263759Y-102136363D01*
X126028727Y-101979320D01*
X125767574Y-101871147D01*
X125490335Y-101816000D01*
X125207665Y-101816000D01*
X124930426Y-101871147D01*
X124669273Y-101979320D01*
X124434241Y-102136363D01*
X124234363Y-102336241D01*
X124079000Y-102568759D01*
X123923637Y-102336241D01*
X123723759Y-102136363D01*
X123488727Y-101979320D01*
X123227574Y-101871147D01*
X122950335Y-101816000D01*
X122667665Y-101816000D01*
X122390426Y-101871147D01*
X122129273Y-101979320D01*
X121894241Y-102136363D01*
X121694363Y-102336241D01*
X121539000Y-102568759D01*
X121383637Y-102336241D01*
X121183759Y-102136363D01*
X120948727Y-101979320D01*
X120687574Y-101871147D01*
X120410335Y-101816000D01*
X120127665Y-101816000D01*
X119850426Y-101871147D01*
X119589273Y-101979320D01*
X119354241Y-102136363D01*
X119154363Y-102336241D01*
X118999000Y-102568759D01*
X118843637Y-102336241D01*
X118643759Y-102136363D01*
X118408727Y-101979320D01*
X118147574Y-101871147D01*
X117870335Y-101816000D01*
X117587665Y-101816000D01*
X117310426Y-101871147D01*
X117049273Y-101979320D01*
X116814241Y-102136363D01*
X116614363Y-102336241D01*
X116457320Y-102571273D01*
X116452933Y-102581865D01*
X116341385Y-102395869D01*
X116152414Y-102187481D01*
X115926420Y-102019963D01*
X115672087Y-101899754D01*
X115538039Y-101859096D01*
X115316000Y-101981085D01*
X115316000Y-103124000D01*
X115336000Y-103124000D01*
X115336000Y-103378000D01*
X115316000Y-103378000D01*
X115316000Y-104520915D01*
X115538039Y-104642904D01*
X115672087Y-104602246D01*
X115926420Y-104482037D01*
X116152414Y-104314519D01*
X116341385Y-104106131D01*
X116452933Y-103920135D01*
X116457320Y-103930727D01*
X116614363Y-104165759D01*
X116814241Y-104365637D01*
X116969000Y-104469044D01*
X116969001Y-108651197D01*
X114463208Y-111156991D01*
X114243060Y-111113200D01*
X113950540Y-111113200D01*
X113663642Y-111170268D01*
X113393389Y-111282210D01*
X113150168Y-111444725D01*
X112943325Y-111651568D01*
X112821605Y-111833734D01*
X112751978Y-111716845D01*
X112557069Y-111500612D01*
X112323720Y-111326559D01*
X112060899Y-111201375D01*
X111913690Y-111156724D01*
X111683800Y-111278045D01*
X111429800Y-111278045D01*
X111199910Y-111156724D01*
X111052701Y-111201375D01*
X110789880Y-111326559D01*
X110556531Y-111500612D01*
X110361622Y-111716845D01*
X110291995Y-111833734D01*
X110170275Y-111651568D01*
X109963432Y-111444725D01*
X109720211Y-111282210D01*
X109449958Y-111170268D01*
X109163060Y-111113200D01*
X108870540Y-111113200D01*
X108797840Y-111127661D01*
X106422000Y-108751822D01*
X106422000Y-104136000D01*
X108974479Y-104136000D01*
X108994363Y-104165759D01*
X109194241Y-104365637D01*
X109429273Y-104522680D01*
X109690426Y-104630853D01*
X109967665Y-104686000D01*
X110250335Y-104686000D01*
X110527574Y-104630853D01*
X110788727Y-104522680D01*
X111023759Y-104365637D01*
X111223637Y-104165759D01*
X111380680Y-103930727D01*
X111385067Y-103920135D01*
X111496615Y-104106131D01*
X111685586Y-104314519D01*
X111911580Y-104482037D01*
X112165913Y-104602246D01*
X112299961Y-104642904D01*
X112522000Y-104520915D01*
X112522000Y-103378000D01*
X112776000Y-103378000D01*
X112776000Y-104520915D01*
X112998039Y-104642904D01*
X113132087Y-104602246D01*
X113386420Y-104482037D01*
X113612414Y-104314519D01*
X113801385Y-104106131D01*
X113919000Y-103910018D01*
X114036615Y-104106131D01*
X114225586Y-104314519D01*
X114451580Y-104482037D01*
X114705913Y-104602246D01*
X114839961Y-104642904D01*
X115062000Y-104520915D01*
X115062000Y-103378000D01*
X112776000Y-103378000D01*
X112522000Y-103378000D01*
X112502000Y-103378000D01*
X112502000Y-103124000D01*
X112522000Y-103124000D01*
X112522000Y-101981085D01*
X112776000Y-101981085D01*
X112776000Y-103124000D01*
X115062000Y-103124000D01*
X115062000Y-101981085D01*
X114839961Y-101859096D01*
X114705913Y-101899754D01*
X114451580Y-102019963D01*
X114225586Y-102187481D01*
X114036615Y-102395869D01*
X113919000Y-102591982D01*
X113801385Y-102395869D01*
X113612414Y-102187481D01*
X113386420Y-102019963D01*
X113132087Y-101899754D01*
X112998039Y-101859096D01*
X112776000Y-101981085D01*
X112522000Y-101981085D01*
X112299961Y-101859096D01*
X112165913Y-101899754D01*
X111911580Y-102019963D01*
X111685586Y-102187481D01*
X111496615Y-102395869D01*
X111385067Y-102581865D01*
X111380680Y-102571273D01*
X111223637Y-102336241D01*
X111023759Y-102136363D01*
X110788727Y-101979320D01*
X110527574Y-101871147D01*
X110250335Y-101816000D01*
X109967665Y-101816000D01*
X109690426Y-101871147D01*
X109429273Y-101979320D01*
X109194241Y-102136363D01*
X108994363Y-102336241D01*
X108974479Y-102366000D01*
X106881468Y-102366000D01*
X106808680Y-102190273D01*
X106651637Y-101955241D01*
X106451759Y-101755363D01*
X106251131Y-101621308D01*
X106278514Y-101606671D01*
X106350097Y-101362702D01*
X105537000Y-100549605D01*
X104723903Y-101362702D01*
X104795486Y-101606671D01*
X104824341Y-101620324D01*
X104622241Y-101755363D01*
X104422363Y-101955241D01*
X104265320Y-102190273D01*
X104157147Y-102451426D01*
X104102000Y-102728665D01*
X101269000Y-102728665D01*
X101269000Y-100440512D01*
X104096783Y-100440512D01*
X104138213Y-100720130D01*
X104233397Y-100986292D01*
X104300329Y-101111514D01*
X104544298Y-101183097D01*
X105357395Y-100370000D01*
X105716605Y-100370000D01*
X106529702Y-101183097D01*
X106773671Y-101111514D01*
X106894571Y-100856004D01*
X106963300Y-100581816D01*
X106977217Y-100299488D01*
X106935787Y-100019870D01*
X106840603Y-99753708D01*
X106773671Y-99628486D01*
X106529702Y-99556903D01*
X105716605Y-100370000D01*
X105357395Y-100370000D01*
X104544298Y-99556903D01*
X104300329Y-99628486D01*
X104179429Y-99883996D01*
X104110700Y-100158184D01*
X104096783Y-100440512D01*
X101269000Y-100440512D01*
X101269000Y-99377298D01*
X104723903Y-99377298D01*
X105537000Y-100190395D01*
X106350097Y-99377298D01*
X106278514Y-99133329D01*
X106023004Y-99012429D01*
X105748816Y-98943700D01*
X105466488Y-98929783D01*
X105186870Y-98971213D01*
X104920708Y-99066397D01*
X104795486Y-99133329D01*
X104723903Y-99377298D01*
X101269000Y-99377298D01*
X101269000Y-87869665D01*
X108674000Y-87869665D01*
X108674000Y-88152335D01*
X108729147Y-88429574D01*
X108837320Y-88690727D01*
X108994363Y-88925759D01*
X109194241Y-89125637D01*
X109429273Y-89282680D01*
X109690426Y-89390853D01*
X109967665Y-89446000D01*
X110250335Y-89446000D01*
X110527574Y-89390853D01*
X110788727Y-89282680D01*
X111023759Y-89125637D01*
X111223637Y-88925759D01*
X111379000Y-88693241D01*
X111534363Y-88925759D01*
X111734241Y-89125637D01*
X111969273Y-89282680D01*
X112230426Y-89390853D01*
X112507665Y-89446000D01*
X112790335Y-89446000D01*
X113067574Y-89390853D01*
X113328727Y-89282680D01*
X113563759Y-89125637D01*
X113763637Y-88925759D01*
X113919000Y-88693241D01*
X114074363Y-88925759D01*
X114274241Y-89125637D01*
X114509273Y-89282680D01*
X114770426Y-89390853D01*
X115047665Y-89446000D01*
X115330335Y-89446000D01*
X115607574Y-89390853D01*
X115868727Y-89282680D01*
X116103759Y-89125637D01*
X116303637Y-88925759D01*
X116459000Y-88693241D01*
X116614363Y-88925759D01*
X116814241Y-89125637D01*
X117049273Y-89282680D01*
X117310426Y-89390853D01*
X117587665Y-89446000D01*
X117870335Y-89446000D01*
X118147574Y-89390853D01*
X118408727Y-89282680D01*
X118643759Y-89125637D01*
X118843637Y-88925759D01*
X118999000Y-88693241D01*
X119154363Y-88925759D01*
X119354241Y-89125637D01*
X119589273Y-89282680D01*
X119850426Y-89390853D01*
X120127665Y-89446000D01*
X120410335Y-89446000D01*
X120687574Y-89390853D01*
X120948727Y-89282680D01*
X121183759Y-89125637D01*
X121383637Y-88925759D01*
X121539000Y-88693241D01*
X121694363Y-88925759D01*
X121894241Y-89125637D01*
X122129273Y-89282680D01*
X122390426Y-89390853D01*
X122667665Y-89446000D01*
X122950335Y-89446000D01*
X123227574Y-89390853D01*
X123488727Y-89282680D01*
X123723759Y-89125637D01*
X123923637Y-88925759D01*
X124079000Y-88693241D01*
X124234363Y-88925759D01*
X124434241Y-89125637D01*
X124669273Y-89282680D01*
X124930426Y-89390853D01*
X125207665Y-89446000D01*
X125490335Y-89446000D01*
X125767574Y-89390853D01*
X126028727Y-89282680D01*
X126263759Y-89125637D01*
X126463637Y-88925759D01*
X126619000Y-88693241D01*
X126774363Y-88925759D01*
X126974241Y-89125637D01*
X127209273Y-89282680D01*
X127470426Y-89390853D01*
X127747665Y-89446000D01*
X128030335Y-89446000D01*
X128307574Y-89390853D01*
X128568727Y-89282680D01*
X128803759Y-89125637D01*
X129003637Y-88925759D01*
X129159000Y-88693241D01*
X129314363Y-88925759D01*
X129514241Y-89125637D01*
X129749273Y-89282680D01*
X130010426Y-89390853D01*
X130287665Y-89446000D01*
X130570335Y-89446000D01*
X130847574Y-89390853D01*
X131108727Y-89282680D01*
X131343759Y-89125637D01*
X131543637Y-88925759D01*
X131699000Y-88693241D01*
X131854363Y-88925759D01*
X132054241Y-89125637D01*
X132289273Y-89282680D01*
X132550426Y-89390853D01*
X132827665Y-89446000D01*
X133110335Y-89446000D01*
X133387574Y-89390853D01*
X133648727Y-89282680D01*
X133883759Y-89125637D01*
X134083637Y-88925759D01*
X134239000Y-88693241D01*
X134394363Y-88925759D01*
X134594241Y-89125637D01*
X134829273Y-89282680D01*
X135090426Y-89390853D01*
X135367665Y-89446000D01*
X135650335Y-89446000D01*
X135927574Y-89390853D01*
X136188727Y-89282680D01*
X136423759Y-89125637D01*
X136623637Y-88925759D01*
X136779000Y-88693241D01*
X136934363Y-88925759D01*
X137134241Y-89125637D01*
X137369273Y-89282680D01*
X137630426Y-89390853D01*
X137907665Y-89446000D01*
X138190335Y-89446000D01*
X138467574Y-89390853D01*
X138728727Y-89282680D01*
X138963759Y-89125637D01*
X139163637Y-88925759D01*
X139319000Y-88693241D01*
X139474363Y-88925759D01*
X139674241Y-89125637D01*
X139909273Y-89282680D01*
X140170426Y-89390853D01*
X140447665Y-89446000D01*
X140730335Y-89446000D01*
X141007574Y-89390853D01*
X141268727Y-89282680D01*
X141503759Y-89125637D01*
X141702357Y-88927039D01*
X141703188Y-88935482D01*
X141739498Y-89055180D01*
X141798463Y-89165494D01*
X141877815Y-89262185D01*
X141974506Y-89341537D01*
X142084820Y-89400502D01*
X142204518Y-89436812D01*
X142329000Y-89449072D01*
X142843250Y-89446000D01*
X143002000Y-89287250D01*
X143002000Y-88138000D01*
X143256000Y-88138000D01*
X143256000Y-89287250D01*
X143414750Y-89446000D01*
X143929000Y-89449072D01*
X144053482Y-89436812D01*
X144173180Y-89400502D01*
X144283494Y-89341537D01*
X144380185Y-89262185D01*
X144459537Y-89165494D01*
X144518502Y-89055180D01*
X144554812Y-88935482D01*
X144567072Y-88811000D01*
X144564000Y-88296750D01*
X144405250Y-88138000D01*
X143256000Y-88138000D01*
X143002000Y-88138000D01*
X142982000Y-88138000D01*
X142982000Y-87884000D01*
X143002000Y-87884000D01*
X143002000Y-87864000D01*
X143256000Y-87864000D01*
X143256000Y-87884000D01*
X144405250Y-87884000D01*
X144564000Y-87725250D01*
X144565071Y-87545999D01*
X149590198Y-87545999D01*
X149731312Y-87687114D01*
X149695000Y-87869665D01*
X149695000Y-88152335D01*
X149750147Y-88429574D01*
X149858320Y-88690727D01*
X150015363Y-88925759D01*
X150215241Y-89125637D01*
X150450273Y-89282680D01*
X150711426Y-89390853D01*
X150988665Y-89446000D01*
X151271335Y-89446000D01*
X151548574Y-89390853D01*
X151809727Y-89282680D01*
X152044759Y-89125637D01*
X152244637Y-88925759D01*
X152401680Y-88690727D01*
X152434263Y-88612064D01*
X159768000Y-95945802D01*
X159768000Y-96482678D01*
X159764324Y-96520000D01*
X159768000Y-96557322D01*
X159768000Y-96557333D01*
X159776537Y-96643997D01*
X159778998Y-96668985D01*
X159822454Y-96812246D01*
X159893026Y-96944276D01*
X159943694Y-97006014D01*
X159988000Y-97060001D01*
X160016998Y-97083799D01*
X164801790Y-101868592D01*
X164758000Y-102088740D01*
X164758000Y-102381260D01*
X164815068Y-102668158D01*
X164927010Y-102938411D01*
X165089525Y-103181632D01*
X165296368Y-103388475D01*
X165539589Y-103550990D01*
X165809842Y-103662932D01*
X166096740Y-103720000D01*
X166389260Y-103720000D01*
X166676158Y-103662932D01*
X166946411Y-103550990D01*
X167189632Y-103388475D01*
X167396475Y-103181632D01*
X167558990Y-102938411D01*
X167670932Y-102668158D01*
X167728000Y-102381260D01*
X167728000Y-102088740D01*
X167670932Y-101801842D01*
X167558990Y-101531589D01*
X167396475Y-101288368D01*
X167189632Y-101081525D01*
X167015240Y-100965000D01*
X167189632Y-100848475D01*
X167396475Y-100641632D01*
X167558990Y-100398411D01*
X167670932Y-100128158D01*
X167728000Y-99841260D01*
X167728000Y-99548740D01*
X167670932Y-99261842D01*
X167558990Y-98991589D01*
X167396475Y-98748368D01*
X167189632Y-98541525D01*
X167015240Y-98425000D01*
X167189632Y-98308475D01*
X167396475Y-98101632D01*
X167558990Y-97858411D01*
X167670932Y-97588158D01*
X167728000Y-97301260D01*
X167728000Y-97008740D01*
X167670932Y-96721842D01*
X167558990Y-96451589D01*
X167396475Y-96208368D01*
X167189632Y-96001525D01*
X167015240Y-95885000D01*
X167189632Y-95768475D01*
X167396475Y-95561632D01*
X167558990Y-95318411D01*
X167670932Y-95048158D01*
X167728000Y-94761260D01*
X167728000Y-94468740D01*
X167670932Y-94181842D01*
X167558990Y-93911589D01*
X167396475Y-93668368D01*
X167189632Y-93461525D01*
X167007466Y-93339805D01*
X167124355Y-93270178D01*
X167340588Y-93075269D01*
X167514641Y-92841920D01*
X167639825Y-92579099D01*
X167684476Y-92431890D01*
X167563155Y-92202000D01*
X166370000Y-92202000D01*
X166370000Y-92222000D01*
X166116000Y-92222000D01*
X166116000Y-92202000D01*
X166096000Y-92202000D01*
X166096000Y-91948000D01*
X166116000Y-91948000D01*
X166116000Y-91928000D01*
X166370000Y-91928000D01*
X166370000Y-91948000D01*
X167563155Y-91948000D01*
X167684476Y-91718110D01*
X167639825Y-91570901D01*
X167514641Y-91308080D01*
X167340588Y-91074731D01*
X167256534Y-90998966D01*
X167337180Y-90974502D01*
X167447494Y-90915537D01*
X167544185Y-90836185D01*
X167623537Y-90739494D01*
X167682502Y-90629180D01*
X167718812Y-90509482D01*
X167731072Y-90385000D01*
X167731072Y-88685000D01*
X167718812Y-88560518D01*
X167682502Y-88440820D01*
X167623537Y-88330506D01*
X167544185Y-88233815D01*
X167447494Y-88154463D01*
X167337180Y-88095498D01*
X167217482Y-88059188D01*
X167128000Y-88050375D01*
X167128000Y-85522656D01*
X167189632Y-85481475D01*
X167396475Y-85274632D01*
X167558990Y-85031411D01*
X167670932Y-84761158D01*
X167728000Y-84474260D01*
X167728000Y-84181740D01*
X167670932Y-83894842D01*
X167558990Y-83624589D01*
X167396475Y-83381368D01*
X167264620Y-83249513D01*
X167337180Y-83227502D01*
X167447494Y-83168537D01*
X167544185Y-83089185D01*
X167623537Y-82992494D01*
X167682502Y-82882180D01*
X167718812Y-82762482D01*
X167731072Y-82638000D01*
X167731072Y-80938000D01*
X167718812Y-80813518D01*
X167682502Y-80693820D01*
X167623537Y-80583506D01*
X167544185Y-80486815D01*
X167447494Y-80407463D01*
X167337180Y-80348498D01*
X167217482Y-80312188D01*
X167093000Y-80299928D01*
X165393000Y-80299928D01*
X165268518Y-80312188D01*
X165148820Y-80348498D01*
X165038506Y-80407463D01*
X164941815Y-80486815D01*
X164862463Y-80583506D01*
X164803498Y-80693820D01*
X164767188Y-80813518D01*
X164754928Y-80938000D01*
X164754928Y-82638000D01*
X164767188Y-82762482D01*
X164803498Y-82882180D01*
X164862463Y-82992494D01*
X164941815Y-83089185D01*
X165038506Y-83168537D01*
X165148820Y-83227502D01*
X165221380Y-83249513D01*
X165089525Y-83381368D01*
X164927010Y-83624589D01*
X164815068Y-83894842D01*
X164758000Y-84181740D01*
X164758000Y-84474260D01*
X164815068Y-84761158D01*
X164927010Y-85031411D01*
X165089525Y-85274632D01*
X165296368Y-85481475D01*
X165358001Y-85522657D01*
X165358000Y-88050375D01*
X165268518Y-88059188D01*
X165148820Y-88095498D01*
X165038506Y-88154463D01*
X164941815Y-88233815D01*
X164862463Y-88330506D01*
X164803498Y-88440820D01*
X164767188Y-88560518D01*
X164754928Y-88685000D01*
X164754928Y-90385000D01*
X164767188Y-90509482D01*
X164803498Y-90629180D01*
X164862463Y-90739494D01*
X164941815Y-90836185D01*
X165038506Y-90915537D01*
X165148820Y-90974502D01*
X165229466Y-90998966D01*
X165145412Y-91074731D01*
X164971359Y-91308080D01*
X164959591Y-91332787D01*
X158101767Y-84474964D01*
X158077964Y-84445960D01*
X157962239Y-84350987D01*
X157830210Y-84280415D01*
X157686949Y-84236958D01*
X157575296Y-84225961D01*
X157575285Y-84225961D01*
X157537963Y-84222285D01*
X157500641Y-84225961D01*
X118251361Y-84225961D01*
X118214038Y-84222285D01*
X118176715Y-84225961D01*
X118176706Y-84225961D01*
X118065053Y-84236958D01*
X117921792Y-84280415D01*
X117789763Y-84350987D01*
X117674038Y-84445960D01*
X117650240Y-84474958D01*
X115512886Y-86612312D01*
X115330335Y-86576000D01*
X115047665Y-86576000D01*
X114770426Y-86631147D01*
X114509273Y-86739320D01*
X114274241Y-86896363D01*
X114074363Y-87096241D01*
X113919000Y-87328759D01*
X113763637Y-87096241D01*
X113563759Y-86896363D01*
X113328727Y-86739320D01*
X113067574Y-86631147D01*
X112790335Y-86576000D01*
X112507665Y-86576000D01*
X112230426Y-86631147D01*
X111969273Y-86739320D01*
X111734241Y-86896363D01*
X111534363Y-87096241D01*
X111379000Y-87328759D01*
X111223637Y-87096241D01*
X111023759Y-86896363D01*
X110788727Y-86739320D01*
X110527574Y-86631147D01*
X110250335Y-86576000D01*
X109967665Y-86576000D01*
X109690426Y-86631147D01*
X109429273Y-86739320D01*
X109194241Y-86896363D01*
X108994363Y-87096241D01*
X108837320Y-87331273D01*
X108729147Y-87592426D01*
X108674000Y-87869665D01*
X101269000Y-87869665D01*
X101269000Y-76801353D01*
X101259711Y-76707043D01*
X101273234Y-76569125D01*
X101350448Y-76313378D01*
X101475869Y-76077496D01*
X101644716Y-75870470D01*
X101850554Y-75700187D01*
X102085556Y-75573121D01*
X102340756Y-75494124D01*
X102487711Y-75478678D01*
X102582353Y-75488000D01*
G37*
%TD.AperFunction*%
D18*
X158171193Y-86693992D02*
X158133708Y-86707397D01*
X158008486Y-86774329D01*
X157936903Y-87018298D01*
X158750000Y-87831395D01*
X158764143Y-87817253D01*
X158943748Y-87996858D01*
X158929605Y-88011000D01*
X159742702Y-88824097D01*
X159986671Y-88752514D01*
X160064735Y-88587534D01*
X164207999Y-92730799D01*
X164208000Y-93302667D01*
X164204323Y-93339999D01*
X164208000Y-93377332D01*
X164212120Y-93419157D01*
X164218997Y-93488984D01*
X164262453Y-93632245D01*
X164333025Y-93764275D01*
X164404200Y-93851001D01*
X164427999Y-93880000D01*
X164456997Y-93903798D01*
X164801791Y-94248592D01*
X164758000Y-94468740D01*
X164758000Y-94757200D01*
X159328807Y-89328008D01*
X159366292Y-89314603D01*
X159491514Y-89247671D01*
X159563097Y-89003702D01*
X158750000Y-88190605D01*
X158735858Y-88204748D01*
X158556253Y-88025143D01*
X158570395Y-88011000D01*
X157757298Y-87197903D01*
X157513329Y-87269486D01*
X157435265Y-87434466D01*
X155746760Y-85745961D01*
X157223162Y-85745961D01*
X158171193Y-86693992D01*
%TA.AperFunction,Conductor*%
D19*
G36*
X158171193Y-86693992D02*
G01*
X158133708Y-86707397D01*
X158008486Y-86774329D01*
X157936903Y-87018298D01*
X158750000Y-87831395D01*
X158764143Y-87817253D01*
X158943748Y-87996858D01*
X158929605Y-88011000D01*
X159742702Y-88824097D01*
X159986671Y-88752514D01*
X160064735Y-88587534D01*
X164207999Y-92730799D01*
X164208000Y-93302667D01*
X164204323Y-93339999D01*
X164208000Y-93377332D01*
X164212120Y-93419157D01*
X164218997Y-93488984D01*
X164262453Y-93632245D01*
X164333025Y-93764275D01*
X164404200Y-93851001D01*
X164427999Y-93880000D01*
X164456997Y-93903798D01*
X164801791Y-94248592D01*
X164758000Y-94468740D01*
X164758000Y-94757200D01*
X159328807Y-89328008D01*
X159366292Y-89314603D01*
X159491514Y-89247671D01*
X159563097Y-89003702D01*
X158750000Y-88190605D01*
X158735858Y-88204748D01*
X158556253Y-88025143D01*
X158570395Y-88011000D01*
X157757298Y-87197903D01*
X157513329Y-87269486D01*
X157435265Y-87434466D01*
X155746760Y-85745961D01*
X157223162Y-85745961D01*
X158171193Y-86693992D01*
G37*
%TD.AperFunction*%
%TD*%
M02*
