%TF.GenerationSoftware,KiCad,Pcbnew,(5.1.12-1-10_14)*%
%TF.CreationDate,2022-01-05T16:58:03+01:00*%
%TF.ProjectId,kids serial,6b696473-2073-4657-9269-616c2e6b6963,rev?*%
%TF.SameCoordinates,Original*%
%TF.FileFunction,Legend,Bot*%
%TF.FilePolarity,Positive*%
%FSLAX46Y46*%
G04 Gerber Fmt 4.6, Leading zero omitted, Abs format (unit mm)*
G04 Created by KiCad (PCBNEW (5.1.12-1-10_14)) date 2022-01-05 16:58:03*
%MOMM*%
%LPD*%
G01*
G04 APERTURE LIST*
%ADD10C,0.150000*%
%ADD11C,0.120000*%
G04 APERTURE END LIST*
D10*
X175226023Y-112509904D02*
X175226023Y-111709904D01*
X175226023Y-112014666D02*
X175149833Y-111976571D01*
X174997452Y-111976571D01*
X174921261Y-112014666D01*
X174883166Y-112052761D01*
X174845071Y-112128952D01*
X174845071Y-112357523D01*
X174883166Y-112433714D01*
X174921261Y-112471809D01*
X174997452Y-112509904D01*
X175149833Y-112509904D01*
X175226023Y-112471809D01*
X174578404Y-111976571D02*
X174387928Y-112509904D01*
X174197452Y-111976571D02*
X174387928Y-112509904D01*
X174464119Y-112700380D01*
X174502214Y-112738476D01*
X174578404Y-112776571D01*
X173283166Y-112509904D02*
X173283166Y-111709904D01*
X172826023Y-112509904D01*
X172826023Y-111709904D01*
X172102214Y-112509904D02*
X172102214Y-112090857D01*
X172140309Y-112014666D01*
X172216500Y-111976571D01*
X172368880Y-111976571D01*
X172445071Y-112014666D01*
X172102214Y-112471809D02*
X172178404Y-112509904D01*
X172368880Y-112509904D01*
X172445071Y-112471809D01*
X172483166Y-112395619D01*
X172483166Y-112319428D01*
X172445071Y-112243238D01*
X172368880Y-112205142D01*
X172178404Y-112205142D01*
X172102214Y-112167047D01*
X171835547Y-111976571D02*
X171530785Y-111976571D01*
X171721261Y-111709904D02*
X171721261Y-112395619D01*
X171683166Y-112471809D01*
X171606976Y-112509904D01*
X171530785Y-112509904D01*
X170959357Y-112471809D02*
X171035547Y-112509904D01*
X171187928Y-112509904D01*
X171264119Y-112471809D01*
X171302214Y-112395619D01*
X171302214Y-112090857D01*
X171264119Y-112014666D01*
X171187928Y-111976571D01*
X171035547Y-111976571D01*
X170959357Y-112014666D01*
X170921261Y-112090857D01*
X170921261Y-112167047D01*
X171302214Y-112243238D01*
X169511738Y-112509904D02*
X169778404Y-112128952D01*
X169968880Y-112509904D02*
X169968880Y-111709904D01*
X169664119Y-111709904D01*
X169587928Y-111748000D01*
X169549833Y-111786095D01*
X169511738Y-111862285D01*
X169511738Y-111976571D01*
X169549833Y-112052761D01*
X169587928Y-112090857D01*
X169664119Y-112128952D01*
X169968880Y-112128952D01*
X169168880Y-112509904D02*
X169168880Y-111976571D01*
X169168880Y-111709904D02*
X169206976Y-111748000D01*
X169168880Y-111786095D01*
X169130785Y-111748000D01*
X169168880Y-111709904D01*
X169168880Y-111786095D01*
X168864119Y-111976571D02*
X168673642Y-112509904D01*
X168483166Y-111976571D01*
X167835547Y-112509904D02*
X167835547Y-112090857D01*
X167873642Y-112014666D01*
X167949833Y-111976571D01*
X168102214Y-111976571D01*
X168178404Y-112014666D01*
X167835547Y-112471809D02*
X167911738Y-112509904D01*
X168102214Y-112509904D01*
X168178404Y-112471809D01*
X168216500Y-112395619D01*
X168216500Y-112319428D01*
X168178404Y-112243238D01*
X168102214Y-112205142D01*
X167911738Y-112205142D01*
X167835547Y-112167047D01*
X167454595Y-112509904D02*
X167454595Y-111976571D01*
X167454595Y-112128952D02*
X167416500Y-112052761D01*
X167378404Y-112014666D01*
X167302214Y-111976571D01*
X167226023Y-111976571D01*
X166616500Y-112509904D02*
X166616500Y-111709904D01*
X166616500Y-112471809D02*
X166692690Y-112509904D01*
X166845071Y-112509904D01*
X166921261Y-112471809D01*
X166959357Y-112433714D01*
X166997452Y-112357523D01*
X166997452Y-112128952D01*
X166959357Y-112052761D01*
X166921261Y-112014666D01*
X166845071Y-111976571D01*
X166692690Y-111976571D01*
X166616500Y-112014666D01*
X175226023Y-113859904D02*
X175226023Y-113059904D01*
X174883166Y-113859904D02*
X174883166Y-113440857D01*
X174921261Y-113364666D01*
X174997452Y-113326571D01*
X175111738Y-113326571D01*
X175187928Y-113364666D01*
X175226023Y-113402761D01*
X174616500Y-113326571D02*
X174311738Y-113326571D01*
X174502214Y-113059904D02*
X174502214Y-113745619D01*
X174464119Y-113821809D01*
X174387928Y-113859904D01*
X174311738Y-113859904D01*
X174159357Y-113326571D02*
X173854595Y-113326571D01*
X174045071Y-113059904D02*
X174045071Y-113745619D01*
X174006976Y-113821809D01*
X173930785Y-113859904D01*
X173854595Y-113859904D01*
X173587928Y-113326571D02*
X173587928Y-114126571D01*
X173587928Y-113364666D02*
X173511738Y-113326571D01*
X173359357Y-113326571D01*
X173283166Y-113364666D01*
X173245071Y-113402761D01*
X173206976Y-113478952D01*
X173206976Y-113707523D01*
X173245071Y-113783714D01*
X173283166Y-113821809D01*
X173359357Y-113859904D01*
X173511738Y-113859904D01*
X173587928Y-113821809D01*
X172902214Y-113821809D02*
X172826023Y-113859904D01*
X172673642Y-113859904D01*
X172597452Y-113821809D01*
X172559357Y-113745619D01*
X172559357Y-113707523D01*
X172597452Y-113631333D01*
X172673642Y-113593238D01*
X172787928Y-113593238D01*
X172864119Y-113555142D01*
X172902214Y-113478952D01*
X172902214Y-113440857D01*
X172864119Y-113364666D01*
X172787928Y-113326571D01*
X172673642Y-113326571D01*
X172597452Y-113364666D01*
X172216500Y-113783714D02*
X172178404Y-113821809D01*
X172216500Y-113859904D01*
X172254595Y-113821809D01*
X172216500Y-113783714D01*
X172216500Y-113859904D01*
X172216500Y-113364666D02*
X172178404Y-113402761D01*
X172216500Y-113440857D01*
X172254595Y-113402761D01*
X172216500Y-113364666D01*
X172216500Y-113440857D01*
X171264119Y-113021809D02*
X171949833Y-114050380D01*
X170426023Y-113021809D02*
X171111738Y-114050380D01*
X169816499Y-113326571D02*
X169816499Y-113974190D01*
X169854595Y-114050380D01*
X169892690Y-114088476D01*
X169968880Y-114126571D01*
X170083166Y-114126571D01*
X170159357Y-114088476D01*
X169816499Y-113821809D02*
X169892690Y-113859904D01*
X170045071Y-113859904D01*
X170121261Y-113821809D01*
X170159357Y-113783714D01*
X170197452Y-113707523D01*
X170197452Y-113478952D01*
X170159357Y-113402761D01*
X170121261Y-113364666D01*
X170045071Y-113326571D01*
X169892690Y-113326571D01*
X169816499Y-113364666D01*
X169435547Y-113859904D02*
X169435547Y-113326571D01*
X169435547Y-113059904D02*
X169473642Y-113098000D01*
X169435547Y-113136095D01*
X169397452Y-113098000D01*
X169435547Y-113059904D01*
X169435547Y-113136095D01*
X169168880Y-113326571D02*
X168864119Y-113326571D01*
X169054595Y-113059904D02*
X169054595Y-113745619D01*
X169016499Y-113821809D01*
X168940309Y-113859904D01*
X168864119Y-113859904D01*
X168597452Y-113859904D02*
X168597452Y-113059904D01*
X168254595Y-113859904D02*
X168254595Y-113440857D01*
X168292690Y-113364666D01*
X168368880Y-113326571D01*
X168483166Y-113326571D01*
X168559357Y-113364666D01*
X168597452Y-113402761D01*
X167530785Y-113326571D02*
X167530785Y-113859904D01*
X167873642Y-113326571D02*
X167873642Y-113745619D01*
X167835547Y-113821809D01*
X167759357Y-113859904D01*
X167645071Y-113859904D01*
X167568880Y-113821809D01*
X167530785Y-113783714D01*
X167149833Y-113859904D02*
X167149833Y-113059904D01*
X167149833Y-113364666D02*
X167073642Y-113326571D01*
X166921261Y-113326571D01*
X166845071Y-113364666D01*
X166806976Y-113402761D01*
X166768880Y-113478952D01*
X166768880Y-113707523D01*
X166806976Y-113783714D01*
X166845071Y-113821809D01*
X166921261Y-113859904D01*
X167073642Y-113859904D01*
X167149833Y-113821809D01*
X166426023Y-113783714D02*
X166387928Y-113821809D01*
X166426023Y-113859904D01*
X166464119Y-113821809D01*
X166426023Y-113783714D01*
X166426023Y-113859904D01*
X165702214Y-113821809D02*
X165778404Y-113859904D01*
X165930785Y-113859904D01*
X166006976Y-113821809D01*
X166045071Y-113783714D01*
X166083166Y-113707523D01*
X166083166Y-113478952D01*
X166045071Y-113402761D01*
X166006976Y-113364666D01*
X165930785Y-113326571D01*
X165778404Y-113326571D01*
X165702214Y-113364666D01*
X165245071Y-113859904D02*
X165321261Y-113821809D01*
X165359357Y-113783714D01*
X165397452Y-113707523D01*
X165397452Y-113478952D01*
X165359357Y-113402761D01*
X165321261Y-113364666D01*
X165245071Y-113326571D01*
X165130785Y-113326571D01*
X165054595Y-113364666D01*
X165016499Y-113402761D01*
X164978404Y-113478952D01*
X164978404Y-113707523D01*
X165016499Y-113783714D01*
X165054595Y-113821809D01*
X165130785Y-113859904D01*
X165245071Y-113859904D01*
X164635547Y-113859904D02*
X164635547Y-113326571D01*
X164635547Y-113402761D02*
X164597452Y-113364666D01*
X164521261Y-113326571D01*
X164406976Y-113326571D01*
X164330785Y-113364666D01*
X164292690Y-113440857D01*
X164292690Y-113859904D01*
X164292690Y-113440857D02*
X164254595Y-113364666D01*
X164178404Y-113326571D01*
X164064119Y-113326571D01*
X163987928Y-113364666D01*
X163949833Y-113440857D01*
X163949833Y-113859904D01*
X162997452Y-113021809D02*
X163683166Y-114050380D01*
X162730785Y-113326571D02*
X162730785Y-113859904D01*
X162730785Y-113402761D02*
X162692690Y-113364666D01*
X162616499Y-113326571D01*
X162502214Y-113326571D01*
X162426023Y-113364666D01*
X162387928Y-113440857D01*
X162387928Y-113859904D01*
X162006976Y-113859904D02*
X162006976Y-113326571D01*
X162006976Y-113478952D02*
X161968880Y-113402761D01*
X161930785Y-113364666D01*
X161854595Y-113326571D01*
X161778404Y-113326571D01*
X161511738Y-113859904D02*
X161511738Y-113326571D01*
X161511738Y-113059904D02*
X161549833Y-113098000D01*
X161511738Y-113136095D01*
X161473642Y-113098000D01*
X161511738Y-113059904D01*
X161511738Y-113136095D01*
X161206976Y-113326571D02*
X161016499Y-113859904D01*
X160826023Y-113326571D01*
X160178404Y-113859904D02*
X160178404Y-113440857D01*
X160216499Y-113364666D01*
X160292690Y-113326571D01*
X160445071Y-113326571D01*
X160521261Y-113364666D01*
X160178404Y-113821809D02*
X160254595Y-113859904D01*
X160445071Y-113859904D01*
X160521261Y-113821809D01*
X160559357Y-113745619D01*
X160559357Y-113669428D01*
X160521261Y-113593238D01*
X160445071Y-113555142D01*
X160254595Y-113555142D01*
X160178404Y-113517047D01*
X159797452Y-113859904D02*
X159797452Y-113326571D01*
X159797452Y-113478952D02*
X159759357Y-113402761D01*
X159721261Y-113364666D01*
X159645071Y-113326571D01*
X159568880Y-113326571D01*
X158959357Y-113859904D02*
X158959357Y-113059904D01*
X158959357Y-113821809D02*
X159035547Y-113859904D01*
X159187928Y-113859904D01*
X159264119Y-113821809D01*
X159302214Y-113783714D01*
X159340309Y-113707523D01*
X159340309Y-113478952D01*
X159302214Y-113402761D01*
X159264119Y-113364666D01*
X159187928Y-113326571D01*
X159035547Y-113326571D01*
X158959357Y-113364666D01*
X158006976Y-113021809D02*
X158692690Y-114050380D01*
X157626023Y-113859904D02*
X157702214Y-113821809D01*
X157740309Y-113745619D01*
X157740309Y-113059904D01*
X157321261Y-113859904D02*
X157321261Y-113326571D01*
X157321261Y-113402761D02*
X157283166Y-113364666D01*
X157206976Y-113326571D01*
X157092690Y-113326571D01*
X157016500Y-113364666D01*
X156978404Y-113440857D01*
X156978404Y-113859904D01*
X156978404Y-113440857D02*
X156940309Y-113364666D01*
X156864119Y-113326571D01*
X156749833Y-113326571D01*
X156673642Y-113364666D01*
X156635547Y-113440857D01*
X156635547Y-113859904D01*
X155911738Y-113859904D02*
X155911738Y-113440857D01*
X155949833Y-113364666D01*
X156026023Y-113326571D01*
X156178404Y-113326571D01*
X156254595Y-113364666D01*
X155911738Y-113821809D02*
X155987928Y-113859904D01*
X156178404Y-113859904D01*
X156254595Y-113821809D01*
X156292690Y-113745619D01*
X156292690Y-113669428D01*
X156254595Y-113593238D01*
X156178404Y-113555142D01*
X155987928Y-113555142D01*
X155911738Y-113517047D01*
X155416500Y-113859904D02*
X155492690Y-113821809D01*
X155530785Y-113783714D01*
X155568880Y-113707523D01*
X155568880Y-113478952D01*
X155530785Y-113402761D01*
X155492690Y-113364666D01*
X155416500Y-113326571D01*
X155302214Y-113326571D01*
X155226023Y-113364666D01*
X155187928Y-113402761D01*
X155149833Y-113478952D01*
X155149833Y-113707523D01*
X155187928Y-113783714D01*
X155226023Y-113821809D01*
X155302214Y-113859904D01*
X155416500Y-113859904D01*
X154845071Y-113821809D02*
X154768880Y-113859904D01*
X154616500Y-113859904D01*
X154540309Y-113821809D01*
X154502214Y-113745619D01*
X154502214Y-113707523D01*
X154540309Y-113631333D01*
X154616500Y-113593238D01*
X154730785Y-113593238D01*
X154806976Y-113555142D01*
X154845071Y-113478952D01*
X154845071Y-113440857D01*
X154806976Y-113364666D01*
X154730785Y-113326571D01*
X154616500Y-113326571D01*
X154540309Y-113364666D01*
X175340309Y-114409904D02*
X175073642Y-115209904D01*
X174806976Y-114409904D01*
X174235547Y-115171809D02*
X174311738Y-115209904D01*
X174464119Y-115209904D01*
X174540309Y-115171809D01*
X174578404Y-115095619D01*
X174578404Y-114790857D01*
X174540309Y-114714666D01*
X174464119Y-114676571D01*
X174311738Y-114676571D01*
X174235547Y-114714666D01*
X174197452Y-114790857D01*
X174197452Y-114867047D01*
X174578404Y-114943238D01*
X173854595Y-115209904D02*
X173854595Y-114676571D01*
X173854595Y-114828952D02*
X173816500Y-114752761D01*
X173778404Y-114714666D01*
X173702214Y-114676571D01*
X173626023Y-114676571D01*
X173397452Y-115171809D02*
X173321261Y-115209904D01*
X173168880Y-115209904D01*
X173092690Y-115171809D01*
X173054595Y-115095619D01*
X173054595Y-115057523D01*
X173092690Y-114981333D01*
X173168880Y-114943238D01*
X173283166Y-114943238D01*
X173359357Y-114905142D01*
X173397452Y-114828952D01*
X173397452Y-114790857D01*
X173359357Y-114714666D01*
X173283166Y-114676571D01*
X173168880Y-114676571D01*
X173092690Y-114714666D01*
X172711738Y-115209904D02*
X172711738Y-114676571D01*
X172711738Y-114409904D02*
X172749833Y-114448000D01*
X172711738Y-114486095D01*
X172673642Y-114448000D01*
X172711738Y-114409904D01*
X172711738Y-114486095D01*
X172216500Y-115209904D02*
X172292690Y-115171809D01*
X172330785Y-115133714D01*
X172368880Y-115057523D01*
X172368880Y-114828952D01*
X172330785Y-114752761D01*
X172292690Y-114714666D01*
X172216500Y-114676571D01*
X172102214Y-114676571D01*
X172026023Y-114714666D01*
X171987928Y-114752761D01*
X171949833Y-114828952D01*
X171949833Y-115057523D01*
X171987928Y-115133714D01*
X172026023Y-115171809D01*
X172102214Y-115209904D01*
X172216500Y-115209904D01*
X171606976Y-114676571D02*
X171606976Y-115209904D01*
X171606976Y-114752761D02*
X171568880Y-114714666D01*
X171492690Y-114676571D01*
X171378404Y-114676571D01*
X171302214Y-114714666D01*
X171264119Y-114790857D01*
X171264119Y-115209904D01*
X169854595Y-115209904D02*
X170311738Y-115209904D01*
X170083166Y-115209904D02*
X170083166Y-114409904D01*
X170159357Y-114524190D01*
X170235547Y-114600380D01*
X170311738Y-114638476D01*
X175226023Y-116559904D02*
X175226023Y-115759904D01*
X174959357Y-116331333D01*
X174692690Y-115759904D01*
X174692690Y-116559904D01*
X173968880Y-116559904D02*
X173968880Y-116140857D01*
X174006976Y-116064666D01*
X174083166Y-116026571D01*
X174235547Y-116026571D01*
X174311738Y-116064666D01*
X173968880Y-116521809D02*
X174045071Y-116559904D01*
X174235547Y-116559904D01*
X174311738Y-116521809D01*
X174349833Y-116445619D01*
X174349833Y-116369428D01*
X174311738Y-116293238D01*
X174235547Y-116255142D01*
X174045071Y-116255142D01*
X173968880Y-116217047D01*
X173587928Y-116559904D02*
X173587928Y-116026571D01*
X173587928Y-116178952D02*
X173549833Y-116102761D01*
X173511738Y-116064666D01*
X173435547Y-116026571D01*
X173359357Y-116026571D01*
X172521261Y-115836095D02*
X172483166Y-115798000D01*
X172406976Y-115759904D01*
X172216500Y-115759904D01*
X172140309Y-115798000D01*
X172102214Y-115836095D01*
X172064119Y-115912285D01*
X172064119Y-115988476D01*
X172102214Y-116102761D01*
X172559357Y-116559904D01*
X172064119Y-116559904D01*
X171568880Y-115759904D02*
X171492690Y-115759904D01*
X171416500Y-115798000D01*
X171378404Y-115836095D01*
X171340309Y-115912285D01*
X171302214Y-116064666D01*
X171302214Y-116255142D01*
X171340309Y-116407523D01*
X171378404Y-116483714D01*
X171416500Y-116521809D01*
X171492690Y-116559904D01*
X171568880Y-116559904D01*
X171645071Y-116521809D01*
X171683166Y-116483714D01*
X171721261Y-116407523D01*
X171759357Y-116255142D01*
X171759357Y-116064666D01*
X171721261Y-115912285D01*
X171683166Y-115836095D01*
X171645071Y-115798000D01*
X171568880Y-115759904D01*
X170997452Y-115836095D02*
X170959357Y-115798000D01*
X170883166Y-115759904D01*
X170692690Y-115759904D01*
X170616500Y-115798000D01*
X170578404Y-115836095D01*
X170540309Y-115912285D01*
X170540309Y-115988476D01*
X170578404Y-116102761D01*
X171035547Y-116559904D01*
X170540309Y-116559904D01*
X169778404Y-116559904D02*
X170235547Y-116559904D01*
X170006976Y-116559904D02*
X170006976Y-115759904D01*
X170083166Y-115874190D01*
X170159357Y-115950380D01*
X170235547Y-115988476D01*
D11*
%TO.C,J2*%
X166243000Y-88205000D02*
X165133000Y-88205000D01*
X165133000Y-88205000D02*
X165133000Y-89535000D01*
X176333000Y-88205000D02*
X176333000Y-103565000D01*
X176333000Y-103565000D02*
X167703000Y-103565000D01*
X167703000Y-88205000D02*
X167703000Y-103565000D01*
X176333000Y-88205000D02*
X167703000Y-88205000D01*
X176333000Y-100965000D02*
X167703000Y-100965000D01*
X176333000Y-98425000D02*
X167703000Y-98425000D01*
X176333000Y-95885000D02*
X167703000Y-95885000D01*
X176333000Y-93345000D02*
X167703000Y-93345000D01*
X176333000Y-90805000D02*
X167703000Y-90805000D01*
X167703000Y-102595000D02*
X167293000Y-102595000D01*
X167703000Y-101875000D02*
X167293000Y-101875000D01*
X167703000Y-100055000D02*
X167293000Y-100055000D01*
X167703000Y-99335000D02*
X167293000Y-99335000D01*
X167703000Y-97515000D02*
X167293000Y-97515000D01*
X167703000Y-96795000D02*
X167293000Y-96795000D01*
X167703000Y-94975000D02*
X167293000Y-94975000D01*
X167703000Y-94255000D02*
X167293000Y-94255000D01*
X167703000Y-92435000D02*
X167293000Y-92435000D01*
X167703000Y-91715000D02*
X167293000Y-91715000D01*
X167703000Y-89895000D02*
X167353000Y-89895000D01*
X167703000Y-89175000D02*
X167353000Y-89175000D01*
X176333000Y-90686900D02*
X167703000Y-90686900D01*
X176333000Y-90568805D02*
X167703000Y-90568805D01*
X176333000Y-90450710D02*
X167703000Y-90450710D01*
X176333000Y-90332615D02*
X167703000Y-90332615D01*
X176333000Y-90214520D02*
X167703000Y-90214520D01*
X176333000Y-90096425D02*
X167703000Y-90096425D01*
X176333000Y-89978330D02*
X167703000Y-89978330D01*
X176333000Y-89860235D02*
X167703000Y-89860235D01*
X176333000Y-89742140D02*
X167703000Y-89742140D01*
X176333000Y-89624045D02*
X167703000Y-89624045D01*
X176333000Y-89505950D02*
X167703000Y-89505950D01*
X176333000Y-89387855D02*
X167703000Y-89387855D01*
X176333000Y-89269760D02*
X167703000Y-89269760D01*
X176333000Y-89151665D02*
X167703000Y-89151665D01*
X176333000Y-89033570D02*
X167703000Y-89033570D01*
X176333000Y-88915475D02*
X167703000Y-88915475D01*
X176333000Y-88797380D02*
X167703000Y-88797380D01*
X176333000Y-88679285D02*
X167703000Y-88679285D01*
X176333000Y-88561190D02*
X167703000Y-88561190D01*
X176333000Y-88443095D02*
X167703000Y-88443095D01*
X176333000Y-88325000D02*
X167703000Y-88325000D01*
D10*
X166449333Y-86217380D02*
X166449333Y-86931666D01*
X166496952Y-87074523D01*
X166592190Y-87169761D01*
X166735047Y-87217380D01*
X166830285Y-87217380D01*
X166020761Y-86312619D02*
X165973142Y-86265000D01*
X165877904Y-86217380D01*
X165639809Y-86217380D01*
X165544571Y-86265000D01*
X165496952Y-86312619D01*
X165449333Y-86407857D01*
X165449333Y-86503095D01*
X165496952Y-86645952D01*
X166068380Y-87217380D01*
X165449333Y-87217380D01*
%TD*%
M02*
