M48
; DRILL file {KiCad (5.1.12-1-10_14)} date 2022 January 05, Wednesday 16:58:00
; FORMAT={-:-/ absolute / metric / decimal}
; #@! TF.CreationDate,2022-01-05T16:58:00+01:00
; #@! TF.GenerationSoftware,Kicad,Pcbnew,(5.1.12-1-10_14)
; #@! TF.FileFunction,Plated,1,2,PTH
FMAT,2
METRIC
T1C0.400
T2C0.800
T3C1.000
%
G90
G05
T1
X105.537Y-78.359
X126.873Y-95.758
X137.033Y-78.486
X166.243Y-78.359
X166.243Y-108.585
T2
X105.537Y-100.37
X105.537Y-102.87
X110.109Y-88.011
X110.109Y-103.251
X112.649Y-88.011
X112.649Y-103.251
X115.189Y-88.011
X115.189Y-103.251
X117.729Y-88.011
X117.729Y-103.251
X120.269Y-88.011
X120.269Y-103.251
X122.809Y-88.011
X122.809Y-103.251
X125.349Y-88.011
X125.349Y-103.251
X127.889Y-88.011
X127.889Y-103.251
X130.429Y-88.011
X130.429Y-103.251
X132.969Y-88.011
X132.969Y-103.251
X135.509Y-88.011
X135.509Y-103.251
X138.049Y-88.011
X138.049Y-103.251
X140.589Y-88.011
X140.589Y-103.251
X143.129Y-88.011
X143.129Y-103.251
X151.13Y-88.011
X151.13Y-103.251
X158.75Y-88.011
X158.75Y-103.251
T3
X109.017Y-112.598
X109.017Y-115.138
X111.557Y-112.598
X111.557Y-115.138
X114.097Y-112.598
X114.097Y-115.138
X116.637Y-112.598
X116.637Y-115.138
X119.177Y-112.598
X119.177Y-115.138
X121.717Y-112.598
X121.717Y-115.138
X124.257Y-112.598
X124.257Y-115.138
X126.797Y-112.598
X126.797Y-115.138
X129.337Y-112.598
X129.337Y-115.138
X131.877Y-112.598
X131.877Y-115.138
X134.417Y-112.598
X134.417Y-115.138
X136.957Y-112.598
X136.957Y-115.138
X139.497Y-112.598
X139.497Y-115.138
X142.037Y-112.598
X142.037Y-115.138
X144.577Y-112.598
X144.577Y-115.138
X147.117Y-112.598
X147.117Y-115.138
X166.243Y-81.788
X166.243Y-84.328
X166.243Y-89.535
X166.243Y-92.075
X166.243Y-94.615
X166.243Y-97.155
X166.243Y-99.695
X166.243Y-102.235
T0
M30
