%TF.GenerationSoftware,KiCad,Pcbnew,(5.1.9-0-10_14)*%
%TF.CreationDate,2021-03-24T13:41:59+01:00*%
%TF.ProjectId,kids serial,6b696473-2073-4657-9269-616c2e6b6963,rev?*%
%TF.SameCoordinates,Original*%
%TF.FileFunction,Legend,Top*%
%TF.FilePolarity,Positive*%
%FSLAX46Y46*%
G04 Gerber Fmt 4.6, Leading zero omitted, Abs format (unit mm)*
G04 Created by KiCad (PCBNEW (5.1.9-0-10_14)) date 2021-03-24 13:41:59*
%MOMM*%
%LPD*%
G01*
G04 APERTURE LIST*
%ADD10C,0.300000*%
%ADD11C,0.150000*%
%ADD12C,0.120000*%
G04 APERTURE END LIST*
D10*
X167445857Y-112348261D02*
X167445857Y-110348261D01*
X168588714Y-112348261D02*
X167731571Y-111205404D01*
X168588714Y-110348261D02*
X167445857Y-111491119D01*
X169445857Y-112348261D02*
X169445857Y-111014928D01*
X169445857Y-110348261D02*
X169350619Y-110443500D01*
X169445857Y-110538738D01*
X169541095Y-110443500D01*
X169445857Y-110348261D01*
X169445857Y-110538738D01*
X171255380Y-112348261D02*
X171255380Y-110348261D01*
X171255380Y-112253023D02*
X171064904Y-112348261D01*
X170683952Y-112348261D01*
X170493476Y-112253023D01*
X170398238Y-112157785D01*
X170303000Y-111967309D01*
X170303000Y-111395880D01*
X170398238Y-111205404D01*
X170493476Y-111110166D01*
X170683952Y-111014928D01*
X171064904Y-111014928D01*
X171255380Y-111110166D01*
X172112523Y-112253023D02*
X172303000Y-112348261D01*
X172683952Y-112348261D01*
X172874428Y-112253023D01*
X172969666Y-112062547D01*
X172969666Y-111967309D01*
X172874428Y-111776833D01*
X172683952Y-111681595D01*
X172398238Y-111681595D01*
X172207761Y-111586357D01*
X172112523Y-111395880D01*
X172112523Y-111300642D01*
X172207761Y-111110166D01*
X172398238Y-111014928D01*
X172683952Y-111014928D01*
X172874428Y-111110166D01*
X173922047Y-110348261D02*
X173922047Y-110443500D01*
X173826809Y-110633976D01*
X173731571Y-110729214D01*
X166017285Y-115553023D02*
X166303000Y-115648261D01*
X166779190Y-115648261D01*
X166969666Y-115553023D01*
X167064904Y-115457785D01*
X167160142Y-115267309D01*
X167160142Y-115076833D01*
X167064904Y-114886357D01*
X166969666Y-114791119D01*
X166779190Y-114695880D01*
X166398238Y-114600642D01*
X166207761Y-114505404D01*
X166112523Y-114410166D01*
X166017285Y-114219690D01*
X166017285Y-114029214D01*
X166112523Y-113838738D01*
X166207761Y-113743500D01*
X166398238Y-113648261D01*
X166874428Y-113648261D01*
X167160142Y-113743500D01*
X168779190Y-115553023D02*
X168588714Y-115648261D01*
X168207761Y-115648261D01*
X168017285Y-115553023D01*
X167922047Y-115362547D01*
X167922047Y-114600642D01*
X168017285Y-114410166D01*
X168207761Y-114314928D01*
X168588714Y-114314928D01*
X168779190Y-114410166D01*
X168874428Y-114600642D01*
X168874428Y-114791119D01*
X167922047Y-114981595D01*
X169731571Y-115648261D02*
X169731571Y-114314928D01*
X169731571Y-114695880D02*
X169826809Y-114505404D01*
X169922047Y-114410166D01*
X170112523Y-114314928D01*
X170303000Y-114314928D01*
X170969666Y-115648261D02*
X170969666Y-114314928D01*
X170969666Y-113648261D02*
X170874428Y-113743500D01*
X170969666Y-113838738D01*
X171064904Y-113743500D01*
X170969666Y-113648261D01*
X170969666Y-113838738D01*
X172779190Y-115648261D02*
X172779190Y-114600642D01*
X172683952Y-114410166D01*
X172493476Y-114314928D01*
X172112523Y-114314928D01*
X171922047Y-114410166D01*
X172779190Y-115553023D02*
X172588714Y-115648261D01*
X172112523Y-115648261D01*
X171922047Y-115553023D01*
X171826809Y-115362547D01*
X171826809Y-115172071D01*
X171922047Y-114981595D01*
X172112523Y-114886357D01*
X172588714Y-114886357D01*
X172779190Y-114791119D01*
X174017285Y-115648261D02*
X173826809Y-115553023D01*
X173731571Y-115362547D01*
X173731571Y-113648261D01*
D11*
X139522857Y-110318571D02*
X139522857Y-110851904D01*
X139522857Y-110394761D02*
X139560952Y-110356666D01*
X139637142Y-110318571D01*
X139751428Y-110318571D01*
X139827619Y-110356666D01*
X139865714Y-110432857D01*
X139865714Y-110851904D01*
X140360952Y-110394761D02*
X140284761Y-110356666D01*
X140246666Y-110318571D01*
X140208571Y-110242380D01*
X140208571Y-110204285D01*
X140246666Y-110128095D01*
X140284761Y-110090000D01*
X140360952Y-110051904D01*
X140513333Y-110051904D01*
X140589523Y-110090000D01*
X140627619Y-110128095D01*
X140665714Y-110204285D01*
X140665714Y-110242380D01*
X140627619Y-110318571D01*
X140589523Y-110356666D01*
X140513333Y-110394761D01*
X140360952Y-110394761D01*
X140284761Y-110432857D01*
X140246666Y-110470952D01*
X140208571Y-110547142D01*
X140208571Y-110699523D01*
X140246666Y-110775714D01*
X140284761Y-110813809D01*
X140360952Y-110851904D01*
X140513333Y-110851904D01*
X140589523Y-110813809D01*
X140627619Y-110775714D01*
X140665714Y-110699523D01*
X140665714Y-110547142D01*
X140627619Y-110470952D01*
X140589523Y-110432857D01*
X140513333Y-110394761D01*
X141884761Y-110432857D02*
X141999047Y-110470952D01*
X142037142Y-110509047D01*
X142075238Y-110585238D01*
X142075238Y-110699523D01*
X142037142Y-110775714D01*
X141999047Y-110813809D01*
X141922857Y-110851904D01*
X141618095Y-110851904D01*
X141618095Y-110051904D01*
X141884761Y-110051904D01*
X141960952Y-110090000D01*
X141999047Y-110128095D01*
X142037142Y-110204285D01*
X142037142Y-110280476D01*
X141999047Y-110356666D01*
X141960952Y-110394761D01*
X141884761Y-110432857D01*
X141618095Y-110432857D01*
X142760952Y-110318571D02*
X142760952Y-110851904D01*
X142418095Y-110318571D02*
X142418095Y-110737619D01*
X142456190Y-110813809D01*
X142532380Y-110851904D01*
X142646666Y-110851904D01*
X142722857Y-110813809D01*
X142760952Y-110775714D01*
X143103809Y-110813809D02*
X143180000Y-110851904D01*
X143332380Y-110851904D01*
X143408571Y-110813809D01*
X143446666Y-110737619D01*
X143446666Y-110699523D01*
X143408571Y-110623333D01*
X143332380Y-110585238D01*
X143218095Y-110585238D01*
X143141904Y-110547142D01*
X143103809Y-110470952D01*
X143103809Y-110432857D01*
X143141904Y-110356666D01*
X143218095Y-110318571D01*
X143332380Y-110318571D01*
X143408571Y-110356666D01*
X144856190Y-110775714D02*
X144818095Y-110813809D01*
X144703809Y-110851904D01*
X144627619Y-110851904D01*
X144513333Y-110813809D01*
X144437142Y-110737619D01*
X144399047Y-110661428D01*
X144360952Y-110509047D01*
X144360952Y-110394761D01*
X144399047Y-110242380D01*
X144437142Y-110166190D01*
X144513333Y-110090000D01*
X144627619Y-110051904D01*
X144703809Y-110051904D01*
X144818095Y-110090000D01*
X144856190Y-110128095D01*
X145313333Y-110851904D02*
X145237142Y-110813809D01*
X145199047Y-110775714D01*
X145160952Y-110699523D01*
X145160952Y-110470952D01*
X145199047Y-110394761D01*
X145237142Y-110356666D01*
X145313333Y-110318571D01*
X145427619Y-110318571D01*
X145503809Y-110356666D01*
X145541904Y-110394761D01*
X145580000Y-110470952D01*
X145580000Y-110699523D01*
X145541904Y-110775714D01*
X145503809Y-110813809D01*
X145427619Y-110851904D01*
X145313333Y-110851904D01*
X145922857Y-110318571D02*
X145922857Y-110851904D01*
X145922857Y-110394761D02*
X145960952Y-110356666D01*
X146037142Y-110318571D01*
X146151428Y-110318571D01*
X146227619Y-110356666D01*
X146265714Y-110432857D01*
X146265714Y-110851904D01*
X146646666Y-110318571D02*
X146646666Y-110851904D01*
X146646666Y-110394761D02*
X146684761Y-110356666D01*
X146760952Y-110318571D01*
X146875238Y-110318571D01*
X146951428Y-110356666D01*
X146989523Y-110432857D01*
X146989523Y-110851904D01*
X147675238Y-110813809D02*
X147599047Y-110851904D01*
X147446666Y-110851904D01*
X147370476Y-110813809D01*
X147332380Y-110737619D01*
X147332380Y-110432857D01*
X147370476Y-110356666D01*
X147446666Y-110318571D01*
X147599047Y-110318571D01*
X147675238Y-110356666D01*
X147713333Y-110432857D01*
X147713333Y-110509047D01*
X147332380Y-110585238D01*
X148399047Y-110813809D02*
X148322857Y-110851904D01*
X148170476Y-110851904D01*
X148094285Y-110813809D01*
X148056190Y-110775714D01*
X148018095Y-110699523D01*
X148018095Y-110470952D01*
X148056190Y-110394761D01*
X148094285Y-110356666D01*
X148170476Y-110318571D01*
X148322857Y-110318571D01*
X148399047Y-110356666D01*
X148627619Y-110318571D02*
X148932380Y-110318571D01*
X148741904Y-110051904D02*
X148741904Y-110737619D01*
X148780000Y-110813809D01*
X148856190Y-110851904D01*
X148932380Y-110851904D01*
X149313333Y-110851904D02*
X149237142Y-110813809D01*
X149199047Y-110775714D01*
X149160952Y-110699523D01*
X149160952Y-110470952D01*
X149199047Y-110394761D01*
X149237142Y-110356666D01*
X149313333Y-110318571D01*
X149427619Y-110318571D01*
X149503809Y-110356666D01*
X149541904Y-110394761D01*
X149580000Y-110470952D01*
X149580000Y-110699523D01*
X149541904Y-110775714D01*
X149503809Y-110813809D01*
X149427619Y-110851904D01*
X149313333Y-110851904D01*
X149922857Y-110851904D02*
X149922857Y-110318571D01*
X149922857Y-110470952D02*
X149960952Y-110394761D01*
X149999047Y-110356666D01*
X150075238Y-110318571D01*
X150151428Y-110318571D01*
D12*
%TO.C,X1*%
X138064000Y-102589000D02*
X150214000Y-102589000D01*
X137314000Y-90439000D02*
X137314000Y-101839000D01*
X149464000Y-89689000D02*
X138064000Y-89689000D01*
X150214000Y-102589000D02*
X150214000Y-90439000D01*
X137314000Y-101839000D02*
G75*
G03*
X138064000Y-102589000I750000J0D01*
G01*
X138064000Y-89689000D02*
G75*
G03*
X137314000Y-90439000I0J-750000D01*
G01*
X150214000Y-90439000D02*
G75*
G03*
X149464000Y-89689000I-750000J0D01*
G01*
D11*
%TO.C,U2*%
X162528000Y-96464500D02*
X166528000Y-96464500D01*
X161253000Y-91064500D02*
X166528000Y-91064500D01*
D12*
%TO.C,U1*%
X119396000Y-82892000D02*
X109546000Y-82892000D01*
X109546000Y-82892000D02*
X108546000Y-83892000D01*
X108546000Y-83892000D02*
X108546000Y-106592000D01*
X108546000Y-106592000D02*
X132246000Y-106592000D01*
X132246000Y-106592000D02*
X132246000Y-82892000D01*
X132246000Y-82892000D02*
X121396000Y-82892000D01*
%TO.C,R4*%
X163282000Y-100171500D02*
X163612000Y-100171500D01*
X163612000Y-100171500D02*
X163612000Y-106711500D01*
X163612000Y-106711500D02*
X163282000Y-106711500D01*
X161202000Y-100171500D02*
X160872000Y-100171500D01*
X160872000Y-100171500D02*
X160872000Y-106711500D01*
X160872000Y-106711500D02*
X161202000Y-106711500D01*
%TO.C,R3*%
X167918000Y-100235000D02*
X168248000Y-100235000D01*
X168248000Y-100235000D02*
X168248000Y-106775000D01*
X168248000Y-106775000D02*
X167918000Y-106775000D01*
X165838000Y-100235000D02*
X165508000Y-100235000D01*
X165508000Y-100235000D02*
X165508000Y-106775000D01*
X165508000Y-106775000D02*
X165838000Y-106775000D01*
%TO.C,R2*%
X156250000Y-99091500D02*
X155920000Y-99091500D01*
X155920000Y-99091500D02*
X155920000Y-92551500D01*
X155920000Y-92551500D02*
X156250000Y-92551500D01*
X158330000Y-99091500D02*
X158660000Y-99091500D01*
X158660000Y-99091500D02*
X158660000Y-92551500D01*
X158660000Y-92551500D02*
X158330000Y-92551500D01*
%TO.C,R1*%
X170537000Y-99028000D02*
X170207000Y-99028000D01*
X170207000Y-99028000D02*
X170207000Y-92488000D01*
X170207000Y-92488000D02*
X170537000Y-92488000D01*
X172617000Y-99028000D02*
X172947000Y-99028000D01*
X172947000Y-99028000D02*
X172947000Y-92488000D01*
X172947000Y-92488000D02*
X172617000Y-92488000D01*
%TO.C,D2*%
X159738000Y-86707000D02*
X159738000Y-86551000D01*
X159738000Y-84391000D02*
X159738000Y-84235000D01*
X157136870Y-84391163D02*
G75*
G02*
X159218961Y-84391000I1041130J-1079837D01*
G01*
X157136870Y-86550837D02*
G75*
G03*
X159218961Y-86551000I1041130J1079837D01*
G01*
X156505665Y-84392392D02*
G75*
G02*
X159738000Y-84235484I1672335J-1078608D01*
G01*
X156505665Y-86549608D02*
G75*
G03*
X159738000Y-86706516I1672335J1078608D01*
G01*
%TO.C,D1*%
X169191500Y-84235000D02*
X169191500Y-84391000D01*
X169191500Y-86551000D02*
X169191500Y-86707000D01*
X171792630Y-86550837D02*
G75*
G02*
X169710539Y-86551000I-1041130J1079837D01*
G01*
X171792630Y-84391163D02*
G75*
G03*
X169710539Y-84391000I-1041130J-1079837D01*
G01*
X172423835Y-86549608D02*
G75*
G02*
X169191500Y-86706516I-1672335J1078608D01*
G01*
X172423835Y-84392392D02*
G75*
G03*
X169191500Y-84235484I-1672335J-1078608D01*
G01*
%TO.C,C5*%
X155996000Y-108085000D02*
X155996000Y-104045000D01*
X158836000Y-108085000D02*
X158836000Y-104045000D01*
X155996000Y-108085000D02*
X156621000Y-108085000D01*
X158211000Y-108085000D02*
X158836000Y-108085000D01*
X155996000Y-104045000D02*
X156621000Y-104045000D01*
X158211000Y-104045000D02*
X158836000Y-104045000D01*
%TO.C,C4*%
X170284000Y-108085000D02*
X170284000Y-104045000D01*
X173124000Y-108085000D02*
X173124000Y-104045000D01*
X170284000Y-108085000D02*
X170909000Y-108085000D01*
X172499000Y-108085000D02*
X173124000Y-108085000D01*
X170284000Y-104045000D02*
X170909000Y-104045000D01*
X172499000Y-104045000D02*
X173124000Y-104045000D01*
%TO.C,C3*%
X167105000Y-87285500D02*
X161865000Y-87285500D01*
X167105000Y-84545500D02*
X161865000Y-84545500D01*
X167105000Y-87285500D02*
X167105000Y-84545500D01*
X161865000Y-87285500D02*
X161865000Y-84545500D01*
%TO.C,C2*%
X122846000Y-80554500D02*
X117606000Y-80554500D01*
X122846000Y-77814500D02*
X117606000Y-77814500D01*
X122846000Y-80554500D02*
X122846000Y-77814500D01*
X117606000Y-80554500D02*
X117606000Y-77814500D01*
%TO.C,C1*%
X146340000Y-87730000D02*
X141100000Y-87730000D01*
X146340000Y-84990000D02*
X141100000Y-84990000D01*
X146340000Y-87730000D02*
X146340000Y-84990000D01*
X141100000Y-87730000D02*
X141100000Y-84990000D01*
%TO.C,X1*%
D11*
X142954476Y-88352380D02*
X143621142Y-89352380D01*
X143621142Y-88352380D02*
X142954476Y-89352380D01*
X144525904Y-89352380D02*
X143954476Y-89352380D01*
X144240190Y-89352380D02*
X144240190Y-88352380D01*
X144144952Y-88495238D01*
X144049714Y-88590476D01*
X143954476Y-88638095D01*
%TO.C,U2*%
X163766095Y-89741880D02*
X163766095Y-90551404D01*
X163813714Y-90646642D01*
X163861333Y-90694261D01*
X163956571Y-90741880D01*
X164147047Y-90741880D01*
X164242285Y-90694261D01*
X164289904Y-90646642D01*
X164337523Y-90551404D01*
X164337523Y-89741880D01*
X164766095Y-89837119D02*
X164813714Y-89789500D01*
X164908952Y-89741880D01*
X165147047Y-89741880D01*
X165242285Y-89789500D01*
X165289904Y-89837119D01*
X165337523Y-89932357D01*
X165337523Y-90027595D01*
X165289904Y-90170452D01*
X164718476Y-90741880D01*
X165337523Y-90741880D01*
%TO.C,U1*%
X119634095Y-81049880D02*
X119634095Y-81859404D01*
X119681714Y-81954642D01*
X119729333Y-82002261D01*
X119824571Y-82049880D01*
X120015047Y-82049880D01*
X120110285Y-82002261D01*
X120157904Y-81954642D01*
X120205523Y-81859404D01*
X120205523Y-81049880D01*
X121205523Y-82049880D02*
X120634095Y-82049880D01*
X120919809Y-82049880D02*
X120919809Y-81049880D01*
X120824571Y-81192738D01*
X120729333Y-81287976D01*
X120634095Y-81335595D01*
%TO.C,R4*%
X160344880Y-103608166D02*
X159868690Y-103941500D01*
X160344880Y-104179595D02*
X159344880Y-104179595D01*
X159344880Y-103798642D01*
X159392500Y-103703404D01*
X159440119Y-103655785D01*
X159535357Y-103608166D01*
X159678214Y-103608166D01*
X159773452Y-103655785D01*
X159821071Y-103703404D01*
X159868690Y-103798642D01*
X159868690Y-104179595D01*
X159678214Y-102751023D02*
X160344880Y-102751023D01*
X159297261Y-102989119D02*
X160011547Y-103227214D01*
X160011547Y-102608166D01*
%TO.C,R3*%
X165044380Y-103671666D02*
X164568190Y-104005000D01*
X165044380Y-104243095D02*
X164044380Y-104243095D01*
X164044380Y-103862142D01*
X164092000Y-103766904D01*
X164139619Y-103719285D01*
X164234857Y-103671666D01*
X164377714Y-103671666D01*
X164472952Y-103719285D01*
X164520571Y-103766904D01*
X164568190Y-103862142D01*
X164568190Y-104243095D01*
X164044380Y-103338333D02*
X164044380Y-102719285D01*
X164425333Y-103052619D01*
X164425333Y-102909761D01*
X164472952Y-102814523D01*
X164520571Y-102766904D01*
X164615809Y-102719285D01*
X164853904Y-102719285D01*
X164949142Y-102766904D01*
X164996761Y-102814523D01*
X165044380Y-102909761D01*
X165044380Y-103195476D01*
X164996761Y-103290714D01*
X164949142Y-103338333D01*
%TO.C,R2*%
X155372380Y-95988166D02*
X154896190Y-96321500D01*
X155372380Y-96559595D02*
X154372380Y-96559595D01*
X154372380Y-96178642D01*
X154420000Y-96083404D01*
X154467619Y-96035785D01*
X154562857Y-95988166D01*
X154705714Y-95988166D01*
X154800952Y-96035785D01*
X154848571Y-96083404D01*
X154896190Y-96178642D01*
X154896190Y-96559595D01*
X154467619Y-95607214D02*
X154420000Y-95559595D01*
X154372380Y-95464357D01*
X154372380Y-95226261D01*
X154420000Y-95131023D01*
X154467619Y-95083404D01*
X154562857Y-95035785D01*
X154658095Y-95035785D01*
X154800952Y-95083404D01*
X155372380Y-95654833D01*
X155372380Y-95035785D01*
%TO.C,R1*%
X169659380Y-95924666D02*
X169183190Y-96258000D01*
X169659380Y-96496095D02*
X168659380Y-96496095D01*
X168659380Y-96115142D01*
X168707000Y-96019904D01*
X168754619Y-95972285D01*
X168849857Y-95924666D01*
X168992714Y-95924666D01*
X169087952Y-95972285D01*
X169135571Y-96019904D01*
X169183190Y-96115142D01*
X169183190Y-96496095D01*
X169659380Y-94972285D02*
X169659380Y-95543714D01*
X169659380Y-95258000D02*
X168659380Y-95258000D01*
X168802238Y-95353238D01*
X168897476Y-95448476D01*
X168945095Y-95543714D01*
%TO.C,D2*%
X157439904Y-82938880D02*
X157439904Y-81938880D01*
X157678000Y-81938880D01*
X157820857Y-81986500D01*
X157916095Y-82081738D01*
X157963714Y-82176976D01*
X158011333Y-82367452D01*
X158011333Y-82510309D01*
X157963714Y-82700785D01*
X157916095Y-82796023D01*
X157820857Y-82891261D01*
X157678000Y-82938880D01*
X157439904Y-82938880D01*
X158392285Y-82034119D02*
X158439904Y-81986500D01*
X158535142Y-81938880D01*
X158773238Y-81938880D01*
X158868476Y-81986500D01*
X158916095Y-82034119D01*
X158963714Y-82129357D01*
X158963714Y-82224595D01*
X158916095Y-82367452D01*
X158344666Y-82938880D01*
X158963714Y-82938880D01*
%TO.C,D1*%
X170013404Y-82963380D02*
X170013404Y-81963380D01*
X170251500Y-81963380D01*
X170394357Y-82011000D01*
X170489595Y-82106238D01*
X170537214Y-82201476D01*
X170584833Y-82391952D01*
X170584833Y-82534809D01*
X170537214Y-82725285D01*
X170489595Y-82820523D01*
X170394357Y-82915761D01*
X170251500Y-82963380D01*
X170013404Y-82963380D01*
X171537214Y-82963380D02*
X170965785Y-82963380D01*
X171251500Y-82963380D02*
X171251500Y-81963380D01*
X171156261Y-82106238D01*
X171061023Y-82201476D01*
X170965785Y-82249095D01*
%TO.C,C5*%
X155223142Y-106231666D02*
X155270761Y-106279285D01*
X155318380Y-106422142D01*
X155318380Y-106517380D01*
X155270761Y-106660238D01*
X155175523Y-106755476D01*
X155080285Y-106803095D01*
X154889809Y-106850714D01*
X154746952Y-106850714D01*
X154556476Y-106803095D01*
X154461238Y-106755476D01*
X154366000Y-106660238D01*
X154318380Y-106517380D01*
X154318380Y-106422142D01*
X154366000Y-106279285D01*
X154413619Y-106231666D01*
X154318380Y-105326904D02*
X154318380Y-105803095D01*
X154794571Y-105850714D01*
X154746952Y-105803095D01*
X154699333Y-105707857D01*
X154699333Y-105469761D01*
X154746952Y-105374523D01*
X154794571Y-105326904D01*
X154889809Y-105279285D01*
X155127904Y-105279285D01*
X155223142Y-105326904D01*
X155270761Y-105374523D01*
X155318380Y-105469761D01*
X155318380Y-105707857D01*
X155270761Y-105803095D01*
X155223142Y-105850714D01*
%TO.C,C4*%
X169511142Y-106231666D02*
X169558761Y-106279285D01*
X169606380Y-106422142D01*
X169606380Y-106517380D01*
X169558761Y-106660238D01*
X169463523Y-106755476D01*
X169368285Y-106803095D01*
X169177809Y-106850714D01*
X169034952Y-106850714D01*
X168844476Y-106803095D01*
X168749238Y-106755476D01*
X168654000Y-106660238D01*
X168606380Y-106517380D01*
X168606380Y-106422142D01*
X168654000Y-106279285D01*
X168701619Y-106231666D01*
X168939714Y-105374523D02*
X169606380Y-105374523D01*
X168558761Y-105612619D02*
X169273047Y-105850714D01*
X169273047Y-105231666D01*
%TO.C,C3*%
X164318333Y-83986642D02*
X164270714Y-84034261D01*
X164127857Y-84081880D01*
X164032619Y-84081880D01*
X163889761Y-84034261D01*
X163794523Y-83939023D01*
X163746904Y-83843785D01*
X163699285Y-83653309D01*
X163699285Y-83510452D01*
X163746904Y-83319976D01*
X163794523Y-83224738D01*
X163889761Y-83129500D01*
X164032619Y-83081880D01*
X164127857Y-83081880D01*
X164270714Y-83129500D01*
X164318333Y-83177119D01*
X164651666Y-83081880D02*
X165270714Y-83081880D01*
X164937380Y-83462833D01*
X165080238Y-83462833D01*
X165175476Y-83510452D01*
X165223095Y-83558071D01*
X165270714Y-83653309D01*
X165270714Y-83891404D01*
X165223095Y-83986642D01*
X165175476Y-84034261D01*
X165080238Y-84081880D01*
X164794523Y-84081880D01*
X164699285Y-84034261D01*
X164651666Y-83986642D01*
%TO.C,C2*%
X120059333Y-77192142D02*
X120011714Y-77239761D01*
X119868857Y-77287380D01*
X119773619Y-77287380D01*
X119630761Y-77239761D01*
X119535523Y-77144523D01*
X119487904Y-77049285D01*
X119440285Y-76858809D01*
X119440285Y-76715952D01*
X119487904Y-76525476D01*
X119535523Y-76430238D01*
X119630761Y-76335000D01*
X119773619Y-76287380D01*
X119868857Y-76287380D01*
X120011714Y-76335000D01*
X120059333Y-76382619D01*
X120440285Y-76382619D02*
X120487904Y-76335000D01*
X120583142Y-76287380D01*
X120821238Y-76287380D01*
X120916476Y-76335000D01*
X120964095Y-76382619D01*
X121011714Y-76477857D01*
X121011714Y-76573095D01*
X120964095Y-76715952D01*
X120392666Y-77287380D01*
X121011714Y-77287380D01*
%TO.C,C1*%
X143533333Y-84240642D02*
X143485714Y-84288261D01*
X143342857Y-84335880D01*
X143247619Y-84335880D01*
X143104761Y-84288261D01*
X143009523Y-84193023D01*
X142961904Y-84097785D01*
X142914285Y-83907309D01*
X142914285Y-83764452D01*
X142961904Y-83573976D01*
X143009523Y-83478738D01*
X143104761Y-83383500D01*
X143247619Y-83335880D01*
X143342857Y-83335880D01*
X143485714Y-83383500D01*
X143533333Y-83431119D01*
X144485714Y-84335880D02*
X143914285Y-84335880D01*
X144200000Y-84335880D02*
X144200000Y-83335880D01*
X144104761Y-83478738D01*
X144009523Y-83573976D01*
X143914285Y-83621595D01*
%TD*%
M02*
