%FSLAX45Y45*%
G04 Gerber Fmt 4.5, Leading zero omitted, Abs format (unit mm)*
G04 Created by KiCad (PCBNEW (5.1.12-1-10_14)) date 2022-01-05 16:58:01*
%MOMM*%
%LPD*%
G01*
G04 APERTURE LIST*
%TA.AperFunction,Profile*%
%ADD10C,0.050000*%
%TD*%
%TA.AperFunction,Profile*%
%ADD11C,0.100000*%
%TD*%
%ADD12C,0.200000*%
%ADD13C,0.300000*%
G04 APERTURE END LIST*
D10*
X17678400Y-8013700D02*
X17145000Y-7480300D01*
X17678400Y-11595100D02*
G75*
G02*
X17475200Y-11798300I-203200J0D01*
G01*
X10261600Y-11798300D02*
G75*
G02*
X10058400Y-11595100I0J203200D01*
G01*
D11*
X10058400Y-11595100D02*
X10058400Y-7683500D01*
D10*
X10058400Y-7683500D02*
G75*
G02*
X10261600Y-7480300I203200J0D01*
G01*
D11*
X17475200Y-11798300D02*
X10261600Y-11798300D01*
X17678400Y-8013700D02*
X17678400Y-11595100D01*
X10261600Y-7480300D02*
X17145000Y-7480300D01*
D12*
X10533700Y-7815900D02*
X10573700Y-7855900D01*
X10573700Y-7815900D02*
X10533700Y-7855900D01*
X12667300Y-9555800D02*
X12707300Y-9595800D01*
X12707300Y-9555800D02*
X12667300Y-9595800D01*
X13683300Y-7828600D02*
X13723300Y-7868600D01*
X13723300Y-7828600D02*
X13683300Y-7868600D01*
X16604300Y-7815900D02*
X16644300Y-7855900D01*
X16644300Y-7815900D02*
X16604300Y-7855900D01*
X16604300Y-10838500D02*
X16644300Y-10878500D01*
X16644300Y-10838500D02*
X16604300Y-10878500D01*
X10593700Y-10037000D02*
G75*
G03*
X10593700Y-10037000I-40000J0D01*
G01*
X10593700Y-10287000D02*
G75*
G03*
X10593700Y-10287000I-40000J0D01*
G01*
X11050900Y-8801100D02*
G75*
G03*
X11050900Y-8801100I-40000J0D01*
G01*
X11050900Y-10325100D02*
G75*
G03*
X11050900Y-10325100I-40000J0D01*
G01*
X11304900Y-8801100D02*
G75*
G03*
X11304900Y-8801100I-40000J0D01*
G01*
X11304900Y-10325100D02*
G75*
G03*
X11304900Y-10325100I-40000J0D01*
G01*
X11558900Y-8801100D02*
G75*
G03*
X11558900Y-8801100I-40000J0D01*
G01*
X11558900Y-10325100D02*
G75*
G03*
X11558900Y-10325100I-40000J0D01*
G01*
X11812900Y-8801100D02*
G75*
G03*
X11812900Y-8801100I-40000J0D01*
G01*
X11812900Y-10325100D02*
G75*
G03*
X11812900Y-10325100I-40000J0D01*
G01*
X12066900Y-8801100D02*
G75*
G03*
X12066900Y-8801100I-40000J0D01*
G01*
X12066900Y-10325100D02*
G75*
G03*
X12066900Y-10325100I-40000J0D01*
G01*
X12320900Y-8801100D02*
G75*
G03*
X12320900Y-8801100I-40000J0D01*
G01*
X12320900Y-10325100D02*
G75*
G03*
X12320900Y-10325100I-40000J0D01*
G01*
X12574900Y-8801100D02*
G75*
G03*
X12574900Y-8801100I-40000J0D01*
G01*
X12574900Y-10325100D02*
G75*
G03*
X12574900Y-10325100I-40000J0D01*
G01*
X12828900Y-8801100D02*
G75*
G03*
X12828900Y-8801100I-40000J0D01*
G01*
X12828900Y-10325100D02*
G75*
G03*
X12828900Y-10325100I-40000J0D01*
G01*
X13082900Y-8801100D02*
G75*
G03*
X13082900Y-8801100I-40000J0D01*
G01*
X13082900Y-10325100D02*
G75*
G03*
X13082900Y-10325100I-40000J0D01*
G01*
X13336900Y-8801100D02*
G75*
G03*
X13336900Y-8801100I-40000J0D01*
G01*
X13336900Y-10325100D02*
G75*
G03*
X13336900Y-10325100I-40000J0D01*
G01*
X13590900Y-8801100D02*
G75*
G03*
X13590900Y-8801100I-40000J0D01*
G01*
X13590900Y-10325100D02*
G75*
G03*
X13590900Y-10325100I-40000J0D01*
G01*
X13844900Y-8801100D02*
G75*
G03*
X13844900Y-8801100I-40000J0D01*
G01*
X13844900Y-10325100D02*
G75*
G03*
X13844900Y-10325100I-40000J0D01*
G01*
X14098900Y-8801100D02*
G75*
G03*
X14098900Y-8801100I-40000J0D01*
G01*
X14098900Y-10325100D02*
G75*
G03*
X14098900Y-10325100I-40000J0D01*
G01*
X14352900Y-8801100D02*
G75*
G03*
X14352900Y-8801100I-40000J0D01*
G01*
X14352900Y-10325100D02*
G75*
G03*
X14352900Y-10325100I-40000J0D01*
G01*
X15153000Y-8801100D02*
G75*
G03*
X15153000Y-8801100I-40000J0D01*
G01*
X15153000Y-10325100D02*
G75*
G03*
X15153000Y-10325100I-40000J0D01*
G01*
X15915000Y-8801100D02*
G75*
G03*
X15915000Y-8801100I-40000J0D01*
G01*
X15915000Y-10325100D02*
G75*
G03*
X15915000Y-10325100I-40000J0D01*
G01*
X10901680Y-11209820D02*
X10901680Y-11309820D01*
X10851680Y-11259820D02*
X10951680Y-11259820D01*
X10901680Y-11463820D02*
X10901680Y-11563820D01*
X10851680Y-11513820D02*
X10951680Y-11513820D01*
X11155680Y-11209820D02*
X11155680Y-11309820D01*
X11105680Y-11259820D02*
X11205680Y-11259820D01*
X11155680Y-11463820D02*
X11155680Y-11563820D01*
X11105680Y-11513820D02*
X11205680Y-11513820D01*
X11409680Y-11209820D02*
X11409680Y-11309820D01*
X11359680Y-11259820D02*
X11459680Y-11259820D01*
X11409680Y-11463820D02*
X11409680Y-11563820D01*
X11359680Y-11513820D02*
X11459680Y-11513820D01*
X11663680Y-11209820D02*
X11663680Y-11309820D01*
X11613680Y-11259820D02*
X11713680Y-11259820D01*
X11663680Y-11463820D02*
X11663680Y-11563820D01*
X11613680Y-11513820D02*
X11713680Y-11513820D01*
X11917680Y-11209820D02*
X11917680Y-11309820D01*
X11867680Y-11259820D02*
X11967680Y-11259820D01*
X11917680Y-11463820D02*
X11917680Y-11563820D01*
X11867680Y-11513820D02*
X11967680Y-11513820D01*
X12171680Y-11209820D02*
X12171680Y-11309820D01*
X12121680Y-11259820D02*
X12221680Y-11259820D01*
X12171680Y-11463820D02*
X12171680Y-11563820D01*
X12121680Y-11513820D02*
X12221680Y-11513820D01*
X12425680Y-11209820D02*
X12425680Y-11309820D01*
X12375680Y-11259820D02*
X12475680Y-11259820D01*
X12425680Y-11463820D02*
X12425680Y-11563820D01*
X12375680Y-11513820D02*
X12475680Y-11513820D01*
X12679680Y-11209820D02*
X12679680Y-11309820D01*
X12629680Y-11259820D02*
X12729680Y-11259820D01*
X12679680Y-11463820D02*
X12679680Y-11563820D01*
X12629680Y-11513820D02*
X12729680Y-11513820D01*
X12933680Y-11209820D02*
X12933680Y-11309820D01*
X12883680Y-11259820D02*
X12983680Y-11259820D01*
X12933680Y-11463820D02*
X12933680Y-11563820D01*
X12883680Y-11513820D02*
X12983680Y-11513820D01*
X13187680Y-11209820D02*
X13187680Y-11309820D01*
X13137680Y-11259820D02*
X13237680Y-11259820D01*
X13187680Y-11463820D02*
X13187680Y-11563820D01*
X13137680Y-11513820D02*
X13237680Y-11513820D01*
X13441680Y-11209820D02*
X13441680Y-11309820D01*
X13391680Y-11259820D02*
X13491680Y-11259820D01*
X13441680Y-11463820D02*
X13441680Y-11563820D01*
X13391680Y-11513820D02*
X13491680Y-11513820D01*
X13695680Y-11209820D02*
X13695680Y-11309820D01*
X13645680Y-11259820D02*
X13745680Y-11259820D01*
X13695680Y-11463820D02*
X13695680Y-11563820D01*
X13645680Y-11513820D02*
X13745680Y-11513820D01*
X13949680Y-11209820D02*
X13949680Y-11309820D01*
X13899680Y-11259820D02*
X13999680Y-11259820D01*
X13949680Y-11463820D02*
X13949680Y-11563820D01*
X13899680Y-11513820D02*
X13999680Y-11513820D01*
X14203680Y-11209820D02*
X14203680Y-11309820D01*
X14153680Y-11259820D02*
X14253680Y-11259820D01*
X14203680Y-11463820D02*
X14203680Y-11563820D01*
X14153680Y-11513820D02*
X14253680Y-11513820D01*
X14457680Y-11209820D02*
X14457680Y-11309820D01*
X14407680Y-11259820D02*
X14507680Y-11259820D01*
X14457680Y-11463820D02*
X14457680Y-11563820D01*
X14407680Y-11513820D02*
X14507680Y-11513820D01*
X14711680Y-11209820D02*
X14711680Y-11309820D01*
X14661680Y-11259820D02*
X14761680Y-11259820D01*
X14711680Y-11463820D02*
X14711680Y-11563820D01*
X14661680Y-11513820D02*
X14761680Y-11513820D01*
X16624300Y-8128800D02*
X16624300Y-8228800D01*
X16574300Y-8178800D02*
X16674300Y-8178800D01*
X16624300Y-8382800D02*
X16624300Y-8482800D01*
X16574300Y-8432800D02*
X16674300Y-8432800D01*
X16624300Y-8903500D02*
X16624300Y-9003500D01*
X16574300Y-8953500D02*
X16674300Y-8953500D01*
X16624300Y-9157500D02*
X16624300Y-9257500D01*
X16574300Y-9207500D02*
X16674300Y-9207500D01*
X16624300Y-9411500D02*
X16624300Y-9511500D01*
X16574300Y-9461500D02*
X16674300Y-9461500D01*
X16624300Y-9665500D02*
X16624300Y-9765500D01*
X16574300Y-9715500D02*
X16674300Y-9715500D01*
X16624300Y-9919500D02*
X16624300Y-10019500D01*
X16574300Y-9969500D02*
X16674300Y-9969500D01*
X16624300Y-10173500D02*
X16624300Y-10273500D01*
X16574300Y-10223500D02*
X16674300Y-10223500D01*
D13*
X10339828Y-12269014D02*
X10339828Y-11969014D01*
X10411257Y-11969014D01*
X10454114Y-11983300D01*
X10482686Y-12011871D01*
X10496971Y-12040443D01*
X10511257Y-12097586D01*
X10511257Y-12140443D01*
X10496971Y-12197586D01*
X10482686Y-12226157D01*
X10454114Y-12254729D01*
X10411257Y-12269014D01*
X10339828Y-12269014D01*
X10639828Y-12269014D02*
X10639828Y-12069014D01*
X10639828Y-12126157D02*
X10654114Y-12097586D01*
X10668400Y-12083300D01*
X10696971Y-12069014D01*
X10725543Y-12069014D01*
X10825543Y-12269014D02*
X10825543Y-12069014D01*
X10825543Y-11969014D02*
X10811257Y-11983300D01*
X10825543Y-11997586D01*
X10839828Y-11983300D01*
X10825543Y-11969014D01*
X10825543Y-11997586D01*
X11011257Y-12269014D02*
X10982686Y-12254729D01*
X10968400Y-12226157D01*
X10968400Y-11969014D01*
X11168400Y-12269014D02*
X11139828Y-12254729D01*
X11125543Y-12226157D01*
X11125543Y-11969014D01*
X11511257Y-12269014D02*
X11511257Y-11969014D01*
X11611257Y-12183300D01*
X11711257Y-11969014D01*
X11711257Y-12269014D01*
X11982686Y-12269014D02*
X11982686Y-12111871D01*
X11968400Y-12083300D01*
X11939828Y-12069014D01*
X11882686Y-12069014D01*
X11854114Y-12083300D01*
X11982686Y-12254729D02*
X11954114Y-12269014D01*
X11882686Y-12269014D01*
X11854114Y-12254729D01*
X11839828Y-12226157D01*
X11839828Y-12197586D01*
X11854114Y-12169014D01*
X11882686Y-12154729D01*
X11954114Y-12154729D01*
X11982686Y-12140443D01*
X12125543Y-12069014D02*
X12125543Y-12369014D01*
X12125543Y-12083300D02*
X12154114Y-12069014D01*
X12211257Y-12069014D01*
X12239828Y-12083300D01*
X12254114Y-12097586D01*
X12268400Y-12126157D01*
X12268400Y-12211871D01*
X12254114Y-12240443D01*
X12239828Y-12254729D01*
X12211257Y-12269014D01*
X12154114Y-12269014D01*
X12125543Y-12254729D01*
X12396971Y-12240443D02*
X12411257Y-12254729D01*
X12396971Y-12269014D01*
X12382686Y-12254729D01*
X12396971Y-12240443D01*
X12396971Y-12269014D01*
X12396971Y-12083300D02*
X12411257Y-12097586D01*
X12396971Y-12111871D01*
X12382686Y-12097586D01*
X12396971Y-12083300D01*
X12396971Y-12111871D01*
X10013400Y-12743300D02*
X10053400Y-12783300D01*
X10053400Y-12743300D02*
X10013400Y-12783300D01*
X10396971Y-12599014D02*
X10425543Y-12599014D01*
X10454114Y-12613300D01*
X10468400Y-12627586D01*
X10482686Y-12656157D01*
X10496971Y-12713300D01*
X10496971Y-12784729D01*
X10482686Y-12841871D01*
X10468400Y-12870443D01*
X10454114Y-12884729D01*
X10425543Y-12899014D01*
X10396971Y-12899014D01*
X10368400Y-12884729D01*
X10354114Y-12870443D01*
X10339828Y-12841871D01*
X10325543Y-12784729D01*
X10325543Y-12713300D01*
X10339828Y-12656157D01*
X10354114Y-12627586D01*
X10368400Y-12613300D01*
X10396971Y-12599014D01*
X10625543Y-12870443D02*
X10639828Y-12884729D01*
X10625543Y-12899014D01*
X10611257Y-12884729D01*
X10625543Y-12870443D01*
X10625543Y-12899014D01*
X10896971Y-12699014D02*
X10896971Y-12899014D01*
X10825543Y-12584729D02*
X10754114Y-12799014D01*
X10939828Y-12799014D01*
X11111257Y-12599014D02*
X11139828Y-12599014D01*
X11168400Y-12613300D01*
X11182686Y-12627586D01*
X11196971Y-12656157D01*
X11211257Y-12713300D01*
X11211257Y-12784729D01*
X11196971Y-12841871D01*
X11182686Y-12870443D01*
X11168400Y-12884729D01*
X11139828Y-12899014D01*
X11111257Y-12899014D01*
X11082686Y-12884729D01*
X11068400Y-12870443D01*
X11054114Y-12841871D01*
X11039828Y-12784729D01*
X11039828Y-12713300D01*
X11054114Y-12656157D01*
X11068400Y-12627586D01*
X11082686Y-12613300D01*
X11111257Y-12599014D01*
X11396971Y-12599014D02*
X11425543Y-12599014D01*
X11454114Y-12613300D01*
X11468400Y-12627586D01*
X11482686Y-12656157D01*
X11496971Y-12713300D01*
X11496971Y-12784729D01*
X11482686Y-12841871D01*
X11468400Y-12870443D01*
X11454114Y-12884729D01*
X11425543Y-12899014D01*
X11396971Y-12899014D01*
X11368400Y-12884729D01*
X11354114Y-12870443D01*
X11339828Y-12841871D01*
X11325543Y-12784729D01*
X11325543Y-12713300D01*
X11339828Y-12656157D01*
X11354114Y-12627586D01*
X11368400Y-12613300D01*
X11396971Y-12599014D01*
X11625543Y-12899014D02*
X11625543Y-12699014D01*
X11625543Y-12727586D02*
X11639828Y-12713300D01*
X11668400Y-12699014D01*
X11711257Y-12699014D01*
X11739828Y-12713300D01*
X11754114Y-12741871D01*
X11754114Y-12899014D01*
X11754114Y-12741871D02*
X11768400Y-12713300D01*
X11796971Y-12699014D01*
X11839828Y-12699014D01*
X11868400Y-12713300D01*
X11882686Y-12741871D01*
X11882686Y-12899014D01*
X12025543Y-12899014D02*
X12025543Y-12699014D01*
X12025543Y-12727586D02*
X12039828Y-12713300D01*
X12068400Y-12699014D01*
X12111257Y-12699014D01*
X12139828Y-12713300D01*
X12154114Y-12741871D01*
X12154114Y-12899014D01*
X12154114Y-12741871D02*
X12168400Y-12713300D01*
X12196971Y-12699014D01*
X12239828Y-12699014D01*
X12268400Y-12713300D01*
X12282686Y-12741871D01*
X12282686Y-12899014D01*
X12868400Y-12584729D02*
X12611257Y-12970443D01*
X13254114Y-12599014D02*
X13282686Y-12599014D01*
X13311257Y-12613300D01*
X13325543Y-12627586D01*
X13339828Y-12656157D01*
X13354114Y-12713300D01*
X13354114Y-12784729D01*
X13339828Y-12841871D01*
X13325543Y-12870443D01*
X13311257Y-12884729D01*
X13282686Y-12899014D01*
X13254114Y-12899014D01*
X13225543Y-12884729D01*
X13211257Y-12870443D01*
X13196971Y-12841871D01*
X13182686Y-12784729D01*
X13182686Y-12713300D01*
X13196971Y-12656157D01*
X13211257Y-12627586D01*
X13225543Y-12613300D01*
X13254114Y-12599014D01*
X13482686Y-12870443D02*
X13496971Y-12884729D01*
X13482686Y-12899014D01*
X13468400Y-12884729D01*
X13482686Y-12870443D01*
X13482686Y-12899014D01*
X13682686Y-12599014D02*
X13711257Y-12599014D01*
X13739828Y-12613300D01*
X13754114Y-12627586D01*
X13768400Y-12656157D01*
X13782686Y-12713300D01*
X13782686Y-12784729D01*
X13768400Y-12841871D01*
X13754114Y-12870443D01*
X13739828Y-12884729D01*
X13711257Y-12899014D01*
X13682686Y-12899014D01*
X13654114Y-12884729D01*
X13639828Y-12870443D01*
X13625543Y-12841871D01*
X13611257Y-12784729D01*
X13611257Y-12713300D01*
X13625543Y-12656157D01*
X13639828Y-12627586D01*
X13654114Y-12613300D01*
X13682686Y-12599014D01*
X14068400Y-12899014D02*
X13896971Y-12899014D01*
X13982686Y-12899014D02*
X13982686Y-12599014D01*
X13954114Y-12641871D01*
X13925543Y-12670443D01*
X13896971Y-12684729D01*
X14339828Y-12599014D02*
X14196971Y-12599014D01*
X14182686Y-12741871D01*
X14196971Y-12727586D01*
X14225543Y-12713300D01*
X14296971Y-12713300D01*
X14325543Y-12727586D01*
X14339828Y-12741871D01*
X14354114Y-12770443D01*
X14354114Y-12841871D01*
X14339828Y-12870443D01*
X14325543Y-12884729D01*
X14296971Y-12899014D01*
X14225543Y-12899014D01*
X14196971Y-12884729D01*
X14182686Y-12870443D01*
X14454114Y-12599014D02*
X14654114Y-12599014D01*
X14525543Y-12899014D01*
X14754114Y-12599014D02*
X14754114Y-12656157D01*
X14868400Y-12599014D02*
X14868400Y-12656157D01*
X15311257Y-13013300D02*
X15296971Y-12999014D01*
X15268400Y-12956157D01*
X15254114Y-12927586D01*
X15239828Y-12884729D01*
X15225543Y-12813300D01*
X15225543Y-12756157D01*
X15239828Y-12684729D01*
X15254114Y-12641871D01*
X15268400Y-12613300D01*
X15296971Y-12570443D01*
X15311257Y-12556157D01*
X15568400Y-12599014D02*
X15425543Y-12599014D01*
X15411257Y-12741871D01*
X15425543Y-12727586D01*
X15454114Y-12713300D01*
X15525543Y-12713300D01*
X15554114Y-12727586D01*
X15568400Y-12741871D01*
X15582686Y-12770443D01*
X15582686Y-12841871D01*
X15568400Y-12870443D01*
X15554114Y-12884729D01*
X15525543Y-12899014D01*
X15454114Y-12899014D01*
X15425543Y-12884729D01*
X15411257Y-12870443D01*
X15939828Y-12899014D02*
X15939828Y-12599014D01*
X16068400Y-12899014D02*
X16068400Y-12741871D01*
X16054114Y-12713300D01*
X16025543Y-12699014D01*
X15982686Y-12699014D01*
X15954114Y-12713300D01*
X15939828Y-12727586D01*
X16254114Y-12899014D02*
X16225543Y-12884729D01*
X16211257Y-12870443D01*
X16196971Y-12841871D01*
X16196971Y-12756157D01*
X16211257Y-12727586D01*
X16225543Y-12713300D01*
X16254114Y-12699014D01*
X16296971Y-12699014D01*
X16325543Y-12713300D01*
X16339828Y-12727586D01*
X16354114Y-12756157D01*
X16354114Y-12841871D01*
X16339828Y-12870443D01*
X16325543Y-12884729D01*
X16296971Y-12899014D01*
X16254114Y-12899014D01*
X16525543Y-12899014D02*
X16496971Y-12884729D01*
X16482686Y-12856157D01*
X16482686Y-12599014D01*
X16754114Y-12884729D02*
X16725543Y-12899014D01*
X16668400Y-12899014D01*
X16639828Y-12884729D01*
X16625543Y-12856157D01*
X16625543Y-12741871D01*
X16639828Y-12713300D01*
X16668400Y-12699014D01*
X16725543Y-12699014D01*
X16754114Y-12713300D01*
X16768400Y-12741871D01*
X16768400Y-12770443D01*
X16625543Y-12799014D01*
X16882686Y-12884729D02*
X16911257Y-12899014D01*
X16968400Y-12899014D01*
X16996971Y-12884729D01*
X17011257Y-12856157D01*
X17011257Y-12841871D01*
X16996971Y-12813300D01*
X16968400Y-12799014D01*
X16925543Y-12799014D01*
X16896971Y-12784729D01*
X16882686Y-12756157D01*
X16882686Y-12741871D01*
X16896971Y-12713300D01*
X16925543Y-12699014D01*
X16968400Y-12699014D01*
X16996971Y-12713300D01*
X17111257Y-13013300D02*
X17125543Y-12999014D01*
X17154114Y-12956157D01*
X17168400Y-12927586D01*
X17182686Y-12884729D01*
X17196971Y-12813300D01*
X17196971Y-12756157D01*
X17182686Y-12684729D01*
X17168400Y-12641871D01*
X17154114Y-12613300D01*
X17125543Y-12570443D01*
X17111257Y-12556157D01*
X10053400Y-13159300D02*
G75*
G03*
X10053400Y-13159300I-40000J0D01*
G01*
X10396971Y-12995014D02*
X10425543Y-12995014D01*
X10454114Y-13009300D01*
X10468400Y-13023586D01*
X10482686Y-13052157D01*
X10496971Y-13109300D01*
X10496971Y-13180729D01*
X10482686Y-13237871D01*
X10468400Y-13266443D01*
X10454114Y-13280729D01*
X10425543Y-13295014D01*
X10396971Y-13295014D01*
X10368400Y-13280729D01*
X10354114Y-13266443D01*
X10339828Y-13237871D01*
X10325543Y-13180729D01*
X10325543Y-13109300D01*
X10339828Y-13052157D01*
X10354114Y-13023586D01*
X10368400Y-13009300D01*
X10396971Y-12995014D01*
X10625543Y-13266443D02*
X10639828Y-13280729D01*
X10625543Y-13295014D01*
X10611257Y-13280729D01*
X10625543Y-13266443D01*
X10625543Y-13295014D01*
X10811257Y-13123586D02*
X10782686Y-13109300D01*
X10768400Y-13095014D01*
X10754114Y-13066443D01*
X10754114Y-13052157D01*
X10768400Y-13023586D01*
X10782686Y-13009300D01*
X10811257Y-12995014D01*
X10868400Y-12995014D01*
X10896971Y-13009300D01*
X10911257Y-13023586D01*
X10925543Y-13052157D01*
X10925543Y-13066443D01*
X10911257Y-13095014D01*
X10896971Y-13109300D01*
X10868400Y-13123586D01*
X10811257Y-13123586D01*
X10782686Y-13137871D01*
X10768400Y-13152157D01*
X10754114Y-13180729D01*
X10754114Y-13237871D01*
X10768400Y-13266443D01*
X10782686Y-13280729D01*
X10811257Y-13295014D01*
X10868400Y-13295014D01*
X10896971Y-13280729D01*
X10911257Y-13266443D01*
X10925543Y-13237871D01*
X10925543Y-13180729D01*
X10911257Y-13152157D01*
X10896971Y-13137871D01*
X10868400Y-13123586D01*
X11111257Y-12995014D02*
X11139828Y-12995014D01*
X11168400Y-13009300D01*
X11182686Y-13023586D01*
X11196971Y-13052157D01*
X11211257Y-13109300D01*
X11211257Y-13180729D01*
X11196971Y-13237871D01*
X11182686Y-13266443D01*
X11168400Y-13280729D01*
X11139828Y-13295014D01*
X11111257Y-13295014D01*
X11082686Y-13280729D01*
X11068400Y-13266443D01*
X11054114Y-13237871D01*
X11039828Y-13180729D01*
X11039828Y-13109300D01*
X11054114Y-13052157D01*
X11068400Y-13023586D01*
X11082686Y-13009300D01*
X11111257Y-12995014D01*
X11396971Y-12995014D02*
X11425543Y-12995014D01*
X11454114Y-13009300D01*
X11468400Y-13023586D01*
X11482686Y-13052157D01*
X11496971Y-13109300D01*
X11496971Y-13180729D01*
X11482686Y-13237871D01*
X11468400Y-13266443D01*
X11454114Y-13280729D01*
X11425543Y-13295014D01*
X11396971Y-13295014D01*
X11368400Y-13280729D01*
X11354114Y-13266443D01*
X11339828Y-13237871D01*
X11325543Y-13180729D01*
X11325543Y-13109300D01*
X11339828Y-13052157D01*
X11354114Y-13023586D01*
X11368400Y-13009300D01*
X11396971Y-12995014D01*
X11625543Y-13295014D02*
X11625543Y-13095014D01*
X11625543Y-13123586D02*
X11639828Y-13109300D01*
X11668400Y-13095014D01*
X11711257Y-13095014D01*
X11739828Y-13109300D01*
X11754114Y-13137871D01*
X11754114Y-13295014D01*
X11754114Y-13137871D02*
X11768400Y-13109300D01*
X11796971Y-13095014D01*
X11839828Y-13095014D01*
X11868400Y-13109300D01*
X11882686Y-13137871D01*
X11882686Y-13295014D01*
X12025543Y-13295014D02*
X12025543Y-13095014D01*
X12025543Y-13123586D02*
X12039828Y-13109300D01*
X12068400Y-13095014D01*
X12111257Y-13095014D01*
X12139828Y-13109300D01*
X12154114Y-13137871D01*
X12154114Y-13295014D01*
X12154114Y-13137871D02*
X12168400Y-13109300D01*
X12196971Y-13095014D01*
X12239828Y-13095014D01*
X12268400Y-13109300D01*
X12282686Y-13137871D01*
X12282686Y-13295014D01*
X12868400Y-12980729D02*
X12611257Y-13366443D01*
X13254114Y-12995014D02*
X13282686Y-12995014D01*
X13311257Y-13009300D01*
X13325543Y-13023586D01*
X13339828Y-13052157D01*
X13354114Y-13109300D01*
X13354114Y-13180729D01*
X13339828Y-13237871D01*
X13325543Y-13266443D01*
X13311257Y-13280729D01*
X13282686Y-13295014D01*
X13254114Y-13295014D01*
X13225543Y-13280729D01*
X13211257Y-13266443D01*
X13196971Y-13237871D01*
X13182686Y-13180729D01*
X13182686Y-13109300D01*
X13196971Y-13052157D01*
X13211257Y-13023586D01*
X13225543Y-13009300D01*
X13254114Y-12995014D01*
X13482686Y-13266443D02*
X13496971Y-13280729D01*
X13482686Y-13295014D01*
X13468400Y-13280729D01*
X13482686Y-13266443D01*
X13482686Y-13295014D01*
X13682686Y-12995014D02*
X13711257Y-12995014D01*
X13739828Y-13009300D01*
X13754114Y-13023586D01*
X13768400Y-13052157D01*
X13782686Y-13109300D01*
X13782686Y-13180729D01*
X13768400Y-13237871D01*
X13754114Y-13266443D01*
X13739828Y-13280729D01*
X13711257Y-13295014D01*
X13682686Y-13295014D01*
X13654114Y-13280729D01*
X13639828Y-13266443D01*
X13625543Y-13237871D01*
X13611257Y-13180729D01*
X13611257Y-13109300D01*
X13625543Y-13052157D01*
X13639828Y-13023586D01*
X13654114Y-13009300D01*
X13682686Y-12995014D01*
X13882686Y-12995014D02*
X14068400Y-12995014D01*
X13968400Y-13109300D01*
X14011257Y-13109300D01*
X14039828Y-13123586D01*
X14054114Y-13137871D01*
X14068400Y-13166443D01*
X14068400Y-13237871D01*
X14054114Y-13266443D01*
X14039828Y-13280729D01*
X14011257Y-13295014D01*
X13925543Y-13295014D01*
X13896971Y-13280729D01*
X13882686Y-13266443D01*
X14354114Y-13295014D02*
X14182686Y-13295014D01*
X14268400Y-13295014D02*
X14268400Y-12995014D01*
X14239828Y-13037871D01*
X14211257Y-13066443D01*
X14182686Y-13080729D01*
X14625543Y-12995014D02*
X14482686Y-12995014D01*
X14468400Y-13137871D01*
X14482686Y-13123586D01*
X14511257Y-13109300D01*
X14582686Y-13109300D01*
X14611257Y-13123586D01*
X14625543Y-13137871D01*
X14639828Y-13166443D01*
X14639828Y-13237871D01*
X14625543Y-13266443D01*
X14611257Y-13280729D01*
X14582686Y-13295014D01*
X14511257Y-13295014D01*
X14482686Y-13280729D01*
X14468400Y-13266443D01*
X14754114Y-12995014D02*
X14754114Y-13052157D01*
X14868400Y-12995014D02*
X14868400Y-13052157D01*
X15311257Y-13409300D02*
X15296971Y-13395014D01*
X15268400Y-13352157D01*
X15254114Y-13323586D01*
X15239828Y-13280729D01*
X15225543Y-13209300D01*
X15225543Y-13152157D01*
X15239828Y-13080729D01*
X15254114Y-13037871D01*
X15268400Y-13009300D01*
X15296971Y-12966443D01*
X15311257Y-12952157D01*
X15396971Y-12995014D02*
X15582686Y-12995014D01*
X15482686Y-13109300D01*
X15525543Y-13109300D01*
X15554114Y-13123586D01*
X15568400Y-13137871D01*
X15582686Y-13166443D01*
X15582686Y-13237871D01*
X15568400Y-13266443D01*
X15554114Y-13280729D01*
X15525543Y-13295014D01*
X15439828Y-13295014D01*
X15411257Y-13280729D01*
X15396971Y-13266443D01*
X15839828Y-13095014D02*
X15839828Y-13295014D01*
X15768400Y-12980729D02*
X15696971Y-13195014D01*
X15882686Y-13195014D01*
X16225543Y-13295014D02*
X16225543Y-12995014D01*
X16354114Y-13295014D02*
X16354114Y-13137871D01*
X16339828Y-13109300D01*
X16311257Y-13095014D01*
X16268400Y-13095014D01*
X16239828Y-13109300D01*
X16225543Y-13123586D01*
X16539828Y-13295014D02*
X16511257Y-13280729D01*
X16496971Y-13266443D01*
X16482686Y-13237871D01*
X16482686Y-13152157D01*
X16496971Y-13123586D01*
X16511257Y-13109300D01*
X16539828Y-13095014D01*
X16582686Y-13095014D01*
X16611257Y-13109300D01*
X16625543Y-13123586D01*
X16639828Y-13152157D01*
X16639828Y-13237871D01*
X16625543Y-13266443D01*
X16611257Y-13280729D01*
X16582686Y-13295014D01*
X16539828Y-13295014D01*
X16811257Y-13295014D02*
X16782686Y-13280729D01*
X16768400Y-13252157D01*
X16768400Y-12995014D01*
X17039828Y-13280729D02*
X17011257Y-13295014D01*
X16954114Y-13295014D01*
X16925543Y-13280729D01*
X16911257Y-13252157D01*
X16911257Y-13137871D01*
X16925543Y-13109300D01*
X16954114Y-13095014D01*
X17011257Y-13095014D01*
X17039828Y-13109300D01*
X17054114Y-13137871D01*
X17054114Y-13166443D01*
X16911257Y-13195014D01*
X17168400Y-13280729D02*
X17196971Y-13295014D01*
X17254114Y-13295014D01*
X17282686Y-13280729D01*
X17296971Y-13252157D01*
X17296971Y-13237871D01*
X17282686Y-13209300D01*
X17254114Y-13195014D01*
X17211257Y-13195014D01*
X17182686Y-13180729D01*
X17168400Y-13152157D01*
X17168400Y-13137871D01*
X17182686Y-13109300D01*
X17211257Y-13095014D01*
X17254114Y-13095014D01*
X17282686Y-13109300D01*
X17396971Y-13409300D02*
X17411257Y-13395014D01*
X17439828Y-13352157D01*
X17454114Y-13323586D01*
X17468400Y-13280729D01*
X17482686Y-13209300D01*
X17482686Y-13152157D01*
X17468400Y-13080729D01*
X17454114Y-13037871D01*
X17439828Y-13009300D01*
X17411257Y-12966443D01*
X17396971Y-12952157D01*
X10003400Y-13505300D02*
X10003400Y-13605300D01*
X9953400Y-13555300D02*
X10053400Y-13555300D01*
X10496971Y-13691014D02*
X10325543Y-13691014D01*
X10411257Y-13691014D02*
X10411257Y-13391014D01*
X10382686Y-13433871D01*
X10354114Y-13462443D01*
X10325543Y-13476729D01*
X10625543Y-13662443D02*
X10639828Y-13676729D01*
X10625543Y-13691014D01*
X10611257Y-13676729D01*
X10625543Y-13662443D01*
X10625543Y-13691014D01*
X10825543Y-13391014D02*
X10854114Y-13391014D01*
X10882686Y-13405300D01*
X10896971Y-13419586D01*
X10911257Y-13448157D01*
X10925543Y-13505300D01*
X10925543Y-13576729D01*
X10911257Y-13633871D01*
X10896971Y-13662443D01*
X10882686Y-13676729D01*
X10854114Y-13691014D01*
X10825543Y-13691014D01*
X10796971Y-13676729D01*
X10782686Y-13662443D01*
X10768400Y-13633871D01*
X10754114Y-13576729D01*
X10754114Y-13505300D01*
X10768400Y-13448157D01*
X10782686Y-13419586D01*
X10796971Y-13405300D01*
X10825543Y-13391014D01*
X11111257Y-13391014D02*
X11139828Y-13391014D01*
X11168400Y-13405300D01*
X11182686Y-13419586D01*
X11196971Y-13448157D01*
X11211257Y-13505300D01*
X11211257Y-13576729D01*
X11196971Y-13633871D01*
X11182686Y-13662443D01*
X11168400Y-13676729D01*
X11139828Y-13691014D01*
X11111257Y-13691014D01*
X11082686Y-13676729D01*
X11068400Y-13662443D01*
X11054114Y-13633871D01*
X11039828Y-13576729D01*
X11039828Y-13505300D01*
X11054114Y-13448157D01*
X11068400Y-13419586D01*
X11082686Y-13405300D01*
X11111257Y-13391014D01*
X11396971Y-13391014D02*
X11425543Y-13391014D01*
X11454114Y-13405300D01*
X11468400Y-13419586D01*
X11482686Y-13448157D01*
X11496971Y-13505300D01*
X11496971Y-13576729D01*
X11482686Y-13633871D01*
X11468400Y-13662443D01*
X11454114Y-13676729D01*
X11425543Y-13691014D01*
X11396971Y-13691014D01*
X11368400Y-13676729D01*
X11354114Y-13662443D01*
X11339828Y-13633871D01*
X11325543Y-13576729D01*
X11325543Y-13505300D01*
X11339828Y-13448157D01*
X11354114Y-13419586D01*
X11368400Y-13405300D01*
X11396971Y-13391014D01*
X11625543Y-13691014D02*
X11625543Y-13491014D01*
X11625543Y-13519586D02*
X11639828Y-13505300D01*
X11668400Y-13491014D01*
X11711257Y-13491014D01*
X11739828Y-13505300D01*
X11754114Y-13533871D01*
X11754114Y-13691014D01*
X11754114Y-13533871D02*
X11768400Y-13505300D01*
X11796971Y-13491014D01*
X11839828Y-13491014D01*
X11868400Y-13505300D01*
X11882686Y-13533871D01*
X11882686Y-13691014D01*
X12025543Y-13691014D02*
X12025543Y-13491014D01*
X12025543Y-13519586D02*
X12039828Y-13505300D01*
X12068400Y-13491014D01*
X12111257Y-13491014D01*
X12139828Y-13505300D01*
X12154114Y-13533871D01*
X12154114Y-13691014D01*
X12154114Y-13533871D02*
X12168400Y-13505300D01*
X12196971Y-13491014D01*
X12239828Y-13491014D01*
X12268400Y-13505300D01*
X12282686Y-13533871D01*
X12282686Y-13691014D01*
X12868400Y-13376729D02*
X12611257Y-13762443D01*
X13254114Y-13391014D02*
X13282686Y-13391014D01*
X13311257Y-13405300D01*
X13325543Y-13419586D01*
X13339828Y-13448157D01*
X13354114Y-13505300D01*
X13354114Y-13576729D01*
X13339828Y-13633871D01*
X13325543Y-13662443D01*
X13311257Y-13676729D01*
X13282686Y-13691014D01*
X13254114Y-13691014D01*
X13225543Y-13676729D01*
X13211257Y-13662443D01*
X13196971Y-13633871D01*
X13182686Y-13576729D01*
X13182686Y-13505300D01*
X13196971Y-13448157D01*
X13211257Y-13419586D01*
X13225543Y-13405300D01*
X13254114Y-13391014D01*
X13482686Y-13662443D02*
X13496971Y-13676729D01*
X13482686Y-13691014D01*
X13468400Y-13676729D01*
X13482686Y-13662443D01*
X13482686Y-13691014D01*
X13682686Y-13391014D02*
X13711257Y-13391014D01*
X13739828Y-13405300D01*
X13754114Y-13419586D01*
X13768400Y-13448157D01*
X13782686Y-13505300D01*
X13782686Y-13576729D01*
X13768400Y-13633871D01*
X13754114Y-13662443D01*
X13739828Y-13676729D01*
X13711257Y-13691014D01*
X13682686Y-13691014D01*
X13654114Y-13676729D01*
X13639828Y-13662443D01*
X13625543Y-13633871D01*
X13611257Y-13576729D01*
X13611257Y-13505300D01*
X13625543Y-13448157D01*
X13639828Y-13419586D01*
X13654114Y-13405300D01*
X13682686Y-13391014D01*
X13882686Y-13391014D02*
X14068400Y-13391014D01*
X13968400Y-13505300D01*
X14011257Y-13505300D01*
X14039828Y-13519586D01*
X14054114Y-13533871D01*
X14068400Y-13562443D01*
X14068400Y-13633871D01*
X14054114Y-13662443D01*
X14039828Y-13676729D01*
X14011257Y-13691014D01*
X13925543Y-13691014D01*
X13896971Y-13676729D01*
X13882686Y-13662443D01*
X14211257Y-13691014D02*
X14268400Y-13691014D01*
X14296971Y-13676729D01*
X14311257Y-13662443D01*
X14339828Y-13619586D01*
X14354114Y-13562443D01*
X14354114Y-13448157D01*
X14339828Y-13419586D01*
X14325543Y-13405300D01*
X14296971Y-13391014D01*
X14239828Y-13391014D01*
X14211257Y-13405300D01*
X14196971Y-13419586D01*
X14182686Y-13448157D01*
X14182686Y-13519586D01*
X14196971Y-13548157D01*
X14211257Y-13562443D01*
X14239828Y-13576729D01*
X14296971Y-13576729D01*
X14325543Y-13562443D01*
X14339828Y-13548157D01*
X14354114Y-13519586D01*
X14611257Y-13491014D02*
X14611257Y-13691014D01*
X14539828Y-13376729D02*
X14468400Y-13591014D01*
X14654114Y-13591014D01*
X14754114Y-13391014D02*
X14754114Y-13448157D01*
X14868400Y-13391014D02*
X14868400Y-13448157D01*
X15311257Y-13805300D02*
X15296971Y-13791014D01*
X15268400Y-13748157D01*
X15254114Y-13719586D01*
X15239828Y-13676729D01*
X15225543Y-13605300D01*
X15225543Y-13548157D01*
X15239828Y-13476729D01*
X15254114Y-13433871D01*
X15268400Y-13405300D01*
X15296971Y-13362443D01*
X15311257Y-13348157D01*
X15554114Y-13491014D02*
X15554114Y-13691014D01*
X15482686Y-13376729D02*
X15411257Y-13591014D01*
X15596971Y-13591014D01*
X15768400Y-13391014D02*
X15796971Y-13391014D01*
X15825543Y-13405300D01*
X15839828Y-13419586D01*
X15854114Y-13448157D01*
X15868400Y-13505300D01*
X15868400Y-13576729D01*
X15854114Y-13633871D01*
X15839828Y-13662443D01*
X15825543Y-13676729D01*
X15796971Y-13691014D01*
X15768400Y-13691014D01*
X15739828Y-13676729D01*
X15725543Y-13662443D01*
X15711257Y-13633871D01*
X15696971Y-13576729D01*
X15696971Y-13505300D01*
X15711257Y-13448157D01*
X15725543Y-13419586D01*
X15739828Y-13405300D01*
X15768400Y-13391014D01*
X16225543Y-13691014D02*
X16225543Y-13391014D01*
X16354114Y-13691014D02*
X16354114Y-13533871D01*
X16339828Y-13505300D01*
X16311257Y-13491014D01*
X16268400Y-13491014D01*
X16239828Y-13505300D01*
X16225543Y-13519586D01*
X16539828Y-13691014D02*
X16511257Y-13676729D01*
X16496971Y-13662443D01*
X16482686Y-13633871D01*
X16482686Y-13548157D01*
X16496971Y-13519586D01*
X16511257Y-13505300D01*
X16539828Y-13491014D01*
X16582686Y-13491014D01*
X16611257Y-13505300D01*
X16625543Y-13519586D01*
X16639828Y-13548157D01*
X16639828Y-13633871D01*
X16625543Y-13662443D01*
X16611257Y-13676729D01*
X16582686Y-13691014D01*
X16539828Y-13691014D01*
X16811257Y-13691014D02*
X16782686Y-13676729D01*
X16768400Y-13648157D01*
X16768400Y-13391014D01*
X17039828Y-13676729D02*
X17011257Y-13691014D01*
X16954114Y-13691014D01*
X16925543Y-13676729D01*
X16911257Y-13648157D01*
X16911257Y-13533871D01*
X16925543Y-13505300D01*
X16954114Y-13491014D01*
X17011257Y-13491014D01*
X17039828Y-13505300D01*
X17054114Y-13533871D01*
X17054114Y-13562443D01*
X16911257Y-13591014D01*
X17168400Y-13676729D02*
X17196971Y-13691014D01*
X17254114Y-13691014D01*
X17282686Y-13676729D01*
X17296971Y-13648157D01*
X17296971Y-13633871D01*
X17282686Y-13605300D01*
X17254114Y-13591014D01*
X17211257Y-13591014D01*
X17182686Y-13576729D01*
X17168400Y-13548157D01*
X17168400Y-13533871D01*
X17182686Y-13505300D01*
X17211257Y-13491014D01*
X17254114Y-13491014D01*
X17282686Y-13505300D01*
X17396971Y-13805300D02*
X17411257Y-13791014D01*
X17439828Y-13748157D01*
X17454114Y-13719586D01*
X17468400Y-13676729D01*
X17482686Y-13605300D01*
X17482686Y-13548157D01*
X17468400Y-13476729D01*
X17454114Y-13433871D01*
X17439828Y-13405300D01*
X17411257Y-13362443D01*
X17396971Y-13348157D01*
M02*
