M48
; DRILL file {KiCad (5.1.9-0-10_14)} date Wednesday, March 24, 2021 at 01:42:02 PM
; FORMAT={-:-/ absolute / metric / decimal}
; #@! TF.CreationDate,2021-03-24T13:42:02+01:00
; #@! TF.GenerationSoftware,Kicad,Pcbnew,(5.1.9-0-10_14)
; #@! TF.FileFunction,Plated,1,2,PTH
FMAT,2
METRIC
T1C0.400
T2C0.800
T3C0.900
T4C1.000
%
G90
G05
T1
X105.219Y-79.629
X105.219Y-113.728
X117.697Y-93.123
X122.809Y-91.694
X133.211Y-97.623
X135.128Y-106.68
X143.701Y-81.153
X143.701Y-106.743
X160.012Y-94.533
X171.005Y-79.629
X171.005Y-113.728
T2
X111.506Y-88.392
X111.506Y-90.932
X111.506Y-93.472
X111.506Y-96.012
X111.506Y-98.552
X111.506Y-101.092
X114.046Y-85.852
X114.046Y-88.392
X114.046Y-90.932
X114.046Y-93.472
X114.046Y-96.012
X114.046Y-98.552
X114.046Y-101.092
X114.046Y-103.632
X116.586Y-85.852
X116.586Y-88.392
X116.586Y-101.092
X116.586Y-103.632
X118.976Y-79.184
X119.126Y-85.852
X119.126Y-88.392
X119.126Y-101.092
X119.126Y-103.632
X121.476Y-79.184
X121.666Y-85.852
X121.666Y-88.392
X121.666Y-101.092
X121.666Y-103.632
X124.206Y-85.852
X124.206Y-88.392
X124.206Y-101.092
X124.206Y-103.632
X126.746Y-85.852
X126.746Y-88.392
X126.746Y-90.932
X126.746Y-93.472
X126.746Y-96.012
X126.746Y-98.552
X126.746Y-101.092
X126.746Y-103.632
X129.286Y-88.392
X129.286Y-90.932
X129.286Y-93.472
X129.286Y-96.012
X129.286Y-98.552
X129.286Y-101.092
X139.954Y-92.329
X139.954Y-99.949
X142.47Y-86.36
X144.97Y-86.36
X147.574Y-92.329
X147.574Y-99.949
X157.29Y-92.011
X157.29Y-99.631
X157.416Y-104.815
X157.416Y-107.315
X162.242Y-99.631
X162.242Y-107.251
X163.235Y-85.915
X165.735Y-85.915
X166.878Y-99.695
X166.878Y-107.315
X171.577Y-91.948
X171.577Y-99.568
X171.704Y-104.815
X171.704Y-107.315
T3
X156.908Y-85.471
X159.448Y-85.471
X169.481Y-85.471
X172.022Y-85.471
T4
X110.109Y-112.649
X110.109Y-115.189
X112.649Y-112.649
X112.649Y-115.189
X115.189Y-112.649
X115.189Y-115.189
X117.729Y-112.649
X117.729Y-115.189
X120.269Y-112.649
X120.269Y-115.189
X122.809Y-112.649
X122.809Y-115.189
X125.349Y-112.649
X125.349Y-115.189
X127.889Y-112.649
X127.889Y-115.189
X130.429Y-112.649
X130.429Y-115.189
X132.969Y-112.649
X132.969Y-115.189
X135.509Y-112.649
X135.509Y-115.189
X138.049Y-112.649
X138.049Y-115.189
X140.589Y-112.649
X140.589Y-115.189
X143.129Y-112.649
X143.129Y-115.189
X145.669Y-112.649
X145.669Y-115.189
X148.209Y-112.649
X148.209Y-115.189
T0
M30
