%FSLAX45Y45*%
G04 Gerber Fmt 4.5, Leading zero omitted, Abs format (unit mm)*
G04 Created by KiCad (PCBNEW (5.1.9-0-10_14)) date 2021-03-25 12:19:50*
%MOMM*%
%LPD*%
G01*
G04 APERTURE LIST*
%TA.AperFunction,Profile*%
%ADD10C,0.100000*%
%TD*%
%ADD11C,0.200000*%
%ADD12C,0.300000*%
G04 APERTURE END LIST*
D10*
X8769350Y-13976350D02*
G75*
G02*
X8699500Y-13906500I0J69850D01*
G01*
X18694400Y-13906500D02*
G75*
G02*
X18624550Y-13976350I-69850J0D01*
G01*
X8699500Y-4083050D02*
G75*
G02*
X8769350Y-4013200I69850J0D01*
G01*
X18624550Y-4013200D02*
G75*
G02*
X18694400Y-4083050I0J-69850D01*
G01*
X18694400Y-4083050D02*
X18694400Y-13906500D01*
X8769350Y-4013200D02*
X18624550Y-4013200D01*
X8699500Y-13906500D02*
X8699500Y-4083050D01*
X18624550Y-13976350D02*
X8769350Y-13976350D01*
D11*
D12*
X8980928Y-14447064D02*
X8980928Y-14147064D01*
X9052357Y-14147064D01*
X9095214Y-14161350D01*
X9123786Y-14189921D01*
X9138071Y-14218493D01*
X9152357Y-14275636D01*
X9152357Y-14318493D01*
X9138071Y-14375636D01*
X9123786Y-14404207D01*
X9095214Y-14432779D01*
X9052357Y-14447064D01*
X8980928Y-14447064D01*
X9280928Y-14447064D02*
X9280928Y-14247064D01*
X9280928Y-14304207D02*
X9295214Y-14275636D01*
X9309500Y-14261350D01*
X9338071Y-14247064D01*
X9366643Y-14247064D01*
X9466643Y-14447064D02*
X9466643Y-14247064D01*
X9466643Y-14147064D02*
X9452357Y-14161350D01*
X9466643Y-14175636D01*
X9480928Y-14161350D01*
X9466643Y-14147064D01*
X9466643Y-14175636D01*
X9652357Y-14447064D02*
X9623786Y-14432779D01*
X9609500Y-14404207D01*
X9609500Y-14147064D01*
X9809500Y-14447064D02*
X9780928Y-14432779D01*
X9766643Y-14404207D01*
X9766643Y-14147064D01*
X10152357Y-14447064D02*
X10152357Y-14147064D01*
X10252357Y-14361350D01*
X10352357Y-14147064D01*
X10352357Y-14447064D01*
X10623786Y-14447064D02*
X10623786Y-14289921D01*
X10609500Y-14261350D01*
X10580928Y-14247064D01*
X10523786Y-14247064D01*
X10495214Y-14261350D01*
X10623786Y-14432779D02*
X10595214Y-14447064D01*
X10523786Y-14447064D01*
X10495214Y-14432779D01*
X10480928Y-14404207D01*
X10480928Y-14375636D01*
X10495214Y-14347064D01*
X10523786Y-14332779D01*
X10595214Y-14332779D01*
X10623786Y-14318493D01*
X10766643Y-14247064D02*
X10766643Y-14547064D01*
X10766643Y-14261350D02*
X10795214Y-14247064D01*
X10852357Y-14247064D01*
X10880928Y-14261350D01*
X10895214Y-14275636D01*
X10909500Y-14304207D01*
X10909500Y-14389921D01*
X10895214Y-14418493D01*
X10880928Y-14432779D01*
X10852357Y-14447064D01*
X10795214Y-14447064D01*
X10766643Y-14432779D01*
X11038071Y-14418493D02*
X11052357Y-14432779D01*
X11038071Y-14447064D01*
X11023786Y-14432779D01*
X11038071Y-14418493D01*
X11038071Y-14447064D01*
X11038071Y-14261350D02*
X11052357Y-14275636D01*
X11038071Y-14289921D01*
X11023786Y-14275636D01*
X11038071Y-14261350D01*
X11038071Y-14289921D01*
M02*
