%TF.GenerationSoftware,KiCad,Pcbnew,(5.1.9-0-10_14)*%
%TF.CreationDate,2021-03-25T12:19:47+01:00*%
%TF.ProjectId,n8 bit special,6e382062-6974-4207-9370-656369616c2e,2*%
%TF.SameCoordinates,Original*%
%TF.FileFunction,Soldermask,Bot*%
%TF.FilePolarity,Negative*%
%FSLAX46Y46*%
G04 Gerber Fmt 4.6, Leading zero omitted, Abs format (unit mm)*
G04 Created by KiCad (PCBNEW (5.1.9-0-10_14)) date 2021-03-25 12:19:47*
%MOMM*%
%LPD*%
G01*
G04 APERTURE LIST*
%ADD10C,1.600000*%
%ADD11R,1.600000X1.600000*%
%ADD12O,1.550000X0.890000*%
%ADD13O,0.950000X1.250000*%
%ADD14R,1.800000X1.800000*%
%ADD15C,1.800000*%
%ADD16R,1.700000X1.700000*%
%ADD17O,1.700000X1.700000*%
%ADD18O,1.600000X1.600000*%
%ADD19C,1.300000*%
%ADD20C,2.000000*%
G04 APERTURE END LIST*
D10*
%TO.C,C16*%
X163258000Y-83970500D03*
X163258000Y-81470500D03*
%TD*%
%TO.C,X1*%
X149288000Y-90551000D03*
X156908000Y-90551000D03*
X156908000Y-82931000D03*
D11*
X149288000Y-82931000D03*
%TD*%
D12*
%TO.C,J1*%
X185501000Y-120452000D03*
X185501000Y-127452000D03*
D13*
X182801000Y-121452000D03*
X182801000Y-126452000D03*
%TD*%
D10*
%TO.C,C2*%
X180022000Y-112342000D03*
D11*
X180022000Y-116142000D03*
%TD*%
D10*
%TO.C,C1*%
X150749000Y-113284000D03*
X150749000Y-110784000D03*
%TD*%
%TO.C,C3*%
X91440000Y-81637500D03*
X91440000Y-84137500D03*
%TD*%
%TO.C,C4*%
X139700000Y-81574000D03*
X139700000Y-84074000D03*
%TD*%
%TO.C,C7*%
X91503500Y-116245000D03*
X91503500Y-118745000D03*
%TD*%
%TO.C,C8*%
X139764000Y-118808000D03*
X139764000Y-116308000D03*
%TD*%
%TO.C,C5*%
X91503500Y-98973000D03*
X91503500Y-101473000D03*
%TD*%
%TO.C,C6*%
X139700000Y-101473000D03*
X139700000Y-98973000D03*
%TD*%
%TO.C,C9*%
X91440000Y-133555000D03*
X91440000Y-136055000D03*
%TD*%
%TO.C,C10*%
X139700000Y-136079000D03*
X139700000Y-133579000D03*
%TD*%
%TO.C,C11*%
X163258000Y-91908000D03*
X163258000Y-89408000D03*
%TD*%
%TO.C,C12*%
X163322000Y-43434000D03*
X163322000Y-45934000D03*
%TD*%
%TO.C,C13*%
X137795000Y-43434000D03*
X137795000Y-45934000D03*
%TD*%
%TO.C,C14*%
X112014000Y-43434000D03*
X112014000Y-45934000D03*
%TD*%
D14*
%TO.C,D1*%
X172656000Y-135954000D03*
D15*
X170116000Y-135954000D03*
%TD*%
D16*
%TO.C,J2*%
X96520000Y-81597500D03*
D17*
X96520000Y-84137500D03*
X99060000Y-81597500D03*
X99060000Y-84137500D03*
X101600000Y-81597500D03*
X101600000Y-84137500D03*
X104140000Y-81597500D03*
X104140000Y-84137500D03*
X106680000Y-81597500D03*
X106680000Y-84137500D03*
X109220000Y-81597500D03*
X109220000Y-84137500D03*
X111760000Y-81597500D03*
X111760000Y-84137500D03*
X114300000Y-81597500D03*
X114300000Y-84137500D03*
X116840000Y-81597500D03*
X116840000Y-84137500D03*
X119380000Y-81597500D03*
X119380000Y-84137500D03*
X121920000Y-81597500D03*
X121920000Y-84137500D03*
X124460000Y-81597500D03*
X124460000Y-84137500D03*
X127000000Y-81597500D03*
X127000000Y-84137500D03*
X129540000Y-81597500D03*
X129540000Y-84137500D03*
X132080000Y-81597500D03*
X132080000Y-84137500D03*
X134620000Y-81597500D03*
X134620000Y-84137500D03*
%TD*%
D16*
%TO.C,J3*%
X96520000Y-116218000D03*
D17*
X96520000Y-118758000D03*
X99060000Y-116218000D03*
X99060000Y-118758000D03*
X101600000Y-116218000D03*
X101600000Y-118758000D03*
X104140000Y-116218000D03*
X104140000Y-118758000D03*
X106680000Y-116218000D03*
X106680000Y-118758000D03*
X109220000Y-116218000D03*
X109220000Y-118758000D03*
X111760000Y-116218000D03*
X111760000Y-118758000D03*
X114300000Y-116218000D03*
X114300000Y-118758000D03*
X116840000Y-116218000D03*
X116840000Y-118758000D03*
X119380000Y-116218000D03*
X119380000Y-118758000D03*
X121920000Y-116218000D03*
X121920000Y-118758000D03*
X124460000Y-116218000D03*
X124460000Y-118758000D03*
X127000000Y-116218000D03*
X127000000Y-118758000D03*
X129540000Y-116218000D03*
X129540000Y-118758000D03*
X132080000Y-116218000D03*
X132080000Y-118758000D03*
X134620000Y-116218000D03*
X134620000Y-118758000D03*
%TD*%
%TO.C,J4*%
X134620000Y-101447500D03*
X134620000Y-98907500D03*
X132080000Y-101447500D03*
X132080000Y-98907500D03*
X129540000Y-101447500D03*
X129540000Y-98907500D03*
X127000000Y-101447500D03*
X127000000Y-98907500D03*
X124460000Y-101447500D03*
X124460000Y-98907500D03*
X121920000Y-101447500D03*
X121920000Y-98907500D03*
X119380000Y-101447500D03*
X119380000Y-98907500D03*
X116840000Y-101447500D03*
X116840000Y-98907500D03*
X114300000Y-101447500D03*
X114300000Y-98907500D03*
X111760000Y-101447500D03*
X111760000Y-98907500D03*
X109220000Y-101447500D03*
X109220000Y-98907500D03*
X106680000Y-101447500D03*
X106680000Y-98907500D03*
X104140000Y-101447500D03*
X104140000Y-98907500D03*
X101600000Y-101447500D03*
X101600000Y-98907500D03*
X99060000Y-101447500D03*
X99060000Y-98907500D03*
X96520000Y-101447500D03*
D16*
X96520000Y-98907500D03*
%TD*%
D17*
%TO.C,J5*%
X134620000Y-136068000D03*
X134620000Y-133528000D03*
X132080000Y-136068000D03*
X132080000Y-133528000D03*
X129540000Y-136068000D03*
X129540000Y-133528000D03*
X127000000Y-136068000D03*
X127000000Y-133528000D03*
X124460000Y-136068000D03*
X124460000Y-133528000D03*
X121920000Y-136068000D03*
X121920000Y-133528000D03*
X119380000Y-136068000D03*
X119380000Y-133528000D03*
X116840000Y-136068000D03*
X116840000Y-133528000D03*
X114300000Y-136068000D03*
X114300000Y-133528000D03*
X111760000Y-136068000D03*
X111760000Y-133528000D03*
X109220000Y-136068000D03*
X109220000Y-133528000D03*
X106680000Y-136068000D03*
X106680000Y-133528000D03*
X104140000Y-136068000D03*
X104140000Y-133528000D03*
X101600000Y-136068000D03*
X101600000Y-133528000D03*
X99060000Y-136068000D03*
X99060000Y-133528000D03*
X96520000Y-136068000D03*
D16*
X96520000Y-133528000D03*
%TD*%
D10*
%TO.C,R1*%
X170370000Y-130429000D03*
D18*
X170370000Y-122809000D03*
%TD*%
D10*
%TO.C,R2*%
X163322000Y-60325000D03*
D18*
X163322000Y-52705000D03*
%TD*%
%TO.C,R3*%
X163322000Y-66230500D03*
D10*
X163322000Y-73850500D03*
%TD*%
D11*
%TO.C,RN1*%
X165176000Y-135877000D03*
D18*
X162636000Y-135877000D03*
X160096000Y-135877000D03*
X157556000Y-135877000D03*
X155016000Y-135877000D03*
X152476000Y-135877000D03*
X149936000Y-135877000D03*
X147396000Y-135877000D03*
X144856000Y-135877000D03*
%TD*%
D19*
%TO.C,U7*%
X176212000Y-124778000D03*
X177482000Y-126048000D03*
X174942000Y-126048000D03*
%TD*%
D11*
%TO.C,U6*%
X155702000Y-105474000D03*
D18*
X183642000Y-97854000D03*
X158242000Y-105474000D03*
X181102000Y-97854000D03*
X160782000Y-105474000D03*
X178562000Y-97854000D03*
X163322000Y-105474000D03*
X176022000Y-97854000D03*
X165862000Y-105474000D03*
X173482000Y-97854000D03*
X168402000Y-105474000D03*
X170942000Y-97854000D03*
X170942000Y-105474000D03*
X168402000Y-97854000D03*
X173482000Y-105474000D03*
X165862000Y-97854000D03*
X176022000Y-105474000D03*
X163322000Y-97854000D03*
X178562000Y-105474000D03*
X160782000Y-97854000D03*
X181102000Y-105474000D03*
X158242000Y-97854000D03*
X183642000Y-105474000D03*
X155702000Y-97854000D03*
%TD*%
D10*
%TO.C,C15*%
X150749000Y-100394000D03*
X150749000Y-97894000D03*
%TD*%
D16*
%TO.C,J6*%
X162636000Y-128892000D03*
D17*
X162636000Y-131432000D03*
X160096000Y-128892000D03*
X160096000Y-131432000D03*
X157556000Y-128892000D03*
X157556000Y-131432000D03*
X155016000Y-128892000D03*
X155016000Y-131432000D03*
X152476000Y-128892000D03*
X152476000Y-131432000D03*
X149936000Y-128892000D03*
X149936000Y-131432000D03*
X147396000Y-128892000D03*
X147396000Y-131432000D03*
X144856000Y-128892000D03*
X144856000Y-131432000D03*
%TD*%
D20*
%TO.C,SW1*%
X177546000Y-136707000D03*
X177546000Y-132207000D03*
X184046000Y-136707000D03*
X184046000Y-132207000D03*
%TD*%
D11*
%TO.C,U1*%
X183452000Y-91821000D03*
D18*
X168212000Y-43561000D03*
X183452000Y-89281000D03*
X168212000Y-46101000D03*
X183452000Y-86741000D03*
X168212000Y-48641000D03*
X183452000Y-84201000D03*
X168212000Y-51181000D03*
X183452000Y-81661000D03*
X168212000Y-53721000D03*
X183452000Y-79121000D03*
X168212000Y-56261000D03*
X183452000Y-76581000D03*
X168212000Y-58801000D03*
X183452000Y-74041000D03*
X168212000Y-61341000D03*
X183452000Y-71501000D03*
X168212000Y-63881000D03*
X183452000Y-68961000D03*
X168212000Y-66421000D03*
X183452000Y-66421000D03*
X168212000Y-68961000D03*
X183452000Y-63881000D03*
X168212000Y-71501000D03*
X183452000Y-61341000D03*
X168212000Y-74041000D03*
X183452000Y-58801000D03*
X168212000Y-76581000D03*
X183452000Y-56261000D03*
X168212000Y-79121000D03*
X183452000Y-53721000D03*
X168212000Y-81661000D03*
X183452000Y-51181000D03*
X168212000Y-84201000D03*
X183452000Y-48641000D03*
X168212000Y-86741000D03*
X183452000Y-46101000D03*
X168212000Y-89281000D03*
X183452000Y-43561000D03*
X168212000Y-91821000D03*
%TD*%
D11*
%TO.C,U2*%
X143002000Y-43434000D03*
D18*
X158242000Y-76454000D03*
X143002000Y-45974000D03*
X158242000Y-73914000D03*
X143002000Y-48514000D03*
X158242000Y-71374000D03*
X143002000Y-51054000D03*
X158242000Y-68834000D03*
X143002000Y-53594000D03*
X158242000Y-66294000D03*
X143002000Y-56134000D03*
X158242000Y-63754000D03*
X143002000Y-58674000D03*
X158242000Y-61214000D03*
X143002000Y-61214000D03*
X158242000Y-58674000D03*
X143002000Y-63754000D03*
X158242000Y-56134000D03*
X143002000Y-66294000D03*
X158242000Y-53594000D03*
X143002000Y-68834000D03*
X158242000Y-51054000D03*
X143002000Y-71374000D03*
X158242000Y-48514000D03*
X143002000Y-73914000D03*
X158242000Y-45974000D03*
X143002000Y-76454000D03*
X158242000Y-43434000D03*
%TD*%
D11*
%TO.C,U3*%
X117348000Y-43434000D03*
D18*
X132588000Y-76454000D03*
X117348000Y-45974000D03*
X132588000Y-73914000D03*
X117348000Y-48514000D03*
X132588000Y-71374000D03*
X117348000Y-51054000D03*
X132588000Y-68834000D03*
X117348000Y-53594000D03*
X132588000Y-66294000D03*
X117348000Y-56134000D03*
X132588000Y-63754000D03*
X117348000Y-58674000D03*
X132588000Y-61214000D03*
X117348000Y-61214000D03*
X132588000Y-58674000D03*
X117348000Y-63754000D03*
X132588000Y-56134000D03*
X117348000Y-66294000D03*
X132588000Y-53594000D03*
X117348000Y-68834000D03*
X132588000Y-51054000D03*
X117348000Y-71374000D03*
X132588000Y-48514000D03*
X117348000Y-73914000D03*
X132588000Y-45974000D03*
X117348000Y-76454000D03*
X132588000Y-43434000D03*
%TD*%
%TO.C,U4*%
X106934000Y-43434000D03*
X91694000Y-76454000D03*
X106934000Y-45974000D03*
X91694000Y-73914000D03*
X106934000Y-48514000D03*
X91694000Y-71374000D03*
X106934000Y-51054000D03*
X91694000Y-68834000D03*
X106934000Y-53594000D03*
X91694000Y-66294000D03*
X106934000Y-56134000D03*
X91694000Y-63754000D03*
X106934000Y-58674000D03*
X91694000Y-61214000D03*
X106934000Y-61214000D03*
X91694000Y-58674000D03*
X106934000Y-63754000D03*
X91694000Y-56134000D03*
X106934000Y-66294000D03*
X91694000Y-53594000D03*
X106934000Y-68834000D03*
X91694000Y-51054000D03*
X106934000Y-71374000D03*
X91694000Y-48514000D03*
X106934000Y-73914000D03*
X91694000Y-45974000D03*
X106934000Y-76454000D03*
D11*
X91694000Y-43434000D03*
%TD*%
%TO.C,U5*%
X155638000Y-118491000D03*
D18*
X170878000Y-110871000D03*
X158178000Y-118491000D03*
X168338000Y-110871000D03*
X160718000Y-118491000D03*
X165798000Y-110871000D03*
X163258000Y-118491000D03*
X163258000Y-110871000D03*
X165798000Y-118491000D03*
X160718000Y-110871000D03*
X168338000Y-118491000D03*
X158178000Y-110871000D03*
X170878000Y-118491000D03*
X155638000Y-110871000D03*
%TD*%
M02*
