M48
; DRILL file {KiCad (6.0.5-0)} date 2022 June 16, Thursday 16:01:55
; FORMAT={-:-/ absolute / inch / decimal}
; #@! TF.CreationDate,2022-06-16T16:01:55+02:00
; #@! TF.GenerationSoftware,Kicad,Pcbnew,(6.0.5-0)
; #@! TF.FileFunction,Plated,1,4,PTH
FMAT,2
INCH
; #@! TA.AperFunction,Plated,PTH,ViaDrill
T1C0.0157
; #@! TA.AperFunction,Plated,PTH,ComponentDrill
T2C0.0217
; #@! TA.AperFunction,Plated,PTH,ComponentDrill
T3C0.0295
; #@! TA.AperFunction,Plated,PTH,ComponentDrill
T4C0.0315
; #@! TA.AperFunction,Plated,PTH,ComponentDrill
T5C0.0335
; #@! TA.AperFunction,Plated,PTH,ComponentDrill
T6C0.0354
; #@! TA.AperFunction,Plated,PTH,ComponentDrill
T7C0.0394
; #@! TA.AperFunction,Plated,PTH,ComponentDrill
T8C0.0433
%
G90
G05
T1
X4.1171Y-2.4509
X4.3794Y-3.605
X4.771Y-3.433
X4.8003Y-3.4063
X4.8282Y-3.4662
X4.9235Y-3.7032
X5.1748Y-3.3612
X5.5497Y-2.2148
X5.6622Y-2.4604
X5.7895Y-4.8812
X5.8665Y-3.6596
X6.473Y-2.5907
X6.668Y-4.622
X6.739Y-3.375
X6.741Y-3.601
X6.8011Y-4.0727
X7.08Y-4.374
X7.08Y-4.524
T3
X6.402Y-4.883
X6.402Y-5.1305
X6.452Y-4.833
X6.452Y-5.0805
X6.502Y-4.883
X6.502Y-5.1305
T4
X3.57Y-1.7075
X3.57Y-1.8075
X3.57Y-1.9075
X3.57Y-2.0075
X3.57Y-2.1075
X3.57Y-2.2075
X3.57Y-2.3075
X3.57Y-2.4075
X3.57Y-2.5075
X3.57Y-2.6075
X3.57Y-2.7075
X3.57Y-2.8075
X3.57Y-2.9075
X3.57Y-3.0075
X3.5718Y-3.8426
X3.5718Y-3.941
X3.5718Y-4.5676
X3.5718Y-4.666
X3.5718Y-5.2584
X3.5718Y-5.3568
X3.575Y-3.2495
X3.575Y-3.5495
X3.675Y-3.2495
X3.675Y-3.5495
X3.775Y-3.2495
X3.775Y-3.5495
X3.875Y-3.2495
X3.875Y-3.5495
X3.975Y-3.2495
X3.975Y-3.5495
X4.075Y-3.2495
X4.075Y-3.5495
X4.17Y-1.7075
X4.17Y-1.8075
X4.17Y-1.9075
X4.17Y-2.0075
X4.17Y-2.1075
X4.17Y-2.2075
X4.17Y-2.3075
X4.17Y-2.4075
X4.17Y-2.5075
X4.17Y-2.6075
X4.17Y-2.7075
X4.17Y-2.8075
X4.17Y-2.9075
X4.17Y-3.0075
X4.175Y-3.2495
X4.175Y-3.5495
X4.275Y-3.2495
X4.275Y-3.5495
X4.3275Y-1.705
X4.3275Y-1.8034
X4.375Y-3.2495
X4.375Y-3.5495
X4.475Y-3.2495
X4.475Y-3.5495
X4.485Y-1.7075
X4.485Y-1.8075
X4.485Y-1.9075
X4.485Y-2.0075
X4.485Y-2.1075
X4.485Y-2.2075
X4.485Y-2.3075
X4.485Y-2.4075
X4.485Y-2.5075
X4.485Y-2.6075
X4.485Y-2.7075
X4.485Y-2.8075
X4.485Y-2.9075
X4.485Y-3.0075
X4.575Y-3.2495
X4.575Y-3.5495
X4.675Y-3.2495
X4.675Y-3.5495
X4.8915Y-3.2086
X4.8915Y-3.307
X4.893Y-3.511
X4.893Y-3.6094
X5.085Y-1.7075
X5.085Y-1.8075
X5.085Y-1.9075
X5.085Y-2.0075
X5.085Y-2.1075
X5.085Y-2.2075
X5.085Y-2.3075
X5.085Y-2.4075
X5.085Y-2.5075
X5.085Y-2.6075
X5.085Y-2.7075
X5.085Y-2.8075
X5.085Y-2.9075
X5.085Y-3.0075
X5.149Y-3.258
X5.149Y-3.558
X5.245Y-1.744
X5.245Y-1.8424
X5.4Y-1.7075
X5.4Y-1.8075
X5.4Y-1.9075
X5.4Y-2.0075
X5.4Y-2.1075
X5.4Y-2.2075
X5.4Y-2.3075
X5.4Y-2.4075
X5.4Y-2.5075
X5.4Y-2.6075
X5.4Y-2.7075
X5.4Y-2.8075
X5.4Y-2.9075
X5.4Y-3.0075
X5.449Y-3.258
X5.449Y-3.558
X5.4614Y-3.8426
X5.4614Y-3.941
X5.462Y-4.0968
X5.462Y-4.3968
X5.4634Y-4.5536
X5.4634Y-4.652
X5.4647Y-5.2586
X5.4647Y-5.357
X5.702Y-3.211
X5.702Y-3.311
X5.702Y-3.411
X5.702Y-3.511
X5.702Y-3.611
X5.702Y-3.711
X5.702Y-3.811
X5.703Y-4.0675
X5.703Y-4.1675
X5.703Y-4.2675
X5.703Y-4.3675
X5.703Y-4.4675
X5.703Y-4.5675
X5.703Y-4.6675
X5.703Y-5.3635
X5.803Y-5.3635
X5.903Y-5.3635
X6.0Y-1.7075
X6.0Y-1.8075
X6.0Y-1.9075
X6.0Y-2.0075
X6.0Y-2.1075
X6.0Y-2.2075
X6.0Y-2.3075
X6.0Y-2.4075
X6.0Y-2.5075
X6.0Y-2.6075
X6.0Y-2.7075
X6.0Y-2.8075
X6.0Y-2.9075
X6.0Y-3.0075
X6.002Y-3.211
X6.002Y-3.311
X6.002Y-3.411
X6.002Y-3.511
X6.002Y-3.611
X6.002Y-3.711
X6.002Y-3.811
X6.003Y-4.0675
X6.003Y-4.1675
X6.003Y-4.2675
X6.003Y-4.3675
X6.003Y-4.4675
X6.003Y-4.5675
X6.003Y-4.6675
X6.003Y-5.3635
X6.103Y-5.3635
X6.179Y-1.711
X6.179Y-1.8094
X6.18Y-2.0686
X6.18Y-2.167
X6.1825Y-2.9196
X6.1825Y-3.018
X6.1825Y-3.2106
X6.1825Y-3.309
X6.183Y-4.0665
X6.183Y-4.1649
X6.183Y-4.3176
X6.183Y-4.416
X6.203Y-5.3635
X6.303Y-5.3635
X6.403Y-5.3635
X6.4288Y-4.132
X6.434Y-1.876
X6.434Y-1.976
X6.434Y-2.076
X6.434Y-2.176
X6.434Y-2.276
X6.434Y-2.376
X6.44Y-2.937
X6.44Y-3.037
X6.44Y-3.137
X6.44Y-3.237
X6.44Y-3.337
X6.44Y-3.437
X6.503Y-5.3635
X6.5272Y-4.132
X6.534Y-1.776
X6.534Y-1.876
X6.534Y-1.976
X6.534Y-2.076
X6.534Y-2.176
X6.534Y-2.276
X6.534Y-2.376
X6.534Y-2.476
X6.54Y-2.837
X6.54Y-2.937
X6.54Y-3.037
X6.54Y-3.137
X6.54Y-3.237
X6.54Y-3.337
X6.54Y-3.437
X6.54Y-3.537
X6.634Y-1.776
X6.634Y-1.876
X6.634Y-2.376
X6.634Y-2.476
X6.64Y-2.837
X6.64Y-2.937
X6.64Y-3.437
X6.64Y-3.537
X6.6745Y-4.8475
X6.6745Y-5.1475
X6.676Y-3.82
X6.676Y-4.0571
X6.734Y-1.776
X6.734Y-1.876
X6.734Y-2.376
X6.734Y-2.476
X6.74Y-2.837
X6.74Y-2.937
X6.74Y-3.437
X6.74Y-3.537
X6.834Y-1.776
X6.834Y-1.876
X6.834Y-2.376
X6.834Y-2.476
X6.84Y-2.837
X6.84Y-2.937
X6.84Y-3.437
X6.84Y-3.537
X6.846Y-4.8455
X6.846Y-5.1455
X6.858Y-4.381
X6.858Y-4.5306
X6.934Y-1.776
X6.934Y-1.876
X6.934Y-2.376
X6.934Y-2.476
X6.94Y-2.837
X6.94Y-2.937
X6.94Y-3.437
X6.94Y-3.537
X6.976Y-3.82
X6.976Y-4.0571
X7.034Y-1.776
X7.034Y-1.876
X7.034Y-1.976
X7.034Y-2.076
X7.034Y-2.176
X7.034Y-2.276
X7.034Y-2.376
X7.034Y-2.476
X7.04Y-2.837
X7.04Y-2.937
X7.04Y-3.037
X7.04Y-3.137
X7.04Y-3.237
X7.04Y-3.337
X7.04Y-3.437
X7.04Y-3.537
X7.134Y-1.876
X7.134Y-1.976
X7.134Y-2.076
X7.134Y-2.176
X7.134Y-2.276
X7.134Y-2.376
X7.14Y-2.937
X7.14Y-3.037
X7.14Y-3.137
X7.14Y-3.237
X7.14Y-3.337
X7.14Y-3.437
T6
X6.732Y-5.343
X6.832Y-5.343
X7.126Y-3.82
X7.126Y-4.0565
X7.226Y-3.82
X7.226Y-4.0565
T7
X3.7614Y-3.844
X3.7614Y-3.944
X3.7614Y-4.5513
X3.7614Y-4.6513
X3.7615Y-5.2583
X3.7615Y-5.3583
X3.8614Y-3.844
X3.8614Y-3.944
X3.8614Y-4.5513
X3.8614Y-4.6513
X3.8615Y-5.2583
X3.8615Y-5.3583
X3.9614Y-3.844
X3.9614Y-3.944
X3.9614Y-4.5513
X3.9614Y-4.6513
X3.9615Y-5.2583
X3.9615Y-5.3583
X4.0614Y-3.844
X4.0614Y-3.944
X4.0614Y-4.5513
X4.0614Y-4.6513
X4.0615Y-5.2583
X4.0615Y-5.3583
X4.1614Y-3.844
X4.1614Y-3.944
X4.1614Y-4.5513
X4.1614Y-4.6513
X4.1615Y-5.2583
X4.1615Y-5.3583
X4.2614Y-3.844
X4.2614Y-3.944
X4.2614Y-4.5513
X4.2614Y-4.6513
X4.2615Y-5.2583
X4.2615Y-5.3583
X4.3614Y-3.844
X4.3614Y-3.944
X4.3614Y-4.5513
X4.3614Y-4.6513
X4.3615Y-5.2583
X4.3615Y-5.3583
X4.4614Y-3.844
X4.4614Y-3.944
X4.4614Y-4.5513
X4.4614Y-4.6513
X4.4615Y-5.2583
X4.4615Y-5.3583
X4.5614Y-3.844
X4.5614Y-3.944
X4.5614Y-4.5513
X4.5614Y-4.6513
X4.5615Y-5.2583
X4.5615Y-5.3583
X4.6614Y-3.844
X4.6614Y-3.944
X4.6614Y-4.5513
X4.6614Y-4.6513
X4.6615Y-5.2583
X4.6615Y-5.3583
X4.7614Y-3.844
X4.7614Y-3.944
X4.7614Y-4.5513
X4.7614Y-4.6513
X4.7615Y-5.2583
X4.7615Y-5.3583
X4.8614Y-3.844
X4.8614Y-3.944
X4.8614Y-4.5513
X4.8614Y-4.6513
X4.8615Y-5.2583
X4.8615Y-5.3583
X4.9614Y-3.844
X4.9614Y-3.944
X4.9614Y-4.5513
X4.9614Y-4.6513
X4.9615Y-5.2583
X4.9615Y-5.3583
X5.0614Y-3.844
X5.0614Y-3.944
X5.0614Y-4.5513
X5.0614Y-4.6513
X5.0615Y-5.2583
X5.0615Y-5.3583
X5.1614Y-3.844
X5.1614Y-3.944
X5.1614Y-4.5513
X5.1614Y-4.6513
X5.1615Y-5.2583
X5.1615Y-5.3583
X5.2614Y-3.844
X5.2614Y-3.944
X5.2614Y-4.5513
X5.2614Y-4.6513
X5.2615Y-5.2583
X5.2615Y-5.3583
X5.7035Y-5.098
X5.7035Y-5.198
X5.8035Y-5.098
X5.8035Y-5.198
X5.9035Y-5.098
X5.9035Y-5.198
X6.0035Y-5.098
X6.0035Y-5.198
X6.1035Y-5.098
X6.1035Y-5.198
X6.2035Y-5.098
X6.2035Y-5.198
T8
X6.9975Y-5.204
X6.9975Y-5.3812
X7.2534Y-5.204
X7.2534Y-5.3812
T2
G00X7.2743Y-4.2904
M15
G01X7.2998Y-4.2904
M16
G05
G00X7.2743Y-4.5955
M15
G01X7.2998Y-4.5955
M16
G05
T5
G00X7.1266Y-4.2963
M15
G01X7.1483Y-4.2963
M16
G05
G00X7.1266Y-4.5896
M15
G01X7.1483Y-4.5896
M16
G05
T0
M30
