%TF.GenerationSoftware,KiCad,Pcbnew,(6.0.5-0)*%
%TF.CreationDate,2022-06-16T16:01:58+02:00*%
%TF.ProjectId,n8 bit special,6e382062-6974-4207-9370-656369616c2e,2*%
%TF.SameCoordinates,Original*%
%TF.FileFunction,Copper,L4,Bot*%
%TF.FilePolarity,Positive*%
%FSLAX46Y46*%
G04 Gerber Fmt 4.6, Leading zero omitted, Abs format (unit mm)*
G04 Created by KiCad (PCBNEW (6.0.5-0)) date 2022-06-16 16:01:58*
%MOMM*%
%LPD*%
G01*
G04 APERTURE LIST*
%TA.AperFunction,ComponentPad*%
%ADD10R,1.600000X1.600000*%
%TD*%
%TA.AperFunction,ComponentPad*%
%ADD11O,1.600000X1.600000*%
%TD*%
%TA.AperFunction,ComponentPad*%
%ADD12C,1.600000*%
%TD*%
%TA.AperFunction,ComponentPad*%
%ADD13O,1.800000X1.150000*%
%TD*%
%TA.AperFunction,ComponentPad*%
%ADD14O,2.000000X1.450000*%
%TD*%
%TA.AperFunction,ComponentPad*%
%ADD15R,1.300000X1.300000*%
%TD*%
%TA.AperFunction,ComponentPad*%
%ADD16C,1.300000*%
%TD*%
%TA.AperFunction,ComponentPad*%
%ADD17R,1.800000X1.800000*%
%TD*%
%TA.AperFunction,ComponentPad*%
%ADD18C,1.800000*%
%TD*%
%TA.AperFunction,ComponentPad*%
%ADD19R,1.422400X1.422400*%
%TD*%
%TA.AperFunction,ComponentPad*%
%ADD20C,1.422400*%
%TD*%
%TA.AperFunction,ComponentPad*%
%ADD21R,1.700000X1.700000*%
%TD*%
%TA.AperFunction,ComponentPad*%
%ADD22O,1.700000X1.700000*%
%TD*%
%TA.AperFunction,ComponentPad*%
%ADD23C,2.000000*%
%TD*%
%TA.AperFunction,ViaPad*%
%ADD24C,0.800000*%
%TD*%
%TA.AperFunction,Conductor*%
%ADD25C,0.154000*%
%TD*%
G04 APERTURE END LIST*
D10*
%TO.P,U6,1,CLK/IN1*%
%TO.N,CLK*%
X118745000Y-82537300D03*
D11*
%TO.P,U6,2,IN2*%
%TO.N,/A6*%
X116205000Y-82537300D03*
%TO.P,U6,3,IN3*%
%TO.N,/A7*%
X113665000Y-82537300D03*
%TO.P,U6,4,IN4/PD*%
%TO.N,/A8*%
X111125000Y-82537300D03*
%TO.P,U6,5,IN5*%
%TO.N,/A9*%
X108585000Y-82537300D03*
%TO.P,U6,6,IN6*%
%TO.N,/A10*%
X106045000Y-82537300D03*
%TO.P,U6,7,IN7*%
%TO.N,/A11*%
X103505000Y-82537300D03*
%TO.P,U6,8,IN8*%
%TO.N,/A12*%
X100965000Y-82537300D03*
%TO.P,U6,9,IN9*%
%TO.N,/A13*%
X98425000Y-82537300D03*
%TO.P,U6,10,IN10*%
%TO.N,/A14*%
X95885000Y-82537300D03*
%TO.P,U6,11,IN11*%
%TO.N,/A15*%
X93345000Y-82537300D03*
%TO.P,U6,12,GND*%
%TO.N,GND*%
X90805000Y-82537300D03*
%TO.P,U6,13,IN12*%
%TO.N,R~{W}*%
X90805000Y-90157300D03*
%TO.P,U6,14,IO13*%
%TO.N,FUTURE1*%
X93345000Y-90157300D03*
%TO.P,U6,15,IO14*%
%TO.N,FUTURE0*%
X95885000Y-90157300D03*
%TO.P,U6,16,IO15*%
%TO.N,unconnected-(U6-Pad16)*%
X98425000Y-90157300D03*
%TO.P,U6,17,IO16*%
%TO.N,~{UART_CS}*%
X100965000Y-90157300D03*
%TO.P,U6,18,IO17*%
%TO.N,~{PORT2_CS}*%
X103505000Y-90157300D03*
%TO.P,U6,19,IO18*%
%TO.N,~{PORT1_CS}*%
X106045000Y-90157300D03*
%TO.P,U6,20,IO19*%
%TO.N,~{PORT0_CS}*%
X108585000Y-90157300D03*
%TO.P,U6,21,IO20*%
%TO.N,~{RAM2_CS}*%
X111125000Y-90157300D03*
%TO.P,U6,22,IO21*%
%TO.N,~{RAM1_CS}*%
X113665000Y-90157300D03*
%TO.P,U6,23,IO22*%
%TO.N,~{ROM_CS}*%
X116205000Y-90157300D03*
%TO.P,U6,24,VCC*%
%TO.N,+5V*%
X118745000Y-90157300D03*
%TD*%
D12*
%TO.P,C11,1*%
%TO.N,+5V*%
X156972000Y-55041800D03*
%TO.P,C11,2*%
%TO.N,GND*%
X156972000Y-52541800D03*
%TD*%
D10*
%TO.P,U4,1,A14*%
%TO.N,/A14*%
X90678000Y-43370500D03*
D11*
%TO.P,U4,2,A12*%
%TO.N,/A12*%
X90678000Y-45910500D03*
%TO.P,U4,3,A7*%
%TO.N,/A7*%
X90678000Y-48450500D03*
%TO.P,U4,4,A6*%
%TO.N,/A6*%
X90678000Y-50990500D03*
%TO.P,U4,5,A5*%
%TO.N,/A5*%
X90678000Y-53530500D03*
%TO.P,U4,6,A4*%
%TO.N,/A4*%
X90678000Y-56070500D03*
%TO.P,U4,7,A3*%
%TO.N,/A3*%
X90678000Y-58610500D03*
%TO.P,U4,8,A2*%
%TO.N,/A2*%
X90678000Y-61150500D03*
%TO.P,U4,9,A1*%
%TO.N,/A1*%
X90678000Y-63690500D03*
%TO.P,U4,10,A0*%
%TO.N,/A0*%
X90678000Y-66230500D03*
%TO.P,U4,11,D0*%
%TO.N,/D0*%
X90678000Y-68770500D03*
%TO.P,U4,12,D1*%
%TO.N,/D1*%
X90678000Y-71310500D03*
%TO.P,U4,13,D2*%
%TO.N,/D2*%
X90678000Y-73850500D03*
%TO.P,U4,14,GND*%
%TO.N,GND*%
X90678000Y-76390500D03*
%TO.P,U4,15,D3*%
%TO.N,/D3*%
X105918000Y-76390500D03*
%TO.P,U4,16,D4*%
%TO.N,/D4*%
X105918000Y-73850500D03*
%TO.P,U4,17,D5*%
%TO.N,/D5*%
X105918000Y-71310500D03*
%TO.P,U4,18,D6*%
%TO.N,/D6*%
X105918000Y-68770500D03*
%TO.P,U4,19,D7*%
%TO.N,/D7*%
X105918000Y-66230500D03*
%TO.P,U4,20,~{CS}*%
%TO.N,~{ROM_CS}*%
X105918000Y-63690500D03*
%TO.P,U4,21,A10*%
%TO.N,/A10*%
X105918000Y-61150500D03*
%TO.P,U4,22,~{OE}*%
%TO.N,~{READ}*%
X105918000Y-58610500D03*
%TO.P,U4,23,A11*%
%TO.N,/A11*%
X105918000Y-56070500D03*
%TO.P,U4,24,A9*%
%TO.N,/A9*%
X105918000Y-53530500D03*
%TO.P,U4,25,A8*%
%TO.N,/A8*%
X105918000Y-50990500D03*
%TO.P,U4,26,A13*%
%TO.N,/A13*%
X105918000Y-48450500D03*
%TO.P,U4,27,~{WE}*%
%TO.N,+5V*%
X105918000Y-45910500D03*
%TO.P,U4,28,VCC*%
X105918000Y-43370500D03*
%TD*%
D10*
%TO.P,U3,1,A14*%
%TO.N,/A14*%
X113919000Y-43370500D03*
D11*
%TO.P,U3,2,A12*%
%TO.N,/A12*%
X113919000Y-45910500D03*
%TO.P,U3,3,A7*%
%TO.N,/A7*%
X113919000Y-48450500D03*
%TO.P,U3,4,A6*%
%TO.N,/A6*%
X113919000Y-50990500D03*
%TO.P,U3,5,A5*%
%TO.N,/A5*%
X113919000Y-53530500D03*
%TO.P,U3,6,A4*%
%TO.N,/A4*%
X113919000Y-56070500D03*
%TO.P,U3,7,A3*%
%TO.N,/A3*%
X113919000Y-58610500D03*
%TO.P,U3,8,A2*%
%TO.N,/A2*%
X113919000Y-61150500D03*
%TO.P,U3,9,A1*%
%TO.N,/A1*%
X113919000Y-63690500D03*
%TO.P,U3,10,A0*%
%TO.N,/A0*%
X113919000Y-66230500D03*
%TO.P,U3,11,Q0*%
%TO.N,/D0*%
X113919000Y-68770500D03*
%TO.P,U3,12,Q1*%
%TO.N,/D1*%
X113919000Y-71310500D03*
%TO.P,U3,13,Q2*%
%TO.N,/D2*%
X113919000Y-73850500D03*
%TO.P,U3,14,GND*%
%TO.N,GND*%
X113919000Y-76390500D03*
%TO.P,U3,15,Q3*%
%TO.N,/D3*%
X129159000Y-76390500D03*
%TO.P,U3,16,Q4*%
%TO.N,/D4*%
X129159000Y-73850500D03*
%TO.P,U3,17,Q5*%
%TO.N,/D5*%
X129159000Y-71310500D03*
%TO.P,U3,18,Q6*%
%TO.N,/D6*%
X129159000Y-68770500D03*
%TO.P,U3,19,Q7*%
%TO.N,/D7*%
X129159000Y-66230500D03*
%TO.P,U3,20,~{CS}*%
%TO.N,~{RAM2_CS}*%
X129159000Y-63690500D03*
%TO.P,U3,21,A10*%
%TO.N,/A10*%
X129159000Y-61150500D03*
%TO.P,U3,22,~{OE}*%
%TO.N,~{READ}*%
X129159000Y-58610500D03*
%TO.P,U3,23,A11*%
%TO.N,/A11*%
X129159000Y-56070500D03*
%TO.P,U3,24,A9*%
%TO.N,/A9*%
X129159000Y-53530500D03*
%TO.P,U3,25,A8*%
%TO.N,/A8*%
X129159000Y-50990500D03*
%TO.P,U3,26,A13*%
%TO.N,/A13*%
X129159000Y-48450500D03*
%TO.P,U3,27,~{WE}*%
%TO.N,~{WRITE}*%
X129159000Y-45910500D03*
%TO.P,U3,28,VCC*%
%TO.N,+5V*%
X129159000Y-43370500D03*
%TD*%
D10*
%TO.P,U2,1,A14*%
%TO.N,/A14*%
X137160000Y-43370500D03*
D11*
%TO.P,U2,2,A12*%
%TO.N,/A12*%
X137160000Y-45910500D03*
%TO.P,U2,3,A7*%
%TO.N,/A7*%
X137160000Y-48450500D03*
%TO.P,U2,4,A6*%
%TO.N,/A6*%
X137160000Y-50990500D03*
%TO.P,U2,5,A5*%
%TO.N,/A5*%
X137160000Y-53530500D03*
%TO.P,U2,6,A4*%
%TO.N,/A4*%
X137160000Y-56070500D03*
%TO.P,U2,7,A3*%
%TO.N,/A3*%
X137160000Y-58610500D03*
%TO.P,U2,8,A2*%
%TO.N,/A2*%
X137160000Y-61150500D03*
%TO.P,U2,9,A1*%
%TO.N,/A1*%
X137160000Y-63690500D03*
%TO.P,U2,10,A0*%
%TO.N,/A0*%
X137160000Y-66230500D03*
%TO.P,U2,11,Q0*%
%TO.N,/D0*%
X137160000Y-68770500D03*
%TO.P,U2,12,Q1*%
%TO.N,/D1*%
X137160000Y-71310500D03*
%TO.P,U2,13,Q2*%
%TO.N,/D2*%
X137160000Y-73850500D03*
%TO.P,U2,14,GND*%
%TO.N,GND*%
X137160000Y-76390500D03*
%TO.P,U2,15,Q3*%
%TO.N,/D3*%
X152400000Y-76390500D03*
%TO.P,U2,16,Q4*%
%TO.N,/D4*%
X152400000Y-73850500D03*
%TO.P,U2,17,Q5*%
%TO.N,/D5*%
X152400000Y-71310500D03*
%TO.P,U2,18,Q6*%
%TO.N,/D6*%
X152400000Y-68770500D03*
%TO.P,U2,19,Q7*%
%TO.N,/D7*%
X152400000Y-66230500D03*
%TO.P,U2,20,~{CS}*%
%TO.N,~{RAM1_CS}*%
X152400000Y-63690500D03*
%TO.P,U2,21,A10*%
%TO.N,/A10*%
X152400000Y-61150500D03*
%TO.P,U2,22,~{OE}*%
%TO.N,~{READ}*%
X152400000Y-58610500D03*
%TO.P,U2,23,A11*%
%TO.N,/A11*%
X152400000Y-56070500D03*
%TO.P,U2,24,A9*%
%TO.N,/A9*%
X152400000Y-53530500D03*
%TO.P,U2,25,A8*%
%TO.N,/A8*%
X152400000Y-50990500D03*
%TO.P,U2,26,A13*%
%TO.N,/A13*%
X152400000Y-48450500D03*
%TO.P,U2,27,~{WE}*%
%TO.N,~{WRITE}*%
X152400000Y-45910500D03*
%TO.P,U2,28,VCC*%
%TO.N,+5V*%
X152400000Y-43370500D03*
%TD*%
D12*
%TO.P,C13,1*%
%TO.N,+5V*%
X133223000Y-44297600D03*
%TO.P,C13,2*%
%TO.N,GND*%
X133223000Y-46797600D03*
%TD*%
D10*
%TO.P,X1,1,EN*%
%TO.N,unconnected-(X1-Pad1)*%
X130785000Y-90373200D03*
D12*
%TO.P,X1,4,GND*%
%TO.N,GND*%
X138405000Y-90373200D03*
%TO.P,X1,5,OUT*%
%TO.N,CLK*%
X138405000Y-82753200D03*
%TO.P,X1,8,Vcc*%
%TO.N,+5V*%
X130785000Y-82753200D03*
%TD*%
D13*
%TO.P,J1,6,Shield*%
%TO.N,unconnected-(J1-Pad6)*%
X185091000Y-108976600D03*
X185091000Y-116726600D03*
D14*
X181291000Y-109126600D03*
X181291000Y-116576600D03*
%TD*%
D12*
%TO.P,R1,1*%
%TO.N,Net-(D1-Pad1)*%
X173888000Y-130696000D03*
D11*
%TO.P,R1,2*%
%TO.N,GND*%
X173888000Y-123076000D03*
%TD*%
D15*
%TO.P,Q1,1,E*%
%TO.N,Net-(D1-Pad2)*%
X162611000Y-130315000D03*
D16*
%TO.P,Q1,2,B*%
%TO.N,Net-(Q1-Pad2)*%
X163881000Y-129045000D03*
%TO.P,Q1,3,C*%
%TO.N,+5V*%
X165151000Y-130315000D03*
%TD*%
D17*
%TO.P,D1,1,K*%
%TO.N,Net-(D1-Pad1)*%
X173533000Y-135712000D03*
D18*
%TO.P,D1,2,A*%
%TO.N,Net-(D1-Pad2)*%
X170993000Y-135712000D03*
%TD*%
D15*
%TO.P,U7,1,~{RES}*%
%TO.N,~{RES}*%
X162611000Y-124028000D03*
D16*
%TO.P,U7,2,VCC*%
%TO.N,+5V*%
X163881000Y-122758000D03*
%TO.P,U7,3,GND*%
%TO.N,GND*%
X165151000Y-124028000D03*
%TD*%
D12*
%TO.P,R4,1*%
%TO.N,Net-(Q1-Pad2)*%
X169532000Y-130746000D03*
D11*
%TO.P,R4,2*%
%TO.N,~{RES}*%
X169532000Y-123126000D03*
%TD*%
D12*
%TO.P,C12,1*%
%TO.N,+5V*%
X156947000Y-43459400D03*
%TO.P,C12,2*%
%TO.N,GND*%
X156947000Y-45959400D03*
%TD*%
%TO.P,C14,1*%
%TO.N,+5V*%
X109918000Y-43307000D03*
%TO.P,C14,2*%
%TO.N,GND*%
X109918000Y-45807000D03*
%TD*%
%TO.P,C17,1*%
%TO.N,+5V*%
X157036000Y-76657200D03*
%TO.P,C17,2*%
%TO.N,GND*%
X157036000Y-74157200D03*
%TD*%
%TO.P,C18,1*%
%TO.N,+5V*%
X165791200Y-104952800D03*
%TO.P,C18,2*%
%TO.N,GND*%
X163291200Y-104952800D03*
%TD*%
D19*
%TO.P,U5,1,NC1*%
%TO.N,unconnected-(U5-Pad1)*%
X166116000Y-79679800D03*
D20*
%TO.P,U5,2,A0*%
%TO.N,/A0*%
X163576000Y-82219800D03*
%TO.P,U5,3,IP3*%
%TO.N,unconnected-(U5-Pad3)*%
X166116000Y-82219800D03*
%TO.P,U5,4,A1*%
%TO.N,/A1*%
X163576000Y-84759800D03*
%TO.P,U5,5,IP1*%
%TO.N,unconnected-(U5-Pad5)*%
X166116000Y-84759800D03*
%TO.P,U5,6,A2*%
%TO.N,/A2*%
X163576000Y-87299800D03*
%TO.P,U5,7,A3*%
%TO.N,/A3*%
X166116000Y-89839800D03*
%TO.P,U5,8,IP0*%
%TO.N,~{CTS}*%
X166116000Y-87299800D03*
%TO.P,U5,9,~{WRN}*%
%TO.N,~{WRITE}*%
X168656000Y-89839800D03*
%TO.P,U5,10,~{RDN}*%
%TO.N,~{READ}*%
X168656000Y-87299800D03*
%TO.P,U5,11,RxDB*%
%TO.N,unconnected-(U5-Pad11)*%
X171196000Y-89839800D03*
%TO.P,U5,12,I/M*%
%TO.N,+5V*%
X171196000Y-87299800D03*
%TO.P,U5,13,TxDB*%
%TO.N,unconnected-(U5-Pad13)*%
X173736000Y-89839800D03*
%TO.P,U5,14,OP1*%
%TO.N,unconnected-(U5-Pad14)*%
X173736000Y-87299800D03*
%TO.P,U5,15,OP3*%
%TO.N,unconnected-(U5-Pad15)*%
X176276000Y-89839800D03*
%TO.P,U5,16,OP5*%
%TO.N,unconnected-(U5-Pad16)*%
X176276000Y-87299800D03*
%TO.P,U5,17,OP7*%
%TO.N,unconnected-(U5-Pad17)*%
X178816000Y-89839800D03*
%TO.P,U5,18,D1*%
%TO.N,/D1*%
X181356000Y-87299800D03*
%TO.P,U5,19,D3*%
%TO.N,/D3*%
X178816000Y-87299800D03*
%TO.P,U5,20,D5*%
%TO.N,/D5*%
X181356000Y-84759800D03*
%TO.P,U5,21,D7*%
%TO.N,/D7*%
X178816000Y-84759800D03*
%TO.P,U5,22,GND*%
%TO.N,GND*%
X181356000Y-82219800D03*
%TO.P,U5,23,NC23*%
%TO.N,unconnected-(U5-Pad23)*%
X178816000Y-82219800D03*
%TO.P,U5,24,~{INTRN}*%
%TO.N,~{UART_IRQ}*%
X181356000Y-79679800D03*
%TO.P,U5,25,D6*%
%TO.N,/D6*%
X178816000Y-79679800D03*
%TO.P,U5,26,D4*%
%TO.N,/D4*%
X181356000Y-77139800D03*
%TO.P,U5,27,D2*%
%TO.N,/D2*%
X178816000Y-77139800D03*
%TO.P,U5,28,D0*%
%TO.N,/D0*%
X181356000Y-74599800D03*
%TO.P,U5,29,OP6*%
%TO.N,unconnected-(U5-Pad29)*%
X178816000Y-72059800D03*
%TO.P,U5,30,OP4*%
%TO.N,unconnected-(U5-Pad30)*%
X178816000Y-74599800D03*
%TO.P,U5,31,OP2*%
%TO.N,unconnected-(U5-Pad31)*%
X176276000Y-72059800D03*
%TO.P,U5,32,OP0*%
%TO.N,~{RTS}*%
X176276000Y-74599800D03*
%TO.P,U5,33,TxDA*%
%TO.N,TxD*%
X173736000Y-72059800D03*
%TO.P,U5,34,NC34*%
%TO.N,unconnected-(U5-Pad34)*%
X173736000Y-74599800D03*
%TO.P,U5,35,RxDA*%
%TO.N,RxD*%
X171196000Y-72059800D03*
%TO.P,U5,36,X1/CLK*%
%TO.N,CLK*%
X171196000Y-74599800D03*
%TO.P,U5,37,X2*%
%TO.N,unconnected-(U5-Pad37)*%
X168656000Y-72059800D03*
%TO.P,U5,38,RESET*%
%TO.N,UART_RES*%
X168656000Y-74599800D03*
%TO.P,U5,39,~{CEN}*%
%TO.N,~{UART_CS}*%
X166116000Y-72059800D03*
%TO.P,U5,40,IP2*%
%TO.N,unconnected-(U5-Pad40)*%
X163576000Y-74599800D03*
%TO.P,U5,41,IP6*%
%TO.N,unconnected-(U5-Pad41)*%
X166116000Y-74599800D03*
%TO.P,U5,42,IP5*%
%TO.N,unconnected-(U5-Pad42)*%
X163576000Y-77139800D03*
%TO.P,U5,43,IP4*%
%TO.N,unconnected-(U5-Pad43)*%
X166116000Y-77139800D03*
%TO.P,U5,44,VCC*%
%TO.N,+5V*%
X163576000Y-79679800D03*
%TD*%
D12*
%TO.P,C15,1*%
%TO.N,GND*%
X124282000Y-89179400D03*
%TO.P,C15,2*%
%TO.N,+5V*%
X124282000Y-91679400D03*
%TD*%
D21*
%TO.P,J6,1,Pin_1*%
%TO.N,PORT0_IRQ_PULLUP*%
X157569000Y-129489000D03*
D22*
%TO.P,J6,2,Pin_2*%
%TO.N,Net-(J6-Pad2)*%
X157569000Y-132029000D03*
%TO.P,J6,3,Pin_3*%
%TO.N,PORT0_NMI_PULLUP*%
X155029000Y-129489000D03*
%TO.P,J6,4,Pin_4*%
%TO.N,Net-(J6-Pad4)*%
X155029000Y-132029000D03*
%TO.P,J6,5,Pin_5*%
%TO.N,PORT1_IRQ_PULLUP*%
X152489000Y-129489000D03*
%TO.P,J6,6,Pin_6*%
%TO.N,Net-(J6-Pad6)*%
X152489000Y-132029000D03*
%TO.P,J6,7,Pin_7*%
%TO.N,PORT1_NMI_PULLUP*%
X149949000Y-129489000D03*
%TO.P,J6,8,Pin_8*%
%TO.N,Net-(J6-Pad8)*%
X149949000Y-132029000D03*
%TO.P,J6,9,Pin_9*%
%TO.N,PORT2_IRQ_PULLUP*%
X147409000Y-129489000D03*
%TO.P,J6,10,Pin_10*%
%TO.N,Net-(J6-Pad10)*%
X147409000Y-132029000D03*
%TO.P,J6,11,Pin_11*%
%TO.N,PORT2_NMI_PULLUP*%
X144869000Y-129489000D03*
%TO.P,J6,12,Pin_12*%
%TO.N,Net-(J6-Pad12)*%
X144869000Y-132029000D03*
%TD*%
D10*
%TO.P,RN1,1,common*%
%TO.N,+5V*%
X165176000Y-136233000D03*
D11*
%TO.P,RN1,2,R1*%
%TO.N,RDY_PULLUP*%
X162636000Y-136233000D03*
%TO.P,RN1,3,R2*%
%TO.N,Net-(J6-Pad2)*%
X160096000Y-136233000D03*
%TO.P,RN1,4,R3*%
%TO.N,Net-(J6-Pad4)*%
X157556000Y-136233000D03*
%TO.P,RN1,5,R4*%
%TO.N,Net-(J6-Pad6)*%
X155016000Y-136233000D03*
%TO.P,RN1,6,R5*%
%TO.N,Net-(J6-Pad8)*%
X152476000Y-136233000D03*
%TO.P,RN1,7,R6*%
%TO.N,Net-(J6-Pad10)*%
X149936000Y-136233000D03*
%TO.P,RN1,8,R7*%
%TO.N,Net-(J6-Pad12)*%
X147396000Y-136233000D03*
%TO.P,RN1,9,R8*%
%TO.N,BE_PULLUP*%
X144856000Y-136233000D03*
%TD*%
D12*
%TO.P,C9,1*%
%TO.N,+5V*%
X157048000Y-103289000D03*
%TO.P,C9,2*%
%TO.N,GND*%
X157048000Y-105789000D03*
%TD*%
D10*
%TO.P,U9,1*%
%TO.N,PORT0_IRQ_PULLUP*%
X144856000Y-103314000D03*
D11*
%TO.P,U9,2*%
%TO.N,PORT1_IRQ_PULLUP*%
X144856000Y-105854000D03*
%TO.P,U9,3*%
%TO.N,N/C*%
X144856000Y-108394000D03*
%TO.P,U9,4*%
%TO.N,PORT2_IRQ_PULLUP*%
X144856000Y-110934000D03*
%TO.P,U9,5*%
%TO.N,~{UART_IRQ}*%
X144856000Y-113474000D03*
%TO.P,U9,6*%
%TO.N,~{IRQ}*%
X144856000Y-116014000D03*
%TO.P,U9,7,GND*%
%TO.N,GND*%
X144856000Y-118554000D03*
%TO.P,U9,8*%
%TO.N,~{NMI}*%
X152476000Y-118554000D03*
%TO.P,U9,9*%
%TO.N,PORT0_NMI_PULLUP*%
X152476000Y-116014000D03*
%TO.P,U9,10*%
%TO.N,PORT1_NMI_PULLUP*%
X152476000Y-113474000D03*
%TO.P,U9,11*%
%TO.N,N/C*%
X152476000Y-110934000D03*
%TO.P,U9,12*%
%TO.N,PORT2_NMI_PULLUP*%
X152476000Y-108394000D03*
%TO.P,U9,13*%
%TO.N,+5V*%
X152476000Y-105854000D03*
%TO.P,U9,14,VCC*%
X152476000Y-103314000D03*
%TD*%
D10*
%TO.P,U10,1*%
%TO.N,Net-(U10-Pad1)*%
X144831000Y-81559400D03*
D11*
%TO.P,U10,2*%
%TO.N,CLK*%
X144831000Y-84099400D03*
%TO.P,U10,3*%
%TO.N,~{WRITE}*%
X144831000Y-86639400D03*
%TO.P,U10,4*%
%TO.N,CLK*%
X144831000Y-89179400D03*
%TO.P,U10,5*%
%TO.N,R~{W}*%
X144831000Y-91719400D03*
%TO.P,U10,6*%
%TO.N,~{READ}*%
X144831000Y-94259400D03*
%TO.P,U10,7,GND*%
%TO.N,GND*%
X144831000Y-96799400D03*
%TO.P,U10,8*%
%TO.N,Net-(U10-Pad1)*%
X152451000Y-96799400D03*
%TO.P,U10,9*%
%TO.N,R~{W}*%
X152451000Y-94259400D03*
%TO.P,U10,10*%
X152451000Y-91719400D03*
%TO.P,U10,11*%
%TO.N,UART_RES*%
X152451000Y-89179400D03*
%TO.P,U10,12*%
%TO.N,~{RES}*%
X152451000Y-86639400D03*
%TO.P,U10,13*%
X152451000Y-84099400D03*
%TO.P,U10,14,VCC*%
%TO.N,+5V*%
X152451000Y-81559400D03*
%TD*%
D12*
%TO.P,C1,1*%
%TO.N,GND*%
X157036000Y-84048600D03*
%TO.P,C1,2*%
%TO.N,+5V*%
X157036000Y-81548600D03*
%TD*%
D21*
%TO.P,J3,1,Pin_1*%
%TO.N,+5V*%
X95539600Y-115603000D03*
D22*
%TO.P,J3,2,Pin_2*%
X95539600Y-118143000D03*
%TO.P,J3,3,Pin_3*%
%TO.N,GND*%
X98079600Y-115603000D03*
%TO.P,J3,4,Pin_4*%
X98079600Y-118143000D03*
%TO.P,J3,5,Pin_5*%
%TO.N,/A0*%
X100619600Y-115603000D03*
%TO.P,J3,6,Pin_6*%
%TO.N,/D0*%
X100619600Y-118143000D03*
%TO.P,J3,7,Pin_7*%
%TO.N,/A1*%
X103159600Y-115603000D03*
%TO.P,J3,8,Pin_8*%
%TO.N,/D1*%
X103159600Y-118143000D03*
%TO.P,J3,9,Pin_9*%
%TO.N,/A2*%
X105699600Y-115603000D03*
%TO.P,J3,10,Pin_10*%
%TO.N,/D2*%
X105699600Y-118143000D03*
%TO.P,J3,11,Pin_11*%
%TO.N,/A3*%
X108239600Y-115603000D03*
%TO.P,J3,12,Pin_12*%
%TO.N,/D3*%
X108239600Y-118143000D03*
%TO.P,J3,13,Pin_13*%
%TO.N,/A4*%
X110779600Y-115603000D03*
%TO.P,J3,14,Pin_14*%
%TO.N,/D4*%
X110779600Y-118143000D03*
%TO.P,J3,15,Pin_15*%
%TO.N,/A5*%
X113319600Y-115603000D03*
%TO.P,J3,16,Pin_16*%
%TO.N,/D5*%
X113319600Y-118143000D03*
%TO.P,J3,17,Pin_17*%
%TO.N,~{PORT1_CS}*%
X115859600Y-115603000D03*
%TO.P,J3,18,Pin_18*%
%TO.N,/D6*%
X115859600Y-118143000D03*
%TO.P,J3,19,Pin_19*%
%TO.N,R~{W}*%
X118399600Y-115603000D03*
%TO.P,J3,20,Pin_20*%
%TO.N,/D7*%
X118399600Y-118143000D03*
%TO.P,J3,21,Pin_21*%
%TO.N,CLK*%
X120939600Y-115603000D03*
%TO.P,J3,22,Pin_22*%
%TO.N,PORT1_IRQ_PULLUP*%
X120939600Y-118143000D03*
%TO.P,J3,23,Pin_23*%
%TO.N,~{RES}*%
X123479600Y-115603000D03*
%TO.P,J3,24,Pin_24*%
%TO.N,PORT1_NMI_PULLUP*%
X123479600Y-118143000D03*
%TO.P,J3,25,Pin_25*%
%TO.N,FUTURE0*%
X126019600Y-115603000D03*
%TO.P,J3,26,Pin_26*%
%TO.N,~{READ}*%
X126019600Y-118143000D03*
%TO.P,J3,27,Pin_27*%
%TO.N,FUTURE1*%
X128559600Y-115603000D03*
%TO.P,J3,28,Pin_28*%
%TO.N,~{WRITE}*%
X128559600Y-118143000D03*
%TO.P,J3,29,Pin_29*%
%TO.N,+5V*%
X131099600Y-115603000D03*
%TO.P,J3,30,Pin_30*%
X131099600Y-118143000D03*
%TO.P,J3,31,Pin_31*%
%TO.N,GND*%
X133639600Y-115603000D03*
%TO.P,J3,32,Pin_32*%
X133639600Y-118143000D03*
%TD*%
D12*
%TO.P,C8,1*%
%TO.N,+5V*%
X138770000Y-118161000D03*
%TO.P,C8,2*%
%TO.N,GND*%
X138770000Y-115661000D03*
%TD*%
%TO.P,C7,1*%
%TO.N,GND*%
X90723700Y-118516000D03*
%TO.P,C7,2*%
%TO.N,+5V*%
X90723700Y-116016000D03*
%TD*%
D21*
%TO.P,J4,1,Pin_1*%
%TO.N,+5V*%
X95541800Y-133560000D03*
D22*
%TO.P,J4,2,Pin_2*%
X95541800Y-136100000D03*
%TO.P,J4,3,Pin_3*%
%TO.N,GND*%
X98081800Y-133560000D03*
%TO.P,J4,4,Pin_4*%
X98081800Y-136100000D03*
%TO.P,J4,5,Pin_5*%
%TO.N,/A0*%
X100621800Y-133560000D03*
%TO.P,J4,6,Pin_6*%
%TO.N,/D0*%
X100621800Y-136100000D03*
%TO.P,J4,7,Pin_7*%
%TO.N,/A1*%
X103161800Y-133560000D03*
%TO.P,J4,8,Pin_8*%
%TO.N,/D1*%
X103161800Y-136100000D03*
%TO.P,J4,9,Pin_9*%
%TO.N,/A2*%
X105701800Y-133560000D03*
%TO.P,J4,10,Pin_10*%
%TO.N,/D2*%
X105701800Y-136100000D03*
%TO.P,J4,11,Pin_11*%
%TO.N,/A3*%
X108241800Y-133560000D03*
%TO.P,J4,12,Pin_12*%
%TO.N,/D3*%
X108241800Y-136100000D03*
%TO.P,J4,13,Pin_13*%
%TO.N,/A4*%
X110781800Y-133560000D03*
%TO.P,J4,14,Pin_14*%
%TO.N,/D4*%
X110781800Y-136100000D03*
%TO.P,J4,15,Pin_15*%
%TO.N,/A5*%
X113321800Y-133560000D03*
%TO.P,J4,16,Pin_16*%
%TO.N,/D5*%
X113321800Y-136100000D03*
%TO.P,J4,17,Pin_17*%
%TO.N,~{PORT2_CS}*%
X115861800Y-133560000D03*
%TO.P,J4,18,Pin_18*%
%TO.N,/D6*%
X115861800Y-136100000D03*
%TO.P,J4,19,Pin_19*%
%TO.N,R~{W}*%
X118401800Y-133560000D03*
%TO.P,J4,20,Pin_20*%
%TO.N,/D7*%
X118401800Y-136100000D03*
%TO.P,J4,21,Pin_21*%
%TO.N,CLK*%
X120941800Y-133560000D03*
%TO.P,J4,22,Pin_22*%
%TO.N,PORT2_IRQ_PULLUP*%
X120941800Y-136100000D03*
%TO.P,J4,23,Pin_23*%
%TO.N,~{RES}*%
X123481800Y-133560000D03*
%TO.P,J4,24,Pin_24*%
%TO.N,PORT2_NMI_PULLUP*%
X123481800Y-136100000D03*
%TO.P,J4,25,Pin_25*%
%TO.N,FUTURE0*%
X126021800Y-133560000D03*
%TO.P,J4,26,Pin_26*%
%TO.N,~{READ}*%
X126021800Y-136100000D03*
%TO.P,J4,27,Pin_27*%
%TO.N,FUTURE1*%
X128561800Y-133560000D03*
%TO.P,J4,28,Pin_28*%
%TO.N,~{WRITE}*%
X128561800Y-136100000D03*
%TO.P,J4,29,Pin_29*%
%TO.N,+5V*%
X131101800Y-133560000D03*
%TO.P,J4,30,Pin_30*%
X131101800Y-136100000D03*
%TO.P,J4,31,Pin_31*%
%TO.N,GND*%
X133641800Y-133560000D03*
%TO.P,J4,32,Pin_32*%
X133641800Y-136100000D03*
%TD*%
D12*
%TO.P,C4,1*%
%TO.N,+5V*%
X138803000Y-136068000D03*
%TO.P,C4,2*%
%TO.N,GND*%
X138803000Y-133568000D03*
%TD*%
%TO.P,C3,1*%
%TO.N,GND*%
X90723700Y-136063000D03*
%TO.P,C3,2*%
%TO.N,+5V*%
X90723700Y-133563000D03*
%TD*%
D21*
%TO.P,J2,1,Pin_1*%
%TO.N,+5V*%
X95539600Y-97637600D03*
D22*
%TO.P,J2,2,Pin_2*%
X95539600Y-100177600D03*
%TO.P,J2,3,Pin_3*%
%TO.N,GND*%
X98079600Y-97637600D03*
%TO.P,J2,4,Pin_4*%
X98079600Y-100177600D03*
%TO.P,J2,5,Pin_5*%
%TO.N,/A0*%
X100619600Y-97637600D03*
%TO.P,J2,6,Pin_6*%
%TO.N,/D0*%
X100619600Y-100177600D03*
%TO.P,J2,7,Pin_7*%
%TO.N,/A1*%
X103159600Y-97637600D03*
%TO.P,J2,8,Pin_8*%
%TO.N,/D1*%
X103159600Y-100177600D03*
%TO.P,J2,9,Pin_9*%
%TO.N,/A2*%
X105699600Y-97637600D03*
%TO.P,J2,10,Pin_10*%
%TO.N,/D2*%
X105699600Y-100177600D03*
%TO.P,J2,11,Pin_11*%
%TO.N,/A3*%
X108239600Y-97637600D03*
%TO.P,J2,12,Pin_12*%
%TO.N,/D3*%
X108239600Y-100177600D03*
%TO.P,J2,13,Pin_13*%
%TO.N,/A4*%
X110779600Y-97637600D03*
%TO.P,J2,14,Pin_14*%
%TO.N,/D4*%
X110779600Y-100177600D03*
%TO.P,J2,15,Pin_15*%
%TO.N,/A5*%
X113319600Y-97637600D03*
%TO.P,J2,16,Pin_16*%
%TO.N,/D5*%
X113319600Y-100177600D03*
%TO.P,J2,17,Pin_17*%
%TO.N,~{PORT0_CS}*%
X115859600Y-97637600D03*
%TO.P,J2,18,Pin_18*%
%TO.N,/D6*%
X115859600Y-100177600D03*
%TO.P,J2,19,Pin_19*%
%TO.N,R~{W}*%
X118399600Y-97637600D03*
%TO.P,J2,20,Pin_20*%
%TO.N,/D7*%
X118399600Y-100177600D03*
%TO.P,J2,21,Pin_21*%
%TO.N,CLK*%
X120939600Y-97637600D03*
%TO.P,J2,22,Pin_22*%
%TO.N,PORT0_IRQ_PULLUP*%
X120939600Y-100177600D03*
%TO.P,J2,23,Pin_23*%
%TO.N,~{RES}*%
X123479600Y-97637600D03*
%TO.P,J2,24,Pin_24*%
%TO.N,PORT0_NMI_PULLUP*%
X123479600Y-100177600D03*
%TO.P,J2,25,Pin_25*%
%TO.N,FUTURE0*%
X126019600Y-97637600D03*
%TO.P,J2,26,Pin_26*%
%TO.N,~{READ}*%
X126019600Y-100177600D03*
%TO.P,J2,27,Pin_27*%
%TO.N,FUTURE1*%
X128559600Y-97637600D03*
%TO.P,J2,28,Pin_28*%
%TO.N,~{WRITE}*%
X128559600Y-100177600D03*
%TO.P,J2,29,Pin_29*%
%TO.N,+5V*%
X131099600Y-97637600D03*
%TO.P,J2,30,Pin_30*%
X131099600Y-100177600D03*
%TO.P,J2,31,Pin_31*%
%TO.N,GND*%
X133639600Y-97637600D03*
%TO.P,J2,32,Pin_32*%
X133639600Y-100177600D03*
%TD*%
D12*
%TO.P,C6,1*%
%TO.N,+5V*%
X138719000Y-100101000D03*
%TO.P,C6,2*%
%TO.N,GND*%
X138719000Y-97601000D03*
%TD*%
%TO.P,C5,1*%
%TO.N,GND*%
X90723700Y-100101000D03*
%TO.P,C5,2*%
%TO.N,+5V*%
X90723700Y-97601000D03*
%TD*%
D19*
%TO.P,U1,1,VSS*%
%TO.N,GND*%
X165964000Y-52730400D03*
D20*
%TO.P,U1,2,~{VP}*%
%TO.N,unconnected-(U1-Pad2)*%
X163424000Y-55270400D03*
%TO.P,U1,3,RDY*%
%TO.N,RDY_PULLUP*%
X165964000Y-55270400D03*
%TO.P,U1,4,\u03D51*%
%TO.N,unconnected-(U1-Pad4)*%
X163424000Y-57810400D03*
%TO.P,U1,5,~{IRQ}*%
%TO.N,~{IRQ}*%
X165964000Y-57810400D03*
%TO.P,U1,6,~{ML}*%
%TO.N,unconnected-(U1-Pad6)*%
X163424000Y-60350400D03*
%TO.P,U1,7,~{NMI}*%
%TO.N,~{NMI}*%
X165964000Y-62890400D03*
%TO.P,U1,8,SYNC*%
%TO.N,unconnected-(U1-Pad8)*%
X165964000Y-60350400D03*
%TO.P,U1,9,VDD*%
%TO.N,+5V*%
X168504000Y-62890400D03*
%TO.P,U1,10,A0*%
%TO.N,/A0*%
X168504000Y-60350400D03*
%TO.P,U1,11,A1*%
%TO.N,/A1*%
X171044000Y-62890400D03*
%TO.P,U1,12,nc*%
%TO.N,unconnected-(U1-Pad12)*%
X171044000Y-60350400D03*
%TO.P,U1,13,A2*%
%TO.N,/A2*%
X173584000Y-62890400D03*
%TO.P,U1,14,A3*%
%TO.N,/A3*%
X173584000Y-60350400D03*
%TO.P,U1,15,A4*%
%TO.N,/A4*%
X176124000Y-62890400D03*
%TO.P,U1,16,A5*%
%TO.N,/A5*%
X176124000Y-60350400D03*
%TO.P,U1,17,A6*%
%TO.N,/A6*%
X178664000Y-62890400D03*
%TO.P,U1,18,A7*%
%TO.N,/A7*%
X181204000Y-60350400D03*
%TO.P,U1,19,A8*%
%TO.N,/A8*%
X178664000Y-60350400D03*
%TO.P,U1,20,A9*%
%TO.N,/A9*%
X181204000Y-57810400D03*
%TO.P,U1,21,A10*%
%TO.N,/A10*%
X178664000Y-57810400D03*
%TO.P,U1,22,A11*%
%TO.N,/A11*%
X181204000Y-55270400D03*
%TO.P,U1,23,VSS*%
%TO.N,GND*%
X178664000Y-55270400D03*
%TO.P,U1,24,VSS*%
X181204000Y-52730400D03*
%TO.P,U1,25,A12*%
%TO.N,/A12*%
X178664000Y-52730400D03*
%TO.P,U1,26,A13*%
%TO.N,/A13*%
X181204000Y-50190400D03*
%TO.P,U1,27,A14*%
%TO.N,/A14*%
X178664000Y-50190400D03*
%TO.P,U1,28,A15*%
%TO.N,/A15*%
X181204000Y-47650400D03*
%TO.P,U1,29,D7*%
%TO.N,/D7*%
X178664000Y-45110400D03*
%TO.P,U1,30,D6*%
%TO.N,/D6*%
X178664000Y-47650400D03*
%TO.P,U1,31,D5*%
%TO.N,/D5*%
X176124000Y-45110400D03*
%TO.P,U1,32,D4*%
%TO.N,/D4*%
X176124000Y-47650400D03*
%TO.P,U1,33,D3*%
%TO.N,/D3*%
X173584000Y-45110400D03*
%TO.P,U1,34,D2*%
%TO.N,/D2*%
X173584000Y-47650400D03*
%TO.P,U1,35,D1*%
%TO.N,/D1*%
X171044000Y-45110400D03*
%TO.P,U1,36,D0*%
%TO.N,/D0*%
X171044000Y-47650400D03*
%TO.P,U1,37,VDD*%
%TO.N,+5V*%
X168504000Y-45110400D03*
%TO.P,U1,38,R/~{W}*%
%TO.N,R~{W}*%
X168504000Y-47650400D03*
%TO.P,U1,39,nc*%
%TO.N,unconnected-(U1-Pad39)*%
X165964000Y-45110400D03*
%TO.P,U1,40,BE*%
%TO.N,BE_PULLUP*%
X163424000Y-47650400D03*
%TO.P,U1,41,\u03D50*%
%TO.N,CLK*%
X165964000Y-47650400D03*
%TO.P,U1,42,~{SO}*%
%TO.N,+5V*%
X163424000Y-50190400D03*
%TO.P,U1,43,\u03D52O*%
%TO.N,unconnected-(U1-Pad43)*%
X165964000Y-50190400D03*
%TO.P,U1,44,~{RES}*%
%TO.N,~{RES}*%
X163424000Y-52730400D03*
%TD*%
D12*
%TO.P,C16,1*%
%TO.N,GND*%
X124244000Y-83997800D03*
%TO.P,C16,2*%
%TO.N,+5V*%
X124244000Y-81497800D03*
%TD*%
D23*
%TO.P,SW1,1,C*%
%TO.N,~{RES}*%
X184236000Y-132182000D03*
X177736000Y-132182000D03*
%TO.P,SW1,2,D*%
%TO.N,GND*%
X184236000Y-136682000D03*
X177736000Y-136682000D03*
%TD*%
D12*
%TO.P,R2,1*%
%TO.N,~{UART_IRQ}*%
X138735000Y-111679000D03*
D11*
%TO.P,R2,2*%
%TO.N,+5V*%
X138735000Y-104059000D03*
%TD*%
D10*
%TO.P,C2,1*%
%TO.N,+5V*%
X174193200Y-111278149D03*
D12*
%TO.P,C2,2*%
%TO.N,GND*%
X174193200Y-115078149D03*
%TD*%
%TO.P,C10,1*%
%TO.N,Net-(C10-Pad1)*%
X157048200Y-112166400D03*
%TO.P,C10,2*%
%TO.N,GND*%
X157048200Y-109666400D03*
%TD*%
%TO.P,R5,1*%
%TO.N,Net-(D3-Pad1)*%
X177190400Y-103050000D03*
D11*
%TO.P,R5,2*%
%TO.N,TxD*%
X169570400Y-103050000D03*
%TD*%
D17*
%TO.P,D2,1,K*%
%TO.N,Net-(D2-Pad1)*%
X181000400Y-97028000D03*
D18*
%TO.P,D2,2,A*%
%TO.N,+5V*%
X183540400Y-97028000D03*
%TD*%
D17*
%TO.P,D3,1,K*%
%TO.N,Net-(D3-Pad1)*%
X181000400Y-103035000D03*
D18*
%TO.P,D3,2,A*%
%TO.N,+5V*%
X183540400Y-103035000D03*
%TD*%
D12*
%TO.P,R3,1*%
%TO.N,Net-(D2-Pad1)*%
X177190400Y-97028000D03*
D11*
%TO.P,R3,2*%
%TO.N,RxD*%
X169570400Y-97028000D03*
%TD*%
D24*
%TO.N,GND*%
X179832000Y-111099600D03*
%TO.N,+5V*%
X171170600Y-85725000D03*
X179832000Y-114909600D03*
X171221400Y-91465400D03*
%TO.N,~{RES}*%
X149008600Y-92954700D03*
%TO.N,/A0*%
X164413600Y-65804900D03*
%TO.N,/A2*%
X104574800Y-62254000D03*
%TO.N,/A4*%
X143818900Y-62493600D03*
%TO.N,/A5*%
X140962600Y-56255800D03*
%TO.N,/D5*%
X125057100Y-94062500D03*
%TO.N,PORT0_IRQ_PULLUP*%
X147053700Y-123981400D03*
%TO.N,FUTURE0*%
X121183100Y-87197100D03*
%TO.N,FUTURE1*%
X121928000Y-86519800D03*
%TO.N,~{RAM2_CS}*%
X122635400Y-88042200D03*
%TO.N,~{RAM1_CS}*%
X131440900Y-85373300D03*
%TO.N,~{ROM_CS}*%
X111235500Y-91566900D03*
%TO.N,~{RTS}*%
X172747500Y-103445950D03*
X169367200Y-117398800D03*
%TD*%
D25*
%TO.N,~{RES}*%
X168454700Y-123126000D02*
X166625400Y-124955300D01*
X146410000Y-123100700D02*
X140345600Y-117036300D01*
X123479600Y-115603000D02*
X124606900Y-115603000D01*
X169532000Y-123126000D02*
X168454700Y-123126000D01*
X137093600Y-117036300D02*
X134503700Y-114446400D01*
X123479600Y-97637600D02*
X124606900Y-97637600D01*
X162611000Y-124028000D02*
X161683700Y-124028000D01*
X125529900Y-114446400D02*
X124606900Y-115369400D01*
X164465600Y-124955300D02*
X163538300Y-124028000D01*
X129007900Y-92954700D02*
X149008600Y-92954700D01*
X124606900Y-97637600D02*
X124606900Y-97355700D01*
X166625400Y-124955300D02*
X164465600Y-124955300D01*
X134503700Y-114446400D02*
X125529900Y-114446400D01*
X160756400Y-123100700D02*
X146410000Y-123100700D01*
X124606900Y-115369400D02*
X124606900Y-115603000D01*
X184236000Y-132182000D02*
X177736000Y-132182000D01*
X124606900Y-97355700D02*
X129007900Y-92954700D01*
X140345600Y-117036300D02*
X137093600Y-117036300D01*
X162611000Y-124028000D02*
X163538300Y-124028000D01*
X161683700Y-124028000D02*
X160756400Y-123100700D01*
%TO.N,/A0*%
X114996300Y-66230500D02*
X116080100Y-65146700D01*
X134998900Y-65146700D02*
X136082700Y-66230500D01*
X100619600Y-97637600D02*
X100619600Y-98764900D01*
X92842500Y-65143300D02*
X111754500Y-65143300D01*
X139321100Y-65146700D02*
X163755400Y-65146700D01*
X101748300Y-100677400D02*
X100619600Y-101806100D01*
X90678000Y-66230500D02*
X91755300Y-66230500D01*
X100901400Y-98764900D02*
X101748300Y-99611800D01*
X116080100Y-65146700D02*
X134998900Y-65146700D01*
X137160000Y-66230500D02*
X136082700Y-66230500D01*
X91755300Y-66230500D02*
X92842500Y-65143300D01*
X101748300Y-99611800D02*
X101748300Y-100677400D01*
X100619600Y-98764900D02*
X100901400Y-98764900D01*
X111754500Y-65143300D02*
X112841700Y-66230500D01*
X137160000Y-66230500D02*
X138237300Y-66230500D01*
X100619600Y-101806100D02*
X100619600Y-115603000D01*
X113919000Y-66230500D02*
X114996300Y-66230500D01*
X163755400Y-65146700D02*
X164413600Y-65804900D01*
X113919000Y-66230500D02*
X112841700Y-66230500D01*
X138237300Y-66230500D02*
X139321100Y-65146700D01*
%TO.N,/D0*%
X100619600Y-101304900D02*
X99488800Y-102435700D01*
X99488800Y-116118500D02*
X100386000Y-117015700D01*
X111733500Y-67662300D02*
X112841700Y-68770500D01*
X100619600Y-118143000D02*
X100619600Y-117015700D01*
X91755300Y-68770500D02*
X92863500Y-67662300D01*
X100386000Y-117015700D02*
X100619600Y-117015700D01*
X92863500Y-67662300D02*
X111733500Y-67662300D01*
X113919000Y-68770500D02*
X114996300Y-68770500D01*
X113919000Y-68770500D02*
X112841700Y-68770500D01*
X116073700Y-67693100D02*
X129660100Y-67693100D01*
X114996300Y-68770500D02*
X116073700Y-67693100D01*
X99488800Y-102435700D02*
X99488800Y-116118500D01*
X100619600Y-100177600D02*
X100619600Y-101304900D01*
X90678000Y-68770500D02*
X91755300Y-68770500D01*
X130737500Y-68770500D02*
X137160000Y-68770500D01*
X129660100Y-67693100D02*
X130737500Y-68770500D01*
%TO.N,/A1*%
X137160000Y-63690500D02*
X138237300Y-63690500D01*
X113919000Y-63690500D02*
X112841700Y-63690500D01*
X91755300Y-63690500D02*
X92843900Y-64779100D01*
X92843900Y-64779100D02*
X111753100Y-64779100D01*
X153765300Y-62608400D02*
X144891600Y-62608400D01*
X155087000Y-63930100D02*
X153765300Y-62608400D01*
X90678000Y-63690500D02*
X91755300Y-63690500D01*
X144099500Y-61816300D02*
X140111500Y-61816300D01*
X113919000Y-63690500D02*
X114996300Y-63690500D01*
X116078400Y-62608400D02*
X135000600Y-62608400D01*
X135000600Y-62608400D02*
X136082700Y-63690500D01*
X114996300Y-63690500D02*
X116078400Y-62608400D01*
X140111500Y-61816300D02*
X138237300Y-63690500D01*
X137160000Y-63690500D02*
X136082700Y-63690500D01*
X111753100Y-64779100D02*
X112841700Y-63690500D01*
X170004300Y-63930100D02*
X155087000Y-63930100D01*
X144891600Y-62608400D02*
X144099500Y-61816300D01*
X171044000Y-62890400D02*
X170004300Y-63930100D01*
%TO.N,/D1*%
X111753000Y-70221800D02*
X112841700Y-71310500D01*
X91755300Y-71310500D02*
X92844000Y-70221800D01*
X103395400Y-134972700D02*
X104292600Y-134075500D01*
X116073700Y-70233100D02*
X135005300Y-70233100D01*
X103161800Y-136100000D02*
X103161800Y-134972700D01*
X103159600Y-118143000D02*
X103159600Y-119270300D01*
X137160000Y-71310500D02*
X136082700Y-71310500D01*
X92844000Y-70221800D02*
X111753000Y-70221800D01*
X103159600Y-118143000D02*
X103159600Y-117015700D01*
X102926000Y-117015700D02*
X103159600Y-117015700D01*
X113919000Y-71310500D02*
X114996300Y-71310500D01*
X104292600Y-134075500D02*
X104292600Y-120403300D01*
X102028800Y-102435700D02*
X102028800Y-116118500D01*
X90678000Y-71310500D02*
X91755300Y-71310500D01*
X113919000Y-71310500D02*
X112841700Y-71310500D01*
X102028800Y-116118500D02*
X102926000Y-117015700D01*
X103159600Y-100177600D02*
X103159600Y-101304900D01*
X103159600Y-101304900D02*
X102028800Y-102435700D01*
X135005300Y-70233100D02*
X136082700Y-71310500D01*
X103161800Y-134972700D02*
X103395400Y-134972700D01*
X104292600Y-120403300D02*
X103159600Y-119270300D01*
X114996300Y-71310500D02*
X116073700Y-70233100D01*
%TO.N,/A2*%
X172579600Y-61886000D02*
X153248500Y-61886000D01*
X153248500Y-61886000D02*
X152880700Y-62253800D01*
X113919000Y-61150500D02*
X114996300Y-61150500D01*
X137160000Y-61150500D02*
X138237300Y-61150500D01*
X114996300Y-61150500D02*
X116099800Y-62254000D01*
X116099800Y-62254000D02*
X134979200Y-62254000D01*
X145038100Y-62253800D02*
X143934800Y-61150500D01*
X137160000Y-61150500D02*
X136082700Y-61150500D01*
X111738200Y-62254000D02*
X112841700Y-61150500D01*
X173584000Y-62890400D02*
X172579600Y-61886000D01*
X104574800Y-62254000D02*
X111738200Y-62254000D01*
X134979200Y-62254000D02*
X136082700Y-61150500D01*
X92858800Y-62254000D02*
X104574800Y-62254000D01*
X91755300Y-61150500D02*
X92858800Y-62254000D01*
X143934800Y-61150500D02*
X138237300Y-61150500D01*
X90678000Y-61150500D02*
X91755300Y-61150500D01*
X113919000Y-61150500D02*
X112841700Y-61150500D01*
X152880700Y-62253800D02*
X145038100Y-62253800D01*
%TO.N,/D2*%
X138237300Y-73850500D02*
X139326000Y-72761800D01*
X156177800Y-70334900D02*
X175955000Y-70334900D01*
X105699600Y-101304900D02*
X106830400Y-102435700D01*
X105933200Y-117015700D02*
X105699600Y-117015700D01*
X139326000Y-72761800D02*
X153750900Y-72761800D01*
X137160000Y-73850500D02*
X138237300Y-73850500D01*
X94435600Y-76530800D02*
X98204600Y-72761800D01*
X105699600Y-118143000D02*
X105699600Y-117015700D01*
X177546100Y-71926000D02*
X177546100Y-72211100D01*
X106830400Y-116118500D02*
X105933200Y-117015700D01*
X175955000Y-70334900D02*
X177546100Y-71926000D01*
X181761100Y-78141800D02*
X179818000Y-78141800D01*
X105466000Y-99050300D02*
X105699600Y-99050300D01*
X104429600Y-98013900D02*
X105466000Y-99050300D01*
X105699600Y-100177600D02*
X105699600Y-99050300D01*
X181323600Y-75995200D02*
X181609400Y-75995200D01*
X153750900Y-72761800D02*
X156177800Y-70334900D01*
X105699600Y-100177600D02*
X105699600Y-101304900D01*
X94435600Y-76530800D02*
X94435600Y-84049300D01*
X90678000Y-73850500D02*
X91666700Y-73850500D01*
X90710000Y-91589100D02*
X98775300Y-91589100D01*
X179818000Y-78141800D02*
X178816000Y-77139800D01*
X104429600Y-97243400D02*
X104429600Y-98013900D01*
X182389400Y-77513500D02*
X181761100Y-78141800D01*
X137160000Y-73850500D02*
X136082700Y-73850500D01*
X111753000Y-72761800D02*
X112841700Y-73850500D01*
X177546100Y-72211100D02*
X178383500Y-73048500D01*
X178383500Y-73048500D02*
X178686000Y-73048500D01*
X106830400Y-102435700D02*
X106830400Y-116118500D01*
X181609400Y-75995200D02*
X182389400Y-76775200D01*
X98775300Y-91589100D02*
X104429600Y-97243400D01*
X89662600Y-88822300D02*
X89662600Y-90541700D01*
X114996300Y-73850500D02*
X116085000Y-72761800D01*
X91755300Y-73850500D02*
X94435600Y-76530800D01*
X179804700Y-74476300D02*
X181323600Y-75995200D01*
X113919000Y-73850500D02*
X114996300Y-73850500D01*
X178686000Y-73048500D02*
X179804700Y-74167200D01*
X98204600Y-72761800D02*
X111753000Y-72761800D01*
X91666700Y-73850500D02*
X91755300Y-73850500D01*
X94435600Y-84049300D02*
X89662600Y-88822300D01*
X134994000Y-72761800D02*
X136082700Y-73850500D01*
X113919000Y-73850500D02*
X112841700Y-73850500D01*
X116085000Y-72761800D02*
X134994000Y-72761800D01*
X182389400Y-76775200D02*
X182389400Y-77513500D01*
X89662600Y-90541700D02*
X90710000Y-91589100D01*
X179804700Y-74167200D02*
X179804700Y-74476300D01*
%TO.N,/A3*%
X108239600Y-114475700D02*
X107325400Y-113561500D01*
X90678000Y-58610500D02*
X91755300Y-58610500D01*
X108006000Y-98764900D02*
X108239600Y-98764900D01*
X107325400Y-101821000D02*
X107094300Y-101589900D01*
X92832700Y-59687900D02*
X111764300Y-59687900D01*
X107094300Y-101589900D02*
X107094300Y-99676600D01*
X139340800Y-59714000D02*
X138237300Y-58610500D01*
X172579700Y-59346100D02*
X160737000Y-59346100D01*
X137160000Y-58610500D02*
X138237300Y-58610500D01*
X137160000Y-58610500D02*
X136082700Y-58610500D01*
X135000400Y-59692800D02*
X116078600Y-59692800D01*
X91755300Y-58610500D02*
X92832700Y-59687900D01*
X111764300Y-59687900D02*
X112841700Y-58610500D01*
X160737000Y-59346100D02*
X160369100Y-59714000D01*
X136082700Y-58610500D02*
X135000400Y-59692800D01*
X160369100Y-59714000D02*
X139340800Y-59714000D01*
X116078600Y-59692800D02*
X114996300Y-58610500D01*
X107094300Y-99676600D02*
X108006000Y-98764900D01*
X108239600Y-115603000D02*
X108239600Y-114475700D01*
X107325400Y-113561500D02*
X107325400Y-101821000D01*
X113919000Y-58610500D02*
X114996300Y-58610500D01*
X113919000Y-58610500D02*
X112841700Y-58610500D01*
X173584000Y-60350400D02*
X172579700Y-59346100D01*
X108239600Y-97637600D02*
X108239600Y-98764900D01*
%TO.N,/D3*%
X131325000Y-75301800D02*
X150234000Y-75301800D01*
X129159000Y-76390500D02*
X128081700Y-76390500D01*
X178816000Y-87299800D02*
X172466100Y-80949900D01*
X152400000Y-76390500D02*
X153477300Y-76390500D01*
X108473200Y-117015700D02*
X108239600Y-117015700D01*
X106995300Y-76390500D02*
X108084000Y-75301800D01*
X166523500Y-71043500D02*
X158601000Y-71043500D01*
X158601000Y-71043500D02*
X153477300Y-76167200D01*
X172466100Y-80949900D02*
X172466100Y-71933065D01*
X171575755Y-71042720D02*
X166370000Y-71042720D01*
X109394400Y-111601100D02*
X109394400Y-116094500D01*
X105918000Y-76390500D02*
X106995300Y-76390500D01*
X108239600Y-110446300D02*
X109394400Y-111601100D01*
X109394400Y-116094500D02*
X108473200Y-117015700D01*
X150234000Y-75301800D02*
X151322700Y-76390500D01*
X153477300Y-76167200D02*
X153477300Y-76390500D01*
X108239600Y-118143000D02*
X108239600Y-117015700D01*
X126993000Y-75301800D02*
X128081700Y-76390500D01*
X152400000Y-76390500D02*
X151322700Y-76390500D01*
X108239600Y-100177600D02*
X108239600Y-110446300D01*
X108084000Y-75301800D02*
X126993000Y-75301800D01*
X130236300Y-76390500D02*
X131325000Y-75301800D01*
X172466100Y-71933065D02*
X171575755Y-71042720D01*
X129159000Y-76390500D02*
X130236300Y-76390500D01*
%TO.N,/A4*%
X114996300Y-56609100D02*
X110458200Y-56609100D01*
X110497800Y-116730300D02*
X109633600Y-117594500D01*
X135000400Y-57152800D02*
X136082700Y-56070500D01*
X113919000Y-56070500D02*
X114996300Y-56070500D01*
X109880700Y-57186600D02*
X92871400Y-57186600D01*
X110779600Y-115603000D02*
X110779600Y-116730300D01*
X110458200Y-56609100D02*
X109880700Y-57186600D01*
X137160000Y-56070500D02*
X136082700Y-56070500D01*
X92871400Y-57186600D02*
X91755300Y-56070500D01*
X114996300Y-56609100D02*
X126581500Y-56609100D01*
X176124000Y-62890400D02*
X174222000Y-64792400D01*
X126581500Y-56609100D02*
X127125200Y-57152800D01*
X109633600Y-117594500D02*
X109633600Y-131284500D01*
X110779600Y-116730300D02*
X110497800Y-116730300D01*
X146117700Y-64792400D02*
X143818900Y-62493600D01*
X174222000Y-64792400D02*
X146117700Y-64792400D01*
X114996300Y-56070500D02*
X114996300Y-56609100D01*
X109633600Y-131284500D02*
X110781800Y-132432700D01*
X127125200Y-57152800D02*
X135000400Y-57152800D01*
X90678000Y-56070500D02*
X91755300Y-56070500D01*
X110781800Y-133560000D02*
X110781800Y-132432700D01*
%TO.N,/D4*%
X177827400Y-74736100D02*
X176139800Y-73048500D01*
X175867865Y-73048500D02*
X174723711Y-71904346D01*
X156638600Y-70689200D02*
X153477300Y-73850500D01*
X129159000Y-73850500D02*
X130236300Y-73850500D01*
X152400000Y-73850500D02*
X151322700Y-73850500D01*
X105918000Y-73850500D02*
X106995300Y-73850500D01*
X177827400Y-75013200D02*
X177827400Y-74736100D01*
X181356000Y-77139800D02*
X180086000Y-75869800D01*
X150225800Y-74947400D02*
X151322700Y-73850500D01*
X173812420Y-70688420D02*
X171196000Y-70688420D01*
X152400000Y-73850500D02*
X153477300Y-73850500D01*
X171229300Y-70689200D02*
X156638600Y-70689200D01*
X130236300Y-73850500D02*
X131333200Y-74947400D01*
X108092200Y-74947400D02*
X126984800Y-74947400D01*
X126984800Y-74947400D02*
X128081700Y-73850500D01*
X129159000Y-73850500D02*
X128081700Y-73850500D01*
X106995300Y-73850500D02*
X108092200Y-74947400D01*
X180086000Y-75869800D02*
X178684000Y-75869800D01*
X178684000Y-75869800D02*
X177827400Y-75013200D01*
X174723711Y-71904346D02*
X174723711Y-71599711D01*
X174723711Y-71599711D02*
X173812420Y-70688420D01*
X176139800Y-73048500D02*
X175867865Y-73048500D01*
X131333200Y-74947400D02*
X150225800Y-74947400D01*
%TO.N,/A5*%
X137160000Y-53530500D02*
X136082700Y-53530500D01*
X111746400Y-54625800D02*
X112841700Y-53530500D01*
X150564400Y-57351000D02*
X159966400Y-57351000D01*
X90678000Y-53530500D02*
X91755300Y-53530500D01*
X91755300Y-53530500D02*
X92850600Y-54625800D01*
X92850600Y-54625800D02*
X111746400Y-54625800D01*
X140962600Y-56255800D02*
X149469200Y-56255800D01*
X114996300Y-53530500D02*
X116078600Y-54612800D01*
X113919000Y-53530500D02*
X112841700Y-53530500D01*
X159966400Y-57351000D02*
X161428300Y-58812900D01*
X135000400Y-54612800D02*
X136082700Y-53530500D01*
X149469200Y-56255800D02*
X150564400Y-57351000D01*
X174586500Y-58812900D02*
X176124000Y-60350400D01*
X116078600Y-54612800D02*
X135000400Y-54612800D01*
X113919000Y-53530500D02*
X114996300Y-53530500D01*
X161428300Y-58812900D02*
X174586500Y-58812900D01*
%TO.N,/D5*%
X182765300Y-74527400D02*
X182765300Y-83350500D01*
X131333200Y-72407400D02*
X150225800Y-72407400D01*
X108092200Y-72407400D02*
X126984800Y-72407400D01*
X122067000Y-98160400D02*
X122067000Y-97052600D01*
X113319600Y-100177600D02*
X114446900Y-100177600D01*
X106995300Y-71310500D02*
X108092200Y-72407400D01*
X122067000Y-97052600D02*
X125057100Y-94062500D01*
X182765300Y-83350500D02*
X181356000Y-84759800D01*
X105918000Y-71310500D02*
X106995300Y-71310500D01*
X114446900Y-100177600D02*
X114446900Y-99944000D01*
X129159000Y-71310500D02*
X128081700Y-71310500D01*
X129159000Y-71310500D02*
X130236300Y-71310500D01*
X114446900Y-99944000D02*
X115483300Y-98907600D01*
X152400000Y-71310500D02*
X153477300Y-71310500D01*
X153477300Y-71310500D02*
X154810300Y-69977500D01*
X154810300Y-69977500D02*
X178215400Y-69977500D01*
X152400000Y-71310500D02*
X151322700Y-71310500D01*
X126984800Y-72407400D02*
X128081700Y-71310500D01*
X115483300Y-98907600D02*
X121319800Y-98907600D01*
X150225800Y-72407400D02*
X151322700Y-71310500D01*
X121319800Y-98907600D02*
X122067000Y-98160400D01*
X178215400Y-69977500D02*
X182765300Y-74527400D01*
X130236300Y-71310500D02*
X131333200Y-72407400D01*
%TO.N,~{PORT0_CS}*%
X108585000Y-91234600D02*
X114732300Y-97381900D01*
X108585000Y-90157300D02*
X108585000Y-91234600D01*
X115859600Y-97637600D02*
X114732300Y-97637600D01*
X114732300Y-97381900D02*
X114732300Y-97637600D01*
%TO.N,/D6*%
X126984800Y-69867400D02*
X128081700Y-68770500D01*
X177523500Y-68770500D02*
X183171600Y-74418600D01*
X128889700Y-68770500D02*
X129967100Y-69847900D01*
X150245300Y-69847900D02*
X151322700Y-68770500D01*
X108092200Y-69867400D02*
X126984800Y-69867400D01*
X183171600Y-74418600D02*
X183171600Y-84365900D01*
X180937300Y-85748500D02*
X180343700Y-85154900D01*
X129159000Y-68770500D02*
X128889700Y-68770500D01*
X181789000Y-85748500D02*
X180937300Y-85748500D01*
X105918000Y-68770500D02*
X106995300Y-68770500D01*
X152400000Y-68770500D02*
X177523500Y-68770500D01*
X183171600Y-84365900D02*
X181789000Y-85748500D01*
X180343700Y-81207500D02*
X178816000Y-79679800D01*
X106995300Y-68770500D02*
X108092200Y-69867400D01*
X180343700Y-85154900D02*
X180343700Y-81207500D01*
X152400000Y-68770500D02*
X151322700Y-68770500D01*
X129967100Y-69847900D02*
X150245300Y-69847900D01*
X128889700Y-68770500D02*
X128081700Y-68770500D01*
%TO.N,R~{W}*%
X109855000Y-89897600D02*
X109855000Y-91159100D01*
X102396700Y-90308500D02*
X102396700Y-89715000D01*
X123852300Y-93030900D02*
X119526900Y-97356300D01*
X103089100Y-89022600D02*
X108980000Y-89022600D01*
X101470500Y-91234700D02*
X102396700Y-90308500D01*
X115826000Y-95957700D02*
X117272300Y-97404000D01*
X118399600Y-97637600D02*
X119526900Y-97637600D01*
X119526900Y-97356300D02*
X119526900Y-97637600D01*
X108980000Y-89022600D02*
X109855000Y-89897600D01*
X90805000Y-90157300D02*
X91882300Y-90157300D01*
X92825000Y-91234700D02*
X101470500Y-91234700D01*
X91882300Y-90292000D02*
X92825000Y-91234700D01*
X91882300Y-90157300D02*
X91882300Y-90292000D01*
X125786700Y-93030900D02*
X123852300Y-93030900D01*
X109855000Y-91159100D02*
X114653600Y-95957700D01*
X143753700Y-91719400D02*
X127098200Y-91719400D01*
X144831000Y-91719400D02*
X152451000Y-91719400D01*
X114653600Y-95957700D02*
X115826000Y-95957700D01*
X117272300Y-97404000D02*
X117272300Y-97637600D01*
X144292400Y-91719400D02*
X144831000Y-91719400D01*
X118399600Y-97637600D02*
X117272300Y-97637600D01*
X102396700Y-89715000D02*
X103089100Y-89022600D01*
X144292400Y-91719400D02*
X143753700Y-91719400D01*
X127098200Y-91719400D02*
X125786700Y-93030900D01*
%TO.N,/D7*%
X178664000Y-45110400D02*
X180215500Y-46661900D01*
X118399600Y-118143000D02*
X118399600Y-117015700D01*
X152400000Y-66230500D02*
X153477300Y-66230500D01*
X119553100Y-102458400D02*
X119553100Y-116095800D01*
X129159000Y-66230500D02*
X130236300Y-66230500D01*
X117270800Y-134075300D02*
X118168200Y-134972700D01*
X181937800Y-86106400D02*
X180162600Y-86106400D01*
X118399600Y-118143000D02*
X118399600Y-119270300D01*
X151861400Y-66230500D02*
X152400000Y-66230500D01*
X183343200Y-50925700D02*
X183343200Y-60845300D01*
X183526000Y-74271700D02*
X183526000Y-84518200D01*
X183343200Y-60845300D02*
X176721400Y-67467100D01*
X153477300Y-66230500D02*
X154713900Y-67467100D01*
X108072700Y-67307900D02*
X127004300Y-67307900D01*
X180215500Y-46661900D02*
X180215500Y-48083100D01*
X118399600Y-119270300D02*
X117270800Y-120399100D01*
X151322700Y-66230500D02*
X150211800Y-67341400D01*
X106995300Y-66230500D02*
X108072700Y-67307900D01*
X180215500Y-48083100D02*
X181052800Y-48920400D01*
X154713900Y-67467100D02*
X176721400Y-67467100D01*
X150211800Y-67341400D02*
X131347200Y-67341400D01*
X105918000Y-66230500D02*
X106995300Y-66230500D01*
X180162600Y-86106400D02*
X178816000Y-84759800D01*
X118399600Y-101304900D02*
X119553100Y-102458400D01*
X118399600Y-100177600D02*
X118399600Y-101304900D01*
X176721400Y-67467100D02*
X183526000Y-74271700D01*
X119553100Y-116095800D02*
X118633200Y-117015700D01*
X181052800Y-48920400D02*
X181337900Y-48920400D01*
X151861400Y-66230500D02*
X151322700Y-66230500D01*
X118633200Y-117015700D02*
X118399600Y-117015700D01*
X129159000Y-66230500D02*
X128081700Y-66230500D01*
X127004300Y-67307900D02*
X128081700Y-66230500D01*
X118168200Y-134972700D02*
X118401800Y-134972700D01*
X118401800Y-136100000D02*
X118401800Y-134972700D01*
X183526000Y-84518200D02*
X181937800Y-86106400D01*
X181337900Y-48920400D02*
X183343200Y-50925700D01*
X131347200Y-67341400D02*
X130236300Y-66230500D01*
X117270800Y-120399100D02*
X117270800Y-134075300D01*
%TO.N,CLK*%
X166321100Y-75796700D02*
X167104600Y-75013200D01*
X137315200Y-81663400D02*
X129918800Y-81663400D01*
X138405000Y-82753200D02*
X137315200Y-81663400D01*
X145908300Y-84099400D02*
X147178300Y-82829400D01*
X168277300Y-73567900D02*
X170164100Y-73567900D01*
X120657800Y-116730300D02*
X119805800Y-117582300D01*
X170164100Y-73567900D02*
X171196000Y-74599800D01*
X144831000Y-84099400D02*
X145908300Y-84099400D01*
X129918800Y-81663400D02*
X128968800Y-82613400D01*
X120941800Y-133560000D02*
X120941800Y-132432700D01*
X167104600Y-75013200D02*
X167104600Y-74740600D01*
X167104600Y-74740600D02*
X168277300Y-73567900D01*
X120939600Y-115603000D02*
X120939600Y-116730300D01*
X119805800Y-117582300D02*
X119805800Y-131296700D01*
X128968800Y-82613400D02*
X119898400Y-82613400D01*
X119898400Y-82613400D02*
X119822300Y-82537300D01*
X147178300Y-82829400D02*
X153057800Y-82829400D01*
X160090500Y-75796700D02*
X166321100Y-75796700D01*
X120939600Y-116730300D02*
X120657800Y-116730300D01*
X119805800Y-131296700D02*
X120941800Y-132432700D01*
X118745000Y-82537300D02*
X119822300Y-82537300D01*
X153057800Y-82829400D02*
X160090500Y-75796700D01*
%TO.N,PORT0_IRQ_PULLUP*%
X122066900Y-100411200D02*
X123878100Y-102222400D01*
X147053700Y-123981400D02*
X151215900Y-123981400D01*
X120939600Y-100177600D02*
X122066900Y-100177600D01*
X123878100Y-102222400D02*
X142687100Y-102222400D01*
X122066900Y-100177600D02*
X122066900Y-100411200D01*
X151215900Y-123981400D02*
X156441700Y-129207200D01*
X156441700Y-129207200D02*
X156441700Y-129489000D01*
X144856000Y-103314000D02*
X143778700Y-103314000D01*
X142687100Y-102222400D02*
X143778700Y-103314000D01*
X157569000Y-129489000D02*
X156441700Y-129489000D01*
%TO.N,PORT0_NMI_PULLUP*%
X145071400Y-101513700D02*
X125709400Y-101513700D01*
X152476000Y-114936700D02*
X152610700Y-114936700D01*
X152933700Y-112393400D02*
X148369100Y-112393400D01*
X140001600Y-114551300D02*
X137643600Y-112193300D01*
X145190700Y-107124000D02*
X145957000Y-106357700D01*
X124606900Y-100411200D02*
X124606900Y-100177600D01*
X153574400Y-113034100D02*
X152933700Y-112393400D01*
X152476000Y-116014000D02*
X152476000Y-114936700D01*
X137643600Y-111224500D02*
X141744100Y-107124000D01*
X125709400Y-101513700D02*
X124606900Y-100411200D01*
X145957000Y-102399300D02*
X145071400Y-101513700D01*
X145957000Y-106357700D02*
X145957000Y-102399300D01*
X148369100Y-112393400D02*
X146211200Y-114551300D01*
X141744100Y-107124000D02*
X145190700Y-107124000D01*
X152610700Y-114936700D02*
X153574400Y-113973000D01*
X137643600Y-112193300D02*
X137643600Y-111224500D01*
X153574400Y-113973000D02*
X153574400Y-113034100D01*
X123479600Y-100177600D02*
X124606900Y-100177600D01*
X146211200Y-114551300D02*
X140001600Y-114551300D01*
%TO.N,FUTURE0*%
X95885000Y-90157300D02*
X96962300Y-90157300D01*
X96962300Y-90157300D02*
X96962300Y-90022600D01*
X96962300Y-90022600D02*
X99787800Y-87197100D01*
X99787800Y-87197100D02*
X121183100Y-87197100D01*
%TO.N,FUTURE1*%
X93345000Y-90157300D02*
X94422300Y-90157300D01*
X97969700Y-86519800D02*
X121928000Y-86519800D01*
X94422300Y-90157300D02*
X94422300Y-90067200D01*
X94422300Y-90067200D02*
X97969700Y-86519800D01*
%TO.N,~{PORT2_CS}*%
X112049600Y-113045400D02*
X112049600Y-128620500D01*
X109509600Y-97239200D02*
X109509600Y-110505400D01*
X112049600Y-128620500D02*
X115861800Y-132432700D01*
X103505000Y-91234600D02*
X109509600Y-97239200D01*
X115861800Y-133560000D02*
X115861800Y-132432700D01*
X103505000Y-90157300D02*
X103505000Y-91234600D01*
X109509600Y-110505400D02*
X112049600Y-113045400D01*
%TO.N,PORT2_IRQ_PULLUP*%
X123888800Y-134830000D02*
X123105500Y-134830000D01*
X129599900Y-128352400D02*
X124609200Y-133343100D01*
X146281700Y-129207200D02*
X145426900Y-128352400D01*
X145426900Y-128352400D02*
X129599900Y-128352400D01*
X124609200Y-134109600D02*
X123888800Y-134830000D01*
X120941800Y-136100000D02*
X122069100Y-136100000D01*
X147409000Y-129489000D02*
X146281700Y-129489000D01*
X123105500Y-134830000D02*
X122069100Y-135866400D01*
X122069100Y-135866400D02*
X122069100Y-136100000D01*
X146281700Y-129489000D02*
X146281700Y-129207200D01*
X124609200Y-133343100D02*
X124609200Y-134109600D01*
%TO.N,PORT2_NMI_PULLUP*%
X124609100Y-135866400D02*
X124609100Y-136100000D01*
X144869000Y-129489000D02*
X143741700Y-129489000D01*
X143741700Y-129489000D02*
X143741700Y-130193600D01*
X143741700Y-130193600D02*
X139105300Y-134830000D01*
X139105300Y-134830000D02*
X125645500Y-134830000D01*
X125645500Y-134830000D02*
X124609100Y-135866400D01*
X123481800Y-136100000D02*
X124609100Y-136100000D01*
%TO.N,PORT1_NMI_PULLUP*%
X148821700Y-129207200D02*
X148821700Y-129489000D01*
X140582800Y-120968300D02*
X148821700Y-129207200D01*
X124606900Y-118376600D02*
X127198600Y-120968300D01*
X149949000Y-129489000D02*
X148821700Y-129489000D01*
X124606900Y-118143000D02*
X124606900Y-118376600D01*
X127198600Y-120968300D02*
X140582800Y-120968300D01*
X123479600Y-118143000D02*
X124606900Y-118143000D01*
%TO.N,PORT1_IRQ_PULLUP*%
X152489000Y-129489000D02*
X151361700Y-129489000D01*
X151361700Y-129307300D02*
X151361700Y-129489000D01*
X131608500Y-105854000D02*
X122330500Y-115132000D01*
X122330500Y-116415200D02*
X122921700Y-117006400D01*
X136961100Y-119856700D02*
X141911100Y-119856700D01*
X120939600Y-118143000D02*
X122066900Y-118143000D01*
X122066900Y-117861200D02*
X122921700Y-117006400D01*
X144856000Y-105854000D02*
X131608500Y-105854000D01*
X134110800Y-117006400D02*
X136961100Y-119856700D01*
X141911100Y-119856700D02*
X151361700Y-129307300D01*
X122921700Y-117006400D02*
X134110800Y-117006400D01*
X122066900Y-118143000D02*
X122066900Y-117861200D01*
X122330500Y-115132000D02*
X122330500Y-116415200D01*
%TO.N,~{PORT1_CS}*%
X112049600Y-97239200D02*
X112049600Y-110665700D01*
X112049600Y-110665700D02*
X115859600Y-114475700D01*
X115859600Y-115603000D02*
X115859600Y-114475700D01*
X106045000Y-90157300D02*
X106045000Y-91234600D01*
X106045000Y-91234600D02*
X112049600Y-97239200D01*
%TO.N,/A12*%
X177489600Y-51556000D02*
X178664000Y-52730400D01*
X161329600Y-51556000D02*
X177489600Y-51556000D01*
X113919000Y-45910500D02*
X114996300Y-45910500D01*
X114996300Y-45910500D02*
X116083000Y-46997200D01*
X141880500Y-49553700D02*
X159327300Y-49553700D01*
X129634400Y-46997200D02*
X116083000Y-46997200D01*
X138237300Y-45910500D02*
X141880500Y-49553700D01*
X136082700Y-45910500D02*
X135893289Y-45721089D01*
X159327300Y-49553700D02*
X161329600Y-51556000D01*
X137160000Y-45910500D02*
X136082700Y-45910500D01*
X135893289Y-45721089D02*
X130910511Y-45721089D01*
X130910511Y-45721089D02*
X129634400Y-46997200D01*
X137160000Y-45910500D02*
X138237300Y-45910500D01*
%TO.N,/A13*%
X180215400Y-51179000D02*
X181204000Y-50190400D01*
X127000900Y-49531300D02*
X128081700Y-48450500D01*
X152400000Y-48450500D02*
X153477300Y-48450500D01*
X129159000Y-48450500D02*
X128081700Y-48450500D01*
X105918000Y-48450500D02*
X106995300Y-48450500D01*
X153477300Y-48450500D02*
X154226100Y-49199300D01*
X154226100Y-49199300D02*
X166723300Y-49199300D01*
X108076100Y-49531300D02*
X127000900Y-49531300D01*
X106995300Y-48450500D02*
X108076100Y-49531300D01*
X166723300Y-49199300D02*
X168703000Y-51179000D01*
X168703000Y-51179000D02*
X180215400Y-51179000D01*
%TO.N,/A14*%
X135005400Y-42293200D02*
X136082700Y-43370500D01*
X137160000Y-43370500D02*
X138237300Y-43370500D01*
X161514400Y-48720000D02*
X157434900Y-44640500D01*
X113919000Y-43370500D02*
X114996300Y-43370500D01*
X116073600Y-42293200D02*
X135005400Y-42293200D01*
X114996300Y-43370500D02*
X116073600Y-42293200D01*
X137160000Y-43370500D02*
X136082700Y-43370500D01*
X177193600Y-48720000D02*
X161514400Y-48720000D01*
X139507300Y-44640500D02*
X138237300Y-43370500D01*
X157434900Y-44640500D02*
X139507300Y-44640500D01*
X178664000Y-50190400D02*
X177193600Y-48720000D01*
%TO.N,/A15*%
X181204000Y-47650400D02*
X181204000Y-46245600D01*
X181204000Y-46245600D02*
X176895500Y-41937100D01*
X176895500Y-41937100D02*
X104705200Y-41937100D01*
X99623600Y-47018700D02*
X90583500Y-47018700D01*
X89599000Y-77714000D02*
X93345000Y-81460000D01*
X93345000Y-82537300D02*
X93345000Y-81460000D01*
X104705200Y-41937100D02*
X99623600Y-47018700D01*
X89599000Y-48003200D02*
X89599000Y-77714000D01*
X90583500Y-47018700D02*
X89599000Y-48003200D01*
%TO.N,/A6*%
X162502500Y-53791800D02*
X162804800Y-54094100D01*
X111764300Y-52067900D02*
X112841700Y-50990500D01*
X182623000Y-55227300D02*
X182623000Y-58430100D01*
X150599800Y-50990500D02*
X151825000Y-52215700D01*
X137160000Y-50990500D02*
X150599800Y-50990500D01*
X179934100Y-61620300D02*
X178664000Y-62890400D01*
X136082700Y-50990500D02*
X134994100Y-52079100D01*
X162804800Y-54094100D02*
X181489800Y-54094100D01*
X137160000Y-50990500D02*
X136082700Y-50990500D01*
X181739700Y-59313400D02*
X180767700Y-59313400D01*
X113919000Y-50990500D02*
X114996300Y-50990500D01*
X181489800Y-54094100D02*
X182623000Y-55227300D01*
X90678000Y-50990500D02*
X91755300Y-50990500D01*
X179934100Y-60147000D02*
X179934100Y-61620300D01*
X180767700Y-59313400D02*
X179934100Y-60147000D01*
X91755300Y-50990500D02*
X92832700Y-52067900D01*
X182623000Y-58430100D02*
X181739700Y-59313400D01*
X92832700Y-52067900D02*
X111764300Y-52067900D01*
X155521800Y-53791800D02*
X162502500Y-53791800D01*
X151825000Y-52215700D02*
X153945700Y-52215700D01*
X153945700Y-52215700D02*
X155521800Y-53791800D01*
X134994100Y-52079100D02*
X116084900Y-52079100D01*
X116084900Y-52079100D02*
X114996300Y-50990500D01*
X113919000Y-50990500D02*
X112841700Y-50990500D01*
%TO.N,/A7*%
X159180300Y-49908000D02*
X140196000Y-49908000D01*
X114996300Y-48450500D02*
X113919000Y-48450500D01*
X137160000Y-48450500D02*
X138237300Y-48450500D01*
X91755300Y-48450500D02*
X92832700Y-47373100D01*
X137160000Y-48450500D02*
X130681418Y-48450500D01*
X140196000Y-49908000D02*
X138738500Y-48450500D01*
X182978700Y-58575700D02*
X182978700Y-55081800D01*
X111764300Y-47373100D02*
X112841700Y-48450500D01*
X181615900Y-53719000D02*
X162991300Y-53719000D01*
X130681418Y-48450500D02*
X129582518Y-47351600D01*
X90678000Y-48450500D02*
X91755300Y-48450500D01*
X138738500Y-48450500D02*
X138237300Y-48450500D01*
X113919000Y-48450500D02*
X112841700Y-48450500D01*
X182978700Y-55081800D02*
X181615900Y-53719000D01*
X92832700Y-47373100D02*
X111764300Y-47373100D01*
X162991300Y-53719000D02*
X159180300Y-49908000D01*
X129582518Y-47351600D02*
X116095200Y-47351600D01*
X116095200Y-47351600D02*
X114996300Y-48450500D01*
X181204000Y-60350400D02*
X182978700Y-58575700D01*
%TO.N,/A8*%
X129159000Y-50990500D02*
X128620400Y-50990500D01*
X106995300Y-50990500D02*
X108086400Y-49899400D01*
X128620400Y-50990500D02*
X128081700Y-50990500D01*
X126990600Y-49899400D02*
X128081700Y-50990500D01*
X129702900Y-49908000D02*
X139444300Y-49908000D01*
X128620400Y-50990500D02*
X129702900Y-49908000D01*
X140080400Y-50544100D02*
X150876300Y-50544100D01*
X105918000Y-50990500D02*
X106995300Y-50990500D01*
X152400000Y-50990500D02*
X151322700Y-50990500D01*
X150876300Y-50544100D02*
X151322700Y-50990500D01*
X139444300Y-49908000D02*
X140080400Y-50544100D01*
X108086400Y-49899400D02*
X126990600Y-49899400D01*
%TO.N,/A9*%
X150225700Y-52433500D02*
X151322700Y-53530500D01*
X130236300Y-53530500D02*
X131333300Y-52433500D01*
X105918000Y-53530500D02*
X106995300Y-53530500D01*
X152400000Y-53530500D02*
X151322700Y-53530500D01*
X131333300Y-52433500D02*
X150225700Y-52433500D01*
X156334500Y-56387700D02*
X179781300Y-56387700D01*
X108072700Y-52453100D02*
X127004300Y-52453100D01*
X127004300Y-52453100D02*
X128081700Y-53530500D01*
X129159000Y-53530500D02*
X128081700Y-53530500D01*
X153477300Y-53530500D02*
X156334500Y-56387700D01*
X152400000Y-53530500D02*
X153477300Y-53530500D01*
X106995300Y-53530500D02*
X108072700Y-52453100D01*
X179781300Y-56387700D02*
X181204000Y-57810400D01*
X129159000Y-53530500D02*
X130236300Y-53530500D01*
%TO.N,/A10*%
X108098600Y-60047200D02*
X126978400Y-60047200D01*
X129159000Y-61150500D02*
X128081700Y-61150500D01*
X176556700Y-61339000D02*
X177515400Y-60380300D01*
X150240600Y-60068400D02*
X151322700Y-61150500D01*
X177515400Y-58959000D02*
X178664000Y-57810400D01*
X130236300Y-61150500D02*
X131318400Y-60068400D01*
X152400000Y-61150500D02*
X153477300Y-61150500D01*
X126978400Y-60047200D02*
X128081700Y-61150500D01*
X152400000Y-61150500D02*
X151322700Y-61150500D01*
X131318400Y-60068400D02*
X150240600Y-60068400D01*
X153477300Y-61150500D02*
X153665800Y-61339000D01*
X129159000Y-61150500D02*
X130236300Y-61150500D01*
X105918000Y-61150500D02*
X106995300Y-61150500D01*
X177515400Y-60380300D02*
X177515400Y-58959000D01*
X153665800Y-61339000D02*
X176556700Y-61339000D01*
X106995300Y-61150500D02*
X108098600Y-60047200D01*
%TO.N,/A11*%
X180777800Y-58806800D02*
X181674100Y-58806800D01*
X105918000Y-56070500D02*
X106995300Y-56070500D01*
X181674100Y-58806800D02*
X182229300Y-58251600D01*
X179934100Y-57670300D02*
X179934100Y-57963100D01*
X182229300Y-56295700D02*
X181204000Y-55270400D01*
X150225700Y-54973500D02*
X151322700Y-56070500D01*
X129159000Y-56070500D02*
X130236300Y-56070500D01*
X130236300Y-56070500D02*
X131333300Y-54973500D01*
X182229300Y-58251600D02*
X182229300Y-56295700D01*
X179934100Y-57963100D02*
X180777800Y-58806800D01*
X151861400Y-56070500D02*
X151322700Y-56070500D01*
X179083200Y-56819400D02*
X179934100Y-57670300D01*
X127004300Y-54993100D02*
X128081700Y-56070500D01*
X129159000Y-56070500D02*
X128081700Y-56070500D01*
X131333300Y-54973500D02*
X150225700Y-54973500D01*
X108072700Y-54993100D02*
X127004300Y-54993100D01*
X152400000Y-56070500D02*
X153477300Y-56070500D01*
X106995300Y-56070500D02*
X108072700Y-54993100D01*
X154226200Y-56819400D02*
X179083200Y-56819400D01*
X151861400Y-56070500D02*
X152400000Y-56070500D01*
X153477300Y-56070500D02*
X154226200Y-56819400D01*
%TO.N,~{RAM2_CS}*%
X113878700Y-88369300D02*
X112202300Y-90045700D01*
X111125000Y-90157300D02*
X112202300Y-90157300D01*
X122308300Y-88369300D02*
X113878700Y-88369300D01*
X122635400Y-88042200D02*
X122308300Y-88369300D01*
X112202300Y-90045700D02*
X112202300Y-90157300D01*
%TO.N,~{RAM1_CS}*%
X126555000Y-85373300D02*
X123151900Y-88776400D01*
X114742300Y-90045700D02*
X114742300Y-90157300D01*
X116011600Y-88776400D02*
X114742300Y-90045700D01*
X113665000Y-90157300D02*
X114742300Y-90157300D01*
X131440900Y-85373300D02*
X126555000Y-85373300D01*
X123151900Y-88776400D02*
X116011600Y-88776400D01*
%TO.N,~{ROM_CS}*%
X114795400Y-91566900D02*
X116205000Y-90157300D01*
X111235500Y-91566900D02*
X114795400Y-91566900D01*
%TO.N,Net-(Q1-Pad2)*%
X163881000Y-129045000D02*
X167831000Y-129045000D01*
X167831000Y-129045000D02*
X169532000Y-130746000D01*
%TO.N,~{READ}*%
X143753700Y-94259400D02*
X139105500Y-98907600D01*
X149525700Y-97876800D02*
X162019200Y-97876800D01*
X144831000Y-94259400D02*
X145908300Y-94259400D01*
X144292400Y-94259400D02*
X144831000Y-94259400D01*
X110192100Y-58610500D02*
X111303300Y-57499300D01*
X126970500Y-57499300D02*
X128081700Y-58610500D01*
X169687900Y-88331700D02*
X168656000Y-87299800D01*
X128183300Y-98907600D02*
X127146900Y-99944000D01*
X130236300Y-58610500D02*
X131313700Y-57533100D01*
X150245300Y-57533100D02*
X151322700Y-58610500D01*
X128620400Y-58610500D02*
X129159000Y-58610500D01*
X162019200Y-97876800D02*
X169687900Y-90208100D01*
X169687900Y-90208100D02*
X169687900Y-88331700D01*
X106995300Y-58610500D02*
X110192100Y-58610500D01*
X126019600Y-100177600D02*
X127146900Y-100177600D01*
X105918000Y-58610500D02*
X106995300Y-58610500D01*
X127146900Y-99944000D02*
X127146900Y-100177600D01*
X139105500Y-98907600D02*
X128183300Y-98907600D01*
X144292400Y-94259400D02*
X143753700Y-94259400D01*
X145908300Y-94259400D02*
X149525700Y-97876800D01*
X111303300Y-57499300D02*
X126970500Y-57499300D01*
X129159000Y-58610500D02*
X130236300Y-58610500D01*
X152400000Y-58610500D02*
X151322700Y-58610500D01*
X128620400Y-58610500D02*
X128081700Y-58610500D01*
X131313700Y-57533100D02*
X150245300Y-57533100D01*
%TO.N,~{WRITE}*%
X164687000Y-90285700D02*
X149554600Y-90285700D01*
X149554600Y-90285700D02*
X145908300Y-86639400D01*
X167614800Y-90881000D02*
X165282300Y-90881000D01*
X144831000Y-86639400D02*
X145908300Y-86639400D01*
X165282300Y-90881000D02*
X164687000Y-90285700D01*
X168656000Y-89839800D02*
X167614800Y-90881000D01*
%TO.N,~{RTS}*%
X172747500Y-114018500D02*
X172747500Y-103445950D01*
X169367200Y-117398800D02*
X172747500Y-114018500D01*
%TO.N,~{UART_IRQ}*%
X179809900Y-87727200D02*
X179248700Y-88288400D01*
X145933300Y-113339300D02*
X152148600Y-107124000D01*
X179248700Y-88288400D02*
X178946200Y-88288400D01*
X180340200Y-78664000D02*
X178410300Y-78664000D01*
X179809900Y-86877800D02*
X179809900Y-87727200D01*
X145933300Y-113474000D02*
X145933300Y-113339300D01*
X178410300Y-78664000D02*
X177809600Y-79264700D01*
X140530000Y-113474000D02*
X144856000Y-113474000D01*
X178952700Y-86311200D02*
X179243300Y-86311200D01*
X178946200Y-88288400D02*
X177827500Y-89407100D01*
X152148600Y-107124000D02*
X152884900Y-107124000D01*
X172953071Y-90827511D02*
X177531489Y-90827511D01*
X177827500Y-89407100D02*
X177827500Y-90531500D01*
X177809600Y-79264700D02*
X177809600Y-85168100D01*
X155379050Y-104629850D02*
X159150732Y-104629850D01*
X152884900Y-107124000D02*
X155379050Y-104629850D01*
X181356000Y-79679800D02*
X180340200Y-78664000D01*
X159150732Y-104629850D02*
X172953071Y-90827511D01*
X177531489Y-90827511D02*
X177827500Y-90531500D01*
X144856000Y-113474000D02*
X145933300Y-113474000D01*
X138735000Y-111679000D02*
X140530000Y-113474000D01*
X177809600Y-85168100D02*
X178952700Y-86311200D01*
X179243300Y-86311200D02*
X179809900Y-86877800D01*
%TO.N,~{UART_CS}*%
X138064000Y-84641300D02*
X125197900Y-84641300D01*
X144914600Y-77790700D02*
X138064000Y-84641300D01*
X155573200Y-75407200D02*
X153189700Y-77790700D01*
X159616900Y-75407200D02*
X155573200Y-75407200D01*
X162964300Y-72059800D02*
X159616900Y-75407200D01*
X102042300Y-89568200D02*
X102042300Y-90157300D01*
X125197900Y-84641300D02*
X122474300Y-87364900D01*
X122474300Y-87364900D02*
X121973300Y-87364900D01*
X100965000Y-90157300D02*
X102042300Y-90157300D01*
X121323300Y-88014900D02*
X103595600Y-88014900D01*
X121973300Y-87364900D02*
X121323300Y-88014900D01*
X103595600Y-88014900D02*
X102042300Y-89568200D01*
X153189700Y-77790700D02*
X144914600Y-77790700D01*
X166116000Y-72059800D02*
X162964300Y-72059800D01*
%TO.N,UART_RES*%
X168656000Y-75996635D02*
X165960546Y-78692089D01*
X158289911Y-78692089D02*
X154178000Y-82804000D01*
X154178000Y-87452400D02*
X152451000Y-89179400D01*
X154178000Y-82804000D02*
X154178000Y-87452400D01*
X168656000Y-74599800D02*
X168656000Y-75996635D01*
X165960546Y-78692089D02*
X158289911Y-78692089D01*
%TO.N,Net-(U10-Pad1)*%
X152451000Y-96799400D02*
X152451000Y-95722100D01*
X144831000Y-81559400D02*
X144831000Y-82636700D01*
X144696300Y-82636700D02*
X143736200Y-83596800D01*
X152562600Y-95722100D02*
X152451000Y-95722100D01*
X143736200Y-87084400D02*
X144561200Y-87909400D01*
X152904400Y-90640100D02*
X153535100Y-91270800D01*
X153535100Y-91270800D02*
X153535100Y-94749600D01*
X144561200Y-87909400D02*
X145908400Y-87909400D01*
X145908400Y-87909400D02*
X148639100Y-90640100D01*
X144831000Y-82636700D02*
X144696300Y-82636700D01*
X148639100Y-90640100D02*
X152904400Y-90640100D01*
X153535100Y-94749600D02*
X152562600Y-95722100D01*
X143736200Y-83596800D02*
X143736200Y-87084400D01*
%TD*%
M02*
