%FSLAX45Y45*%
G04 Gerber Fmt 4.5, Leading zero omitted, Abs format (unit mm)*
G04 Created by KiCad (PCBNEW (5.1.9-0-10_14)) date 2021-03-09 09:41:13*
%MOMM*%
%LPD*%
G01*
G04 APERTURE LIST*
%TA.AperFunction,Profile*%
%ADD10C,0.100000*%
%TD*%
%ADD11C,0.200000*%
%ADD12C,0.300000*%
G04 APERTURE END LIST*
D10*
X18669000Y-4191000D02*
X18669000Y-13970000D01*
X8699500Y-4191000D02*
X18669000Y-4191000D01*
X8699500Y-13970000D02*
X8699500Y-4191000D01*
X18669000Y-13970000D02*
X8699500Y-13970000D01*
D11*
D12*
X8980928Y-14440714D02*
X8980928Y-14140714D01*
X9052357Y-14140714D01*
X9095214Y-14155000D01*
X9123786Y-14183571D01*
X9138071Y-14212143D01*
X9152357Y-14269286D01*
X9152357Y-14312143D01*
X9138071Y-14369286D01*
X9123786Y-14397857D01*
X9095214Y-14426429D01*
X9052357Y-14440714D01*
X8980928Y-14440714D01*
X9280928Y-14440714D02*
X9280928Y-14240714D01*
X9280928Y-14297857D02*
X9295214Y-14269286D01*
X9309500Y-14255000D01*
X9338071Y-14240714D01*
X9366643Y-14240714D01*
X9466643Y-14440714D02*
X9466643Y-14240714D01*
X9466643Y-14140714D02*
X9452357Y-14155000D01*
X9466643Y-14169286D01*
X9480928Y-14155000D01*
X9466643Y-14140714D01*
X9466643Y-14169286D01*
X9652357Y-14440714D02*
X9623786Y-14426429D01*
X9609500Y-14397857D01*
X9609500Y-14140714D01*
X9809500Y-14440714D02*
X9780928Y-14426429D01*
X9766643Y-14397857D01*
X9766643Y-14140714D01*
X10152357Y-14440714D02*
X10152357Y-14140714D01*
X10252357Y-14355000D01*
X10352357Y-14140714D01*
X10352357Y-14440714D01*
X10623786Y-14440714D02*
X10623786Y-14283571D01*
X10609500Y-14255000D01*
X10580928Y-14240714D01*
X10523786Y-14240714D01*
X10495214Y-14255000D01*
X10623786Y-14426429D02*
X10595214Y-14440714D01*
X10523786Y-14440714D01*
X10495214Y-14426429D01*
X10480928Y-14397857D01*
X10480928Y-14369286D01*
X10495214Y-14340714D01*
X10523786Y-14326429D01*
X10595214Y-14326429D01*
X10623786Y-14312143D01*
X10766643Y-14240714D02*
X10766643Y-14540714D01*
X10766643Y-14255000D02*
X10795214Y-14240714D01*
X10852357Y-14240714D01*
X10880928Y-14255000D01*
X10895214Y-14269286D01*
X10909500Y-14297857D01*
X10909500Y-14383571D01*
X10895214Y-14412143D01*
X10880928Y-14426429D01*
X10852357Y-14440714D01*
X10795214Y-14440714D01*
X10766643Y-14426429D01*
X11038071Y-14412143D02*
X11052357Y-14426429D01*
X11038071Y-14440714D01*
X11023786Y-14426429D01*
X11038071Y-14412143D01*
X11038071Y-14440714D01*
X11038071Y-14255000D02*
X11052357Y-14269286D01*
X11038071Y-14283571D01*
X11023786Y-14269286D01*
X11038071Y-14255000D01*
X11038071Y-14283571D01*
M02*
