%TF.GenerationSoftware,KiCad,Pcbnew,(5.1.9-0-10_14)*%
%TF.CreationDate,2021-03-25T12:19:47+01:00*%
%TF.ProjectId,n8 bit special,6e382062-6974-4207-9370-656369616c2e,2*%
%TF.SameCoordinates,Original*%
%TF.FileFunction,Legend,Bot*%
%TF.FilePolarity,Positive*%
%FSLAX46Y46*%
G04 Gerber Fmt 4.6, Leading zero omitted, Abs format (unit mm)*
G04 Created by KiCad (PCBNEW (5.1.9-0-10_14)) date 2021-03-25 12:19:47*
%MOMM*%
%LPD*%
G01*
G04 APERTURE LIST*
%ADD10C,0.300000*%
G04 APERTURE END LIST*
D10*
X173447071Y-43605142D02*
X171947071Y-43605142D01*
X172518500Y-43605142D02*
X172447071Y-43748000D01*
X172447071Y-44033714D01*
X172518500Y-44176571D01*
X172589928Y-44248000D01*
X172732785Y-44319428D01*
X173161357Y-44319428D01*
X173304214Y-44248000D01*
X173375642Y-44176571D01*
X173447071Y-44033714D01*
X173447071Y-43748000D01*
X173375642Y-43605142D01*
X172447071Y-44819428D02*
X173447071Y-45176571D01*
X172447071Y-45533714D02*
X173447071Y-45176571D01*
X173804214Y-45033714D01*
X173875642Y-44962285D01*
X173947071Y-44819428D01*
X173447071Y-47248000D02*
X171947071Y-47248000D01*
X173447071Y-48105142D01*
X171947071Y-48105142D01*
X173447071Y-49462285D02*
X172661357Y-49462285D01*
X172518500Y-49390857D01*
X172447071Y-49248000D01*
X172447071Y-48962285D01*
X172518500Y-48819428D01*
X173375642Y-49462285D02*
X173447071Y-49319428D01*
X173447071Y-48962285D01*
X173375642Y-48819428D01*
X173232785Y-48748000D01*
X173089928Y-48748000D01*
X172947071Y-48819428D01*
X172875642Y-48962285D01*
X172875642Y-49319428D01*
X172804214Y-49462285D01*
X172447071Y-49962285D02*
X172447071Y-50533714D01*
X171947071Y-50176571D02*
X173232785Y-50176571D01*
X173375642Y-50248000D01*
X173447071Y-50390857D01*
X173447071Y-50533714D01*
X173375642Y-51605142D02*
X173447071Y-51462285D01*
X173447071Y-51176571D01*
X173375642Y-51033714D01*
X173232785Y-50962285D01*
X172661357Y-50962285D01*
X172518500Y-51033714D01*
X172447071Y-51176571D01*
X172447071Y-51462285D01*
X172518500Y-51605142D01*
X172661357Y-51676571D01*
X172804214Y-51676571D01*
X172947071Y-50962285D01*
X173447071Y-54319428D02*
X172732785Y-53819428D01*
X173447071Y-53462285D02*
X171947071Y-53462285D01*
X171947071Y-54033714D01*
X172018500Y-54176571D01*
X172089928Y-54248000D01*
X172232785Y-54319428D01*
X172447071Y-54319428D01*
X172589928Y-54248000D01*
X172661357Y-54176571D01*
X172732785Y-54033714D01*
X172732785Y-53462285D01*
X173447071Y-54962285D02*
X172447071Y-54962285D01*
X171947071Y-54962285D02*
X172018500Y-54890857D01*
X172089928Y-54962285D01*
X172018500Y-55033714D01*
X171947071Y-54962285D01*
X172089928Y-54962285D01*
X172447071Y-55533714D02*
X173447071Y-55890857D01*
X172447071Y-56248000D01*
X173447071Y-57462285D02*
X172661357Y-57462285D01*
X172518500Y-57390857D01*
X172447071Y-57248000D01*
X172447071Y-56962285D01*
X172518500Y-56819428D01*
X173375642Y-57462285D02*
X173447071Y-57319428D01*
X173447071Y-56962285D01*
X173375642Y-56819428D01*
X173232785Y-56748000D01*
X173089928Y-56748000D01*
X172947071Y-56819428D01*
X172875642Y-56962285D01*
X172875642Y-57319428D01*
X172804214Y-57462285D01*
X173447071Y-58176571D02*
X172447071Y-58176571D01*
X172732785Y-58176571D02*
X172589928Y-58248000D01*
X172518500Y-58319428D01*
X172447071Y-58462285D01*
X172447071Y-58605142D01*
X173447071Y-59748000D02*
X171947071Y-59748000D01*
X173375642Y-59748000D02*
X173447071Y-59605142D01*
X173447071Y-59319428D01*
X173375642Y-59176571D01*
X173304214Y-59105142D01*
X173161357Y-59033714D01*
X172732785Y-59033714D01*
X172589928Y-59105142D01*
X172518500Y-59176571D01*
X172447071Y-59319428D01*
X172447071Y-59605142D01*
X172518500Y-59748000D01*
X175997071Y-43605142D02*
X174497071Y-43605142D01*
X175997071Y-44248000D02*
X175211357Y-44248000D01*
X175068500Y-44176571D01*
X174997071Y-44033714D01*
X174997071Y-43819428D01*
X175068500Y-43676571D01*
X175139928Y-43605142D01*
X174997071Y-44748000D02*
X174997071Y-45319428D01*
X174497071Y-44962285D02*
X175782785Y-44962285D01*
X175925642Y-45033714D01*
X175997071Y-45176571D01*
X175997071Y-45319428D01*
X174997071Y-45605142D02*
X174997071Y-46176571D01*
X174497071Y-45819428D02*
X175782785Y-45819428D01*
X175925642Y-45890857D01*
X175997071Y-46033714D01*
X175997071Y-46176571D01*
X174997071Y-46676571D02*
X176497071Y-46676571D01*
X175068500Y-46676571D02*
X174997071Y-46819428D01*
X174997071Y-47105142D01*
X175068500Y-47248000D01*
X175139928Y-47319428D01*
X175282785Y-47390857D01*
X175711357Y-47390857D01*
X175854214Y-47319428D01*
X175925642Y-47248000D01*
X175997071Y-47105142D01*
X175997071Y-46819428D01*
X175925642Y-46676571D01*
X175925642Y-47962285D02*
X175997071Y-48105142D01*
X175997071Y-48390857D01*
X175925642Y-48533714D01*
X175782785Y-48605142D01*
X175711357Y-48605142D01*
X175568500Y-48533714D01*
X175497071Y-48390857D01*
X175497071Y-48176571D01*
X175425642Y-48033714D01*
X175282785Y-47962285D01*
X175211357Y-47962285D01*
X175068500Y-48033714D01*
X174997071Y-48176571D01*
X174997071Y-48390857D01*
X175068500Y-48533714D01*
X175854214Y-49248000D02*
X175925642Y-49319428D01*
X175997071Y-49248000D01*
X175925642Y-49176571D01*
X175854214Y-49248000D01*
X175997071Y-49248000D01*
X175068500Y-49248000D02*
X175139928Y-49319428D01*
X175211357Y-49248000D01*
X175139928Y-49176571D01*
X175068500Y-49248000D01*
X175211357Y-49248000D01*
X174425642Y-51033714D02*
X176354214Y-49748000D01*
X174425642Y-52605142D02*
X176354214Y-51319428D01*
X174997071Y-53748000D02*
X176211357Y-53748000D01*
X176354214Y-53676571D01*
X176425642Y-53605142D01*
X176497071Y-53462285D01*
X176497071Y-53248000D01*
X176425642Y-53105142D01*
X175925642Y-53748000D02*
X175997071Y-53605142D01*
X175997071Y-53319428D01*
X175925642Y-53176571D01*
X175854214Y-53105142D01*
X175711357Y-53033714D01*
X175282785Y-53033714D01*
X175139928Y-53105142D01*
X175068500Y-53176571D01*
X174997071Y-53319428D01*
X174997071Y-53605142D01*
X175068500Y-53748000D01*
X175997071Y-54462285D02*
X174997071Y-54462285D01*
X174497071Y-54462285D02*
X174568500Y-54390857D01*
X174639928Y-54462285D01*
X174568500Y-54533714D01*
X174497071Y-54462285D01*
X174639928Y-54462285D01*
X174997071Y-54962285D02*
X174997071Y-55533714D01*
X174497071Y-55176571D02*
X175782785Y-55176571D01*
X175925642Y-55248000D01*
X175997071Y-55390857D01*
X175997071Y-55533714D01*
X175997071Y-56033714D02*
X174497071Y-56033714D01*
X175997071Y-56676571D02*
X175211357Y-56676571D01*
X175068500Y-56605142D01*
X174997071Y-56462285D01*
X174997071Y-56248000D01*
X175068500Y-56105142D01*
X175139928Y-56033714D01*
X174997071Y-58033714D02*
X175997071Y-58033714D01*
X174997071Y-57390857D02*
X175782785Y-57390857D01*
X175925642Y-57462285D01*
X175997071Y-57605142D01*
X175997071Y-57819428D01*
X175925642Y-57962285D01*
X175854214Y-58033714D01*
X175997071Y-58748000D02*
X174497071Y-58748000D01*
X175068500Y-58748000D02*
X174997071Y-58890857D01*
X174997071Y-59176571D01*
X175068500Y-59319428D01*
X175139928Y-59390857D01*
X175282785Y-59462285D01*
X175711357Y-59462285D01*
X175854214Y-59390857D01*
X175925642Y-59319428D01*
X175997071Y-59176571D01*
X175997071Y-58890857D01*
X175925642Y-58748000D01*
X175854214Y-60105142D02*
X175925642Y-60176571D01*
X175997071Y-60105142D01*
X175925642Y-60033714D01*
X175854214Y-60105142D01*
X175997071Y-60105142D01*
X175925642Y-61462285D02*
X175997071Y-61319428D01*
X175997071Y-61033714D01*
X175925642Y-60890857D01*
X175854214Y-60819428D01*
X175711357Y-60748000D01*
X175282785Y-60748000D01*
X175139928Y-60819428D01*
X175068500Y-60890857D01*
X174997071Y-61033714D01*
X174997071Y-61319428D01*
X175068500Y-61462285D01*
X175997071Y-62319428D02*
X175925642Y-62176571D01*
X175854214Y-62105142D01*
X175711357Y-62033714D01*
X175282785Y-62033714D01*
X175139928Y-62105142D01*
X175068500Y-62176571D01*
X174997071Y-62319428D01*
X174997071Y-62533714D01*
X175068500Y-62676571D01*
X175139928Y-62748000D01*
X175282785Y-62819428D01*
X175711357Y-62819428D01*
X175854214Y-62748000D01*
X175925642Y-62676571D01*
X175997071Y-62533714D01*
X175997071Y-62319428D01*
X175997071Y-63462285D02*
X174997071Y-63462285D01*
X175139928Y-63462285D02*
X175068500Y-63533714D01*
X174997071Y-63676571D01*
X174997071Y-63890857D01*
X175068500Y-64033714D01*
X175211357Y-64105142D01*
X175997071Y-64105142D01*
X175211357Y-64105142D02*
X175068500Y-64176571D01*
X174997071Y-64319428D01*
X174997071Y-64533714D01*
X175068500Y-64676571D01*
X175211357Y-64748000D01*
X175997071Y-64748000D01*
X174425642Y-66533714D02*
X176354214Y-65248000D01*
X174997071Y-67033714D02*
X175997071Y-67033714D01*
X175139928Y-67033714D02*
X175068500Y-67105142D01*
X174997071Y-67248000D01*
X174997071Y-67462285D01*
X175068500Y-67605142D01*
X175211357Y-67676571D01*
X175997071Y-67676571D01*
X175997071Y-68390857D02*
X174997071Y-68390857D01*
X175282785Y-68390857D02*
X175139928Y-68462285D01*
X175068500Y-68533714D01*
X174997071Y-68676571D01*
X174997071Y-68819428D01*
X175997071Y-69319428D02*
X174997071Y-69319428D01*
X174497071Y-69319428D02*
X174568500Y-69248000D01*
X174639928Y-69319428D01*
X174568500Y-69390857D01*
X174497071Y-69319428D01*
X174639928Y-69319428D01*
X174997071Y-69890857D02*
X175997071Y-70248000D01*
X174997071Y-70605142D01*
X175997071Y-71819428D02*
X175211357Y-71819428D01*
X175068500Y-71748000D01*
X174997071Y-71605142D01*
X174997071Y-71319428D01*
X175068500Y-71176571D01*
X175925642Y-71819428D02*
X175997071Y-71676571D01*
X175997071Y-71319428D01*
X175925642Y-71176571D01*
X175782785Y-71105142D01*
X175639928Y-71105142D01*
X175497071Y-71176571D01*
X175425642Y-71319428D01*
X175425642Y-71676571D01*
X175354214Y-71819428D01*
X175997071Y-72533714D02*
X174997071Y-72533714D01*
X175282785Y-72533714D02*
X175139928Y-72605142D01*
X175068500Y-72676571D01*
X174997071Y-72819428D01*
X174997071Y-72962285D01*
X175997071Y-74105142D02*
X174497071Y-74105142D01*
X175925642Y-74105142D02*
X175997071Y-73962285D01*
X175997071Y-73676571D01*
X175925642Y-73533714D01*
X175854214Y-73462285D01*
X175711357Y-73390857D01*
X175282785Y-73390857D01*
X175139928Y-73462285D01*
X175068500Y-73533714D01*
X174997071Y-73676571D01*
X174997071Y-73962285D01*
X175068500Y-74105142D01*
X174425642Y-75890857D02*
X176354214Y-74605142D01*
X175997071Y-76605142D02*
X175925642Y-76462285D01*
X175782785Y-76390857D01*
X174497071Y-76390857D01*
X175997071Y-77176571D02*
X174997071Y-77176571D01*
X175139928Y-77176571D02*
X175068500Y-77248000D01*
X174997071Y-77390857D01*
X174997071Y-77605142D01*
X175068500Y-77748000D01*
X175211357Y-77819428D01*
X175997071Y-77819428D01*
X175211357Y-77819428D02*
X175068500Y-77890857D01*
X174997071Y-78033714D01*
X174997071Y-78248000D01*
X175068500Y-78390857D01*
X175211357Y-78462285D01*
X175997071Y-78462285D01*
X175997071Y-79819428D02*
X175211357Y-79819428D01*
X175068500Y-79748000D01*
X174997071Y-79605142D01*
X174997071Y-79319428D01*
X175068500Y-79176571D01*
X175925642Y-79819428D02*
X175997071Y-79676571D01*
X175997071Y-79319428D01*
X175925642Y-79176571D01*
X175782785Y-79105142D01*
X175639928Y-79105142D01*
X175497071Y-79176571D01*
X175425642Y-79319428D01*
X175425642Y-79676571D01*
X175354214Y-79819428D01*
X175997071Y-80748000D02*
X175925642Y-80605142D01*
X175854214Y-80533714D01*
X175711357Y-80462285D01*
X175282785Y-80462285D01*
X175139928Y-80533714D01*
X175068500Y-80605142D01*
X174997071Y-80748000D01*
X174997071Y-80962285D01*
X175068500Y-81105142D01*
X175139928Y-81176571D01*
X175282785Y-81248000D01*
X175711357Y-81248000D01*
X175854214Y-81176571D01*
X175925642Y-81105142D01*
X175997071Y-80962285D01*
X175997071Y-80748000D01*
X175925642Y-81819428D02*
X175997071Y-81962285D01*
X175997071Y-82248000D01*
X175925642Y-82390857D01*
X175782785Y-82462285D01*
X175711357Y-82462285D01*
X175568500Y-82390857D01*
X175497071Y-82248000D01*
X175497071Y-82033714D01*
X175425642Y-81890857D01*
X175282785Y-81819428D01*
X175211357Y-81819428D01*
X175068500Y-81890857D01*
X174997071Y-82033714D01*
X174997071Y-82248000D01*
X175068500Y-82390857D01*
X177047071Y-43390857D02*
X178547071Y-43890857D01*
X177047071Y-44390857D01*
X178475642Y-45462285D02*
X178547071Y-45319428D01*
X178547071Y-45033714D01*
X178475642Y-44890857D01*
X178332785Y-44819428D01*
X177761357Y-44819428D01*
X177618500Y-44890857D01*
X177547071Y-45033714D01*
X177547071Y-45319428D01*
X177618500Y-45462285D01*
X177761357Y-45533714D01*
X177904214Y-45533714D01*
X178047071Y-44819428D01*
X178547071Y-46176571D02*
X177547071Y-46176571D01*
X177832785Y-46176571D02*
X177689928Y-46248000D01*
X177618500Y-46319428D01*
X177547071Y-46462285D01*
X177547071Y-46605142D01*
X178475642Y-47033714D02*
X178547071Y-47176571D01*
X178547071Y-47462285D01*
X178475642Y-47605142D01*
X178332785Y-47676571D01*
X178261357Y-47676571D01*
X178118500Y-47605142D01*
X178047071Y-47462285D01*
X178047071Y-47248000D01*
X177975642Y-47105142D01*
X177832785Y-47033714D01*
X177761357Y-47033714D01*
X177618500Y-47105142D01*
X177547071Y-47248000D01*
X177547071Y-47462285D01*
X177618500Y-47605142D01*
X178547071Y-48319428D02*
X177547071Y-48319428D01*
X177047071Y-48319428D02*
X177118500Y-48248000D01*
X177189928Y-48319428D01*
X177118500Y-48390857D01*
X177047071Y-48319428D01*
X177189928Y-48319428D01*
X178547071Y-49248000D02*
X178475642Y-49105142D01*
X178404214Y-49033714D01*
X178261357Y-48962285D01*
X177832785Y-48962285D01*
X177689928Y-49033714D01*
X177618500Y-49105142D01*
X177547071Y-49248000D01*
X177547071Y-49462285D01*
X177618500Y-49605142D01*
X177689928Y-49676571D01*
X177832785Y-49748000D01*
X178261357Y-49748000D01*
X178404214Y-49676571D01*
X178475642Y-49605142D01*
X178547071Y-49462285D01*
X178547071Y-49248000D01*
X177547071Y-50390857D02*
X178547071Y-50390857D01*
X177689928Y-50390857D02*
X177618500Y-50462285D01*
X177547071Y-50605142D01*
X177547071Y-50819428D01*
X177618500Y-50962285D01*
X177761357Y-51033714D01*
X178547071Y-51033714D01*
X177189928Y-52819428D02*
X177118500Y-52890857D01*
X177047071Y-53033714D01*
X177047071Y-53390857D01*
X177118500Y-53533714D01*
X177189928Y-53605142D01*
X177332785Y-53676571D01*
X177475642Y-53676571D01*
X177689928Y-53605142D01*
X178547071Y-52748000D01*
X178547071Y-53676571D01*
X181097071Y-43605142D02*
X179597071Y-43605142D01*
X180668500Y-44105142D01*
X179597071Y-44605142D01*
X181097071Y-44605142D01*
X181097071Y-45962285D02*
X180311357Y-45962285D01*
X180168500Y-45890857D01*
X180097071Y-45748000D01*
X180097071Y-45462285D01*
X180168500Y-45319428D01*
X181025642Y-45962285D02*
X181097071Y-45819428D01*
X181097071Y-45462285D01*
X181025642Y-45319428D01*
X180882785Y-45248000D01*
X180739928Y-45248000D01*
X180597071Y-45319428D01*
X180525642Y-45462285D01*
X180525642Y-45819428D01*
X180454214Y-45962285D01*
X181097071Y-46676571D02*
X180097071Y-46676571D01*
X180382785Y-46676571D02*
X180239928Y-46748000D01*
X180168500Y-46819428D01*
X180097071Y-46962285D01*
X180097071Y-47105142D01*
X179739928Y-48676571D02*
X179668500Y-48748000D01*
X179597071Y-48890857D01*
X179597071Y-49248000D01*
X179668500Y-49390857D01*
X179739928Y-49462285D01*
X179882785Y-49533714D01*
X180025642Y-49533714D01*
X180239928Y-49462285D01*
X181097071Y-48605142D01*
X181097071Y-49533714D01*
X179597071Y-50462285D02*
X179597071Y-50605142D01*
X179668500Y-50748000D01*
X179739928Y-50819428D01*
X179882785Y-50890857D01*
X180168500Y-50962285D01*
X180525642Y-50962285D01*
X180811357Y-50890857D01*
X180954214Y-50819428D01*
X181025642Y-50748000D01*
X181097071Y-50605142D01*
X181097071Y-50462285D01*
X181025642Y-50319428D01*
X180954214Y-50248000D01*
X180811357Y-50176571D01*
X180525642Y-50105142D01*
X180168500Y-50105142D01*
X179882785Y-50176571D01*
X179739928Y-50248000D01*
X179668500Y-50319428D01*
X179597071Y-50462285D01*
X179739928Y-51533714D02*
X179668500Y-51605142D01*
X179597071Y-51748000D01*
X179597071Y-52105142D01*
X179668500Y-52248000D01*
X179739928Y-52319428D01*
X179882785Y-52390857D01*
X180025642Y-52390857D01*
X180239928Y-52319428D01*
X181097071Y-51462285D01*
X181097071Y-52390857D01*
X181097071Y-53819428D02*
X181097071Y-52962285D01*
X181097071Y-53390857D02*
X179597071Y-53390857D01*
X179811357Y-53248000D01*
X179954214Y-53105142D01*
X180025642Y-52962285D01*
M02*
