%TF.GenerationSoftware,KiCad,Pcbnew,(6.0.5-0)*%
%TF.CreationDate,2022-06-16T16:01:59+02:00*%
%TF.ProjectId,n8 bit special,6e382062-6974-4207-9370-656369616c2e,2*%
%TF.SameCoordinates,Original*%
%TF.FileFunction,Legend,Bot*%
%TF.FilePolarity,Positive*%
%FSLAX46Y46*%
G04 Gerber Fmt 4.6, Leading zero omitted, Abs format (unit mm)*
G04 Created by KiCad (PCBNEW (6.0.5-0)) date 2022-06-16 16:01:59*
%MOMM*%
%LPD*%
G01*
G04 APERTURE LIST*
%ADD10C,0.300000*%
G04 APERTURE END LIST*
D10*
X134385357Y-122836871D02*
X134385357Y-121336871D01*
X134385357Y-121908300D02*
X134242500Y-121836871D01*
X133956785Y-121836871D01*
X133813928Y-121908300D01*
X133742500Y-121979728D01*
X133671071Y-122122585D01*
X133671071Y-122551157D01*
X133742500Y-122694014D01*
X133813928Y-122765442D01*
X133956785Y-122836871D01*
X134242500Y-122836871D01*
X134385357Y-122765442D01*
X133171071Y-121836871D02*
X132813928Y-122836871D01*
X132456785Y-121836871D02*
X132813928Y-122836871D01*
X132956785Y-123194014D01*
X133028214Y-123265442D01*
X133171071Y-123336871D01*
X130742500Y-122836871D02*
X130742500Y-121336871D01*
X129885357Y-122836871D01*
X129885357Y-121336871D01*
X128528214Y-122836871D02*
X128528214Y-122051157D01*
X128599642Y-121908300D01*
X128742500Y-121836871D01*
X129028214Y-121836871D01*
X129171071Y-121908300D01*
X128528214Y-122765442D02*
X128671071Y-122836871D01*
X129028214Y-122836871D01*
X129171071Y-122765442D01*
X129242500Y-122622585D01*
X129242500Y-122479728D01*
X129171071Y-122336871D01*
X129028214Y-122265442D01*
X128671071Y-122265442D01*
X128528214Y-122194014D01*
X128028214Y-121836871D02*
X127456785Y-121836871D01*
X127813928Y-121336871D02*
X127813928Y-122622585D01*
X127742500Y-122765442D01*
X127599642Y-122836871D01*
X127456785Y-122836871D01*
X126385357Y-122765442D02*
X126528214Y-122836871D01*
X126813928Y-122836871D01*
X126956785Y-122765442D01*
X127028214Y-122622585D01*
X127028214Y-122051157D01*
X126956785Y-121908300D01*
X126813928Y-121836871D01*
X126528214Y-121836871D01*
X126385357Y-121908300D01*
X126313928Y-122051157D01*
X126313928Y-122194014D01*
X127028214Y-122336871D01*
X123671071Y-122836871D02*
X124171071Y-122122585D01*
X124528214Y-122836871D02*
X124528214Y-121336871D01*
X123956785Y-121336871D01*
X123813928Y-121408300D01*
X123742500Y-121479728D01*
X123671071Y-121622585D01*
X123671071Y-121836871D01*
X123742500Y-121979728D01*
X123813928Y-122051157D01*
X123956785Y-122122585D01*
X124528214Y-122122585D01*
X123028214Y-122836871D02*
X123028214Y-121836871D01*
X123028214Y-121336871D02*
X123099642Y-121408300D01*
X123028214Y-121479728D01*
X122956785Y-121408300D01*
X123028214Y-121336871D01*
X123028214Y-121479728D01*
X122456785Y-121836871D02*
X122099642Y-122836871D01*
X121742500Y-121836871D01*
X120528214Y-122836871D02*
X120528214Y-122051157D01*
X120599642Y-121908300D01*
X120742500Y-121836871D01*
X121028214Y-121836871D01*
X121171071Y-121908300D01*
X120528214Y-122765442D02*
X120671071Y-122836871D01*
X121028214Y-122836871D01*
X121171071Y-122765442D01*
X121242500Y-122622585D01*
X121242500Y-122479728D01*
X121171071Y-122336871D01*
X121028214Y-122265442D01*
X120671071Y-122265442D01*
X120528214Y-122194014D01*
X119813928Y-122836871D02*
X119813928Y-121836871D01*
X119813928Y-122122585D02*
X119742500Y-121979728D01*
X119671071Y-121908300D01*
X119528214Y-121836871D01*
X119385357Y-121836871D01*
X118242500Y-122836871D02*
X118242500Y-121336871D01*
X118242500Y-122765442D02*
X118385357Y-122836871D01*
X118671071Y-122836871D01*
X118813928Y-122765442D01*
X118885357Y-122694014D01*
X118956785Y-122551157D01*
X118956785Y-122122585D01*
X118885357Y-121979728D01*
X118813928Y-121908300D01*
X118671071Y-121836871D01*
X118385357Y-121836871D01*
X118242500Y-121908300D01*
X134385357Y-125251871D02*
X134385357Y-123751871D01*
X133742500Y-125251871D02*
X133742500Y-124466157D01*
X133813928Y-124323300D01*
X133956785Y-124251871D01*
X134171071Y-124251871D01*
X134313928Y-124323300D01*
X134385357Y-124394728D01*
X133242500Y-124251871D02*
X132671071Y-124251871D01*
X133028214Y-123751871D02*
X133028214Y-125037585D01*
X132956785Y-125180442D01*
X132813928Y-125251871D01*
X132671071Y-125251871D01*
X132385357Y-124251871D02*
X131813928Y-124251871D01*
X132171071Y-123751871D02*
X132171071Y-125037585D01*
X132099642Y-125180442D01*
X131956785Y-125251871D01*
X131813928Y-125251871D01*
X131313928Y-124251871D02*
X131313928Y-125751871D01*
X131313928Y-124323300D02*
X131171071Y-124251871D01*
X130885357Y-124251871D01*
X130742500Y-124323300D01*
X130671071Y-124394728D01*
X130599642Y-124537585D01*
X130599642Y-124966157D01*
X130671071Y-125109014D01*
X130742500Y-125180442D01*
X130885357Y-125251871D01*
X131171071Y-125251871D01*
X131313928Y-125180442D01*
X130028214Y-125180442D02*
X129885357Y-125251871D01*
X129599642Y-125251871D01*
X129456785Y-125180442D01*
X129385357Y-125037585D01*
X129385357Y-124966157D01*
X129456785Y-124823300D01*
X129599642Y-124751871D01*
X129813928Y-124751871D01*
X129956785Y-124680442D01*
X130028214Y-124537585D01*
X130028214Y-124466157D01*
X129956785Y-124323300D01*
X129813928Y-124251871D01*
X129599642Y-124251871D01*
X129456785Y-124323300D01*
X128742500Y-125109014D02*
X128671071Y-125180442D01*
X128742500Y-125251871D01*
X128813928Y-125180442D01*
X128742500Y-125109014D01*
X128742500Y-125251871D01*
X128742500Y-124323300D02*
X128671071Y-124394728D01*
X128742500Y-124466157D01*
X128813928Y-124394728D01*
X128742500Y-124323300D01*
X128742500Y-124466157D01*
X126956785Y-123680442D02*
X128242500Y-125609014D01*
X125385357Y-123680442D02*
X126671071Y-125609014D01*
X124242500Y-124251871D02*
X124242500Y-125466157D01*
X124313928Y-125609014D01*
X124385357Y-125680442D01*
X124528214Y-125751871D01*
X124742500Y-125751871D01*
X124885357Y-125680442D01*
X124242500Y-125180442D02*
X124385357Y-125251871D01*
X124671071Y-125251871D01*
X124813928Y-125180442D01*
X124885357Y-125109014D01*
X124956785Y-124966157D01*
X124956785Y-124537585D01*
X124885357Y-124394728D01*
X124813928Y-124323300D01*
X124671071Y-124251871D01*
X124385357Y-124251871D01*
X124242500Y-124323300D01*
X123528214Y-125251871D02*
X123528214Y-124251871D01*
X123528214Y-123751871D02*
X123599642Y-123823300D01*
X123528214Y-123894728D01*
X123456785Y-123823300D01*
X123528214Y-123751871D01*
X123528214Y-123894728D01*
X123028214Y-124251871D02*
X122456785Y-124251871D01*
X122813928Y-123751871D02*
X122813928Y-125037585D01*
X122742500Y-125180442D01*
X122599642Y-125251871D01*
X122456785Y-125251871D01*
X121956785Y-125251871D02*
X121956785Y-123751871D01*
X121313928Y-125251871D02*
X121313928Y-124466157D01*
X121385357Y-124323300D01*
X121528214Y-124251871D01*
X121742500Y-124251871D01*
X121885357Y-124323300D01*
X121956785Y-124394728D01*
X119956785Y-124251871D02*
X119956785Y-125251871D01*
X120599642Y-124251871D02*
X120599642Y-125037585D01*
X120528214Y-125180442D01*
X120385357Y-125251871D01*
X120171071Y-125251871D01*
X120028214Y-125180442D01*
X119956785Y-125109014D01*
X119242499Y-125251871D02*
X119242499Y-123751871D01*
X119242499Y-124323300D02*
X119099642Y-124251871D01*
X118813928Y-124251871D01*
X118671071Y-124323300D01*
X118599642Y-124394728D01*
X118528214Y-124537585D01*
X118528214Y-124966157D01*
X118599642Y-125109014D01*
X118671071Y-125180442D01*
X118813928Y-125251871D01*
X119099642Y-125251871D01*
X119242499Y-125180442D01*
X117885357Y-125109014D02*
X117813928Y-125180442D01*
X117885357Y-125251871D01*
X117956785Y-125180442D01*
X117885357Y-125109014D01*
X117885357Y-125251871D01*
X116528214Y-125180442D02*
X116671071Y-125251871D01*
X116956785Y-125251871D01*
X117099642Y-125180442D01*
X117171071Y-125109014D01*
X117242499Y-124966157D01*
X117242499Y-124537585D01*
X117171071Y-124394728D01*
X117099642Y-124323300D01*
X116956785Y-124251871D01*
X116671071Y-124251871D01*
X116528214Y-124323300D01*
X115671071Y-125251871D02*
X115813928Y-125180442D01*
X115885357Y-125109014D01*
X115956785Y-124966157D01*
X115956785Y-124537585D01*
X115885357Y-124394728D01*
X115813928Y-124323300D01*
X115671071Y-124251871D01*
X115456785Y-124251871D01*
X115313928Y-124323300D01*
X115242499Y-124394728D01*
X115171071Y-124537585D01*
X115171071Y-124966157D01*
X115242499Y-125109014D01*
X115313928Y-125180442D01*
X115456785Y-125251871D01*
X115671071Y-125251871D01*
X114528214Y-125251871D02*
X114528214Y-124251871D01*
X114528214Y-124394728D02*
X114456785Y-124323300D01*
X114313928Y-124251871D01*
X114099642Y-124251871D01*
X113956785Y-124323300D01*
X113885357Y-124466157D01*
X113885357Y-125251871D01*
X113885357Y-124466157D02*
X113813928Y-124323300D01*
X113671071Y-124251871D01*
X113456785Y-124251871D01*
X113313928Y-124323300D01*
X113242499Y-124466157D01*
X113242499Y-125251871D01*
X111456785Y-123680442D02*
X112742499Y-125609014D01*
X110956785Y-124251871D02*
X110956785Y-125251871D01*
X110956785Y-124394728D02*
X110885357Y-124323300D01*
X110742499Y-124251871D01*
X110528214Y-124251871D01*
X110385357Y-124323300D01*
X110313928Y-124466157D01*
X110313928Y-125251871D01*
X109599642Y-125251871D02*
X109599642Y-124251871D01*
X109599642Y-124537585D02*
X109528214Y-124394728D01*
X109456785Y-124323300D01*
X109313928Y-124251871D01*
X109171071Y-124251871D01*
X108671071Y-125251871D02*
X108671071Y-124251871D01*
X108671071Y-123751871D02*
X108742499Y-123823300D01*
X108671071Y-123894728D01*
X108599642Y-123823300D01*
X108671071Y-123751871D01*
X108671071Y-123894728D01*
X108099642Y-124251871D02*
X107742499Y-125251871D01*
X107385357Y-124251871D01*
X106171071Y-125251871D02*
X106171071Y-124466157D01*
X106242499Y-124323300D01*
X106385357Y-124251871D01*
X106671071Y-124251871D01*
X106813928Y-124323300D01*
X106171071Y-125180442D02*
X106313928Y-125251871D01*
X106671071Y-125251871D01*
X106813928Y-125180442D01*
X106885357Y-125037585D01*
X106885357Y-124894728D01*
X106813928Y-124751871D01*
X106671071Y-124680442D01*
X106313928Y-124680442D01*
X106171071Y-124609014D01*
X105456785Y-125251871D02*
X105456785Y-124251871D01*
X105456785Y-124537585D02*
X105385357Y-124394728D01*
X105313928Y-124323300D01*
X105171071Y-124251871D01*
X105028214Y-124251871D01*
X103885357Y-125251871D02*
X103885357Y-123751871D01*
X103885357Y-125180442D02*
X104028214Y-125251871D01*
X104313928Y-125251871D01*
X104456785Y-125180442D01*
X104528214Y-125109014D01*
X104599642Y-124966157D01*
X104599642Y-124537585D01*
X104528214Y-124394728D01*
X104456785Y-124323300D01*
X104313928Y-124251871D01*
X104028214Y-124251871D01*
X103885357Y-124323300D01*
X102099642Y-123680442D02*
X103385357Y-125609014D01*
X101599642Y-124251871D02*
X101599642Y-125251871D01*
X101599642Y-124394728D02*
X101528214Y-124323300D01*
X101385357Y-124251871D01*
X101171071Y-124251871D01*
X101028214Y-124323300D01*
X100956785Y-124466157D01*
X100956785Y-125251871D01*
X100028214Y-124394728D02*
X100171071Y-124323300D01*
X100242499Y-124251871D01*
X100313928Y-124109014D01*
X100313928Y-124037585D01*
X100242499Y-123894728D01*
X100171071Y-123823300D01*
X100028214Y-123751871D01*
X99742499Y-123751871D01*
X99599642Y-123823300D01*
X99528214Y-123894728D01*
X99456785Y-124037585D01*
X99456785Y-124109014D01*
X99528214Y-124251871D01*
X99599642Y-124323300D01*
X99742499Y-124394728D01*
X100028214Y-124394728D01*
X100171071Y-124466157D01*
X100242499Y-124537585D01*
X100313928Y-124680442D01*
X100313928Y-124966157D01*
X100242499Y-125109014D01*
X100171071Y-125180442D01*
X100028214Y-125251871D01*
X99742499Y-125251871D01*
X99599642Y-125180442D01*
X99528214Y-125109014D01*
X99456785Y-124966157D01*
X99456785Y-124680442D01*
X99528214Y-124537585D01*
X99599642Y-124466157D01*
X99742499Y-124394728D01*
X98813928Y-124680442D02*
X97671071Y-124680442D01*
X96956785Y-125251871D02*
X96956785Y-123751871D01*
X96956785Y-124323300D02*
X96813928Y-124251871D01*
X96528214Y-124251871D01*
X96385357Y-124323300D01*
X96313928Y-124394728D01*
X96242499Y-124537585D01*
X96242499Y-124966157D01*
X96313928Y-125109014D01*
X96385357Y-125180442D01*
X96528214Y-125251871D01*
X96813928Y-125251871D01*
X96956785Y-125180442D01*
X95599642Y-125251871D02*
X95599642Y-124251871D01*
X95599642Y-123751871D02*
X95671071Y-123823300D01*
X95599642Y-123894728D01*
X95528214Y-123823300D01*
X95599642Y-123751871D01*
X95599642Y-123894728D01*
X95099642Y-124251871D02*
X94528214Y-124251871D01*
X94885357Y-123751871D02*
X94885357Y-125037585D01*
X94813928Y-125180442D01*
X94671071Y-125251871D01*
X94528214Y-125251871D01*
X134599642Y-126166871D02*
X134099642Y-127666871D01*
X133599642Y-126166871D01*
X132528214Y-127595442D02*
X132671071Y-127666871D01*
X132956785Y-127666871D01*
X133099642Y-127595442D01*
X133171071Y-127452585D01*
X133171071Y-126881157D01*
X133099642Y-126738300D01*
X132956785Y-126666871D01*
X132671071Y-126666871D01*
X132528214Y-126738300D01*
X132456785Y-126881157D01*
X132456785Y-127024014D01*
X133171071Y-127166871D01*
X131813928Y-127666871D02*
X131813928Y-126666871D01*
X131813928Y-126952585D02*
X131742500Y-126809728D01*
X131671071Y-126738300D01*
X131528214Y-126666871D01*
X131385357Y-126666871D01*
X130956785Y-127595442D02*
X130813928Y-127666871D01*
X130528214Y-127666871D01*
X130385357Y-127595442D01*
X130313928Y-127452585D01*
X130313928Y-127381157D01*
X130385357Y-127238300D01*
X130528214Y-127166871D01*
X130742500Y-127166871D01*
X130885357Y-127095442D01*
X130956785Y-126952585D01*
X130956785Y-126881157D01*
X130885357Y-126738300D01*
X130742500Y-126666871D01*
X130528214Y-126666871D01*
X130385357Y-126738300D01*
X129671071Y-127666871D02*
X129671071Y-126666871D01*
X129671071Y-126166871D02*
X129742500Y-126238300D01*
X129671071Y-126309728D01*
X129599642Y-126238300D01*
X129671071Y-126166871D01*
X129671071Y-126309728D01*
X128742500Y-127666871D02*
X128885357Y-127595442D01*
X128956785Y-127524014D01*
X129028214Y-127381157D01*
X129028214Y-126952585D01*
X128956785Y-126809728D01*
X128885357Y-126738300D01*
X128742500Y-126666871D01*
X128528214Y-126666871D01*
X128385357Y-126738300D01*
X128313928Y-126809728D01*
X128242500Y-126952585D01*
X128242500Y-127381157D01*
X128313928Y-127524014D01*
X128385357Y-127595442D01*
X128528214Y-127666871D01*
X128742500Y-127666871D01*
X127599642Y-126666871D02*
X127599642Y-127666871D01*
X127599642Y-126809728D02*
X127528214Y-126738300D01*
X127385357Y-126666871D01*
X127171071Y-126666871D01*
X127028214Y-126738300D01*
X126956785Y-126881157D01*
X126956785Y-127666871D01*
X125242500Y-126166871D02*
X124313928Y-126166871D01*
X124813928Y-126738300D01*
X124599642Y-126738300D01*
X124456785Y-126809728D01*
X124385357Y-126881157D01*
X124313928Y-127024014D01*
X124313928Y-127381157D01*
X124385357Y-127524014D01*
X124456785Y-127595442D01*
X124599642Y-127666871D01*
X125028214Y-127666871D01*
X125171071Y-127595442D01*
X125242500Y-127524014D01*
X134385357Y-130081871D02*
X134385357Y-128581871D01*
X133885357Y-129653300D01*
X133385357Y-128581871D01*
X133385357Y-130081871D01*
X132028214Y-130081871D02*
X132028214Y-129296157D01*
X132099642Y-129153300D01*
X132242500Y-129081871D01*
X132528214Y-129081871D01*
X132671071Y-129153300D01*
X132028214Y-130010442D02*
X132171071Y-130081871D01*
X132528214Y-130081871D01*
X132671071Y-130010442D01*
X132742500Y-129867585D01*
X132742500Y-129724728D01*
X132671071Y-129581871D01*
X132528214Y-129510442D01*
X132171071Y-129510442D01*
X132028214Y-129439014D01*
X131456785Y-129081871D02*
X131099642Y-130081871D01*
X130742500Y-129081871D02*
X131099642Y-130081871D01*
X131242500Y-130439014D01*
X131313928Y-130510442D01*
X131456785Y-130581871D01*
X129099642Y-128724728D02*
X129028214Y-128653300D01*
X128885357Y-128581871D01*
X128528214Y-128581871D01*
X128385357Y-128653300D01*
X128313928Y-128724728D01*
X128242500Y-128867585D01*
X128242500Y-129010442D01*
X128313928Y-129224728D01*
X129171071Y-130081871D01*
X128242500Y-130081871D01*
X127313928Y-128581871D02*
X127171071Y-128581871D01*
X127028214Y-128653300D01*
X126956785Y-128724728D01*
X126885357Y-128867585D01*
X126813928Y-129153300D01*
X126813928Y-129510442D01*
X126885357Y-129796157D01*
X126956785Y-129939014D01*
X127028214Y-130010442D01*
X127171071Y-130081871D01*
X127313928Y-130081871D01*
X127456785Y-130010442D01*
X127528214Y-129939014D01*
X127599642Y-129796157D01*
X127671071Y-129510442D01*
X127671071Y-129153300D01*
X127599642Y-128867585D01*
X127528214Y-128724728D01*
X127456785Y-128653300D01*
X127313928Y-128581871D01*
X126242500Y-128724728D02*
X126171071Y-128653300D01*
X126028214Y-128581871D01*
X125671071Y-128581871D01*
X125528214Y-128653300D01*
X125456785Y-128724728D01*
X125385357Y-128867585D01*
X125385357Y-129010442D01*
X125456785Y-129224728D01*
X126313928Y-130081871D01*
X125385357Y-130081871D01*
X124813928Y-128724728D02*
X124742500Y-128653300D01*
X124599642Y-128581871D01*
X124242500Y-128581871D01*
X124099642Y-128653300D01*
X124028214Y-128724728D01*
X123956785Y-128867585D01*
X123956785Y-129010442D01*
X124028214Y-129224728D01*
X124885357Y-130081871D01*
X123956785Y-130081871D01*
M02*
