%TF.GenerationSoftware,KiCad,Pcbnew,(6.0.5-0)*%
%TF.CreationDate,2022-06-16T16:01:58+02:00*%
%TF.ProjectId,n8 bit special,6e382062-6974-4207-9370-656369616c2e,2*%
%TF.SameCoordinates,Original*%
%TF.FileFunction,Copper,L1,Top*%
%TF.FilePolarity,Positive*%
%FSLAX46Y46*%
G04 Gerber Fmt 4.6, Leading zero omitted, Abs format (unit mm)*
G04 Created by KiCad (PCBNEW (6.0.5-0)) date 2022-06-16 16:01:58*
%MOMM*%
%LPD*%
G01*
G04 APERTURE LIST*
G04 Aperture macros list*
%AMRoundRect*
0 Rectangle with rounded corners*
0 $1 Rounding radius*
0 $2 $3 $4 $5 $6 $7 $8 $9 X,Y pos of 4 corners*
0 Add a 4 corners polygon primitive as box body*
4,1,4,$2,$3,$4,$5,$6,$7,$8,$9,$2,$3,0*
0 Add four circle primitives for the rounded corners*
1,1,$1+$1,$2,$3*
1,1,$1+$1,$4,$5*
1,1,$1+$1,$6,$7*
1,1,$1+$1,$8,$9*
0 Add four rect primitives between the rounded corners*
20,1,$1+$1,$2,$3,$4,$5,0*
20,1,$1+$1,$4,$5,$6,$7,0*
20,1,$1+$1,$6,$7,$8,$9,0*
20,1,$1+$1,$8,$9,$2,$3,0*%
G04 Aperture macros list end*
%TA.AperFunction,ComponentPad*%
%ADD10R,1.600000X1.600000*%
%TD*%
%TA.AperFunction,ComponentPad*%
%ADD11O,1.600000X1.600000*%
%TD*%
%TA.AperFunction,ComponentPad*%
%ADD12C,1.600000*%
%TD*%
%TA.AperFunction,SMDPad,CuDef*%
%ADD13R,1.300000X0.450000*%
%TD*%
%TA.AperFunction,ComponentPad*%
%ADD14O,1.800000X1.150000*%
%TD*%
%TA.AperFunction,ComponentPad*%
%ADD15O,2.000000X1.450000*%
%TD*%
%TA.AperFunction,ComponentPad*%
%ADD16R,1.300000X1.300000*%
%TD*%
%TA.AperFunction,ComponentPad*%
%ADD17C,1.300000*%
%TD*%
%TA.AperFunction,ComponentPad*%
%ADD18R,1.800000X1.800000*%
%TD*%
%TA.AperFunction,ComponentPad*%
%ADD19C,1.800000*%
%TD*%
%TA.AperFunction,ComponentPad*%
%ADD20R,1.422400X1.422400*%
%TD*%
%TA.AperFunction,ComponentPad*%
%ADD21C,1.422400*%
%TD*%
%TA.AperFunction,ComponentPad*%
%ADD22R,1.700000X1.700000*%
%TD*%
%TA.AperFunction,ComponentPad*%
%ADD23O,1.700000X1.700000*%
%TD*%
%TA.AperFunction,ComponentPad*%
%ADD24C,2.000000*%
%TD*%
%TA.AperFunction,SMDPad,CuDef*%
%ADD25RoundRect,0.150000X-0.825000X-0.150000X0.825000X-0.150000X0.825000X0.150000X-0.825000X0.150000X0*%
%TD*%
%TA.AperFunction,ViaPad*%
%ADD26C,0.800000*%
%TD*%
%TA.AperFunction,Conductor*%
%ADD27C,0.300000*%
%TD*%
%TA.AperFunction,Conductor*%
%ADD28C,0.154000*%
%TD*%
%TA.AperFunction,Conductor*%
%ADD29C,0.200000*%
%TD*%
G04 APERTURE END LIST*
D10*
%TO.P,U6,1,CLK/IN1*%
%TO.N,CLK*%
X118745000Y-82537300D03*
D11*
%TO.P,U6,2,IN2*%
%TO.N,/A6*%
X116205000Y-82537300D03*
%TO.P,U6,3,IN3*%
%TO.N,/A7*%
X113665000Y-82537300D03*
%TO.P,U6,4,IN4/PD*%
%TO.N,/A8*%
X111125000Y-82537300D03*
%TO.P,U6,5,IN5*%
%TO.N,/A9*%
X108585000Y-82537300D03*
%TO.P,U6,6,IN6*%
%TO.N,/A10*%
X106045000Y-82537300D03*
%TO.P,U6,7,IN7*%
%TO.N,/A11*%
X103505000Y-82537300D03*
%TO.P,U6,8,IN8*%
%TO.N,/A12*%
X100965000Y-82537300D03*
%TO.P,U6,9,IN9*%
%TO.N,/A13*%
X98425000Y-82537300D03*
%TO.P,U6,10,IN10*%
%TO.N,/A14*%
X95885000Y-82537300D03*
%TO.P,U6,11,IN11*%
%TO.N,/A15*%
X93345000Y-82537300D03*
%TO.P,U6,12,GND*%
%TO.N,GND*%
X90805000Y-82537300D03*
%TO.P,U6,13,IN12*%
%TO.N,R~{W}*%
X90805000Y-90157300D03*
%TO.P,U6,14,IO13*%
%TO.N,FUTURE1*%
X93345000Y-90157300D03*
%TO.P,U6,15,IO14*%
%TO.N,FUTURE0*%
X95885000Y-90157300D03*
%TO.P,U6,16,IO15*%
%TO.N,unconnected-(U6-Pad16)*%
X98425000Y-90157300D03*
%TO.P,U6,17,IO16*%
%TO.N,~{UART_CS}*%
X100965000Y-90157300D03*
%TO.P,U6,18,IO17*%
%TO.N,~{PORT2_CS}*%
X103505000Y-90157300D03*
%TO.P,U6,19,IO18*%
%TO.N,~{PORT1_CS}*%
X106045000Y-90157300D03*
%TO.P,U6,20,IO19*%
%TO.N,~{PORT0_CS}*%
X108585000Y-90157300D03*
%TO.P,U6,21,IO20*%
%TO.N,~{RAM2_CS}*%
X111125000Y-90157300D03*
%TO.P,U6,22,IO21*%
%TO.N,~{RAM1_CS}*%
X113665000Y-90157300D03*
%TO.P,U6,23,IO22*%
%TO.N,~{ROM_CS}*%
X116205000Y-90157300D03*
%TO.P,U6,24,VCC*%
%TO.N,+5V*%
X118745000Y-90157300D03*
%TD*%
D12*
%TO.P,C11,1*%
%TO.N,+5V*%
X156972000Y-55041800D03*
%TO.P,C11,2*%
%TO.N,GND*%
X156972000Y-52541800D03*
%TD*%
D10*
%TO.P,U4,1,A14*%
%TO.N,/A14*%
X90678000Y-43370500D03*
D11*
%TO.P,U4,2,A12*%
%TO.N,/A12*%
X90678000Y-45910500D03*
%TO.P,U4,3,A7*%
%TO.N,/A7*%
X90678000Y-48450500D03*
%TO.P,U4,4,A6*%
%TO.N,/A6*%
X90678000Y-50990500D03*
%TO.P,U4,5,A5*%
%TO.N,/A5*%
X90678000Y-53530500D03*
%TO.P,U4,6,A4*%
%TO.N,/A4*%
X90678000Y-56070500D03*
%TO.P,U4,7,A3*%
%TO.N,/A3*%
X90678000Y-58610500D03*
%TO.P,U4,8,A2*%
%TO.N,/A2*%
X90678000Y-61150500D03*
%TO.P,U4,9,A1*%
%TO.N,/A1*%
X90678000Y-63690500D03*
%TO.P,U4,10,A0*%
%TO.N,/A0*%
X90678000Y-66230500D03*
%TO.P,U4,11,D0*%
%TO.N,/D0*%
X90678000Y-68770500D03*
%TO.P,U4,12,D1*%
%TO.N,/D1*%
X90678000Y-71310500D03*
%TO.P,U4,13,D2*%
%TO.N,/D2*%
X90678000Y-73850500D03*
%TO.P,U4,14,GND*%
%TO.N,GND*%
X90678000Y-76390500D03*
%TO.P,U4,15,D3*%
%TO.N,/D3*%
X105918000Y-76390500D03*
%TO.P,U4,16,D4*%
%TO.N,/D4*%
X105918000Y-73850500D03*
%TO.P,U4,17,D5*%
%TO.N,/D5*%
X105918000Y-71310500D03*
%TO.P,U4,18,D6*%
%TO.N,/D6*%
X105918000Y-68770500D03*
%TO.P,U4,19,D7*%
%TO.N,/D7*%
X105918000Y-66230500D03*
%TO.P,U4,20,~{CS}*%
%TO.N,~{ROM_CS}*%
X105918000Y-63690500D03*
%TO.P,U4,21,A10*%
%TO.N,/A10*%
X105918000Y-61150500D03*
%TO.P,U4,22,~{OE}*%
%TO.N,~{READ}*%
X105918000Y-58610500D03*
%TO.P,U4,23,A11*%
%TO.N,/A11*%
X105918000Y-56070500D03*
%TO.P,U4,24,A9*%
%TO.N,/A9*%
X105918000Y-53530500D03*
%TO.P,U4,25,A8*%
%TO.N,/A8*%
X105918000Y-50990500D03*
%TO.P,U4,26,A13*%
%TO.N,/A13*%
X105918000Y-48450500D03*
%TO.P,U4,27,~{WE}*%
%TO.N,+5V*%
X105918000Y-45910500D03*
%TO.P,U4,28,VCC*%
X105918000Y-43370500D03*
%TD*%
D10*
%TO.P,U3,1,A14*%
%TO.N,/A14*%
X113919000Y-43370500D03*
D11*
%TO.P,U3,2,A12*%
%TO.N,/A12*%
X113919000Y-45910500D03*
%TO.P,U3,3,A7*%
%TO.N,/A7*%
X113919000Y-48450500D03*
%TO.P,U3,4,A6*%
%TO.N,/A6*%
X113919000Y-50990500D03*
%TO.P,U3,5,A5*%
%TO.N,/A5*%
X113919000Y-53530500D03*
%TO.P,U3,6,A4*%
%TO.N,/A4*%
X113919000Y-56070500D03*
%TO.P,U3,7,A3*%
%TO.N,/A3*%
X113919000Y-58610500D03*
%TO.P,U3,8,A2*%
%TO.N,/A2*%
X113919000Y-61150500D03*
%TO.P,U3,9,A1*%
%TO.N,/A1*%
X113919000Y-63690500D03*
%TO.P,U3,10,A0*%
%TO.N,/A0*%
X113919000Y-66230500D03*
%TO.P,U3,11,Q0*%
%TO.N,/D0*%
X113919000Y-68770500D03*
%TO.P,U3,12,Q1*%
%TO.N,/D1*%
X113919000Y-71310500D03*
%TO.P,U3,13,Q2*%
%TO.N,/D2*%
X113919000Y-73850500D03*
%TO.P,U3,14,GND*%
%TO.N,GND*%
X113919000Y-76390500D03*
%TO.P,U3,15,Q3*%
%TO.N,/D3*%
X129159000Y-76390500D03*
%TO.P,U3,16,Q4*%
%TO.N,/D4*%
X129159000Y-73850500D03*
%TO.P,U3,17,Q5*%
%TO.N,/D5*%
X129159000Y-71310500D03*
%TO.P,U3,18,Q6*%
%TO.N,/D6*%
X129159000Y-68770500D03*
%TO.P,U3,19,Q7*%
%TO.N,/D7*%
X129159000Y-66230500D03*
%TO.P,U3,20,~{CS}*%
%TO.N,~{RAM2_CS}*%
X129159000Y-63690500D03*
%TO.P,U3,21,A10*%
%TO.N,/A10*%
X129159000Y-61150500D03*
%TO.P,U3,22,~{OE}*%
%TO.N,~{READ}*%
X129159000Y-58610500D03*
%TO.P,U3,23,A11*%
%TO.N,/A11*%
X129159000Y-56070500D03*
%TO.P,U3,24,A9*%
%TO.N,/A9*%
X129159000Y-53530500D03*
%TO.P,U3,25,A8*%
%TO.N,/A8*%
X129159000Y-50990500D03*
%TO.P,U3,26,A13*%
%TO.N,/A13*%
X129159000Y-48450500D03*
%TO.P,U3,27,~{WE}*%
%TO.N,~{WRITE}*%
X129159000Y-45910500D03*
%TO.P,U3,28,VCC*%
%TO.N,+5V*%
X129159000Y-43370500D03*
%TD*%
D10*
%TO.P,U2,1,A14*%
%TO.N,/A14*%
X137160000Y-43370500D03*
D11*
%TO.P,U2,2,A12*%
%TO.N,/A12*%
X137160000Y-45910500D03*
%TO.P,U2,3,A7*%
%TO.N,/A7*%
X137160000Y-48450500D03*
%TO.P,U2,4,A6*%
%TO.N,/A6*%
X137160000Y-50990500D03*
%TO.P,U2,5,A5*%
%TO.N,/A5*%
X137160000Y-53530500D03*
%TO.P,U2,6,A4*%
%TO.N,/A4*%
X137160000Y-56070500D03*
%TO.P,U2,7,A3*%
%TO.N,/A3*%
X137160000Y-58610500D03*
%TO.P,U2,8,A2*%
%TO.N,/A2*%
X137160000Y-61150500D03*
%TO.P,U2,9,A1*%
%TO.N,/A1*%
X137160000Y-63690500D03*
%TO.P,U2,10,A0*%
%TO.N,/A0*%
X137160000Y-66230500D03*
%TO.P,U2,11,Q0*%
%TO.N,/D0*%
X137160000Y-68770500D03*
%TO.P,U2,12,Q1*%
%TO.N,/D1*%
X137160000Y-71310500D03*
%TO.P,U2,13,Q2*%
%TO.N,/D2*%
X137160000Y-73850500D03*
%TO.P,U2,14,GND*%
%TO.N,GND*%
X137160000Y-76390500D03*
%TO.P,U2,15,Q3*%
%TO.N,/D3*%
X152400000Y-76390500D03*
%TO.P,U2,16,Q4*%
%TO.N,/D4*%
X152400000Y-73850500D03*
%TO.P,U2,17,Q5*%
%TO.N,/D5*%
X152400000Y-71310500D03*
%TO.P,U2,18,Q6*%
%TO.N,/D6*%
X152400000Y-68770500D03*
%TO.P,U2,19,Q7*%
%TO.N,/D7*%
X152400000Y-66230500D03*
%TO.P,U2,20,~{CS}*%
%TO.N,~{RAM1_CS}*%
X152400000Y-63690500D03*
%TO.P,U2,21,A10*%
%TO.N,/A10*%
X152400000Y-61150500D03*
%TO.P,U2,22,~{OE}*%
%TO.N,~{READ}*%
X152400000Y-58610500D03*
%TO.P,U2,23,A11*%
%TO.N,/A11*%
X152400000Y-56070500D03*
%TO.P,U2,24,A9*%
%TO.N,/A9*%
X152400000Y-53530500D03*
%TO.P,U2,25,A8*%
%TO.N,/A8*%
X152400000Y-50990500D03*
%TO.P,U2,26,A13*%
%TO.N,/A13*%
X152400000Y-48450500D03*
%TO.P,U2,27,~{WE}*%
%TO.N,~{WRITE}*%
X152400000Y-45910500D03*
%TO.P,U2,28,VCC*%
%TO.N,+5V*%
X152400000Y-43370500D03*
%TD*%
D12*
%TO.P,C13,1*%
%TO.N,+5V*%
X133223000Y-44297600D03*
%TO.P,C13,2*%
%TO.N,GND*%
X133223000Y-46797600D03*
%TD*%
D10*
%TO.P,X1,1,EN*%
%TO.N,unconnected-(X1-Pad1)*%
X130785000Y-90373200D03*
D12*
%TO.P,X1,4,GND*%
%TO.N,GND*%
X138405000Y-90373200D03*
%TO.P,X1,5,OUT*%
%TO.N,CLK*%
X138405000Y-82753200D03*
%TO.P,X1,8,Vcc*%
%TO.N,+5V*%
X130785000Y-82753200D03*
%TD*%
D13*
%TO.P,J1,1,VBUS*%
%TO.N,+5V*%
X181241000Y-114151600D03*
%TO.P,J1,2,D-*%
%TO.N,USB_D-*%
X181241000Y-113501600D03*
%TO.P,J1,3,D+*%
%TO.N,USB_D+*%
X181241000Y-112851600D03*
%TO.P,J1,4,ID*%
%TO.N,unconnected-(J1-Pad4)*%
X181241000Y-112201600D03*
%TO.P,J1,5,GND*%
%TO.N,GND*%
X181241000Y-111551600D03*
D14*
%TO.P,J1,6,Shield*%
%TO.N,unconnected-(J1-Pad6)*%
X185091000Y-108976600D03*
X185091000Y-116726600D03*
D15*
X181291000Y-109126600D03*
X181291000Y-116576600D03*
%TD*%
D12*
%TO.P,R1,1*%
%TO.N,Net-(D1-Pad1)*%
X173888000Y-130696000D03*
D11*
%TO.P,R1,2*%
%TO.N,GND*%
X173888000Y-123076000D03*
%TD*%
D16*
%TO.P,Q1,1,E*%
%TO.N,Net-(D1-Pad2)*%
X162611000Y-130315000D03*
D17*
%TO.P,Q1,2,B*%
%TO.N,Net-(Q1-Pad2)*%
X163881000Y-129045000D03*
%TO.P,Q1,3,C*%
%TO.N,+5V*%
X165151000Y-130315000D03*
%TD*%
D18*
%TO.P,D1,1,K*%
%TO.N,Net-(D1-Pad1)*%
X173533000Y-135712000D03*
D19*
%TO.P,D1,2,A*%
%TO.N,Net-(D1-Pad2)*%
X170993000Y-135712000D03*
%TD*%
D16*
%TO.P,U7,1,~{RES}*%
%TO.N,~{RES}*%
X162611000Y-124028000D03*
D17*
%TO.P,U7,2,VCC*%
%TO.N,+5V*%
X163881000Y-122758000D03*
%TO.P,U7,3,GND*%
%TO.N,GND*%
X165151000Y-124028000D03*
%TD*%
D12*
%TO.P,R4,1*%
%TO.N,Net-(Q1-Pad2)*%
X169532000Y-130746000D03*
D11*
%TO.P,R4,2*%
%TO.N,~{RES}*%
X169532000Y-123126000D03*
%TD*%
D12*
%TO.P,C12,1*%
%TO.N,+5V*%
X156947000Y-43459400D03*
%TO.P,C12,2*%
%TO.N,GND*%
X156947000Y-45959400D03*
%TD*%
%TO.P,C14,1*%
%TO.N,+5V*%
X109918000Y-43307000D03*
%TO.P,C14,2*%
%TO.N,GND*%
X109918000Y-45807000D03*
%TD*%
%TO.P,C17,1*%
%TO.N,+5V*%
X157036000Y-76657200D03*
%TO.P,C17,2*%
%TO.N,GND*%
X157036000Y-74157200D03*
%TD*%
%TO.P,C18,1*%
%TO.N,+5V*%
X165791200Y-104952800D03*
%TO.P,C18,2*%
%TO.N,GND*%
X163291200Y-104952800D03*
%TD*%
D20*
%TO.P,U5,1,NC1*%
%TO.N,unconnected-(U5-Pad1)*%
X166116000Y-79679800D03*
D21*
%TO.P,U5,2,A0*%
%TO.N,/A0*%
X163576000Y-82219800D03*
%TO.P,U5,3,IP3*%
%TO.N,unconnected-(U5-Pad3)*%
X166116000Y-82219800D03*
%TO.P,U5,4,A1*%
%TO.N,/A1*%
X163576000Y-84759800D03*
%TO.P,U5,5,IP1*%
%TO.N,unconnected-(U5-Pad5)*%
X166116000Y-84759800D03*
%TO.P,U5,6,A2*%
%TO.N,/A2*%
X163576000Y-87299800D03*
%TO.P,U5,7,A3*%
%TO.N,/A3*%
X166116000Y-89839800D03*
%TO.P,U5,8,IP0*%
%TO.N,~{CTS}*%
X166116000Y-87299800D03*
%TO.P,U5,9,~{WRN}*%
%TO.N,~{WRITE}*%
X168656000Y-89839800D03*
%TO.P,U5,10,~{RDN}*%
%TO.N,~{READ}*%
X168656000Y-87299800D03*
%TO.P,U5,11,RxDB*%
%TO.N,unconnected-(U5-Pad11)*%
X171196000Y-89839800D03*
%TO.P,U5,12,I/M*%
%TO.N,+5V*%
X171196000Y-87299800D03*
%TO.P,U5,13,TxDB*%
%TO.N,unconnected-(U5-Pad13)*%
X173736000Y-89839800D03*
%TO.P,U5,14,OP1*%
%TO.N,unconnected-(U5-Pad14)*%
X173736000Y-87299800D03*
%TO.P,U5,15,OP3*%
%TO.N,unconnected-(U5-Pad15)*%
X176276000Y-89839800D03*
%TO.P,U5,16,OP5*%
%TO.N,unconnected-(U5-Pad16)*%
X176276000Y-87299800D03*
%TO.P,U5,17,OP7*%
%TO.N,unconnected-(U5-Pad17)*%
X178816000Y-89839800D03*
%TO.P,U5,18,D1*%
%TO.N,/D1*%
X181356000Y-87299800D03*
%TO.P,U5,19,D3*%
%TO.N,/D3*%
X178816000Y-87299800D03*
%TO.P,U5,20,D5*%
%TO.N,/D5*%
X181356000Y-84759800D03*
%TO.P,U5,21,D7*%
%TO.N,/D7*%
X178816000Y-84759800D03*
%TO.P,U5,22,GND*%
%TO.N,GND*%
X181356000Y-82219800D03*
%TO.P,U5,23,NC23*%
%TO.N,unconnected-(U5-Pad23)*%
X178816000Y-82219800D03*
%TO.P,U5,24,~{INTRN}*%
%TO.N,~{UART_IRQ}*%
X181356000Y-79679800D03*
%TO.P,U5,25,D6*%
%TO.N,/D6*%
X178816000Y-79679800D03*
%TO.P,U5,26,D4*%
%TO.N,/D4*%
X181356000Y-77139800D03*
%TO.P,U5,27,D2*%
%TO.N,/D2*%
X178816000Y-77139800D03*
%TO.P,U5,28,D0*%
%TO.N,/D0*%
X181356000Y-74599800D03*
%TO.P,U5,29,OP6*%
%TO.N,unconnected-(U5-Pad29)*%
X178816000Y-72059800D03*
%TO.P,U5,30,OP4*%
%TO.N,unconnected-(U5-Pad30)*%
X178816000Y-74599800D03*
%TO.P,U5,31,OP2*%
%TO.N,unconnected-(U5-Pad31)*%
X176276000Y-72059800D03*
%TO.P,U5,32,OP0*%
%TO.N,~{RTS}*%
X176276000Y-74599800D03*
%TO.P,U5,33,TxDA*%
%TO.N,TxD*%
X173736000Y-72059800D03*
%TO.P,U5,34,NC34*%
%TO.N,unconnected-(U5-Pad34)*%
X173736000Y-74599800D03*
%TO.P,U5,35,RxDA*%
%TO.N,RxD*%
X171196000Y-72059800D03*
%TO.P,U5,36,X1/CLK*%
%TO.N,CLK*%
X171196000Y-74599800D03*
%TO.P,U5,37,X2*%
%TO.N,unconnected-(U5-Pad37)*%
X168656000Y-72059800D03*
%TO.P,U5,38,RESET*%
%TO.N,UART_RES*%
X168656000Y-74599800D03*
%TO.P,U5,39,~{CEN}*%
%TO.N,~{UART_CS}*%
X166116000Y-72059800D03*
%TO.P,U5,40,IP2*%
%TO.N,unconnected-(U5-Pad40)*%
X163576000Y-74599800D03*
%TO.P,U5,41,IP6*%
%TO.N,unconnected-(U5-Pad41)*%
X166116000Y-74599800D03*
%TO.P,U5,42,IP5*%
%TO.N,unconnected-(U5-Pad42)*%
X163576000Y-77139800D03*
%TO.P,U5,43,IP4*%
%TO.N,unconnected-(U5-Pad43)*%
X166116000Y-77139800D03*
%TO.P,U5,44,VCC*%
%TO.N,+5V*%
X163576000Y-79679800D03*
%TD*%
D12*
%TO.P,C15,1*%
%TO.N,GND*%
X124282000Y-89179400D03*
%TO.P,C15,2*%
%TO.N,+5V*%
X124282000Y-91679400D03*
%TD*%
D22*
%TO.P,J6,1,Pin_1*%
%TO.N,PORT0_IRQ_PULLUP*%
X157569000Y-129489000D03*
D23*
%TO.P,J6,2,Pin_2*%
%TO.N,Net-(J6-Pad2)*%
X157569000Y-132029000D03*
%TO.P,J6,3,Pin_3*%
%TO.N,PORT0_NMI_PULLUP*%
X155029000Y-129489000D03*
%TO.P,J6,4,Pin_4*%
%TO.N,Net-(J6-Pad4)*%
X155029000Y-132029000D03*
%TO.P,J6,5,Pin_5*%
%TO.N,PORT1_IRQ_PULLUP*%
X152489000Y-129489000D03*
%TO.P,J6,6,Pin_6*%
%TO.N,Net-(J6-Pad6)*%
X152489000Y-132029000D03*
%TO.P,J6,7,Pin_7*%
%TO.N,PORT1_NMI_PULLUP*%
X149949000Y-129489000D03*
%TO.P,J6,8,Pin_8*%
%TO.N,Net-(J6-Pad8)*%
X149949000Y-132029000D03*
%TO.P,J6,9,Pin_9*%
%TO.N,PORT2_IRQ_PULLUP*%
X147409000Y-129489000D03*
%TO.P,J6,10,Pin_10*%
%TO.N,Net-(J6-Pad10)*%
X147409000Y-132029000D03*
%TO.P,J6,11,Pin_11*%
%TO.N,PORT2_NMI_PULLUP*%
X144869000Y-129489000D03*
%TO.P,J6,12,Pin_12*%
%TO.N,Net-(J6-Pad12)*%
X144869000Y-132029000D03*
%TD*%
D10*
%TO.P,RN1,1,common*%
%TO.N,+5V*%
X165176000Y-136233000D03*
D11*
%TO.P,RN1,2,R1*%
%TO.N,RDY_PULLUP*%
X162636000Y-136233000D03*
%TO.P,RN1,3,R2*%
%TO.N,Net-(J6-Pad2)*%
X160096000Y-136233000D03*
%TO.P,RN1,4,R3*%
%TO.N,Net-(J6-Pad4)*%
X157556000Y-136233000D03*
%TO.P,RN1,5,R4*%
%TO.N,Net-(J6-Pad6)*%
X155016000Y-136233000D03*
%TO.P,RN1,6,R5*%
%TO.N,Net-(J6-Pad8)*%
X152476000Y-136233000D03*
%TO.P,RN1,7,R6*%
%TO.N,Net-(J6-Pad10)*%
X149936000Y-136233000D03*
%TO.P,RN1,8,R7*%
%TO.N,Net-(J6-Pad12)*%
X147396000Y-136233000D03*
%TO.P,RN1,9,R8*%
%TO.N,BE_PULLUP*%
X144856000Y-136233000D03*
%TD*%
D12*
%TO.P,C9,1*%
%TO.N,+5V*%
X157048000Y-103289000D03*
%TO.P,C9,2*%
%TO.N,GND*%
X157048000Y-105789000D03*
%TD*%
D10*
%TO.P,U9,1*%
%TO.N,PORT0_IRQ_PULLUP*%
X144856000Y-103314000D03*
D11*
%TO.P,U9,2*%
%TO.N,PORT1_IRQ_PULLUP*%
X144856000Y-105854000D03*
%TO.P,U9,3*%
%TO.N,N/C*%
X144856000Y-108394000D03*
%TO.P,U9,4*%
%TO.N,PORT2_IRQ_PULLUP*%
X144856000Y-110934000D03*
%TO.P,U9,5*%
%TO.N,~{UART_IRQ}*%
X144856000Y-113474000D03*
%TO.P,U9,6*%
%TO.N,~{IRQ}*%
X144856000Y-116014000D03*
%TO.P,U9,7,GND*%
%TO.N,GND*%
X144856000Y-118554000D03*
%TO.P,U9,8*%
%TO.N,~{NMI}*%
X152476000Y-118554000D03*
%TO.P,U9,9*%
%TO.N,PORT0_NMI_PULLUP*%
X152476000Y-116014000D03*
%TO.P,U9,10*%
%TO.N,PORT1_NMI_PULLUP*%
X152476000Y-113474000D03*
%TO.P,U9,11*%
%TO.N,N/C*%
X152476000Y-110934000D03*
%TO.P,U9,12*%
%TO.N,PORT2_NMI_PULLUP*%
X152476000Y-108394000D03*
%TO.P,U9,13*%
%TO.N,+5V*%
X152476000Y-105854000D03*
%TO.P,U9,14,VCC*%
X152476000Y-103314000D03*
%TD*%
D10*
%TO.P,U10,1*%
%TO.N,Net-(U10-Pad1)*%
X144831000Y-81559400D03*
D11*
%TO.P,U10,2*%
%TO.N,CLK*%
X144831000Y-84099400D03*
%TO.P,U10,3*%
%TO.N,~{WRITE}*%
X144831000Y-86639400D03*
%TO.P,U10,4*%
%TO.N,CLK*%
X144831000Y-89179400D03*
%TO.P,U10,5*%
%TO.N,R~{W}*%
X144831000Y-91719400D03*
%TO.P,U10,6*%
%TO.N,~{READ}*%
X144831000Y-94259400D03*
%TO.P,U10,7,GND*%
%TO.N,GND*%
X144831000Y-96799400D03*
%TO.P,U10,8*%
%TO.N,Net-(U10-Pad1)*%
X152451000Y-96799400D03*
%TO.P,U10,9*%
%TO.N,R~{W}*%
X152451000Y-94259400D03*
%TO.P,U10,10*%
X152451000Y-91719400D03*
%TO.P,U10,11*%
%TO.N,UART_RES*%
X152451000Y-89179400D03*
%TO.P,U10,12*%
%TO.N,~{RES}*%
X152451000Y-86639400D03*
%TO.P,U10,13*%
X152451000Y-84099400D03*
%TO.P,U10,14,VCC*%
%TO.N,+5V*%
X152451000Y-81559400D03*
%TD*%
D12*
%TO.P,C1,1*%
%TO.N,GND*%
X157036000Y-84048600D03*
%TO.P,C1,2*%
%TO.N,+5V*%
X157036000Y-81548600D03*
%TD*%
D22*
%TO.P,J3,1,Pin_1*%
%TO.N,+5V*%
X95539600Y-115603000D03*
D23*
%TO.P,J3,2,Pin_2*%
X95539600Y-118143000D03*
%TO.P,J3,3,Pin_3*%
%TO.N,GND*%
X98079600Y-115603000D03*
%TO.P,J3,4,Pin_4*%
X98079600Y-118143000D03*
%TO.P,J3,5,Pin_5*%
%TO.N,/A0*%
X100619600Y-115603000D03*
%TO.P,J3,6,Pin_6*%
%TO.N,/D0*%
X100619600Y-118143000D03*
%TO.P,J3,7,Pin_7*%
%TO.N,/A1*%
X103159600Y-115603000D03*
%TO.P,J3,8,Pin_8*%
%TO.N,/D1*%
X103159600Y-118143000D03*
%TO.P,J3,9,Pin_9*%
%TO.N,/A2*%
X105699600Y-115603000D03*
%TO.P,J3,10,Pin_10*%
%TO.N,/D2*%
X105699600Y-118143000D03*
%TO.P,J3,11,Pin_11*%
%TO.N,/A3*%
X108239600Y-115603000D03*
%TO.P,J3,12,Pin_12*%
%TO.N,/D3*%
X108239600Y-118143000D03*
%TO.P,J3,13,Pin_13*%
%TO.N,/A4*%
X110779600Y-115603000D03*
%TO.P,J3,14,Pin_14*%
%TO.N,/D4*%
X110779600Y-118143000D03*
%TO.P,J3,15,Pin_15*%
%TO.N,/A5*%
X113319600Y-115603000D03*
%TO.P,J3,16,Pin_16*%
%TO.N,/D5*%
X113319600Y-118143000D03*
%TO.P,J3,17,Pin_17*%
%TO.N,~{PORT1_CS}*%
X115859600Y-115603000D03*
%TO.P,J3,18,Pin_18*%
%TO.N,/D6*%
X115859600Y-118143000D03*
%TO.P,J3,19,Pin_19*%
%TO.N,R~{W}*%
X118399600Y-115603000D03*
%TO.P,J3,20,Pin_20*%
%TO.N,/D7*%
X118399600Y-118143000D03*
%TO.P,J3,21,Pin_21*%
%TO.N,CLK*%
X120939600Y-115603000D03*
%TO.P,J3,22,Pin_22*%
%TO.N,PORT1_IRQ_PULLUP*%
X120939600Y-118143000D03*
%TO.P,J3,23,Pin_23*%
%TO.N,~{RES}*%
X123479600Y-115603000D03*
%TO.P,J3,24,Pin_24*%
%TO.N,PORT1_NMI_PULLUP*%
X123479600Y-118143000D03*
%TO.P,J3,25,Pin_25*%
%TO.N,FUTURE0*%
X126019600Y-115603000D03*
%TO.P,J3,26,Pin_26*%
%TO.N,~{READ}*%
X126019600Y-118143000D03*
%TO.P,J3,27,Pin_27*%
%TO.N,FUTURE1*%
X128559600Y-115603000D03*
%TO.P,J3,28,Pin_28*%
%TO.N,~{WRITE}*%
X128559600Y-118143000D03*
%TO.P,J3,29,Pin_29*%
%TO.N,+5V*%
X131099600Y-115603000D03*
%TO.P,J3,30,Pin_30*%
X131099600Y-118143000D03*
%TO.P,J3,31,Pin_31*%
%TO.N,GND*%
X133639600Y-115603000D03*
%TO.P,J3,32,Pin_32*%
X133639600Y-118143000D03*
%TD*%
D12*
%TO.P,C8,1*%
%TO.N,+5V*%
X138770000Y-118161000D03*
%TO.P,C8,2*%
%TO.N,GND*%
X138770000Y-115661000D03*
%TD*%
%TO.P,C7,1*%
%TO.N,GND*%
X90723700Y-118516000D03*
%TO.P,C7,2*%
%TO.N,+5V*%
X90723700Y-116016000D03*
%TD*%
D22*
%TO.P,J4,1,Pin_1*%
%TO.N,+5V*%
X95541800Y-133560000D03*
D23*
%TO.P,J4,2,Pin_2*%
X95541800Y-136100000D03*
%TO.P,J4,3,Pin_3*%
%TO.N,GND*%
X98081800Y-133560000D03*
%TO.P,J4,4,Pin_4*%
X98081800Y-136100000D03*
%TO.P,J4,5,Pin_5*%
%TO.N,/A0*%
X100621800Y-133560000D03*
%TO.P,J4,6,Pin_6*%
%TO.N,/D0*%
X100621800Y-136100000D03*
%TO.P,J4,7,Pin_7*%
%TO.N,/A1*%
X103161800Y-133560000D03*
%TO.P,J4,8,Pin_8*%
%TO.N,/D1*%
X103161800Y-136100000D03*
%TO.P,J4,9,Pin_9*%
%TO.N,/A2*%
X105701800Y-133560000D03*
%TO.P,J4,10,Pin_10*%
%TO.N,/D2*%
X105701800Y-136100000D03*
%TO.P,J4,11,Pin_11*%
%TO.N,/A3*%
X108241800Y-133560000D03*
%TO.P,J4,12,Pin_12*%
%TO.N,/D3*%
X108241800Y-136100000D03*
%TO.P,J4,13,Pin_13*%
%TO.N,/A4*%
X110781800Y-133560000D03*
%TO.P,J4,14,Pin_14*%
%TO.N,/D4*%
X110781800Y-136100000D03*
%TO.P,J4,15,Pin_15*%
%TO.N,/A5*%
X113321800Y-133560000D03*
%TO.P,J4,16,Pin_16*%
%TO.N,/D5*%
X113321800Y-136100000D03*
%TO.P,J4,17,Pin_17*%
%TO.N,~{PORT2_CS}*%
X115861800Y-133560000D03*
%TO.P,J4,18,Pin_18*%
%TO.N,/D6*%
X115861800Y-136100000D03*
%TO.P,J4,19,Pin_19*%
%TO.N,R~{W}*%
X118401800Y-133560000D03*
%TO.P,J4,20,Pin_20*%
%TO.N,/D7*%
X118401800Y-136100000D03*
%TO.P,J4,21,Pin_21*%
%TO.N,CLK*%
X120941800Y-133560000D03*
%TO.P,J4,22,Pin_22*%
%TO.N,PORT2_IRQ_PULLUP*%
X120941800Y-136100000D03*
%TO.P,J4,23,Pin_23*%
%TO.N,~{RES}*%
X123481800Y-133560000D03*
%TO.P,J4,24,Pin_24*%
%TO.N,PORT2_NMI_PULLUP*%
X123481800Y-136100000D03*
%TO.P,J4,25,Pin_25*%
%TO.N,FUTURE0*%
X126021800Y-133560000D03*
%TO.P,J4,26,Pin_26*%
%TO.N,~{READ}*%
X126021800Y-136100000D03*
%TO.P,J4,27,Pin_27*%
%TO.N,FUTURE1*%
X128561800Y-133560000D03*
%TO.P,J4,28,Pin_28*%
%TO.N,~{WRITE}*%
X128561800Y-136100000D03*
%TO.P,J4,29,Pin_29*%
%TO.N,+5V*%
X131101800Y-133560000D03*
%TO.P,J4,30,Pin_30*%
X131101800Y-136100000D03*
%TO.P,J4,31,Pin_31*%
%TO.N,GND*%
X133641800Y-133560000D03*
%TO.P,J4,32,Pin_32*%
X133641800Y-136100000D03*
%TD*%
D12*
%TO.P,C4,1*%
%TO.N,+5V*%
X138803000Y-136068000D03*
%TO.P,C4,2*%
%TO.N,GND*%
X138803000Y-133568000D03*
%TD*%
%TO.P,C3,1*%
%TO.N,GND*%
X90723700Y-136063000D03*
%TO.P,C3,2*%
%TO.N,+5V*%
X90723700Y-133563000D03*
%TD*%
D22*
%TO.P,J2,1,Pin_1*%
%TO.N,+5V*%
X95539600Y-97637600D03*
D23*
%TO.P,J2,2,Pin_2*%
X95539600Y-100177600D03*
%TO.P,J2,3,Pin_3*%
%TO.N,GND*%
X98079600Y-97637600D03*
%TO.P,J2,4,Pin_4*%
X98079600Y-100177600D03*
%TO.P,J2,5,Pin_5*%
%TO.N,/A0*%
X100619600Y-97637600D03*
%TO.P,J2,6,Pin_6*%
%TO.N,/D0*%
X100619600Y-100177600D03*
%TO.P,J2,7,Pin_7*%
%TO.N,/A1*%
X103159600Y-97637600D03*
%TO.P,J2,8,Pin_8*%
%TO.N,/D1*%
X103159600Y-100177600D03*
%TO.P,J2,9,Pin_9*%
%TO.N,/A2*%
X105699600Y-97637600D03*
%TO.P,J2,10,Pin_10*%
%TO.N,/D2*%
X105699600Y-100177600D03*
%TO.P,J2,11,Pin_11*%
%TO.N,/A3*%
X108239600Y-97637600D03*
%TO.P,J2,12,Pin_12*%
%TO.N,/D3*%
X108239600Y-100177600D03*
%TO.P,J2,13,Pin_13*%
%TO.N,/A4*%
X110779600Y-97637600D03*
%TO.P,J2,14,Pin_14*%
%TO.N,/D4*%
X110779600Y-100177600D03*
%TO.P,J2,15,Pin_15*%
%TO.N,/A5*%
X113319600Y-97637600D03*
%TO.P,J2,16,Pin_16*%
%TO.N,/D5*%
X113319600Y-100177600D03*
%TO.P,J2,17,Pin_17*%
%TO.N,~{PORT0_CS}*%
X115859600Y-97637600D03*
%TO.P,J2,18,Pin_18*%
%TO.N,/D6*%
X115859600Y-100177600D03*
%TO.P,J2,19,Pin_19*%
%TO.N,R~{W}*%
X118399600Y-97637600D03*
%TO.P,J2,20,Pin_20*%
%TO.N,/D7*%
X118399600Y-100177600D03*
%TO.P,J2,21,Pin_21*%
%TO.N,CLK*%
X120939600Y-97637600D03*
%TO.P,J2,22,Pin_22*%
%TO.N,PORT0_IRQ_PULLUP*%
X120939600Y-100177600D03*
%TO.P,J2,23,Pin_23*%
%TO.N,~{RES}*%
X123479600Y-97637600D03*
%TO.P,J2,24,Pin_24*%
%TO.N,PORT0_NMI_PULLUP*%
X123479600Y-100177600D03*
%TO.P,J2,25,Pin_25*%
%TO.N,FUTURE0*%
X126019600Y-97637600D03*
%TO.P,J2,26,Pin_26*%
%TO.N,~{READ}*%
X126019600Y-100177600D03*
%TO.P,J2,27,Pin_27*%
%TO.N,FUTURE1*%
X128559600Y-97637600D03*
%TO.P,J2,28,Pin_28*%
%TO.N,~{WRITE}*%
X128559600Y-100177600D03*
%TO.P,J2,29,Pin_29*%
%TO.N,+5V*%
X131099600Y-97637600D03*
%TO.P,J2,30,Pin_30*%
X131099600Y-100177600D03*
%TO.P,J2,31,Pin_31*%
%TO.N,GND*%
X133639600Y-97637600D03*
%TO.P,J2,32,Pin_32*%
X133639600Y-100177600D03*
%TD*%
D12*
%TO.P,C6,1*%
%TO.N,+5V*%
X138719000Y-100101000D03*
%TO.P,C6,2*%
%TO.N,GND*%
X138719000Y-97601000D03*
%TD*%
%TO.P,C5,1*%
%TO.N,GND*%
X90723700Y-100101000D03*
%TO.P,C5,2*%
%TO.N,+5V*%
X90723700Y-97601000D03*
%TD*%
D20*
%TO.P,U1,1,VSS*%
%TO.N,GND*%
X165964000Y-52730400D03*
D21*
%TO.P,U1,2,~{VP}*%
%TO.N,unconnected-(U1-Pad2)*%
X163424000Y-55270400D03*
%TO.P,U1,3,RDY*%
%TO.N,RDY_PULLUP*%
X165964000Y-55270400D03*
%TO.P,U1,4,\u03D51*%
%TO.N,unconnected-(U1-Pad4)*%
X163424000Y-57810400D03*
%TO.P,U1,5,~{IRQ}*%
%TO.N,~{IRQ}*%
X165964000Y-57810400D03*
%TO.P,U1,6,~{ML}*%
%TO.N,unconnected-(U1-Pad6)*%
X163424000Y-60350400D03*
%TO.P,U1,7,~{NMI}*%
%TO.N,~{NMI}*%
X165964000Y-62890400D03*
%TO.P,U1,8,SYNC*%
%TO.N,unconnected-(U1-Pad8)*%
X165964000Y-60350400D03*
%TO.P,U1,9,VDD*%
%TO.N,+5V*%
X168504000Y-62890400D03*
%TO.P,U1,10,A0*%
%TO.N,/A0*%
X168504000Y-60350400D03*
%TO.P,U1,11,A1*%
%TO.N,/A1*%
X171044000Y-62890400D03*
%TO.P,U1,12,nc*%
%TO.N,unconnected-(U1-Pad12)*%
X171044000Y-60350400D03*
%TO.P,U1,13,A2*%
%TO.N,/A2*%
X173584000Y-62890400D03*
%TO.P,U1,14,A3*%
%TO.N,/A3*%
X173584000Y-60350400D03*
%TO.P,U1,15,A4*%
%TO.N,/A4*%
X176124000Y-62890400D03*
%TO.P,U1,16,A5*%
%TO.N,/A5*%
X176124000Y-60350400D03*
%TO.P,U1,17,A6*%
%TO.N,/A6*%
X178664000Y-62890400D03*
%TO.P,U1,18,A7*%
%TO.N,/A7*%
X181204000Y-60350400D03*
%TO.P,U1,19,A8*%
%TO.N,/A8*%
X178664000Y-60350400D03*
%TO.P,U1,20,A9*%
%TO.N,/A9*%
X181204000Y-57810400D03*
%TO.P,U1,21,A10*%
%TO.N,/A10*%
X178664000Y-57810400D03*
%TO.P,U1,22,A11*%
%TO.N,/A11*%
X181204000Y-55270400D03*
%TO.P,U1,23,VSS*%
%TO.N,GND*%
X178664000Y-55270400D03*
%TO.P,U1,24,VSS*%
X181204000Y-52730400D03*
%TO.P,U1,25,A12*%
%TO.N,/A12*%
X178664000Y-52730400D03*
%TO.P,U1,26,A13*%
%TO.N,/A13*%
X181204000Y-50190400D03*
%TO.P,U1,27,A14*%
%TO.N,/A14*%
X178664000Y-50190400D03*
%TO.P,U1,28,A15*%
%TO.N,/A15*%
X181204000Y-47650400D03*
%TO.P,U1,29,D7*%
%TO.N,/D7*%
X178664000Y-45110400D03*
%TO.P,U1,30,D6*%
%TO.N,/D6*%
X178664000Y-47650400D03*
%TO.P,U1,31,D5*%
%TO.N,/D5*%
X176124000Y-45110400D03*
%TO.P,U1,32,D4*%
%TO.N,/D4*%
X176124000Y-47650400D03*
%TO.P,U1,33,D3*%
%TO.N,/D3*%
X173584000Y-45110400D03*
%TO.P,U1,34,D2*%
%TO.N,/D2*%
X173584000Y-47650400D03*
%TO.P,U1,35,D1*%
%TO.N,/D1*%
X171044000Y-45110400D03*
%TO.P,U1,36,D0*%
%TO.N,/D0*%
X171044000Y-47650400D03*
%TO.P,U1,37,VDD*%
%TO.N,+5V*%
X168504000Y-45110400D03*
%TO.P,U1,38,R/~{W}*%
%TO.N,R~{W}*%
X168504000Y-47650400D03*
%TO.P,U1,39,nc*%
%TO.N,unconnected-(U1-Pad39)*%
X165964000Y-45110400D03*
%TO.P,U1,40,BE*%
%TO.N,BE_PULLUP*%
X163424000Y-47650400D03*
%TO.P,U1,41,\u03D50*%
%TO.N,CLK*%
X165964000Y-47650400D03*
%TO.P,U1,42,~{SO}*%
%TO.N,+5V*%
X163424000Y-50190400D03*
%TO.P,U1,43,\u03D52O*%
%TO.N,unconnected-(U1-Pad43)*%
X165964000Y-50190400D03*
%TO.P,U1,44,~{RES}*%
%TO.N,~{RES}*%
X163424000Y-52730400D03*
%TD*%
D12*
%TO.P,C16,1*%
%TO.N,GND*%
X124244000Y-83997800D03*
%TO.P,C16,2*%
%TO.N,+5V*%
X124244000Y-81497800D03*
%TD*%
D24*
%TO.P,SW1,1,C*%
%TO.N,~{RES}*%
X184236000Y-132182000D03*
X177736000Y-132182000D03*
%TO.P,SW1,2,D*%
%TO.N,GND*%
X184236000Y-136682000D03*
X177736000Y-136682000D03*
%TD*%
D12*
%TO.P,R2,1*%
%TO.N,~{UART_IRQ}*%
X138735000Y-111679000D03*
D11*
%TO.P,R2,2*%
%TO.N,+5V*%
X138735000Y-104059000D03*
%TD*%
D10*
%TO.P,C2,1*%
%TO.N,+5V*%
X174193200Y-111278149D03*
D12*
%TO.P,C2,2*%
%TO.N,GND*%
X174193200Y-115078149D03*
%TD*%
%TO.P,C10,1*%
%TO.N,Net-(C10-Pad1)*%
X157048200Y-112166400D03*
%TO.P,C10,2*%
%TO.N,GND*%
X157048200Y-109666400D03*
%TD*%
%TO.P,R5,1*%
%TO.N,Net-(D3-Pad1)*%
X177190400Y-103050000D03*
D11*
%TO.P,R5,2*%
%TO.N,TxD*%
X169570400Y-103050000D03*
%TD*%
D18*
%TO.P,D2,1,K*%
%TO.N,Net-(D2-Pad1)*%
X181000400Y-97028000D03*
D19*
%TO.P,D2,2,A*%
%TO.N,+5V*%
X183540400Y-97028000D03*
%TD*%
D25*
%TO.P,U8,1,GND*%
%TO.N,GND*%
X162015400Y-108534200D03*
%TO.P,U8,2,TXD*%
%TO.N,RxD*%
X162015400Y-109804200D03*
%TO.P,U8,3,RXD*%
%TO.N,TxD*%
X162015400Y-111074200D03*
%TO.P,U8,4,V3*%
%TO.N,Net-(C10-Pad1)*%
X162015400Y-112344200D03*
%TO.P,U8,5,UD+*%
%TO.N,USB_D+*%
X162015400Y-113614200D03*
%TO.P,U8,6,UD-*%
%TO.N,USB_D-*%
X162015400Y-114884200D03*
%TO.P,U8,7,NC*%
%TO.N,unconnected-(U8-Pad7)*%
X162015400Y-116154200D03*
%TO.P,U8,8,NC*%
%TO.N,unconnected-(U8-Pad8)*%
X162015400Y-117424200D03*
%TO.P,U8,9,~{CTS}*%
%TO.N,~{RTS}*%
X166965400Y-117424200D03*
%TO.P,U8,10,~{DSR}*%
%TO.N,unconnected-(U8-Pad10)*%
X166965400Y-116154200D03*
%TO.P,U8,11,~{RI}*%
%TO.N,unconnected-(U8-Pad11)*%
X166965400Y-114884200D03*
%TO.P,U8,12,~{DCD}*%
%TO.N,unconnected-(U8-Pad12)*%
X166965400Y-113614200D03*
%TO.P,U8,13,~{DTR}*%
%TO.N,unconnected-(U8-Pad13)*%
X166965400Y-112344200D03*
%TO.P,U8,14,~{RTS}*%
%TO.N,~{CTS}*%
X166965400Y-111074200D03*
%TO.P,U8,15,R232*%
%TO.N,unconnected-(U8-Pad15)*%
X166965400Y-109804200D03*
%TO.P,U8,16,VCC*%
%TO.N,+5V*%
X166965400Y-108534200D03*
%TD*%
D18*
%TO.P,D3,1,K*%
%TO.N,Net-(D3-Pad1)*%
X181000400Y-103035000D03*
D19*
%TO.P,D3,2,A*%
%TO.N,+5V*%
X183540400Y-103035000D03*
%TD*%
D12*
%TO.P,R3,1*%
%TO.N,Net-(D2-Pad1)*%
X177190400Y-97028000D03*
D11*
%TO.P,R3,2*%
%TO.N,RxD*%
X169570400Y-97028000D03*
%TD*%
D26*
%TO.N,GND*%
X179832000Y-111099600D03*
%TO.N,+5V*%
X171170600Y-85725000D03*
X179832000Y-114909600D03*
X171221400Y-91465400D03*
%TO.N,~{RES}*%
X149008600Y-92954700D03*
%TO.N,/A0*%
X164413600Y-65804900D03*
%TO.N,/A2*%
X104574800Y-62254000D03*
%TO.N,/A4*%
X143818900Y-62493600D03*
%TO.N,/A5*%
X140962600Y-56255800D03*
%TO.N,/D5*%
X125057100Y-94062500D03*
%TO.N,PORT0_IRQ_PULLUP*%
X147053700Y-123981400D03*
%TO.N,FUTURE0*%
X121183100Y-87197100D03*
%TO.N,FUTURE1*%
X121928000Y-86519800D03*
%TO.N,~{RAM2_CS}*%
X122635400Y-88042200D03*
%TO.N,~{RAM1_CS}*%
X131440900Y-85373300D03*
%TO.N,~{ROM_CS}*%
X111235500Y-91566900D03*
%TO.N,~{RTS}*%
X172747500Y-103445950D03*
X169367200Y-117398800D03*
%TD*%
D27*
%TO.N,GND*%
X181241000Y-111551600D02*
X180284000Y-111551600D01*
X163291200Y-104952800D02*
X163291200Y-107258400D01*
X180284000Y-111551600D02*
X179832000Y-111099600D01*
X163291200Y-107258400D02*
X162015400Y-108534200D01*
D28*
%TO.N,+5V*%
X170207799Y-90451799D02*
X170207799Y-86687801D01*
X171221400Y-91465400D02*
X170207799Y-90451799D01*
D27*
X181241000Y-114151600D02*
X180590000Y-114151600D01*
X165791200Y-104952800D02*
X165791200Y-107360000D01*
D28*
X170207799Y-86687801D02*
X171170600Y-85725000D01*
D27*
X180590000Y-114151600D02*
X179832000Y-114909600D01*
X165791200Y-107360000D02*
X166965400Y-108534200D01*
D28*
%TO.N,Net-(D1-Pad1)*%
X173888000Y-130696000D02*
X173533000Y-131051000D01*
X173533000Y-131051000D02*
X173533000Y-135712000D01*
%TO.N,~{RES}*%
X169757300Y-124203300D02*
X169532000Y-124203300D01*
X122348800Y-117627500D02*
X123246000Y-116730300D01*
X149008600Y-91047500D02*
X149008600Y-92954700D01*
X152451000Y-87716700D02*
X152339400Y-87716700D01*
X123481800Y-132432700D02*
X122348800Y-131299700D01*
X152339400Y-87716700D02*
X149008600Y-91047500D01*
X152451000Y-86639400D02*
X152451000Y-84099400D01*
X152451000Y-86639400D02*
X152451000Y-87716700D01*
X155950700Y-79634000D02*
X155950700Y-60203700D01*
X169532000Y-123126000D02*
X169532000Y-124203300D01*
X123481800Y-133560000D02*
X123481800Y-132432700D01*
X155950700Y-60203700D02*
X163424000Y-52730400D01*
X123479600Y-115603000D02*
X123479600Y-116730300D01*
X123246000Y-116730300D02*
X123479600Y-116730300D01*
X177736000Y-132182000D02*
X169757300Y-124203300D01*
X122352200Y-99658700D02*
X123246000Y-98764900D01*
X123479600Y-114475700D02*
X122352200Y-113348300D01*
X123479600Y-97637600D02*
X123479600Y-98764900D01*
X123479600Y-115603000D02*
X123479600Y-114475700D01*
X122348800Y-131299700D02*
X122348800Y-117627500D01*
X122352200Y-113348300D02*
X122352200Y-99658700D01*
X152451000Y-84099400D02*
X152451000Y-83022100D01*
X152451000Y-83022100D02*
X152562600Y-83022100D01*
X152562600Y-83022100D02*
X155950700Y-79634000D01*
X123246000Y-98764900D02*
X123479600Y-98764900D01*
D29*
%TO.N,USB_D+*%
X181241000Y-112851600D02*
X180265999Y-112851600D01*
X180265999Y-112851600D02*
X180165999Y-112951600D01*
X163311603Y-112951600D02*
X162649003Y-113614200D01*
X180165999Y-112951600D02*
X163311603Y-112951600D01*
X162649003Y-113614200D02*
X162015400Y-113614200D01*
%TO.N,USB_D-*%
X163289920Y-113609680D02*
X163289920Y-113950397D01*
X163498000Y-113401600D02*
X163289920Y-113609680D01*
X168239920Y-113950397D02*
X167976597Y-114213720D01*
X180265999Y-113501600D02*
X180165999Y-113401600D01*
X167976597Y-114213720D02*
X165954203Y-114213720D01*
X165690880Y-113401600D02*
X163498000Y-113401600D01*
X181241000Y-113501600D02*
X180265999Y-113501600D01*
X163289920Y-113950397D02*
X163026597Y-114213720D01*
X165690880Y-113950397D02*
X165690880Y-113401600D01*
X168239920Y-113401600D02*
X168239920Y-113950397D01*
X163026597Y-114213720D02*
X162685880Y-114213720D01*
X180165999Y-113401600D02*
X168239920Y-113401600D01*
X165954203Y-114213720D02*
X165690880Y-113950397D01*
X162685880Y-114213720D02*
X162015400Y-114884200D01*
D28*
%TO.N,/A0*%
X162577500Y-81221300D02*
X162577500Y-67641000D01*
X90678000Y-66230500D02*
X96962400Y-72514900D01*
X99473600Y-131284500D02*
X100621800Y-132432700D01*
X100621800Y-133560000D02*
X100621800Y-132432700D01*
X167234100Y-61620300D02*
X168504000Y-60350400D01*
X167234100Y-63079600D02*
X167234100Y-61620300D01*
X100619600Y-116730300D02*
X100337800Y-116730300D01*
X100619600Y-115603000D02*
X100619600Y-116730300D01*
X162577500Y-67641000D02*
X164413600Y-65804900D01*
X99473600Y-117594500D02*
X99473600Y-131284500D01*
X96962400Y-72514900D02*
X96962400Y-92853100D01*
X96962400Y-92853100D02*
X100619600Y-96510300D01*
X163576000Y-82219800D02*
X162577500Y-81221300D01*
X100337800Y-116730300D02*
X99473600Y-117594500D01*
X100619600Y-97637600D02*
X100619600Y-96510300D01*
X164508800Y-65804900D02*
X167234100Y-63079600D01*
X164413600Y-65804900D02*
X164508800Y-65804900D01*
%TO.N,/D0*%
X100619600Y-118143000D02*
X100619600Y-119270300D01*
X172454700Y-46380400D02*
X172454700Y-44619500D01*
X179652600Y-52604100D02*
X181048900Y-54000400D01*
X146177300Y-55653800D02*
X146177300Y-61093300D01*
X146177300Y-61093300D02*
X138500100Y-68770500D01*
X176281800Y-46380400D02*
X177596000Y-47694600D01*
X137160000Y-68770500D02*
X138237300Y-68770500D01*
X182235600Y-54901100D02*
X182235600Y-73720200D01*
X100903600Y-134972700D02*
X100621800Y-134972700D01*
X100619600Y-100177600D02*
X100619600Y-99050300D01*
X90812700Y-69847800D02*
X94489700Y-73524800D01*
X101766700Y-120417400D02*
X101766700Y-134109600D01*
X94489700Y-73524800D02*
X94489700Y-91490100D01*
X172314000Y-46380400D02*
X172454700Y-46380400D01*
X181334900Y-54000400D02*
X182235600Y-54901100D01*
X162399200Y-43700700D02*
X156379400Y-49720500D01*
X90678000Y-68770500D02*
X90678000Y-69847800D01*
X178493000Y-51460400D02*
X178797900Y-51460400D01*
X172454700Y-46380400D02*
X176281800Y-46380400D01*
X99349600Y-98013900D02*
X100386000Y-99050300D01*
X152110600Y-49720500D02*
X146177300Y-55653800D01*
X177596000Y-47694600D02*
X177596000Y-50563400D01*
X156379400Y-49720500D02*
X152110600Y-49720500D01*
X181048900Y-54000400D02*
X181334900Y-54000400D01*
X94489700Y-91490100D02*
X99349600Y-96350000D01*
X171044000Y-47650400D02*
X172314000Y-46380400D01*
X100386000Y-99050300D02*
X100619600Y-99050300D01*
X138500100Y-68770500D02*
X138237300Y-68770500D01*
X179652600Y-52315100D02*
X179652600Y-52604100D01*
X171535900Y-43700700D02*
X162399200Y-43700700D01*
X100619600Y-119270300D02*
X101766700Y-120417400D01*
X178797900Y-51460400D02*
X179652600Y-52315100D01*
X182235600Y-73720200D02*
X181356000Y-74599800D01*
X101766700Y-134109600D02*
X100903600Y-134972700D01*
X99349600Y-96350000D02*
X99349600Y-98013900D01*
X100621800Y-136100000D02*
X100621800Y-134972700D01*
X172454700Y-44619500D02*
X171535900Y-43700700D01*
X177596000Y-50563400D02*
X178493000Y-51460400D01*
X90678000Y-69847800D02*
X90812700Y-69847800D01*
%TO.N,/A1*%
X103393200Y-98764900D02*
X103159600Y-98764900D01*
X90678000Y-64767800D02*
X90812700Y-64767800D01*
X103159600Y-97637600D02*
X103159600Y-96510300D01*
X103159600Y-114475700D02*
X104341800Y-113293500D01*
X90812700Y-64767800D02*
X97316800Y-71271900D01*
X103159600Y-116730300D02*
X102924800Y-116730300D01*
X103159600Y-97637600D02*
X103159600Y-98764900D01*
X102924800Y-116730300D02*
X102005300Y-117649800D01*
X103161800Y-120311100D02*
X103161800Y-133560000D01*
X163576000Y-84759800D02*
X165127400Y-83208400D01*
X90678000Y-63690500D02*
X90678000Y-64767800D01*
X103159600Y-116166600D02*
X103159600Y-116730300D01*
X102005300Y-119154600D02*
X103161800Y-120311100D01*
X103159600Y-115603000D02*
X103159600Y-114475700D01*
X103159600Y-116166600D02*
X103159600Y-115603000D01*
X104341800Y-99713500D02*
X103393200Y-98764900D01*
X165127400Y-68807000D02*
X171044000Y-62890400D01*
X97316800Y-71271900D02*
X97316800Y-90667500D01*
X104341800Y-113293500D02*
X104341800Y-99713500D01*
X97316800Y-90667500D02*
X103159600Y-96510300D01*
X165127400Y-83208400D02*
X165127400Y-68807000D01*
X102005300Y-117649800D02*
X102005300Y-119154600D01*
%TO.N,/D1*%
X179125600Y-83661700D02*
X180086000Y-84622100D01*
X177270300Y-82133500D02*
X178798500Y-83661700D01*
X169650300Y-51837800D02*
X177270300Y-59457800D01*
X99349600Y-100544700D02*
X100131700Y-101326800D01*
X137564000Y-70233200D02*
X150455300Y-57341900D01*
X92075000Y-90622000D02*
X96826900Y-95373900D01*
X161243000Y-46303100D02*
X169650300Y-46303100D01*
X152745600Y-54800500D02*
X161243000Y-46303100D01*
X150455300Y-57341900D02*
X150455300Y-56469200D01*
X92075000Y-73650100D02*
X92075000Y-90622000D01*
X103159600Y-100177600D02*
X102032300Y-100177600D01*
X100131700Y-101326800D02*
X101116700Y-101326800D01*
X137160000Y-71310500D02*
X137160000Y-70233200D01*
X169650300Y-46303100D02*
X169851300Y-46303100D01*
X178798500Y-83661700D02*
X179125600Y-83661700D01*
X137160000Y-70233200D02*
X137564000Y-70233200D01*
X90678000Y-72387800D02*
X90812700Y-72387800D01*
X180086000Y-86029800D02*
X181356000Y-87299800D01*
X99349600Y-99783400D02*
X99349600Y-100544700D01*
X90678000Y-71310500D02*
X90678000Y-72387800D01*
X96826900Y-95373900D02*
X96826900Y-97995800D01*
X180086000Y-84622100D02*
X180086000Y-86029800D01*
X150455300Y-56469200D02*
X152124000Y-54800500D01*
X90812700Y-72387800D02*
X92075000Y-73650100D01*
X96826900Y-97995800D02*
X97613300Y-98782200D01*
X101116700Y-101326800D02*
X102032300Y-100411200D01*
X177270300Y-59457800D02*
X177270300Y-82133500D01*
X98348400Y-98782200D02*
X99349600Y-99783400D01*
X152124000Y-54800500D02*
X152745600Y-54800500D01*
X102032300Y-100411200D02*
X102032300Y-100177600D01*
X169650300Y-46303100D02*
X169650300Y-51837800D01*
X169851300Y-46303100D02*
X171044000Y-45110400D01*
X97613300Y-98782200D02*
X98348400Y-98782200D01*
%TO.N,/A2*%
X167104500Y-69369900D02*
X167104500Y-82680600D01*
X104574800Y-62254000D02*
X104468300Y-62360500D01*
X106845300Y-118729500D02*
X105701800Y-119873000D01*
X104468300Y-81003400D02*
X104775000Y-81310100D01*
X104468300Y-62360500D02*
X104468300Y-81003400D01*
X164848400Y-86027400D02*
X163576000Y-87299800D01*
X105981400Y-98764900D02*
X106847300Y-99630800D01*
X105699600Y-97637600D02*
X105699600Y-96510300D01*
X105699600Y-116730300D02*
X105917500Y-116730300D01*
X165706600Y-83771300D02*
X164848500Y-84629400D01*
X164848500Y-84629400D02*
X164848500Y-86027400D01*
X167104500Y-82680600D02*
X166013800Y-83771300D01*
X105917500Y-116730300D02*
X106845300Y-117658100D01*
X105699600Y-98764900D02*
X105981400Y-98764900D01*
X173584000Y-62890400D02*
X167104500Y-69369900D01*
X104775000Y-95585700D02*
X105699600Y-96510300D01*
X106847300Y-99630800D02*
X106847300Y-113328000D01*
X105701800Y-119873000D02*
X105701800Y-133560000D01*
X106845300Y-117658100D02*
X106845300Y-118729500D01*
X104775000Y-81310100D02*
X104775000Y-95585700D01*
X105699600Y-115603000D02*
X105699600Y-116730300D01*
X164848500Y-86027400D02*
X164848400Y-86027400D01*
X106847300Y-113328000D02*
X105699600Y-114475700D01*
X105699600Y-97637600D02*
X105699600Y-98764900D01*
X105699600Y-115603000D02*
X105699600Y-114475700D01*
X166013800Y-83771300D02*
X165706600Y-83771300D01*
%TO.N,/D2*%
X105468200Y-134972700D02*
X105701800Y-134972700D01*
X105701800Y-136100000D02*
X105701800Y-134972700D01*
X173584000Y-54128400D02*
X173584000Y-47650400D01*
X179816000Y-60104400D02*
X178917400Y-59205800D01*
X178816000Y-77139800D02*
X179816000Y-76139800D01*
X105699600Y-118143000D02*
X105699600Y-119270300D01*
X178661400Y-59205800D02*
X173584000Y-54128400D01*
X105699600Y-119270300D02*
X104570900Y-120399000D01*
X178917400Y-59205800D02*
X178661400Y-59205800D01*
X104570900Y-120399000D02*
X104570900Y-134075400D01*
X104570900Y-134075400D02*
X105468200Y-134972700D01*
X179816000Y-76139800D02*
X179816000Y-60104400D01*
%TO.N,/A3*%
X108457500Y-116730300D02*
X109386700Y-117659500D01*
X112231100Y-61241000D02*
X112231100Y-92518800D01*
X112231100Y-92518800D02*
X108239600Y-96510300D01*
X174576400Y-61342800D02*
X174576400Y-63879000D01*
X113919000Y-58610500D02*
X113919000Y-59687800D01*
X167313000Y-88642800D02*
X166116000Y-89839800D01*
X109386700Y-120412700D02*
X108241800Y-121557600D01*
X167313000Y-85464400D02*
X167313000Y-88642800D01*
X108241800Y-121557600D02*
X108241800Y-133560000D01*
X174576400Y-63879000D02*
X167490300Y-70965100D01*
X109386700Y-117659500D02*
X109386700Y-120412700D01*
X113919000Y-59687800D02*
X113784300Y-59687800D01*
X108239600Y-97637600D02*
X108239600Y-96510300D01*
X113784300Y-59687800D02*
X112231100Y-61241000D01*
X167490300Y-70965100D02*
X167490300Y-85287100D01*
X108239600Y-116730300D02*
X108457500Y-116730300D01*
X108239600Y-115603000D02*
X108239600Y-116730300D01*
X167490300Y-85287100D02*
X167313000Y-85464400D01*
X173584000Y-60350400D02*
X174576400Y-61342800D01*
%TO.N,/D3*%
X107138000Y-78687800D02*
X107138000Y-97144800D01*
X179571200Y-44089500D02*
X174604900Y-44089500D01*
X107107900Y-98200400D02*
X107957800Y-99050300D01*
X108239600Y-100177600D02*
X108239600Y-99050300D01*
X105918000Y-76390500D02*
X105918000Y-77467800D01*
X107112400Y-134076900D02*
X107112400Y-120397500D01*
X107957800Y-99050300D02*
X108239600Y-99050300D01*
X108008200Y-134972700D02*
X107112400Y-134076900D01*
X108241800Y-136100000D02*
X108241800Y-134972700D01*
X108239600Y-118143000D02*
X108239600Y-119270300D01*
X183354200Y-86738000D02*
X183354200Y-47872500D01*
X107107900Y-97174900D02*
X107107900Y-98200400D01*
X183354200Y-47872500D02*
X179571200Y-44089500D01*
X174604900Y-44089500D02*
X173584000Y-45110400D01*
X181795500Y-88296700D02*
X183354200Y-86738000D01*
X107138000Y-97144800D02*
X107107900Y-97174900D01*
X107112400Y-120397500D02*
X108239600Y-119270300D01*
X108241800Y-134972700D02*
X108008200Y-134972700D01*
X178816000Y-87299800D02*
X179812900Y-88296700D01*
X179812900Y-88296700D02*
X181795500Y-88296700D01*
X105918000Y-77467800D02*
X107138000Y-78687800D01*
%TO.N,/A4*%
X111910400Y-102212900D02*
X110779600Y-103343700D01*
X113992400Y-57147800D02*
X115031300Y-58186700D01*
X138237300Y-56912000D02*
X138237300Y-56070500D01*
X110779600Y-98764900D02*
X111013200Y-98764900D01*
X115031300Y-58186700D02*
X115031300Y-77113500D01*
X111910400Y-99662100D02*
X111910400Y-102212900D01*
X110779600Y-103343700D02*
X110779600Y-115603000D01*
X112585500Y-79559300D02*
X112585500Y-94704400D01*
X113919000Y-57147800D02*
X113992400Y-57147800D01*
X113919000Y-56070500D02*
X113919000Y-57147800D01*
X143818900Y-62493600D02*
X138237300Y-56912000D01*
X111013200Y-98764900D02*
X111910400Y-99662100D01*
X137160000Y-56070500D02*
X138237300Y-56070500D01*
X110779600Y-97637600D02*
X110779600Y-98764900D01*
X115031300Y-77113500D02*
X112585500Y-79559300D01*
X110779600Y-97637600D02*
X110779600Y-96510300D01*
X112585500Y-94704400D02*
X110779600Y-96510300D01*
%TO.N,/D4*%
X110781800Y-136100000D02*
X111909100Y-136100000D01*
X178815200Y-56540400D02*
X178530100Y-56540400D01*
X129087700Y-137228700D02*
X112804200Y-137228700D01*
X110779600Y-118143000D02*
X110779600Y-117015700D01*
X152265300Y-74927800D02*
X146716000Y-80477100D01*
X178530100Y-56540400D02*
X176124000Y-54134300D01*
X110779600Y-119771400D02*
X110779600Y-119270300D01*
X146716000Y-97601700D02*
X132229200Y-112088500D01*
X129831800Y-135741700D02*
X129831800Y-136484600D01*
X110779600Y-118143000D02*
X110779600Y-119270300D01*
X109652400Y-120898600D02*
X110779600Y-119771400D01*
X109652400Y-134076900D02*
X109652400Y-120898600D01*
X176124000Y-54134300D02*
X176124000Y-47650400D01*
X181356000Y-77139800D02*
X180215400Y-75999200D01*
X132229200Y-134031900D02*
X131547000Y-134714100D01*
X109634300Y-116152200D02*
X109634300Y-102450200D01*
X132229200Y-112088500D02*
X132229200Y-134031900D01*
X110779600Y-100177600D02*
X110779600Y-101304900D01*
X180215400Y-57940600D02*
X178815200Y-56540400D01*
X152400000Y-73850500D02*
X152400000Y-74927800D01*
X111909100Y-136333600D02*
X111909100Y-136100000D01*
X110548200Y-134972700D02*
X109652400Y-134076900D01*
X130859400Y-134714100D02*
X129831800Y-135741700D01*
X152400000Y-74927800D02*
X152265300Y-74927800D01*
X110781800Y-134972700D02*
X110548200Y-134972700D01*
X131547000Y-134714100D02*
X130859400Y-134714100D01*
X129831800Y-136484600D02*
X129087700Y-137228700D01*
X110779600Y-117015700D02*
X110497800Y-117015700D01*
X110781800Y-136100000D02*
X110781800Y-134972700D01*
X110497800Y-117015700D02*
X109634300Y-116152200D01*
X109634300Y-102450200D02*
X110779600Y-101304900D01*
X180215400Y-75999200D02*
X180215400Y-57940600D01*
X112804200Y-137228700D02*
X111909100Y-136333600D01*
X146716000Y-80477100D02*
X146716000Y-97601700D01*
%TO.N,/A5*%
X113321800Y-133560000D02*
X113321800Y-132432700D01*
X114743500Y-95086400D02*
X113319600Y-96510300D01*
X113553200Y-98764900D02*
X114446900Y-99658600D01*
X113319600Y-97637600D02*
X113319600Y-98764900D01*
X113319600Y-115603000D02*
X114446900Y-115603000D01*
X113919000Y-54607800D02*
X114592300Y-54607800D01*
X114446900Y-99658600D02*
X114446900Y-115603000D01*
X114446900Y-115603000D02*
X114446900Y-131307600D01*
X114446900Y-131307600D02*
X113321800Y-132432700D01*
X113319600Y-97637600D02*
X113319600Y-96510300D01*
X138237300Y-53530500D02*
X140962600Y-56255800D01*
X115739900Y-55755400D02*
X115739900Y-77584400D01*
X115739900Y-77584400D02*
X114743500Y-78580800D01*
X114592300Y-54607800D02*
X115739900Y-55755400D01*
X137160000Y-53530500D02*
X138237300Y-53530500D01*
X114743500Y-78580800D02*
X114743500Y-95086400D01*
X113319600Y-98764900D02*
X113553200Y-98764900D01*
X113919000Y-53530500D02*
X113919000Y-54607800D01*
%TO.N,/D5*%
X113319600Y-118143000D02*
X113319600Y-119270300D01*
X129159000Y-71310500D02*
X129159000Y-72387800D01*
X112192400Y-134076900D02*
X112192400Y-120397500D01*
X181360900Y-46380400D02*
X177394000Y-46380400D01*
X129024200Y-72387800D02*
X128035000Y-73377000D01*
X128035000Y-73377000D02*
X128035000Y-91084600D01*
X182981300Y-83134500D02*
X182981300Y-48000800D01*
X113088200Y-134972700D02*
X112192400Y-134076900D01*
X113319600Y-118143000D02*
X113319600Y-117015700D01*
X112162500Y-116092200D02*
X112162500Y-102462000D01*
X112192400Y-120397500D02*
X113319600Y-119270300D01*
X113319600Y-100177600D02*
X113319600Y-101304900D01*
X177394000Y-46380400D02*
X176124000Y-45110400D01*
X128035000Y-91084600D02*
X125057100Y-94062500D01*
X129159000Y-72387800D02*
X129024200Y-72387800D01*
X181356000Y-84759800D02*
X182981300Y-83134500D01*
X113086000Y-117015700D02*
X112162500Y-116092200D01*
X113321800Y-136100000D02*
X113321800Y-134972700D01*
X113319600Y-117015700D02*
X113086000Y-117015700D01*
X182981300Y-48000800D02*
X181360900Y-46380400D01*
X113321800Y-134972700D02*
X113088200Y-134972700D01*
X112162500Y-102462000D02*
X113319600Y-101304900D01*
%TO.N,/D6*%
X130266800Y-65741300D02*
X129603100Y-65077600D01*
X117129600Y-98013900D02*
X116093200Y-99050300D01*
X129159000Y-67693200D02*
X129293700Y-67693200D01*
X179934100Y-50341700D02*
X179934100Y-48920500D01*
X115859600Y-100741200D02*
X115859600Y-100575800D01*
X115861800Y-136100000D02*
X115861800Y-134972700D01*
X128753700Y-65077600D02*
X117294100Y-76537200D01*
X117024800Y-132539500D02*
X115859600Y-131374300D01*
X116141400Y-117015700D02*
X115859600Y-117015700D01*
X129603100Y-65077600D02*
X128753700Y-65077600D01*
X181052400Y-51179100D02*
X180771500Y-51179100D01*
X117294100Y-90591900D02*
X117129600Y-90756400D01*
X115859600Y-131374300D02*
X115859600Y-118143000D01*
X182606100Y-77322200D02*
X182606100Y-52732800D01*
X130266800Y-66720100D02*
X130266800Y-65741300D01*
X117007200Y-116149900D02*
X116141400Y-117015700D01*
X117024800Y-134091500D02*
X117024800Y-132539500D01*
X181518500Y-78409800D02*
X182606100Y-77322200D01*
X129293700Y-67693200D02*
X130266800Y-66720100D01*
X182606100Y-52732800D02*
X181052400Y-51179100D01*
X115859600Y-100741200D02*
X115859600Y-101304900D01*
X115859600Y-118143000D02*
X115859600Y-117015700D01*
X180771500Y-51179100D02*
X179934100Y-50341700D01*
X115859600Y-100177600D02*
X115859600Y-100575800D01*
X115861800Y-134972700D02*
X116143600Y-134972700D01*
X116093200Y-99050300D02*
X115859600Y-99050300D01*
X116143600Y-134972700D02*
X117024800Y-134091500D01*
X115859600Y-100177600D02*
X115859600Y-99050300D01*
X115859600Y-101805900D02*
X117007200Y-102953500D01*
X117294100Y-76537200D02*
X117294100Y-90591900D01*
X179934100Y-48920500D02*
X178664000Y-47650400D01*
X129159000Y-68770500D02*
X129159000Y-67693200D01*
X115859600Y-101304900D02*
X115859600Y-101805900D01*
X117129600Y-90756400D02*
X117129600Y-98013900D01*
X117007200Y-102953500D02*
X117007200Y-116149900D01*
X178816000Y-79679800D02*
X180086000Y-78409800D01*
X180086000Y-78409800D02*
X181518500Y-78409800D01*
%TO.N,R~{W}*%
X118399600Y-115603000D02*
X118399600Y-116730300D01*
X152451000Y-90642100D02*
X152585700Y-90642100D01*
X118399600Y-103594400D02*
X117249200Y-102444000D01*
X118399600Y-97637600D02*
X118399600Y-98764900D01*
X118401800Y-133560000D02*
X118401800Y-132432700D01*
X118401800Y-132432700D02*
X117272300Y-131303200D01*
X160331300Y-65395300D02*
X164444100Y-61282500D01*
X117249200Y-102444000D02*
X117249200Y-99687300D01*
X118171600Y-98764900D02*
X118399600Y-98764900D01*
X165546400Y-46660200D02*
X167513800Y-46660200D01*
X164444100Y-61282500D02*
X164444100Y-47762500D01*
X152585700Y-90642100D02*
X160331300Y-82896500D01*
X152451000Y-91719400D02*
X152451000Y-90642100D01*
X164444100Y-47762500D02*
X165546400Y-46660200D01*
X167513800Y-46660200D02*
X168504000Y-47650400D01*
X160331300Y-82896500D02*
X160331300Y-65395300D01*
X117272300Y-131303200D02*
X117272300Y-117624000D01*
X117249200Y-99687300D02*
X118171600Y-98764900D01*
X118166000Y-116730300D02*
X118399600Y-116730300D01*
X118399600Y-115603000D02*
X118399600Y-114475700D01*
X118399600Y-114475700D02*
X118399600Y-103594400D01*
X117272300Y-117624000D02*
X118166000Y-116730300D01*
X152451000Y-94259400D02*
X152451000Y-91719400D01*
%TO.N,/D7*%
X117667600Y-85897400D02*
X119839200Y-88069000D01*
X119561400Y-90864600D02*
X119561400Y-99015800D01*
X119561400Y-99015800D02*
X118399600Y-100177600D01*
X129024300Y-67307800D02*
X117667600Y-78664500D01*
X117667600Y-78664500D02*
X117667600Y-85897400D01*
X129159000Y-66230500D02*
X129159000Y-67307800D01*
X119839200Y-90586800D02*
X119561400Y-90864600D01*
X119839200Y-88069000D02*
X119839200Y-90586800D01*
X129159000Y-67307800D02*
X129024300Y-67307800D01*
%TO.N,CLK*%
X174930700Y-57619300D02*
X174930700Y-64976800D01*
X142407500Y-82753200D02*
X143753700Y-84099400D01*
X120472500Y-96043200D02*
X120939600Y-96510300D01*
X144831000Y-84099400D02*
X144831000Y-85176700D01*
X120939600Y-97637600D02*
X120939600Y-96510300D01*
X144965700Y-88102100D02*
X145939200Y-87128600D01*
X144831000Y-88102100D02*
X144965700Y-88102100D01*
X165964000Y-48652600D02*
X174930700Y-57619300D01*
X145939200Y-86173300D02*
X144942600Y-85176700D01*
X172393100Y-67514400D02*
X172393100Y-73402700D01*
X120939600Y-97637600D02*
X120939600Y-98764900D01*
X174930700Y-64976800D02*
X172393100Y-67514400D01*
X165964000Y-47650400D02*
X165964000Y-48652600D01*
X119792600Y-113328700D02*
X120939600Y-114475700D01*
X172393100Y-73402700D02*
X171196000Y-74599800D01*
X120704800Y-98764900D02*
X119792600Y-99677100D01*
X120939600Y-98764900D02*
X120704800Y-98764900D01*
X145939200Y-87128600D02*
X145939200Y-86173300D01*
X120939600Y-115603000D02*
X120939600Y-114475700D01*
X144831000Y-84099400D02*
X143753700Y-84099400D01*
X144831000Y-89126400D02*
X144831000Y-88102100D01*
X118745000Y-82537300D02*
X118745000Y-83614600D01*
X119792600Y-99677100D02*
X119792600Y-113328700D01*
X144942600Y-85176700D02*
X144831000Y-85176700D01*
X144831000Y-89126400D02*
X144831000Y-89179400D01*
X138405000Y-82753200D02*
X142407500Y-82753200D01*
X120472500Y-85342100D02*
X120472500Y-96043200D01*
X118745000Y-83614600D02*
X120472500Y-85342100D01*
%TO.N,PORT0_IRQ_PULLUP*%
X144856000Y-103314000D02*
X144856000Y-104391300D01*
X145008800Y-107301000D02*
X144354500Y-107301000D01*
X145963400Y-105364000D02*
X145963400Y-106346400D01*
X144856000Y-104391300D02*
X144990700Y-104391300D01*
X144990700Y-104391300D02*
X145963400Y-105364000D01*
X144354500Y-107301000D02*
X143385800Y-108269700D01*
X143385800Y-108269700D02*
X143385800Y-120313500D01*
X145963400Y-106346400D02*
X145008800Y-107301000D01*
X143385800Y-120313500D02*
X147053700Y-123981400D01*
%TO.N,PORT0_NMI_PULLUP*%
X151382200Y-124714900D02*
X155029000Y-128361700D01*
X155029000Y-129489000D02*
X155029000Y-128361700D01*
X151382200Y-118050400D02*
X151382200Y-124714900D01*
X152341300Y-117091300D02*
X151382200Y-118050400D01*
X152476000Y-117091300D02*
X152341300Y-117091300D01*
X152476000Y-116014000D02*
X152476000Y-117091300D01*
%TO.N,FUTURE0*%
X126019600Y-97637600D02*
X126019600Y-98764900D01*
X126019600Y-115603000D02*
X126019600Y-115039300D01*
X124888800Y-114262900D02*
X125665200Y-115039300D01*
X125786000Y-98764900D02*
X124888800Y-99662100D01*
X125665200Y-115039300D02*
X124874400Y-115830100D01*
X126019600Y-98764900D02*
X125786000Y-98764900D01*
X124874400Y-131285300D02*
X126021800Y-132432700D01*
X126019600Y-115039300D02*
X125665200Y-115039300D01*
X124888800Y-99662100D02*
X124888800Y-114262900D01*
X121183100Y-91673800D02*
X121183100Y-87197100D01*
X124874400Y-115830100D02*
X124874400Y-131285300D01*
X126019600Y-96510300D02*
X121183100Y-91673800D01*
X126019600Y-97637600D02*
X126019600Y-96510300D01*
X126021800Y-133560000D02*
X126021800Y-132432700D01*
%TO.N,FUTURE1*%
X128324800Y-116730300D02*
X127426900Y-117628200D01*
X121928000Y-91917400D02*
X121928000Y-86519800D01*
X127432300Y-102467100D02*
X128559600Y-103594400D01*
X128559600Y-115603000D02*
X128559600Y-116730300D01*
X127426900Y-117628200D02*
X127426900Y-118638800D01*
X128559600Y-103594400D02*
X128559600Y-115603000D01*
X127432300Y-97637600D02*
X127432300Y-102467100D01*
X127426900Y-118638800D02*
X128561800Y-119773700D01*
X127432300Y-97637600D02*
X127432300Y-97421700D01*
X128561800Y-119773700D02*
X128561800Y-133560000D01*
X128559600Y-116730300D02*
X128324800Y-116730300D01*
X127432300Y-97421700D02*
X121928000Y-91917400D01*
X128559600Y-97637600D02*
X127432300Y-97637600D01*
%TO.N,PORT2_IRQ_PULLUP*%
X144856000Y-112011300D02*
X144768600Y-112011300D01*
X147745400Y-128025300D02*
X147409000Y-128361700D01*
X147409000Y-129489000D02*
X147409000Y-128361700D01*
X144768600Y-112011300D02*
X143740100Y-113039800D01*
X143740100Y-116454000D02*
X144570100Y-117284000D01*
X145166600Y-117284000D02*
X147745400Y-119862800D01*
X143740100Y-113039800D02*
X143740100Y-116454000D01*
X144856000Y-110934000D02*
X144856000Y-112011300D01*
X147745400Y-119862800D02*
X147745400Y-128025300D01*
X144570100Y-117284000D02*
X145166600Y-117284000D01*
%TO.N,PORT2_NMI_PULLUP*%
X146900200Y-130626500D02*
X145996300Y-129722600D01*
X147871500Y-130626500D02*
X146900200Y-130626500D01*
X148536400Y-129961600D02*
X147871500Y-130626500D01*
X152476000Y-109471300D02*
X152341300Y-109471300D01*
X152476000Y-108394000D02*
X152476000Y-109471300D01*
X148536400Y-113276200D02*
X148536400Y-129961600D01*
X144869000Y-129489000D02*
X145996300Y-129489000D01*
X152341300Y-109471300D02*
X148536400Y-113276200D01*
X145996300Y-129722600D02*
X145996300Y-129489000D01*
%TO.N,PORT1_NMI_PULLUP*%
X152476000Y-114551300D02*
X152341300Y-114551300D01*
X152341300Y-114551300D02*
X149949000Y-116943600D01*
X149949000Y-116943600D02*
X149949000Y-129489000D01*
X152476000Y-113474000D02*
X152476000Y-114551300D01*
%TO.N,Net-(J6-Pad2)*%
X157569000Y-132029000D02*
X157569000Y-133706000D01*
X157569000Y-133706000D02*
X160096000Y-136233000D01*
%TO.N,Net-(J6-Pad4)*%
X155029000Y-132029000D02*
X155029000Y-133706000D01*
X155029000Y-133706000D02*
X157556000Y-136233000D01*
%TO.N,Net-(J6-Pad6)*%
X152489000Y-132029000D02*
X152489000Y-133706000D01*
X152489000Y-133706000D02*
X155016000Y-136233000D01*
%TO.N,Net-(J6-Pad8)*%
X149949000Y-133706000D02*
X152476000Y-136233000D01*
X149949000Y-132029000D02*
X149949000Y-133706000D01*
%TO.N,Net-(J6-Pad10)*%
X147409000Y-132029000D02*
X147409000Y-133706000D01*
X147409000Y-133706000D02*
X149936000Y-136233000D01*
%TO.N,Net-(J6-Pad12)*%
X144869000Y-132029000D02*
X144869000Y-133706000D01*
X144869000Y-133706000D02*
X147396000Y-136233000D01*
%TO.N,/A12*%
X90678000Y-45910500D02*
X90678000Y-46987800D01*
X112841700Y-45910500D02*
X111764400Y-46987800D01*
X96088500Y-46987800D02*
X100965000Y-51864300D01*
X90678000Y-46987800D02*
X96088500Y-46987800D01*
X111764400Y-46987800D02*
X105841500Y-46987800D01*
X105841500Y-46987800D02*
X100965000Y-51864300D01*
X113919000Y-45910500D02*
X112841700Y-45910500D01*
X100965000Y-51864300D02*
X100965000Y-82537300D01*
%TO.N,/A13*%
X102235000Y-53076100D02*
X102235000Y-82795300D01*
X129024300Y-47373200D02*
X128073100Y-46422000D01*
X100503500Y-83650100D02*
X99502300Y-82648900D01*
X153532600Y-45466000D02*
X153532600Y-46352200D01*
X98425000Y-82537300D02*
X99502300Y-82537300D01*
X136808182Y-44739900D02*
X136173971Y-45374111D01*
X102235000Y-82795300D02*
X101380200Y-83650100D01*
X129159000Y-47373200D02*
X129024300Y-47373200D01*
X136173971Y-45374111D02*
X130145029Y-45374111D01*
X152511600Y-47373200D02*
X152400000Y-47373200D01*
X129159000Y-48450500D02*
X129159000Y-47373200D01*
X153532600Y-46352200D02*
X152511600Y-47373200D01*
X105783300Y-49527800D02*
X102235000Y-53076100D01*
X152806500Y-44739900D02*
X153532600Y-45466000D01*
X130145029Y-45374111D02*
X129510818Y-44739900D01*
X99502300Y-82648900D02*
X99502300Y-82537300D01*
X152806500Y-44739900D02*
X136808182Y-44739900D01*
X129510818Y-44739900D02*
X128769100Y-44739900D01*
X101380200Y-83650100D02*
X100503500Y-83650100D01*
X105918000Y-48450500D02*
X105918000Y-49527800D01*
X128073100Y-46422000D02*
X128073100Y-45435900D01*
X152400000Y-48450500D02*
X152400000Y-47373200D01*
X128073100Y-45435900D02*
X128769100Y-44739900D01*
X105918000Y-49527800D02*
X105783300Y-49527800D01*
%TO.N,~{IRQ}*%
X164798500Y-58975900D02*
X164798500Y-62469300D01*
X150427700Y-109499700D02*
X144990700Y-114936700D01*
X144990700Y-114936700D02*
X144856000Y-114936700D01*
X165964000Y-57810400D02*
X164798500Y-58975900D01*
X160774700Y-91864600D02*
X150427700Y-102211600D01*
X144856000Y-116014000D02*
X144856000Y-114936700D01*
X164798500Y-62469300D02*
X160774700Y-66493100D01*
X150427700Y-102211600D02*
X150427700Y-109499700D01*
X160774700Y-66493100D02*
X160774700Y-91864600D01*
%TO.N,/A14*%
X90678000Y-44447800D02*
X90543300Y-44447800D01*
X90678000Y-43370500D02*
X90678000Y-44359200D01*
X111764400Y-44447800D02*
X112841700Y-43370500D01*
X89595200Y-45395900D02*
X89595200Y-66714700D01*
X95885000Y-72427300D02*
X95885000Y-82537300D01*
X91119900Y-67662200D02*
X95885000Y-72427300D01*
X113919000Y-43370500D02*
X112841700Y-43370500D01*
X90542700Y-67662200D02*
X91119900Y-67662200D01*
X90543300Y-44447800D02*
X89595200Y-45395900D01*
X90678000Y-44447800D02*
X111764400Y-44447800D01*
X89595200Y-66714700D02*
X90542700Y-67662200D01*
X90678000Y-44359200D02*
X90678000Y-44447800D01*
%TO.N,~{NMI}*%
X156413200Y-104698800D02*
X157175200Y-104698800D01*
X153568400Y-117461600D02*
X153568400Y-107543600D01*
X161499600Y-67354800D02*
X165964000Y-62890400D01*
X153568400Y-107543600D02*
X156413200Y-104698800D01*
X157175200Y-104698800D02*
X161499600Y-100374400D01*
X161499600Y-100374400D02*
X161499600Y-67354800D01*
X152476000Y-118554000D02*
X153568400Y-117461600D01*
%TO.N,/A6*%
X113919000Y-52067800D02*
X114053700Y-52067800D01*
X113919000Y-50990500D02*
X113919000Y-52067800D01*
X114053700Y-52067800D02*
X116205000Y-54219100D01*
X116205000Y-54219100D02*
X116205000Y-82537300D01*
%TO.N,/A7*%
X114423400Y-54977500D02*
X113766200Y-54977500D01*
X112841600Y-54052900D02*
X112841600Y-50470500D01*
X113665000Y-81460000D02*
X113665000Y-79158200D01*
X112841600Y-50470500D02*
X113784300Y-49527800D01*
X113665000Y-82537300D02*
X113665000Y-81460000D01*
X115385600Y-77437600D02*
X115385600Y-55939700D01*
X113784300Y-49527800D02*
X113919000Y-49527800D01*
X113919000Y-48450500D02*
X113919000Y-49527800D01*
X115385600Y-55939700D02*
X114423400Y-54977500D01*
X113766200Y-54977500D02*
X112841600Y-54052900D01*
X113665000Y-79158200D02*
X115385600Y-77437600D01*
%TO.N,/A8*%
X170045900Y-47170300D02*
X170835800Y-46380400D01*
X111125000Y-82537300D02*
X111125000Y-81460000D01*
X111125000Y-57195500D02*
X105997300Y-52067800D01*
X172041600Y-45591100D02*
X172041600Y-44707600D01*
X155610600Y-50990500D02*
X153477300Y-50990500D01*
X178664000Y-60350400D02*
X170045900Y-51732300D01*
X170045900Y-51732300D02*
X170045900Y-47170300D01*
X105997300Y-52067800D02*
X105918000Y-52067800D01*
X171442400Y-44108400D02*
X162492700Y-44108400D01*
X171252300Y-46380400D02*
X172041600Y-45591100D01*
X172041600Y-44707600D02*
X171442400Y-44108400D01*
X162492700Y-44108400D02*
X155610600Y-50990500D01*
X170835800Y-46380400D02*
X171252300Y-46380400D01*
X105918000Y-50990500D02*
X105918000Y-52067800D01*
X111125000Y-81460000D02*
X111125000Y-57195500D01*
X152400000Y-50990500D02*
X153477300Y-50990500D01*
%TO.N,/A9*%
X108585000Y-57140000D02*
X106052800Y-54607800D01*
X108585000Y-81460000D02*
X108585000Y-57140000D01*
X105918000Y-53530500D02*
X105918000Y-54607800D01*
X106052800Y-54607800D02*
X105918000Y-54607800D01*
X108585000Y-82537300D02*
X108585000Y-81460000D01*
%TO.N,/A10*%
X105918000Y-61150500D02*
X105918000Y-62227800D01*
X106045000Y-82537300D02*
X106045000Y-81460000D01*
X104835000Y-63176100D02*
X104835000Y-80250000D01*
X105783300Y-62227800D02*
X104835000Y-63176100D01*
X104835000Y-80250000D02*
X106045000Y-81460000D01*
X105918000Y-62227800D02*
X105783300Y-62227800D01*
%TO.N,Net-(C10-Pad1)*%
X162015400Y-112344200D02*
X161837600Y-112166400D01*
X161837600Y-112166400D02*
X157048200Y-112166400D01*
%TO.N,/A11*%
X105918000Y-56070500D02*
X105918000Y-57147800D01*
X105918000Y-57147800D02*
X105783300Y-57147800D01*
X103505000Y-59426100D02*
X103505000Y-82537300D01*
X105783300Y-57147800D02*
X103505000Y-59426100D01*
%TO.N,~{RAM2_CS}*%
X122635400Y-88042200D02*
X122635400Y-76303800D01*
X130654300Y-65185800D02*
X129159000Y-63690500D01*
X128837400Y-70101800D02*
X129397200Y-70101800D01*
X122635400Y-76303800D02*
X128837400Y-70101800D01*
X130654300Y-68844700D02*
X130654300Y-65185800D01*
X129397200Y-70101800D02*
X130654300Y-68844700D01*
%TO.N,~{RAM1_CS}*%
X152400000Y-63690500D02*
X152400000Y-64767800D01*
X152046400Y-64767800D02*
X131440900Y-85373300D01*
X152400000Y-64767800D02*
X152046400Y-64767800D01*
%TO.N,~{ROM_CS}*%
X105918000Y-63690500D02*
X105918000Y-64767800D01*
X109662400Y-87977200D02*
X109662400Y-90244400D01*
X107492400Y-85807200D02*
X109662400Y-87977200D01*
X109662400Y-90244400D02*
X110984900Y-91566900D01*
X106052700Y-64767800D02*
X107492400Y-66207500D01*
X105918000Y-64767800D02*
X106052700Y-64767800D01*
X107492400Y-66207500D02*
X107492400Y-85807200D01*
X110984900Y-91566900D02*
X111235500Y-91566900D01*
%TO.N,unconnected-(J1-Pad6)*%
X181441000Y-116726600D02*
X181291000Y-116576600D01*
X185091000Y-108976600D02*
X181441000Y-108976600D01*
X185091000Y-116726600D02*
X181441000Y-116726600D01*
X181441000Y-108976600D02*
X181291000Y-109126600D01*
X185091000Y-116726600D02*
X185091000Y-108976600D01*
%TO.N,Net-(D1-Pad2)*%
X170993000Y-135712000D02*
X168008000Y-135712000D01*
X168008000Y-135712000D02*
X162611000Y-130315000D01*
%TO.N,~{READ}*%
X126019600Y-100177600D02*
X126019600Y-101304900D01*
X144942600Y-93182100D02*
X144831000Y-93182100D01*
X127170600Y-116098300D02*
X126253200Y-117015700D01*
X144831000Y-94259400D02*
X144831000Y-93182100D01*
X152400000Y-59687800D02*
X152525800Y-59687800D01*
X126019600Y-118143000D02*
X126019600Y-119270300D01*
X152105700Y-67500500D02*
X146293600Y-73312600D01*
X127170600Y-102956900D02*
X127170600Y-116098300D01*
X126021800Y-136100000D02*
X126021800Y-134972700D01*
X126019600Y-101304900D02*
X126019600Y-101805900D01*
X127160000Y-134068100D02*
X126255400Y-134972700D01*
X126019600Y-119270300D02*
X127160000Y-120410700D01*
X126019600Y-118143000D02*
X126019600Y-117015700D01*
X152525800Y-59687800D02*
X153481300Y-60643300D01*
X146293600Y-91831100D02*
X144942600Y-93182100D01*
X126255400Y-134972700D02*
X126021800Y-134972700D01*
X153481300Y-66734200D02*
X152715000Y-67500500D01*
X126253200Y-117015700D02*
X126019600Y-117015700D01*
X153481300Y-60643300D02*
X153481300Y-66734200D01*
X152400000Y-58610500D02*
X152400000Y-59687800D01*
X127160000Y-120410700D02*
X127160000Y-134068100D01*
X126019600Y-101805900D02*
X127170600Y-102956900D01*
X146293600Y-73312600D02*
X146293600Y-91831100D01*
X152715000Y-67500500D02*
X152105700Y-67500500D01*
%TO.N,~{WRITE}*%
X129687000Y-86639400D02*
X129687000Y-81651100D01*
X129687000Y-81651100D02*
X131347500Y-79990600D01*
X136183682Y-47904400D02*
X132230200Y-47904400D01*
X129687000Y-86639400D02*
X143753700Y-86639400D01*
X152400000Y-45910500D02*
X151322700Y-45910500D01*
X128559600Y-100177600D02*
X128559600Y-99050300D01*
X129687000Y-98156500D02*
X128793200Y-99050300D01*
X150211500Y-47021700D02*
X137066382Y-47021700D01*
X128561800Y-136100000D02*
X128561800Y-134972700D01*
X129159000Y-45910500D02*
X130236300Y-45910500D01*
X128795400Y-134972700D02*
X128561800Y-134972700D01*
X129687000Y-86639400D02*
X129687000Y-98156500D01*
X132230200Y-47904400D02*
X131347500Y-47021700D01*
X131347500Y-79990600D02*
X131347500Y-47021700D01*
X129707300Y-102452600D02*
X128559600Y-101304900D01*
X129689100Y-120399800D02*
X129689100Y-134079000D01*
X128559600Y-119270300D02*
X129689100Y-120399800D01*
X129689100Y-134079000D02*
X128795400Y-134972700D01*
X151322700Y-45910500D02*
X150211500Y-47021700D01*
X128559600Y-118143000D02*
X129707300Y-116995300D01*
X137066382Y-47021700D02*
X136183682Y-47904400D01*
X128559600Y-118143000D02*
X128559600Y-119270300D01*
X128793200Y-99050300D02*
X128559600Y-99050300D01*
X144831000Y-86639400D02*
X143753700Y-86639400D01*
X128559600Y-100177600D02*
X128559600Y-101304900D01*
X130236300Y-45910500D02*
X131347500Y-47021700D01*
X129707300Y-116995300D02*
X129707300Y-102452600D01*
%TO.N,Net-(D2-Pad1)*%
X177190400Y-97028000D02*
X181000400Y-97028000D01*
%TO.N,Net-(D3-Pad1)*%
X180985400Y-103050000D02*
X181000400Y-103035000D01*
X177190400Y-103050000D02*
X180985400Y-103050000D01*
%TO.N,RxD*%
X168493889Y-108583901D02*
X167850110Y-109227680D01*
X169983000Y-73272800D02*
X169983000Y-83462000D01*
X167850110Y-109227680D02*
X162591920Y-109227680D01*
X162591920Y-109227680D02*
X162015400Y-109804200D01*
X169570400Y-97028000D02*
X168493889Y-98104511D01*
X167667400Y-85777600D02*
X167667400Y-95125000D01*
X167667400Y-95125000D02*
X169570400Y-97028000D01*
X168493889Y-98104511D02*
X168493889Y-108583901D01*
X171196000Y-72059800D02*
X169983000Y-73272800D01*
X169983000Y-83462000D02*
X167667400Y-85777600D01*
%TO.N,TxD*%
X162605200Y-110497680D02*
X161798000Y-111304880D01*
X172183711Y-100436689D02*
X169570400Y-103050000D01*
X172183711Y-78192137D02*
X172183711Y-100436689D01*
X172748289Y-73047511D02*
X172748289Y-77627559D01*
X173736000Y-72059800D02*
X172748289Y-73047511D01*
X169570400Y-103050000D02*
X169570400Y-108777390D01*
X167850110Y-110497680D02*
X162605200Y-110497680D01*
X169570400Y-108777390D02*
X167850110Y-110497680D01*
X172748289Y-77627559D02*
X172183711Y-78192137D01*
%TO.N,~{RTS}*%
X169341800Y-117424200D02*
X169367200Y-117398800D01*
X166965400Y-117424200D02*
X169341800Y-117424200D01*
X176276000Y-74599800D02*
X172747500Y-78128300D01*
X172747500Y-78128300D02*
X172747500Y-103445950D01*
%TO.N,~{CTS}*%
X163296500Y-102358282D02*
X160763880Y-104890902D01*
X160763880Y-104890902D02*
X160763880Y-111591560D01*
X166116000Y-87299800D02*
X163296500Y-90119300D01*
X166381200Y-111658400D02*
X166965400Y-111074200D01*
X160763880Y-111591560D02*
X160830720Y-111658400D01*
X163296500Y-90119300D02*
X163296500Y-102358282D01*
X160830720Y-111658400D02*
X166381200Y-111658400D01*
%TO.N,RDY_PULLUP*%
X169491711Y-58798111D02*
X169491711Y-63477089D01*
X165964000Y-55270400D02*
X169491711Y-58798111D01*
X162636000Y-132302978D02*
X162636000Y-136233000D01*
X163166876Y-83772089D02*
X161899600Y-85039365D01*
X155971689Y-108387729D02*
X155971689Y-125638667D01*
X169491711Y-63477089D02*
X164563711Y-68405089D01*
X163677600Y-83772089D02*
X163166876Y-83772089D01*
X161899600Y-102459818D02*
X155971689Y-108387729D01*
X164563711Y-82885978D02*
X163677600Y-83772089D01*
X155971689Y-125638667D02*
X162636000Y-132302978D01*
X164563711Y-68405089D02*
X164563711Y-82885978D01*
X161899600Y-85039365D02*
X161899600Y-102459818D01*
%TO.N,BE_PULLUP*%
X155242100Y-75896600D02*
X147580700Y-83558000D01*
X163424000Y-47650400D02*
X161872600Y-49201800D01*
X161872600Y-49201800D02*
X161872600Y-53780600D01*
X143006000Y-102640300D02*
X143006000Y-134383000D01*
X147580700Y-83558000D02*
X147580700Y-98065600D01*
X155242100Y-60411100D02*
X155242100Y-75896600D01*
X143006000Y-134383000D02*
X144856000Y-136233000D01*
X147580700Y-98065600D02*
X143006000Y-102640300D01*
X161872600Y-53780600D02*
X155242100Y-60411100D01*
%TD*%
M02*
