%TF.GenerationSoftware,KiCad,Pcbnew,(5.1.9-0-10_14)*%
%TF.CreationDate,2021-09-07T10:39:34+02:00*%
%TF.ProjectId,n8 bit special,6e382062-6974-4207-9370-656369616c2e,2*%
%TF.SameCoordinates,Original*%
%TF.FileFunction,Copper,L4,Bot*%
%TF.FilePolarity,Positive*%
%FSLAX46Y46*%
G04 Gerber Fmt 4.6, Leading zero omitted, Abs format (unit mm)*
G04 Created by KiCad (PCBNEW (5.1.9-0-10_14)) date 2021-09-07 10:39:34*
%MOMM*%
%LPD*%
G01*
G04 APERTURE LIST*
%TA.AperFunction,ComponentPad*%
%ADD10C,1.600000*%
%TD*%
%TA.AperFunction,ComponentPad*%
%ADD11O,1.600000X1.600000*%
%TD*%
%TA.AperFunction,ComponentPad*%
%ADD12R,1.600000X1.600000*%
%TD*%
%TA.AperFunction,ComponentPad*%
%ADD13O,1.700000X1.700000*%
%TD*%
%TA.AperFunction,ComponentPad*%
%ADD14R,1.700000X1.700000*%
%TD*%
%TA.AperFunction,ComponentPad*%
%ADD15C,1.422400*%
%TD*%
%TA.AperFunction,ComponentPad*%
%ADD16R,1.422400X1.422400*%
%TD*%
%TA.AperFunction,ComponentPad*%
%ADD17C,1.800000*%
%TD*%
%TA.AperFunction,ComponentPad*%
%ADD18R,1.800000X1.800000*%
%TD*%
%TA.AperFunction,ComponentPad*%
%ADD19R,1.300000X1.300000*%
%TD*%
%TA.AperFunction,ComponentPad*%
%ADD20C,1.300000*%
%TD*%
%TA.AperFunction,ComponentPad*%
%ADD21O,1.550000X0.890000*%
%TD*%
%TA.AperFunction,ComponentPad*%
%ADD22O,0.950000X1.250000*%
%TD*%
%TA.AperFunction,ComponentPad*%
%ADD23C,2.000000*%
%TD*%
%TA.AperFunction,ViaPad*%
%ADD24C,0.800000*%
%TD*%
%TA.AperFunction,Conductor*%
%ADD25C,0.154000*%
%TD*%
G04 APERTURE END LIST*
D10*
%TO.P,C20,2*%
%TO.N,GND*%
X178562000Y-108003000D03*
%TO.P,C20,1*%
%TO.N,USB_D+*%
X178562000Y-110503000D03*
%TD*%
%TO.P,C19,2*%
%TO.N,GND*%
X178587000Y-116825000D03*
%TO.P,C19,1*%
%TO.N,USB_D-*%
X178587000Y-114325000D03*
%TD*%
%TO.P,C9,2*%
%TO.N,GND*%
X157048000Y-105789000D03*
%TO.P,C9,1*%
%TO.N,+5V*%
X157048000Y-103289000D03*
%TD*%
D11*
%TO.P,U10,14*%
%TO.N,+5V*%
X152451000Y-81559400D03*
%TO.P,U10,7*%
%TO.N,GND*%
X144831000Y-96799400D03*
%TO.P,U10,13*%
%TO.N,~RES*%
X152451000Y-84099400D03*
%TO.P,U10,6*%
%TO.N,~READ*%
X144831000Y-94259400D03*
%TO.P,U10,12*%
%TO.N,~RES*%
X152451000Y-86639400D03*
%TO.P,U10,5*%
%TO.N,R~W*%
X144831000Y-91719400D03*
%TO.P,U10,11*%
%TO.N,UART_RES*%
X152451000Y-89179400D03*
%TO.P,U10,4*%
%TO.N,CLK*%
X144831000Y-89179400D03*
%TO.P,U10,10*%
%TO.N,R~W*%
X152451000Y-91719400D03*
%TO.P,U10,3*%
%TO.N,~WRITE*%
X144831000Y-86639400D03*
%TO.P,U10,9*%
%TO.N,R~W*%
X152451000Y-94259400D03*
%TO.P,U10,2*%
%TO.N,CLK*%
X144831000Y-84099400D03*
%TO.P,U10,8*%
%TO.N,Net-(U10-Pad1)*%
X152451000Y-96799400D03*
D12*
%TO.P,U10,1*%
X144831000Y-81559400D03*
%TD*%
D11*
%TO.P,R2,2*%
%TO.N,+5V*%
X157036000Y-89733100D03*
D10*
%TO.P,R2,1*%
%TO.N,~UART_IRQ*%
X157036000Y-97353100D03*
%TD*%
D13*
%TO.P,J6,12*%
%TO.N,Net-(J6-Pad12)*%
X144869000Y-132029000D03*
%TO.P,J6,11*%
%TO.N,PORT2_NMI_PULLUP*%
X144869000Y-129489000D03*
%TO.P,J6,10*%
%TO.N,Net-(J6-Pad10)*%
X147409000Y-132029000D03*
%TO.P,J6,9*%
%TO.N,PORT2_IRQ_PULLUP*%
X147409000Y-129489000D03*
%TO.P,J6,8*%
%TO.N,Net-(J6-Pad8)*%
X149949000Y-132029000D03*
%TO.P,J6,7*%
%TO.N,PORT1_NMI_PULLUP*%
X149949000Y-129489000D03*
%TO.P,J6,6*%
%TO.N,Net-(J6-Pad6)*%
X152489000Y-132029000D03*
%TO.P,J6,5*%
%TO.N,PORT1_IRQ_PULLUP*%
X152489000Y-129489000D03*
%TO.P,J6,4*%
%TO.N,Net-(J6-Pad4)*%
X155029000Y-132029000D03*
%TO.P,J6,3*%
%TO.N,PORT0_NMI_PULLUP*%
X155029000Y-129489000D03*
%TO.P,J6,2*%
%TO.N,Net-(J6-Pad2)*%
X157569000Y-132029000D03*
D14*
%TO.P,J6,1*%
%TO.N,PORT0_IRQ_PULLUP*%
X157569000Y-129489000D03*
%TD*%
D15*
%TO.P,U8,39*%
%TO.N,~UART_CS*%
X166116000Y-72059800D03*
%TO.P,U8,37*%
%TO.N,Net-(U8-Pad37)*%
X168656000Y-72059800D03*
%TO.P,U8,35*%
%TO.N,RxD*%
X171196000Y-72059800D03*
%TO.P,U8,33*%
%TO.N,TxD*%
X173736000Y-72059800D03*
%TO.P,U8,31*%
%TO.N,Net-(U8-Pad31)*%
X176276000Y-72059800D03*
%TO.P,U8,40*%
%TO.N,Net-(U8-Pad40)*%
X163576000Y-74599800D03*
%TO.P,U8,38*%
%TO.N,UART_RES*%
X168656000Y-74599800D03*
%TO.P,U8,36*%
%TO.N,CLK*%
X171196000Y-74599800D03*
%TO.P,U8,34*%
%TO.N,Net-(U8-Pad34)*%
X173736000Y-74599800D03*
%TO.P,U8,32*%
%TO.N,~RTS*%
X176276000Y-74599800D03*
%TO.P,U8,30*%
%TO.N,Net-(U8-Pad30)*%
X178816000Y-74599800D03*
%TO.P,U8,28*%
%TO.N,/D0*%
X181356000Y-74599800D03*
%TO.P,U8,26*%
%TO.N,/D4*%
X181356000Y-77139800D03*
%TO.P,U8,24*%
%TO.N,~UART_IRQ*%
X181356000Y-79679800D03*
%TO.P,U8,22*%
%TO.N,GND*%
X181356000Y-82219800D03*
%TO.P,U8,20*%
%TO.N,/D5*%
X181356000Y-84759800D03*
%TO.P,U8,18*%
%TO.N,/D1*%
X181356000Y-87299800D03*
%TO.P,U8,29*%
%TO.N,Net-(U8-Pad29)*%
X178816000Y-72059800D03*
%TO.P,U8,27*%
%TO.N,/D2*%
X178816000Y-77139800D03*
%TO.P,U8,25*%
%TO.N,/D6*%
X178816000Y-79679800D03*
%TO.P,U8,23*%
%TO.N,Net-(U8-Pad23)*%
X178816000Y-82219800D03*
%TO.P,U8,21*%
%TO.N,/D7*%
X178816000Y-84759800D03*
%TO.P,U8,19*%
%TO.N,/D3*%
X178816000Y-87299800D03*
%TO.P,U8,17*%
%TO.N,Net-(U8-Pad17)*%
X178816000Y-89839800D03*
%TO.P,U8,15*%
%TO.N,Net-(U8-Pad15)*%
X176276000Y-89839800D03*
%TO.P,U8,13*%
%TO.N,Net-(U8-Pad13)*%
X173736000Y-89839800D03*
%TO.P,U8,11*%
%TO.N,Net-(U8-Pad11)*%
X171196000Y-89839800D03*
%TO.P,U8,9*%
%TO.N,~WRITE*%
X168656000Y-89839800D03*
%TO.P,U8,7*%
%TO.N,/A3*%
X166116000Y-89839800D03*
%TO.P,U8,16*%
%TO.N,Net-(U8-Pad16)*%
X176276000Y-87299800D03*
%TO.P,U8,14*%
%TO.N,Net-(U8-Pad14)*%
X173736000Y-87299800D03*
%TO.P,U8,12*%
%TO.N,+5V*%
X171196000Y-87299800D03*
%TO.P,U8,10*%
%TO.N,~READ*%
X168656000Y-87299800D03*
%TO.P,U8,8*%
%TO.N,~CTS*%
X166116000Y-87299800D03*
%TO.P,U8,42*%
%TO.N,Net-(U8-Pad42)*%
X163576000Y-77139800D03*
%TO.P,U8,44*%
%TO.N,+5V*%
X163576000Y-79679800D03*
%TO.P,U8,6*%
%TO.N,/A2*%
X163576000Y-87299800D03*
%TO.P,U8,4*%
%TO.N,/A1*%
X163576000Y-84759800D03*
%TO.P,U8,2*%
%TO.N,/A0*%
X163576000Y-82219800D03*
%TO.P,U8,41*%
%TO.N,Net-(U8-Pad41)*%
X166116000Y-74599800D03*
%TO.P,U8,43*%
%TO.N,Net-(U8-Pad43)*%
X166116000Y-77139800D03*
%TO.P,U8,5*%
%TO.N,Net-(U8-Pad5)*%
X166116000Y-84759800D03*
%TO.P,U8,3*%
%TO.N,Net-(U8-Pad3)*%
X166116000Y-82219800D03*
D16*
%TO.P,U8,1*%
%TO.N,Net-(U8-Pad1)*%
X166116000Y-79679800D03*
%TD*%
D11*
%TO.P,R8,2*%
%TO.N,USB_D+*%
X174612000Y-110503000D03*
D10*
%TO.P,R8,1*%
%TO.N,/F_USB_D+*%
X166992000Y-110503000D03*
%TD*%
D11*
%TO.P,R7,2*%
%TO.N,USB_D-*%
X174625000Y-114325000D03*
D10*
%TO.P,R7,1*%
%TO.N,/F_USB_D-*%
X167005000Y-114325000D03*
%TD*%
D11*
%TO.P,R6,2*%
%TO.N,Net-(D3-Pad2)*%
X177399000Y-97038200D03*
D10*
%TO.P,R6,1*%
%TO.N,+3V3*%
X169779000Y-97038200D03*
%TD*%
D11*
%TO.P,R5,2*%
%TO.N,Net-(D2-Pad2)*%
X177409000Y-102941000D03*
D10*
%TO.P,R5,1*%
%TO.N,+3V3*%
X169789000Y-102941000D03*
%TD*%
D17*
%TO.P,D3,2*%
%TO.N,Net-(D3-Pad2)*%
X183566000Y-96977200D03*
D18*
%TO.P,D3,1*%
%TO.N,Net-(D3-Pad1)*%
X181026000Y-96977200D03*
%TD*%
D17*
%TO.P,D2,2*%
%TO.N,Net-(D2-Pad2)*%
X183592000Y-102819000D03*
D18*
%TO.P,D2,1*%
%TO.N,Net-(D2-Pad1)*%
X181052000Y-102819000D03*
%TD*%
D10*
%TO.P,C18,2*%
%TO.N,GND*%
X161844000Y-103327000D03*
%TO.P,C18,1*%
%TO.N,+3V3*%
X161844000Y-105827000D03*
%TD*%
%TO.P,C17,2*%
%TO.N,GND*%
X157036000Y-74157200D03*
%TO.P,C17,1*%
%TO.N,+5V*%
X157036000Y-76657200D03*
%TD*%
D15*
%TO.P,U1,39*%
%TO.N,Net-(U1-Pad39)*%
X165964000Y-45110400D03*
%TO.P,U1,37*%
%TO.N,+5V*%
X168504000Y-45110400D03*
%TO.P,U1,35*%
%TO.N,/D1*%
X171044000Y-45110400D03*
%TO.P,U1,33*%
%TO.N,/D3*%
X173584000Y-45110400D03*
%TO.P,U1,31*%
%TO.N,/D5*%
X176124000Y-45110400D03*
%TO.P,U1,40*%
%TO.N,BE_PULLUP*%
X163424000Y-47650400D03*
%TO.P,U1,38*%
%TO.N,R~W*%
X168504000Y-47650400D03*
%TO.P,U1,36*%
%TO.N,/D0*%
X171044000Y-47650400D03*
%TO.P,U1,34*%
%TO.N,/D2*%
X173584000Y-47650400D03*
%TO.P,U1,32*%
%TO.N,/D4*%
X176124000Y-47650400D03*
%TO.P,U1,30*%
%TO.N,/D6*%
X178664000Y-47650400D03*
%TO.P,U1,28*%
%TO.N,/A15*%
X181204000Y-47650400D03*
%TO.P,U1,26*%
%TO.N,/A13*%
X181204000Y-50190400D03*
%TO.P,U1,24*%
%TO.N,GND*%
X181204000Y-52730400D03*
%TO.P,U1,22*%
%TO.N,/A11*%
X181204000Y-55270400D03*
%TO.P,U1,20*%
%TO.N,/A9*%
X181204000Y-57810400D03*
%TO.P,U1,18*%
%TO.N,/A7*%
X181204000Y-60350400D03*
%TO.P,U1,29*%
%TO.N,/D7*%
X178664000Y-45110400D03*
%TO.P,U1,27*%
%TO.N,/A14*%
X178664000Y-50190400D03*
%TO.P,U1,25*%
%TO.N,/A12*%
X178664000Y-52730400D03*
%TO.P,U1,23*%
%TO.N,GND*%
X178664000Y-55270400D03*
%TO.P,U1,21*%
%TO.N,/A10*%
X178664000Y-57810400D03*
%TO.P,U1,19*%
%TO.N,/A8*%
X178664000Y-60350400D03*
%TO.P,U1,17*%
%TO.N,/A6*%
X178664000Y-62890400D03*
%TO.P,U1,15*%
%TO.N,/A4*%
X176124000Y-62890400D03*
%TO.P,U1,13*%
%TO.N,/A2*%
X173584000Y-62890400D03*
%TO.P,U1,11*%
%TO.N,/A1*%
X171044000Y-62890400D03*
%TO.P,U1,9*%
%TO.N,+5V*%
X168504000Y-62890400D03*
%TO.P,U1,7*%
%TO.N,~NMI*%
X165964000Y-62890400D03*
%TO.P,U1,16*%
%TO.N,/A5*%
X176124000Y-60350400D03*
%TO.P,U1,14*%
%TO.N,/A3*%
X173584000Y-60350400D03*
%TO.P,U1,12*%
%TO.N,Net-(U1-Pad12)*%
X171044000Y-60350400D03*
%TO.P,U1,10*%
%TO.N,/A0*%
X168504000Y-60350400D03*
%TO.P,U1,8*%
%TO.N,Net-(U1-Pad8)*%
X165964000Y-60350400D03*
%TO.P,U1,42*%
%TO.N,+5V*%
X163424000Y-50190400D03*
%TO.P,U1,44*%
%TO.N,~RES*%
X163424000Y-52730400D03*
%TO.P,U1,6*%
%TO.N,Net-(U1-Pad6)*%
X163424000Y-60350400D03*
%TO.P,U1,4*%
%TO.N,Net-(U1-Pad4)*%
X163424000Y-57810400D03*
%TO.P,U1,2*%
%TO.N,Net-(U1-Pad2)*%
X163424000Y-55270400D03*
%TO.P,U1,41*%
%TO.N,CLK*%
X165964000Y-47650400D03*
%TO.P,U1,43*%
%TO.N,Net-(U1-Pad43)*%
X165964000Y-50190400D03*
%TO.P,U1,5*%
%TO.N,~IRQ*%
X165964000Y-57810400D03*
%TO.P,U1,3*%
%TO.N,RDY_PULLUP*%
X165964000Y-55270400D03*
D16*
%TO.P,U1,1*%
%TO.N,GND*%
X165964000Y-52730400D03*
%TD*%
D19*
%TO.P,Q1,1*%
%TO.N,Net-(D1-Pad2)*%
X162611000Y-130315000D03*
D20*
%TO.P,Q1,3*%
%TO.N,+5V*%
X165151000Y-130315000D03*
%TO.P,Q1,2*%
%TO.N,Net-(Q1-Pad2)*%
X163881000Y-129045000D03*
%TD*%
D11*
%TO.P,R4,2*%
%TO.N,~RES*%
X169532000Y-123126000D03*
D10*
%TO.P,R4,1*%
%TO.N,Net-(Q1-Pad2)*%
X169532000Y-130746000D03*
%TD*%
%TO.P,C16,2*%
%TO.N,+5V*%
X124244000Y-81497800D03*
%TO.P,C16,1*%
%TO.N,GND*%
X124244000Y-83997800D03*
%TD*%
%TO.P,X1,4*%
%TO.N,GND*%
X138405000Y-90373200D03*
%TO.P,X1,5*%
%TO.N,CLK*%
X138405000Y-82753200D03*
%TO.P,X1,8*%
%TO.N,+5V*%
X130785000Y-82753200D03*
D12*
%TO.P,X1,1*%
%TO.N,Net-(X1-Pad1)*%
X130785000Y-90373200D03*
%TD*%
D21*
%TO.P,J1,6*%
%TO.N,Net-(J1-Pad6)*%
X185513000Y-108742000D03*
X185513000Y-115742000D03*
D22*
X182813000Y-109742000D03*
X182813000Y-114742000D03*
%TD*%
D10*
%TO.P,C2,2*%
%TO.N,GND*%
X181064000Y-125822000D03*
D12*
%TO.P,C2,1*%
%TO.N,+5V*%
X181064000Y-122022000D03*
%TD*%
D10*
%TO.P,C1,1*%
%TO.N,GND*%
X157036000Y-84048600D03*
%TO.P,C1,2*%
%TO.N,+5V*%
X157036000Y-81548600D03*
%TD*%
%TO.P,C3,2*%
%TO.N,+5V*%
X90723700Y-133563000D03*
%TO.P,C3,1*%
%TO.N,GND*%
X90723700Y-136063000D03*
%TD*%
%TO.P,C4,2*%
%TO.N,GND*%
X138803000Y-133568000D03*
%TO.P,C4,1*%
%TO.N,+5V*%
X138803000Y-136068000D03*
%TD*%
%TO.P,C7,2*%
%TO.N,+5V*%
X90723700Y-116016000D03*
%TO.P,C7,1*%
%TO.N,GND*%
X90723700Y-118516000D03*
%TD*%
%TO.P,C8,1*%
%TO.N,+5V*%
X138770000Y-118161000D03*
%TO.P,C8,2*%
%TO.N,GND*%
X138770000Y-115661000D03*
%TD*%
%TO.P,C5,2*%
%TO.N,+5V*%
X90723700Y-97601000D03*
%TO.P,C5,1*%
%TO.N,GND*%
X90723700Y-100101000D03*
%TD*%
%TO.P,C6,1*%
%TO.N,+5V*%
X138719000Y-100101000D03*
%TO.P,C6,2*%
%TO.N,GND*%
X138719000Y-97601000D03*
%TD*%
%TO.P,C11,2*%
%TO.N,GND*%
X156972000Y-52541800D03*
%TO.P,C11,1*%
%TO.N,+5V*%
X156972000Y-55041800D03*
%TD*%
%TO.P,C12,1*%
%TO.N,+5V*%
X156947000Y-43459400D03*
%TO.P,C12,2*%
%TO.N,GND*%
X156947000Y-45959400D03*
%TD*%
%TO.P,C13,1*%
%TO.N,+5V*%
X133223000Y-43370500D03*
%TO.P,C13,2*%
%TO.N,GND*%
X133223000Y-45870500D03*
%TD*%
%TO.P,C14,1*%
%TO.N,+5V*%
X109918000Y-43307000D03*
%TO.P,C14,2*%
%TO.N,GND*%
X109918000Y-45807000D03*
%TD*%
D18*
%TO.P,D1,1*%
%TO.N,Net-(D1-Pad1)*%
X173533000Y-135712000D03*
D17*
%TO.P,D1,2*%
%TO.N,Net-(D1-Pad2)*%
X170993000Y-135712000D03*
%TD*%
D14*
%TO.P,J2,1*%
%TO.N,+5V*%
X95539600Y-97637600D03*
D13*
%TO.P,J2,2*%
X95539600Y-100177600D03*
%TO.P,J2,3*%
%TO.N,GND*%
X98079600Y-97637600D03*
%TO.P,J2,4*%
X98079600Y-100177600D03*
%TO.P,J2,5*%
%TO.N,/A0*%
X100619600Y-97637600D03*
%TO.P,J2,6*%
%TO.N,/D0*%
X100619600Y-100177600D03*
%TO.P,J2,7*%
%TO.N,/A1*%
X103159600Y-97637600D03*
%TO.P,J2,8*%
%TO.N,/D1*%
X103159600Y-100177600D03*
%TO.P,J2,9*%
%TO.N,/A2*%
X105699600Y-97637600D03*
%TO.P,J2,10*%
%TO.N,/D2*%
X105699600Y-100177600D03*
%TO.P,J2,11*%
%TO.N,/A3*%
X108239600Y-97637600D03*
%TO.P,J2,12*%
%TO.N,/D3*%
X108239600Y-100177600D03*
%TO.P,J2,13*%
%TO.N,/A4*%
X110779600Y-97637600D03*
%TO.P,J2,14*%
%TO.N,/D4*%
X110779600Y-100177600D03*
%TO.P,J2,15*%
%TO.N,/A5*%
X113319600Y-97637600D03*
%TO.P,J2,16*%
%TO.N,/D5*%
X113319600Y-100177600D03*
%TO.P,J2,17*%
%TO.N,~PORT0_CS*%
X115859600Y-97637600D03*
%TO.P,J2,18*%
%TO.N,/D6*%
X115859600Y-100177600D03*
%TO.P,J2,19*%
%TO.N,R~W*%
X118399600Y-97637600D03*
%TO.P,J2,20*%
%TO.N,/D7*%
X118399600Y-100177600D03*
%TO.P,J2,21*%
%TO.N,CLK*%
X120939600Y-97637600D03*
%TO.P,J2,22*%
%TO.N,PORT0_IRQ_PULLUP*%
X120939600Y-100177600D03*
%TO.P,J2,23*%
%TO.N,~RES*%
X123479600Y-97637600D03*
%TO.P,J2,24*%
%TO.N,PORT0_NMI_PULLUP*%
X123479600Y-100177600D03*
%TO.P,J2,25*%
%TO.N,FUTURE0*%
X126019600Y-97637600D03*
%TO.P,J2,26*%
%TO.N,~READ*%
X126019600Y-100177600D03*
%TO.P,J2,27*%
%TO.N,FUTURE1*%
X128559600Y-97637600D03*
%TO.P,J2,28*%
%TO.N,~WRITE*%
X128559600Y-100177600D03*
%TO.P,J2,29*%
%TO.N,+5V*%
X131099600Y-97637600D03*
%TO.P,J2,30*%
X131099600Y-100177600D03*
%TO.P,J2,31*%
%TO.N,GND*%
X133639600Y-97637600D03*
%TO.P,J2,32*%
X133639600Y-100177600D03*
%TD*%
D14*
%TO.P,J3,1*%
%TO.N,+5V*%
X95541800Y-133560000D03*
D13*
%TO.P,J3,2*%
X95541800Y-136100000D03*
%TO.P,J3,3*%
%TO.N,GND*%
X98081800Y-133560000D03*
%TO.P,J3,4*%
X98081800Y-136100000D03*
%TO.P,J3,5*%
%TO.N,/A0*%
X100621800Y-133560000D03*
%TO.P,J3,6*%
%TO.N,/D0*%
X100621800Y-136100000D03*
%TO.P,J3,7*%
%TO.N,/A1*%
X103161800Y-133560000D03*
%TO.P,J3,8*%
%TO.N,/D1*%
X103161800Y-136100000D03*
%TO.P,J3,9*%
%TO.N,/A2*%
X105701800Y-133560000D03*
%TO.P,J3,10*%
%TO.N,/D2*%
X105701800Y-136100000D03*
%TO.P,J3,11*%
%TO.N,/A3*%
X108241800Y-133560000D03*
%TO.P,J3,12*%
%TO.N,/D3*%
X108241800Y-136100000D03*
%TO.P,J3,13*%
%TO.N,/A4*%
X110781800Y-133560000D03*
%TO.P,J3,14*%
%TO.N,/D4*%
X110781800Y-136100000D03*
%TO.P,J3,15*%
%TO.N,/A5*%
X113321800Y-133560000D03*
%TO.P,J3,16*%
%TO.N,/D5*%
X113321800Y-136100000D03*
%TO.P,J3,17*%
%TO.N,~PORT2_CS*%
X115861800Y-133560000D03*
%TO.P,J3,18*%
%TO.N,/D6*%
X115861800Y-136100000D03*
%TO.P,J3,19*%
%TO.N,R~W*%
X118401800Y-133560000D03*
%TO.P,J3,20*%
%TO.N,/D7*%
X118401800Y-136100000D03*
%TO.P,J3,21*%
%TO.N,CLK*%
X120941800Y-133560000D03*
%TO.P,J3,22*%
%TO.N,PORT2_IRQ_PULLUP*%
X120941800Y-136100000D03*
%TO.P,J3,23*%
%TO.N,~RES*%
X123481800Y-133560000D03*
%TO.P,J3,24*%
%TO.N,PORT2_NMI_PULLUP*%
X123481800Y-136100000D03*
%TO.P,J3,25*%
%TO.N,FUTURE0*%
X126021800Y-133560000D03*
%TO.P,J3,26*%
%TO.N,~READ*%
X126021800Y-136100000D03*
%TO.P,J3,27*%
%TO.N,FUTURE1*%
X128561800Y-133560000D03*
%TO.P,J3,28*%
%TO.N,~WRITE*%
X128561800Y-136100000D03*
%TO.P,J3,29*%
%TO.N,+5V*%
X131101800Y-133560000D03*
%TO.P,J3,30*%
X131101800Y-136100000D03*
%TO.P,J3,31*%
%TO.N,GND*%
X133641800Y-133560000D03*
%TO.P,J3,32*%
X133641800Y-136100000D03*
%TD*%
%TO.P,J4,32*%
%TO.N,GND*%
X133639600Y-118143000D03*
%TO.P,J4,31*%
X133639600Y-115603000D03*
%TO.P,J4,30*%
%TO.N,+5V*%
X131099600Y-118143000D03*
%TO.P,J4,29*%
X131099600Y-115603000D03*
%TO.P,J4,28*%
%TO.N,~WRITE*%
X128559600Y-118143000D03*
%TO.P,J4,27*%
%TO.N,FUTURE1*%
X128559600Y-115603000D03*
%TO.P,J4,26*%
%TO.N,~READ*%
X126019600Y-118143000D03*
%TO.P,J4,25*%
%TO.N,FUTURE0*%
X126019600Y-115603000D03*
%TO.P,J4,24*%
%TO.N,PORT1_NMI_PULLUP*%
X123479600Y-118143000D03*
%TO.P,J4,23*%
%TO.N,~RES*%
X123479600Y-115603000D03*
%TO.P,J4,22*%
%TO.N,PORT1_IRQ_PULLUP*%
X120939600Y-118143000D03*
%TO.P,J4,21*%
%TO.N,CLK*%
X120939600Y-115603000D03*
%TO.P,J4,20*%
%TO.N,/D7*%
X118399600Y-118143000D03*
%TO.P,J4,19*%
%TO.N,R~W*%
X118399600Y-115603000D03*
%TO.P,J4,18*%
%TO.N,/D6*%
X115859600Y-118143000D03*
%TO.P,J4,17*%
%TO.N,~PORT1_CS*%
X115859600Y-115603000D03*
%TO.P,J4,16*%
%TO.N,/D5*%
X113319600Y-118143000D03*
%TO.P,J4,15*%
%TO.N,/A5*%
X113319600Y-115603000D03*
%TO.P,J4,14*%
%TO.N,/D4*%
X110779600Y-118143000D03*
%TO.P,J4,13*%
%TO.N,/A4*%
X110779600Y-115603000D03*
%TO.P,J4,12*%
%TO.N,/D3*%
X108239600Y-118143000D03*
%TO.P,J4,11*%
%TO.N,/A3*%
X108239600Y-115603000D03*
%TO.P,J4,10*%
%TO.N,/D2*%
X105699600Y-118143000D03*
%TO.P,J4,9*%
%TO.N,/A2*%
X105699600Y-115603000D03*
%TO.P,J4,8*%
%TO.N,/D1*%
X103159600Y-118143000D03*
%TO.P,J4,7*%
%TO.N,/A1*%
X103159600Y-115603000D03*
%TO.P,J4,6*%
%TO.N,/D0*%
X100619600Y-118143000D03*
%TO.P,J4,5*%
%TO.N,/A0*%
X100619600Y-115603000D03*
%TO.P,J4,4*%
%TO.N,GND*%
X98079600Y-118143000D03*
%TO.P,J4,3*%
X98079600Y-115603000D03*
%TO.P,J4,2*%
%TO.N,+5V*%
X95539600Y-118143000D03*
D14*
%TO.P,J4,1*%
X95539600Y-115603000D03*
%TD*%
D10*
%TO.P,R1,1*%
%TO.N,Net-(D1-Pad1)*%
X173888000Y-130696000D03*
D11*
%TO.P,R1,2*%
%TO.N,GND*%
X173888000Y-123076000D03*
%TD*%
D12*
%TO.P,RN1,1*%
%TO.N,+5V*%
X165176000Y-136233000D03*
D11*
%TO.P,RN1,2*%
%TO.N,RDY_PULLUP*%
X162636000Y-136233000D03*
%TO.P,RN1,3*%
%TO.N,BE_PULLUP*%
X160096000Y-136233000D03*
%TO.P,RN1,4*%
%TO.N,Net-(J6-Pad2)*%
X157556000Y-136233000D03*
%TO.P,RN1,5*%
%TO.N,Net-(J6-Pad4)*%
X155016000Y-136233000D03*
%TO.P,RN1,6*%
%TO.N,Net-(J6-Pad6)*%
X152476000Y-136233000D03*
%TO.P,RN1,7*%
%TO.N,Net-(J6-Pad8)*%
X149936000Y-136233000D03*
%TO.P,RN1,8*%
%TO.N,Net-(J6-Pad10)*%
X147396000Y-136233000D03*
%TO.P,RN1,9*%
%TO.N,Net-(J6-Pad12)*%
X144856000Y-136233000D03*
%TD*%
D20*
%TO.P,U7,2*%
%TO.N,+5V*%
X163881000Y-122758000D03*
%TO.P,U7,3*%
%TO.N,GND*%
X165151000Y-124028000D03*
D19*
%TO.P,U7,1*%
%TO.N,~RES*%
X162611000Y-124028000D03*
%TD*%
D12*
%TO.P,U6,1*%
%TO.N,CLK*%
X118745000Y-82537300D03*
D11*
%TO.P,U6,13*%
%TO.N,R~W*%
X90805000Y-90157300D03*
%TO.P,U6,2*%
%TO.N,/A6*%
X116205000Y-82537300D03*
%TO.P,U6,14*%
%TO.N,FUTURE1*%
X93345000Y-90157300D03*
%TO.P,U6,3*%
%TO.N,/A7*%
X113665000Y-82537300D03*
%TO.P,U6,15*%
%TO.N,FUTURE0*%
X95885000Y-90157300D03*
%TO.P,U6,4*%
%TO.N,/A8*%
X111125000Y-82537300D03*
%TO.P,U6,16*%
%TO.N,Net-(U6-Pad16)*%
X98425000Y-90157300D03*
%TO.P,U6,5*%
%TO.N,/A9*%
X108585000Y-82537300D03*
%TO.P,U6,17*%
%TO.N,~UART_CS*%
X100965000Y-90157300D03*
%TO.P,U6,6*%
%TO.N,/A10*%
X106045000Y-82537300D03*
%TO.P,U6,18*%
%TO.N,~PORT2_CS*%
X103505000Y-90157300D03*
%TO.P,U6,7*%
%TO.N,/A11*%
X103505000Y-82537300D03*
%TO.P,U6,19*%
%TO.N,~PORT1_CS*%
X106045000Y-90157300D03*
%TO.P,U6,8*%
%TO.N,/A12*%
X100965000Y-82537300D03*
%TO.P,U6,20*%
%TO.N,~PORT0_CS*%
X108585000Y-90157300D03*
%TO.P,U6,9*%
%TO.N,/A13*%
X98425000Y-82537300D03*
%TO.P,U6,21*%
%TO.N,~RAM2_CS*%
X111125000Y-90157300D03*
%TO.P,U6,10*%
%TO.N,/A14*%
X95885000Y-82537300D03*
%TO.P,U6,22*%
%TO.N,~RAM1_CS*%
X113665000Y-90157300D03*
%TO.P,U6,11*%
%TO.N,/A15*%
X93345000Y-82537300D03*
%TO.P,U6,23*%
%TO.N,~ROM_CS*%
X116205000Y-90157300D03*
%TO.P,U6,12*%
%TO.N,GND*%
X90805000Y-82537300D03*
%TO.P,U6,24*%
%TO.N,+5V*%
X118745000Y-90157300D03*
%TD*%
D10*
%TO.P,C15,1*%
%TO.N,GND*%
X124282000Y-89179400D03*
%TO.P,C15,2*%
%TO.N,+5V*%
X124282000Y-91679400D03*
%TD*%
D23*
%TO.P,SW1,2*%
%TO.N,GND*%
X177736000Y-136682000D03*
%TO.P,SW1,1*%
%TO.N,~RES*%
X177736000Y-132182000D03*
%TO.P,SW1,2*%
%TO.N,GND*%
X184236000Y-136682000D03*
%TO.P,SW1,1*%
%TO.N,~RES*%
X184236000Y-132182000D03*
%TD*%
D12*
%TO.P,U2,1*%
%TO.N,/A14*%
X137160000Y-43370500D03*
D11*
%TO.P,U2,15*%
%TO.N,/D3*%
X152400000Y-76390500D03*
%TO.P,U2,2*%
%TO.N,/A12*%
X137160000Y-45910500D03*
%TO.P,U2,16*%
%TO.N,/D4*%
X152400000Y-73850500D03*
%TO.P,U2,3*%
%TO.N,/A7*%
X137160000Y-48450500D03*
%TO.P,U2,17*%
%TO.N,/D5*%
X152400000Y-71310500D03*
%TO.P,U2,4*%
%TO.N,/A6*%
X137160000Y-50990500D03*
%TO.P,U2,18*%
%TO.N,/D6*%
X152400000Y-68770500D03*
%TO.P,U2,5*%
%TO.N,/A5*%
X137160000Y-53530500D03*
%TO.P,U2,19*%
%TO.N,/D7*%
X152400000Y-66230500D03*
%TO.P,U2,6*%
%TO.N,/A4*%
X137160000Y-56070500D03*
%TO.P,U2,20*%
%TO.N,~RAM1_CS*%
X152400000Y-63690500D03*
%TO.P,U2,7*%
%TO.N,/A3*%
X137160000Y-58610500D03*
%TO.P,U2,21*%
%TO.N,/A10*%
X152400000Y-61150500D03*
%TO.P,U2,8*%
%TO.N,/A2*%
X137160000Y-61150500D03*
%TO.P,U2,22*%
%TO.N,~READ*%
X152400000Y-58610500D03*
%TO.P,U2,9*%
%TO.N,/A1*%
X137160000Y-63690500D03*
%TO.P,U2,23*%
%TO.N,/A11*%
X152400000Y-56070500D03*
%TO.P,U2,10*%
%TO.N,/A0*%
X137160000Y-66230500D03*
%TO.P,U2,24*%
%TO.N,/A9*%
X152400000Y-53530500D03*
%TO.P,U2,11*%
%TO.N,/D0*%
X137160000Y-68770500D03*
%TO.P,U2,25*%
%TO.N,/A8*%
X152400000Y-50990500D03*
%TO.P,U2,12*%
%TO.N,/D1*%
X137160000Y-71310500D03*
%TO.P,U2,26*%
%TO.N,/A13*%
X152400000Y-48450500D03*
%TO.P,U2,13*%
%TO.N,/D2*%
X137160000Y-73850500D03*
%TO.P,U2,27*%
%TO.N,~WRITE*%
X152400000Y-45910500D03*
%TO.P,U2,14*%
%TO.N,GND*%
X137160000Y-76390500D03*
%TO.P,U2,28*%
%TO.N,+5V*%
X152400000Y-43370500D03*
%TD*%
D12*
%TO.P,U3,1*%
%TO.N,/A14*%
X113919000Y-43370500D03*
D11*
%TO.P,U3,15*%
%TO.N,/D3*%
X129159000Y-76390500D03*
%TO.P,U3,2*%
%TO.N,/A12*%
X113919000Y-45910500D03*
%TO.P,U3,16*%
%TO.N,/D4*%
X129159000Y-73850500D03*
%TO.P,U3,3*%
%TO.N,/A7*%
X113919000Y-48450500D03*
%TO.P,U3,17*%
%TO.N,/D5*%
X129159000Y-71310500D03*
%TO.P,U3,4*%
%TO.N,/A6*%
X113919000Y-50990500D03*
%TO.P,U3,18*%
%TO.N,/D6*%
X129159000Y-68770500D03*
%TO.P,U3,5*%
%TO.N,/A5*%
X113919000Y-53530500D03*
%TO.P,U3,19*%
%TO.N,/D7*%
X129159000Y-66230500D03*
%TO.P,U3,6*%
%TO.N,/A4*%
X113919000Y-56070500D03*
%TO.P,U3,20*%
%TO.N,~RAM2_CS*%
X129159000Y-63690500D03*
%TO.P,U3,7*%
%TO.N,/A3*%
X113919000Y-58610500D03*
%TO.P,U3,21*%
%TO.N,/A10*%
X129159000Y-61150500D03*
%TO.P,U3,8*%
%TO.N,/A2*%
X113919000Y-61150500D03*
%TO.P,U3,22*%
%TO.N,~READ*%
X129159000Y-58610500D03*
%TO.P,U3,9*%
%TO.N,/A1*%
X113919000Y-63690500D03*
%TO.P,U3,23*%
%TO.N,/A11*%
X129159000Y-56070500D03*
%TO.P,U3,10*%
%TO.N,/A0*%
X113919000Y-66230500D03*
%TO.P,U3,24*%
%TO.N,/A9*%
X129159000Y-53530500D03*
%TO.P,U3,11*%
%TO.N,/D0*%
X113919000Y-68770500D03*
%TO.P,U3,25*%
%TO.N,/A8*%
X129159000Y-50990500D03*
%TO.P,U3,12*%
%TO.N,/D1*%
X113919000Y-71310500D03*
%TO.P,U3,26*%
%TO.N,/A13*%
X129159000Y-48450500D03*
%TO.P,U3,13*%
%TO.N,/D2*%
X113919000Y-73850500D03*
%TO.P,U3,27*%
%TO.N,~WRITE*%
X129159000Y-45910500D03*
%TO.P,U3,14*%
%TO.N,GND*%
X113919000Y-76390500D03*
%TO.P,U3,28*%
%TO.N,+5V*%
X129159000Y-43370500D03*
%TD*%
%TO.P,U4,28*%
%TO.N,+5V*%
X105918000Y-43370500D03*
%TO.P,U4,14*%
%TO.N,GND*%
X90678000Y-76390500D03*
%TO.P,U4,27*%
%TO.N,+5V*%
X105918000Y-45910500D03*
%TO.P,U4,13*%
%TO.N,/D2*%
X90678000Y-73850500D03*
%TO.P,U4,26*%
%TO.N,/A13*%
X105918000Y-48450500D03*
%TO.P,U4,12*%
%TO.N,/D1*%
X90678000Y-71310500D03*
%TO.P,U4,25*%
%TO.N,/A8*%
X105918000Y-50990500D03*
%TO.P,U4,11*%
%TO.N,/D0*%
X90678000Y-68770500D03*
%TO.P,U4,24*%
%TO.N,/A9*%
X105918000Y-53530500D03*
%TO.P,U4,10*%
%TO.N,/A0*%
X90678000Y-66230500D03*
%TO.P,U4,23*%
%TO.N,/A11*%
X105918000Y-56070500D03*
%TO.P,U4,9*%
%TO.N,/A1*%
X90678000Y-63690500D03*
%TO.P,U4,22*%
%TO.N,~READ*%
X105918000Y-58610500D03*
%TO.P,U4,8*%
%TO.N,/A2*%
X90678000Y-61150500D03*
%TO.P,U4,21*%
%TO.N,/A10*%
X105918000Y-61150500D03*
%TO.P,U4,7*%
%TO.N,/A3*%
X90678000Y-58610500D03*
%TO.P,U4,20*%
%TO.N,~ROM_CS*%
X105918000Y-63690500D03*
%TO.P,U4,6*%
%TO.N,/A4*%
X90678000Y-56070500D03*
%TO.P,U4,19*%
%TO.N,/D7*%
X105918000Y-66230500D03*
%TO.P,U4,5*%
%TO.N,/A5*%
X90678000Y-53530500D03*
%TO.P,U4,18*%
%TO.N,/D6*%
X105918000Y-68770500D03*
%TO.P,U4,4*%
%TO.N,/A6*%
X90678000Y-50990500D03*
%TO.P,U4,17*%
%TO.N,/D5*%
X105918000Y-71310500D03*
%TO.P,U4,3*%
%TO.N,/A7*%
X90678000Y-48450500D03*
%TO.P,U4,16*%
%TO.N,/D4*%
X105918000Y-73850500D03*
%TO.P,U4,2*%
%TO.N,/A12*%
X90678000Y-45910500D03*
%TO.P,U4,15*%
%TO.N,/D3*%
X105918000Y-76390500D03*
D12*
%TO.P,U4,1*%
%TO.N,/A14*%
X90678000Y-43370500D03*
%TD*%
%TO.P,U5,1*%
%TO.N,PORT0_IRQ_PULLUP*%
X144856000Y-103314000D03*
D11*
%TO.P,U5,8*%
%TO.N,~NMI*%
X152476000Y-118554000D03*
%TO.P,U5,2*%
%TO.N,PORT1_IRQ_PULLUP*%
X144856000Y-105854000D03*
%TO.P,U5,9*%
%TO.N,PORT0_NMI_PULLUP*%
X152476000Y-116014000D03*
%TO.P,U5,3*%
%TO.N,N/C*%
X144856000Y-108394000D03*
%TO.P,U5,10*%
%TO.N,PORT1_NMI_PULLUP*%
X152476000Y-113474000D03*
%TO.P,U5,4*%
%TO.N,PORT2_IRQ_PULLUP*%
X144856000Y-110934000D03*
%TO.P,U5,11*%
%TO.N,N/C*%
X152476000Y-110934000D03*
%TO.P,U5,5*%
%TO.N,~UART_IRQ*%
X144856000Y-113474000D03*
%TO.P,U5,12*%
%TO.N,PORT2_NMI_PULLUP*%
X152476000Y-108394000D03*
%TO.P,U5,6*%
%TO.N,~IRQ*%
X144856000Y-116014000D03*
%TO.P,U5,13*%
%TO.N,+5V*%
X152476000Y-105854000D03*
%TO.P,U5,7*%
%TO.N,GND*%
X144856000Y-118554000D03*
%TO.P,U5,14*%
%TO.N,+5V*%
X152476000Y-103314000D03*
%TD*%
D24*
%TO.N,GND*%
X161728000Y-108660700D03*
X181512000Y-110717500D03*
X162523600Y-113854900D03*
%TO.N,+5V*%
X161391500Y-113866000D03*
X181735900Y-114429400D03*
X173730920Y-85440520D03*
X173751240Y-91607640D03*
%TO.N,/A0*%
X164995300Y-65802500D03*
%TO.N,/D0*%
X174970100Y-67672600D03*
%TO.N,/A2*%
X104190800Y-61910800D03*
X171923300Y-64169200D03*
%TO.N,/A3*%
X97137200Y-73352800D03*
%TO.N,/A4*%
X141549900Y-63974600D03*
%TO.N,/D5*%
X115976100Y-92477400D03*
X120867400Y-87955600D03*
%TO.N,/D6*%
X179732900Y-73329800D03*
%TO.N,/D7*%
X182209200Y-66230500D03*
%TO.N,/A13*%
X161002800Y-46598900D03*
%TO.N,/A15*%
X172001000Y-44192400D03*
X130750500Y-74821900D03*
%TO.N,~RAM2_CS*%
X119409400Y-77760900D03*
%TO.N,~RAM1_CS*%
X144788800Y-77508800D03*
%TO.N,BE_PULLUP*%
X182728100Y-64829200D03*
%TO.N,~UART_CS*%
X102865300Y-71638000D03*
%TO.N,UART_RES*%
X158459800Y-77196000D03*
%TD*%
D25*
%TO.N,~RES*%
X162611000Y-124975700D02*
X162611000Y-126555300D01*
X162611000Y-126555300D02*
X158549900Y-130616400D01*
X158549900Y-130616400D02*
X146859400Y-130616400D01*
X146859400Y-130616400D02*
X146139000Y-129896000D01*
X146139000Y-129896000D02*
X146139000Y-129112800D01*
X146139000Y-129112800D02*
X145337900Y-128311700D01*
X145337900Y-128311700D02*
X129623800Y-128311700D01*
X129623800Y-128311700D02*
X124609100Y-133326400D01*
X124609100Y-133326400D02*
X124609100Y-133560000D01*
X162611000Y-124028000D02*
X162611000Y-124975700D01*
X168454700Y-123126000D02*
X166605000Y-124975700D01*
X166605000Y-124975700D02*
X162611000Y-124975700D01*
X169532000Y-123126000D02*
X168454700Y-123126000D01*
X123481800Y-133560000D02*
X124609100Y-133560000D01*
X124606900Y-97637600D02*
X124606900Y-97452800D01*
X124606900Y-97452800D02*
X129232000Y-92827700D01*
X129232000Y-92827700D02*
X152889300Y-92827700D01*
X152889300Y-92827700D02*
X153529500Y-92187500D01*
X153529500Y-92187500D02*
X153529500Y-88683600D01*
X153529500Y-88683600D02*
X152562600Y-87716700D01*
X152562600Y-87716700D02*
X152451000Y-87716700D01*
X152451000Y-86639400D02*
X152451000Y-87716700D01*
X123479600Y-97637600D02*
X124606900Y-97637600D01*
X184236000Y-132182000D02*
X177736000Y-132182000D01*
%TO.N,/A0*%
X137160000Y-66230500D02*
X136082700Y-66230500D01*
X113919000Y-66230500D02*
X114996300Y-66230500D01*
X114996300Y-66230500D02*
X116080100Y-65146700D01*
X116080100Y-65146700D02*
X134998900Y-65146700D01*
X134998900Y-65146700D02*
X136082700Y-66230500D01*
X113380400Y-66230500D02*
X113919000Y-66230500D01*
X137160000Y-66230500D02*
X138237300Y-66230500D01*
X138237300Y-66230500D02*
X139343500Y-65124300D01*
X139343500Y-65124300D02*
X164317100Y-65124300D01*
X164317100Y-65124300D02*
X164995300Y-65802500D01*
X90678000Y-67307800D02*
X90566400Y-67307800D01*
X90566400Y-67307800D02*
X88599700Y-69274500D01*
X88599700Y-69274500D02*
X88599700Y-91069400D01*
X88599700Y-91069400D02*
X94040600Y-96510300D01*
X94040600Y-96510300D02*
X98646900Y-96510300D01*
X98646900Y-96510300D02*
X99492300Y-97355700D01*
X99492300Y-97355700D02*
X99492300Y-97637600D01*
X100619600Y-115603000D02*
X100619600Y-114475700D01*
X99492300Y-97637600D02*
X99492300Y-113348400D01*
X99492300Y-113348400D02*
X100619600Y-114475700D01*
X90678000Y-66230500D02*
X90678000Y-67307800D01*
X100619600Y-97637600D02*
X99492300Y-97637600D01*
X113380400Y-66230500D02*
X112841700Y-66230500D01*
X90678000Y-66230500D02*
X91755300Y-66230500D01*
X91755300Y-66230500D02*
X92839100Y-65146700D01*
X92839100Y-65146700D02*
X111757900Y-65146700D01*
X111757900Y-65146700D02*
X112841700Y-66230500D01*
%TO.N,/D0*%
X100621800Y-136100000D02*
X100621800Y-134972700D01*
X100619600Y-118143000D02*
X100619600Y-119270300D01*
X100619600Y-119270300D02*
X99490800Y-120399100D01*
X99490800Y-120399100D02*
X99490800Y-134075300D01*
X99490800Y-134075300D02*
X100388200Y-134972700D01*
X100388200Y-134972700D02*
X100621800Y-134972700D01*
X114996300Y-68770500D02*
X116094200Y-67672600D01*
X116094200Y-67672600D02*
X134984800Y-67672600D01*
X134984800Y-67672600D02*
X136082700Y-68770500D01*
X113919000Y-68770500D02*
X112841700Y-68770500D01*
X90678000Y-68770500D02*
X91755300Y-68770500D01*
X91755300Y-68770500D02*
X92863500Y-67662300D01*
X92863500Y-67662300D02*
X111733500Y-67662300D01*
X111733500Y-67662300D02*
X112841700Y-68770500D01*
X174970100Y-67672600D02*
X175860900Y-67672600D01*
X175860900Y-67672600D02*
X181356000Y-73167700D01*
X181356000Y-73167700D02*
X181356000Y-74599800D01*
X138237300Y-68770500D02*
X139335200Y-67672600D01*
X139335200Y-67672600D02*
X174970100Y-67672600D01*
X137160000Y-68770500D02*
X136082700Y-68770500D01*
X113919000Y-68770500D02*
X114996300Y-68770500D01*
X137160000Y-68770500D02*
X138237300Y-68770500D01*
%TO.N,/A1*%
X113919000Y-63690500D02*
X112841700Y-63690500D01*
X90678000Y-63690500D02*
X91755300Y-63690500D01*
X91755300Y-63690500D02*
X92843900Y-64779100D01*
X92843900Y-64779100D02*
X111753100Y-64779100D01*
X111753100Y-64779100D02*
X112841700Y-63690500D01*
X137160000Y-63690500D02*
X136082700Y-63690500D01*
X113919000Y-63690500D02*
X114996300Y-63690500D01*
X114996300Y-63690500D02*
X116073700Y-62613100D01*
X116073700Y-62613100D02*
X135005300Y-62613100D01*
X135005300Y-62613100D02*
X136082700Y-63690500D01*
X171044000Y-62890400D02*
X170004300Y-63930100D01*
X170004300Y-63930100D02*
X165592200Y-63930100D01*
X165592200Y-63930100D02*
X164270500Y-62608400D01*
X164270500Y-62608400D02*
X139319400Y-62608400D01*
X139319400Y-62608400D02*
X138237300Y-63690500D01*
X137160000Y-63690500D02*
X138237300Y-63690500D01*
%TO.N,/D1*%
X90678000Y-71849100D02*
X101935000Y-71849100D01*
X101935000Y-71849100D02*
X102423600Y-72337700D01*
X102423600Y-72337700D02*
X103191900Y-72337700D01*
X103191900Y-72337700D02*
X105327200Y-70202400D01*
X105327200Y-70202400D02*
X107884800Y-70202400D01*
X107884800Y-70202400D02*
X108992900Y-71310500D01*
X108992900Y-71310500D02*
X113919000Y-71310500D01*
X90678000Y-71849100D02*
X90678000Y-72387800D01*
X90678000Y-71310500D02*
X90678000Y-71849100D01*
X90678000Y-72387800D02*
X90543300Y-72387800D01*
X90543300Y-72387800D02*
X88954100Y-73977000D01*
X88954100Y-73977000D02*
X88954100Y-90922600D01*
X88954100Y-90922600D02*
X94140600Y-96109100D01*
X94140600Y-96109100D02*
X100738400Y-96109100D01*
X100738400Y-96109100D02*
X101889600Y-97260300D01*
X101889600Y-97260300D02*
X101889600Y-98013900D01*
X101889600Y-98013900D02*
X102926000Y-99050300D01*
X102926000Y-99050300D02*
X103159600Y-99050300D01*
X103159600Y-100177600D02*
X103159600Y-99050300D01*
X114996300Y-71310500D02*
X127256000Y-71310500D01*
X127256000Y-71310500D02*
X128344700Y-70221800D01*
X128344700Y-70221800D02*
X130174600Y-70221800D01*
X130174600Y-70221800D02*
X131263300Y-71310500D01*
X131263300Y-71310500D02*
X136082700Y-71310500D01*
X171044000Y-45110400D02*
X171044000Y-44173900D01*
X171044000Y-44173900D02*
X171756900Y-43461000D01*
X171756900Y-43461000D02*
X178917700Y-43461000D01*
X178917700Y-43461000D02*
X183792000Y-48335300D01*
X183792000Y-48335300D02*
X183792000Y-84863800D01*
X183792000Y-84863800D02*
X181356000Y-87299800D01*
X103159600Y-100177600D02*
X103159600Y-101304900D01*
X137160000Y-71310500D02*
X136082700Y-71310500D01*
X113919000Y-71310500D02*
X114996300Y-71310500D01*
X103159600Y-118143000D02*
X103159600Y-117015700D01*
X103159600Y-101304900D02*
X102028800Y-102435700D01*
X102028800Y-102435700D02*
X102028800Y-116118500D01*
X102028800Y-116118500D02*
X102926000Y-117015700D01*
X102926000Y-117015700D02*
X103159600Y-117015700D01*
X103161800Y-136100000D02*
X103161800Y-134972700D01*
X103159600Y-118143000D02*
X103159600Y-119270300D01*
X103159600Y-119270300D02*
X102030800Y-120399100D01*
X102030800Y-120399100D02*
X102030800Y-134075300D01*
X102030800Y-134075300D02*
X102928200Y-134972700D01*
X102928200Y-134972700D02*
X103161800Y-134972700D01*
%TO.N,/A2*%
X91755300Y-61150500D02*
X92515600Y-61910800D01*
X92515600Y-61910800D02*
X104190800Y-61910800D01*
X112841700Y-61150500D02*
X111733500Y-62258700D01*
X111733500Y-62258700D02*
X104538700Y-62258700D01*
X104538700Y-62258700D02*
X104190800Y-61910800D01*
X113919000Y-61150500D02*
X112841700Y-61150500D01*
X90678000Y-61150500D02*
X91755300Y-61150500D01*
X172841900Y-63250600D02*
X173202100Y-62890400D01*
X173202100Y-62890400D02*
X173584000Y-62890400D01*
X171923300Y-64169200D02*
X172841900Y-63250600D01*
X138237300Y-61150500D02*
X139340800Y-62254000D01*
X139340800Y-62254000D02*
X153125200Y-62254000D01*
X153125200Y-62254000D02*
X153478300Y-61900900D01*
X153478300Y-61900900D02*
X171492200Y-61900900D01*
X171492200Y-61900900D02*
X172841900Y-63250600D01*
X137160000Y-61150500D02*
X136082700Y-61150500D01*
X113919000Y-61150500D02*
X114996300Y-61150500D01*
X114996300Y-61150500D02*
X116099800Y-62254000D01*
X116099800Y-62254000D02*
X134979200Y-62254000D01*
X134979200Y-62254000D02*
X136082700Y-61150500D01*
X137160000Y-61150500D02*
X138237300Y-61150500D01*
%TO.N,/D2*%
X91755300Y-73850500D02*
X92968700Y-72637100D01*
X92968700Y-72637100D02*
X99271600Y-72637100D01*
X99271600Y-72637100D02*
X99376900Y-72742400D01*
X99376900Y-72742400D02*
X111733600Y-72742400D01*
X111733600Y-72742400D02*
X112841700Y-73850500D01*
X105699600Y-100177600D02*
X105699600Y-99050300D01*
X91216700Y-73850500D02*
X89309300Y-75757900D01*
X89309300Y-75757900D02*
X89309300Y-90752200D01*
X89309300Y-90752200D02*
X90146200Y-91589100D01*
X90146200Y-91589100D02*
X98720300Y-91589100D01*
X98720300Y-91589100D02*
X104395000Y-97263800D01*
X104395000Y-97263800D02*
X104395000Y-97979300D01*
X104395000Y-97979300D02*
X105466000Y-99050300D01*
X105466000Y-99050300D02*
X105699600Y-99050300D01*
X91216700Y-73850500D02*
X91755300Y-73850500D01*
X90678000Y-73850500D02*
X91216700Y-73850500D01*
X113919000Y-73850500D02*
X112841700Y-73850500D01*
X137160000Y-73850500D02*
X136082700Y-73850500D01*
X113919000Y-73850500D02*
X114996300Y-73850500D01*
X114996300Y-73850500D02*
X116085000Y-72761800D01*
X116085000Y-72761800D02*
X134994000Y-72761800D01*
X134994000Y-72761800D02*
X136082700Y-73850500D01*
X137160000Y-73850500D02*
X138237300Y-73850500D01*
X138237300Y-73850500D02*
X139323500Y-72764300D01*
X139323500Y-72764300D02*
X158853100Y-72764300D01*
X158853100Y-72764300D02*
X159700000Y-73611200D01*
X159700000Y-73611200D02*
X169088700Y-73611200D01*
X169088700Y-73611200D02*
X169926100Y-74448600D01*
X169926100Y-74448600D02*
X169926100Y-74762200D01*
X169926100Y-74762200D02*
X172303700Y-77139800D01*
X172303700Y-77139800D02*
X178816000Y-77139800D01*
X105699600Y-118143000D02*
X105699600Y-117015700D01*
X105699600Y-100177600D02*
X105699600Y-101304900D01*
X105699600Y-101304900D02*
X104568800Y-102435700D01*
X104568800Y-102435700D02*
X104568800Y-116118500D01*
X104568800Y-116118500D02*
X105466000Y-117015700D01*
X105466000Y-117015700D02*
X105699600Y-117015700D01*
%TO.N,/A3*%
X108239600Y-97637600D02*
X108239600Y-93930300D01*
X108239600Y-93930300D02*
X104622300Y-90313000D01*
X104622300Y-90313000D02*
X104622300Y-89673600D01*
X104622300Y-89673600D02*
X104025800Y-89077100D01*
X104025800Y-89077100D02*
X97948000Y-89077100D01*
X97948000Y-89077100D02*
X97155000Y-89870100D01*
X97155000Y-89870100D02*
X97155000Y-90484900D01*
X97155000Y-90484900D02*
X96405200Y-91234700D01*
X96405200Y-91234700D02*
X90293100Y-91234700D01*
X90293100Y-91234700D02*
X89682100Y-90623700D01*
X89682100Y-90623700D02*
X89682100Y-80807900D01*
X89682100Y-80807900D02*
X97137200Y-73352800D01*
X173584000Y-60350400D02*
X172569900Y-59336300D01*
X172569900Y-59336300D02*
X160536000Y-59336300D01*
X160536000Y-59336300D02*
X160164100Y-59708200D01*
X160164100Y-59708200D02*
X139335000Y-59708200D01*
X139335000Y-59708200D02*
X138237300Y-58610500D01*
X113919000Y-58610500D02*
X112841700Y-58610500D01*
X90678000Y-58610500D02*
X91755300Y-58610500D01*
X91755300Y-58610500D02*
X92832700Y-59687900D01*
X92832700Y-59687900D02*
X111764300Y-59687900D01*
X111764300Y-59687900D02*
X112841700Y-58610500D01*
X136082700Y-58610500D02*
X135000400Y-59692800D01*
X135000400Y-59692800D02*
X116078600Y-59692800D01*
X116078600Y-59692800D02*
X114996300Y-58610500D01*
X137160000Y-58610500D02*
X138237300Y-58610500D01*
X137160000Y-58610500D02*
X136082700Y-58610500D01*
X113919000Y-58610500D02*
X114996300Y-58610500D01*
%TO.N,/D3*%
X128081700Y-76390500D02*
X119822000Y-76390500D01*
X119822000Y-76390500D02*
X118744600Y-77467900D01*
X118744600Y-77467900D02*
X108072700Y-77467900D01*
X108072700Y-77467900D02*
X106995300Y-76390500D01*
X153477300Y-76390500D02*
X160649500Y-83562700D01*
X160649500Y-83562700D02*
X175078900Y-83562700D01*
X175078900Y-83562700D02*
X178816000Y-87299800D01*
X151322700Y-76390500D02*
X144872200Y-76390500D01*
X144872200Y-76390500D02*
X143738800Y-77523900D01*
X143738800Y-77523900D02*
X131369700Y-77523900D01*
X131369700Y-77523900D02*
X130236300Y-76390500D01*
X129159000Y-76390500D02*
X128081700Y-76390500D01*
X105918000Y-76390500D02*
X106995300Y-76390500D01*
X152400000Y-76390500D02*
X153477300Y-76390500D01*
X129159000Y-76390500D02*
X130236300Y-76390500D01*
X152400000Y-76390500D02*
X151322700Y-76390500D01*
%TO.N,/A4*%
X113919000Y-56070500D02*
X112841700Y-56070500D01*
X90678000Y-56070500D02*
X91755300Y-56070500D01*
X91755300Y-56070500D02*
X92832700Y-57147900D01*
X92832700Y-57147900D02*
X111764300Y-57147900D01*
X111764300Y-57147900D02*
X112841700Y-56070500D01*
X136082700Y-56070500D02*
X134974500Y-57178700D01*
X134974500Y-57178700D02*
X116104500Y-57178700D01*
X116104500Y-57178700D02*
X114996300Y-56070500D01*
X141549900Y-63974600D02*
X142345100Y-64769800D01*
X142345100Y-64769800D02*
X171566100Y-64769800D01*
X171566100Y-64769800D02*
X171642800Y-64846500D01*
X171642800Y-64846500D02*
X174167900Y-64846500D01*
X174167900Y-64846500D02*
X176124000Y-62890400D01*
X113919000Y-56070500D02*
X114996300Y-56070500D01*
X137160000Y-56070500D02*
X136082700Y-56070500D01*
%TO.N,/D4*%
X151322700Y-73850500D02*
X150214300Y-74958900D01*
X150214300Y-74958900D02*
X131845400Y-74958900D01*
X131845400Y-74958900D02*
X130737000Y-73850500D01*
X130737000Y-73850500D02*
X130236300Y-73850500D01*
X110779600Y-118143000D02*
X110779600Y-117015700D01*
X110779600Y-100177600D02*
X110779600Y-101304900D01*
X110779600Y-101304900D02*
X109648800Y-102435700D01*
X109648800Y-102435700D02*
X109648800Y-116118500D01*
X109648800Y-116118500D02*
X110546000Y-117015700D01*
X110546000Y-117015700D02*
X110779600Y-117015700D01*
X129159000Y-73850500D02*
X128081700Y-73850500D01*
X105918000Y-73850500D02*
X106995300Y-73850500D01*
X106995300Y-73850500D02*
X108079000Y-74934200D01*
X108079000Y-74934200D02*
X126998000Y-74934200D01*
X126998000Y-74934200D02*
X128081700Y-73850500D01*
X153477300Y-73850500D02*
X153477300Y-74692900D01*
X153477300Y-74692900D02*
X156927700Y-78143300D01*
X156927700Y-78143300D02*
X180352500Y-78143300D01*
X180352500Y-78143300D02*
X181356000Y-77139800D01*
X152400000Y-73850500D02*
X151322700Y-73850500D01*
X129159000Y-73850500D02*
X130236300Y-73850500D01*
X152400000Y-73850500D02*
X153477300Y-73850500D01*
%TO.N,/A5*%
X137160000Y-53530500D02*
X147525800Y-53530500D01*
X147525800Y-53530500D02*
X151422000Y-57426700D01*
X151422000Y-57426700D02*
X159377400Y-57426700D01*
X159377400Y-57426700D02*
X160759700Y-58809000D01*
X160759700Y-58809000D02*
X174582600Y-58809000D01*
X174582600Y-58809000D02*
X176124000Y-60350400D01*
X113919000Y-53530500D02*
X112841700Y-53530500D01*
X90678000Y-53530500D02*
X91755300Y-53530500D01*
X91755300Y-53530500D02*
X92850600Y-54625800D01*
X92850600Y-54625800D02*
X111746400Y-54625800D01*
X111746400Y-54625800D02*
X112841700Y-53530500D01*
%TO.N,/D5*%
X120867400Y-87955600D02*
X119398800Y-87955600D01*
X119398800Y-87955600D02*
X117667600Y-89686800D01*
X117667600Y-89686800D02*
X117667600Y-90785900D01*
X117667600Y-90785900D02*
X115976100Y-92477400D01*
X128081700Y-71310500D02*
X127004300Y-72387900D01*
X127004300Y-72387900D02*
X108072700Y-72387900D01*
X108072700Y-72387900D02*
X106995300Y-71310500D01*
X129159000Y-71310500D02*
X128081700Y-71310500D01*
X105918000Y-71310500D02*
X106995300Y-71310500D01*
X152400000Y-71310500D02*
X162070300Y-71310500D01*
X162070300Y-71310500D02*
X163808200Y-73048400D01*
X163808200Y-73048400D02*
X171065700Y-73048400D01*
X171065700Y-73048400D02*
X172747500Y-74730200D01*
X172747500Y-74730200D02*
X172747500Y-75015200D01*
X172747500Y-75015200D02*
X173602100Y-75869800D01*
X173602100Y-75869800D02*
X181495700Y-75869800D01*
X130236300Y-71310500D02*
X131313700Y-72387900D01*
X131313700Y-72387900D02*
X150245300Y-72387900D01*
X150245300Y-72387900D02*
X151322700Y-71310500D01*
X176124000Y-45110400D02*
X177112500Y-46098900D01*
X177112500Y-46098900D02*
X181054300Y-46098900D01*
X181054300Y-46098900D02*
X183405600Y-48450200D01*
X183405600Y-48450200D02*
X183405600Y-73959900D01*
X183405600Y-73959900D02*
X181495700Y-75869800D01*
X181495700Y-75869800D02*
X182357500Y-76731600D01*
X182357500Y-76731600D02*
X182357500Y-83758300D01*
X182357500Y-83758300D02*
X181356000Y-84759800D01*
X152400000Y-71310500D02*
X151322700Y-71310500D01*
X129159000Y-71310500D02*
X130236300Y-71310500D01*
%TO.N,~PORT0_CS*%
X108585000Y-90157300D02*
X109662300Y-90157300D01*
X115859600Y-97637600D02*
X115859600Y-96510300D01*
X109662300Y-90157300D02*
X109662300Y-90773800D01*
X109662300Y-90773800D02*
X115398800Y-96510300D01*
X115398800Y-96510300D02*
X115859600Y-96510300D01*
%TO.N,/D6*%
X128081700Y-68770500D02*
X127004300Y-69847900D01*
X127004300Y-69847900D02*
X108783100Y-69847900D01*
X108783100Y-69847900D02*
X107705700Y-68770500D01*
X107705700Y-68770500D02*
X106995300Y-68770500D01*
X152400000Y-68770500D02*
X151322700Y-68770500D01*
X129159000Y-68770500D02*
X130236300Y-68770500D01*
X130236300Y-68770500D02*
X131329000Y-69863200D01*
X131329000Y-69863200D02*
X150230000Y-69863200D01*
X150230000Y-69863200D02*
X151322700Y-68770500D01*
X128620400Y-68770500D02*
X129159000Y-68770500D01*
X128620400Y-68770500D02*
X128081700Y-68770500D01*
X152400000Y-68770500D02*
X169319000Y-68770500D01*
X169319000Y-68770500D02*
X172466100Y-71917600D01*
X172466100Y-71917600D02*
X172466100Y-72200400D01*
X172466100Y-72200400D02*
X173595400Y-73329700D01*
X173595400Y-73329700D02*
X179732900Y-73329700D01*
X179732900Y-73329700D02*
X179732900Y-73329800D01*
X105918000Y-68770500D02*
X106995300Y-68770500D01*
%TO.N,R~W*%
X118399600Y-97637600D02*
X117272300Y-97637600D01*
X90805000Y-90157300D02*
X91882300Y-90157300D01*
X91882300Y-90157300D02*
X91882300Y-90022600D01*
X91882300Y-90022600D02*
X93564700Y-88340200D01*
X93564700Y-88340200D02*
X108381900Y-88340200D01*
X108381900Y-88340200D02*
X110016700Y-89975000D01*
X110016700Y-89975000D02*
X110016700Y-90627000D01*
X110016700Y-90627000D02*
X115114900Y-95725200D01*
X115114900Y-95725200D02*
X115593500Y-95725200D01*
X115593500Y-95725200D02*
X117272300Y-97404000D01*
X117272300Y-97404000D02*
X117272300Y-97637600D01*
X143753700Y-91719400D02*
X129082200Y-91719400D01*
X129082200Y-91719400D02*
X124291300Y-96510300D01*
X124291300Y-96510300D02*
X120372300Y-96510300D01*
X120372300Y-96510300D02*
X119526900Y-97355700D01*
X119526900Y-97355700D02*
X119526900Y-97637600D01*
X118399600Y-97637600D02*
X119526900Y-97637600D01*
X144831000Y-91719400D02*
X143753700Y-91719400D01*
X151373700Y-91719400D02*
X145908300Y-91719400D01*
X144831000Y-91719400D02*
X145908300Y-91719400D01*
X152451000Y-91719400D02*
X151373700Y-91719400D01*
%TO.N,/D7*%
X153477300Y-66230500D02*
X153726600Y-66479800D01*
X153726600Y-66479800D02*
X181959900Y-66479800D01*
X181959900Y-66479800D02*
X182209200Y-66230500D01*
X152400000Y-66230500D02*
X153477300Y-66230500D01*
X129159000Y-66230500D02*
X128081700Y-66230500D01*
X105918000Y-66230500D02*
X106995300Y-66230500D01*
X106995300Y-66230500D02*
X108072700Y-67307900D01*
X108072700Y-67307900D02*
X127004300Y-67307900D01*
X127004300Y-67307900D02*
X128081700Y-66230500D01*
X152400000Y-66230500D02*
X151322700Y-66230500D01*
X129159000Y-66230500D02*
X130236300Y-66230500D01*
X130236300Y-66230500D02*
X131324000Y-67318200D01*
X131324000Y-67318200D02*
X150235000Y-67318200D01*
X150235000Y-67318200D02*
X151322700Y-66230500D01*
X118399600Y-118143000D02*
X118399600Y-117015700D01*
X118399600Y-100177600D02*
X118399600Y-101304900D01*
X118399600Y-101304900D02*
X117268800Y-102435700D01*
X117268800Y-102435700D02*
X117268800Y-116118500D01*
X117268800Y-116118500D02*
X118166000Y-117015700D01*
X118166000Y-117015700D02*
X118399600Y-117015700D01*
%TO.N,CLK*%
X120941800Y-133560000D02*
X120941800Y-132432700D01*
X120939600Y-115603000D02*
X119793600Y-116749000D01*
X119793600Y-116749000D02*
X119793600Y-131284500D01*
X119793600Y-131284500D02*
X120941800Y-132432700D01*
X144831000Y-89179400D02*
X144831000Y-88102100D01*
X144831000Y-84099400D02*
X144831000Y-85176700D01*
X144831000Y-85176700D02*
X144696300Y-85176700D01*
X144696300Y-85176700D02*
X143734000Y-86139000D01*
X143734000Y-86139000D02*
X143734000Y-87116700D01*
X143734000Y-87116700D02*
X144719400Y-88102100D01*
X144719400Y-88102100D02*
X144831000Y-88102100D01*
X119822300Y-82537300D02*
X119898500Y-82613500D01*
X119898500Y-82613500D02*
X128968700Y-82613500D01*
X128968700Y-82613500D02*
X129918800Y-81663400D01*
X129918800Y-81663400D02*
X137315200Y-81663400D01*
X137315200Y-81663400D02*
X138405000Y-82753200D01*
X118745000Y-82537300D02*
X119822300Y-82537300D01*
%TO.N,PORT0_IRQ_PULLUP*%
X144856000Y-103314000D02*
X144856000Y-104391300D01*
X144856000Y-104391300D02*
X144990800Y-104391300D01*
X144990800Y-104391300D02*
X145933300Y-105333800D01*
X145933300Y-105333800D02*
X145933300Y-116726000D01*
X145933300Y-116726000D02*
X157569000Y-128361700D01*
X122066900Y-100177600D02*
X122066900Y-100411200D01*
X122066900Y-100411200D02*
X124969700Y-103314000D01*
X124969700Y-103314000D02*
X144856000Y-103314000D01*
X157569000Y-129489000D02*
X157569000Y-128361700D01*
X120939600Y-100177600D02*
X122066900Y-100177600D01*
%TO.N,PORT0_NMI_PULLUP*%
X123479600Y-100177600D02*
X124606900Y-100177600D01*
X152476000Y-116014000D02*
X152476000Y-114936700D01*
X152476000Y-114936700D02*
X152341200Y-114936700D01*
X152341200Y-114936700D02*
X151398700Y-113994200D01*
X151398700Y-113994200D02*
X151398700Y-107846500D01*
X151398700Y-107846500D02*
X145406200Y-101854000D01*
X145406200Y-101854000D02*
X126049700Y-101854000D01*
X126049700Y-101854000D02*
X124606900Y-100411200D01*
X124606900Y-100411200D02*
X124606900Y-100177600D01*
%TO.N,FUTURE1*%
X128559600Y-97637600D02*
X127432300Y-97637600D01*
X93345000Y-90157300D02*
X94422300Y-90157300D01*
X94422300Y-90157300D02*
X94422300Y-90022600D01*
X94422300Y-90022600D02*
X95722200Y-88722700D01*
X95722200Y-88722700D02*
X106188800Y-88722700D01*
X106188800Y-88722700D02*
X107189700Y-89723600D01*
X107189700Y-89723600D02*
X107189700Y-90297800D01*
X107189700Y-90297800D02*
X113349800Y-96457900D01*
X113349800Y-96457900D02*
X113761200Y-96457900D01*
X113761200Y-96457900D02*
X114732200Y-97428900D01*
X114732200Y-97428900D02*
X114732200Y-98168300D01*
X114732200Y-98168300D02*
X115365600Y-98801700D01*
X115365600Y-98801700D02*
X126501800Y-98801700D01*
X126501800Y-98801700D02*
X127432300Y-97871200D01*
X127432300Y-97871200D02*
X127432300Y-97637600D01*
%TO.N,~PORT2_CS*%
X103505000Y-91234600D02*
X106827000Y-94556600D01*
X106827000Y-94556600D02*
X106827000Y-123397900D01*
X106827000Y-123397900D02*
X115861800Y-132432700D01*
X115861800Y-133560000D02*
X115861800Y-132432700D01*
X103505000Y-90157300D02*
X103505000Y-91234600D01*
%TO.N,PORT2_NMI_PULLUP*%
X123481800Y-136100000D02*
X124609100Y-136100000D01*
X144869000Y-129489000D02*
X143741700Y-129489000D01*
X143741700Y-129489000D02*
X143741700Y-130193600D01*
X143741700Y-130193600D02*
X139105300Y-134830000D01*
X139105300Y-134830000D02*
X125645500Y-134830000D01*
X125645500Y-134830000D02*
X124609100Y-135866400D01*
X124609100Y-135866400D02*
X124609100Y-136100000D01*
%TO.N,PORT1_NMI_PULLUP*%
X124606900Y-118143000D02*
X124606900Y-118376600D01*
X124606900Y-118376600D02*
X125794200Y-119563900D01*
X125794200Y-119563900D02*
X139178400Y-119563900D01*
X139178400Y-119563900D02*
X148821700Y-129207200D01*
X148821700Y-129207200D02*
X148821700Y-129489000D01*
X123479600Y-118143000D02*
X124606900Y-118143000D01*
X149949000Y-129489000D02*
X148821700Y-129489000D01*
%TO.N,PORT1_IRQ_PULLUP*%
X144856000Y-105854000D02*
X144856000Y-106931300D01*
X137679100Y-116784400D02*
X138919900Y-116784400D01*
X138919900Y-116784400D02*
X151361700Y-129226200D01*
X151361700Y-129226200D02*
X151361700Y-129489000D01*
X120939600Y-117015700D02*
X137447800Y-117015700D01*
X137447800Y-117015700D02*
X137679100Y-116784400D01*
X144856000Y-106931300D02*
X144721300Y-106931300D01*
X144721300Y-106931300D02*
X137679100Y-113973500D01*
X137679100Y-113973500D02*
X137679100Y-116784400D01*
X152489000Y-129489000D02*
X151361700Y-129489000D01*
X120939600Y-118143000D02*
X120939600Y-117015700D01*
%TO.N,~PORT1_CS*%
X115859600Y-115603000D02*
X115859600Y-114475700D01*
X106045000Y-90157300D02*
X106045000Y-91234600D01*
X106045000Y-91234600D02*
X111941400Y-97131000D01*
X111941400Y-97131000D02*
X111941400Y-110557500D01*
X111941400Y-110557500D02*
X115859600Y-114475700D01*
%TO.N,/A12*%
X178664000Y-52730400D02*
X171418600Y-52730400D01*
X171418600Y-52730400D02*
X167762400Y-49074200D01*
X167762400Y-49074200D02*
X162096300Y-49074200D01*
X162096300Y-49074200D02*
X157839700Y-44817600D01*
X157839700Y-44817600D02*
X139330200Y-44817600D01*
X139330200Y-44817600D02*
X138237300Y-45910500D01*
X137160000Y-45910500D02*
X138237300Y-45910500D01*
X137160000Y-45910500D02*
X136082700Y-45910500D01*
X113919000Y-45910500D02*
X114996300Y-45910500D01*
X114996300Y-45910500D02*
X116125100Y-44781700D01*
X116125100Y-44781700D02*
X134953900Y-44781700D01*
X134953900Y-44781700D02*
X136082700Y-45910500D01*
%TO.N,/A13*%
X129159000Y-48450500D02*
X128081700Y-48450500D01*
X105918000Y-48450500D02*
X106995300Y-48450500D01*
X106995300Y-48450500D02*
X108097100Y-49552300D01*
X108097100Y-49552300D02*
X126979900Y-49552300D01*
X126979900Y-49552300D02*
X128081700Y-48450500D01*
X152400000Y-48450500D02*
X151322700Y-48450500D01*
X129159000Y-48450500D02*
X130236300Y-48450500D01*
X130236300Y-48450500D02*
X131329100Y-47357700D01*
X131329100Y-47357700D02*
X150229900Y-47357700D01*
X150229900Y-47357700D02*
X151322700Y-48450500D01*
X161002800Y-46598900D02*
X168873600Y-46598900D01*
X168873600Y-46598900D02*
X169774100Y-47499400D01*
X169774100Y-47499400D02*
X169774100Y-47784400D01*
X169774100Y-47784400D02*
X173206900Y-51217200D01*
X173206900Y-51217200D02*
X180177200Y-51217200D01*
X180177200Y-51217200D02*
X181204000Y-50190400D01*
%TO.N,/A14*%
X113919000Y-43370500D02*
X112841700Y-43370500D01*
X90678000Y-43370500D02*
X91755300Y-43370500D01*
X91755300Y-43370500D02*
X92832600Y-44447800D01*
X92832600Y-44447800D02*
X111764400Y-44447800D01*
X111764400Y-44447800D02*
X112841700Y-43370500D01*
X137160000Y-43370500D02*
X136082700Y-43370500D01*
X113919000Y-43370500D02*
X114996300Y-43370500D01*
X114996300Y-43370500D02*
X116073600Y-42293200D01*
X116073600Y-42293200D02*
X135005400Y-42293200D01*
X135005400Y-42293200D02*
X136082700Y-43370500D01*
X137160000Y-43370500D02*
X138237300Y-43370500D01*
X138237300Y-43370500D02*
X139317200Y-42290600D01*
X139317200Y-42290600D02*
X167098600Y-42290600D01*
X167098600Y-42290600D02*
X170055500Y-45247500D01*
X170055500Y-45247500D02*
X170055500Y-45543100D01*
X170055500Y-45543100D02*
X171174200Y-46661800D01*
X171174200Y-46661800D02*
X171476700Y-46661800D01*
X171476700Y-46661800D02*
X172314100Y-47499200D01*
X172314100Y-47499200D02*
X172314100Y-47784300D01*
X172314100Y-47784300D02*
X174720200Y-50190400D01*
X174720200Y-50190400D02*
X178664000Y-50190400D01*
%TO.N,/A15*%
X172001000Y-44192400D02*
X172314000Y-44505400D01*
X172314000Y-44505400D02*
X172314000Y-45270500D01*
X172314000Y-45270500D02*
X173496800Y-46453300D01*
X173496800Y-46453300D02*
X180006900Y-46453300D01*
X180006900Y-46453300D02*
X181204000Y-47650400D01*
X93345000Y-82537300D02*
X94422300Y-82537300D01*
X94422300Y-82537300D02*
X94422300Y-82402600D01*
X94422300Y-82402600D02*
X101511800Y-75313100D01*
X101511800Y-75313100D02*
X130259300Y-75313100D01*
X130259300Y-75313100D02*
X130750500Y-74821900D01*
%TO.N,/A6*%
X137160000Y-50990500D02*
X147362800Y-50990500D01*
X147362800Y-50990500D02*
X151172800Y-54800500D01*
X151172800Y-54800500D02*
X152903400Y-54800500D01*
X152903400Y-54800500D02*
X154716300Y-56613400D01*
X154716300Y-56613400D02*
X173802300Y-56613400D01*
X173802300Y-56613400D02*
X177112600Y-59923700D01*
X177112600Y-59923700D02*
X177112600Y-61339000D01*
X177112600Y-61339000D02*
X178664000Y-62890400D01*
X113919000Y-50990500D02*
X112841700Y-50990500D01*
X90678000Y-50990500D02*
X91755300Y-50990500D01*
X91755300Y-50990500D02*
X92845600Y-52080800D01*
X92845600Y-52080800D02*
X111751400Y-52080800D01*
X111751400Y-52080800D02*
X112841700Y-50990500D01*
%TO.N,/A7*%
X181204000Y-60350400D02*
X182600600Y-58953800D01*
X182600600Y-58953800D02*
X182600600Y-55267300D01*
X182600600Y-55267300D02*
X181052300Y-53719000D01*
X181052300Y-53719000D02*
X171906100Y-53719000D01*
X171906100Y-53719000D02*
X169834000Y-51646900D01*
X169834000Y-51646900D02*
X163354900Y-51646900D01*
X163354900Y-51646900D02*
X161235800Y-49527800D01*
X161235800Y-49527800D02*
X139314600Y-49527800D01*
X139314600Y-49527800D02*
X138237300Y-48450500D01*
X137160000Y-48450500D02*
X138237300Y-48450500D01*
X113919000Y-48450500D02*
X112841700Y-48450500D01*
X90678000Y-48450500D02*
X91755300Y-48450500D01*
X91755300Y-48450500D02*
X92839100Y-47366700D01*
X92839100Y-47366700D02*
X111757900Y-47366700D01*
X111757900Y-47366700D02*
X112841700Y-48450500D01*
%TO.N,/A8*%
X151322700Y-50990500D02*
X150214400Y-49882200D01*
X150214400Y-49882200D02*
X138561400Y-49882200D01*
X138561400Y-49882200D02*
X138207100Y-49527900D01*
X138207100Y-49527900D02*
X131698900Y-49527900D01*
X131698900Y-49527900D02*
X130236300Y-50990500D01*
X129159000Y-50990500D02*
X128081700Y-50990500D01*
X105918000Y-50990500D02*
X106995300Y-50990500D01*
X106995300Y-50990500D02*
X108079100Y-49906700D01*
X108079100Y-49906700D02*
X126997900Y-49906700D01*
X126997900Y-49906700D02*
X128081700Y-50990500D01*
X152400000Y-50990500D02*
X153477300Y-50990500D01*
X153477300Y-50990500D02*
X156382900Y-53896100D01*
X156382900Y-53896100D02*
X171331600Y-53896100D01*
X171331600Y-53896100D02*
X171508900Y-54073400D01*
X171508900Y-54073400D02*
X178869900Y-54073400D01*
X178869900Y-54073400D02*
X179934000Y-55137500D01*
X179934000Y-55137500D02*
X179934000Y-55398400D01*
X179934000Y-55398400D02*
X181224400Y-56688800D01*
X181224400Y-56688800D02*
X181531900Y-56688800D01*
X181531900Y-56688800D02*
X182246300Y-57403200D01*
X182246300Y-57403200D02*
X182246300Y-58180000D01*
X182246300Y-58180000D02*
X181345900Y-59080400D01*
X181345900Y-59080400D02*
X179934000Y-59080400D01*
X179934000Y-59080400D02*
X178664000Y-60350400D01*
X152130700Y-50990500D02*
X152400000Y-50990500D01*
X152130700Y-50990500D02*
X151322700Y-50990500D01*
X129159000Y-50990500D02*
X130236300Y-50990500D01*
%TO.N,/A9*%
X129159000Y-53530500D02*
X130236300Y-53530500D01*
X130236300Y-53530500D02*
X133884600Y-49882200D01*
X133884600Y-49882200D02*
X137883000Y-49882200D01*
X137883000Y-49882200D02*
X138237400Y-50236600D01*
X138237400Y-50236600D02*
X148028800Y-50236600D01*
X148028800Y-50236600D02*
X151322700Y-53530500D01*
X128620400Y-53530500D02*
X129159000Y-53530500D01*
X152400000Y-53530500D02*
X151322700Y-53530500D01*
X152400000Y-53530500D02*
X153477300Y-53530500D01*
X153477300Y-53530500D02*
X156205800Y-56259000D01*
X156205800Y-56259000D02*
X179652600Y-56259000D01*
X179652600Y-56259000D02*
X181204000Y-57810400D01*
X128620400Y-53530500D02*
X128081700Y-53530500D01*
X105918000Y-53530500D02*
X106995300Y-53530500D01*
X106995300Y-53530500D02*
X108090600Y-52435200D01*
X108090600Y-52435200D02*
X126986400Y-52435200D01*
X126986400Y-52435200D02*
X128081700Y-53530500D01*
%TO.N,/A10*%
X152400000Y-61150500D02*
X151322700Y-61150500D01*
X128620400Y-61150500D02*
X129708300Y-60062600D01*
X129708300Y-60062600D02*
X150234800Y-60062600D01*
X150234800Y-60062600D02*
X151322700Y-61150500D01*
X128620400Y-61150500D02*
X128081700Y-61150500D01*
X129159000Y-61150500D02*
X128620400Y-61150500D01*
X105918000Y-61150500D02*
X106995300Y-61150500D01*
X106995300Y-61150500D02*
X108072700Y-60073100D01*
X108072700Y-60073100D02*
X127004300Y-60073100D01*
X127004300Y-60073100D02*
X128081700Y-61150500D01*
X152400000Y-61150500D02*
X153477300Y-61150500D01*
X178664000Y-57810400D02*
X177661400Y-58813000D01*
X177661400Y-58813000D02*
X177661400Y-60749800D01*
X177661400Y-60749800D02*
X178250600Y-61339000D01*
X178250600Y-61339000D02*
X178523200Y-61339000D01*
X178523200Y-61339000D02*
X179652800Y-62468600D01*
X179652800Y-62468600D02*
X179652800Y-63333400D01*
X179652800Y-63333400D02*
X179101700Y-63884500D01*
X179101700Y-63884500D02*
X178182200Y-63884500D01*
X178182200Y-63884500D02*
X177394100Y-63096400D01*
X177394100Y-63096400D02*
X177394100Y-62680600D01*
X177394100Y-62680600D02*
X176229500Y-61516000D01*
X176229500Y-61516000D02*
X153842800Y-61516000D01*
X153842800Y-61516000D02*
X153477300Y-61150500D01*
%TO.N,/A11*%
X129159000Y-56070500D02*
X128081700Y-56070500D01*
X105918000Y-56070500D02*
X106995300Y-56070500D01*
X106995300Y-56070500D02*
X108072700Y-54993100D01*
X108072700Y-54993100D02*
X127004300Y-54993100D01*
X127004300Y-54993100D02*
X128081700Y-56070500D01*
X152400000Y-56070500D02*
X151322700Y-56070500D01*
X130236300Y-56070500D02*
X133859300Y-52447500D01*
X133859300Y-52447500D02*
X147699700Y-52447500D01*
X147699700Y-52447500D02*
X151322700Y-56070500D01*
X129159000Y-56070500D02*
X130236300Y-56070500D01*
%TO.N,~RAM2_CS*%
X111125000Y-90157300D02*
X111125000Y-89080000D01*
X119409400Y-77760900D02*
X117600400Y-79569900D01*
X117600400Y-79569900D02*
X117600400Y-82716200D01*
X117600400Y-82716200D02*
X111236600Y-89080000D01*
X111236600Y-89080000D02*
X111125000Y-89080000D01*
%TO.N,~RAM1_CS*%
X113665000Y-90157300D02*
X114742300Y-90157300D01*
X144788800Y-77508800D02*
X144788800Y-77963300D01*
X144788800Y-77963300D02*
X136896900Y-85855200D01*
X136896900Y-85855200D02*
X118932800Y-85855200D01*
X118932800Y-85855200D02*
X114742300Y-90045700D01*
X114742300Y-90045700D02*
X114742300Y-90157300D01*
%TO.N,Net-(J1-Pad6)*%
X185513000Y-108742000D02*
X184460700Y-108742000D01*
X182813000Y-109742000D02*
X183565300Y-109742000D01*
X184460700Y-108742000D02*
X184460700Y-108846600D01*
X184460700Y-108846600D02*
X183565300Y-109742000D01*
X182813000Y-114742000D02*
X183565300Y-114742000D01*
X185513000Y-115742000D02*
X184460700Y-115742000D01*
X183565300Y-114742000D02*
X183565300Y-114846600D01*
X183565300Y-114846600D02*
X184460700Y-115742000D01*
%TO.N,Net-(D1-Pad2)*%
X162611000Y-130315000D02*
X163538300Y-130315000D01*
X170993000Y-135712000D02*
X168935300Y-135712000D01*
X168935300Y-135712000D02*
X163538300Y-130315000D01*
%TO.N,Net-(Q1-Pad2)*%
X163881000Y-129045000D02*
X167831000Y-129045000D01*
X167831000Y-129045000D02*
X169532000Y-130746000D01*
%TO.N,~READ*%
X144831000Y-94259400D02*
X145908300Y-94259400D01*
X168656000Y-87299800D02*
X167386000Y-88569800D01*
X167386000Y-88569800D02*
X162031700Y-88569800D01*
X162031700Y-88569800D02*
X157419400Y-93182100D01*
X157419400Y-93182100D02*
X146985600Y-93182100D01*
X146985600Y-93182100D02*
X145908300Y-94259400D01*
X144292400Y-94259400D02*
X144831000Y-94259400D01*
X129159000Y-58610500D02*
X128081700Y-58610500D01*
X105918000Y-58610500D02*
X106995300Y-58610500D01*
X106995300Y-58610500D02*
X108072700Y-57533100D01*
X108072700Y-57533100D02*
X127004300Y-57533100D01*
X127004300Y-57533100D02*
X128081700Y-58610500D01*
X144292400Y-94259400D02*
X143753700Y-94259400D01*
X126019600Y-100177600D02*
X127146900Y-100177600D01*
X143753700Y-94259400D02*
X139105500Y-98907600D01*
X139105500Y-98907600D02*
X128183300Y-98907600D01*
X128183300Y-98907600D02*
X127146900Y-99944000D01*
X127146900Y-99944000D02*
X127146900Y-100177600D01*
X152400000Y-58610500D02*
X151322700Y-58610500D01*
X129159000Y-58610500D02*
X130236300Y-58610500D01*
X130236300Y-58610500D02*
X131313700Y-57533100D01*
X131313700Y-57533100D02*
X150245300Y-57533100D01*
X150245300Y-57533100D02*
X151322700Y-58610500D01*
%TO.N,~WRITE*%
X144831000Y-86639400D02*
X145908300Y-86639400D01*
X145908300Y-86639400D02*
X146988500Y-85559200D01*
X146988500Y-85559200D02*
X153339200Y-85559200D01*
X153339200Y-85559200D02*
X153735600Y-85955600D01*
X153735600Y-85955600D02*
X168730000Y-85955600D01*
X168730000Y-85955600D02*
X169650800Y-86876400D01*
X169650800Y-86876400D02*
X169650800Y-88845000D01*
X169650800Y-88845000D02*
X168656000Y-89839800D01*
X152400000Y-45910500D02*
X151322700Y-45910500D01*
X129159000Y-45910500D02*
X130236300Y-45910500D01*
X130236300Y-45910500D02*
X131313700Y-46987900D01*
X131313700Y-46987900D02*
X150245300Y-46987900D01*
X150245300Y-46987900D02*
X151322700Y-45910500D01*
%TO.N,+3V3*%
X169789000Y-102941000D02*
X166903000Y-105827000D01*
X166903000Y-105827000D02*
X161844000Y-105827000D01*
%TO.N,Net-(D2-Pad2)*%
X177409000Y-102941000D02*
X178486300Y-102941000D01*
X183592000Y-102819000D02*
X182414600Y-101641600D01*
X182414600Y-101641600D02*
X179785700Y-101641600D01*
X179785700Y-101641600D02*
X178486300Y-102941000D01*
%TO.N,Net-(D3-Pad2)*%
X177399000Y-97038200D02*
X178476300Y-97038200D01*
X183566000Y-96977200D02*
X182374700Y-95785900D01*
X182374700Y-95785900D02*
X179728600Y-95785900D01*
X179728600Y-95785900D02*
X178476300Y-97038200D01*
%TO.N,~UART_IRQ*%
X157036000Y-97353100D02*
X165097100Y-97353100D01*
X165097100Y-97353100D02*
X172747500Y-89702700D01*
X172747500Y-89702700D02*
X172747500Y-89419400D01*
X172747500Y-89419400D02*
X173878500Y-88288400D01*
X173878500Y-88288400D02*
X179226700Y-88288400D01*
X179226700Y-88288400D02*
X180086000Y-87429100D01*
X180086000Y-87429100D02*
X180086000Y-80949800D01*
X180086000Y-80949800D02*
X181356000Y-79679800D01*
%TO.N,BE_PULLUP*%
X163424000Y-47650400D02*
X164493400Y-48719800D01*
X164493400Y-48719800D02*
X170208400Y-48719800D01*
X170208400Y-48719800D02*
X173230500Y-51741900D01*
X173230500Y-51741900D02*
X181649000Y-51741900D01*
X181649000Y-51741900D02*
X182970400Y-53063300D01*
X182970400Y-53063300D02*
X182970400Y-64586900D01*
X182970400Y-64586900D02*
X182728100Y-64829200D01*
%TO.N,~UART_CS*%
X166116000Y-72059800D02*
X164289200Y-70233000D01*
X164289200Y-70233000D02*
X130687000Y-70233000D01*
X130687000Y-70233000D02*
X130321500Y-69867500D01*
X130321500Y-69867500D02*
X128197900Y-69867500D01*
X128197900Y-69867500D02*
X127863000Y-70202400D01*
X127863000Y-70202400D02*
X108636500Y-70202400D01*
X108636500Y-70202400D02*
X108282000Y-69847900D01*
X108282000Y-69847900D02*
X104655400Y-69847900D01*
X104655400Y-69847900D02*
X102865300Y-71638000D01*
%TO.N,UART_RES*%
X168656000Y-74599800D02*
X167386000Y-75869800D01*
X167386000Y-75869800D02*
X159786000Y-75869800D01*
X159786000Y-75869800D02*
X158459800Y-77196000D01*
%TD*%
M02*
