M48
; DRILL file {KiCad (5.1.12-1-10_14)} date 2022 January 05, Wednesday 12:48:30
; FORMAT={-:-/ absolute / metric / decimal}
; #@! TF.CreationDate,2022-01-05T12:48:30+01:00
; #@! TF.GenerationSoftware,Kicad,Pcbnew,(5.1.12-1-10_14)
; #@! TF.FileFunction,Plated,1,4,PTH
FMAT,2
METRIC
T1C0.400
T2C0.500
T3C0.550
T4C0.750
T5C0.800
T6C0.900
T7C1.000
T8C1.100
%
G90
G05
T1
X104.575Y-62.254
X111.236Y-91.567
X121.183Y-87.197
X121.928Y-86.52
X122.635Y-88.042
X125.057Y-94.062
X131.441Y-85.373
X140.963Y-56.256
X143.819Y-62.494
X147.054Y-123.981
X149.009Y-92.955
X161.391Y-113.866
X161.728Y-108.661
X162.524Y-113.855
X164.414Y-65.805
X171.171Y-85.725
X171.221Y-91.465
X181.512Y-110.718
X181.736Y-114.429
T4
X162.611Y-124.028
X162.611Y-130.315
X163.881Y-122.758
X163.881Y-129.045
X165.151Y-124.028
X165.151Y-130.315
T5
X90.678Y-43.37
X90.678Y-45.91
X90.678Y-48.45
X90.678Y-50.99
X90.678Y-53.53
X90.678Y-56.07
X90.678Y-58.61
X90.678Y-61.15
X90.678Y-63.691
X90.678Y-66.23
X90.678Y-68.77
X90.678Y-71.31
X90.678Y-73.85
X90.678Y-76.391
X90.724Y-97.601
X90.724Y-100.101
X90.724Y-116.016
X90.724Y-118.516
X90.724Y-133.563
X90.724Y-136.063
X90.805Y-82.537
X90.805Y-90.157
X93.345Y-82.537
X93.345Y-90.157
X95.885Y-82.537
X95.885Y-90.157
X98.425Y-82.537
X98.425Y-90.157
X100.965Y-82.537
X100.965Y-90.157
X103.505Y-82.537
X103.505Y-90.157
X105.918Y-43.37
X105.918Y-45.91
X105.918Y-48.45
X105.918Y-50.99
X105.918Y-53.53
X105.918Y-56.07
X105.918Y-58.61
X105.918Y-61.15
X105.918Y-63.691
X105.918Y-66.23
X105.918Y-68.77
X105.918Y-71.31
X105.918Y-73.85
X105.918Y-76.391
X106.045Y-82.537
X106.045Y-90.157
X108.585Y-82.537
X108.585Y-90.157
X109.918Y-43.307
X109.918Y-45.807
X111.125Y-82.537
X111.125Y-90.157
X113.665Y-82.537
X113.665Y-90.157
X113.919Y-43.37
X113.919Y-45.91
X113.919Y-48.45
X113.919Y-50.99
X113.919Y-53.53
X113.919Y-56.07
X113.919Y-58.61
X113.919Y-61.15
X113.919Y-63.691
X113.919Y-66.23
X113.919Y-68.77
X113.919Y-71.31
X113.919Y-73.85
X113.919Y-76.391
X116.205Y-82.537
X116.205Y-90.157
X118.745Y-82.537
X118.745Y-90.157
X124.244Y-81.498
X124.244Y-83.998
X124.282Y-89.179
X124.282Y-91.679
X129.159Y-43.37
X129.159Y-45.91
X129.159Y-48.45
X129.159Y-50.99
X129.159Y-53.53
X129.159Y-56.07
X129.159Y-58.61
X129.159Y-61.15
X129.159Y-63.691
X129.159Y-66.23
X129.159Y-68.77
X129.159Y-71.31
X129.159Y-73.85
X129.159Y-76.391
X130.785Y-82.753
X130.785Y-90.373
X133.223Y-43.37
X133.223Y-45.87
X137.16Y-43.37
X137.16Y-45.91
X137.16Y-48.45
X137.16Y-50.99
X137.16Y-53.53
X137.16Y-56.07
X137.16Y-58.61
X137.16Y-61.15
X137.16Y-63.691
X137.16Y-66.23
X137.16Y-68.77
X137.16Y-71.31
X137.16Y-73.85
X137.16Y-76.391
X138.405Y-82.753
X138.405Y-90.373
X138.719Y-97.601
X138.719Y-100.101
X138.735Y-104.059
X138.735Y-111.679
X138.77Y-115.661
X138.77Y-118.161
X138.803Y-133.568
X138.803Y-136.068
X144.831Y-81.559
X144.831Y-84.099
X144.831Y-86.639
X144.831Y-89.179
X144.831Y-91.719
X144.831Y-94.259
X144.831Y-96.799
X144.856Y-103.314
X144.856Y-105.854
X144.856Y-108.394
X144.856Y-110.934
X144.856Y-113.474
X144.856Y-116.014
X144.856Y-118.554
X144.856Y-136.233
X147.396Y-136.233
X149.936Y-136.233
X152.4Y-43.37
X152.4Y-45.91
X152.4Y-48.45
X152.4Y-50.99
X152.4Y-53.53
X152.4Y-56.07
X152.4Y-58.61
X152.4Y-61.15
X152.4Y-63.691
X152.4Y-66.23
X152.4Y-68.77
X152.4Y-71.31
X152.4Y-73.85
X152.4Y-76.391
X152.451Y-81.559
X152.451Y-84.099
X152.451Y-86.639
X152.451Y-89.179
X152.451Y-91.719
X152.451Y-94.259
X152.451Y-96.799
X152.476Y-103.314
X152.476Y-105.854
X152.476Y-108.394
X152.476Y-110.934
X152.476Y-113.474
X152.476Y-116.014
X152.476Y-118.554
X152.476Y-136.233
X155.016Y-136.233
X156.947Y-43.459
X156.947Y-45.959
X156.972Y-52.542
X156.972Y-55.042
X157.036Y-74.157
X157.036Y-76.657
X157.036Y-81.549
X157.036Y-84.049
X157.048Y-103.289
X157.048Y-105.789
X157.556Y-136.233
X160.096Y-136.233
X161.844Y-103.327
X161.844Y-105.827
X162.636Y-136.233
X163.424Y-47.65
X163.424Y-50.19
X163.424Y-52.73
X163.424Y-55.27
X163.424Y-57.81
X163.424Y-60.35
X163.576Y-74.6
X163.576Y-77.14
X163.576Y-79.68
X163.576Y-82.22
X163.576Y-84.76
X163.576Y-87.3
X165.176Y-136.233
X165.964Y-45.11
X165.964Y-47.65
X165.964Y-50.19
X165.964Y-52.73
X165.964Y-55.27
X165.964Y-57.81
X165.964Y-60.35
X165.964Y-62.89
X166.116Y-72.06
X166.116Y-74.6
X166.116Y-77.14
X166.116Y-79.68
X166.116Y-82.22
X166.116Y-84.76
X166.116Y-87.3
X166.116Y-89.84
X166.992Y-110.503
X167.005Y-114.325
X168.504Y-45.11
X168.504Y-47.65
X168.504Y-60.35
X168.504Y-62.89
X168.656Y-72.06
X168.656Y-74.6
X168.656Y-87.3
X168.656Y-89.84
X169.532Y-123.126
X169.532Y-130.746
X169.779Y-97.038
X169.789Y-102.941
X171.044Y-45.11
X171.044Y-47.65
X171.044Y-60.35
X171.044Y-62.89
X171.196Y-72.06
X171.196Y-74.6
X171.196Y-87.3
X171.196Y-89.84
X173.584Y-45.11
X173.584Y-47.65
X173.584Y-60.35
X173.584Y-62.89
X173.736Y-72.06
X173.736Y-74.6
X173.736Y-87.3
X173.736Y-89.84
X173.888Y-123.076
X173.888Y-130.696
X174.612Y-110.503
X174.625Y-114.325
X176.124Y-45.11
X176.124Y-47.65
X176.124Y-60.35
X176.124Y-62.89
X176.276Y-72.06
X176.276Y-74.6
X176.276Y-87.3
X176.276Y-89.84
X177.399Y-97.038
X177.409Y-102.941
X178.562Y-108.003
X178.562Y-110.503
X178.587Y-114.325
X178.587Y-116.825
X178.664Y-45.11
X178.664Y-47.65
X178.664Y-50.19
X178.664Y-52.73
X178.664Y-55.27
X178.664Y-57.81
X178.664Y-60.35
X178.664Y-62.89
X178.816Y-72.06
X178.816Y-74.6
X178.816Y-77.14
X178.816Y-79.68
X178.816Y-82.22
X178.816Y-84.76
X178.816Y-87.3
X178.816Y-89.84
X181.204Y-47.65
X181.204Y-50.19
X181.204Y-52.73
X181.204Y-55.27
X181.204Y-57.81
X181.204Y-60.35
X181.356Y-74.6
X181.356Y-77.14
X181.356Y-79.68
X181.356Y-82.22
X181.356Y-84.76
X181.356Y-87.3
X181.381Y-122.25
X181.381Y-126.05
T6
X170.993Y-135.712
X173.533Y-135.712
X181.026Y-96.977
X181.052Y-102.819
X183.566Y-96.977
X183.592Y-102.819
T7
X95.54Y-97.638
X95.54Y-100.178
X95.54Y-115.603
X95.54Y-118.143
X95.542Y-133.56
X95.542Y-136.1
X98.08Y-97.638
X98.08Y-100.178
X98.08Y-115.603
X98.08Y-118.143
X98.082Y-133.56
X98.082Y-136.1
X100.62Y-97.638
X100.62Y-100.178
X100.62Y-115.603
X100.62Y-118.143
X100.622Y-133.56
X100.622Y-136.1
X103.16Y-97.638
X103.16Y-100.178
X103.16Y-115.603
X103.16Y-118.143
X103.162Y-133.56
X103.162Y-136.1
X105.7Y-97.638
X105.7Y-100.178
X105.7Y-115.603
X105.7Y-118.143
X105.702Y-133.56
X105.702Y-136.1
X108.24Y-97.638
X108.24Y-100.178
X108.24Y-115.603
X108.24Y-118.143
X108.242Y-133.56
X108.242Y-136.1
X110.78Y-97.638
X110.78Y-100.178
X110.78Y-115.603
X110.78Y-118.143
X110.782Y-133.56
X110.782Y-136.1
X113.32Y-97.638
X113.32Y-100.178
X113.32Y-115.603
X113.32Y-118.143
X113.322Y-133.56
X113.322Y-136.1
X115.86Y-97.638
X115.86Y-100.178
X115.86Y-115.603
X115.86Y-118.143
X115.862Y-133.56
X115.862Y-136.1
X118.4Y-97.638
X118.4Y-100.178
X118.4Y-115.603
X118.4Y-118.143
X118.402Y-133.56
X118.402Y-136.1
X120.94Y-97.638
X120.94Y-100.178
X120.94Y-115.603
X120.94Y-118.143
X120.942Y-133.56
X120.942Y-136.1
X123.48Y-97.638
X123.48Y-100.178
X123.48Y-115.603
X123.48Y-118.143
X123.482Y-133.56
X123.482Y-136.1
X126.02Y-97.638
X126.02Y-100.178
X126.02Y-115.603
X126.02Y-118.143
X126.022Y-133.56
X126.022Y-136.1
X128.56Y-97.638
X128.56Y-100.178
X128.56Y-115.603
X128.56Y-118.143
X128.562Y-133.56
X128.562Y-136.1
X131.1Y-97.638
X131.1Y-100.178
X131.1Y-115.603
X131.1Y-118.143
X131.102Y-133.56
X131.102Y-136.1
X133.64Y-97.638
X133.64Y-100.178
X133.64Y-115.603
X133.64Y-118.143
X133.642Y-133.56
X133.642Y-136.1
X144.869Y-129.489
X144.869Y-132.029
X147.409Y-129.489
X147.409Y-132.029
X149.949Y-129.489
X149.949Y-132.029
X152.489Y-129.489
X152.489Y-132.029
X155.029Y-129.489
X155.029Y-132.029
X157.569Y-129.489
X157.569Y-132.029
T8
X177.736Y-132.182
X177.736Y-136.682
X184.236Y-132.182
X184.236Y-136.682
T2
G00X185.188Y-108.742
M15
G01X185.838Y-108.742
M16
G05
G00X185.188Y-115.742
M15
G01X185.838Y-115.742
M16
G05
T3
G00X182.813Y-109.892
M15
G01X182.813Y-109.592
M16
G05
G00X182.813Y-114.892
M15
G01X182.813Y-114.592
M16
G05
T0
M30
