M48
; DRILL file {KiCad (5.1.9-0-10_14)} date Tuesday, March 09, 2021 at 09:41:12 AM
; FORMAT={-:-/ absolute / metric / decimal}
; #@! TF.CreationDate,2021-03-09T09:41:12+01:00
; #@! TF.GenerationSoftware,Kicad,Pcbnew,(5.1.9-0-10_14)
; #@! TF.FileFunction,Plated,1,2,PTH
FMAT,2
METRIC
T1C0.400
T2C0.750
T3C0.800
T4C0.900
T5C1.000
T6C1.100
%
G90
G05
T1
X96.3Y-95.58
X98.279Y-72.287
X102.961Y-84.648
X103.378Y-47.244
X108.131Y-53.991
X109.807Y-96.899
X110.77Y-89.202
X113.51Y-67.169
X117.085Y-59.13
X119.888Y-77.978
X120.516Y-70.485
X124.46Y-106.299
X125.984Y-77.978
X136.005Y-77.53
X137.404Y-138.592
X137.414Y-128.778
X138.484Y-100.33
X141.163Y-105.958
X147.066Y-78.74
X162.814Y-107.442
X169.672Y-76.962
X174.625Y-61.595
T2
X168.783Y-127.254
X170.053Y-125.984
X171.323Y-127.254
T3
X90.805Y-45.085
X90.805Y-47.625
X90.805Y-50.165
X90.805Y-52.705
X90.805Y-55.245
X90.805Y-57.785
X90.805Y-60.325
X90.805Y-62.865
X90.805Y-65.405
X90.805Y-67.945
X90.805Y-70.485
X90.805Y-73.025
X90.805Y-75.565
X90.805Y-78.105
X90.805Y-80.645
X90.805Y-83.185
X90.805Y-85.725
X90.805Y-88.265
X90.805Y-90.805
X90.805Y-93.345
X91.44Y-99.1
X91.44Y-101.6
X91.44Y-110.53
X91.44Y-113.03
X91.44Y-121.96
X91.44Y-124.46
X91.44Y-133.39
X91.44Y-135.89
X106.045Y-45.085
X106.045Y-47.625
X106.045Y-50.165
X106.045Y-52.705
X106.045Y-55.245
X106.045Y-57.785
X106.045Y-60.325
X106.045Y-62.865
X106.045Y-65.405
X106.045Y-67.945
X106.045Y-70.485
X106.045Y-73.025
X106.045Y-75.565
X106.045Y-78.105
X106.045Y-80.645
X106.045Y-83.185
X106.045Y-85.725
X106.045Y-88.265
X106.045Y-90.805
X106.045Y-93.345
X110.49Y-45.212
X110.49Y-47.712
X110.49Y-52.07
X110.49Y-59.69
X110.49Y-64.008
X110.49Y-71.628
X114.935Y-45.085
X114.935Y-47.625
X114.935Y-50.165
X114.935Y-52.705
X114.935Y-55.245
X114.935Y-57.785
X114.935Y-60.325
X114.935Y-62.865
X114.935Y-65.405
X114.935Y-67.945
X114.935Y-70.485
X114.935Y-73.025
X114.935Y-75.565
X114.935Y-78.105
X120.015Y-85.13
X120.015Y-87.63
X125.095Y-85.09
X125.095Y-92.71
X127.635Y-85.09
X127.635Y-92.71
X130.175Y-45.085
X130.175Y-47.625
X130.175Y-50.165
X130.175Y-52.705
X130.175Y-55.245
X130.175Y-57.785
X130.175Y-60.325
X130.175Y-62.865
X130.175Y-65.405
X130.175Y-67.945
X130.175Y-70.485
X130.175Y-73.025
X130.175Y-75.565
X130.175Y-78.105
X130.175Y-85.09
X130.175Y-92.71
X132.715Y-85.09
X132.715Y-92.71
X134.62Y-45.085
X134.62Y-47.585
X135.255Y-85.09
X135.255Y-92.71
X137.795Y-85.09
X137.795Y-92.71
X139.065Y-45.085
X139.065Y-47.625
X139.065Y-50.165
X139.065Y-52.705
X139.065Y-55.245
X139.065Y-57.785
X139.065Y-60.325
X139.065Y-62.865
X139.065Y-65.405
X139.065Y-67.945
X139.065Y-70.485
X139.065Y-73.025
X139.065Y-75.565
X139.065Y-78.105
X139.7Y-99.1
X139.7Y-101.6
X139.7Y-110.53
X139.7Y-113.03
X139.7Y-121.96
X139.7Y-124.46
X139.7Y-133.39
X139.7Y-135.89
X140.335Y-85.09
X140.335Y-92.71
X145.415Y-85.13
X145.415Y-87.63
X150.495Y-85.09
X150.495Y-92.71
X151.892Y-99.06
X151.892Y-106.68
X153.035Y-85.09
X153.035Y-92.71
X154.305Y-45.085
X154.305Y-47.625
X154.305Y-50.165
X154.305Y-52.705
X154.305Y-55.245
X154.305Y-57.785
X154.305Y-60.325
X154.305Y-62.865
X154.305Y-65.405
X154.305Y-67.945
X154.305Y-70.485
X154.305Y-73.025
X154.305Y-75.565
X154.305Y-78.105
X155.575Y-85.09
X155.575Y-92.71
X158.115Y-85.09
X158.115Y-92.71
X158.75Y-45.085
X158.75Y-47.585
X160.655Y-85.09
X160.655Y-92.71
X161.163Y-115.57
X161.163Y-118.11
X161.163Y-120.65
X161.163Y-123.19
X161.163Y-125.73
X161.163Y-128.27
X161.163Y-130.81
X161.163Y-133.35
X161.163Y-135.89
X163.195Y-45.085
X163.195Y-47.625
X163.195Y-50.165
X163.195Y-52.705
X163.195Y-55.245
X163.195Y-57.785
X163.195Y-60.325
X163.195Y-62.865
X163.195Y-65.405
X163.195Y-67.945
X163.195Y-70.485
X163.195Y-73.025
X163.195Y-75.565
X163.195Y-78.105
X163.195Y-85.09
X163.195Y-92.71
X165.735Y-85.09
X165.735Y-92.71
X167.132Y-99.06
X167.132Y-106.68
X168.275Y-85.09
X168.275Y-92.71
X170.815Y-85.09
X170.815Y-92.71
X173.355Y-85.09
X173.355Y-92.71
X175.895Y-85.09
X175.895Y-92.71
X175.895Y-125.73
X178.435Y-45.085
X178.435Y-47.625
X178.435Y-50.165
X178.435Y-52.705
X178.435Y-55.245
X178.435Y-57.785
X178.435Y-60.325
X178.435Y-62.865
X178.435Y-65.405
X178.435Y-67.945
X178.435Y-70.485
X178.435Y-73.025
X178.435Y-75.565
X178.435Y-78.105
X178.435Y-85.09
X178.435Y-92.71
X182.88Y-45.085
X182.88Y-47.585
X183.515Y-125.73
T4
X168.91Y-134.62
X171.45Y-134.62
T5
X96.52Y-99.06
X96.52Y-101.6
X96.52Y-110.49
X96.52Y-113.03
X96.52Y-121.92
X96.52Y-124.46
X96.52Y-133.35
X96.52Y-135.89
X99.06Y-99.06
X99.06Y-101.6
X99.06Y-110.49
X99.06Y-113.03
X99.06Y-121.92
X99.06Y-124.46
X99.06Y-133.35
X99.06Y-135.89
X101.6Y-99.06
X101.6Y-101.6
X101.6Y-110.49
X101.6Y-113.03
X101.6Y-121.92
X101.6Y-124.46
X101.6Y-133.35
X101.6Y-135.89
X104.14Y-99.06
X104.14Y-101.6
X104.14Y-110.49
X104.14Y-113.03
X104.14Y-121.92
X104.14Y-124.46
X104.14Y-133.35
X104.14Y-135.89
X106.68Y-99.06
X106.68Y-101.6
X106.68Y-110.49
X106.68Y-113.03
X106.68Y-121.92
X106.68Y-124.46
X106.68Y-133.35
X106.68Y-135.89
X109.22Y-99.06
X109.22Y-101.6
X109.22Y-110.49
X109.22Y-113.03
X109.22Y-121.92
X109.22Y-124.46
X109.22Y-133.35
X109.22Y-135.89
X111.76Y-99.06
X111.76Y-101.6
X111.76Y-110.49
X111.76Y-113.03
X111.76Y-121.92
X111.76Y-124.46
X111.76Y-133.35
X111.76Y-135.89
X114.3Y-99.06
X114.3Y-101.6
X114.3Y-110.49
X114.3Y-113.03
X114.3Y-121.92
X114.3Y-124.46
X114.3Y-133.35
X114.3Y-135.89
X116.84Y-99.06
X116.84Y-101.6
X116.84Y-110.49
X116.84Y-113.03
X116.84Y-121.92
X116.84Y-124.46
X116.84Y-133.35
X116.84Y-135.89
X119.38Y-99.06
X119.38Y-101.6
X119.38Y-110.49
X119.38Y-113.03
X119.38Y-121.92
X119.38Y-124.46
X119.38Y-133.35
X119.38Y-135.89
X121.92Y-99.06
X121.92Y-101.6
X121.92Y-110.49
X121.92Y-113.03
X121.92Y-121.92
X121.92Y-124.46
X121.92Y-133.35
X121.92Y-135.89
X124.46Y-99.06
X124.46Y-101.6
X124.46Y-110.49
X124.46Y-113.03
X124.46Y-121.92
X124.46Y-124.46
X124.46Y-133.35
X124.46Y-135.89
X127.0Y-99.06
X127.0Y-101.6
X127.0Y-110.49
X127.0Y-113.03
X127.0Y-121.92
X127.0Y-124.46
X127.0Y-133.35
X127.0Y-135.89
X129.54Y-99.06
X129.54Y-101.6
X129.54Y-110.49
X129.54Y-113.03
X129.54Y-121.92
X129.54Y-124.46
X129.54Y-133.35
X129.54Y-135.89
X132.08Y-99.06
X132.08Y-101.6
X132.08Y-110.49
X132.08Y-113.03
X132.08Y-121.92
X132.08Y-124.46
X132.08Y-133.35
X132.08Y-135.89
X134.62Y-99.06
X134.62Y-101.6
X134.62Y-110.49
X134.62Y-113.03
X134.62Y-121.92
X134.62Y-124.46
X134.62Y-133.35
X134.62Y-135.89
X153.543Y-118.11
X153.543Y-120.65
X153.543Y-123.19
X153.543Y-125.73
X153.543Y-128.27
X153.543Y-130.81
X153.543Y-133.35
X153.543Y-135.89
X156.083Y-118.11
X156.083Y-120.65
X156.083Y-123.19
X156.083Y-125.73
X156.083Y-128.27
X156.083Y-130.81
X156.083Y-133.35
X156.083Y-135.89
X169.672Y-116.332
X174.672Y-116.332
X182.88Y-112.395
X182.88Y-114.935
X182.88Y-117.475
X182.88Y-120.015
T6
X176.53Y-131.445
X176.53Y-135.945
X183.03Y-131.445
X183.03Y-135.945
T0
M30
