M48
; DRILL file {KiCad (5.1.9-0-10_14)} date Thursday, March 25, 2021 at 12:19:51 PM
; FORMAT={-:-/ absolute / metric / decimal}
; #@! TF.CreationDate,2021-03-25T12:19:51+01:00
; #@! TF.GenerationSoftware,Kicad,Pcbnew,(5.1.9-0-10_14)
; #@! TF.FileFunction,Plated,1,2,PTH
FMAT,2
METRIC
T1C0.400
T2C0.500
T3C0.550
T4C0.750
T5C0.800
T6C0.900
T7C1.000
T8C1.100
%
G90
G05
T1
X114.685Y-78.787
X150.622Y-108.267
X153.987Y-121.788
X155.403Y-63.754
X155.877Y-103.183
X157.147Y-94.719
X159.394Y-103.245
X164.137Y-57.04
X164.138Y-47.647
X208.851Y-131.445
T4
X174.942Y-126.048
X176.212Y-124.778
X177.482Y-126.048
T5
X91.44Y-81.638
X91.44Y-84.138
X91.44Y-133.555
X91.44Y-136.055
X91.504Y-98.973
X91.504Y-101.473
X91.504Y-116.245
X91.504Y-118.745
X91.694Y-43.434
X91.694Y-45.974
X91.694Y-48.514
X91.694Y-51.054
X91.694Y-53.594
X91.694Y-56.134
X91.694Y-58.674
X91.694Y-61.214
X91.694Y-63.754
X91.694Y-66.294
X91.694Y-68.834
X91.694Y-71.374
X91.694Y-73.914
X91.694Y-76.454
X106.934Y-43.434
X106.934Y-45.974
X106.934Y-48.514
X106.934Y-51.054
X106.934Y-53.594
X106.934Y-56.134
X106.934Y-58.674
X106.934Y-61.214
X106.934Y-63.754
X106.934Y-66.294
X106.934Y-68.834
X106.934Y-71.374
X106.934Y-73.914
X106.934Y-76.454
X112.014Y-43.434
X112.014Y-45.934
X117.348Y-43.434
X117.348Y-45.974
X117.348Y-48.514
X117.348Y-51.054
X117.348Y-53.594
X117.348Y-56.134
X117.348Y-58.674
X117.348Y-61.214
X117.348Y-63.754
X117.348Y-66.294
X117.348Y-68.834
X117.348Y-71.374
X117.348Y-73.914
X117.348Y-76.454
X132.588Y-43.434
X132.588Y-45.974
X132.588Y-48.514
X132.588Y-51.054
X132.588Y-53.594
X132.588Y-56.134
X132.588Y-58.674
X132.588Y-61.214
X132.588Y-63.754
X132.588Y-66.294
X132.588Y-68.834
X132.588Y-71.374
X132.588Y-73.914
X132.588Y-76.454
X137.795Y-43.434
X137.795Y-45.934
X139.7Y-81.574
X139.7Y-84.074
X139.7Y-98.973
X139.7Y-101.473
X139.7Y-133.579
X139.7Y-136.079
X139.764Y-116.308
X139.764Y-118.808
X143.002Y-43.434
X143.002Y-45.974
X143.002Y-48.514
X143.002Y-51.054
X143.002Y-53.594
X143.002Y-56.134
X143.002Y-58.674
X143.002Y-61.214
X143.002Y-63.754
X143.002Y-66.294
X143.002Y-68.834
X143.002Y-71.374
X143.002Y-73.914
X143.002Y-76.454
X144.856Y-135.877
X147.396Y-135.877
X149.288Y-82.931
X149.288Y-90.551
X149.936Y-135.877
X150.749Y-97.894
X150.749Y-100.394
X150.749Y-110.784
X150.749Y-113.284
X152.476Y-135.877
X155.016Y-135.877
X155.638Y-110.871
X155.638Y-118.491
X155.702Y-97.854
X155.702Y-105.474
X156.908Y-82.931
X156.908Y-90.551
X157.556Y-135.877
X158.178Y-110.871
X158.178Y-118.491
X158.242Y-43.434
X158.242Y-45.974
X158.242Y-48.514
X158.242Y-51.054
X158.242Y-53.594
X158.242Y-56.134
X158.242Y-58.674
X158.242Y-61.214
X158.242Y-63.754
X158.242Y-66.294
X158.242Y-68.834
X158.242Y-71.374
X158.242Y-73.914
X158.242Y-76.454
X158.242Y-97.854
X158.242Y-105.474
X160.096Y-135.877
X160.718Y-110.871
X160.718Y-118.491
X160.782Y-97.854
X160.782Y-105.474
X162.636Y-135.877
X163.258Y-81.471
X163.258Y-83.971
X163.258Y-89.408
X163.258Y-91.908
X163.258Y-110.871
X163.258Y-118.491
X163.322Y-43.434
X163.322Y-45.934
X163.322Y-52.705
X163.322Y-60.325
X163.322Y-66.23
X163.322Y-73.85
X163.322Y-97.854
X163.322Y-105.474
X165.176Y-135.877
X165.798Y-110.871
X165.798Y-118.491
X165.862Y-97.854
X165.862Y-105.474
X168.212Y-43.561
X168.212Y-46.101
X168.212Y-48.641
X168.212Y-51.181
X168.212Y-53.721
X168.212Y-56.261
X168.212Y-58.801
X168.212Y-61.341
X168.212Y-63.881
X168.212Y-66.421
X168.212Y-68.961
X168.212Y-71.501
X168.212Y-74.041
X168.212Y-76.581
X168.212Y-79.121
X168.212Y-81.661
X168.212Y-84.201
X168.212Y-86.741
X168.212Y-89.281
X168.212Y-91.821
X168.338Y-110.871
X168.338Y-118.491
X168.402Y-97.854
X168.402Y-105.474
X170.37Y-122.809
X170.37Y-130.429
X170.878Y-110.871
X170.878Y-118.491
X170.942Y-97.854
X170.942Y-105.474
X173.482Y-97.854
X173.482Y-105.474
X176.022Y-97.854
X176.022Y-105.474
X178.562Y-97.854
X178.562Y-105.474
X180.022Y-112.342
X180.022Y-116.142
X181.102Y-97.854
X181.102Y-105.474
X183.452Y-43.561
X183.452Y-46.101
X183.452Y-48.641
X183.452Y-51.181
X183.452Y-53.721
X183.452Y-56.261
X183.452Y-58.801
X183.452Y-61.341
X183.452Y-63.881
X183.452Y-66.421
X183.452Y-68.961
X183.452Y-71.501
X183.452Y-74.041
X183.452Y-76.581
X183.452Y-79.121
X183.452Y-81.661
X183.452Y-84.201
X183.452Y-86.741
X183.452Y-89.281
X183.452Y-91.821
X183.642Y-97.854
X183.642Y-105.474
T6
X170.116Y-135.954
X172.656Y-135.954
T7
X96.52Y-81.597
X96.52Y-84.138
X96.52Y-98.907
X96.52Y-101.447
X96.52Y-116.218
X96.52Y-118.758
X96.52Y-133.528
X96.52Y-136.068
X99.06Y-81.597
X99.06Y-84.138
X99.06Y-98.907
X99.06Y-101.447
X99.06Y-116.218
X99.06Y-118.758
X99.06Y-133.528
X99.06Y-136.068
X101.6Y-81.597
X101.6Y-84.138
X101.6Y-98.907
X101.6Y-101.447
X101.6Y-116.218
X101.6Y-118.758
X101.6Y-133.528
X101.6Y-136.068
X104.14Y-81.597
X104.14Y-84.138
X104.14Y-98.907
X104.14Y-101.447
X104.14Y-116.218
X104.14Y-118.758
X104.14Y-133.528
X104.14Y-136.068
X106.68Y-81.597
X106.68Y-84.138
X106.68Y-98.907
X106.68Y-101.447
X106.68Y-116.218
X106.68Y-118.758
X106.68Y-133.528
X106.68Y-136.068
X109.22Y-81.597
X109.22Y-84.138
X109.22Y-98.907
X109.22Y-101.447
X109.22Y-116.218
X109.22Y-118.758
X109.22Y-133.528
X109.22Y-136.068
X111.76Y-81.597
X111.76Y-84.138
X111.76Y-98.907
X111.76Y-101.447
X111.76Y-116.218
X111.76Y-118.758
X111.76Y-133.528
X111.76Y-136.068
X114.3Y-81.597
X114.3Y-84.138
X114.3Y-98.907
X114.3Y-101.447
X114.3Y-116.218
X114.3Y-118.758
X114.3Y-133.528
X114.3Y-136.068
X116.84Y-81.597
X116.84Y-84.138
X116.84Y-98.907
X116.84Y-101.447
X116.84Y-116.218
X116.84Y-118.758
X116.84Y-133.528
X116.84Y-136.068
X119.38Y-81.597
X119.38Y-84.138
X119.38Y-98.907
X119.38Y-101.447
X119.38Y-116.218
X119.38Y-118.758
X119.38Y-133.528
X119.38Y-136.068
X121.92Y-81.597
X121.92Y-84.138
X121.92Y-98.907
X121.92Y-101.447
X121.92Y-116.218
X121.92Y-118.758
X121.92Y-133.528
X121.92Y-136.068
X124.46Y-81.597
X124.46Y-84.138
X124.46Y-98.907
X124.46Y-101.447
X124.46Y-116.218
X124.46Y-118.758
X124.46Y-133.528
X124.46Y-136.068
X127.0Y-81.597
X127.0Y-84.138
X127.0Y-98.907
X127.0Y-101.447
X127.0Y-116.218
X127.0Y-118.758
X127.0Y-133.528
X127.0Y-136.068
X129.54Y-81.597
X129.54Y-84.138
X129.54Y-98.907
X129.54Y-101.447
X129.54Y-116.218
X129.54Y-118.758
X129.54Y-133.528
X129.54Y-136.068
X132.08Y-81.597
X132.08Y-84.138
X132.08Y-98.907
X132.08Y-101.447
X132.08Y-116.218
X132.08Y-118.758
X132.08Y-133.528
X132.08Y-136.068
X134.62Y-81.597
X134.62Y-84.138
X134.62Y-98.907
X134.62Y-101.447
X134.62Y-116.218
X134.62Y-118.758
X134.62Y-133.528
X134.62Y-136.068
X144.856Y-128.892
X144.856Y-131.432
X147.396Y-128.892
X147.396Y-131.432
X149.936Y-128.892
X149.936Y-131.432
X152.476Y-128.892
X152.476Y-131.432
X155.016Y-128.892
X155.016Y-131.432
X157.556Y-128.892
X157.556Y-131.432
X160.096Y-128.892
X160.096Y-131.432
X162.636Y-128.892
X162.636Y-131.432
T8
X177.546Y-132.207
X177.546Y-136.707
X184.046Y-132.207
X184.046Y-136.707
T2
G00X185.176Y-120.452
M15
G01X185.826Y-120.452
M16
G05
G00X185.176Y-127.452
M15
G01X185.826Y-127.452
M16
G05
T3
G00X182.801Y-121.602
M15
G01X182.801Y-121.302
M16
G05
G00X182.801Y-126.602
M15
G01X182.801Y-126.302
M16
G05
T0
M30
