%TF.GenerationSoftware,KiCad,Pcbnew,(5.1.12-1-10_14)*%
%TF.CreationDate,2022-03-08T11:17:06+01:00*%
%TF.ProjectId,n8 bit special,6e382062-6974-4207-9370-656369616c2e,2*%
%TF.SameCoordinates,Original*%
%TF.FileFunction,Soldermask,Top*%
%TF.FilePolarity,Negative*%
%FSLAX46Y46*%
G04 Gerber Fmt 4.6, Leading zero omitted, Abs format (unit mm)*
G04 Created by KiCad (PCBNEW (5.1.12-1-10_14)) date 2022-03-08 11:17:06*
%MOMM*%
%LPD*%
G01*
G04 APERTURE LIST*
%ADD10R,0.400000X1.600000*%
%ADD11C,1.600000*%
%ADD12O,1.600000X1.600000*%
%ADD13R,1.600000X1.600000*%
%ADD14O,1.700000X1.700000*%
%ADD15R,1.700000X1.700000*%
%ADD16C,1.422400*%
%ADD17R,1.422400X1.422400*%
%ADD18C,1.800000*%
%ADD19R,1.800000X1.800000*%
%ADD20R,1.300000X1.300000*%
%ADD21C,1.300000*%
%ADD22O,1.550000X0.890000*%
%ADD23R,1.550000X1.200000*%
%ADD24R,1.550000X1.500000*%
%ADD25O,0.950000X1.250000*%
%ADD26R,1.350000X0.400000*%
%ADD27C,2.000000*%
G04 APERTURE END LIST*
D10*
%TO.C,U9*%
X163931500Y-115271000D03*
X163296500Y-115271000D03*
X162661500Y-115271000D03*
X162026500Y-115271000D03*
X161391500Y-115271000D03*
X160756500Y-115271000D03*
X160121500Y-115271000D03*
X159486500Y-115271000D03*
X159486500Y-109671000D03*
X160121500Y-109671000D03*
X160756500Y-109671000D03*
X161391500Y-109671000D03*
X162026500Y-109671000D03*
X162661500Y-109671000D03*
X163296500Y-109671000D03*
X163931500Y-109671000D03*
%TD*%
D11*
%TO.C,C20*%
X178562000Y-108003000D03*
X178562000Y-110503000D03*
%TD*%
%TO.C,C19*%
X178587000Y-116825000D03*
X178587000Y-114325000D03*
%TD*%
%TO.C,C9*%
X157048000Y-105789000D03*
X157048000Y-103289000D03*
%TD*%
D12*
%TO.C,U10*%
X152451000Y-81559400D03*
X144831000Y-96799400D03*
X152451000Y-84099400D03*
X144831000Y-94259400D03*
X152451000Y-86639400D03*
X144831000Y-91719400D03*
X152451000Y-89179400D03*
X144831000Y-89179400D03*
X152451000Y-91719400D03*
X144831000Y-86639400D03*
X152451000Y-94259400D03*
X144831000Y-84099400D03*
X152451000Y-96799400D03*
D13*
X144831000Y-81559400D03*
%TD*%
D12*
%TO.C,R2*%
X138735000Y-104059000D03*
D11*
X138735000Y-111679000D03*
%TD*%
D14*
%TO.C,J6*%
X144869000Y-132029000D03*
X144869000Y-129489000D03*
X147409000Y-132029000D03*
X147409000Y-129489000D03*
X149949000Y-132029000D03*
X149949000Y-129489000D03*
X152489000Y-132029000D03*
X152489000Y-129489000D03*
X155029000Y-132029000D03*
X155029000Y-129489000D03*
X157569000Y-132029000D03*
D15*
X157569000Y-129489000D03*
%TD*%
D16*
%TO.C,U8*%
X166116000Y-72059800D03*
X168656000Y-72059800D03*
X171196000Y-72059800D03*
X173736000Y-72059800D03*
X176276000Y-72059800D03*
X163576000Y-74599800D03*
X168656000Y-74599800D03*
X171196000Y-74599800D03*
X173736000Y-74599800D03*
X176276000Y-74599800D03*
X178816000Y-74599800D03*
X181356000Y-74599800D03*
X181356000Y-77139800D03*
X181356000Y-79679800D03*
X181356000Y-82219800D03*
X181356000Y-84759800D03*
X181356000Y-87299800D03*
X178816000Y-72059800D03*
X178816000Y-77139800D03*
X178816000Y-79679800D03*
X178816000Y-82219800D03*
X178816000Y-84759800D03*
X178816000Y-87299800D03*
X178816000Y-89839800D03*
X176276000Y-89839800D03*
X173736000Y-89839800D03*
X171196000Y-89839800D03*
X168656000Y-89839800D03*
X166116000Y-89839800D03*
X176276000Y-87299800D03*
X173736000Y-87299800D03*
X171196000Y-87299800D03*
X168656000Y-87299800D03*
X166116000Y-87299800D03*
X163576000Y-77139800D03*
X163576000Y-79679800D03*
X163576000Y-87299800D03*
X163576000Y-84759800D03*
X163576000Y-82219800D03*
X166116000Y-74599800D03*
X166116000Y-77139800D03*
X166116000Y-84759800D03*
X166116000Y-82219800D03*
D17*
X166116000Y-79679800D03*
%TD*%
D12*
%TO.C,R8*%
X174612000Y-110503000D03*
D11*
X166992000Y-110503000D03*
%TD*%
D12*
%TO.C,R7*%
X174625000Y-114325000D03*
D11*
X167005000Y-114325000D03*
%TD*%
D12*
%TO.C,R6*%
X177399000Y-97038200D03*
D11*
X169779000Y-97038200D03*
%TD*%
D12*
%TO.C,R5*%
X177409000Y-102941000D03*
D11*
X169789000Y-102941000D03*
%TD*%
D18*
%TO.C,D3*%
X183566000Y-96977200D03*
D19*
X181026000Y-96977200D03*
%TD*%
D18*
%TO.C,D2*%
X183592000Y-102819000D03*
D19*
X181052000Y-102819000D03*
%TD*%
D11*
%TO.C,C18*%
X161844000Y-103327000D03*
X161844000Y-105827000D03*
%TD*%
%TO.C,C17*%
X157036000Y-74157200D03*
X157036000Y-76657200D03*
%TD*%
D16*
%TO.C,U1*%
X165964000Y-45110400D03*
X168504000Y-45110400D03*
X171044000Y-45110400D03*
X173584000Y-45110400D03*
X176124000Y-45110400D03*
X163424000Y-47650400D03*
X168504000Y-47650400D03*
X171044000Y-47650400D03*
X173584000Y-47650400D03*
X176124000Y-47650400D03*
X178664000Y-47650400D03*
X181204000Y-47650400D03*
X181204000Y-50190400D03*
X181204000Y-52730400D03*
X181204000Y-55270400D03*
X181204000Y-57810400D03*
X181204000Y-60350400D03*
X178664000Y-45110400D03*
X178664000Y-50190400D03*
X178664000Y-52730400D03*
X178664000Y-55270400D03*
X178664000Y-57810400D03*
X178664000Y-60350400D03*
X178664000Y-62890400D03*
X176124000Y-62890400D03*
X173584000Y-62890400D03*
X171044000Y-62890400D03*
X168504000Y-62890400D03*
X165964000Y-62890400D03*
X176124000Y-60350400D03*
X173584000Y-60350400D03*
X171044000Y-60350400D03*
X168504000Y-60350400D03*
X165964000Y-60350400D03*
X163424000Y-50190400D03*
X163424000Y-52730400D03*
X163424000Y-60350400D03*
X163424000Y-57810400D03*
X163424000Y-55270400D03*
X165964000Y-47650400D03*
X165964000Y-50190400D03*
X165964000Y-57810400D03*
X165964000Y-55270400D03*
D17*
X165964000Y-52730400D03*
%TD*%
D20*
%TO.C,Q1*%
X162611000Y-130315000D03*
D21*
X165151000Y-130315000D03*
X163881000Y-129045000D03*
%TD*%
D12*
%TO.C,R4*%
X169532000Y-123126000D03*
D11*
X169532000Y-130746000D03*
%TD*%
%TO.C,C16*%
X124244000Y-81497800D03*
X124244000Y-83997800D03*
%TD*%
%TO.C,X1*%
X138405000Y-90373200D03*
X138405000Y-82753200D03*
X130785000Y-82753200D03*
D13*
X130785000Y-90373200D03*
%TD*%
D22*
%TO.C,J1*%
X185513000Y-108742000D03*
X185513000Y-115742000D03*
D23*
X185513000Y-109342000D03*
X185513000Y-115142000D03*
D24*
X185513000Y-111242000D03*
X185513000Y-113242000D03*
D25*
X182813000Y-109742000D03*
X182813000Y-114742000D03*
D26*
X182813000Y-110942000D03*
X182813000Y-111592000D03*
X182813000Y-112242000D03*
X182813000Y-112892000D03*
X182813000Y-113542000D03*
%TD*%
D11*
%TO.C,C2*%
X181381400Y-126050200D03*
D13*
X181381400Y-122250200D03*
%TD*%
D11*
%TO.C,C1*%
X157036000Y-84048600D03*
X157036000Y-81548600D03*
%TD*%
%TO.C,C3*%
X90723700Y-133563000D03*
X90723700Y-136063000D03*
%TD*%
%TO.C,C4*%
X138803000Y-133568000D03*
X138803000Y-136068000D03*
%TD*%
%TO.C,C7*%
X90723700Y-116016000D03*
X90723700Y-118516000D03*
%TD*%
%TO.C,C8*%
X138770000Y-118161000D03*
X138770000Y-115661000D03*
%TD*%
%TO.C,C5*%
X90723700Y-97601000D03*
X90723700Y-100101000D03*
%TD*%
%TO.C,C6*%
X138719000Y-100101000D03*
X138719000Y-97601000D03*
%TD*%
%TO.C,C11*%
X156972000Y-52541800D03*
X156972000Y-55041800D03*
%TD*%
%TO.C,C12*%
X156947000Y-43459400D03*
X156947000Y-45959400D03*
%TD*%
%TO.C,C13*%
X133223000Y-43370500D03*
X133223000Y-45870500D03*
%TD*%
%TO.C,C14*%
X109918000Y-43307000D03*
X109918000Y-45807000D03*
%TD*%
D19*
%TO.C,D1*%
X173533000Y-135712000D03*
D18*
X170993000Y-135712000D03*
%TD*%
D15*
%TO.C,J2*%
X95539600Y-97637600D03*
D14*
X95539600Y-100177600D03*
X98079600Y-97637600D03*
X98079600Y-100177600D03*
X100619600Y-97637600D03*
X100619600Y-100177600D03*
X103159600Y-97637600D03*
X103159600Y-100177600D03*
X105699600Y-97637600D03*
X105699600Y-100177600D03*
X108239600Y-97637600D03*
X108239600Y-100177600D03*
X110779600Y-97637600D03*
X110779600Y-100177600D03*
X113319600Y-97637600D03*
X113319600Y-100177600D03*
X115859600Y-97637600D03*
X115859600Y-100177600D03*
X118399600Y-97637600D03*
X118399600Y-100177600D03*
X120939600Y-97637600D03*
X120939600Y-100177600D03*
X123479600Y-97637600D03*
X123479600Y-100177600D03*
X126019600Y-97637600D03*
X126019600Y-100177600D03*
X128559600Y-97637600D03*
X128559600Y-100177600D03*
X131099600Y-97637600D03*
X131099600Y-100177600D03*
X133639600Y-97637600D03*
X133639600Y-100177600D03*
%TD*%
D15*
%TO.C,J3*%
X95541800Y-133560000D03*
D14*
X95541800Y-136100000D03*
X98081800Y-133560000D03*
X98081800Y-136100000D03*
X100621800Y-133560000D03*
X100621800Y-136100000D03*
X103161800Y-133560000D03*
X103161800Y-136100000D03*
X105701800Y-133560000D03*
X105701800Y-136100000D03*
X108241800Y-133560000D03*
X108241800Y-136100000D03*
X110781800Y-133560000D03*
X110781800Y-136100000D03*
X113321800Y-133560000D03*
X113321800Y-136100000D03*
X115861800Y-133560000D03*
X115861800Y-136100000D03*
X118401800Y-133560000D03*
X118401800Y-136100000D03*
X120941800Y-133560000D03*
X120941800Y-136100000D03*
X123481800Y-133560000D03*
X123481800Y-136100000D03*
X126021800Y-133560000D03*
X126021800Y-136100000D03*
X128561800Y-133560000D03*
X128561800Y-136100000D03*
X131101800Y-133560000D03*
X131101800Y-136100000D03*
X133641800Y-133560000D03*
X133641800Y-136100000D03*
%TD*%
%TO.C,J4*%
X133639600Y-118143000D03*
X133639600Y-115603000D03*
X131099600Y-118143000D03*
X131099600Y-115603000D03*
X128559600Y-118143000D03*
X128559600Y-115603000D03*
X126019600Y-118143000D03*
X126019600Y-115603000D03*
X123479600Y-118143000D03*
X123479600Y-115603000D03*
X120939600Y-118143000D03*
X120939600Y-115603000D03*
X118399600Y-118143000D03*
X118399600Y-115603000D03*
X115859600Y-118143000D03*
X115859600Y-115603000D03*
X113319600Y-118143000D03*
X113319600Y-115603000D03*
X110779600Y-118143000D03*
X110779600Y-115603000D03*
X108239600Y-118143000D03*
X108239600Y-115603000D03*
X105699600Y-118143000D03*
X105699600Y-115603000D03*
X103159600Y-118143000D03*
X103159600Y-115603000D03*
X100619600Y-118143000D03*
X100619600Y-115603000D03*
X98079600Y-118143000D03*
X98079600Y-115603000D03*
X95539600Y-118143000D03*
D15*
X95539600Y-115603000D03*
%TD*%
D11*
%TO.C,R1*%
X173888000Y-130696000D03*
D12*
X173888000Y-123076000D03*
%TD*%
D13*
%TO.C,RN1*%
X165176000Y-136233000D03*
D12*
X162636000Y-136233000D03*
X160096000Y-136233000D03*
X157556000Y-136233000D03*
X155016000Y-136233000D03*
X152476000Y-136233000D03*
X149936000Y-136233000D03*
X147396000Y-136233000D03*
X144856000Y-136233000D03*
%TD*%
D21*
%TO.C,U7*%
X163881000Y-122758000D03*
X165151000Y-124028000D03*
D20*
X162611000Y-124028000D03*
%TD*%
D13*
%TO.C,U6*%
X118745000Y-82537300D03*
D12*
X90805000Y-90157300D03*
X116205000Y-82537300D03*
X93345000Y-90157300D03*
X113665000Y-82537300D03*
X95885000Y-90157300D03*
X111125000Y-82537300D03*
X98425000Y-90157300D03*
X108585000Y-82537300D03*
X100965000Y-90157300D03*
X106045000Y-82537300D03*
X103505000Y-90157300D03*
X103505000Y-82537300D03*
X106045000Y-90157300D03*
X100965000Y-82537300D03*
X108585000Y-90157300D03*
X98425000Y-82537300D03*
X111125000Y-90157300D03*
X95885000Y-82537300D03*
X113665000Y-90157300D03*
X93345000Y-82537300D03*
X116205000Y-90157300D03*
X90805000Y-82537300D03*
X118745000Y-90157300D03*
%TD*%
D11*
%TO.C,C15*%
X124282000Y-89179400D03*
X124282000Y-91679400D03*
%TD*%
D27*
%TO.C,SW1*%
X177736000Y-136682000D03*
X177736000Y-132182000D03*
X184236000Y-136682000D03*
X184236000Y-132182000D03*
%TD*%
D13*
%TO.C,U2*%
X137160000Y-43370500D03*
D12*
X152400000Y-76390500D03*
X137160000Y-45910500D03*
X152400000Y-73850500D03*
X137160000Y-48450500D03*
X152400000Y-71310500D03*
X137160000Y-50990500D03*
X152400000Y-68770500D03*
X137160000Y-53530500D03*
X152400000Y-66230500D03*
X137160000Y-56070500D03*
X152400000Y-63690500D03*
X137160000Y-58610500D03*
X152400000Y-61150500D03*
X137160000Y-61150500D03*
X152400000Y-58610500D03*
X137160000Y-63690500D03*
X152400000Y-56070500D03*
X137160000Y-66230500D03*
X152400000Y-53530500D03*
X137160000Y-68770500D03*
X152400000Y-50990500D03*
X137160000Y-71310500D03*
X152400000Y-48450500D03*
X137160000Y-73850500D03*
X152400000Y-45910500D03*
X137160000Y-76390500D03*
X152400000Y-43370500D03*
%TD*%
D13*
%TO.C,U3*%
X113919000Y-43370500D03*
D12*
X129159000Y-76390500D03*
X113919000Y-45910500D03*
X129159000Y-73850500D03*
X113919000Y-48450500D03*
X129159000Y-71310500D03*
X113919000Y-50990500D03*
X129159000Y-68770500D03*
X113919000Y-53530500D03*
X129159000Y-66230500D03*
X113919000Y-56070500D03*
X129159000Y-63690500D03*
X113919000Y-58610500D03*
X129159000Y-61150500D03*
X113919000Y-61150500D03*
X129159000Y-58610500D03*
X113919000Y-63690500D03*
X129159000Y-56070500D03*
X113919000Y-66230500D03*
X129159000Y-53530500D03*
X113919000Y-68770500D03*
X129159000Y-50990500D03*
X113919000Y-71310500D03*
X129159000Y-48450500D03*
X113919000Y-73850500D03*
X129159000Y-45910500D03*
X113919000Y-76390500D03*
X129159000Y-43370500D03*
%TD*%
%TO.C,U4*%
X105918000Y-43370500D03*
X90678000Y-76390500D03*
X105918000Y-45910500D03*
X90678000Y-73850500D03*
X105918000Y-48450500D03*
X90678000Y-71310500D03*
X105918000Y-50990500D03*
X90678000Y-68770500D03*
X105918000Y-53530500D03*
X90678000Y-66230500D03*
X105918000Y-56070500D03*
X90678000Y-63690500D03*
X105918000Y-58610500D03*
X90678000Y-61150500D03*
X105918000Y-61150500D03*
X90678000Y-58610500D03*
X105918000Y-63690500D03*
X90678000Y-56070500D03*
X105918000Y-66230500D03*
X90678000Y-53530500D03*
X105918000Y-68770500D03*
X90678000Y-50990500D03*
X105918000Y-71310500D03*
X90678000Y-48450500D03*
X105918000Y-73850500D03*
X90678000Y-45910500D03*
X105918000Y-76390500D03*
D13*
X90678000Y-43370500D03*
%TD*%
%TO.C,U5*%
X144856000Y-103314000D03*
D12*
X152476000Y-118554000D03*
X144856000Y-105854000D03*
X152476000Y-116014000D03*
X144856000Y-108394000D03*
X152476000Y-113474000D03*
X144856000Y-110934000D03*
X152476000Y-110934000D03*
X144856000Y-113474000D03*
X152476000Y-108394000D03*
X144856000Y-116014000D03*
X152476000Y-105854000D03*
X144856000Y-118554000D03*
X152476000Y-103314000D03*
%TD*%
M02*
