%TF.GenerationSoftware,KiCad,Pcbnew,(5.1.9-0-10_14)*%
%TF.CreationDate,2021-03-23T14:31:25+01:00*%
%TF.ProjectId,viaduct,76696164-7563-4742-9e6b-696361645f70,rev?*%
%TF.SameCoordinates,Original*%
%TF.FileFunction,Soldermask,Bot*%
%TF.FilePolarity,Negative*%
%FSLAX46Y46*%
G04 Gerber Fmt 4.6, Leading zero omitted, Abs format (unit mm)*
G04 Created by KiCad (PCBNEW (5.1.9-0-10_14)) date 2021-03-23 14:31:25*
%MOMM*%
%LPD*%
G01*
G04 APERTURE LIST*
%ADD10O,1.700000X1.700000*%
%ADD11R,1.700000X1.700000*%
%ADD12C,1.600000*%
%ADD13O,1.600000X1.600000*%
%ADD14R,1.600000X1.600000*%
G04 APERTURE END LIST*
D10*
%TO.C,J4*%
X177038000Y-128016000D03*
X174498000Y-128016000D03*
X177038000Y-125476000D03*
X174498000Y-125476000D03*
X177038000Y-122936000D03*
X174498000Y-122936000D03*
X177038000Y-120396000D03*
X174498000Y-120396000D03*
X177038000Y-117856000D03*
X174498000Y-117856000D03*
X177038000Y-115316000D03*
X174498000Y-115316000D03*
X177038000Y-112776000D03*
X174498000Y-112776000D03*
X177038000Y-110236000D03*
X174498000Y-110236000D03*
X177038000Y-107696000D03*
X174498000Y-107696000D03*
X177038000Y-105156000D03*
X174498000Y-105156000D03*
X177038000Y-102616000D03*
X174498000Y-102616000D03*
X177038000Y-100076000D03*
D11*
X174498000Y-100076000D03*
%TD*%
D12*
%TO.C,C1*%
X116586000Y-110958000D03*
X116586000Y-108458000D03*
%TD*%
D10*
%TO.C,J3*%
X130810000Y-97028000D03*
X133350000Y-97028000D03*
D11*
X135890000Y-97028000D03*
%TD*%
D10*
%TO.C,J2*%
X155448000Y-97028000D03*
X157988000Y-97028000D03*
D11*
X160528000Y-97028000D03*
%TD*%
D13*
%TO.C,RN2*%
X123190000Y-101854000D03*
X125730000Y-101854000D03*
X128270000Y-101854000D03*
X130810000Y-101854000D03*
X133350000Y-101854000D03*
X135890000Y-101854000D03*
X138430000Y-101854000D03*
X140970000Y-101854000D03*
D14*
X143510000Y-101854000D03*
%TD*%
D13*
%TO.C,RN1*%
X147828000Y-101854000D03*
X150368000Y-101854000D03*
X152908000Y-101854000D03*
X155448000Y-101854000D03*
X157988000Y-101854000D03*
X160528000Y-101854000D03*
X163068000Y-101854000D03*
X165608000Y-101854000D03*
D14*
X168148000Y-101854000D03*
%TD*%
D10*
%TO.C,J1*%
X159004000Y-132588000D03*
X159004000Y-130048000D03*
X156464000Y-132588000D03*
X156464000Y-130048000D03*
X153924000Y-132588000D03*
X153924000Y-130048000D03*
X151384000Y-132588000D03*
X151384000Y-130048000D03*
X148844000Y-132588000D03*
X148844000Y-130048000D03*
X146304000Y-132588000D03*
X146304000Y-130048000D03*
X143764000Y-132588000D03*
X143764000Y-130048000D03*
X141224000Y-132588000D03*
X141224000Y-130048000D03*
X138684000Y-132588000D03*
X138684000Y-130048000D03*
X136144000Y-132588000D03*
X136144000Y-130048000D03*
X133604000Y-132588000D03*
X133604000Y-130048000D03*
X131064000Y-132588000D03*
X131064000Y-130048000D03*
X128524000Y-132588000D03*
X128524000Y-130048000D03*
X125984000Y-132588000D03*
X125984000Y-130048000D03*
X123444000Y-132588000D03*
X123444000Y-130048000D03*
X120904000Y-132588000D03*
D11*
X120904000Y-130048000D03*
%TD*%
D14*
%TO.C,U1*%
X169164000Y-108458000D03*
D13*
X120904000Y-123698000D03*
X166624000Y-108458000D03*
X123444000Y-123698000D03*
X164084000Y-108458000D03*
X125984000Y-123698000D03*
X161544000Y-108458000D03*
X128524000Y-123698000D03*
X159004000Y-108458000D03*
X131064000Y-123698000D03*
X156464000Y-108458000D03*
X133604000Y-123698000D03*
X153924000Y-108458000D03*
X136144000Y-123698000D03*
X151384000Y-108458000D03*
X138684000Y-123698000D03*
X148844000Y-108458000D03*
X141224000Y-123698000D03*
X146304000Y-108458000D03*
X143764000Y-123698000D03*
X143764000Y-108458000D03*
X146304000Y-123698000D03*
X141224000Y-108458000D03*
X148844000Y-123698000D03*
X138684000Y-108458000D03*
X151384000Y-123698000D03*
X136144000Y-108458000D03*
X153924000Y-123698000D03*
X133604000Y-108458000D03*
X156464000Y-123698000D03*
X131064000Y-108458000D03*
X159004000Y-123698000D03*
X128524000Y-108458000D03*
X161544000Y-123698000D03*
X125984000Y-108458000D03*
X164084000Y-123698000D03*
X123444000Y-108458000D03*
X166624000Y-123698000D03*
X120904000Y-108458000D03*
X169164000Y-123698000D03*
%TD*%
M02*
