%TF.GenerationSoftware,KiCad,Pcbnew,(5.1.12-1-10_14)*%
%TF.CreationDate,2021-12-06T13:14:12+01:00*%
%TF.ProjectId,viaduct,76696164-7563-4742-9e6b-696361645f70,rev?*%
%TF.SameCoordinates,Original*%
%TF.FileFunction,Copper,L1,Top*%
%TF.FilePolarity,Positive*%
%FSLAX46Y46*%
G04 Gerber Fmt 4.6, Leading zero omitted, Abs format (unit mm)*
G04 Created by KiCad (PCBNEW (5.1.12-1-10_14)) date 2021-12-06 13:14:12*
%MOMM*%
%LPD*%
G01*
G04 APERTURE LIST*
%TA.AperFunction,ComponentPad*%
%ADD10O,1.700000X1.700000*%
%TD*%
%TA.AperFunction,ComponentPad*%
%ADD11R,1.700000X1.700000*%
%TD*%
%TA.AperFunction,ComponentPad*%
%ADD12C,1.600000*%
%TD*%
%TA.AperFunction,ComponentPad*%
%ADD13O,1.600000X1.600000*%
%TD*%
%TA.AperFunction,ComponentPad*%
%ADD14R,1.600000X1.600000*%
%TD*%
%TA.AperFunction,ViaPad*%
%ADD15C,0.800000*%
%TD*%
%TA.AperFunction,Conductor*%
%ADD16C,0.500000*%
%TD*%
%TA.AperFunction,Conductor*%
%ADD17C,0.250000*%
%TD*%
%TA.AperFunction,Conductor*%
%ADD18C,0.254000*%
%TD*%
%TA.AperFunction,Conductor*%
%ADD19C,0.100000*%
%TD*%
G04 APERTURE END LIST*
D10*
%TO.P,J1,32*%
%TO.N,+5V*%
X119952000Y-132613000D03*
%TO.P,J1,31*%
X119952000Y-130073000D03*
%TO.P,J1,30*%
%TO.N,GND*%
X122492000Y-132613000D03*
%TO.P,J1,29*%
X122492000Y-130073000D03*
%TO.P,J1,28*%
%TO.N,/RS0*%
X125032000Y-132613000D03*
%TO.P,J1,27*%
%TO.N,/D0*%
X125032000Y-130073000D03*
%TO.P,J1,26*%
%TO.N,/RS1*%
X127572000Y-132613000D03*
%TO.P,J1,25*%
%TO.N,/D1*%
X127572000Y-130073000D03*
%TO.P,J1,24*%
%TO.N,/RS2*%
X130112000Y-132613000D03*
%TO.P,J1,23*%
%TO.N,/D2*%
X130112000Y-130073000D03*
%TO.P,J1,22*%
%TO.N,/RS3*%
X132652000Y-132613000D03*
%TO.P,J1,21*%
%TO.N,/D3*%
X132652000Y-130073000D03*
%TO.P,J1,20*%
%TO.N,Net-(J1-Pad20)*%
X135192000Y-132613000D03*
%TO.P,J1,19*%
%TO.N,/D4*%
X135192000Y-130073000D03*
%TO.P,J1,18*%
%TO.N,Net-(J1-Pad18)*%
X137732000Y-132613000D03*
%TO.P,J1,17*%
%TO.N,/D5*%
X137732000Y-130073000D03*
%TO.P,J1,16*%
%TO.N,~CS*%
X140272000Y-132613000D03*
%TO.P,J1,15*%
%TO.N,/D6*%
X140272000Y-130073000D03*
%TO.P,J1,14*%
%TO.N,R~W*%
X142812000Y-132613000D03*
%TO.P,J1,13*%
%TO.N,/D7*%
X142812000Y-130073000D03*
%TO.P,J1,12*%
%TO.N,CLK*%
X145352000Y-132613000D03*
%TO.P,J1,11*%
%TO.N,~IRQ*%
X145352000Y-130073000D03*
%TO.P,J1,10*%
%TO.N,~RES*%
X147892000Y-132613000D03*
%TO.P,J1,9*%
%TO.N,Net-(J1-Pad9)*%
X147892000Y-130073000D03*
%TO.P,J1,8*%
%TO.N,Net-(J1-Pad8)*%
X150432000Y-132613000D03*
%TO.P,J1,7*%
%TO.N,Net-(J1-Pad7)*%
X150432000Y-130073000D03*
%TO.P,J1,6*%
%TO.N,Net-(J1-Pad6)*%
X152972000Y-132613000D03*
%TO.P,J1,5*%
%TO.N,Net-(J1-Pad5)*%
X152972000Y-130073000D03*
%TO.P,J1,4*%
%TO.N,+5V*%
X155512000Y-132613000D03*
%TO.P,J1,3*%
X155512000Y-130073000D03*
%TO.P,J1,2*%
%TO.N,GND*%
X158052000Y-132613000D03*
D11*
%TO.P,J1,1*%
X158052000Y-130073000D03*
%TD*%
D10*
%TO.P,J2,24*%
%TO.N,GND*%
X177038000Y-128016000D03*
%TO.P,J2,23*%
X174498000Y-128016000D03*
%TO.P,J2,22*%
%TO.N,CB2*%
X177038000Y-125476000D03*
%TO.P,J2,21*%
%TO.N,CA2*%
X174498000Y-125476000D03*
%TO.P,J2,20*%
%TO.N,CB1*%
X177038000Y-122936000D03*
%TO.P,J2,19*%
%TO.N,CA1*%
X174498000Y-122936000D03*
%TO.P,J2,18*%
%TO.N,/PB7*%
X177038000Y-120396000D03*
%TO.P,J2,17*%
%TO.N,/PA7*%
X174498000Y-120396000D03*
%TO.P,J2,16*%
%TO.N,/PB6*%
X177038000Y-117856000D03*
%TO.P,J2,15*%
%TO.N,/PA6*%
X174498000Y-117856000D03*
%TO.P,J2,14*%
%TO.N,/PB5*%
X177038000Y-115316000D03*
%TO.P,J2,13*%
%TO.N,/PA5*%
X174498000Y-115316000D03*
%TO.P,J2,12*%
%TO.N,/PB4*%
X177038000Y-112776000D03*
%TO.P,J2,11*%
%TO.N,/PA4*%
X174498000Y-112776000D03*
%TO.P,J2,10*%
%TO.N,/PB3*%
X177038000Y-110236000D03*
%TO.P,J2,9*%
%TO.N,/PA3*%
X174498000Y-110236000D03*
%TO.P,J2,8*%
%TO.N,/PB2*%
X177038000Y-107696000D03*
%TO.P,J2,7*%
%TO.N,/PA2*%
X174498000Y-107696000D03*
%TO.P,J2,6*%
%TO.N,/PB1*%
X177038000Y-105156000D03*
%TO.P,J2,5*%
%TO.N,/PA1*%
X174498000Y-105156000D03*
%TO.P,J2,4*%
%TO.N,/PB0*%
X177038000Y-102616000D03*
%TO.P,J2,3*%
%TO.N,/PA0*%
X174498000Y-102616000D03*
%TO.P,J2,2*%
%TO.N,+5V*%
X177038000Y-100076000D03*
D11*
%TO.P,J2,1*%
X174498000Y-100076000D03*
%TD*%
D12*
%TO.P,C1,2*%
%TO.N,GND*%
X116586000Y-110958000D03*
%TO.P,C1,1*%
%TO.N,+5V*%
X116586000Y-108458000D03*
%TD*%
D10*
%TO.P,J4,3*%
%TO.N,+5V*%
X130810000Y-97028000D03*
%TO.P,J4,2*%
%TO.N,Net-(J4-Pad2)*%
X133350000Y-97028000D03*
D11*
%TO.P,J4,1*%
%TO.N,GND*%
X135890000Y-97028000D03*
%TD*%
D10*
%TO.P,J3,3*%
%TO.N,+5V*%
X155448000Y-97028000D03*
%TO.P,J3,2*%
%TO.N,Net-(J3-Pad2)*%
X157988000Y-97028000D03*
D11*
%TO.P,J3,1*%
%TO.N,GND*%
X160528000Y-97028000D03*
%TD*%
D13*
%TO.P,RN2,9*%
%TO.N,/PB7*%
X123190000Y-101854000D03*
%TO.P,RN2,8*%
%TO.N,/PB6*%
X125730000Y-101854000D03*
%TO.P,RN2,7*%
%TO.N,/PB5*%
X128270000Y-101854000D03*
%TO.P,RN2,6*%
%TO.N,/PB4*%
X130810000Y-101854000D03*
%TO.P,RN2,5*%
%TO.N,/PB3*%
X133350000Y-101854000D03*
%TO.P,RN2,4*%
%TO.N,/PB2*%
X135890000Y-101854000D03*
%TO.P,RN2,3*%
%TO.N,/PB1*%
X138430000Y-101854000D03*
%TO.P,RN2,2*%
%TO.N,/PB0*%
X140970000Y-101854000D03*
D14*
%TO.P,RN2,1*%
%TO.N,Net-(J4-Pad2)*%
X143510000Y-101854000D03*
%TD*%
D13*
%TO.P,RN1,9*%
%TO.N,/PA7*%
X147828000Y-101854000D03*
%TO.P,RN1,8*%
%TO.N,/PA6*%
X150368000Y-101854000D03*
%TO.P,RN1,7*%
%TO.N,/PA5*%
X152908000Y-101854000D03*
%TO.P,RN1,6*%
%TO.N,/PA4*%
X155448000Y-101854000D03*
%TO.P,RN1,5*%
%TO.N,/PA3*%
X157988000Y-101854000D03*
%TO.P,RN1,4*%
%TO.N,/PA2*%
X160528000Y-101854000D03*
%TO.P,RN1,3*%
%TO.N,/PA1*%
X163068000Y-101854000D03*
%TO.P,RN1,2*%
%TO.N,/PA0*%
X165608000Y-101854000D03*
D14*
%TO.P,RN1,1*%
%TO.N,Net-(J3-Pad2)*%
X168148000Y-101854000D03*
%TD*%
%TO.P,U1,1*%
%TO.N,GND*%
X169164000Y-108458000D03*
D13*
%TO.P,U1,21*%
%TO.N,~IRQ*%
X120904000Y-123698000D03*
%TO.P,U1,2*%
%TO.N,/PA0*%
X166624000Y-108458000D03*
%TO.P,U1,22*%
%TO.N,R~W*%
X123444000Y-123698000D03*
%TO.P,U1,3*%
%TO.N,/PA1*%
X164084000Y-108458000D03*
%TO.P,U1,23*%
%TO.N,~CS*%
X125984000Y-123698000D03*
%TO.P,U1,4*%
%TO.N,/PA2*%
X161544000Y-108458000D03*
%TO.P,U1,24*%
%TO.N,+5V*%
X128524000Y-123698000D03*
%TO.P,U1,5*%
%TO.N,/PA3*%
X159004000Y-108458000D03*
%TO.P,U1,25*%
%TO.N,CLK*%
X131064000Y-123698000D03*
%TO.P,U1,6*%
%TO.N,/PA4*%
X156464000Y-108458000D03*
%TO.P,U1,26*%
%TO.N,/D7*%
X133604000Y-123698000D03*
%TO.P,U1,7*%
%TO.N,/PA5*%
X153924000Y-108458000D03*
%TO.P,U1,27*%
%TO.N,/D6*%
X136144000Y-123698000D03*
%TO.P,U1,8*%
%TO.N,/PA6*%
X151384000Y-108458000D03*
%TO.P,U1,28*%
%TO.N,/D5*%
X138684000Y-123698000D03*
%TO.P,U1,9*%
%TO.N,/PA7*%
X148844000Y-108458000D03*
%TO.P,U1,29*%
%TO.N,/D4*%
X141224000Y-123698000D03*
%TO.P,U1,10*%
%TO.N,/PB0*%
X146304000Y-108458000D03*
%TO.P,U1,30*%
%TO.N,/D3*%
X143764000Y-123698000D03*
%TO.P,U1,11*%
%TO.N,/PB1*%
X143764000Y-108458000D03*
%TO.P,U1,31*%
%TO.N,/D2*%
X146304000Y-123698000D03*
%TO.P,U1,12*%
%TO.N,/PB2*%
X141224000Y-108458000D03*
%TO.P,U1,32*%
%TO.N,/D1*%
X148844000Y-123698000D03*
%TO.P,U1,13*%
%TO.N,/PB3*%
X138684000Y-108458000D03*
%TO.P,U1,33*%
%TO.N,/D0*%
X151384000Y-123698000D03*
%TO.P,U1,14*%
%TO.N,/PB4*%
X136144000Y-108458000D03*
%TO.P,U1,34*%
%TO.N,~RES*%
X153924000Y-123698000D03*
%TO.P,U1,15*%
%TO.N,/PB5*%
X133604000Y-108458000D03*
%TO.P,U1,35*%
%TO.N,/RS3*%
X156464000Y-123698000D03*
%TO.P,U1,16*%
%TO.N,/PB6*%
X131064000Y-108458000D03*
%TO.P,U1,36*%
%TO.N,/RS2*%
X159004000Y-123698000D03*
%TO.P,U1,17*%
%TO.N,/PB7*%
X128524000Y-108458000D03*
%TO.P,U1,37*%
%TO.N,/RS1*%
X161544000Y-123698000D03*
%TO.P,U1,18*%
%TO.N,CB1*%
X125984000Y-108458000D03*
%TO.P,U1,38*%
%TO.N,/RS0*%
X164084000Y-123698000D03*
%TO.P,U1,19*%
%TO.N,CB2*%
X123444000Y-108458000D03*
%TO.P,U1,39*%
%TO.N,CA2*%
X166624000Y-123698000D03*
%TO.P,U1,20*%
%TO.N,+5V*%
X120904000Y-108458000D03*
%TO.P,U1,40*%
%TO.N,CA1*%
X169164000Y-123698000D03*
%TD*%
D15*
%TO.N,GND*%
X175832000Y-97282000D03*
X116332000Y-95250000D03*
X116332000Y-131445000D03*
X182245000Y-113919000D03*
%TO.N,/D7*%
X137851500Y-127000200D03*
%TD*%
D16*
%TO.N,+5V*%
X155512000Y-132613000D02*
X155512000Y-130073000D01*
X119952000Y-132613000D02*
X121825800Y-134486800D01*
X121825800Y-134486800D02*
X153638200Y-134486800D01*
X153638200Y-134486800D02*
X155512000Y-132613000D01*
X120904000Y-108458000D02*
X120904000Y-102196000D01*
X120904000Y-102196000D02*
X126072000Y-97028000D01*
X126072000Y-97028000D02*
X130810000Y-97028000D01*
X120904000Y-108458000D02*
X116586000Y-108458000D01*
X155448000Y-97028000D02*
X154047700Y-97028000D01*
X154047700Y-97028000D02*
X152647200Y-95627500D01*
X152647200Y-95627500D02*
X132210500Y-95627500D01*
X132210500Y-95627500D02*
X130810000Y-97028000D01*
X174498000Y-100076000D02*
X177038000Y-100076000D01*
D17*
%TO.N,/D7*%
X142812000Y-130073000D02*
X141636700Y-130073000D01*
X137851500Y-127000200D02*
X138931200Y-127000200D01*
X138931200Y-127000200D02*
X141636700Y-129705700D01*
X141636700Y-129705700D02*
X141636700Y-130073000D01*
%TO.N,R~W*%
X142812000Y-132613000D02*
X143987300Y-132613000D01*
X123444000Y-123698000D02*
X124569300Y-123698000D01*
X124569300Y-123698000D02*
X124569300Y-123416700D01*
X124569300Y-123416700D02*
X127274900Y-120711100D01*
X127274900Y-120711100D02*
X155078700Y-120711100D01*
X155078700Y-120711100D02*
X157615500Y-123247900D01*
X157615500Y-123247900D02*
X157615500Y-124162900D01*
X157615500Y-124162900D02*
X154226100Y-127552300D01*
X154226100Y-127552300D02*
X148750000Y-127552300D01*
X148750000Y-127552300D02*
X146604400Y-129697900D01*
X146604400Y-129697900D02*
X146604400Y-130555700D01*
X146604400Y-130555700D02*
X145722400Y-131437700D01*
X145722400Y-131437700D02*
X144795200Y-131437700D01*
X144795200Y-131437700D02*
X143987300Y-132245600D01*
X143987300Y-132245600D02*
X143987300Y-132613000D01*
%TO.N,/D4*%
X140098700Y-123698000D02*
X140098700Y-123917800D01*
X140098700Y-123917800D02*
X137741600Y-126274900D01*
X137741600Y-126274900D02*
X137522100Y-126274900D01*
X137522100Y-126274900D02*
X135192000Y-128605000D01*
X135192000Y-128605000D02*
X135192000Y-128897700D01*
X141224000Y-123698000D02*
X140098700Y-123698000D01*
X135192000Y-130073000D02*
X135192000Y-128897700D01*
%TO.N,/D3*%
X143764000Y-123698000D02*
X142638700Y-123698000D01*
X132652000Y-130073000D02*
X132652000Y-128897700D01*
X132652000Y-128897700D02*
X137414000Y-124135700D01*
X137414000Y-124135700D02*
X137414000Y-123360200D01*
X137414000Y-123360200D02*
X138201500Y-122572700D01*
X138201500Y-122572700D02*
X141794800Y-122572700D01*
X141794800Y-122572700D02*
X142638700Y-123416600D01*
X142638700Y-123416600D02*
X142638700Y-123698000D01*
%TO.N,/RS3*%
X132652000Y-132613000D02*
X133827300Y-132613000D01*
X156464000Y-123698000D02*
X155338700Y-123698000D01*
X155338700Y-123698000D02*
X155338700Y-123979400D01*
X155338700Y-123979400D02*
X154494800Y-124823300D01*
X154494800Y-124823300D02*
X148938200Y-124823300D01*
X148938200Y-124823300D02*
X143987400Y-129774100D01*
X143987400Y-129774100D02*
X143987400Y-130598600D01*
X143987400Y-130598600D02*
X143148300Y-131437700D01*
X143148300Y-131437700D02*
X134635200Y-131437700D01*
X134635200Y-131437700D02*
X133827300Y-132245600D01*
X133827300Y-132245600D02*
X133827300Y-132613000D01*
%TO.N,/D2*%
X130112000Y-130073000D02*
X130112000Y-128897700D01*
X146304000Y-123698000D02*
X145178700Y-123698000D01*
X145178700Y-123698000D02*
X145178700Y-123416700D01*
X145178700Y-123416700D02*
X143852200Y-122090200D01*
X143852200Y-122090200D02*
X136139100Y-122090200D01*
X136139100Y-122090200D02*
X134874000Y-123355300D01*
X134874000Y-123355300D02*
X134874000Y-124135700D01*
X134874000Y-124135700D02*
X130112000Y-128897700D01*
%TO.N,/D1*%
X148844000Y-123698000D02*
X147718700Y-123698000D01*
X127572000Y-130073000D02*
X127572000Y-128897700D01*
X127572000Y-128897700D02*
X132334000Y-124135700D01*
X132334000Y-124135700D02*
X132334000Y-123371100D01*
X132334000Y-123371100D02*
X134065300Y-121639800D01*
X134065300Y-121639800D02*
X145941800Y-121639800D01*
X145941800Y-121639800D02*
X147718700Y-123416700D01*
X147718700Y-123416700D02*
X147718700Y-123698000D01*
%TO.N,/D0*%
X125032000Y-130073000D02*
X125032000Y-128897700D01*
X151384000Y-123698000D02*
X150258700Y-123698000D01*
X150258700Y-123698000D02*
X150258700Y-123416700D01*
X150258700Y-123416700D02*
X148003500Y-121161500D01*
X148003500Y-121161500D02*
X132002100Y-121161500D01*
X132002100Y-121161500D02*
X129921100Y-123242500D01*
X129921100Y-123242500D02*
X129921100Y-124082100D01*
X129921100Y-124082100D02*
X125105500Y-128897700D01*
X125105500Y-128897700D02*
X125032000Y-128897700D01*
%TO.N,/RS0*%
X125032000Y-132613000D02*
X126207300Y-132613000D01*
X164084000Y-123698000D02*
X162958700Y-123698000D01*
X162958700Y-123698000D02*
X162958700Y-123979300D01*
X162958700Y-123979300D02*
X158680700Y-128257300D01*
X158680700Y-128257300D02*
X150505000Y-128257300D01*
X150505000Y-128257300D02*
X149162000Y-129600300D01*
X149162000Y-129600300D02*
X149162000Y-130504000D01*
X149162000Y-130504000D02*
X148417600Y-131248400D01*
X148417600Y-131248400D02*
X147556200Y-131248400D01*
X147556200Y-131248400D02*
X146623000Y-132181600D01*
X146623000Y-132181600D02*
X146623000Y-133007100D01*
X146623000Y-133007100D02*
X145841800Y-133788300D01*
X145841800Y-133788300D02*
X127015200Y-133788300D01*
X127015200Y-133788300D02*
X126207300Y-132980400D01*
X126207300Y-132980400D02*
X126207300Y-132613000D01*
%TO.N,/PA7*%
X148844000Y-108458000D02*
X148844000Y-102870000D01*
X148844000Y-102870000D02*
X147828000Y-101854000D01*
%TO.N,/PA6*%
X151384000Y-108458000D02*
X151384000Y-102870000D01*
X151384000Y-102870000D02*
X150368000Y-101854000D01*
%TO.N,/PA5*%
X153924000Y-108458000D02*
X153924000Y-102870000D01*
X153924000Y-102870000D02*
X152908000Y-101854000D01*
%TO.N,/PA4*%
X156464000Y-108458000D02*
X156464000Y-102870000D01*
X156464000Y-102870000D02*
X155448000Y-101854000D01*
%TO.N,/PA3*%
X159004000Y-108458000D02*
X159004000Y-102870000D01*
X159004000Y-102870000D02*
X157988000Y-101854000D01*
%TO.N,/PA2*%
X161544000Y-108458000D02*
X161544000Y-102870000D01*
X161544000Y-102870000D02*
X160528000Y-101854000D01*
%TO.N,/PA1*%
X164084000Y-108458000D02*
X164084000Y-102870000D01*
X164084000Y-102870000D02*
X163068000Y-101854000D01*
%TO.N,/PA0*%
X166624000Y-108458000D02*
X166624000Y-102870000D01*
X166624000Y-102870000D02*
X165608000Y-101854000D01*
%TO.N,/PB7*%
X128524000Y-108458000D02*
X128524000Y-107188000D01*
X128524000Y-107188000D02*
X123190000Y-101854000D01*
X128524000Y-108458000D02*
X138049000Y-117983000D01*
X138049000Y-117983000D02*
X170307000Y-117983000D01*
X170307000Y-117983000D02*
X173895000Y-121571000D01*
X173895000Y-121571000D02*
X175863000Y-121571000D01*
X175863000Y-121571000D02*
X177038000Y-120396000D01*
%TO.N,/PB6*%
X131064000Y-108458000D02*
X131064000Y-107188000D01*
X131064000Y-107188000D02*
X125730000Y-101854000D01*
X131064000Y-108458000D02*
X140139000Y-117533000D01*
X140139000Y-117533000D02*
X172436000Y-117533000D01*
X172436000Y-117533000D02*
X173934000Y-119031000D01*
X173934000Y-119031000D02*
X175863000Y-119031000D01*
X175863000Y-119031000D02*
X177038000Y-117856000D01*
%TO.N,/PB5*%
X133604000Y-108458000D02*
X133604000Y-107188000D01*
X133604000Y-107188000D02*
X128270000Y-101854000D01*
X133604000Y-108458000D02*
X141827000Y-116681000D01*
X141827000Y-116681000D02*
X175673000Y-116681000D01*
X175673000Y-116681000D02*
X177038000Y-115316000D01*
%TO.N,/PB4*%
X136144000Y-108458000D02*
X136144000Y-107188000D01*
X136144000Y-107188000D02*
X130810000Y-101854000D01*
X136144000Y-108458000D02*
X141637000Y-113951000D01*
X141637000Y-113951000D02*
X175863000Y-113951000D01*
X175863000Y-113951000D02*
X177038000Y-112776000D01*
%TO.N,/PB3*%
X138684000Y-108458000D02*
X138684000Y-107188000D01*
X138684000Y-107188000D02*
X133350000Y-101854000D01*
X138684000Y-108458000D02*
X141637000Y-111411000D01*
X141637000Y-111411000D02*
X173934000Y-111411000D01*
X173934000Y-111411000D02*
X174886000Y-111411000D01*
X173934000Y-111411000D02*
X174886000Y-111411000D01*
X174886000Y-111411000D02*
X175863000Y-111411000D01*
X175863000Y-111411000D02*
X177038000Y-110236000D01*
%TO.N,/PB2*%
X141224000Y-108458000D02*
X141224000Y-107188000D01*
X141224000Y-107188000D02*
X135890000Y-101854000D01*
X141224000Y-108458000D02*
X143637000Y-110871000D01*
X143637000Y-110871000D02*
X171672000Y-110871000D01*
X171672000Y-110871000D02*
X173482000Y-109061000D01*
X173482000Y-109061000D02*
X175673000Y-109061000D01*
X175673000Y-109061000D02*
X177038000Y-107696000D01*
%TO.N,/PB1*%
X143764000Y-108458000D02*
X143764000Y-107188000D01*
X143764000Y-107188000D02*
X138430000Y-101854000D01*
X143764000Y-108458000D02*
X145669000Y-110363000D01*
X145669000Y-110363000D02*
X170307000Y-110363000D01*
X170307000Y-110363000D02*
X173323000Y-107347000D01*
X173323000Y-107347000D02*
X173323000Y-107132000D01*
X173323000Y-107132000D02*
X174029000Y-106426000D01*
X174029000Y-106426000D02*
X175768000Y-106426000D01*
X175768000Y-106426000D02*
X177038000Y-105156000D01*
%TO.N,/PB0*%
X146304000Y-108458000D02*
X146304000Y-107188000D01*
X146304000Y-107188000D02*
X140970000Y-101854000D01*
X146304000Y-108458000D02*
X147701000Y-109855000D01*
X147701000Y-109855000D02*
X170116000Y-109855000D01*
X170116000Y-109855000D02*
X172784000Y-107188000D01*
X172784000Y-107188000D02*
X172784000Y-105131000D01*
X172784000Y-105131000D02*
X174124000Y-103791000D01*
X174124000Y-103791000D02*
X175863000Y-103791000D01*
X175863000Y-103791000D02*
X177038000Y-102616000D01*
%TO.N,Net-(J3-Pad2)*%
X168148000Y-101854000D02*
X165481000Y-99187000D01*
X165481000Y-99187000D02*
X160147000Y-99187000D01*
X160147000Y-99187000D02*
X157988000Y-97028000D01*
%TO.N,CB2*%
X123444000Y-108458000D02*
X133959000Y-118973000D01*
X133959000Y-118973000D02*
X166217000Y-118973000D01*
X166217000Y-118973000D02*
X173895000Y-126651000D01*
X173895000Y-126651000D02*
X175863000Y-126651000D01*
X175863000Y-126651000D02*
X177038000Y-125476000D01*
%TO.N,CB1*%
X125984000Y-108458000D02*
X136017000Y-118491000D01*
X136017000Y-118491000D02*
X168275000Y-118491000D01*
X168275000Y-118491000D02*
X173895000Y-124111000D01*
X173895000Y-124111000D02*
X175863000Y-124111000D01*
X175863000Y-124111000D02*
X177038000Y-122936000D01*
%TO.N,Net-(J4-Pad2)*%
X143510000Y-101854000D02*
X140970000Y-99314000D01*
X140970000Y-99314000D02*
X135636000Y-99314000D01*
X135636000Y-99314000D02*
X133350000Y-97028000D01*
%TD*%
D18*
%TO.N,GND*%
X113377353Y-92887000D02*
X181996620Y-92887000D01*
X186894000Y-97784381D01*
X186894001Y-133383647D01*
X186903289Y-133477951D01*
X186889766Y-133615876D01*
X186812551Y-133871624D01*
X186687131Y-134107504D01*
X186518289Y-134314525D01*
X186312446Y-134484813D01*
X186077444Y-134611879D01*
X185822240Y-134690877D01*
X185675291Y-134706322D01*
X185580647Y-134697000D01*
X154679578Y-134697000D01*
X155293040Y-134083539D01*
X155365740Y-134098000D01*
X155658260Y-134098000D01*
X155945158Y-134040932D01*
X156215411Y-133928990D01*
X156458632Y-133766475D01*
X156665475Y-133559632D01*
X156787195Y-133377466D01*
X156856822Y-133494355D01*
X157051731Y-133710588D01*
X157285080Y-133884641D01*
X157547901Y-134009825D01*
X157695110Y-134054476D01*
X157925000Y-133933155D01*
X157925000Y-132740000D01*
X158179000Y-132740000D01*
X158179000Y-133933155D01*
X158408890Y-134054476D01*
X158556099Y-134009825D01*
X158818920Y-133884641D01*
X159052269Y-133710588D01*
X159247178Y-133494355D01*
X159396157Y-133244252D01*
X159493481Y-132969891D01*
X159372814Y-132740000D01*
X158179000Y-132740000D01*
X157925000Y-132740000D01*
X157905000Y-132740000D01*
X157905000Y-132486000D01*
X157925000Y-132486000D01*
X157925000Y-130200000D01*
X158179000Y-130200000D01*
X158179000Y-132486000D01*
X159372814Y-132486000D01*
X159493481Y-132256109D01*
X159396157Y-131981748D01*
X159247178Y-131731645D01*
X159070374Y-131535498D01*
X159146180Y-131512502D01*
X159256494Y-131453537D01*
X159353185Y-131374185D01*
X159432537Y-131277494D01*
X159491502Y-131167180D01*
X159527812Y-131047482D01*
X159540072Y-130923000D01*
X159537000Y-130358750D01*
X159378250Y-130200000D01*
X158179000Y-130200000D01*
X157925000Y-130200000D01*
X157905000Y-130200000D01*
X157905000Y-129946000D01*
X157925000Y-129946000D01*
X157925000Y-129926000D01*
X158179000Y-129926000D01*
X158179000Y-129946000D01*
X159378250Y-129946000D01*
X159537000Y-129787250D01*
X159540072Y-129223000D01*
X159527812Y-129098518D01*
X159491502Y-128978820D01*
X159432537Y-128868506D01*
X159353185Y-128771815D01*
X159291560Y-128721241D01*
X159639911Y-128372890D01*
X173056524Y-128372890D01*
X173101175Y-128520099D01*
X173226359Y-128782920D01*
X173400412Y-129016269D01*
X173616645Y-129211178D01*
X173866748Y-129360157D01*
X174141109Y-129457481D01*
X174371000Y-129336814D01*
X174371000Y-128143000D01*
X174625000Y-128143000D01*
X174625000Y-129336814D01*
X174854891Y-129457481D01*
X175129252Y-129360157D01*
X175379355Y-129211178D01*
X175595588Y-129016269D01*
X175768000Y-128785120D01*
X175940412Y-129016269D01*
X176156645Y-129211178D01*
X176406748Y-129360157D01*
X176681109Y-129457481D01*
X176911000Y-129336814D01*
X176911000Y-128143000D01*
X177165000Y-128143000D01*
X177165000Y-129336814D01*
X177394891Y-129457481D01*
X177669252Y-129360157D01*
X177919355Y-129211178D01*
X178135588Y-129016269D01*
X178309641Y-128782920D01*
X178434825Y-128520099D01*
X178479476Y-128372890D01*
X178358155Y-128143000D01*
X177165000Y-128143000D01*
X176911000Y-128143000D01*
X174625000Y-128143000D01*
X174371000Y-128143000D01*
X173177845Y-128143000D01*
X173056524Y-128372890D01*
X159639911Y-128372890D01*
X163187779Y-124825023D01*
X163404273Y-124969680D01*
X163665426Y-125077853D01*
X163942665Y-125133000D01*
X164225335Y-125133000D01*
X164502574Y-125077853D01*
X164763727Y-124969680D01*
X164998759Y-124812637D01*
X165198637Y-124612759D01*
X165354000Y-124380241D01*
X165509363Y-124612759D01*
X165709241Y-124812637D01*
X165944273Y-124969680D01*
X166205426Y-125077853D01*
X166482665Y-125133000D01*
X166765335Y-125133000D01*
X167042574Y-125077853D01*
X167303727Y-124969680D01*
X167538759Y-124812637D01*
X167738637Y-124612759D01*
X167894000Y-124380241D01*
X168049363Y-124612759D01*
X168249241Y-124812637D01*
X168484273Y-124969680D01*
X168745426Y-125077853D01*
X169022665Y-125133000D01*
X169305335Y-125133000D01*
X169582574Y-125077853D01*
X169843727Y-124969680D01*
X170078759Y-124812637D01*
X170278637Y-124612759D01*
X170435680Y-124377727D01*
X170468263Y-124299065D01*
X173308352Y-127139154D01*
X173226359Y-127249080D01*
X173101175Y-127511901D01*
X173056524Y-127659110D01*
X173177845Y-127889000D01*
X174371000Y-127889000D01*
X174371000Y-127869000D01*
X174625000Y-127869000D01*
X174625000Y-127889000D01*
X176911000Y-127889000D01*
X176911000Y-127869000D01*
X177165000Y-127869000D01*
X177165000Y-127889000D01*
X178358155Y-127889000D01*
X178479476Y-127659110D01*
X178434825Y-127511901D01*
X178309641Y-127249080D01*
X178135588Y-127015731D01*
X177919355Y-126820822D01*
X177802466Y-126751195D01*
X177984632Y-126629475D01*
X178191475Y-126422632D01*
X178353990Y-126179411D01*
X178465932Y-125909158D01*
X178523000Y-125622260D01*
X178523000Y-125329740D01*
X178465932Y-125042842D01*
X178353990Y-124772589D01*
X178191475Y-124529368D01*
X177984632Y-124322525D01*
X177810240Y-124206000D01*
X177984632Y-124089475D01*
X178191475Y-123882632D01*
X178353990Y-123639411D01*
X178465932Y-123369158D01*
X178523000Y-123082260D01*
X178523000Y-122789740D01*
X178465932Y-122502842D01*
X178353990Y-122232589D01*
X178191475Y-121989368D01*
X177984632Y-121782525D01*
X177810240Y-121666000D01*
X177984632Y-121549475D01*
X178191475Y-121342632D01*
X178353990Y-121099411D01*
X178465932Y-120829158D01*
X178523000Y-120542260D01*
X178523000Y-120249740D01*
X178465932Y-119962842D01*
X178353990Y-119692589D01*
X178191475Y-119449368D01*
X177984632Y-119242525D01*
X177810240Y-119126000D01*
X177984632Y-119009475D01*
X178191475Y-118802632D01*
X178353990Y-118559411D01*
X178465932Y-118289158D01*
X178523000Y-118002260D01*
X178523000Y-117709740D01*
X178465932Y-117422842D01*
X178353990Y-117152589D01*
X178191475Y-116909368D01*
X177984632Y-116702525D01*
X177810240Y-116586000D01*
X177984632Y-116469475D01*
X178191475Y-116262632D01*
X178353990Y-116019411D01*
X178465932Y-115749158D01*
X178523000Y-115462260D01*
X178523000Y-115169740D01*
X178465932Y-114882842D01*
X178353990Y-114612589D01*
X178191475Y-114369368D01*
X177984632Y-114162525D01*
X177810240Y-114046000D01*
X177984632Y-113929475D01*
X178191475Y-113722632D01*
X178353990Y-113479411D01*
X178465932Y-113209158D01*
X178523000Y-112922260D01*
X178523000Y-112629740D01*
X178465932Y-112342842D01*
X178353990Y-112072589D01*
X178191475Y-111829368D01*
X177984632Y-111622525D01*
X177810240Y-111506000D01*
X177984632Y-111389475D01*
X178191475Y-111182632D01*
X178353990Y-110939411D01*
X178465932Y-110669158D01*
X178523000Y-110382260D01*
X178523000Y-110089740D01*
X178465932Y-109802842D01*
X178353990Y-109532589D01*
X178191475Y-109289368D01*
X177984632Y-109082525D01*
X177810240Y-108966000D01*
X177984632Y-108849475D01*
X178191475Y-108642632D01*
X178353990Y-108399411D01*
X178465932Y-108129158D01*
X178523000Y-107842260D01*
X178523000Y-107549740D01*
X178465932Y-107262842D01*
X178353990Y-106992589D01*
X178191475Y-106749368D01*
X177984632Y-106542525D01*
X177810240Y-106426000D01*
X177984632Y-106309475D01*
X178191475Y-106102632D01*
X178353990Y-105859411D01*
X178465932Y-105589158D01*
X178523000Y-105302260D01*
X178523000Y-105009740D01*
X178465932Y-104722842D01*
X178353990Y-104452589D01*
X178191475Y-104209368D01*
X177984632Y-104002525D01*
X177810240Y-103886000D01*
X177984632Y-103769475D01*
X178191475Y-103562632D01*
X178353990Y-103319411D01*
X178465932Y-103049158D01*
X178523000Y-102762260D01*
X178523000Y-102469740D01*
X178465932Y-102182842D01*
X178353990Y-101912589D01*
X178191475Y-101669368D01*
X177984632Y-101462525D01*
X177810240Y-101346000D01*
X177984632Y-101229475D01*
X178191475Y-101022632D01*
X178353990Y-100779411D01*
X178465932Y-100509158D01*
X178523000Y-100222260D01*
X178523000Y-99929740D01*
X178465932Y-99642842D01*
X178353990Y-99372589D01*
X178191475Y-99129368D01*
X177984632Y-98922525D01*
X177741411Y-98760010D01*
X177471158Y-98648068D01*
X177184260Y-98591000D01*
X176891740Y-98591000D01*
X176604842Y-98648068D01*
X176334589Y-98760010D01*
X176091368Y-98922525D01*
X175959513Y-99054380D01*
X175937502Y-98981820D01*
X175878537Y-98871506D01*
X175799185Y-98774815D01*
X175702494Y-98695463D01*
X175592180Y-98636498D01*
X175472482Y-98600188D01*
X175348000Y-98587928D01*
X173648000Y-98587928D01*
X173523518Y-98600188D01*
X173403820Y-98636498D01*
X173293506Y-98695463D01*
X173196815Y-98774815D01*
X173117463Y-98871506D01*
X173058498Y-98981820D01*
X173022188Y-99101518D01*
X173009928Y-99226000D01*
X173009928Y-100926000D01*
X173022188Y-101050482D01*
X173058498Y-101170180D01*
X173117463Y-101280494D01*
X173196815Y-101377185D01*
X173293506Y-101456537D01*
X173403820Y-101515502D01*
X173476380Y-101537513D01*
X173344525Y-101669368D01*
X173182010Y-101912589D01*
X173070068Y-102182842D01*
X173013000Y-102469740D01*
X173013000Y-102762260D01*
X173070068Y-103049158D01*
X173182010Y-103319411D01*
X173317705Y-103522493D01*
X172272998Y-104567201D01*
X172244000Y-104590999D01*
X172220202Y-104619997D01*
X172220201Y-104619998D01*
X172149026Y-104706724D01*
X172078454Y-104838754D01*
X172034998Y-104982015D01*
X172020324Y-105131000D01*
X172024001Y-105168332D01*
X172024000Y-106873115D01*
X170565570Y-108330998D01*
X170440252Y-108330998D01*
X170599000Y-108172250D01*
X170602072Y-107658000D01*
X170589812Y-107533518D01*
X170553502Y-107413820D01*
X170494537Y-107303506D01*
X170415185Y-107206815D01*
X170318494Y-107127463D01*
X170208180Y-107068498D01*
X170088482Y-107032188D01*
X169964000Y-107019928D01*
X169449750Y-107023000D01*
X169291000Y-107181750D01*
X169291000Y-108331000D01*
X169311000Y-108331000D01*
X169311000Y-108585000D01*
X169291000Y-108585000D01*
X169291000Y-108605000D01*
X169037000Y-108605000D01*
X169037000Y-108585000D01*
X169017000Y-108585000D01*
X169017000Y-108331000D01*
X169037000Y-108331000D01*
X169037000Y-107181750D01*
X168878250Y-107023000D01*
X168364000Y-107019928D01*
X168239518Y-107032188D01*
X168119820Y-107068498D01*
X168009506Y-107127463D01*
X167912815Y-107206815D01*
X167833463Y-107303506D01*
X167774498Y-107413820D01*
X167738188Y-107533518D01*
X167737357Y-107541961D01*
X167538759Y-107343363D01*
X167384000Y-107239957D01*
X167384000Y-103292072D01*
X168948000Y-103292072D01*
X169072482Y-103279812D01*
X169192180Y-103243502D01*
X169302494Y-103184537D01*
X169399185Y-103105185D01*
X169478537Y-103008494D01*
X169537502Y-102898180D01*
X169573812Y-102778482D01*
X169586072Y-102654000D01*
X169586072Y-101054000D01*
X169573812Y-100929518D01*
X169537502Y-100809820D01*
X169478537Y-100699506D01*
X169399185Y-100602815D01*
X169302494Y-100523463D01*
X169192180Y-100464498D01*
X169072482Y-100428188D01*
X168948000Y-100415928D01*
X167784730Y-100415928D01*
X166044804Y-98676003D01*
X166021001Y-98646999D01*
X165905276Y-98552026D01*
X165773247Y-98481454D01*
X165629986Y-98437997D01*
X165518333Y-98427000D01*
X165518322Y-98427000D01*
X165481000Y-98423324D01*
X165443678Y-98427000D01*
X161697953Y-98427000D01*
X161732494Y-98408537D01*
X161829185Y-98329185D01*
X161908537Y-98232494D01*
X161967502Y-98122180D01*
X162003812Y-98002482D01*
X162016072Y-97878000D01*
X162013000Y-97313750D01*
X161854250Y-97155000D01*
X160655000Y-97155000D01*
X160655000Y-97175000D01*
X160401000Y-97175000D01*
X160401000Y-97155000D01*
X160381000Y-97155000D01*
X160381000Y-96901000D01*
X160401000Y-96901000D01*
X160401000Y-95701750D01*
X160655000Y-95701750D01*
X160655000Y-96901000D01*
X161854250Y-96901000D01*
X162013000Y-96742250D01*
X162016072Y-96178000D01*
X162003812Y-96053518D01*
X161967502Y-95933820D01*
X161908537Y-95823506D01*
X161829185Y-95726815D01*
X161732494Y-95647463D01*
X161622180Y-95588498D01*
X161502482Y-95552188D01*
X161378000Y-95539928D01*
X160813750Y-95543000D01*
X160655000Y-95701750D01*
X160401000Y-95701750D01*
X160242250Y-95543000D01*
X159678000Y-95539928D01*
X159553518Y-95552188D01*
X159433820Y-95588498D01*
X159323506Y-95647463D01*
X159226815Y-95726815D01*
X159147463Y-95823506D01*
X159088498Y-95933820D01*
X159066487Y-96006380D01*
X158934632Y-95874525D01*
X158691411Y-95712010D01*
X158421158Y-95600068D01*
X158134260Y-95543000D01*
X157841740Y-95543000D01*
X157554842Y-95600068D01*
X157284589Y-95712010D01*
X157041368Y-95874525D01*
X156834525Y-96081368D01*
X156718000Y-96255760D01*
X156601475Y-96081368D01*
X156394632Y-95874525D01*
X156151411Y-95712010D01*
X155881158Y-95600068D01*
X155594260Y-95543000D01*
X155301740Y-95543000D01*
X155014842Y-95600068D01*
X154744589Y-95712010D01*
X154501368Y-95874525D01*
X154323586Y-96052307D01*
X153303734Y-95032456D01*
X153276017Y-94998683D01*
X153141259Y-94888089D01*
X152987513Y-94805911D01*
X152820690Y-94755305D01*
X152690677Y-94742500D01*
X152690669Y-94742500D01*
X152647200Y-94738219D01*
X152603731Y-94742500D01*
X132253965Y-94742500D01*
X132210499Y-94738219D01*
X132167033Y-94742500D01*
X132167023Y-94742500D01*
X132037010Y-94755305D01*
X131870187Y-94805911D01*
X131716441Y-94888089D01*
X131712548Y-94891284D01*
X131615453Y-94970968D01*
X131615451Y-94970970D01*
X131581683Y-94998683D01*
X131553970Y-95032451D01*
X131028960Y-95557461D01*
X130956260Y-95543000D01*
X130663740Y-95543000D01*
X130376842Y-95600068D01*
X130106589Y-95712010D01*
X129863368Y-95874525D01*
X129656525Y-96081368D01*
X129615344Y-96143000D01*
X126115469Y-96143000D01*
X126072000Y-96138719D01*
X126028531Y-96143000D01*
X126028523Y-96143000D01*
X125898510Y-96155805D01*
X125731686Y-96206411D01*
X125577941Y-96288589D01*
X125476953Y-96371468D01*
X125476951Y-96371470D01*
X125443183Y-96399183D01*
X125415470Y-96432951D01*
X120308952Y-101539470D01*
X120275184Y-101567183D01*
X120247471Y-101600951D01*
X120247468Y-101600954D01*
X120164590Y-101701941D01*
X120082412Y-101855687D01*
X120031805Y-102022510D01*
X120014719Y-102196000D01*
X120019001Y-102239479D01*
X120019000Y-107323479D01*
X119989241Y-107343363D01*
X119789363Y-107543241D01*
X119769479Y-107573000D01*
X117720521Y-107573000D01*
X117700637Y-107543241D01*
X117500759Y-107343363D01*
X117265727Y-107186320D01*
X117004574Y-107078147D01*
X116727335Y-107023000D01*
X116444665Y-107023000D01*
X116167426Y-107078147D01*
X115906273Y-107186320D01*
X115671241Y-107343363D01*
X115471363Y-107543241D01*
X115314320Y-107778273D01*
X115206147Y-108039426D01*
X115151000Y-108316665D01*
X115151000Y-108599335D01*
X115206147Y-108876574D01*
X115314320Y-109137727D01*
X115471363Y-109372759D01*
X115671241Y-109572637D01*
X115871869Y-109706692D01*
X115844486Y-109721329D01*
X115772903Y-109965298D01*
X116586000Y-110778395D01*
X117399097Y-109965298D01*
X117327514Y-109721329D01*
X117298659Y-109707676D01*
X117500759Y-109572637D01*
X117700637Y-109372759D01*
X117720521Y-109343000D01*
X119769479Y-109343000D01*
X119789363Y-109372759D01*
X119989241Y-109572637D01*
X120224273Y-109729680D01*
X120485426Y-109837853D01*
X120762665Y-109893000D01*
X121045335Y-109893000D01*
X121322574Y-109837853D01*
X121583727Y-109729680D01*
X121818759Y-109572637D01*
X122018637Y-109372759D01*
X122174000Y-109140241D01*
X122329363Y-109372759D01*
X122529241Y-109572637D01*
X122764273Y-109729680D01*
X123025426Y-109837853D01*
X123302665Y-109893000D01*
X123585335Y-109893000D01*
X123767887Y-109856688D01*
X133395200Y-119484002D01*
X133418999Y-119513001D01*
X133447997Y-119536799D01*
X133534724Y-119607974D01*
X133666753Y-119678546D01*
X133810014Y-119722003D01*
X133959000Y-119736677D01*
X133996333Y-119733000D01*
X165902199Y-119733000D01*
X168562936Y-122393737D01*
X168484273Y-122426320D01*
X168249241Y-122583363D01*
X168049363Y-122783241D01*
X167894000Y-123015759D01*
X167738637Y-122783241D01*
X167538759Y-122583363D01*
X167303727Y-122426320D01*
X167042574Y-122318147D01*
X166765335Y-122263000D01*
X166482665Y-122263000D01*
X166205426Y-122318147D01*
X165944273Y-122426320D01*
X165709241Y-122583363D01*
X165509363Y-122783241D01*
X165354000Y-123015759D01*
X165198637Y-122783241D01*
X164998759Y-122583363D01*
X164763727Y-122426320D01*
X164502574Y-122318147D01*
X164225335Y-122263000D01*
X163942665Y-122263000D01*
X163665426Y-122318147D01*
X163404273Y-122426320D01*
X163169241Y-122583363D01*
X162969363Y-122783241D01*
X162862053Y-122943842D01*
X162809714Y-122948997D01*
X162776187Y-122959167D01*
X162658637Y-122783241D01*
X162458759Y-122583363D01*
X162223727Y-122426320D01*
X161962574Y-122318147D01*
X161685335Y-122263000D01*
X161402665Y-122263000D01*
X161125426Y-122318147D01*
X160864273Y-122426320D01*
X160629241Y-122583363D01*
X160429363Y-122783241D01*
X160274000Y-123015759D01*
X160118637Y-122783241D01*
X159918759Y-122583363D01*
X159683727Y-122426320D01*
X159422574Y-122318147D01*
X159145335Y-122263000D01*
X158862665Y-122263000D01*
X158585426Y-122318147D01*
X158324273Y-122426320D01*
X158089241Y-122583363D01*
X158057503Y-122615101D01*
X155642504Y-120200103D01*
X155618701Y-120171099D01*
X155502976Y-120076126D01*
X155370947Y-120005554D01*
X155227686Y-119962097D01*
X155116033Y-119951100D01*
X155116022Y-119951100D01*
X155078700Y-119947424D01*
X155041378Y-119951100D01*
X127312222Y-119951100D01*
X127274899Y-119947424D01*
X127237576Y-119951100D01*
X127237567Y-119951100D01*
X127125914Y-119962097D01*
X126982653Y-120005554D01*
X126850624Y-120076126D01*
X126734899Y-120171099D01*
X126711101Y-120200097D01*
X124340222Y-122570977D01*
X124123727Y-122426320D01*
X123862574Y-122318147D01*
X123585335Y-122263000D01*
X123302665Y-122263000D01*
X123025426Y-122318147D01*
X122764273Y-122426320D01*
X122529241Y-122583363D01*
X122329363Y-122783241D01*
X122174000Y-123015759D01*
X122018637Y-122783241D01*
X121818759Y-122583363D01*
X121583727Y-122426320D01*
X121322574Y-122318147D01*
X121045335Y-122263000D01*
X120762665Y-122263000D01*
X120485426Y-122318147D01*
X120224273Y-122426320D01*
X119989241Y-122583363D01*
X119789363Y-122783241D01*
X119632320Y-123018273D01*
X119524147Y-123279426D01*
X119469000Y-123556665D01*
X119469000Y-123839335D01*
X119524147Y-124116574D01*
X119632320Y-124377727D01*
X119789363Y-124612759D01*
X119989241Y-124812637D01*
X120224273Y-124969680D01*
X120485426Y-125077853D01*
X120762665Y-125133000D01*
X121045335Y-125133000D01*
X121322574Y-125077853D01*
X121583727Y-124969680D01*
X121818759Y-124812637D01*
X122018637Y-124612759D01*
X122174000Y-124380241D01*
X122329363Y-124612759D01*
X122529241Y-124812637D01*
X122764273Y-124969680D01*
X123025426Y-125077853D01*
X123302665Y-125133000D01*
X123585335Y-125133000D01*
X123862574Y-125077853D01*
X124123727Y-124969680D01*
X124358759Y-124812637D01*
X124558637Y-124612759D01*
X124665947Y-124452158D01*
X124718286Y-124447003D01*
X124751813Y-124436833D01*
X124869363Y-124612759D01*
X125069241Y-124812637D01*
X125304273Y-124969680D01*
X125565426Y-125077853D01*
X125842665Y-125133000D01*
X126125335Y-125133000D01*
X126402574Y-125077853D01*
X126663727Y-124969680D01*
X126898759Y-124812637D01*
X127098637Y-124612759D01*
X127254000Y-124380241D01*
X127409363Y-124612759D01*
X127609241Y-124812637D01*
X127844273Y-124969680D01*
X127925198Y-125003200D01*
X124732217Y-128196182D01*
X124607724Y-128262726D01*
X124491999Y-128357699D01*
X124397026Y-128473424D01*
X124326454Y-128605453D01*
X124282997Y-128748714D01*
X124278911Y-128790204D01*
X124085368Y-128919525D01*
X123878525Y-129126368D01*
X123756805Y-129308534D01*
X123687178Y-129191645D01*
X123492269Y-128975412D01*
X123258920Y-128801359D01*
X122996099Y-128676175D01*
X122848890Y-128631524D01*
X122619000Y-128752845D01*
X122619000Y-129946000D01*
X122639000Y-129946000D01*
X122639000Y-130200000D01*
X122619000Y-130200000D01*
X122619000Y-132486000D01*
X122639000Y-132486000D01*
X122639000Y-132740000D01*
X122619000Y-132740000D01*
X122619000Y-132760000D01*
X122365000Y-132760000D01*
X122365000Y-132740000D01*
X122345000Y-132740000D01*
X122345000Y-132486000D01*
X122365000Y-132486000D01*
X122365000Y-130200000D01*
X122345000Y-130200000D01*
X122345000Y-129946000D01*
X122365000Y-129946000D01*
X122365000Y-128752845D01*
X122135110Y-128631524D01*
X121987901Y-128676175D01*
X121725080Y-128801359D01*
X121491731Y-128975412D01*
X121296822Y-129191645D01*
X121227195Y-129308534D01*
X121105475Y-129126368D01*
X120898632Y-128919525D01*
X120655411Y-128757010D01*
X120385158Y-128645068D01*
X120098260Y-128588000D01*
X119805740Y-128588000D01*
X119518842Y-128645068D01*
X119248589Y-128757010D01*
X119005368Y-128919525D01*
X118798525Y-129126368D01*
X118636010Y-129369589D01*
X118524068Y-129639842D01*
X118467000Y-129926740D01*
X118467000Y-130219260D01*
X118524068Y-130506158D01*
X118636010Y-130776411D01*
X118798525Y-131019632D01*
X119005368Y-131226475D01*
X119179760Y-131343000D01*
X119005368Y-131459525D01*
X118798525Y-131666368D01*
X118636010Y-131909589D01*
X118524068Y-132179842D01*
X118467000Y-132466740D01*
X118467000Y-132759260D01*
X118524068Y-133046158D01*
X118636010Y-133316411D01*
X118798525Y-133559632D01*
X119005368Y-133766475D01*
X119248589Y-133928990D01*
X119518842Y-134040932D01*
X119805740Y-134098000D01*
X120098260Y-134098000D01*
X120170960Y-134083539D01*
X120784421Y-134697000D01*
X113377353Y-134697000D01*
X113283044Y-134706289D01*
X113145124Y-134692766D01*
X112889376Y-134615551D01*
X112653496Y-134490131D01*
X112446475Y-134321289D01*
X112276187Y-134115446D01*
X112149121Y-133880444D01*
X112070123Y-133625240D01*
X112054678Y-133478291D01*
X112064000Y-133383647D01*
X112064000Y-111950702D01*
X115772903Y-111950702D01*
X115844486Y-112194671D01*
X116099996Y-112315571D01*
X116374184Y-112384300D01*
X116656512Y-112398217D01*
X116936130Y-112356787D01*
X117202292Y-112261603D01*
X117327514Y-112194671D01*
X117399097Y-111950702D01*
X116586000Y-111137605D01*
X115772903Y-111950702D01*
X112064000Y-111950702D01*
X112064000Y-111028512D01*
X115145783Y-111028512D01*
X115187213Y-111308130D01*
X115282397Y-111574292D01*
X115349329Y-111699514D01*
X115593298Y-111771097D01*
X116406395Y-110958000D01*
X116765605Y-110958000D01*
X117578702Y-111771097D01*
X117822671Y-111699514D01*
X117943571Y-111444004D01*
X118012300Y-111169816D01*
X118026217Y-110887488D01*
X117984787Y-110607870D01*
X117889603Y-110341708D01*
X117822671Y-110216486D01*
X117578702Y-110144903D01*
X116765605Y-110958000D01*
X116406395Y-110958000D01*
X115593298Y-110144903D01*
X115349329Y-110216486D01*
X115228429Y-110471996D01*
X115159700Y-110746184D01*
X115145783Y-111028512D01*
X112064000Y-111028512D01*
X112064000Y-94200353D01*
X112054711Y-94106043D01*
X112068234Y-93968125D01*
X112145448Y-93712378D01*
X112270869Y-93476496D01*
X112439716Y-93269470D01*
X112645554Y-93099187D01*
X112880556Y-92972121D01*
X113135756Y-92893124D01*
X113282711Y-92877678D01*
X113377353Y-92887000D01*
%TA.AperFunction,Conductor*%
D19*
G36*
X113377353Y-92887000D02*
G01*
X181996620Y-92887000D01*
X186894000Y-97784381D01*
X186894001Y-133383647D01*
X186903289Y-133477951D01*
X186889766Y-133615876D01*
X186812551Y-133871624D01*
X186687131Y-134107504D01*
X186518289Y-134314525D01*
X186312446Y-134484813D01*
X186077444Y-134611879D01*
X185822240Y-134690877D01*
X185675291Y-134706322D01*
X185580647Y-134697000D01*
X154679578Y-134697000D01*
X155293040Y-134083539D01*
X155365740Y-134098000D01*
X155658260Y-134098000D01*
X155945158Y-134040932D01*
X156215411Y-133928990D01*
X156458632Y-133766475D01*
X156665475Y-133559632D01*
X156787195Y-133377466D01*
X156856822Y-133494355D01*
X157051731Y-133710588D01*
X157285080Y-133884641D01*
X157547901Y-134009825D01*
X157695110Y-134054476D01*
X157925000Y-133933155D01*
X157925000Y-132740000D01*
X158179000Y-132740000D01*
X158179000Y-133933155D01*
X158408890Y-134054476D01*
X158556099Y-134009825D01*
X158818920Y-133884641D01*
X159052269Y-133710588D01*
X159247178Y-133494355D01*
X159396157Y-133244252D01*
X159493481Y-132969891D01*
X159372814Y-132740000D01*
X158179000Y-132740000D01*
X157925000Y-132740000D01*
X157905000Y-132740000D01*
X157905000Y-132486000D01*
X157925000Y-132486000D01*
X157925000Y-130200000D01*
X158179000Y-130200000D01*
X158179000Y-132486000D01*
X159372814Y-132486000D01*
X159493481Y-132256109D01*
X159396157Y-131981748D01*
X159247178Y-131731645D01*
X159070374Y-131535498D01*
X159146180Y-131512502D01*
X159256494Y-131453537D01*
X159353185Y-131374185D01*
X159432537Y-131277494D01*
X159491502Y-131167180D01*
X159527812Y-131047482D01*
X159540072Y-130923000D01*
X159537000Y-130358750D01*
X159378250Y-130200000D01*
X158179000Y-130200000D01*
X157925000Y-130200000D01*
X157905000Y-130200000D01*
X157905000Y-129946000D01*
X157925000Y-129946000D01*
X157925000Y-129926000D01*
X158179000Y-129926000D01*
X158179000Y-129946000D01*
X159378250Y-129946000D01*
X159537000Y-129787250D01*
X159540072Y-129223000D01*
X159527812Y-129098518D01*
X159491502Y-128978820D01*
X159432537Y-128868506D01*
X159353185Y-128771815D01*
X159291560Y-128721241D01*
X159639911Y-128372890D01*
X173056524Y-128372890D01*
X173101175Y-128520099D01*
X173226359Y-128782920D01*
X173400412Y-129016269D01*
X173616645Y-129211178D01*
X173866748Y-129360157D01*
X174141109Y-129457481D01*
X174371000Y-129336814D01*
X174371000Y-128143000D01*
X174625000Y-128143000D01*
X174625000Y-129336814D01*
X174854891Y-129457481D01*
X175129252Y-129360157D01*
X175379355Y-129211178D01*
X175595588Y-129016269D01*
X175768000Y-128785120D01*
X175940412Y-129016269D01*
X176156645Y-129211178D01*
X176406748Y-129360157D01*
X176681109Y-129457481D01*
X176911000Y-129336814D01*
X176911000Y-128143000D01*
X177165000Y-128143000D01*
X177165000Y-129336814D01*
X177394891Y-129457481D01*
X177669252Y-129360157D01*
X177919355Y-129211178D01*
X178135588Y-129016269D01*
X178309641Y-128782920D01*
X178434825Y-128520099D01*
X178479476Y-128372890D01*
X178358155Y-128143000D01*
X177165000Y-128143000D01*
X176911000Y-128143000D01*
X174625000Y-128143000D01*
X174371000Y-128143000D01*
X173177845Y-128143000D01*
X173056524Y-128372890D01*
X159639911Y-128372890D01*
X163187779Y-124825023D01*
X163404273Y-124969680D01*
X163665426Y-125077853D01*
X163942665Y-125133000D01*
X164225335Y-125133000D01*
X164502574Y-125077853D01*
X164763727Y-124969680D01*
X164998759Y-124812637D01*
X165198637Y-124612759D01*
X165354000Y-124380241D01*
X165509363Y-124612759D01*
X165709241Y-124812637D01*
X165944273Y-124969680D01*
X166205426Y-125077853D01*
X166482665Y-125133000D01*
X166765335Y-125133000D01*
X167042574Y-125077853D01*
X167303727Y-124969680D01*
X167538759Y-124812637D01*
X167738637Y-124612759D01*
X167894000Y-124380241D01*
X168049363Y-124612759D01*
X168249241Y-124812637D01*
X168484273Y-124969680D01*
X168745426Y-125077853D01*
X169022665Y-125133000D01*
X169305335Y-125133000D01*
X169582574Y-125077853D01*
X169843727Y-124969680D01*
X170078759Y-124812637D01*
X170278637Y-124612759D01*
X170435680Y-124377727D01*
X170468263Y-124299065D01*
X173308352Y-127139154D01*
X173226359Y-127249080D01*
X173101175Y-127511901D01*
X173056524Y-127659110D01*
X173177845Y-127889000D01*
X174371000Y-127889000D01*
X174371000Y-127869000D01*
X174625000Y-127869000D01*
X174625000Y-127889000D01*
X176911000Y-127889000D01*
X176911000Y-127869000D01*
X177165000Y-127869000D01*
X177165000Y-127889000D01*
X178358155Y-127889000D01*
X178479476Y-127659110D01*
X178434825Y-127511901D01*
X178309641Y-127249080D01*
X178135588Y-127015731D01*
X177919355Y-126820822D01*
X177802466Y-126751195D01*
X177984632Y-126629475D01*
X178191475Y-126422632D01*
X178353990Y-126179411D01*
X178465932Y-125909158D01*
X178523000Y-125622260D01*
X178523000Y-125329740D01*
X178465932Y-125042842D01*
X178353990Y-124772589D01*
X178191475Y-124529368D01*
X177984632Y-124322525D01*
X177810240Y-124206000D01*
X177984632Y-124089475D01*
X178191475Y-123882632D01*
X178353990Y-123639411D01*
X178465932Y-123369158D01*
X178523000Y-123082260D01*
X178523000Y-122789740D01*
X178465932Y-122502842D01*
X178353990Y-122232589D01*
X178191475Y-121989368D01*
X177984632Y-121782525D01*
X177810240Y-121666000D01*
X177984632Y-121549475D01*
X178191475Y-121342632D01*
X178353990Y-121099411D01*
X178465932Y-120829158D01*
X178523000Y-120542260D01*
X178523000Y-120249740D01*
X178465932Y-119962842D01*
X178353990Y-119692589D01*
X178191475Y-119449368D01*
X177984632Y-119242525D01*
X177810240Y-119126000D01*
X177984632Y-119009475D01*
X178191475Y-118802632D01*
X178353990Y-118559411D01*
X178465932Y-118289158D01*
X178523000Y-118002260D01*
X178523000Y-117709740D01*
X178465932Y-117422842D01*
X178353990Y-117152589D01*
X178191475Y-116909368D01*
X177984632Y-116702525D01*
X177810240Y-116586000D01*
X177984632Y-116469475D01*
X178191475Y-116262632D01*
X178353990Y-116019411D01*
X178465932Y-115749158D01*
X178523000Y-115462260D01*
X178523000Y-115169740D01*
X178465932Y-114882842D01*
X178353990Y-114612589D01*
X178191475Y-114369368D01*
X177984632Y-114162525D01*
X177810240Y-114046000D01*
X177984632Y-113929475D01*
X178191475Y-113722632D01*
X178353990Y-113479411D01*
X178465932Y-113209158D01*
X178523000Y-112922260D01*
X178523000Y-112629740D01*
X178465932Y-112342842D01*
X178353990Y-112072589D01*
X178191475Y-111829368D01*
X177984632Y-111622525D01*
X177810240Y-111506000D01*
X177984632Y-111389475D01*
X178191475Y-111182632D01*
X178353990Y-110939411D01*
X178465932Y-110669158D01*
X178523000Y-110382260D01*
X178523000Y-110089740D01*
X178465932Y-109802842D01*
X178353990Y-109532589D01*
X178191475Y-109289368D01*
X177984632Y-109082525D01*
X177810240Y-108966000D01*
X177984632Y-108849475D01*
X178191475Y-108642632D01*
X178353990Y-108399411D01*
X178465932Y-108129158D01*
X178523000Y-107842260D01*
X178523000Y-107549740D01*
X178465932Y-107262842D01*
X178353990Y-106992589D01*
X178191475Y-106749368D01*
X177984632Y-106542525D01*
X177810240Y-106426000D01*
X177984632Y-106309475D01*
X178191475Y-106102632D01*
X178353990Y-105859411D01*
X178465932Y-105589158D01*
X178523000Y-105302260D01*
X178523000Y-105009740D01*
X178465932Y-104722842D01*
X178353990Y-104452589D01*
X178191475Y-104209368D01*
X177984632Y-104002525D01*
X177810240Y-103886000D01*
X177984632Y-103769475D01*
X178191475Y-103562632D01*
X178353990Y-103319411D01*
X178465932Y-103049158D01*
X178523000Y-102762260D01*
X178523000Y-102469740D01*
X178465932Y-102182842D01*
X178353990Y-101912589D01*
X178191475Y-101669368D01*
X177984632Y-101462525D01*
X177810240Y-101346000D01*
X177984632Y-101229475D01*
X178191475Y-101022632D01*
X178353990Y-100779411D01*
X178465932Y-100509158D01*
X178523000Y-100222260D01*
X178523000Y-99929740D01*
X178465932Y-99642842D01*
X178353990Y-99372589D01*
X178191475Y-99129368D01*
X177984632Y-98922525D01*
X177741411Y-98760010D01*
X177471158Y-98648068D01*
X177184260Y-98591000D01*
X176891740Y-98591000D01*
X176604842Y-98648068D01*
X176334589Y-98760010D01*
X176091368Y-98922525D01*
X175959513Y-99054380D01*
X175937502Y-98981820D01*
X175878537Y-98871506D01*
X175799185Y-98774815D01*
X175702494Y-98695463D01*
X175592180Y-98636498D01*
X175472482Y-98600188D01*
X175348000Y-98587928D01*
X173648000Y-98587928D01*
X173523518Y-98600188D01*
X173403820Y-98636498D01*
X173293506Y-98695463D01*
X173196815Y-98774815D01*
X173117463Y-98871506D01*
X173058498Y-98981820D01*
X173022188Y-99101518D01*
X173009928Y-99226000D01*
X173009928Y-100926000D01*
X173022188Y-101050482D01*
X173058498Y-101170180D01*
X173117463Y-101280494D01*
X173196815Y-101377185D01*
X173293506Y-101456537D01*
X173403820Y-101515502D01*
X173476380Y-101537513D01*
X173344525Y-101669368D01*
X173182010Y-101912589D01*
X173070068Y-102182842D01*
X173013000Y-102469740D01*
X173013000Y-102762260D01*
X173070068Y-103049158D01*
X173182010Y-103319411D01*
X173317705Y-103522493D01*
X172272998Y-104567201D01*
X172244000Y-104590999D01*
X172220202Y-104619997D01*
X172220201Y-104619998D01*
X172149026Y-104706724D01*
X172078454Y-104838754D01*
X172034998Y-104982015D01*
X172020324Y-105131000D01*
X172024001Y-105168332D01*
X172024000Y-106873115D01*
X170565570Y-108330998D01*
X170440252Y-108330998D01*
X170599000Y-108172250D01*
X170602072Y-107658000D01*
X170589812Y-107533518D01*
X170553502Y-107413820D01*
X170494537Y-107303506D01*
X170415185Y-107206815D01*
X170318494Y-107127463D01*
X170208180Y-107068498D01*
X170088482Y-107032188D01*
X169964000Y-107019928D01*
X169449750Y-107023000D01*
X169291000Y-107181750D01*
X169291000Y-108331000D01*
X169311000Y-108331000D01*
X169311000Y-108585000D01*
X169291000Y-108585000D01*
X169291000Y-108605000D01*
X169037000Y-108605000D01*
X169037000Y-108585000D01*
X169017000Y-108585000D01*
X169017000Y-108331000D01*
X169037000Y-108331000D01*
X169037000Y-107181750D01*
X168878250Y-107023000D01*
X168364000Y-107019928D01*
X168239518Y-107032188D01*
X168119820Y-107068498D01*
X168009506Y-107127463D01*
X167912815Y-107206815D01*
X167833463Y-107303506D01*
X167774498Y-107413820D01*
X167738188Y-107533518D01*
X167737357Y-107541961D01*
X167538759Y-107343363D01*
X167384000Y-107239957D01*
X167384000Y-103292072D01*
X168948000Y-103292072D01*
X169072482Y-103279812D01*
X169192180Y-103243502D01*
X169302494Y-103184537D01*
X169399185Y-103105185D01*
X169478537Y-103008494D01*
X169537502Y-102898180D01*
X169573812Y-102778482D01*
X169586072Y-102654000D01*
X169586072Y-101054000D01*
X169573812Y-100929518D01*
X169537502Y-100809820D01*
X169478537Y-100699506D01*
X169399185Y-100602815D01*
X169302494Y-100523463D01*
X169192180Y-100464498D01*
X169072482Y-100428188D01*
X168948000Y-100415928D01*
X167784730Y-100415928D01*
X166044804Y-98676003D01*
X166021001Y-98646999D01*
X165905276Y-98552026D01*
X165773247Y-98481454D01*
X165629986Y-98437997D01*
X165518333Y-98427000D01*
X165518322Y-98427000D01*
X165481000Y-98423324D01*
X165443678Y-98427000D01*
X161697953Y-98427000D01*
X161732494Y-98408537D01*
X161829185Y-98329185D01*
X161908537Y-98232494D01*
X161967502Y-98122180D01*
X162003812Y-98002482D01*
X162016072Y-97878000D01*
X162013000Y-97313750D01*
X161854250Y-97155000D01*
X160655000Y-97155000D01*
X160655000Y-97175000D01*
X160401000Y-97175000D01*
X160401000Y-97155000D01*
X160381000Y-97155000D01*
X160381000Y-96901000D01*
X160401000Y-96901000D01*
X160401000Y-95701750D01*
X160655000Y-95701750D01*
X160655000Y-96901000D01*
X161854250Y-96901000D01*
X162013000Y-96742250D01*
X162016072Y-96178000D01*
X162003812Y-96053518D01*
X161967502Y-95933820D01*
X161908537Y-95823506D01*
X161829185Y-95726815D01*
X161732494Y-95647463D01*
X161622180Y-95588498D01*
X161502482Y-95552188D01*
X161378000Y-95539928D01*
X160813750Y-95543000D01*
X160655000Y-95701750D01*
X160401000Y-95701750D01*
X160242250Y-95543000D01*
X159678000Y-95539928D01*
X159553518Y-95552188D01*
X159433820Y-95588498D01*
X159323506Y-95647463D01*
X159226815Y-95726815D01*
X159147463Y-95823506D01*
X159088498Y-95933820D01*
X159066487Y-96006380D01*
X158934632Y-95874525D01*
X158691411Y-95712010D01*
X158421158Y-95600068D01*
X158134260Y-95543000D01*
X157841740Y-95543000D01*
X157554842Y-95600068D01*
X157284589Y-95712010D01*
X157041368Y-95874525D01*
X156834525Y-96081368D01*
X156718000Y-96255760D01*
X156601475Y-96081368D01*
X156394632Y-95874525D01*
X156151411Y-95712010D01*
X155881158Y-95600068D01*
X155594260Y-95543000D01*
X155301740Y-95543000D01*
X155014842Y-95600068D01*
X154744589Y-95712010D01*
X154501368Y-95874525D01*
X154323586Y-96052307D01*
X153303734Y-95032456D01*
X153276017Y-94998683D01*
X153141259Y-94888089D01*
X152987513Y-94805911D01*
X152820690Y-94755305D01*
X152690677Y-94742500D01*
X152690669Y-94742500D01*
X152647200Y-94738219D01*
X152603731Y-94742500D01*
X132253965Y-94742500D01*
X132210499Y-94738219D01*
X132167033Y-94742500D01*
X132167023Y-94742500D01*
X132037010Y-94755305D01*
X131870187Y-94805911D01*
X131716441Y-94888089D01*
X131712548Y-94891284D01*
X131615453Y-94970968D01*
X131615451Y-94970970D01*
X131581683Y-94998683D01*
X131553970Y-95032451D01*
X131028960Y-95557461D01*
X130956260Y-95543000D01*
X130663740Y-95543000D01*
X130376842Y-95600068D01*
X130106589Y-95712010D01*
X129863368Y-95874525D01*
X129656525Y-96081368D01*
X129615344Y-96143000D01*
X126115469Y-96143000D01*
X126072000Y-96138719D01*
X126028531Y-96143000D01*
X126028523Y-96143000D01*
X125898510Y-96155805D01*
X125731686Y-96206411D01*
X125577941Y-96288589D01*
X125476953Y-96371468D01*
X125476951Y-96371470D01*
X125443183Y-96399183D01*
X125415470Y-96432951D01*
X120308952Y-101539470D01*
X120275184Y-101567183D01*
X120247471Y-101600951D01*
X120247468Y-101600954D01*
X120164590Y-101701941D01*
X120082412Y-101855687D01*
X120031805Y-102022510D01*
X120014719Y-102196000D01*
X120019001Y-102239479D01*
X120019000Y-107323479D01*
X119989241Y-107343363D01*
X119789363Y-107543241D01*
X119769479Y-107573000D01*
X117720521Y-107573000D01*
X117700637Y-107543241D01*
X117500759Y-107343363D01*
X117265727Y-107186320D01*
X117004574Y-107078147D01*
X116727335Y-107023000D01*
X116444665Y-107023000D01*
X116167426Y-107078147D01*
X115906273Y-107186320D01*
X115671241Y-107343363D01*
X115471363Y-107543241D01*
X115314320Y-107778273D01*
X115206147Y-108039426D01*
X115151000Y-108316665D01*
X115151000Y-108599335D01*
X115206147Y-108876574D01*
X115314320Y-109137727D01*
X115471363Y-109372759D01*
X115671241Y-109572637D01*
X115871869Y-109706692D01*
X115844486Y-109721329D01*
X115772903Y-109965298D01*
X116586000Y-110778395D01*
X117399097Y-109965298D01*
X117327514Y-109721329D01*
X117298659Y-109707676D01*
X117500759Y-109572637D01*
X117700637Y-109372759D01*
X117720521Y-109343000D01*
X119769479Y-109343000D01*
X119789363Y-109372759D01*
X119989241Y-109572637D01*
X120224273Y-109729680D01*
X120485426Y-109837853D01*
X120762665Y-109893000D01*
X121045335Y-109893000D01*
X121322574Y-109837853D01*
X121583727Y-109729680D01*
X121818759Y-109572637D01*
X122018637Y-109372759D01*
X122174000Y-109140241D01*
X122329363Y-109372759D01*
X122529241Y-109572637D01*
X122764273Y-109729680D01*
X123025426Y-109837853D01*
X123302665Y-109893000D01*
X123585335Y-109893000D01*
X123767887Y-109856688D01*
X133395200Y-119484002D01*
X133418999Y-119513001D01*
X133447997Y-119536799D01*
X133534724Y-119607974D01*
X133666753Y-119678546D01*
X133810014Y-119722003D01*
X133959000Y-119736677D01*
X133996333Y-119733000D01*
X165902199Y-119733000D01*
X168562936Y-122393737D01*
X168484273Y-122426320D01*
X168249241Y-122583363D01*
X168049363Y-122783241D01*
X167894000Y-123015759D01*
X167738637Y-122783241D01*
X167538759Y-122583363D01*
X167303727Y-122426320D01*
X167042574Y-122318147D01*
X166765335Y-122263000D01*
X166482665Y-122263000D01*
X166205426Y-122318147D01*
X165944273Y-122426320D01*
X165709241Y-122583363D01*
X165509363Y-122783241D01*
X165354000Y-123015759D01*
X165198637Y-122783241D01*
X164998759Y-122583363D01*
X164763727Y-122426320D01*
X164502574Y-122318147D01*
X164225335Y-122263000D01*
X163942665Y-122263000D01*
X163665426Y-122318147D01*
X163404273Y-122426320D01*
X163169241Y-122583363D01*
X162969363Y-122783241D01*
X162862053Y-122943842D01*
X162809714Y-122948997D01*
X162776187Y-122959167D01*
X162658637Y-122783241D01*
X162458759Y-122583363D01*
X162223727Y-122426320D01*
X161962574Y-122318147D01*
X161685335Y-122263000D01*
X161402665Y-122263000D01*
X161125426Y-122318147D01*
X160864273Y-122426320D01*
X160629241Y-122583363D01*
X160429363Y-122783241D01*
X160274000Y-123015759D01*
X160118637Y-122783241D01*
X159918759Y-122583363D01*
X159683727Y-122426320D01*
X159422574Y-122318147D01*
X159145335Y-122263000D01*
X158862665Y-122263000D01*
X158585426Y-122318147D01*
X158324273Y-122426320D01*
X158089241Y-122583363D01*
X158057503Y-122615101D01*
X155642504Y-120200103D01*
X155618701Y-120171099D01*
X155502976Y-120076126D01*
X155370947Y-120005554D01*
X155227686Y-119962097D01*
X155116033Y-119951100D01*
X155116022Y-119951100D01*
X155078700Y-119947424D01*
X155041378Y-119951100D01*
X127312222Y-119951100D01*
X127274899Y-119947424D01*
X127237576Y-119951100D01*
X127237567Y-119951100D01*
X127125914Y-119962097D01*
X126982653Y-120005554D01*
X126850624Y-120076126D01*
X126734899Y-120171099D01*
X126711101Y-120200097D01*
X124340222Y-122570977D01*
X124123727Y-122426320D01*
X123862574Y-122318147D01*
X123585335Y-122263000D01*
X123302665Y-122263000D01*
X123025426Y-122318147D01*
X122764273Y-122426320D01*
X122529241Y-122583363D01*
X122329363Y-122783241D01*
X122174000Y-123015759D01*
X122018637Y-122783241D01*
X121818759Y-122583363D01*
X121583727Y-122426320D01*
X121322574Y-122318147D01*
X121045335Y-122263000D01*
X120762665Y-122263000D01*
X120485426Y-122318147D01*
X120224273Y-122426320D01*
X119989241Y-122583363D01*
X119789363Y-122783241D01*
X119632320Y-123018273D01*
X119524147Y-123279426D01*
X119469000Y-123556665D01*
X119469000Y-123839335D01*
X119524147Y-124116574D01*
X119632320Y-124377727D01*
X119789363Y-124612759D01*
X119989241Y-124812637D01*
X120224273Y-124969680D01*
X120485426Y-125077853D01*
X120762665Y-125133000D01*
X121045335Y-125133000D01*
X121322574Y-125077853D01*
X121583727Y-124969680D01*
X121818759Y-124812637D01*
X122018637Y-124612759D01*
X122174000Y-124380241D01*
X122329363Y-124612759D01*
X122529241Y-124812637D01*
X122764273Y-124969680D01*
X123025426Y-125077853D01*
X123302665Y-125133000D01*
X123585335Y-125133000D01*
X123862574Y-125077853D01*
X124123727Y-124969680D01*
X124358759Y-124812637D01*
X124558637Y-124612759D01*
X124665947Y-124452158D01*
X124718286Y-124447003D01*
X124751813Y-124436833D01*
X124869363Y-124612759D01*
X125069241Y-124812637D01*
X125304273Y-124969680D01*
X125565426Y-125077853D01*
X125842665Y-125133000D01*
X126125335Y-125133000D01*
X126402574Y-125077853D01*
X126663727Y-124969680D01*
X126898759Y-124812637D01*
X127098637Y-124612759D01*
X127254000Y-124380241D01*
X127409363Y-124612759D01*
X127609241Y-124812637D01*
X127844273Y-124969680D01*
X127925198Y-125003200D01*
X124732217Y-128196182D01*
X124607724Y-128262726D01*
X124491999Y-128357699D01*
X124397026Y-128473424D01*
X124326454Y-128605453D01*
X124282997Y-128748714D01*
X124278911Y-128790204D01*
X124085368Y-128919525D01*
X123878525Y-129126368D01*
X123756805Y-129308534D01*
X123687178Y-129191645D01*
X123492269Y-128975412D01*
X123258920Y-128801359D01*
X122996099Y-128676175D01*
X122848890Y-128631524D01*
X122619000Y-128752845D01*
X122619000Y-129946000D01*
X122639000Y-129946000D01*
X122639000Y-130200000D01*
X122619000Y-130200000D01*
X122619000Y-132486000D01*
X122639000Y-132486000D01*
X122639000Y-132740000D01*
X122619000Y-132740000D01*
X122619000Y-132760000D01*
X122365000Y-132760000D01*
X122365000Y-132740000D01*
X122345000Y-132740000D01*
X122345000Y-132486000D01*
X122365000Y-132486000D01*
X122365000Y-130200000D01*
X122345000Y-130200000D01*
X122345000Y-129946000D01*
X122365000Y-129946000D01*
X122365000Y-128752845D01*
X122135110Y-128631524D01*
X121987901Y-128676175D01*
X121725080Y-128801359D01*
X121491731Y-128975412D01*
X121296822Y-129191645D01*
X121227195Y-129308534D01*
X121105475Y-129126368D01*
X120898632Y-128919525D01*
X120655411Y-128757010D01*
X120385158Y-128645068D01*
X120098260Y-128588000D01*
X119805740Y-128588000D01*
X119518842Y-128645068D01*
X119248589Y-128757010D01*
X119005368Y-128919525D01*
X118798525Y-129126368D01*
X118636010Y-129369589D01*
X118524068Y-129639842D01*
X118467000Y-129926740D01*
X118467000Y-130219260D01*
X118524068Y-130506158D01*
X118636010Y-130776411D01*
X118798525Y-131019632D01*
X119005368Y-131226475D01*
X119179760Y-131343000D01*
X119005368Y-131459525D01*
X118798525Y-131666368D01*
X118636010Y-131909589D01*
X118524068Y-132179842D01*
X118467000Y-132466740D01*
X118467000Y-132759260D01*
X118524068Y-133046158D01*
X118636010Y-133316411D01*
X118798525Y-133559632D01*
X119005368Y-133766475D01*
X119248589Y-133928990D01*
X119518842Y-134040932D01*
X119805740Y-134098000D01*
X120098260Y-134098000D01*
X120170960Y-134083539D01*
X120784421Y-134697000D01*
X113377353Y-134697000D01*
X113283044Y-134706289D01*
X113145124Y-134692766D01*
X112889376Y-134615551D01*
X112653496Y-134490131D01*
X112446475Y-134321289D01*
X112276187Y-134115446D01*
X112149121Y-133880444D01*
X112070123Y-133625240D01*
X112054678Y-133478291D01*
X112064000Y-133383647D01*
X112064000Y-111950702D01*
X115772903Y-111950702D01*
X115844486Y-112194671D01*
X116099996Y-112315571D01*
X116374184Y-112384300D01*
X116656512Y-112398217D01*
X116936130Y-112356787D01*
X117202292Y-112261603D01*
X117327514Y-112194671D01*
X117399097Y-111950702D01*
X116586000Y-111137605D01*
X115772903Y-111950702D01*
X112064000Y-111950702D01*
X112064000Y-111028512D01*
X115145783Y-111028512D01*
X115187213Y-111308130D01*
X115282397Y-111574292D01*
X115349329Y-111699514D01*
X115593298Y-111771097D01*
X116406395Y-110958000D01*
X116765605Y-110958000D01*
X117578702Y-111771097D01*
X117822671Y-111699514D01*
X117943571Y-111444004D01*
X118012300Y-111169816D01*
X118026217Y-110887488D01*
X117984787Y-110607870D01*
X117889603Y-110341708D01*
X117822671Y-110216486D01*
X117578702Y-110144903D01*
X116765605Y-110958000D01*
X116406395Y-110958000D01*
X115593298Y-110144903D01*
X115349329Y-110216486D01*
X115228429Y-110471996D01*
X115159700Y-110746184D01*
X115145783Y-111028512D01*
X112064000Y-111028512D01*
X112064000Y-94200353D01*
X112054711Y-94106043D01*
X112068234Y-93968125D01*
X112145448Y-93712378D01*
X112270869Y-93476496D01*
X112439716Y-93269470D01*
X112645554Y-93099187D01*
X112880556Y-92972121D01*
X113135756Y-92893124D01*
X113282711Y-92877678D01*
X113377353Y-92887000D01*
G37*
%TD.AperFunction*%
D18*
X153391168Y-97623047D02*
X153418883Y-97656817D01*
X153452651Y-97684530D01*
X153452653Y-97684532D01*
X153509775Y-97731411D01*
X153553641Y-97767411D01*
X153707387Y-97849589D01*
X153874210Y-97900195D01*
X154004223Y-97913000D01*
X154004233Y-97913000D01*
X154047699Y-97917281D01*
X154091165Y-97913000D01*
X154253344Y-97913000D01*
X154294525Y-97974632D01*
X154501368Y-98181475D01*
X154744589Y-98343990D01*
X155014842Y-98455932D01*
X155301740Y-98513000D01*
X155594260Y-98513000D01*
X155881158Y-98455932D01*
X156151411Y-98343990D01*
X156394632Y-98181475D01*
X156601475Y-97974632D01*
X156718000Y-97800240D01*
X156834525Y-97974632D01*
X157041368Y-98181475D01*
X157284589Y-98343990D01*
X157554842Y-98455932D01*
X157841740Y-98513000D01*
X158134260Y-98513000D01*
X158354408Y-98469209D01*
X159583200Y-99698002D01*
X159606999Y-99727001D01*
X159635997Y-99750799D01*
X159722723Y-99821974D01*
X159854753Y-99892546D01*
X159998014Y-99936003D01*
X160109667Y-99947000D01*
X160109676Y-99947000D01*
X160146999Y-99950676D01*
X160184322Y-99947000D01*
X165166199Y-99947000D01*
X165638199Y-100419000D01*
X165466665Y-100419000D01*
X165189426Y-100474147D01*
X164928273Y-100582320D01*
X164693241Y-100739363D01*
X164493363Y-100939241D01*
X164338000Y-101171759D01*
X164182637Y-100939241D01*
X163982759Y-100739363D01*
X163747727Y-100582320D01*
X163486574Y-100474147D01*
X163209335Y-100419000D01*
X162926665Y-100419000D01*
X162649426Y-100474147D01*
X162388273Y-100582320D01*
X162153241Y-100739363D01*
X161953363Y-100939241D01*
X161798000Y-101171759D01*
X161642637Y-100939241D01*
X161442759Y-100739363D01*
X161207727Y-100582320D01*
X160946574Y-100474147D01*
X160669335Y-100419000D01*
X160386665Y-100419000D01*
X160109426Y-100474147D01*
X159848273Y-100582320D01*
X159613241Y-100739363D01*
X159413363Y-100939241D01*
X159258000Y-101171759D01*
X159102637Y-100939241D01*
X158902759Y-100739363D01*
X158667727Y-100582320D01*
X158406574Y-100474147D01*
X158129335Y-100419000D01*
X157846665Y-100419000D01*
X157569426Y-100474147D01*
X157308273Y-100582320D01*
X157073241Y-100739363D01*
X156873363Y-100939241D01*
X156718000Y-101171759D01*
X156562637Y-100939241D01*
X156362759Y-100739363D01*
X156127727Y-100582320D01*
X155866574Y-100474147D01*
X155589335Y-100419000D01*
X155306665Y-100419000D01*
X155029426Y-100474147D01*
X154768273Y-100582320D01*
X154533241Y-100739363D01*
X154333363Y-100939241D01*
X154178000Y-101171759D01*
X154022637Y-100939241D01*
X153822759Y-100739363D01*
X153587727Y-100582320D01*
X153326574Y-100474147D01*
X153049335Y-100419000D01*
X152766665Y-100419000D01*
X152489426Y-100474147D01*
X152228273Y-100582320D01*
X151993241Y-100739363D01*
X151793363Y-100939241D01*
X151638000Y-101171759D01*
X151482637Y-100939241D01*
X151282759Y-100739363D01*
X151047727Y-100582320D01*
X150786574Y-100474147D01*
X150509335Y-100419000D01*
X150226665Y-100419000D01*
X149949426Y-100474147D01*
X149688273Y-100582320D01*
X149453241Y-100739363D01*
X149253363Y-100939241D01*
X149098000Y-101171759D01*
X148942637Y-100939241D01*
X148742759Y-100739363D01*
X148507727Y-100582320D01*
X148246574Y-100474147D01*
X147969335Y-100419000D01*
X147686665Y-100419000D01*
X147409426Y-100474147D01*
X147148273Y-100582320D01*
X146913241Y-100739363D01*
X146713363Y-100939241D01*
X146556320Y-101174273D01*
X146448147Y-101435426D01*
X146393000Y-101712665D01*
X146393000Y-101995335D01*
X146448147Y-102272574D01*
X146556320Y-102533727D01*
X146713363Y-102768759D01*
X146913241Y-102968637D01*
X147148273Y-103125680D01*
X147409426Y-103233853D01*
X147686665Y-103289000D01*
X147969335Y-103289000D01*
X148084001Y-103266191D01*
X148084000Y-107239956D01*
X147929241Y-107343363D01*
X147729363Y-107543241D01*
X147574000Y-107775759D01*
X147418637Y-107543241D01*
X147218759Y-107343363D01*
X147064000Y-107239957D01*
X147064000Y-107225322D01*
X147067676Y-107187999D01*
X147064000Y-107150676D01*
X147064000Y-107150667D01*
X147053003Y-107039014D01*
X147009546Y-106895753D01*
X146985238Y-106850276D01*
X146938974Y-106763723D01*
X146867799Y-106676997D01*
X146844001Y-106647999D01*
X146815003Y-106624201D01*
X143482873Y-103292072D01*
X144310000Y-103292072D01*
X144434482Y-103279812D01*
X144554180Y-103243502D01*
X144664494Y-103184537D01*
X144761185Y-103105185D01*
X144840537Y-103008494D01*
X144899502Y-102898180D01*
X144935812Y-102778482D01*
X144948072Y-102654000D01*
X144948072Y-101054000D01*
X144935812Y-100929518D01*
X144899502Y-100809820D01*
X144840537Y-100699506D01*
X144761185Y-100602815D01*
X144664494Y-100523463D01*
X144554180Y-100464498D01*
X144434482Y-100428188D01*
X144310000Y-100415928D01*
X143146730Y-100415928D01*
X141533804Y-98803003D01*
X141510001Y-98773999D01*
X141394276Y-98679026D01*
X141262247Y-98608454D01*
X141118986Y-98564997D01*
X141007333Y-98554000D01*
X141007322Y-98554000D01*
X140970000Y-98550324D01*
X140932678Y-98554000D01*
X135950802Y-98554000D01*
X135909802Y-98513000D01*
X136017002Y-98513000D01*
X136017002Y-98354252D01*
X136175750Y-98513000D01*
X136740000Y-98516072D01*
X136864482Y-98503812D01*
X136984180Y-98467502D01*
X137094494Y-98408537D01*
X137191185Y-98329185D01*
X137270537Y-98232494D01*
X137329502Y-98122180D01*
X137365812Y-98002482D01*
X137378072Y-97878000D01*
X137375000Y-97313750D01*
X137216250Y-97155000D01*
X136017000Y-97155000D01*
X136017000Y-97175000D01*
X135763000Y-97175000D01*
X135763000Y-97155000D01*
X135743000Y-97155000D01*
X135743000Y-96901000D01*
X135763000Y-96901000D01*
X135763000Y-96881000D01*
X136017000Y-96881000D01*
X136017000Y-96901000D01*
X137216250Y-96901000D01*
X137375000Y-96742250D01*
X137376251Y-96512500D01*
X152280622Y-96512500D01*
X153391168Y-97623047D01*
%TA.AperFunction,Conductor*%
D19*
G36*
X153391168Y-97623047D02*
G01*
X153418883Y-97656817D01*
X153452651Y-97684530D01*
X153452653Y-97684532D01*
X153509775Y-97731411D01*
X153553641Y-97767411D01*
X153707387Y-97849589D01*
X153874210Y-97900195D01*
X154004223Y-97913000D01*
X154004233Y-97913000D01*
X154047699Y-97917281D01*
X154091165Y-97913000D01*
X154253344Y-97913000D01*
X154294525Y-97974632D01*
X154501368Y-98181475D01*
X154744589Y-98343990D01*
X155014842Y-98455932D01*
X155301740Y-98513000D01*
X155594260Y-98513000D01*
X155881158Y-98455932D01*
X156151411Y-98343990D01*
X156394632Y-98181475D01*
X156601475Y-97974632D01*
X156718000Y-97800240D01*
X156834525Y-97974632D01*
X157041368Y-98181475D01*
X157284589Y-98343990D01*
X157554842Y-98455932D01*
X157841740Y-98513000D01*
X158134260Y-98513000D01*
X158354408Y-98469209D01*
X159583200Y-99698002D01*
X159606999Y-99727001D01*
X159635997Y-99750799D01*
X159722723Y-99821974D01*
X159854753Y-99892546D01*
X159998014Y-99936003D01*
X160109667Y-99947000D01*
X160109676Y-99947000D01*
X160146999Y-99950676D01*
X160184322Y-99947000D01*
X165166199Y-99947000D01*
X165638199Y-100419000D01*
X165466665Y-100419000D01*
X165189426Y-100474147D01*
X164928273Y-100582320D01*
X164693241Y-100739363D01*
X164493363Y-100939241D01*
X164338000Y-101171759D01*
X164182637Y-100939241D01*
X163982759Y-100739363D01*
X163747727Y-100582320D01*
X163486574Y-100474147D01*
X163209335Y-100419000D01*
X162926665Y-100419000D01*
X162649426Y-100474147D01*
X162388273Y-100582320D01*
X162153241Y-100739363D01*
X161953363Y-100939241D01*
X161798000Y-101171759D01*
X161642637Y-100939241D01*
X161442759Y-100739363D01*
X161207727Y-100582320D01*
X160946574Y-100474147D01*
X160669335Y-100419000D01*
X160386665Y-100419000D01*
X160109426Y-100474147D01*
X159848273Y-100582320D01*
X159613241Y-100739363D01*
X159413363Y-100939241D01*
X159258000Y-101171759D01*
X159102637Y-100939241D01*
X158902759Y-100739363D01*
X158667727Y-100582320D01*
X158406574Y-100474147D01*
X158129335Y-100419000D01*
X157846665Y-100419000D01*
X157569426Y-100474147D01*
X157308273Y-100582320D01*
X157073241Y-100739363D01*
X156873363Y-100939241D01*
X156718000Y-101171759D01*
X156562637Y-100939241D01*
X156362759Y-100739363D01*
X156127727Y-100582320D01*
X155866574Y-100474147D01*
X155589335Y-100419000D01*
X155306665Y-100419000D01*
X155029426Y-100474147D01*
X154768273Y-100582320D01*
X154533241Y-100739363D01*
X154333363Y-100939241D01*
X154178000Y-101171759D01*
X154022637Y-100939241D01*
X153822759Y-100739363D01*
X153587727Y-100582320D01*
X153326574Y-100474147D01*
X153049335Y-100419000D01*
X152766665Y-100419000D01*
X152489426Y-100474147D01*
X152228273Y-100582320D01*
X151993241Y-100739363D01*
X151793363Y-100939241D01*
X151638000Y-101171759D01*
X151482637Y-100939241D01*
X151282759Y-100739363D01*
X151047727Y-100582320D01*
X150786574Y-100474147D01*
X150509335Y-100419000D01*
X150226665Y-100419000D01*
X149949426Y-100474147D01*
X149688273Y-100582320D01*
X149453241Y-100739363D01*
X149253363Y-100939241D01*
X149098000Y-101171759D01*
X148942637Y-100939241D01*
X148742759Y-100739363D01*
X148507727Y-100582320D01*
X148246574Y-100474147D01*
X147969335Y-100419000D01*
X147686665Y-100419000D01*
X147409426Y-100474147D01*
X147148273Y-100582320D01*
X146913241Y-100739363D01*
X146713363Y-100939241D01*
X146556320Y-101174273D01*
X146448147Y-101435426D01*
X146393000Y-101712665D01*
X146393000Y-101995335D01*
X146448147Y-102272574D01*
X146556320Y-102533727D01*
X146713363Y-102768759D01*
X146913241Y-102968637D01*
X147148273Y-103125680D01*
X147409426Y-103233853D01*
X147686665Y-103289000D01*
X147969335Y-103289000D01*
X148084001Y-103266191D01*
X148084000Y-107239956D01*
X147929241Y-107343363D01*
X147729363Y-107543241D01*
X147574000Y-107775759D01*
X147418637Y-107543241D01*
X147218759Y-107343363D01*
X147064000Y-107239957D01*
X147064000Y-107225322D01*
X147067676Y-107187999D01*
X147064000Y-107150676D01*
X147064000Y-107150667D01*
X147053003Y-107039014D01*
X147009546Y-106895753D01*
X146985238Y-106850276D01*
X146938974Y-106763723D01*
X146867799Y-106676997D01*
X146844001Y-106647999D01*
X146815003Y-106624201D01*
X143482873Y-103292072D01*
X144310000Y-103292072D01*
X144434482Y-103279812D01*
X144554180Y-103243502D01*
X144664494Y-103184537D01*
X144761185Y-103105185D01*
X144840537Y-103008494D01*
X144899502Y-102898180D01*
X144935812Y-102778482D01*
X144948072Y-102654000D01*
X144948072Y-101054000D01*
X144935812Y-100929518D01*
X144899502Y-100809820D01*
X144840537Y-100699506D01*
X144761185Y-100602815D01*
X144664494Y-100523463D01*
X144554180Y-100464498D01*
X144434482Y-100428188D01*
X144310000Y-100415928D01*
X143146730Y-100415928D01*
X141533804Y-98803003D01*
X141510001Y-98773999D01*
X141394276Y-98679026D01*
X141262247Y-98608454D01*
X141118986Y-98564997D01*
X141007333Y-98554000D01*
X141007322Y-98554000D01*
X140970000Y-98550324D01*
X140932678Y-98554000D01*
X135950802Y-98554000D01*
X135909802Y-98513000D01*
X136017002Y-98513000D01*
X136017002Y-98354252D01*
X136175750Y-98513000D01*
X136740000Y-98516072D01*
X136864482Y-98503812D01*
X136984180Y-98467502D01*
X137094494Y-98408537D01*
X137191185Y-98329185D01*
X137270537Y-98232494D01*
X137329502Y-98122180D01*
X137365812Y-98002482D01*
X137378072Y-97878000D01*
X137375000Y-97313750D01*
X137216250Y-97155000D01*
X136017000Y-97155000D01*
X136017000Y-97175000D01*
X135763000Y-97175000D01*
X135763000Y-97155000D01*
X135743000Y-97155000D01*
X135743000Y-96901000D01*
X135763000Y-96901000D01*
X135763000Y-96881000D01*
X136017000Y-96881000D01*
X136017000Y-96901000D01*
X137216250Y-96901000D01*
X137375000Y-96742250D01*
X137376251Y-96512500D01*
X152280622Y-96512500D01*
X153391168Y-97623047D01*
G37*
%TD.AperFunction*%
%TD*%
M02*
