%FSLAX45Y45*%
G04 Gerber Fmt 4.5, Leading zero omitted, Abs format (unit mm)*
G04 Created by KiCad (PCBNEW (5.1.9-0-10_14)) date 2021-03-23 14:31:30*
%MOMM*%
%LPD*%
G01*
G04 APERTURE LIST*
%TA.AperFunction,Profile*%
%ADD10C,0.050000*%
%TD*%
%TA.AperFunction,Profile*%
%ADD11C,0.100000*%
%TD*%
%ADD12C,0.200000*%
%ADD13C,0.300000*%
G04 APERTURE END LIST*
D10*
X11137900Y-9423400D02*
G75*
G02*
X11341100Y-9220200I203200J0D01*
G01*
X11341100Y-13538200D02*
G75*
G02*
X11137900Y-13335000I0J203200D01*
G01*
X18757900Y-13335000D02*
G75*
G02*
X18554700Y-13538200I-203200J0D01*
G01*
X18757900Y-9753600D02*
X18224500Y-9220200D01*
D11*
X18757900Y-9753600D02*
X18757900Y-13335000D01*
X11341100Y-9220200D02*
X18224500Y-9220200D01*
X11137900Y-13335000D02*
X11137900Y-9423400D01*
X18554700Y-13538200D02*
X11341100Y-13538200D01*
D12*
X11613200Y-9505000D02*
X11653200Y-9545000D01*
X11653200Y-9505000D02*
X11613200Y-9545000D01*
X11613200Y-13124500D02*
X11653200Y-13164500D01*
X11653200Y-13124500D02*
X11613200Y-13164500D01*
X12070399Y-12027897D02*
X12110399Y-12067897D01*
X12110399Y-12027897D02*
X12070399Y-12067897D01*
X12578400Y-12654600D02*
X12618400Y-12694600D01*
X12618400Y-12654600D02*
X12578400Y-12694600D01*
X12578401Y-12768900D02*
X12618401Y-12808900D01*
X12618401Y-12768900D02*
X12578401Y-12808900D01*
X14610400Y-12768899D02*
X14650400Y-12808899D01*
X14650400Y-12768899D02*
X14610400Y-12808899D01*
X17563150Y-9708200D02*
X17603150Y-9748200D01*
X17603150Y-9708200D02*
X17563150Y-9748200D01*
X18204500Y-11371900D02*
X18244500Y-11411900D01*
X18244500Y-11371900D02*
X18204500Y-11411900D01*
X11698600Y-10845800D02*
G75*
G03*
X11698600Y-10845800I-40000J0D01*
G01*
X11698600Y-11095800D02*
G75*
G03*
X11698600Y-11095800I-40000J0D01*
G01*
X12130400Y-10845800D02*
G75*
G03*
X12130400Y-10845800I-40000J0D01*
G01*
X12130400Y-12369800D02*
G75*
G03*
X12130400Y-12369800I-40000J0D01*
G01*
X12359000Y-10185400D02*
G75*
G03*
X12359000Y-10185400I-40000J0D01*
G01*
X12384400Y-10845800D02*
G75*
G03*
X12384400Y-10845800I-40000J0D01*
G01*
X12384400Y-12369800D02*
G75*
G03*
X12384400Y-12369800I-40000J0D01*
G01*
X12613000Y-10185400D02*
G75*
G03*
X12613000Y-10185400I-40000J0D01*
G01*
X12638400Y-10845800D02*
G75*
G03*
X12638400Y-10845800I-40000J0D01*
G01*
X12638400Y-12369800D02*
G75*
G03*
X12638400Y-12369800I-40000J0D01*
G01*
X12867000Y-10185400D02*
G75*
G03*
X12867000Y-10185400I-40000J0D01*
G01*
X12892400Y-10845800D02*
G75*
G03*
X12892400Y-10845800I-40000J0D01*
G01*
X12892400Y-12369800D02*
G75*
G03*
X12892400Y-12369800I-40000J0D01*
G01*
X13121000Y-10185400D02*
G75*
G03*
X13121000Y-10185400I-40000J0D01*
G01*
X13146400Y-10845800D02*
G75*
G03*
X13146400Y-10845800I-40000J0D01*
G01*
X13146400Y-12369800D02*
G75*
G03*
X13146400Y-12369800I-40000J0D01*
G01*
X13375000Y-10185400D02*
G75*
G03*
X13375000Y-10185400I-40000J0D01*
G01*
X13400400Y-10845800D02*
G75*
G03*
X13400400Y-10845800I-40000J0D01*
G01*
X13400400Y-12369800D02*
G75*
G03*
X13400400Y-12369800I-40000J0D01*
G01*
X13629000Y-10185400D02*
G75*
G03*
X13629000Y-10185400I-40000J0D01*
G01*
X13654400Y-10845800D02*
G75*
G03*
X13654400Y-10845800I-40000J0D01*
G01*
X13654400Y-12369800D02*
G75*
G03*
X13654400Y-12369800I-40000J0D01*
G01*
X13883000Y-10185400D02*
G75*
G03*
X13883000Y-10185400I-40000J0D01*
G01*
X13908400Y-10845800D02*
G75*
G03*
X13908400Y-10845800I-40000J0D01*
G01*
X13908400Y-12369800D02*
G75*
G03*
X13908400Y-12369800I-40000J0D01*
G01*
X14137000Y-10185400D02*
G75*
G03*
X14137000Y-10185400I-40000J0D01*
G01*
X14162400Y-10845800D02*
G75*
G03*
X14162400Y-10845800I-40000J0D01*
G01*
X14162400Y-12369800D02*
G75*
G03*
X14162400Y-12369800I-40000J0D01*
G01*
X14391000Y-10185400D02*
G75*
G03*
X14391000Y-10185400I-40000J0D01*
G01*
X14416400Y-10845800D02*
G75*
G03*
X14416400Y-10845800I-40000J0D01*
G01*
X14416400Y-12369800D02*
G75*
G03*
X14416400Y-12369800I-40000J0D01*
G01*
X14670400Y-10845800D02*
G75*
G03*
X14670400Y-10845800I-40000J0D01*
G01*
X14670400Y-12369800D02*
G75*
G03*
X14670400Y-12369800I-40000J0D01*
G01*
X14822800Y-10185400D02*
G75*
G03*
X14822800Y-10185400I-40000J0D01*
G01*
X14924400Y-10845800D02*
G75*
G03*
X14924400Y-10845800I-40000J0D01*
G01*
X14924400Y-12369800D02*
G75*
G03*
X14924400Y-12369800I-40000J0D01*
G01*
X15076800Y-10185400D02*
G75*
G03*
X15076800Y-10185400I-40000J0D01*
G01*
X15178400Y-10845800D02*
G75*
G03*
X15178400Y-10845800I-40000J0D01*
G01*
X15178400Y-12369800D02*
G75*
G03*
X15178400Y-12369800I-40000J0D01*
G01*
X15330800Y-10185400D02*
G75*
G03*
X15330800Y-10185400I-40000J0D01*
G01*
X15432400Y-10845800D02*
G75*
G03*
X15432400Y-10845800I-40000J0D01*
G01*
X15432400Y-12369800D02*
G75*
G03*
X15432400Y-12369800I-40000J0D01*
G01*
X15584800Y-10185400D02*
G75*
G03*
X15584800Y-10185400I-40000J0D01*
G01*
X15686400Y-10845800D02*
G75*
G03*
X15686400Y-10845800I-40000J0D01*
G01*
X15686400Y-12369800D02*
G75*
G03*
X15686400Y-12369800I-40000J0D01*
G01*
X15838800Y-10185400D02*
G75*
G03*
X15838800Y-10185400I-40000J0D01*
G01*
X15940400Y-10845800D02*
G75*
G03*
X15940400Y-10845800I-40000J0D01*
G01*
X15940400Y-12369800D02*
G75*
G03*
X15940400Y-12369800I-40000J0D01*
G01*
X16092800Y-10185400D02*
G75*
G03*
X16092800Y-10185400I-40000J0D01*
G01*
X16194400Y-10845800D02*
G75*
G03*
X16194400Y-10845800I-40000J0D01*
G01*
X16194400Y-12369800D02*
G75*
G03*
X16194400Y-12369800I-40000J0D01*
G01*
X16346800Y-10185400D02*
G75*
G03*
X16346800Y-10185400I-40000J0D01*
G01*
X16448400Y-10845800D02*
G75*
G03*
X16448400Y-10845800I-40000J0D01*
G01*
X16448400Y-12369800D02*
G75*
G03*
X16448400Y-12369800I-40000J0D01*
G01*
X16600800Y-10185400D02*
G75*
G03*
X16600800Y-10185400I-40000J0D01*
G01*
X16702400Y-10845800D02*
G75*
G03*
X16702400Y-10845800I-40000J0D01*
G01*
X16702400Y-12369800D02*
G75*
G03*
X16702400Y-12369800I-40000J0D01*
G01*
X16854800Y-10185400D02*
G75*
G03*
X16854800Y-10185400I-40000J0D01*
G01*
X16956400Y-10845800D02*
G75*
G03*
X16956400Y-10845800I-40000J0D01*
G01*
X16956400Y-12369800D02*
G75*
G03*
X16956400Y-12369800I-40000J0D01*
G01*
X12090400Y-12954800D02*
X12090400Y-13054800D01*
X12040400Y-13004800D02*
X12140400Y-13004800D01*
X12090400Y-13208800D02*
X12090400Y-13308800D01*
X12040400Y-13258800D02*
X12140400Y-13258800D01*
X12344400Y-12954800D02*
X12344400Y-13054800D01*
X12294400Y-13004800D02*
X12394400Y-13004800D01*
X12344400Y-13208800D02*
X12344400Y-13308800D01*
X12294400Y-13258800D02*
X12394400Y-13258800D01*
X12598400Y-12954800D02*
X12598400Y-13054800D01*
X12548400Y-13004800D02*
X12648400Y-13004800D01*
X12598400Y-13208800D02*
X12598400Y-13308800D01*
X12548400Y-13258800D02*
X12648400Y-13258800D01*
X12852400Y-12954800D02*
X12852400Y-13054800D01*
X12802400Y-13004800D02*
X12902400Y-13004800D01*
X12852400Y-13208800D02*
X12852400Y-13308800D01*
X12802400Y-13258800D02*
X12902400Y-13258800D01*
X13081000Y-9652800D02*
X13081000Y-9752800D01*
X13031000Y-9702800D02*
X13131000Y-9702800D01*
X13106400Y-12954800D02*
X13106400Y-13054800D01*
X13056400Y-13004800D02*
X13156400Y-13004800D01*
X13106400Y-13208800D02*
X13106400Y-13308800D01*
X13056400Y-13258800D02*
X13156400Y-13258800D01*
X13335000Y-9652800D02*
X13335000Y-9752800D01*
X13285000Y-9702800D02*
X13385000Y-9702800D01*
X13360400Y-12954800D02*
X13360400Y-13054800D01*
X13310400Y-13004800D02*
X13410400Y-13004800D01*
X13360400Y-13208800D02*
X13360400Y-13308800D01*
X13310400Y-13258800D02*
X13410400Y-13258800D01*
X13589000Y-9652800D02*
X13589000Y-9752800D01*
X13539000Y-9702800D02*
X13639000Y-9702800D01*
X13614400Y-12954800D02*
X13614400Y-13054800D01*
X13564400Y-13004800D02*
X13664400Y-13004800D01*
X13614400Y-13208800D02*
X13614400Y-13308800D01*
X13564400Y-13258800D02*
X13664400Y-13258800D01*
X13868400Y-12954800D02*
X13868400Y-13054800D01*
X13818400Y-13004800D02*
X13918400Y-13004800D01*
X13868400Y-13208800D02*
X13868400Y-13308800D01*
X13818400Y-13258800D02*
X13918400Y-13258800D01*
X14122400Y-12954800D02*
X14122400Y-13054800D01*
X14072400Y-13004800D02*
X14172400Y-13004800D01*
X14122400Y-13208800D02*
X14122400Y-13308800D01*
X14072400Y-13258800D02*
X14172400Y-13258800D01*
X14376400Y-12954800D02*
X14376400Y-13054800D01*
X14326400Y-13004800D02*
X14426400Y-13004800D01*
X14376400Y-13208800D02*
X14376400Y-13308800D01*
X14326400Y-13258800D02*
X14426400Y-13258800D01*
X14630400Y-12954800D02*
X14630400Y-13054800D01*
X14580400Y-13004800D02*
X14680400Y-13004800D01*
X14630400Y-13208800D02*
X14630400Y-13308800D01*
X14580400Y-13258800D02*
X14680400Y-13258800D01*
X14884400Y-12954800D02*
X14884400Y-13054800D01*
X14834400Y-13004800D02*
X14934400Y-13004800D01*
X14884400Y-13208800D02*
X14884400Y-13308800D01*
X14834400Y-13258800D02*
X14934400Y-13258800D01*
X15138400Y-12954800D02*
X15138400Y-13054800D01*
X15088400Y-13004800D02*
X15188400Y-13004800D01*
X15138400Y-13208800D02*
X15138400Y-13308800D01*
X15088400Y-13258800D02*
X15188400Y-13258800D01*
X15392400Y-12954800D02*
X15392400Y-13054800D01*
X15342400Y-13004800D02*
X15442400Y-13004800D01*
X15392400Y-13208800D02*
X15392400Y-13308800D01*
X15342400Y-13258800D02*
X15442400Y-13258800D01*
X15544800Y-9652800D02*
X15544800Y-9752800D01*
X15494800Y-9702800D02*
X15594800Y-9702800D01*
X15646400Y-12954800D02*
X15646400Y-13054800D01*
X15596400Y-13004800D02*
X15696400Y-13004800D01*
X15646400Y-13208800D02*
X15646400Y-13308800D01*
X15596400Y-13258800D02*
X15696400Y-13258800D01*
X15798800Y-9652800D02*
X15798800Y-9752800D01*
X15748800Y-9702800D02*
X15848800Y-9702800D01*
X15900400Y-12954800D02*
X15900400Y-13054800D01*
X15850400Y-13004800D02*
X15950400Y-13004800D01*
X15900400Y-13208800D02*
X15900400Y-13308800D01*
X15850400Y-13258800D02*
X15950400Y-13258800D01*
X16052800Y-9652800D02*
X16052800Y-9752800D01*
X16002800Y-9702800D02*
X16102800Y-9702800D01*
X17449800Y-9957600D02*
X17449800Y-10057600D01*
X17399800Y-10007600D02*
X17499800Y-10007600D01*
X17449800Y-10211600D02*
X17449800Y-10311600D01*
X17399800Y-10261600D02*
X17499800Y-10261600D01*
X17449800Y-10465600D02*
X17449800Y-10565600D01*
X17399800Y-10515600D02*
X17499800Y-10515600D01*
X17449800Y-10719600D02*
X17449800Y-10819600D01*
X17399800Y-10769600D02*
X17499800Y-10769600D01*
X17449800Y-10973600D02*
X17449800Y-11073600D01*
X17399800Y-11023600D02*
X17499800Y-11023600D01*
X17449800Y-11227600D02*
X17449800Y-11327600D01*
X17399800Y-11277600D02*
X17499800Y-11277600D01*
X17449800Y-11481600D02*
X17449800Y-11581600D01*
X17399800Y-11531600D02*
X17499800Y-11531600D01*
X17449800Y-11735600D02*
X17449800Y-11835600D01*
X17399800Y-11785600D02*
X17499800Y-11785600D01*
X17449800Y-11989600D02*
X17449800Y-12089600D01*
X17399800Y-12039600D02*
X17499800Y-12039600D01*
X17449800Y-12243600D02*
X17449800Y-12343600D01*
X17399800Y-12293600D02*
X17499800Y-12293600D01*
X17449800Y-12497600D02*
X17449800Y-12597600D01*
X17399800Y-12547600D02*
X17499800Y-12547600D01*
X17449800Y-12751600D02*
X17449800Y-12851600D01*
X17399800Y-12801600D02*
X17499800Y-12801600D01*
X17703800Y-9957600D02*
X17703800Y-10057600D01*
X17653800Y-10007600D02*
X17753800Y-10007600D01*
X17703800Y-10211600D02*
X17703800Y-10311600D01*
X17653800Y-10261600D02*
X17753800Y-10261600D01*
X17703800Y-10465600D02*
X17703800Y-10565600D01*
X17653800Y-10515600D02*
X17753800Y-10515600D01*
X17703800Y-10719600D02*
X17703800Y-10819600D01*
X17653800Y-10769600D02*
X17753800Y-10769600D01*
X17703800Y-10973600D02*
X17703800Y-11073600D01*
X17653800Y-11023600D02*
X17753800Y-11023600D01*
X17703800Y-11227600D02*
X17703800Y-11327600D01*
X17653800Y-11277600D02*
X17753800Y-11277600D01*
X17703800Y-11481600D02*
X17703800Y-11581600D01*
X17653800Y-11531600D02*
X17753800Y-11531600D01*
X17703800Y-11735600D02*
X17703800Y-11835600D01*
X17653800Y-11785600D02*
X17753800Y-11785600D01*
X17703800Y-11989600D02*
X17703800Y-12089600D01*
X17653800Y-12039600D02*
X17753800Y-12039600D01*
X17703800Y-12243600D02*
X17703800Y-12343600D01*
X17653800Y-12293600D02*
X17753800Y-12293600D01*
X17703800Y-12497600D02*
X17703800Y-12597600D01*
X17653800Y-12547600D02*
X17753800Y-12547600D01*
X17703800Y-12751600D02*
X17703800Y-12851600D01*
X17653800Y-12801600D02*
X17753800Y-12801600D01*
D13*
X11419328Y-14008914D02*
X11419328Y-13708914D01*
X11490757Y-13708914D01*
X11533614Y-13723200D01*
X11562186Y-13751771D01*
X11576471Y-13780343D01*
X11590757Y-13837486D01*
X11590757Y-13880343D01*
X11576471Y-13937486D01*
X11562186Y-13966057D01*
X11533614Y-13994629D01*
X11490757Y-14008914D01*
X11419328Y-14008914D01*
X11719328Y-14008914D02*
X11719328Y-13808914D01*
X11719328Y-13866057D02*
X11733614Y-13837486D01*
X11747900Y-13823200D01*
X11776471Y-13808914D01*
X11805043Y-13808914D01*
X11905043Y-14008914D02*
X11905043Y-13808914D01*
X11905043Y-13708914D02*
X11890757Y-13723200D01*
X11905043Y-13737486D01*
X11919328Y-13723200D01*
X11905043Y-13708914D01*
X11905043Y-13737486D01*
X12090757Y-14008914D02*
X12062186Y-13994629D01*
X12047900Y-13966057D01*
X12047900Y-13708914D01*
X12247900Y-14008914D02*
X12219328Y-13994629D01*
X12205043Y-13966057D01*
X12205043Y-13708914D01*
X12590757Y-14008914D02*
X12590757Y-13708914D01*
X12690757Y-13923200D01*
X12790757Y-13708914D01*
X12790757Y-14008914D01*
X13062186Y-14008914D02*
X13062186Y-13851771D01*
X13047900Y-13823200D01*
X13019328Y-13808914D01*
X12962186Y-13808914D01*
X12933614Y-13823200D01*
X13062186Y-13994629D02*
X13033614Y-14008914D01*
X12962186Y-14008914D01*
X12933614Y-13994629D01*
X12919328Y-13966057D01*
X12919328Y-13937486D01*
X12933614Y-13908914D01*
X12962186Y-13894629D01*
X13033614Y-13894629D01*
X13062186Y-13880343D01*
X13205043Y-13808914D02*
X13205043Y-14108914D01*
X13205043Y-13823200D02*
X13233614Y-13808914D01*
X13290757Y-13808914D01*
X13319328Y-13823200D01*
X13333614Y-13837486D01*
X13347900Y-13866057D01*
X13347900Y-13951771D01*
X13333614Y-13980343D01*
X13319328Y-13994629D01*
X13290757Y-14008914D01*
X13233614Y-14008914D01*
X13205043Y-13994629D01*
X13476471Y-13980343D02*
X13490757Y-13994629D01*
X13476471Y-14008914D01*
X13462186Y-13994629D01*
X13476471Y-13980343D01*
X13476471Y-14008914D01*
X13476471Y-13823200D02*
X13490757Y-13837486D01*
X13476471Y-13851771D01*
X13462186Y-13837486D01*
X13476471Y-13823200D01*
X13476471Y-13851771D01*
X11092900Y-14483200D02*
X11132900Y-14523200D01*
X11132900Y-14483200D02*
X11092900Y-14523200D01*
X11476471Y-14338914D02*
X11505043Y-14338914D01*
X11533614Y-14353200D01*
X11547900Y-14367486D01*
X11562186Y-14396057D01*
X11576471Y-14453200D01*
X11576471Y-14524629D01*
X11562186Y-14581771D01*
X11547900Y-14610343D01*
X11533614Y-14624629D01*
X11505043Y-14638914D01*
X11476471Y-14638914D01*
X11447900Y-14624629D01*
X11433614Y-14610343D01*
X11419328Y-14581771D01*
X11405043Y-14524629D01*
X11405043Y-14453200D01*
X11419328Y-14396057D01*
X11433614Y-14367486D01*
X11447900Y-14353200D01*
X11476471Y-14338914D01*
X11705043Y-14610343D02*
X11719328Y-14624629D01*
X11705043Y-14638914D01*
X11690757Y-14624629D01*
X11705043Y-14610343D01*
X11705043Y-14638914D01*
X11976471Y-14438914D02*
X11976471Y-14638914D01*
X11905043Y-14324629D02*
X11833614Y-14538914D01*
X12019328Y-14538914D01*
X12190757Y-14338914D02*
X12219328Y-14338914D01*
X12247900Y-14353200D01*
X12262186Y-14367486D01*
X12276471Y-14396057D01*
X12290757Y-14453200D01*
X12290757Y-14524629D01*
X12276471Y-14581771D01*
X12262186Y-14610343D01*
X12247900Y-14624629D01*
X12219328Y-14638914D01*
X12190757Y-14638914D01*
X12162186Y-14624629D01*
X12147900Y-14610343D01*
X12133614Y-14581771D01*
X12119328Y-14524629D01*
X12119328Y-14453200D01*
X12133614Y-14396057D01*
X12147900Y-14367486D01*
X12162186Y-14353200D01*
X12190757Y-14338914D01*
X12419328Y-14638914D02*
X12419328Y-14438914D01*
X12419328Y-14467486D02*
X12433614Y-14453200D01*
X12462186Y-14438914D01*
X12505043Y-14438914D01*
X12533614Y-14453200D01*
X12547900Y-14481771D01*
X12547900Y-14638914D01*
X12547900Y-14481771D02*
X12562186Y-14453200D01*
X12590757Y-14438914D01*
X12633614Y-14438914D01*
X12662186Y-14453200D01*
X12676471Y-14481771D01*
X12676471Y-14638914D01*
X12819328Y-14638914D02*
X12819328Y-14438914D01*
X12819328Y-14467486D02*
X12833614Y-14453200D01*
X12862186Y-14438914D01*
X12905043Y-14438914D01*
X12933614Y-14453200D01*
X12947900Y-14481771D01*
X12947900Y-14638914D01*
X12947900Y-14481771D02*
X12962186Y-14453200D01*
X12990757Y-14438914D01*
X13033614Y-14438914D01*
X13062186Y-14453200D01*
X13076471Y-14481771D01*
X13076471Y-14638914D01*
X13662186Y-14324629D02*
X13405043Y-14710343D01*
X14047900Y-14338914D02*
X14076471Y-14338914D01*
X14105043Y-14353200D01*
X14119328Y-14367486D01*
X14133614Y-14396057D01*
X14147900Y-14453200D01*
X14147900Y-14524629D01*
X14133614Y-14581771D01*
X14119328Y-14610343D01*
X14105043Y-14624629D01*
X14076471Y-14638914D01*
X14047900Y-14638914D01*
X14019328Y-14624629D01*
X14005043Y-14610343D01*
X13990757Y-14581771D01*
X13976471Y-14524629D01*
X13976471Y-14453200D01*
X13990757Y-14396057D01*
X14005043Y-14367486D01*
X14019328Y-14353200D01*
X14047900Y-14338914D01*
X14276471Y-14610343D02*
X14290757Y-14624629D01*
X14276471Y-14638914D01*
X14262186Y-14624629D01*
X14276471Y-14610343D01*
X14276471Y-14638914D01*
X14476471Y-14338914D02*
X14505043Y-14338914D01*
X14533614Y-14353200D01*
X14547900Y-14367486D01*
X14562186Y-14396057D01*
X14576471Y-14453200D01*
X14576471Y-14524629D01*
X14562186Y-14581771D01*
X14547900Y-14610343D01*
X14533614Y-14624629D01*
X14505043Y-14638914D01*
X14476471Y-14638914D01*
X14447900Y-14624629D01*
X14433614Y-14610343D01*
X14419328Y-14581771D01*
X14405043Y-14524629D01*
X14405043Y-14453200D01*
X14419328Y-14396057D01*
X14433614Y-14367486D01*
X14447900Y-14353200D01*
X14476471Y-14338914D01*
X14862186Y-14638914D02*
X14690757Y-14638914D01*
X14776471Y-14638914D02*
X14776471Y-14338914D01*
X14747900Y-14381771D01*
X14719328Y-14410343D01*
X14690757Y-14424629D01*
X15119328Y-14338914D02*
X15062186Y-14338914D01*
X15033614Y-14353200D01*
X15019328Y-14367486D01*
X14990757Y-14410343D01*
X14976471Y-14467486D01*
X14976471Y-14581771D01*
X14990757Y-14610343D01*
X15005043Y-14624629D01*
X15033614Y-14638914D01*
X15090757Y-14638914D01*
X15119328Y-14624629D01*
X15133614Y-14610343D01*
X15147900Y-14581771D01*
X15147900Y-14510343D01*
X15133614Y-14481771D01*
X15119328Y-14467486D01*
X15090757Y-14453200D01*
X15033614Y-14453200D01*
X15005043Y-14467486D01*
X14990757Y-14481771D01*
X14976471Y-14510343D01*
X15262186Y-14338914D02*
X15262186Y-14396057D01*
X15376471Y-14338914D02*
X15376471Y-14396057D01*
X15819328Y-14753200D02*
X15805043Y-14738914D01*
X15776471Y-14696057D01*
X15762186Y-14667486D01*
X15747900Y-14624629D01*
X15733614Y-14553200D01*
X15733614Y-14496057D01*
X15747900Y-14424629D01*
X15762186Y-14381771D01*
X15776471Y-14353200D01*
X15805043Y-14310343D01*
X15819328Y-14296057D01*
X15976471Y-14467486D02*
X15947900Y-14453200D01*
X15933614Y-14438914D01*
X15919328Y-14410343D01*
X15919328Y-14396057D01*
X15933614Y-14367486D01*
X15947900Y-14353200D01*
X15976471Y-14338914D01*
X16033614Y-14338914D01*
X16062186Y-14353200D01*
X16076471Y-14367486D01*
X16090757Y-14396057D01*
X16090757Y-14410343D01*
X16076471Y-14438914D01*
X16062186Y-14453200D01*
X16033614Y-14467486D01*
X15976471Y-14467486D01*
X15947900Y-14481771D01*
X15933614Y-14496057D01*
X15919328Y-14524629D01*
X15919328Y-14581771D01*
X15933614Y-14610343D01*
X15947900Y-14624629D01*
X15976471Y-14638914D01*
X16033614Y-14638914D01*
X16062186Y-14624629D01*
X16076471Y-14610343D01*
X16090757Y-14581771D01*
X16090757Y-14524629D01*
X16076471Y-14496057D01*
X16062186Y-14481771D01*
X16033614Y-14467486D01*
X16447900Y-14638914D02*
X16447900Y-14338914D01*
X16576471Y-14638914D02*
X16576471Y-14481771D01*
X16562186Y-14453200D01*
X16533614Y-14438914D01*
X16490757Y-14438914D01*
X16462186Y-14453200D01*
X16447900Y-14467486D01*
X16762186Y-14638914D02*
X16733614Y-14624629D01*
X16719328Y-14610343D01*
X16705043Y-14581771D01*
X16705043Y-14496057D01*
X16719328Y-14467486D01*
X16733614Y-14453200D01*
X16762186Y-14438914D01*
X16805043Y-14438914D01*
X16833614Y-14453200D01*
X16847900Y-14467486D01*
X16862186Y-14496057D01*
X16862186Y-14581771D01*
X16847900Y-14610343D01*
X16833614Y-14624629D01*
X16805043Y-14638914D01*
X16762186Y-14638914D01*
X17033614Y-14638914D02*
X17005043Y-14624629D01*
X16990757Y-14596057D01*
X16990757Y-14338914D01*
X17262186Y-14624629D02*
X17233614Y-14638914D01*
X17176471Y-14638914D01*
X17147900Y-14624629D01*
X17133614Y-14596057D01*
X17133614Y-14481771D01*
X17147900Y-14453200D01*
X17176471Y-14438914D01*
X17233614Y-14438914D01*
X17262186Y-14453200D01*
X17276471Y-14481771D01*
X17276471Y-14510343D01*
X17133614Y-14538914D01*
X17390757Y-14624629D02*
X17419328Y-14638914D01*
X17476471Y-14638914D01*
X17505043Y-14624629D01*
X17519328Y-14596057D01*
X17519328Y-14581771D01*
X17505043Y-14553200D01*
X17476471Y-14538914D01*
X17433614Y-14538914D01*
X17405043Y-14524629D01*
X17390757Y-14496057D01*
X17390757Y-14481771D01*
X17405043Y-14453200D01*
X17433614Y-14438914D01*
X17476471Y-14438914D01*
X17505043Y-14453200D01*
X17619328Y-14753200D02*
X17633614Y-14738914D01*
X17662186Y-14696057D01*
X17676471Y-14667486D01*
X17690757Y-14624629D01*
X17705043Y-14553200D01*
X17705043Y-14496057D01*
X17690757Y-14424629D01*
X17676471Y-14381771D01*
X17662186Y-14353200D01*
X17633614Y-14310343D01*
X17619328Y-14296057D01*
X11132900Y-14899200D02*
G75*
G03*
X11132900Y-14899200I-40000J0D01*
G01*
X11476471Y-14734914D02*
X11505043Y-14734914D01*
X11533614Y-14749200D01*
X11547900Y-14763486D01*
X11562186Y-14792057D01*
X11576471Y-14849200D01*
X11576471Y-14920629D01*
X11562186Y-14977771D01*
X11547900Y-15006343D01*
X11533614Y-15020629D01*
X11505043Y-15034914D01*
X11476471Y-15034914D01*
X11447900Y-15020629D01*
X11433614Y-15006343D01*
X11419328Y-14977771D01*
X11405043Y-14920629D01*
X11405043Y-14849200D01*
X11419328Y-14792057D01*
X11433614Y-14763486D01*
X11447900Y-14749200D01*
X11476471Y-14734914D01*
X11705043Y-15006343D02*
X11719328Y-15020629D01*
X11705043Y-15034914D01*
X11690757Y-15020629D01*
X11705043Y-15006343D01*
X11705043Y-15034914D01*
X11890757Y-14863486D02*
X11862186Y-14849200D01*
X11847900Y-14834914D01*
X11833614Y-14806343D01*
X11833614Y-14792057D01*
X11847900Y-14763486D01*
X11862186Y-14749200D01*
X11890757Y-14734914D01*
X11947900Y-14734914D01*
X11976471Y-14749200D01*
X11990757Y-14763486D01*
X12005043Y-14792057D01*
X12005043Y-14806343D01*
X11990757Y-14834914D01*
X11976471Y-14849200D01*
X11947900Y-14863486D01*
X11890757Y-14863486D01*
X11862186Y-14877771D01*
X11847900Y-14892057D01*
X11833614Y-14920629D01*
X11833614Y-14977771D01*
X11847900Y-15006343D01*
X11862186Y-15020629D01*
X11890757Y-15034914D01*
X11947900Y-15034914D01*
X11976471Y-15020629D01*
X11990757Y-15006343D01*
X12005043Y-14977771D01*
X12005043Y-14920629D01*
X11990757Y-14892057D01*
X11976471Y-14877771D01*
X11947900Y-14863486D01*
X12190757Y-14734914D02*
X12219328Y-14734914D01*
X12247900Y-14749200D01*
X12262186Y-14763486D01*
X12276471Y-14792057D01*
X12290757Y-14849200D01*
X12290757Y-14920629D01*
X12276471Y-14977771D01*
X12262186Y-15006343D01*
X12247900Y-15020629D01*
X12219328Y-15034914D01*
X12190757Y-15034914D01*
X12162186Y-15020629D01*
X12147900Y-15006343D01*
X12133614Y-14977771D01*
X12119328Y-14920629D01*
X12119328Y-14849200D01*
X12133614Y-14792057D01*
X12147900Y-14763486D01*
X12162186Y-14749200D01*
X12190757Y-14734914D01*
X12419328Y-15034914D02*
X12419328Y-14834914D01*
X12419328Y-14863486D02*
X12433614Y-14849200D01*
X12462186Y-14834914D01*
X12505043Y-14834914D01*
X12533614Y-14849200D01*
X12547900Y-14877771D01*
X12547900Y-15034914D01*
X12547900Y-14877771D02*
X12562186Y-14849200D01*
X12590757Y-14834914D01*
X12633614Y-14834914D01*
X12662186Y-14849200D01*
X12676471Y-14877771D01*
X12676471Y-15034914D01*
X12819328Y-15034914D02*
X12819328Y-14834914D01*
X12819328Y-14863486D02*
X12833614Y-14849200D01*
X12862186Y-14834914D01*
X12905043Y-14834914D01*
X12933614Y-14849200D01*
X12947900Y-14877771D01*
X12947900Y-15034914D01*
X12947900Y-14877771D02*
X12962186Y-14849200D01*
X12990757Y-14834914D01*
X13033614Y-14834914D01*
X13062186Y-14849200D01*
X13076471Y-14877771D01*
X13076471Y-15034914D01*
X13662186Y-14720629D02*
X13405043Y-15106343D01*
X14047900Y-14734914D02*
X14076471Y-14734914D01*
X14105043Y-14749200D01*
X14119328Y-14763486D01*
X14133614Y-14792057D01*
X14147900Y-14849200D01*
X14147900Y-14920629D01*
X14133614Y-14977771D01*
X14119328Y-15006343D01*
X14105043Y-15020629D01*
X14076471Y-15034914D01*
X14047900Y-15034914D01*
X14019328Y-15020629D01*
X14005043Y-15006343D01*
X13990757Y-14977771D01*
X13976471Y-14920629D01*
X13976471Y-14849200D01*
X13990757Y-14792057D01*
X14005043Y-14763486D01*
X14019328Y-14749200D01*
X14047900Y-14734914D01*
X14276471Y-15006343D02*
X14290757Y-15020629D01*
X14276471Y-15034914D01*
X14262186Y-15020629D01*
X14276471Y-15006343D01*
X14276471Y-15034914D01*
X14476471Y-14734914D02*
X14505043Y-14734914D01*
X14533614Y-14749200D01*
X14547900Y-14763486D01*
X14562186Y-14792057D01*
X14576471Y-14849200D01*
X14576471Y-14920629D01*
X14562186Y-14977771D01*
X14547900Y-15006343D01*
X14533614Y-15020629D01*
X14505043Y-15034914D01*
X14476471Y-15034914D01*
X14447900Y-15020629D01*
X14433614Y-15006343D01*
X14419328Y-14977771D01*
X14405043Y-14920629D01*
X14405043Y-14849200D01*
X14419328Y-14792057D01*
X14433614Y-14763486D01*
X14447900Y-14749200D01*
X14476471Y-14734914D01*
X14676471Y-14734914D02*
X14862186Y-14734914D01*
X14762186Y-14849200D01*
X14805043Y-14849200D01*
X14833614Y-14863486D01*
X14847900Y-14877771D01*
X14862186Y-14906343D01*
X14862186Y-14977771D01*
X14847900Y-15006343D01*
X14833614Y-15020629D01*
X14805043Y-15034914D01*
X14719328Y-15034914D01*
X14690757Y-15020629D01*
X14676471Y-15006343D01*
X15147900Y-15034914D02*
X14976471Y-15034914D01*
X15062186Y-15034914D02*
X15062186Y-14734914D01*
X15033614Y-14777771D01*
X15005043Y-14806343D01*
X14976471Y-14820629D01*
X15262186Y-14734914D02*
X15262186Y-14792057D01*
X15376471Y-14734914D02*
X15376471Y-14792057D01*
X15819328Y-15149200D02*
X15805043Y-15134914D01*
X15776471Y-15092057D01*
X15762186Y-15063486D01*
X15747900Y-15020629D01*
X15733614Y-14949200D01*
X15733614Y-14892057D01*
X15747900Y-14820629D01*
X15762186Y-14777771D01*
X15776471Y-14749200D01*
X15805043Y-14706343D01*
X15819328Y-14692057D01*
X16062186Y-14734914D02*
X16005043Y-14734914D01*
X15976471Y-14749200D01*
X15962186Y-14763486D01*
X15933614Y-14806343D01*
X15919328Y-14863486D01*
X15919328Y-14977771D01*
X15933614Y-15006343D01*
X15947900Y-15020629D01*
X15976471Y-15034914D01*
X16033614Y-15034914D01*
X16062186Y-15020629D01*
X16076471Y-15006343D01*
X16090757Y-14977771D01*
X16090757Y-14906343D01*
X16076471Y-14877771D01*
X16062186Y-14863486D01*
X16033614Y-14849200D01*
X15976471Y-14849200D01*
X15947900Y-14863486D01*
X15933614Y-14877771D01*
X15919328Y-14906343D01*
X16276471Y-14734914D02*
X16305043Y-14734914D01*
X16333614Y-14749200D01*
X16347900Y-14763486D01*
X16362186Y-14792057D01*
X16376471Y-14849200D01*
X16376471Y-14920629D01*
X16362186Y-14977771D01*
X16347900Y-15006343D01*
X16333614Y-15020629D01*
X16305043Y-15034914D01*
X16276471Y-15034914D01*
X16247900Y-15020629D01*
X16233614Y-15006343D01*
X16219328Y-14977771D01*
X16205043Y-14920629D01*
X16205043Y-14849200D01*
X16219328Y-14792057D01*
X16233614Y-14763486D01*
X16247900Y-14749200D01*
X16276471Y-14734914D01*
X16733614Y-15034914D02*
X16733614Y-14734914D01*
X16862186Y-15034914D02*
X16862186Y-14877771D01*
X16847900Y-14849200D01*
X16819328Y-14834914D01*
X16776471Y-14834914D01*
X16747900Y-14849200D01*
X16733614Y-14863486D01*
X17047900Y-15034914D02*
X17019328Y-15020629D01*
X17005043Y-15006343D01*
X16990757Y-14977771D01*
X16990757Y-14892057D01*
X17005043Y-14863486D01*
X17019328Y-14849200D01*
X17047900Y-14834914D01*
X17090757Y-14834914D01*
X17119328Y-14849200D01*
X17133614Y-14863486D01*
X17147900Y-14892057D01*
X17147900Y-14977771D01*
X17133614Y-15006343D01*
X17119328Y-15020629D01*
X17090757Y-15034914D01*
X17047900Y-15034914D01*
X17319328Y-15034914D02*
X17290757Y-15020629D01*
X17276471Y-14992057D01*
X17276471Y-14734914D01*
X17547900Y-15020629D02*
X17519328Y-15034914D01*
X17462186Y-15034914D01*
X17433614Y-15020629D01*
X17419328Y-14992057D01*
X17419328Y-14877771D01*
X17433614Y-14849200D01*
X17462186Y-14834914D01*
X17519328Y-14834914D01*
X17547900Y-14849200D01*
X17562186Y-14877771D01*
X17562186Y-14906343D01*
X17419328Y-14934914D01*
X17676471Y-15020629D02*
X17705043Y-15034914D01*
X17762186Y-15034914D01*
X17790757Y-15020629D01*
X17805043Y-14992057D01*
X17805043Y-14977771D01*
X17790757Y-14949200D01*
X17762186Y-14934914D01*
X17719328Y-14934914D01*
X17690757Y-14920629D01*
X17676471Y-14892057D01*
X17676471Y-14877771D01*
X17690757Y-14849200D01*
X17719328Y-14834914D01*
X17762186Y-14834914D01*
X17790757Y-14849200D01*
X17905043Y-15149200D02*
X17919328Y-15134914D01*
X17947900Y-15092057D01*
X17962186Y-15063486D01*
X17976471Y-15020629D01*
X17990757Y-14949200D01*
X17990757Y-14892057D01*
X17976471Y-14820629D01*
X17962186Y-14777771D01*
X17947900Y-14749200D01*
X17919328Y-14706343D01*
X17905043Y-14692057D01*
X11082900Y-15245200D02*
X11082900Y-15345200D01*
X11032900Y-15295200D02*
X11132900Y-15295200D01*
X11576471Y-15430914D02*
X11405043Y-15430914D01*
X11490757Y-15430914D02*
X11490757Y-15130914D01*
X11462186Y-15173771D01*
X11433614Y-15202343D01*
X11405043Y-15216629D01*
X11705043Y-15402343D02*
X11719328Y-15416629D01*
X11705043Y-15430914D01*
X11690757Y-15416629D01*
X11705043Y-15402343D01*
X11705043Y-15430914D01*
X11905043Y-15130914D02*
X11933614Y-15130914D01*
X11962186Y-15145200D01*
X11976471Y-15159486D01*
X11990757Y-15188057D01*
X12005043Y-15245200D01*
X12005043Y-15316629D01*
X11990757Y-15373771D01*
X11976471Y-15402343D01*
X11962186Y-15416629D01*
X11933614Y-15430914D01*
X11905043Y-15430914D01*
X11876471Y-15416629D01*
X11862186Y-15402343D01*
X11847900Y-15373771D01*
X11833614Y-15316629D01*
X11833614Y-15245200D01*
X11847900Y-15188057D01*
X11862186Y-15159486D01*
X11876471Y-15145200D01*
X11905043Y-15130914D01*
X12190757Y-15130914D02*
X12219328Y-15130914D01*
X12247900Y-15145200D01*
X12262186Y-15159486D01*
X12276471Y-15188057D01*
X12290757Y-15245200D01*
X12290757Y-15316629D01*
X12276471Y-15373771D01*
X12262186Y-15402343D01*
X12247900Y-15416629D01*
X12219328Y-15430914D01*
X12190757Y-15430914D01*
X12162186Y-15416629D01*
X12147900Y-15402343D01*
X12133614Y-15373771D01*
X12119328Y-15316629D01*
X12119328Y-15245200D01*
X12133614Y-15188057D01*
X12147900Y-15159486D01*
X12162186Y-15145200D01*
X12190757Y-15130914D01*
X12419328Y-15430914D02*
X12419328Y-15230914D01*
X12419328Y-15259486D02*
X12433614Y-15245200D01*
X12462186Y-15230914D01*
X12505043Y-15230914D01*
X12533614Y-15245200D01*
X12547900Y-15273771D01*
X12547900Y-15430914D01*
X12547900Y-15273771D02*
X12562186Y-15245200D01*
X12590757Y-15230914D01*
X12633614Y-15230914D01*
X12662186Y-15245200D01*
X12676471Y-15273771D01*
X12676471Y-15430914D01*
X12819328Y-15430914D02*
X12819328Y-15230914D01*
X12819328Y-15259486D02*
X12833614Y-15245200D01*
X12862186Y-15230914D01*
X12905043Y-15230914D01*
X12933614Y-15245200D01*
X12947900Y-15273771D01*
X12947900Y-15430914D01*
X12947900Y-15273771D02*
X12962186Y-15245200D01*
X12990757Y-15230914D01*
X13033614Y-15230914D01*
X13062186Y-15245200D01*
X13076471Y-15273771D01*
X13076471Y-15430914D01*
X13662186Y-15116629D02*
X13405043Y-15502343D01*
X14047900Y-15130914D02*
X14076471Y-15130914D01*
X14105043Y-15145200D01*
X14119328Y-15159486D01*
X14133614Y-15188057D01*
X14147900Y-15245200D01*
X14147900Y-15316629D01*
X14133614Y-15373771D01*
X14119328Y-15402343D01*
X14105043Y-15416629D01*
X14076471Y-15430914D01*
X14047900Y-15430914D01*
X14019328Y-15416629D01*
X14005043Y-15402343D01*
X13990757Y-15373771D01*
X13976471Y-15316629D01*
X13976471Y-15245200D01*
X13990757Y-15188057D01*
X14005043Y-15159486D01*
X14019328Y-15145200D01*
X14047900Y-15130914D01*
X14276471Y-15402343D02*
X14290757Y-15416629D01*
X14276471Y-15430914D01*
X14262186Y-15416629D01*
X14276471Y-15402343D01*
X14276471Y-15430914D01*
X14476471Y-15130914D02*
X14505043Y-15130914D01*
X14533614Y-15145200D01*
X14547900Y-15159486D01*
X14562186Y-15188057D01*
X14576471Y-15245200D01*
X14576471Y-15316629D01*
X14562186Y-15373771D01*
X14547900Y-15402343D01*
X14533614Y-15416629D01*
X14505043Y-15430914D01*
X14476471Y-15430914D01*
X14447900Y-15416629D01*
X14433614Y-15402343D01*
X14419328Y-15373771D01*
X14405043Y-15316629D01*
X14405043Y-15245200D01*
X14419328Y-15188057D01*
X14433614Y-15159486D01*
X14447900Y-15145200D01*
X14476471Y-15130914D01*
X14676471Y-15130914D02*
X14862186Y-15130914D01*
X14762186Y-15245200D01*
X14805043Y-15245200D01*
X14833614Y-15259486D01*
X14847900Y-15273771D01*
X14862186Y-15302343D01*
X14862186Y-15373771D01*
X14847900Y-15402343D01*
X14833614Y-15416629D01*
X14805043Y-15430914D01*
X14719328Y-15430914D01*
X14690757Y-15416629D01*
X14676471Y-15402343D01*
X15005043Y-15430914D02*
X15062186Y-15430914D01*
X15090757Y-15416629D01*
X15105043Y-15402343D01*
X15133614Y-15359486D01*
X15147900Y-15302343D01*
X15147900Y-15188057D01*
X15133614Y-15159486D01*
X15119328Y-15145200D01*
X15090757Y-15130914D01*
X15033614Y-15130914D01*
X15005043Y-15145200D01*
X14990757Y-15159486D01*
X14976471Y-15188057D01*
X14976471Y-15259486D01*
X14990757Y-15288057D01*
X15005043Y-15302343D01*
X15033614Y-15316629D01*
X15090757Y-15316629D01*
X15119328Y-15302343D01*
X15133614Y-15288057D01*
X15147900Y-15259486D01*
X15262186Y-15130914D02*
X15262186Y-15188057D01*
X15376471Y-15130914D02*
X15376471Y-15188057D01*
X15819328Y-15545200D02*
X15805043Y-15530914D01*
X15776471Y-15488057D01*
X15762186Y-15459486D01*
X15747900Y-15416629D01*
X15733614Y-15345200D01*
X15733614Y-15288057D01*
X15747900Y-15216629D01*
X15762186Y-15173771D01*
X15776471Y-15145200D01*
X15805043Y-15102343D01*
X15819328Y-15088057D01*
X16062186Y-15130914D02*
X16005043Y-15130914D01*
X15976471Y-15145200D01*
X15962186Y-15159486D01*
X15933614Y-15202343D01*
X15919328Y-15259486D01*
X15919328Y-15373771D01*
X15933614Y-15402343D01*
X15947900Y-15416629D01*
X15976471Y-15430914D01*
X16033614Y-15430914D01*
X16062186Y-15416629D01*
X16076471Y-15402343D01*
X16090757Y-15373771D01*
X16090757Y-15302343D01*
X16076471Y-15273771D01*
X16062186Y-15259486D01*
X16033614Y-15245200D01*
X15976471Y-15245200D01*
X15947900Y-15259486D01*
X15933614Y-15273771D01*
X15919328Y-15302343D01*
X16205043Y-15159486D02*
X16219328Y-15145200D01*
X16247900Y-15130914D01*
X16319328Y-15130914D01*
X16347900Y-15145200D01*
X16362186Y-15159486D01*
X16376471Y-15188057D01*
X16376471Y-15216629D01*
X16362186Y-15259486D01*
X16190757Y-15430914D01*
X16376471Y-15430914D01*
X16733614Y-15430914D02*
X16733614Y-15130914D01*
X16862186Y-15430914D02*
X16862186Y-15273771D01*
X16847900Y-15245200D01*
X16819328Y-15230914D01*
X16776471Y-15230914D01*
X16747900Y-15245200D01*
X16733614Y-15259486D01*
X17047900Y-15430914D02*
X17019328Y-15416629D01*
X17005043Y-15402343D01*
X16990757Y-15373771D01*
X16990757Y-15288057D01*
X17005043Y-15259486D01*
X17019328Y-15245200D01*
X17047900Y-15230914D01*
X17090757Y-15230914D01*
X17119328Y-15245200D01*
X17133614Y-15259486D01*
X17147900Y-15288057D01*
X17147900Y-15373771D01*
X17133614Y-15402343D01*
X17119328Y-15416629D01*
X17090757Y-15430914D01*
X17047900Y-15430914D01*
X17319328Y-15430914D02*
X17290757Y-15416629D01*
X17276471Y-15388057D01*
X17276471Y-15130914D01*
X17547900Y-15416629D02*
X17519328Y-15430914D01*
X17462186Y-15430914D01*
X17433614Y-15416629D01*
X17419328Y-15388057D01*
X17419328Y-15273771D01*
X17433614Y-15245200D01*
X17462186Y-15230914D01*
X17519328Y-15230914D01*
X17547900Y-15245200D01*
X17562186Y-15273771D01*
X17562186Y-15302343D01*
X17419328Y-15330914D01*
X17676471Y-15416629D02*
X17705043Y-15430914D01*
X17762186Y-15430914D01*
X17790757Y-15416629D01*
X17805043Y-15388057D01*
X17805043Y-15373771D01*
X17790757Y-15345200D01*
X17762186Y-15330914D01*
X17719328Y-15330914D01*
X17690757Y-15316629D01*
X17676471Y-15288057D01*
X17676471Y-15273771D01*
X17690757Y-15245200D01*
X17719328Y-15230914D01*
X17762186Y-15230914D01*
X17790757Y-15245200D01*
X17905043Y-15545200D02*
X17919328Y-15530914D01*
X17947900Y-15488057D01*
X17962186Y-15459486D01*
X17976471Y-15416629D01*
X17990757Y-15345200D01*
X17990757Y-15288057D01*
X17976471Y-15216629D01*
X17962186Y-15173771D01*
X17947900Y-15145200D01*
X17919328Y-15102343D01*
X17905043Y-15088057D01*
M02*
