%TF.GenerationSoftware,KiCad,Pcbnew,(5.1.12-1-10_14)*%
%TF.CreationDate,2022-01-05T14:26:23+01:00*%
%TF.ProjectId,viaduct,76696164-7563-4742-9e6b-696361645f70,rev?*%
%TF.SameCoordinates,Original*%
%TF.FileFunction,Legend,Top*%
%TF.FilePolarity,Positive*%
%FSLAX46Y46*%
G04 Gerber Fmt 4.6, Leading zero omitted, Abs format (unit mm)*
G04 Created by KiCad (PCBNEW (5.1.12-1-10_14)) date 2022-01-05 14:26:23*
%MOMM*%
%LPD*%
G01*
G04 APERTURE LIST*
%ADD10C,0.150000*%
%ADD11C,0.100000*%
%ADD12C,0.300000*%
%ADD13C,0.120000*%
G04 APERTURE END LIST*
D10*
X122701104Y-119951038D02*
X123272533Y-119951038D01*
X123386819Y-119989133D01*
X123463009Y-120065323D01*
X123501104Y-120179609D01*
X123501104Y-120255800D01*
X123501104Y-119189133D02*
X123501104Y-119570085D01*
X122701104Y-119570085D01*
X123424914Y-118465323D02*
X123463009Y-118503419D01*
X123501104Y-118617704D01*
X123501104Y-118693895D01*
X123463009Y-118808180D01*
X123386819Y-118884371D01*
X123310628Y-118922466D01*
X123158247Y-118960561D01*
X123043961Y-118960561D01*
X122891580Y-118922466D01*
X122815390Y-118884371D01*
X122739200Y-118808180D01*
X122701104Y-118693895D01*
X122701104Y-118617704D01*
X122739200Y-118503419D01*
X122777295Y-118465323D01*
X122701104Y-117893895D02*
X123272533Y-117893895D01*
X123386819Y-117931990D01*
X123463009Y-118008180D01*
X123501104Y-118122466D01*
X123501104Y-118198657D01*
X123501104Y-117131990D02*
X123501104Y-117512942D01*
X122701104Y-117512942D01*
X123424914Y-116408180D02*
X123463009Y-116446276D01*
X123501104Y-116560561D01*
X123501104Y-116636752D01*
X123463009Y-116751038D01*
X123386819Y-116827228D01*
X123310628Y-116865323D01*
X123158247Y-116903419D01*
X123043961Y-116903419D01*
X122891580Y-116865323D01*
X122815390Y-116827228D01*
X122739200Y-116751038D01*
X122701104Y-116636752D01*
X122701104Y-116560561D01*
X122739200Y-116446276D01*
X122777295Y-116408180D01*
X122701104Y-115836752D02*
X123272533Y-115836752D01*
X123386819Y-115874847D01*
X123463009Y-115951038D01*
X123501104Y-116065323D01*
X123501104Y-116141514D01*
X123501104Y-115074847D02*
X123501104Y-115455800D01*
X122701104Y-115455800D01*
X123424914Y-114351038D02*
X123463009Y-114389133D01*
X123501104Y-114503419D01*
X123501104Y-114579609D01*
X123463009Y-114693895D01*
X123386819Y-114770085D01*
X123310628Y-114808180D01*
X123158247Y-114846276D01*
X123043961Y-114846276D01*
X122891580Y-114808180D01*
X122815390Y-114770085D01*
X122739200Y-114693895D01*
X122701104Y-114579609D01*
X122701104Y-114503419D01*
X122739200Y-114389133D01*
X122777295Y-114351038D01*
X122701104Y-113779609D02*
X123272533Y-113779609D01*
X123386819Y-113817704D01*
X123463009Y-113893895D01*
X123501104Y-114008180D01*
X123501104Y-114084371D01*
X123501104Y-113017704D02*
X123501104Y-113398657D01*
X122701104Y-113398657D01*
X123424914Y-112293895D02*
X123463009Y-112331990D01*
X123501104Y-112446276D01*
X123501104Y-112522466D01*
X123463009Y-112636752D01*
X123386819Y-112712942D01*
X123310628Y-112751038D01*
X123158247Y-112789133D01*
X123043961Y-112789133D01*
X122891580Y-112751038D01*
X122815390Y-112712942D01*
X122739200Y-112636752D01*
X122701104Y-112522466D01*
X122701104Y-112446276D01*
X122739200Y-112331990D01*
X122777295Y-112293895D01*
D11*
G36*
X187579000Y-128270000D02*
G01*
X187007500Y-128270000D01*
X187007500Y-127889000D01*
X187579000Y-127889000D01*
X187579000Y-128270000D01*
G37*
X187579000Y-128270000D02*
X187007500Y-128270000D01*
X187007500Y-127889000D01*
X187579000Y-127889000D01*
X187579000Y-128270000D01*
G36*
X187579000Y-125730000D02*
G01*
X187007500Y-125730000D01*
X187007500Y-125349000D01*
X187579000Y-125349000D01*
X187579000Y-125730000D01*
G37*
X187579000Y-125730000D02*
X187007500Y-125730000D01*
X187007500Y-125349000D01*
X187579000Y-125349000D01*
X187579000Y-125730000D01*
G36*
X187579000Y-123190000D02*
G01*
X187007500Y-123190000D01*
X187007500Y-122809000D01*
X187579000Y-122809000D01*
X187579000Y-123190000D01*
G37*
X187579000Y-123190000D02*
X187007500Y-123190000D01*
X187007500Y-122809000D01*
X187579000Y-122809000D01*
X187579000Y-123190000D01*
G36*
X187579000Y-120650000D02*
G01*
X187007500Y-120650000D01*
X187007500Y-120269000D01*
X187579000Y-120269000D01*
X187579000Y-120650000D01*
G37*
X187579000Y-120650000D02*
X187007500Y-120650000D01*
X187007500Y-120269000D01*
X187579000Y-120269000D01*
X187579000Y-120650000D01*
G36*
X187579000Y-118110000D02*
G01*
X187007500Y-118110000D01*
X187007500Y-117729000D01*
X187579000Y-117729000D01*
X187579000Y-118110000D01*
G37*
X187579000Y-118110000D02*
X187007500Y-118110000D01*
X187007500Y-117729000D01*
X187579000Y-117729000D01*
X187579000Y-118110000D01*
G36*
X187579000Y-115570000D02*
G01*
X187007500Y-115570000D01*
X187007500Y-115189000D01*
X187579000Y-115189000D01*
X187579000Y-115570000D01*
G37*
X187579000Y-115570000D02*
X187007500Y-115570000D01*
X187007500Y-115189000D01*
X187579000Y-115189000D01*
X187579000Y-115570000D01*
G36*
X187579000Y-113030000D02*
G01*
X187007500Y-113030000D01*
X187007500Y-112649000D01*
X187579000Y-112649000D01*
X187579000Y-113030000D01*
G37*
X187579000Y-113030000D02*
X187007500Y-113030000D01*
X187007500Y-112649000D01*
X187579000Y-112649000D01*
X187579000Y-113030000D01*
G36*
X187579000Y-110363000D02*
G01*
X187007500Y-110363000D01*
X187007500Y-109982000D01*
X187579000Y-109982000D01*
X187579000Y-110363000D01*
G37*
X187579000Y-110363000D02*
X187007500Y-110363000D01*
X187007500Y-109982000D01*
X187579000Y-109982000D01*
X187579000Y-110363000D01*
G36*
X187579000Y-107950000D02*
G01*
X187007500Y-107950000D01*
X187007500Y-107569000D01*
X187579000Y-107569000D01*
X187579000Y-107950000D01*
G37*
X187579000Y-107950000D02*
X187007500Y-107950000D01*
X187007500Y-107569000D01*
X187579000Y-107569000D01*
X187579000Y-107950000D01*
G36*
X187579000Y-105410000D02*
G01*
X187007500Y-105410000D01*
X187007500Y-105029000D01*
X187579000Y-105029000D01*
X187579000Y-105410000D01*
G37*
X187579000Y-105410000D02*
X187007500Y-105410000D01*
X187007500Y-105029000D01*
X187579000Y-105029000D01*
X187579000Y-105410000D01*
G36*
X187579000Y-103124000D02*
G01*
X187007500Y-103124000D01*
X187007500Y-102743000D01*
X187579000Y-102743000D01*
X187579000Y-103124000D01*
G37*
X187579000Y-103124000D02*
X187007500Y-103124000D01*
X187007500Y-102743000D01*
X187579000Y-102743000D01*
X187579000Y-103124000D01*
G36*
X187579000Y-100266500D02*
G01*
X187007500Y-100266500D01*
X187007500Y-99885500D01*
X187579000Y-99885500D01*
X187579000Y-100266500D01*
G37*
X187579000Y-100266500D02*
X187007500Y-100266500D01*
X187007500Y-99885500D01*
X187579000Y-99885500D01*
X187579000Y-100266500D01*
D10*
X184700428Y-127743000D02*
X184624238Y-127704904D01*
X184509952Y-127704904D01*
X184395666Y-127743000D01*
X184319476Y-127819190D01*
X184281380Y-127895380D01*
X184243285Y-128047761D01*
X184243285Y-128162047D01*
X184281380Y-128314428D01*
X184319476Y-128390619D01*
X184395666Y-128466809D01*
X184509952Y-128504904D01*
X184586142Y-128504904D01*
X184700428Y-128466809D01*
X184738523Y-128428714D01*
X184738523Y-128162047D01*
X184586142Y-128162047D01*
X185081380Y-128504904D02*
X185081380Y-127704904D01*
X185538523Y-128504904D01*
X185538523Y-127704904D01*
X185919476Y-128504904D02*
X185919476Y-127704904D01*
X186109952Y-127704904D01*
X186224238Y-127743000D01*
X186300428Y-127819190D01*
X186338523Y-127895380D01*
X186376619Y-128047761D01*
X186376619Y-128162047D01*
X186338523Y-128314428D01*
X186300428Y-128390619D01*
X186224238Y-128466809D01*
X186109952Y-128504904D01*
X185919476Y-128504904D01*
X184281380Y-100196642D02*
X184890904Y-100196642D01*
X184586142Y-100501404D02*
X184586142Y-99891880D01*
X185652809Y-99701404D02*
X185271857Y-99701404D01*
X185233761Y-100082357D01*
X185271857Y-100044261D01*
X185348047Y-100006166D01*
X185538523Y-100006166D01*
X185614714Y-100044261D01*
X185652809Y-100082357D01*
X185690904Y-100158547D01*
X185690904Y-100349023D01*
X185652809Y-100425214D01*
X185614714Y-100463309D01*
X185538523Y-100501404D01*
X185348047Y-100501404D01*
X185271857Y-100463309D01*
X185233761Y-100425214D01*
X185919476Y-99701404D02*
X186186142Y-100501404D01*
X186452809Y-99701404D01*
X118306904Y-125006000D02*
X119106904Y-124739333D01*
X118306904Y-124472666D01*
X119106904Y-124206000D02*
X118306904Y-124206000D01*
X118878333Y-123863142D02*
X118878333Y-123482190D01*
X119106904Y-123939333D02*
X118306904Y-123672666D01*
X119106904Y-123406000D01*
X149428857Y-127539771D02*
X149428857Y-128073104D01*
X149428857Y-127615961D02*
X149466952Y-127577866D01*
X149543142Y-127539771D01*
X149657428Y-127539771D01*
X149733619Y-127577866D01*
X149771714Y-127654057D01*
X149771714Y-128073104D01*
X150266952Y-127615961D02*
X150190761Y-127577866D01*
X150152666Y-127539771D01*
X150114571Y-127463580D01*
X150114571Y-127425485D01*
X150152666Y-127349295D01*
X150190761Y-127311200D01*
X150266952Y-127273104D01*
X150419333Y-127273104D01*
X150495523Y-127311200D01*
X150533619Y-127349295D01*
X150571714Y-127425485D01*
X150571714Y-127463580D01*
X150533619Y-127539771D01*
X150495523Y-127577866D01*
X150419333Y-127615961D01*
X150266952Y-127615961D01*
X150190761Y-127654057D01*
X150152666Y-127692152D01*
X150114571Y-127768342D01*
X150114571Y-127920723D01*
X150152666Y-127996914D01*
X150190761Y-128035009D01*
X150266952Y-128073104D01*
X150419333Y-128073104D01*
X150495523Y-128035009D01*
X150533619Y-127996914D01*
X150571714Y-127920723D01*
X150571714Y-127768342D01*
X150533619Y-127692152D01*
X150495523Y-127654057D01*
X150419333Y-127615961D01*
X151790761Y-127654057D02*
X151905047Y-127692152D01*
X151943142Y-127730247D01*
X151981238Y-127806438D01*
X151981238Y-127920723D01*
X151943142Y-127996914D01*
X151905047Y-128035009D01*
X151828857Y-128073104D01*
X151524095Y-128073104D01*
X151524095Y-127273104D01*
X151790761Y-127273104D01*
X151866952Y-127311200D01*
X151905047Y-127349295D01*
X151943142Y-127425485D01*
X151943142Y-127501676D01*
X151905047Y-127577866D01*
X151866952Y-127615961D01*
X151790761Y-127654057D01*
X151524095Y-127654057D01*
X152666952Y-127539771D02*
X152666952Y-128073104D01*
X152324095Y-127539771D02*
X152324095Y-127958819D01*
X152362190Y-128035009D01*
X152438380Y-128073104D01*
X152552666Y-128073104D01*
X152628857Y-128035009D01*
X152666952Y-127996914D01*
X153009809Y-128035009D02*
X153086000Y-128073104D01*
X153238380Y-128073104D01*
X153314571Y-128035009D01*
X153352666Y-127958819D01*
X153352666Y-127920723D01*
X153314571Y-127844533D01*
X153238380Y-127806438D01*
X153124095Y-127806438D01*
X153047904Y-127768342D01*
X153009809Y-127692152D01*
X153009809Y-127654057D01*
X153047904Y-127577866D01*
X153124095Y-127539771D01*
X153238380Y-127539771D01*
X153314571Y-127577866D01*
X154762190Y-127996914D02*
X154724095Y-128035009D01*
X154609809Y-128073104D01*
X154533619Y-128073104D01*
X154419333Y-128035009D01*
X154343142Y-127958819D01*
X154305047Y-127882628D01*
X154266952Y-127730247D01*
X154266952Y-127615961D01*
X154305047Y-127463580D01*
X154343142Y-127387390D01*
X154419333Y-127311200D01*
X154533619Y-127273104D01*
X154609809Y-127273104D01*
X154724095Y-127311200D01*
X154762190Y-127349295D01*
X155219333Y-128073104D02*
X155143142Y-128035009D01*
X155105047Y-127996914D01*
X155066952Y-127920723D01*
X155066952Y-127692152D01*
X155105047Y-127615961D01*
X155143142Y-127577866D01*
X155219333Y-127539771D01*
X155333619Y-127539771D01*
X155409809Y-127577866D01*
X155447904Y-127615961D01*
X155486000Y-127692152D01*
X155486000Y-127920723D01*
X155447904Y-127996914D01*
X155409809Y-128035009D01*
X155333619Y-128073104D01*
X155219333Y-128073104D01*
X155828857Y-127539771D02*
X155828857Y-128073104D01*
X155828857Y-127615961D02*
X155866952Y-127577866D01*
X155943142Y-127539771D01*
X156057428Y-127539771D01*
X156133619Y-127577866D01*
X156171714Y-127654057D01*
X156171714Y-128073104D01*
X156552666Y-127539771D02*
X156552666Y-128073104D01*
X156552666Y-127615961D02*
X156590761Y-127577866D01*
X156666952Y-127539771D01*
X156781238Y-127539771D01*
X156857428Y-127577866D01*
X156895523Y-127654057D01*
X156895523Y-128073104D01*
X157581238Y-128035009D02*
X157505047Y-128073104D01*
X157352666Y-128073104D01*
X157276476Y-128035009D01*
X157238380Y-127958819D01*
X157238380Y-127654057D01*
X157276476Y-127577866D01*
X157352666Y-127539771D01*
X157505047Y-127539771D01*
X157581238Y-127577866D01*
X157619333Y-127654057D01*
X157619333Y-127730247D01*
X157238380Y-127806438D01*
X158305047Y-128035009D02*
X158228857Y-128073104D01*
X158076476Y-128073104D01*
X158000285Y-128035009D01*
X157962190Y-127996914D01*
X157924095Y-127920723D01*
X157924095Y-127692152D01*
X157962190Y-127615961D01*
X158000285Y-127577866D01*
X158076476Y-127539771D01*
X158228857Y-127539771D01*
X158305047Y-127577866D01*
X158533619Y-127539771D02*
X158838380Y-127539771D01*
X158647904Y-127273104D02*
X158647904Y-127958819D01*
X158686000Y-128035009D01*
X158762190Y-128073104D01*
X158838380Y-128073104D01*
X159219333Y-128073104D02*
X159143142Y-128035009D01*
X159105047Y-127996914D01*
X159066952Y-127920723D01*
X159066952Y-127692152D01*
X159105047Y-127615961D01*
X159143142Y-127577866D01*
X159219333Y-127539771D01*
X159333619Y-127539771D01*
X159409809Y-127577866D01*
X159447904Y-127615961D01*
X159486000Y-127692152D01*
X159486000Y-127920723D01*
X159447904Y-127996914D01*
X159409809Y-128035009D01*
X159333619Y-128073104D01*
X159219333Y-128073104D01*
X159828857Y-128073104D02*
X159828857Y-127539771D01*
X159828857Y-127692152D02*
X159866952Y-127615961D01*
X159905047Y-127577866D01*
X159981238Y-127539771D01*
X160057428Y-127539771D01*
D12*
X174717095Y-131683261D02*
X175383761Y-133683261D01*
X176050428Y-131683261D01*
X176717095Y-133683261D02*
X176717095Y-132349928D01*
X176717095Y-131683261D02*
X176621857Y-131778500D01*
X176717095Y-131873738D01*
X176812333Y-131778500D01*
X176717095Y-131683261D01*
X176717095Y-131873738D01*
X178526619Y-133683261D02*
X178526619Y-132635642D01*
X178431380Y-132445166D01*
X178240904Y-132349928D01*
X177859952Y-132349928D01*
X177669476Y-132445166D01*
X178526619Y-133588023D02*
X178336142Y-133683261D01*
X177859952Y-133683261D01*
X177669476Y-133588023D01*
X177574238Y-133397547D01*
X177574238Y-133207071D01*
X177669476Y-133016595D01*
X177859952Y-132921357D01*
X178336142Y-132921357D01*
X178526619Y-132826119D01*
X180336142Y-133683261D02*
X180336142Y-131683261D01*
X180336142Y-133588023D02*
X180145666Y-133683261D01*
X179764714Y-133683261D01*
X179574238Y-133588023D01*
X179479000Y-133492785D01*
X179383761Y-133302309D01*
X179383761Y-132730880D01*
X179479000Y-132540404D01*
X179574238Y-132445166D01*
X179764714Y-132349928D01*
X180145666Y-132349928D01*
X180336142Y-132445166D01*
X182145666Y-132349928D02*
X182145666Y-133683261D01*
X181288523Y-132349928D02*
X181288523Y-133397547D01*
X181383761Y-133588023D01*
X181574238Y-133683261D01*
X181859952Y-133683261D01*
X182050428Y-133588023D01*
X182145666Y-133492785D01*
X183955190Y-133588023D02*
X183764714Y-133683261D01*
X183383761Y-133683261D01*
X183193285Y-133588023D01*
X183098047Y-133492785D01*
X183002809Y-133302309D01*
X183002809Y-132730880D01*
X183098047Y-132540404D01*
X183193285Y-132445166D01*
X183383761Y-132349928D01*
X183764714Y-132349928D01*
X183955190Y-132445166D01*
X184526619Y-132349928D02*
X185288523Y-132349928D01*
X184812333Y-131683261D02*
X184812333Y-133397547D01*
X184907571Y-133588023D01*
X185098047Y-133683261D01*
X185288523Y-133683261D01*
D11*
G36*
X144018000Y-104140000D02*
G01*
X143510000Y-104648000D01*
X143002000Y-104140000D01*
X143510000Y-103632000D01*
X144018000Y-104140000D01*
G37*
X144018000Y-104140000D02*
X143510000Y-104648000D01*
X143002000Y-104140000D01*
X143510000Y-103632000D01*
X144018000Y-104140000D01*
G36*
X168783000Y-104140000D02*
G01*
X168275000Y-104648000D01*
X167767000Y-104140000D01*
X168275000Y-103632000D01*
X168783000Y-104140000D01*
G37*
X168783000Y-104140000D02*
X168275000Y-104648000D01*
X167767000Y-104140000D01*
X168275000Y-103632000D01*
X168783000Y-104140000D01*
D10*
X172746000Y-95954857D02*
X172479333Y-95954857D01*
X172479333Y-96373904D02*
X172479333Y-95573904D01*
X172860285Y-95573904D01*
X173165047Y-96373904D02*
X173165047Y-95840571D01*
X173165047Y-95992952D02*
X173203142Y-95916761D01*
X173241238Y-95878666D01*
X173317428Y-95840571D01*
X173393619Y-95840571D01*
X173774571Y-96373904D02*
X173698380Y-96335809D01*
X173660285Y-96297714D01*
X173622190Y-96221523D01*
X173622190Y-95992952D01*
X173660285Y-95916761D01*
X173698380Y-95878666D01*
X173774571Y-95840571D01*
X173888857Y-95840571D01*
X173965047Y-95878666D01*
X174003142Y-95916761D01*
X174041238Y-95992952D01*
X174041238Y-96221523D01*
X174003142Y-96297714D01*
X173965047Y-96335809D01*
X173888857Y-96373904D01*
X173774571Y-96373904D01*
X174384095Y-95840571D02*
X174384095Y-96373904D01*
X174384095Y-95916761D02*
X174422190Y-95878666D01*
X174498380Y-95840571D01*
X174612666Y-95840571D01*
X174688857Y-95878666D01*
X174726952Y-95954857D01*
X174726952Y-96373904D01*
X174993619Y-95840571D02*
X175298380Y-95840571D01*
X175107904Y-95573904D02*
X175107904Y-96259619D01*
X175146000Y-96335809D01*
X175222190Y-96373904D01*
X175298380Y-96373904D01*
X176631714Y-96297714D02*
X176593619Y-96335809D01*
X176479333Y-96373904D01*
X176403142Y-96373904D01*
X176288857Y-96335809D01*
X176212666Y-96259619D01*
X176174571Y-96183428D01*
X176136476Y-96031047D01*
X176136476Y-95916761D01*
X176174571Y-95764380D01*
X176212666Y-95688190D01*
X176288857Y-95612000D01*
X176403142Y-95573904D01*
X176479333Y-95573904D01*
X176593619Y-95612000D01*
X176631714Y-95650095D01*
X177088857Y-96373904D02*
X177012666Y-96335809D01*
X176974571Y-96297714D01*
X176936476Y-96221523D01*
X176936476Y-95992952D01*
X176974571Y-95916761D01*
X177012666Y-95878666D01*
X177088857Y-95840571D01*
X177203142Y-95840571D01*
X177279333Y-95878666D01*
X177317428Y-95916761D01*
X177355523Y-95992952D01*
X177355523Y-96221523D01*
X177317428Y-96297714D01*
X177279333Y-96335809D01*
X177203142Y-96373904D01*
X177088857Y-96373904D01*
X177812666Y-96373904D02*
X177736476Y-96335809D01*
X177698380Y-96259619D01*
X177698380Y-95573904D01*
X178117428Y-96297714D02*
X178155523Y-96335809D01*
X178117428Y-96373904D01*
X178079333Y-96335809D01*
X178117428Y-96297714D01*
X178117428Y-96373904D01*
X178117428Y-95878666D02*
X178155523Y-95916761D01*
X178117428Y-95954857D01*
X178079333Y-95916761D01*
X178117428Y-95878666D01*
X178117428Y-95954857D01*
X179107904Y-96373904D02*
X179107904Y-95573904D01*
X179412666Y-95573904D01*
X179488857Y-95612000D01*
X179526952Y-95650095D01*
X179565047Y-95726285D01*
X179565047Y-95840571D01*
X179526952Y-95916761D01*
X179488857Y-95954857D01*
X179412666Y-95992952D01*
X179107904Y-95992952D01*
X180022190Y-96373904D02*
X179946000Y-96335809D01*
X179907904Y-96297714D01*
X179869809Y-96221523D01*
X179869809Y-95992952D01*
X179907904Y-95916761D01*
X179946000Y-95878666D01*
X180022190Y-95840571D01*
X180136476Y-95840571D01*
X180212666Y-95878666D01*
X180250761Y-95916761D01*
X180288857Y-95992952D01*
X180288857Y-96221523D01*
X180250761Y-96297714D01*
X180212666Y-96335809D01*
X180136476Y-96373904D01*
X180022190Y-96373904D01*
X180631714Y-96373904D02*
X180631714Y-95840571D01*
X180631714Y-95992952D02*
X180669809Y-95916761D01*
X180707904Y-95878666D01*
X180784095Y-95840571D01*
X180860285Y-95840571D01*
X181012666Y-95840571D02*
X181317428Y-95840571D01*
X181126952Y-95573904D02*
X181126952Y-96259619D01*
X181165047Y-96335809D01*
X181241238Y-96373904D01*
X181317428Y-96373904D01*
X182460285Y-95954857D02*
X182574571Y-95992952D01*
X182612666Y-96031047D01*
X182650761Y-96107238D01*
X182650761Y-96221523D01*
X182612666Y-96297714D01*
X182574571Y-96335809D01*
X182498380Y-96373904D01*
X182193619Y-96373904D01*
X182193619Y-95573904D01*
X182460285Y-95573904D01*
X182536476Y-95612000D01*
X182574571Y-95650095D01*
X182612666Y-95726285D01*
X182612666Y-95802476D01*
X182574571Y-95878666D01*
X182536476Y-95916761D01*
X182460285Y-95954857D01*
X182193619Y-95954857D01*
X172980928Y-94430857D02*
X173095214Y-94468952D01*
X173133309Y-94507047D01*
X173171404Y-94583238D01*
X173171404Y-94697523D01*
X173133309Y-94773714D01*
X173095214Y-94811809D01*
X173019023Y-94849904D01*
X172714261Y-94849904D01*
X172714261Y-94049904D01*
X172980928Y-94049904D01*
X173057119Y-94088000D01*
X173095214Y-94126095D01*
X173133309Y-94202285D01*
X173133309Y-94278476D01*
X173095214Y-94354666D01*
X173057119Y-94392761D01*
X172980928Y-94430857D01*
X172714261Y-94430857D01*
X173857119Y-94849904D02*
X173857119Y-94430857D01*
X173819023Y-94354666D01*
X173742833Y-94316571D01*
X173590452Y-94316571D01*
X173514261Y-94354666D01*
X173857119Y-94811809D02*
X173780928Y-94849904D01*
X173590452Y-94849904D01*
X173514261Y-94811809D01*
X173476166Y-94735619D01*
X173476166Y-94659428D01*
X173514261Y-94583238D01*
X173590452Y-94545142D01*
X173780928Y-94545142D01*
X173857119Y-94507047D01*
X174580928Y-94811809D02*
X174504738Y-94849904D01*
X174352357Y-94849904D01*
X174276166Y-94811809D01*
X174238071Y-94773714D01*
X174199976Y-94697523D01*
X174199976Y-94468952D01*
X174238071Y-94392761D01*
X174276166Y-94354666D01*
X174352357Y-94316571D01*
X174504738Y-94316571D01*
X174580928Y-94354666D01*
X174923785Y-94849904D02*
X174923785Y-94049904D01*
X174999976Y-94545142D02*
X175228547Y-94849904D01*
X175228547Y-94316571D02*
X174923785Y-94621333D01*
X176638071Y-94773714D02*
X176599976Y-94811809D01*
X176485690Y-94849904D01*
X176409500Y-94849904D01*
X176295214Y-94811809D01*
X176219023Y-94735619D01*
X176180928Y-94659428D01*
X176142833Y-94507047D01*
X176142833Y-94392761D01*
X176180928Y-94240380D01*
X176219023Y-94164190D01*
X176295214Y-94088000D01*
X176409500Y-94049904D01*
X176485690Y-94049904D01*
X176599976Y-94088000D01*
X176638071Y-94126095D01*
X177095214Y-94849904D02*
X177019023Y-94811809D01*
X176980928Y-94773714D01*
X176942833Y-94697523D01*
X176942833Y-94468952D01*
X176980928Y-94392761D01*
X177019023Y-94354666D01*
X177095214Y-94316571D01*
X177209500Y-94316571D01*
X177285690Y-94354666D01*
X177323785Y-94392761D01*
X177361880Y-94468952D01*
X177361880Y-94697523D01*
X177323785Y-94773714D01*
X177285690Y-94811809D01*
X177209500Y-94849904D01*
X177095214Y-94849904D01*
X177819023Y-94849904D02*
X177742833Y-94811809D01*
X177704738Y-94735619D01*
X177704738Y-94049904D01*
X178123785Y-94773714D02*
X178161880Y-94811809D01*
X178123785Y-94849904D01*
X178085690Y-94811809D01*
X178123785Y-94773714D01*
X178123785Y-94849904D01*
X178123785Y-94354666D02*
X178161880Y-94392761D01*
X178123785Y-94430857D01*
X178085690Y-94392761D01*
X178123785Y-94354666D01*
X178123785Y-94430857D01*
X179114261Y-94849904D02*
X179114261Y-94049904D01*
X179419023Y-94049904D01*
X179495214Y-94088000D01*
X179533309Y-94126095D01*
X179571404Y-94202285D01*
X179571404Y-94316571D01*
X179533309Y-94392761D01*
X179495214Y-94430857D01*
X179419023Y-94468952D01*
X179114261Y-94468952D01*
X180028547Y-94849904D02*
X179952357Y-94811809D01*
X179914261Y-94773714D01*
X179876166Y-94697523D01*
X179876166Y-94468952D01*
X179914261Y-94392761D01*
X179952357Y-94354666D01*
X180028547Y-94316571D01*
X180142833Y-94316571D01*
X180219023Y-94354666D01*
X180257119Y-94392761D01*
X180295214Y-94468952D01*
X180295214Y-94697523D01*
X180257119Y-94773714D01*
X180219023Y-94811809D01*
X180142833Y-94849904D01*
X180028547Y-94849904D01*
X180638071Y-94849904D02*
X180638071Y-94316571D01*
X180638071Y-94468952D02*
X180676166Y-94392761D01*
X180714261Y-94354666D01*
X180790452Y-94316571D01*
X180866642Y-94316571D01*
X181019023Y-94316571D02*
X181323785Y-94316571D01*
X181133309Y-94049904D02*
X181133309Y-94735619D01*
X181171404Y-94811809D01*
X181247595Y-94849904D01*
X181323785Y-94849904D01*
X182161880Y-94621333D02*
X182542833Y-94621333D01*
X182085690Y-94849904D02*
X182352357Y-94049904D01*
X182619023Y-94849904D01*
X185667666Y-125888714D02*
X185629571Y-125926809D01*
X185515285Y-125964904D01*
X185439095Y-125964904D01*
X185324809Y-125926809D01*
X185248619Y-125850619D01*
X185210523Y-125774428D01*
X185172428Y-125622047D01*
X185172428Y-125507761D01*
X185210523Y-125355380D01*
X185248619Y-125279190D01*
X185324809Y-125203000D01*
X185439095Y-125164904D01*
X185515285Y-125164904D01*
X185629571Y-125203000D01*
X185667666Y-125241095D01*
X185972428Y-125241095D02*
X186010523Y-125203000D01*
X186086714Y-125164904D01*
X186277190Y-125164904D01*
X186353380Y-125203000D01*
X186391476Y-125241095D01*
X186429571Y-125317285D01*
X186429571Y-125393476D01*
X186391476Y-125507761D01*
X185934333Y-125964904D01*
X186429571Y-125964904D01*
X185667666Y-123348714D02*
X185629571Y-123386809D01*
X185515285Y-123424904D01*
X185439095Y-123424904D01*
X185324809Y-123386809D01*
X185248619Y-123310619D01*
X185210523Y-123234428D01*
X185172428Y-123082047D01*
X185172428Y-122967761D01*
X185210523Y-122815380D01*
X185248619Y-122739190D01*
X185324809Y-122663000D01*
X185439095Y-122624904D01*
X185515285Y-122624904D01*
X185629571Y-122663000D01*
X185667666Y-122701095D01*
X186429571Y-123424904D02*
X185972428Y-123424904D01*
X186201000Y-123424904D02*
X186201000Y-122624904D01*
X186124809Y-122739190D01*
X186048619Y-122815380D01*
X185972428Y-122853476D01*
X185210523Y-120884904D02*
X185210523Y-120084904D01*
X185515285Y-120084904D01*
X185591476Y-120123000D01*
X185629571Y-120161095D01*
X185667666Y-120237285D01*
X185667666Y-120351571D01*
X185629571Y-120427761D01*
X185591476Y-120465857D01*
X185515285Y-120503952D01*
X185210523Y-120503952D01*
X185934333Y-120084904D02*
X186467666Y-120084904D01*
X186124809Y-120884904D01*
X185210523Y-118344904D02*
X185210523Y-117544904D01*
X185515285Y-117544904D01*
X185591476Y-117583000D01*
X185629571Y-117621095D01*
X185667666Y-117697285D01*
X185667666Y-117811571D01*
X185629571Y-117887761D01*
X185591476Y-117925857D01*
X185515285Y-117963952D01*
X185210523Y-117963952D01*
X186353380Y-117544904D02*
X186201000Y-117544904D01*
X186124809Y-117583000D01*
X186086714Y-117621095D01*
X186010523Y-117735380D01*
X185972428Y-117887761D01*
X185972428Y-118192523D01*
X186010523Y-118268714D01*
X186048619Y-118306809D01*
X186124809Y-118344904D01*
X186277190Y-118344904D01*
X186353380Y-118306809D01*
X186391476Y-118268714D01*
X186429571Y-118192523D01*
X186429571Y-118002047D01*
X186391476Y-117925857D01*
X186353380Y-117887761D01*
X186277190Y-117849666D01*
X186124809Y-117849666D01*
X186048619Y-117887761D01*
X186010523Y-117925857D01*
X185972428Y-118002047D01*
X185210523Y-115804904D02*
X185210523Y-115004904D01*
X185515285Y-115004904D01*
X185591476Y-115043000D01*
X185629571Y-115081095D01*
X185667666Y-115157285D01*
X185667666Y-115271571D01*
X185629571Y-115347761D01*
X185591476Y-115385857D01*
X185515285Y-115423952D01*
X185210523Y-115423952D01*
X186391476Y-115004904D02*
X186010523Y-115004904D01*
X185972428Y-115385857D01*
X186010523Y-115347761D01*
X186086714Y-115309666D01*
X186277190Y-115309666D01*
X186353380Y-115347761D01*
X186391476Y-115385857D01*
X186429571Y-115462047D01*
X186429571Y-115652523D01*
X186391476Y-115728714D01*
X186353380Y-115766809D01*
X186277190Y-115804904D01*
X186086714Y-115804904D01*
X186010523Y-115766809D01*
X185972428Y-115728714D01*
X185210523Y-113264904D02*
X185210523Y-112464904D01*
X185515285Y-112464904D01*
X185591476Y-112503000D01*
X185629571Y-112541095D01*
X185667666Y-112617285D01*
X185667666Y-112731571D01*
X185629571Y-112807761D01*
X185591476Y-112845857D01*
X185515285Y-112883952D01*
X185210523Y-112883952D01*
X186353380Y-112731571D02*
X186353380Y-113264904D01*
X186162904Y-112426809D02*
X185972428Y-112998238D01*
X186467666Y-112998238D01*
X185210523Y-110597904D02*
X185210523Y-109797904D01*
X185515285Y-109797904D01*
X185591476Y-109836000D01*
X185629571Y-109874095D01*
X185667666Y-109950285D01*
X185667666Y-110064571D01*
X185629571Y-110140761D01*
X185591476Y-110178857D01*
X185515285Y-110216952D01*
X185210523Y-110216952D01*
X185934333Y-109797904D02*
X186429571Y-109797904D01*
X186162904Y-110102666D01*
X186277190Y-110102666D01*
X186353380Y-110140761D01*
X186391476Y-110178857D01*
X186429571Y-110255047D01*
X186429571Y-110445523D01*
X186391476Y-110521714D01*
X186353380Y-110559809D01*
X186277190Y-110597904D01*
X186048619Y-110597904D01*
X185972428Y-110559809D01*
X185934333Y-110521714D01*
X185210523Y-108184904D02*
X185210523Y-107384904D01*
X185515285Y-107384904D01*
X185591476Y-107423000D01*
X185629571Y-107461095D01*
X185667666Y-107537285D01*
X185667666Y-107651571D01*
X185629571Y-107727761D01*
X185591476Y-107765857D01*
X185515285Y-107803952D01*
X185210523Y-107803952D01*
X185972428Y-107461095D02*
X186010523Y-107423000D01*
X186086714Y-107384904D01*
X186277190Y-107384904D01*
X186353380Y-107423000D01*
X186391476Y-107461095D01*
X186429571Y-107537285D01*
X186429571Y-107613476D01*
X186391476Y-107727761D01*
X185934333Y-108184904D01*
X186429571Y-108184904D01*
X185210523Y-105644904D02*
X185210523Y-104844904D01*
X185515285Y-104844904D01*
X185591476Y-104883000D01*
X185629571Y-104921095D01*
X185667666Y-104997285D01*
X185667666Y-105111571D01*
X185629571Y-105187761D01*
X185591476Y-105225857D01*
X185515285Y-105263952D01*
X185210523Y-105263952D01*
X186429571Y-105644904D02*
X185972428Y-105644904D01*
X186201000Y-105644904D02*
X186201000Y-104844904D01*
X186124809Y-104959190D01*
X186048619Y-105035380D01*
X185972428Y-105073476D01*
X185157571Y-103358904D02*
X185157571Y-102558904D01*
X185462333Y-102558904D01*
X185538523Y-102597000D01*
X185576619Y-102635095D01*
X185614714Y-102711285D01*
X185614714Y-102825571D01*
X185576619Y-102901761D01*
X185538523Y-102939857D01*
X185462333Y-102977952D01*
X185157571Y-102977952D01*
X186109952Y-102558904D02*
X186186142Y-102558904D01*
X186262333Y-102597000D01*
X186300428Y-102635095D01*
X186338523Y-102711285D01*
X186376619Y-102863666D01*
X186376619Y-103054142D01*
X186338523Y-103206523D01*
X186300428Y-103282714D01*
X186262333Y-103320809D01*
X186186142Y-103358904D01*
X186109952Y-103358904D01*
X186033761Y-103320809D01*
X185995666Y-103282714D01*
X185957571Y-103206523D01*
X185919476Y-103054142D01*
X185919476Y-102863666D01*
X185957571Y-102711285D01*
X185995666Y-102635095D01*
X186033761Y-102597000D01*
X186109952Y-102558904D01*
D11*
G36*
X152463500Y-96647000D02*
G01*
X153289000Y-97409000D01*
X151384000Y-97409000D01*
X152336500Y-96520000D01*
X152463500Y-96647000D01*
G37*
X152463500Y-96647000D02*
X153289000Y-97409000D01*
X151384000Y-97409000D01*
X152336500Y-96520000D01*
X152463500Y-96647000D01*
G36*
X127825500Y-96647000D02*
G01*
X128651000Y-97409000D01*
X126746000Y-97409000D01*
X127698500Y-96520000D01*
X127825500Y-96647000D01*
G37*
X127825500Y-96647000D02*
X128651000Y-97409000D01*
X126746000Y-97409000D01*
X127698500Y-96520000D01*
X127825500Y-96647000D01*
G36*
X166116000Y-97409000D02*
G01*
X165989000Y-97282000D01*
X165163500Y-96520000D01*
X167068500Y-96520000D01*
X166116000Y-97409000D01*
G37*
X166116000Y-97409000D02*
X165989000Y-97282000D01*
X165163500Y-96520000D01*
X167068500Y-96520000D01*
X166116000Y-97409000D01*
G36*
X141414500Y-97409000D02*
G01*
X141287500Y-97282000D01*
X140462000Y-96520000D01*
X142367000Y-96520000D01*
X141414500Y-97409000D01*
G37*
X141414500Y-97409000D02*
X141287500Y-97282000D01*
X140462000Y-96520000D01*
X142367000Y-96520000D01*
X141414500Y-97409000D01*
D10*
X124231523Y-97389904D02*
X124231523Y-96589904D01*
X124536285Y-96589904D01*
X124612476Y-96628000D01*
X124650571Y-96666095D01*
X124688666Y-96742285D01*
X124688666Y-96856571D01*
X124650571Y-96932761D01*
X124612476Y-96970857D01*
X124536285Y-97008952D01*
X124231523Y-97008952D01*
X125374380Y-96856571D02*
X125374380Y-97389904D01*
X125031523Y-96856571D02*
X125031523Y-97275619D01*
X125069619Y-97351809D01*
X125145809Y-97389904D01*
X125260095Y-97389904D01*
X125336285Y-97351809D01*
X125374380Y-97313714D01*
X125869619Y-97389904D02*
X125793428Y-97351809D01*
X125755333Y-97275619D01*
X125755333Y-96589904D01*
X126288666Y-97389904D02*
X126212476Y-97351809D01*
X126174380Y-97275619D01*
X126174380Y-96589904D01*
X138074523Y-97389904D02*
X138074523Y-96589904D01*
X138379285Y-96589904D01*
X138455476Y-96628000D01*
X138493571Y-96666095D01*
X138531666Y-96742285D01*
X138531666Y-96856571D01*
X138493571Y-96932761D01*
X138455476Y-96970857D01*
X138379285Y-97008952D01*
X138074523Y-97008952D01*
X139217380Y-96856571D02*
X139217380Y-97389904D01*
X138874523Y-96856571D02*
X138874523Y-97275619D01*
X138912619Y-97351809D01*
X138988809Y-97389904D01*
X139103095Y-97389904D01*
X139179285Y-97351809D01*
X139217380Y-97313714D01*
X139712619Y-97389904D02*
X139636428Y-97351809D01*
X139598333Y-97275619D01*
X139598333Y-96589904D01*
X140131666Y-97389904D02*
X140055476Y-97351809D01*
X140017380Y-97275619D01*
X140017380Y-96589904D01*
X148869523Y-97389904D02*
X148869523Y-96589904D01*
X149174285Y-96589904D01*
X149250476Y-96628000D01*
X149288571Y-96666095D01*
X149326666Y-96742285D01*
X149326666Y-96856571D01*
X149288571Y-96932761D01*
X149250476Y-96970857D01*
X149174285Y-97008952D01*
X148869523Y-97008952D01*
X150012380Y-96856571D02*
X150012380Y-97389904D01*
X149669523Y-96856571D02*
X149669523Y-97275619D01*
X149707619Y-97351809D01*
X149783809Y-97389904D01*
X149898095Y-97389904D01*
X149974285Y-97351809D01*
X150012380Y-97313714D01*
X150507619Y-97389904D02*
X150431428Y-97351809D01*
X150393333Y-97275619D01*
X150393333Y-96589904D01*
X150926666Y-97389904D02*
X150850476Y-97351809D01*
X150812380Y-97275619D01*
X150812380Y-96589904D01*
X162712523Y-97389904D02*
X162712523Y-96589904D01*
X163017285Y-96589904D01*
X163093476Y-96628000D01*
X163131571Y-96666095D01*
X163169666Y-96742285D01*
X163169666Y-96856571D01*
X163131571Y-96932761D01*
X163093476Y-96970857D01*
X163017285Y-97008952D01*
X162712523Y-97008952D01*
X163855380Y-96856571D02*
X163855380Y-97389904D01*
X163512523Y-96856571D02*
X163512523Y-97275619D01*
X163550619Y-97351809D01*
X163626809Y-97389904D01*
X163741095Y-97389904D01*
X163817285Y-97351809D01*
X163855380Y-97313714D01*
X164350619Y-97389904D02*
X164274428Y-97351809D01*
X164236333Y-97275619D01*
X164236333Y-96589904D01*
X164769666Y-97389904D02*
X164693476Y-97351809D01*
X164655380Y-97275619D01*
X164655380Y-96589904D01*
X131597619Y-94849904D02*
X131597619Y-94049904D01*
X131902380Y-94049904D01*
X131978571Y-94088000D01*
X132016666Y-94126095D01*
X132054761Y-94202285D01*
X132054761Y-94316571D01*
X132016666Y-94392761D01*
X131978571Y-94430857D01*
X131902380Y-94468952D01*
X131597619Y-94468952D01*
X132511904Y-94849904D02*
X132435714Y-94811809D01*
X132397619Y-94773714D01*
X132359523Y-94697523D01*
X132359523Y-94468952D01*
X132397619Y-94392761D01*
X132435714Y-94354666D01*
X132511904Y-94316571D01*
X132626190Y-94316571D01*
X132702380Y-94354666D01*
X132740476Y-94392761D01*
X132778571Y-94468952D01*
X132778571Y-94697523D01*
X132740476Y-94773714D01*
X132702380Y-94811809D01*
X132626190Y-94849904D01*
X132511904Y-94849904D01*
X133121428Y-94849904D02*
X133121428Y-94316571D01*
X133121428Y-94468952D02*
X133159523Y-94392761D01*
X133197619Y-94354666D01*
X133273809Y-94316571D01*
X133350000Y-94316571D01*
X133502380Y-94316571D02*
X133807142Y-94316571D01*
X133616666Y-94049904D02*
X133616666Y-94735619D01*
X133654761Y-94811809D01*
X133730952Y-94849904D01*
X133807142Y-94849904D01*
X134950000Y-94430857D02*
X135064285Y-94468952D01*
X135102380Y-94507047D01*
X135140476Y-94583238D01*
X135140476Y-94697523D01*
X135102380Y-94773714D01*
X135064285Y-94811809D01*
X134988095Y-94849904D01*
X134683333Y-94849904D01*
X134683333Y-94049904D01*
X134950000Y-94049904D01*
X135026190Y-94088000D01*
X135064285Y-94126095D01*
X135102380Y-94202285D01*
X135102380Y-94278476D01*
X135064285Y-94354666D01*
X135026190Y-94392761D01*
X134950000Y-94430857D01*
X134683333Y-94430857D01*
X156292761Y-94849904D02*
X156292761Y-94049904D01*
X156597523Y-94049904D01*
X156673714Y-94088000D01*
X156711809Y-94126095D01*
X156749904Y-94202285D01*
X156749904Y-94316571D01*
X156711809Y-94392761D01*
X156673714Y-94430857D01*
X156597523Y-94468952D01*
X156292761Y-94468952D01*
X157207047Y-94849904D02*
X157130857Y-94811809D01*
X157092761Y-94773714D01*
X157054666Y-94697523D01*
X157054666Y-94468952D01*
X157092761Y-94392761D01*
X157130857Y-94354666D01*
X157207047Y-94316571D01*
X157321333Y-94316571D01*
X157397523Y-94354666D01*
X157435619Y-94392761D01*
X157473714Y-94468952D01*
X157473714Y-94697523D01*
X157435619Y-94773714D01*
X157397523Y-94811809D01*
X157321333Y-94849904D01*
X157207047Y-94849904D01*
X157816571Y-94849904D02*
X157816571Y-94316571D01*
X157816571Y-94468952D02*
X157854666Y-94392761D01*
X157892761Y-94354666D01*
X157968952Y-94316571D01*
X158045142Y-94316571D01*
X158197523Y-94316571D02*
X158502285Y-94316571D01*
X158311809Y-94049904D02*
X158311809Y-94735619D01*
X158349904Y-94811809D01*
X158426095Y-94849904D01*
X158502285Y-94849904D01*
X159340380Y-94621333D02*
X159721333Y-94621333D01*
X159264190Y-94849904D02*
X159530857Y-94049904D01*
X159797523Y-94849904D01*
D13*
%TO.C,J1*%
X159322000Y-128803000D02*
X159322000Y-130073000D01*
X158052000Y-128803000D02*
X159322000Y-128803000D01*
X119572000Y-131115929D02*
X119572000Y-131570071D01*
X120332000Y-131115929D02*
X120332000Y-131570071D01*
X119572000Y-133655929D02*
X119572000Y-134053000D01*
X120332000Y-133655929D02*
X120332000Y-134053000D01*
X119572000Y-142713000D02*
X119572000Y-136713000D01*
X120332000Y-142713000D02*
X119572000Y-142713000D01*
X120332000Y-136713000D02*
X120332000Y-142713000D01*
X121222000Y-134053000D02*
X121222000Y-136713000D01*
X122112000Y-131115929D02*
X122112000Y-131570071D01*
X122872000Y-131115929D02*
X122872000Y-131570071D01*
X122112000Y-133655929D02*
X122112000Y-134053000D01*
X122872000Y-133655929D02*
X122872000Y-134053000D01*
X122112000Y-142713000D02*
X122112000Y-136713000D01*
X122872000Y-142713000D02*
X122112000Y-142713000D01*
X122872000Y-136713000D02*
X122872000Y-142713000D01*
X123762000Y-134053000D02*
X123762000Y-136713000D01*
X124652000Y-131115929D02*
X124652000Y-131570071D01*
X125412000Y-131115929D02*
X125412000Y-131570071D01*
X124652000Y-133655929D02*
X124652000Y-134053000D01*
X125412000Y-133655929D02*
X125412000Y-134053000D01*
X124652000Y-142713000D02*
X124652000Y-136713000D01*
X125412000Y-142713000D02*
X124652000Y-142713000D01*
X125412000Y-136713000D02*
X125412000Y-142713000D01*
X126302000Y-134053000D02*
X126302000Y-136713000D01*
X127192000Y-131115929D02*
X127192000Y-131570071D01*
X127952000Y-131115929D02*
X127952000Y-131570071D01*
X127192000Y-133655929D02*
X127192000Y-134053000D01*
X127952000Y-133655929D02*
X127952000Y-134053000D01*
X127192000Y-142713000D02*
X127192000Y-136713000D01*
X127952000Y-142713000D02*
X127192000Y-142713000D01*
X127952000Y-136713000D02*
X127952000Y-142713000D01*
X128842000Y-134053000D02*
X128842000Y-136713000D01*
X129732000Y-131115929D02*
X129732000Y-131570071D01*
X130492000Y-131115929D02*
X130492000Y-131570071D01*
X129732000Y-133655929D02*
X129732000Y-134053000D01*
X130492000Y-133655929D02*
X130492000Y-134053000D01*
X129732000Y-142713000D02*
X129732000Y-136713000D01*
X130492000Y-142713000D02*
X129732000Y-142713000D01*
X130492000Y-136713000D02*
X130492000Y-142713000D01*
X131382000Y-134053000D02*
X131382000Y-136713000D01*
X132272000Y-131115929D02*
X132272000Y-131570071D01*
X133032000Y-131115929D02*
X133032000Y-131570071D01*
X132272000Y-133655929D02*
X132272000Y-134053000D01*
X133032000Y-133655929D02*
X133032000Y-134053000D01*
X132272000Y-142713000D02*
X132272000Y-136713000D01*
X133032000Y-142713000D02*
X132272000Y-142713000D01*
X133032000Y-136713000D02*
X133032000Y-142713000D01*
X133922000Y-134053000D02*
X133922000Y-136713000D01*
X134812000Y-131115929D02*
X134812000Y-131570071D01*
X135572000Y-131115929D02*
X135572000Y-131570071D01*
X134812000Y-133655929D02*
X134812000Y-134053000D01*
X135572000Y-133655929D02*
X135572000Y-134053000D01*
X134812000Y-142713000D02*
X134812000Y-136713000D01*
X135572000Y-142713000D02*
X134812000Y-142713000D01*
X135572000Y-136713000D02*
X135572000Y-142713000D01*
X136462000Y-134053000D02*
X136462000Y-136713000D01*
X137352000Y-131115929D02*
X137352000Y-131570071D01*
X138112000Y-131115929D02*
X138112000Y-131570071D01*
X137352000Y-133655929D02*
X137352000Y-134053000D01*
X138112000Y-133655929D02*
X138112000Y-134053000D01*
X137352000Y-142713000D02*
X137352000Y-136713000D01*
X138112000Y-142713000D02*
X137352000Y-142713000D01*
X138112000Y-136713000D02*
X138112000Y-142713000D01*
X139002000Y-134053000D02*
X139002000Y-136713000D01*
X139892000Y-131115929D02*
X139892000Y-131570071D01*
X140652000Y-131115929D02*
X140652000Y-131570071D01*
X139892000Y-133655929D02*
X139892000Y-134053000D01*
X140652000Y-133655929D02*
X140652000Y-134053000D01*
X139892000Y-142713000D02*
X139892000Y-136713000D01*
X140652000Y-142713000D02*
X139892000Y-142713000D01*
X140652000Y-136713000D02*
X140652000Y-142713000D01*
X141542000Y-134053000D02*
X141542000Y-136713000D01*
X142432000Y-131115929D02*
X142432000Y-131570071D01*
X143192000Y-131115929D02*
X143192000Y-131570071D01*
X142432000Y-133655929D02*
X142432000Y-134053000D01*
X143192000Y-133655929D02*
X143192000Y-134053000D01*
X142432000Y-142713000D02*
X142432000Y-136713000D01*
X143192000Y-142713000D02*
X142432000Y-142713000D01*
X143192000Y-136713000D02*
X143192000Y-142713000D01*
X144082000Y-134053000D02*
X144082000Y-136713000D01*
X144972000Y-131115929D02*
X144972000Y-131570071D01*
X145732000Y-131115929D02*
X145732000Y-131570071D01*
X144972000Y-133655929D02*
X144972000Y-134053000D01*
X145732000Y-133655929D02*
X145732000Y-134053000D01*
X144972000Y-142713000D02*
X144972000Y-136713000D01*
X145732000Y-142713000D02*
X144972000Y-142713000D01*
X145732000Y-136713000D02*
X145732000Y-142713000D01*
X146622000Y-134053000D02*
X146622000Y-136713000D01*
X147512000Y-131115929D02*
X147512000Y-131570071D01*
X148272000Y-131115929D02*
X148272000Y-131570071D01*
X147512000Y-133655929D02*
X147512000Y-134053000D01*
X148272000Y-133655929D02*
X148272000Y-134053000D01*
X147512000Y-142713000D02*
X147512000Y-136713000D01*
X148272000Y-142713000D02*
X147512000Y-142713000D01*
X148272000Y-136713000D02*
X148272000Y-142713000D01*
X149162000Y-134053000D02*
X149162000Y-136713000D01*
X150052000Y-131115929D02*
X150052000Y-131570071D01*
X150812000Y-131115929D02*
X150812000Y-131570071D01*
X150052000Y-133655929D02*
X150052000Y-134053000D01*
X150812000Y-133655929D02*
X150812000Y-134053000D01*
X150052000Y-142713000D02*
X150052000Y-136713000D01*
X150812000Y-142713000D02*
X150052000Y-142713000D01*
X150812000Y-136713000D02*
X150812000Y-142713000D01*
X151702000Y-134053000D02*
X151702000Y-136713000D01*
X152592000Y-131115929D02*
X152592000Y-131570071D01*
X153352000Y-131115929D02*
X153352000Y-131570071D01*
X152592000Y-133655929D02*
X152592000Y-134053000D01*
X153352000Y-133655929D02*
X153352000Y-134053000D01*
X152592000Y-142713000D02*
X152592000Y-136713000D01*
X153352000Y-142713000D02*
X152592000Y-142713000D01*
X153352000Y-136713000D02*
X153352000Y-142713000D01*
X154242000Y-134053000D02*
X154242000Y-136713000D01*
X155132000Y-131115929D02*
X155132000Y-131570071D01*
X155892000Y-131115929D02*
X155892000Y-131570071D01*
X155132000Y-133655929D02*
X155132000Y-134053000D01*
X155892000Y-133655929D02*
X155892000Y-134053000D01*
X155132000Y-142713000D02*
X155132000Y-136713000D01*
X155892000Y-142713000D02*
X155132000Y-142713000D01*
X155892000Y-136713000D02*
X155892000Y-142713000D01*
X156782000Y-134053000D02*
X156782000Y-136713000D01*
X157672000Y-131183000D02*
X157672000Y-131570071D01*
X158432000Y-131183000D02*
X158432000Y-131570071D01*
X157672000Y-133655929D02*
X157672000Y-134053000D01*
X158432000Y-133655929D02*
X158432000Y-134053000D01*
X157772000Y-136713000D02*
X157772000Y-142713000D01*
X157892000Y-136713000D02*
X157892000Y-142713000D01*
X158012000Y-136713000D02*
X158012000Y-142713000D01*
X158132000Y-136713000D02*
X158132000Y-142713000D01*
X158252000Y-136713000D02*
X158252000Y-142713000D01*
X158372000Y-136713000D02*
X158372000Y-142713000D01*
X157672000Y-142713000D02*
X157672000Y-136713000D01*
X158432000Y-142713000D02*
X157672000Y-142713000D01*
X158432000Y-136713000D02*
X158432000Y-142713000D01*
X159382000Y-136713000D02*
X159382000Y-134053000D01*
X118622000Y-136713000D02*
X159382000Y-136713000D01*
X118622000Y-134053000D02*
X118622000Y-136713000D01*
X159382000Y-134053000D02*
X118622000Y-134053000D01*
%TO.C,C1*%
X117956000Y-112328000D02*
X115216000Y-112328000D01*
X117956000Y-107088000D02*
X115216000Y-107088000D01*
X115216000Y-107088000D02*
X115216000Y-112328000D01*
X117956000Y-107088000D02*
X117956000Y-112328000D01*
%TO.C,J4*%
X137220000Y-95698000D02*
X137220000Y-97028000D01*
X135890000Y-95698000D02*
X137220000Y-95698000D01*
X134620000Y-95698000D02*
X134620000Y-98358000D01*
X134620000Y-98358000D02*
X129480000Y-98358000D01*
X134620000Y-95698000D02*
X129480000Y-95698000D01*
X129480000Y-95698000D02*
X129480000Y-98358000D01*
%TO.C,J3*%
X161858000Y-95698000D02*
X161858000Y-97028000D01*
X160528000Y-95698000D02*
X161858000Y-95698000D01*
X159258000Y-95698000D02*
X159258000Y-98358000D01*
X159258000Y-98358000D02*
X154118000Y-98358000D01*
X159258000Y-95698000D02*
X154118000Y-95698000D01*
X154118000Y-95698000D02*
X154118000Y-98358000D01*
%TO.C,RN2*%
X142240000Y-103254000D02*
X142240000Y-100454000D01*
X121750000Y-103254000D02*
X144950000Y-103254000D01*
X121750000Y-100454000D02*
X121750000Y-103254000D01*
X144950000Y-100454000D02*
X121750000Y-100454000D01*
X144950000Y-103254000D02*
X144950000Y-100454000D01*
%TO.C,RN1*%
X166878000Y-103254000D02*
X166878000Y-100454000D01*
X146388000Y-103254000D02*
X169588000Y-103254000D01*
X146388000Y-100454000D02*
X146388000Y-103254000D01*
X169588000Y-100454000D02*
X146388000Y-100454000D01*
X169588000Y-103254000D02*
X169588000Y-100454000D01*
%TO.C,U1*%
X170494000Y-115078000D02*
X170494000Y-109618000D01*
X170494000Y-109618000D02*
X119574000Y-109618000D01*
X119574000Y-109618000D02*
X119574000Y-122538000D01*
X119574000Y-122538000D02*
X170494000Y-122538000D01*
X170494000Y-122538000D02*
X170494000Y-117078000D01*
X170554000Y-107128000D02*
X119514000Y-107128000D01*
X119514000Y-107128000D02*
X119514000Y-125028000D01*
X119514000Y-125028000D02*
X170554000Y-125028000D01*
X170554000Y-125028000D02*
X170554000Y-107128000D01*
X170494000Y-117078000D02*
G75*
G02*
X170494000Y-115078000I0J1000000D01*
G01*
%TO.C,J1*%
D10*
X159774380Y-136061333D02*
X160488666Y-136061333D01*
X160631523Y-136108952D01*
X160726761Y-136204190D01*
X160774380Y-136347047D01*
X160774380Y-136442285D01*
X160774380Y-135061333D02*
X160774380Y-135632761D01*
X160774380Y-135347047D02*
X159774380Y-135347047D01*
X159917238Y-135442285D01*
X160012476Y-135537523D01*
X160060095Y-135632761D01*
%TO.C,C1*%
X119102142Y-109767666D02*
X119149761Y-109815285D01*
X119197380Y-109958142D01*
X119197380Y-110053380D01*
X119149761Y-110196238D01*
X119054523Y-110291476D01*
X118959285Y-110339095D01*
X118768809Y-110386714D01*
X118625952Y-110386714D01*
X118435476Y-110339095D01*
X118340238Y-110291476D01*
X118245000Y-110196238D01*
X118197380Y-110053380D01*
X118197380Y-109958142D01*
X118245000Y-109815285D01*
X118292619Y-109767666D01*
X119197380Y-108815285D02*
X119197380Y-109386714D01*
X119197380Y-109101000D02*
X118197380Y-109101000D01*
X118340238Y-109196238D01*
X118435476Y-109291476D01*
X118483095Y-109386714D01*
%TO.C,J4*%
X132889666Y-99020380D02*
X132889666Y-99734666D01*
X132842047Y-99877523D01*
X132746809Y-99972761D01*
X132603952Y-100020380D01*
X132508714Y-100020380D01*
X133794428Y-99353714D02*
X133794428Y-100020380D01*
X133556333Y-98972761D02*
X133318238Y-99687047D01*
X133937285Y-99687047D01*
%TO.C,J3*%
X157908666Y-99020380D02*
X157908666Y-99734666D01*
X157861047Y-99877523D01*
X157765809Y-99972761D01*
X157622952Y-100020380D01*
X157527714Y-100020380D01*
X158289619Y-99020380D02*
X158908666Y-99020380D01*
X158575333Y-99401333D01*
X158718190Y-99401333D01*
X158813428Y-99448952D01*
X158861047Y-99496571D01*
X158908666Y-99591809D01*
X158908666Y-99829904D01*
X158861047Y-99925142D01*
X158813428Y-99972761D01*
X158718190Y-100020380D01*
X158432476Y-100020380D01*
X158337238Y-99972761D01*
X158289619Y-99925142D01*
%TO.C,RN2*%
X132659523Y-104592380D02*
X132326190Y-104116190D01*
X132088095Y-104592380D02*
X132088095Y-103592380D01*
X132469047Y-103592380D01*
X132564285Y-103640000D01*
X132611904Y-103687619D01*
X132659523Y-103782857D01*
X132659523Y-103925714D01*
X132611904Y-104020952D01*
X132564285Y-104068571D01*
X132469047Y-104116190D01*
X132088095Y-104116190D01*
X133088095Y-104592380D02*
X133088095Y-103592380D01*
X133659523Y-104592380D01*
X133659523Y-103592380D01*
X134088095Y-103687619D02*
X134135714Y-103640000D01*
X134230952Y-103592380D01*
X134469047Y-103592380D01*
X134564285Y-103640000D01*
X134611904Y-103687619D01*
X134659523Y-103782857D01*
X134659523Y-103878095D01*
X134611904Y-104020952D01*
X134040476Y-104592380D01*
X134659523Y-104592380D01*
%TO.C,RN1*%
X157297523Y-104592380D02*
X156964190Y-104116190D01*
X156726095Y-104592380D02*
X156726095Y-103592380D01*
X157107047Y-103592380D01*
X157202285Y-103640000D01*
X157249904Y-103687619D01*
X157297523Y-103782857D01*
X157297523Y-103925714D01*
X157249904Y-104020952D01*
X157202285Y-104068571D01*
X157107047Y-104116190D01*
X156726095Y-104116190D01*
X157726095Y-104592380D02*
X157726095Y-103592380D01*
X158297523Y-104592380D01*
X158297523Y-103592380D01*
X159297523Y-104592380D02*
X158726095Y-104592380D01*
X159011809Y-104592380D02*
X159011809Y-103592380D01*
X158916571Y-103735238D01*
X158821333Y-103830476D01*
X158726095Y-103878095D01*
%TO.C,U1*%
X170946380Y-116839904D02*
X171755904Y-116839904D01*
X171851142Y-116792285D01*
X171898761Y-116744666D01*
X171946380Y-116649428D01*
X171946380Y-116458952D01*
X171898761Y-116363714D01*
X171851142Y-116316095D01*
X171755904Y-116268476D01*
X170946380Y-116268476D01*
X171946380Y-115268476D02*
X171946380Y-115839904D01*
X171946380Y-115554190D02*
X170946380Y-115554190D01*
X171089238Y-115649428D01*
X171184476Y-115744666D01*
X171232095Y-115839904D01*
%TD*%
M02*
