M48
; DRILL file {KiCad (5.1.12-1-10_14)} date 2021 December 06, Monday 13:14:13
; FORMAT={-:-/ absolute / metric / decimal}
; #@! TF.CreationDate,2021-12-06T13:14:13+01:00
; #@! TF.GenerationSoftware,Kicad,Pcbnew,(5.1.12-1-10_14)
; #@! TF.FileFunction,Plated,1,2,PTH
FMAT,2
METRIC
T1C0.400
T2C0.800
T3C1.000
%
G90
G05
T1
X116.332Y-95.25
X116.332Y-131.445
X137.851Y-127.0
X175.832Y-97.282
X182.245Y-113.919
T2
X116.586Y-108.458
X116.586Y-110.958
X120.904Y-108.458
X120.904Y-123.698
X123.19Y-101.854
X123.444Y-108.458
X123.444Y-123.698
X125.73Y-101.854
X125.984Y-108.458
X125.984Y-123.698
X128.27Y-101.854
X128.524Y-108.458
X128.524Y-123.698
X130.81Y-101.854
X131.064Y-108.458
X131.064Y-123.698
X133.35Y-101.854
X133.604Y-108.458
X133.604Y-123.698
X135.89Y-101.854
X136.144Y-108.458
X136.144Y-123.698
X138.43Y-101.854
X138.684Y-108.458
X138.684Y-123.698
X140.97Y-101.854
X141.224Y-108.458
X141.224Y-123.698
X143.51Y-101.854
X143.764Y-108.458
X143.764Y-123.698
X146.304Y-108.458
X146.304Y-123.698
X147.828Y-101.854
X148.844Y-108.458
X148.844Y-123.698
X150.368Y-101.854
X151.384Y-108.458
X151.384Y-123.698
X152.908Y-101.854
X153.924Y-108.458
X153.924Y-123.698
X155.448Y-101.854
X156.464Y-108.458
X156.464Y-123.698
X157.988Y-101.854
X159.004Y-108.458
X159.004Y-123.698
X160.528Y-101.854
X161.544Y-108.458
X161.544Y-123.698
X163.068Y-101.854
X164.084Y-108.458
X164.084Y-123.698
X165.608Y-101.854
X166.624Y-108.458
X166.624Y-123.698
X168.148Y-101.854
X169.164Y-108.458
X169.164Y-123.698
T3
X119.952Y-130.073
X119.952Y-132.613
X122.492Y-130.073
X122.492Y-132.613
X125.032Y-130.073
X125.032Y-132.613
X127.572Y-130.073
X127.572Y-132.613
X130.112Y-130.073
X130.112Y-132.613
X130.81Y-97.028
X132.652Y-130.073
X132.652Y-132.613
X133.35Y-97.028
X135.192Y-130.073
X135.192Y-132.613
X135.89Y-97.028
X137.732Y-130.073
X137.732Y-132.613
X140.272Y-130.073
X140.272Y-132.613
X142.812Y-130.073
X142.812Y-132.613
X145.352Y-130.073
X145.352Y-132.613
X147.892Y-130.073
X147.892Y-132.613
X150.432Y-130.073
X150.432Y-132.613
X152.972Y-130.073
X152.972Y-132.613
X155.448Y-97.028
X155.512Y-130.073
X155.512Y-132.613
X157.988Y-97.028
X158.052Y-130.073
X158.052Y-132.613
X160.528Y-97.028
X174.498Y-100.076
X174.498Y-102.616
X174.498Y-105.156
X174.498Y-107.696
X174.498Y-110.236
X174.498Y-112.776
X174.498Y-115.316
X174.498Y-117.856
X174.498Y-120.396
X174.498Y-122.936
X174.498Y-125.476
X174.498Y-128.016
X177.038Y-100.076
X177.038Y-102.616
X177.038Y-105.156
X177.038Y-107.696
X177.038Y-110.236
X177.038Y-112.776
X177.038Y-115.316
X177.038Y-117.856
X177.038Y-120.396
X177.038Y-122.936
X177.038Y-125.476
X177.038Y-128.016
T0
M30
