%FSLAX45Y45*%
G04 Gerber Fmt 4.5, Leading zero omitted, Abs format (unit mm)*
G04 Created by KiCad (PCBNEW (5.1.9-0-10_14)) date 2021-03-23 14:31:30*
%MOMM*%
%LPD*%
G01*
G04 APERTURE LIST*
%TA.AperFunction,Profile*%
%ADD10C,0.050000*%
%TD*%
%TA.AperFunction,Profile*%
%ADD11C,0.100000*%
%TD*%
%ADD12C,0.200000*%
%ADD13C,0.300000*%
G04 APERTURE END LIST*
D10*
X11137900Y-9423400D02*
G75*
G02*
X11341100Y-9220200I203200J0D01*
G01*
X11341100Y-13538200D02*
G75*
G02*
X11137900Y-13335000I0J203200D01*
G01*
X18757900Y-13335000D02*
G75*
G02*
X18554700Y-13538200I-203200J0D01*
G01*
X18757900Y-9753600D02*
X18224500Y-9220200D01*
D11*
X18757900Y-9753600D02*
X18757900Y-13335000D01*
X11341100Y-9220200D02*
X18224500Y-9220200D01*
X11137900Y-13335000D02*
X11137900Y-9423400D01*
X18554700Y-13538200D02*
X11341100Y-13538200D01*
D12*
D13*
X11419328Y-14008914D02*
X11419328Y-13708914D01*
X11490757Y-13708914D01*
X11533614Y-13723200D01*
X11562186Y-13751771D01*
X11576471Y-13780343D01*
X11590757Y-13837486D01*
X11590757Y-13880343D01*
X11576471Y-13937486D01*
X11562186Y-13966057D01*
X11533614Y-13994629D01*
X11490757Y-14008914D01*
X11419328Y-14008914D01*
X11719328Y-14008914D02*
X11719328Y-13808914D01*
X11719328Y-13866057D02*
X11733614Y-13837486D01*
X11747900Y-13823200D01*
X11776471Y-13808914D01*
X11805043Y-13808914D01*
X11905043Y-14008914D02*
X11905043Y-13808914D01*
X11905043Y-13708914D02*
X11890757Y-13723200D01*
X11905043Y-13737486D01*
X11919328Y-13723200D01*
X11905043Y-13708914D01*
X11905043Y-13737486D01*
X12090757Y-14008914D02*
X12062186Y-13994629D01*
X12047900Y-13966057D01*
X12047900Y-13708914D01*
X12247900Y-14008914D02*
X12219328Y-13994629D01*
X12205043Y-13966057D01*
X12205043Y-13708914D01*
X12590757Y-14008914D02*
X12590757Y-13708914D01*
X12690757Y-13923200D01*
X12790757Y-13708914D01*
X12790757Y-14008914D01*
X13062186Y-14008914D02*
X13062186Y-13851771D01*
X13047900Y-13823200D01*
X13019328Y-13808914D01*
X12962186Y-13808914D01*
X12933614Y-13823200D01*
X13062186Y-13994629D02*
X13033614Y-14008914D01*
X12962186Y-14008914D01*
X12933614Y-13994629D01*
X12919328Y-13966057D01*
X12919328Y-13937486D01*
X12933614Y-13908914D01*
X12962186Y-13894629D01*
X13033614Y-13894629D01*
X13062186Y-13880343D01*
X13205043Y-13808914D02*
X13205043Y-14108914D01*
X13205043Y-13823200D02*
X13233614Y-13808914D01*
X13290757Y-13808914D01*
X13319328Y-13823200D01*
X13333614Y-13837486D01*
X13347900Y-13866057D01*
X13347900Y-13951771D01*
X13333614Y-13980343D01*
X13319328Y-13994629D01*
X13290757Y-14008914D01*
X13233614Y-14008914D01*
X13205043Y-13994629D01*
X13476471Y-13980343D02*
X13490757Y-13994629D01*
X13476471Y-14008914D01*
X13462186Y-13994629D01*
X13476471Y-13980343D01*
X13476471Y-14008914D01*
X13476471Y-13823200D02*
X13490757Y-13837486D01*
X13476471Y-13851771D01*
X13462186Y-13837486D01*
X13476471Y-13823200D01*
X13476471Y-13851771D01*
M02*
