%TF.GenerationSoftware,KiCad,Pcbnew,(5.1.9-0-10_14)*%
%TF.CreationDate,2021-03-23T14:31:25+01:00*%
%TF.ProjectId,viaduct,76696164-7563-4742-9e6b-696361645f70,rev?*%
%TF.SameCoordinates,Original*%
%TF.FileFunction,Copper,L2,Bot*%
%TF.FilePolarity,Positive*%
%FSLAX46Y46*%
G04 Gerber Fmt 4.6, Leading zero omitted, Abs format (unit mm)*
G04 Created by KiCad (PCBNEW (5.1.9-0-10_14)) date 2021-03-23 14:31:25*
%MOMM*%
%LPD*%
G01*
G04 APERTURE LIST*
%TA.AperFunction,ComponentPad*%
%ADD10O,1.700000X1.700000*%
%TD*%
%TA.AperFunction,ComponentPad*%
%ADD11R,1.700000X1.700000*%
%TD*%
%TA.AperFunction,ComponentPad*%
%ADD12C,1.600000*%
%TD*%
%TA.AperFunction,ComponentPad*%
%ADD13O,1.600000X1.600000*%
%TD*%
%TA.AperFunction,ComponentPad*%
%ADD14R,1.600000X1.600000*%
%TD*%
%TA.AperFunction,ViaPad*%
%ADD15C,0.800000*%
%TD*%
%TA.AperFunction,Conductor*%
%ADD16C,0.500000*%
%TD*%
%TA.AperFunction,Conductor*%
%ADD17C,0.250000*%
%TD*%
%TA.AperFunction,Conductor*%
%ADD18C,0.254000*%
%TD*%
%TA.AperFunction,Conductor*%
%ADD19C,0.100000*%
%TD*%
G04 APERTURE END LIST*
D10*
%TO.P,J4,24*%
%TO.N,GND*%
X177038000Y-128016000D03*
%TO.P,J4,23*%
X174498000Y-128016000D03*
%TO.P,J4,22*%
%TO.N,CB2*%
X177038000Y-125476000D03*
%TO.P,J4,21*%
%TO.N,CA2*%
X174498000Y-125476000D03*
%TO.P,J4,20*%
%TO.N,CB1*%
X177038000Y-122936000D03*
%TO.P,J4,19*%
%TO.N,CA1*%
X174498000Y-122936000D03*
%TO.P,J4,18*%
%TO.N,/PB7*%
X177038000Y-120396000D03*
%TO.P,J4,17*%
%TO.N,/PA7*%
X174498000Y-120396000D03*
%TO.P,J4,16*%
%TO.N,/PB6*%
X177038000Y-117856000D03*
%TO.P,J4,15*%
%TO.N,/PA6*%
X174498000Y-117856000D03*
%TO.P,J4,14*%
%TO.N,/PB5*%
X177038000Y-115316000D03*
%TO.P,J4,13*%
%TO.N,/PA5*%
X174498000Y-115316000D03*
%TO.P,J4,12*%
%TO.N,/PB4*%
X177038000Y-112776000D03*
%TO.P,J4,11*%
%TO.N,/PA4*%
X174498000Y-112776000D03*
%TO.P,J4,10*%
%TO.N,/PB3*%
X177038000Y-110236000D03*
%TO.P,J4,9*%
%TO.N,/PA3*%
X174498000Y-110236000D03*
%TO.P,J4,8*%
%TO.N,/PB2*%
X177038000Y-107696000D03*
%TO.P,J4,7*%
%TO.N,/PA2*%
X174498000Y-107696000D03*
%TO.P,J4,6*%
%TO.N,/PB1*%
X177038000Y-105156000D03*
%TO.P,J4,5*%
%TO.N,/PA1*%
X174498000Y-105156000D03*
%TO.P,J4,4*%
%TO.N,/PB0*%
X177038000Y-102616000D03*
%TO.P,J4,3*%
%TO.N,/PA0*%
X174498000Y-102616000D03*
%TO.P,J4,2*%
%TO.N,+5V*%
X177038000Y-100076000D03*
D11*
%TO.P,J4,1*%
X174498000Y-100076000D03*
%TD*%
D12*
%TO.P,C1,2*%
%TO.N,GND*%
X116586000Y-110958000D03*
%TO.P,C1,1*%
%TO.N,+5V*%
X116586000Y-108458000D03*
%TD*%
D10*
%TO.P,J3,3*%
%TO.N,+5V*%
X130810000Y-97028000D03*
%TO.P,J3,2*%
%TO.N,Net-(J3-Pad2)*%
X133350000Y-97028000D03*
D11*
%TO.P,J3,1*%
%TO.N,GND*%
X135890000Y-97028000D03*
%TD*%
D10*
%TO.P,J2,3*%
%TO.N,+5V*%
X155448000Y-97028000D03*
%TO.P,J2,2*%
%TO.N,Net-(J2-Pad2)*%
X157988000Y-97028000D03*
D11*
%TO.P,J2,1*%
%TO.N,GND*%
X160528000Y-97028000D03*
%TD*%
D13*
%TO.P,RN2,9*%
%TO.N,/PB7*%
X123190000Y-101854000D03*
%TO.P,RN2,8*%
%TO.N,/PB6*%
X125730000Y-101854000D03*
%TO.P,RN2,7*%
%TO.N,/PB5*%
X128270000Y-101854000D03*
%TO.P,RN2,6*%
%TO.N,/PB4*%
X130810000Y-101854000D03*
%TO.P,RN2,5*%
%TO.N,/PB3*%
X133350000Y-101854000D03*
%TO.P,RN2,4*%
%TO.N,/PB2*%
X135890000Y-101854000D03*
%TO.P,RN2,3*%
%TO.N,/PB1*%
X138430000Y-101854000D03*
%TO.P,RN2,2*%
%TO.N,/PB0*%
X140970000Y-101854000D03*
D14*
%TO.P,RN2,1*%
%TO.N,Net-(J3-Pad2)*%
X143510000Y-101854000D03*
%TD*%
D13*
%TO.P,RN1,9*%
%TO.N,/PA7*%
X147828000Y-101854000D03*
%TO.P,RN1,8*%
%TO.N,/PA6*%
X150368000Y-101854000D03*
%TO.P,RN1,7*%
%TO.N,/PA5*%
X152908000Y-101854000D03*
%TO.P,RN1,6*%
%TO.N,/PA4*%
X155448000Y-101854000D03*
%TO.P,RN1,5*%
%TO.N,/PA3*%
X157988000Y-101854000D03*
%TO.P,RN1,4*%
%TO.N,/PA2*%
X160528000Y-101854000D03*
%TO.P,RN1,3*%
%TO.N,/PA1*%
X163068000Y-101854000D03*
%TO.P,RN1,2*%
%TO.N,/PA0*%
X165608000Y-101854000D03*
D14*
%TO.P,RN1,1*%
%TO.N,Net-(J2-Pad2)*%
X168148000Y-101854000D03*
%TD*%
D10*
%TO.P,J1,32*%
%TO.N,GND*%
X159004000Y-132588000D03*
%TO.P,J1,31*%
X159004000Y-130048000D03*
%TO.P,J1,30*%
%TO.N,Net-(J1-Pad29)*%
X156464000Y-132588000D03*
%TO.P,J1,29*%
X156464000Y-130048000D03*
%TO.P,J1,28*%
%TO.N,Net-(J1-Pad28)*%
X153924000Y-132588000D03*
%TO.P,J1,27*%
%TO.N,Net-(J1-Pad27)*%
X153924000Y-130048000D03*
%TO.P,J1,26*%
%TO.N,Net-(J1-Pad26)*%
X151384000Y-132588000D03*
%TO.P,J1,25*%
%TO.N,Net-(J1-Pad25)*%
X151384000Y-130048000D03*
%TO.P,J1,24*%
%TO.N,Net-(J1-Pad24)*%
X148844000Y-132588000D03*
%TO.P,J1,23*%
%TO.N,~RES*%
X148844000Y-130048000D03*
%TO.P,J1,22*%
%TO.N,~IRQ*%
X146304000Y-132588000D03*
%TO.P,J1,21*%
%TO.N,CLK*%
X146304000Y-130048000D03*
%TO.P,J1,20*%
%TO.N,/D7*%
X143764000Y-132588000D03*
%TO.P,J1,19*%
%TO.N,R~W*%
X143764000Y-130048000D03*
%TO.P,J1,18*%
%TO.N,/D6*%
X141224000Y-132588000D03*
%TO.P,J1,17*%
%TO.N,~CS*%
X141224000Y-130048000D03*
%TO.P,J1,16*%
%TO.N,/D5*%
X138684000Y-132588000D03*
%TO.P,J1,15*%
%TO.N,Net-(J1-Pad15)*%
X138684000Y-130048000D03*
%TO.P,J1,14*%
%TO.N,/D4*%
X136144000Y-132588000D03*
%TO.P,J1,13*%
%TO.N,Net-(J1-Pad13)*%
X136144000Y-130048000D03*
%TO.P,J1,12*%
%TO.N,/D3*%
X133604000Y-132588000D03*
%TO.P,J1,11*%
%TO.N,/RS3*%
X133604000Y-130048000D03*
%TO.P,J1,10*%
%TO.N,/D2*%
X131064000Y-132588000D03*
%TO.P,J1,9*%
%TO.N,/RS2*%
X131064000Y-130048000D03*
%TO.P,J1,8*%
%TO.N,/D1*%
X128524000Y-132588000D03*
%TO.P,J1,7*%
%TO.N,/RS1*%
X128524000Y-130048000D03*
%TO.P,J1,6*%
%TO.N,/D0*%
X125984000Y-132588000D03*
%TO.P,J1,5*%
%TO.N,/RS0*%
X125984000Y-130048000D03*
%TO.P,J1,4*%
%TO.N,GND*%
X123444000Y-132588000D03*
%TO.P,J1,3*%
X123444000Y-130048000D03*
%TO.P,J1,2*%
%TO.N,+5V*%
X120904000Y-132588000D03*
D11*
%TO.P,J1,1*%
X120904000Y-130048000D03*
%TD*%
D14*
%TO.P,U1,1*%
%TO.N,GND*%
X169164000Y-108458000D03*
D13*
%TO.P,U1,21*%
%TO.N,~IRQ*%
X120904000Y-123698000D03*
%TO.P,U1,2*%
%TO.N,/PA0*%
X166624000Y-108458000D03*
%TO.P,U1,22*%
%TO.N,R~W*%
X123444000Y-123698000D03*
%TO.P,U1,3*%
%TO.N,/PA1*%
X164084000Y-108458000D03*
%TO.P,U1,23*%
%TO.N,~CS*%
X125984000Y-123698000D03*
%TO.P,U1,4*%
%TO.N,/PA2*%
X161544000Y-108458000D03*
%TO.P,U1,24*%
%TO.N,+5V*%
X128524000Y-123698000D03*
%TO.P,U1,5*%
%TO.N,/PA3*%
X159004000Y-108458000D03*
%TO.P,U1,25*%
%TO.N,CLK*%
X131064000Y-123698000D03*
%TO.P,U1,6*%
%TO.N,/PA4*%
X156464000Y-108458000D03*
%TO.P,U1,26*%
%TO.N,/D7*%
X133604000Y-123698000D03*
%TO.P,U1,7*%
%TO.N,/PA5*%
X153924000Y-108458000D03*
%TO.P,U1,27*%
%TO.N,/D6*%
X136144000Y-123698000D03*
%TO.P,U1,8*%
%TO.N,/PA6*%
X151384000Y-108458000D03*
%TO.P,U1,28*%
%TO.N,/D5*%
X138684000Y-123698000D03*
%TO.P,U1,9*%
%TO.N,/PA7*%
X148844000Y-108458000D03*
%TO.P,U1,29*%
%TO.N,/D4*%
X141224000Y-123698000D03*
%TO.P,U1,10*%
%TO.N,/PB0*%
X146304000Y-108458000D03*
%TO.P,U1,30*%
%TO.N,/D3*%
X143764000Y-123698000D03*
%TO.P,U1,11*%
%TO.N,/PB1*%
X143764000Y-108458000D03*
%TO.P,U1,31*%
%TO.N,/D2*%
X146304000Y-123698000D03*
%TO.P,U1,12*%
%TO.N,/PB2*%
X141224000Y-108458000D03*
%TO.P,U1,32*%
%TO.N,/D1*%
X148844000Y-123698000D03*
%TO.P,U1,13*%
%TO.N,/PB3*%
X138684000Y-108458000D03*
%TO.P,U1,33*%
%TO.N,/D0*%
X151384000Y-123698000D03*
%TO.P,U1,14*%
%TO.N,/PB4*%
X136144000Y-108458000D03*
%TO.P,U1,34*%
%TO.N,~RES*%
X153924000Y-123698000D03*
%TO.P,U1,15*%
%TO.N,/PB5*%
X133604000Y-108458000D03*
%TO.P,U1,35*%
%TO.N,/RS3*%
X156464000Y-123698000D03*
%TO.P,U1,16*%
%TO.N,/PB6*%
X131064000Y-108458000D03*
%TO.P,U1,36*%
%TO.N,/RS2*%
X159004000Y-123698000D03*
%TO.P,U1,17*%
%TO.N,/PB7*%
X128524000Y-108458000D03*
%TO.P,U1,37*%
%TO.N,/RS1*%
X161544000Y-123698000D03*
%TO.P,U1,18*%
%TO.N,CB1*%
X125984000Y-108458000D03*
%TO.P,U1,38*%
%TO.N,/RS0*%
X164084000Y-123698000D03*
%TO.P,U1,19*%
%TO.N,CB2*%
X123444000Y-108458000D03*
%TO.P,U1,39*%
%TO.N,CA2*%
X166624000Y-123698000D03*
%TO.P,U1,20*%
%TO.N,+5V*%
X120904000Y-108458000D03*
%TO.P,U1,40*%
%TO.N,CA1*%
X169164000Y-123698000D03*
%TD*%
D15*
%TO.N,GND*%
X175831500Y-97282000D03*
X116332000Y-95250000D03*
X116332000Y-131445000D03*
X182245000Y-113919000D03*
%TO.N,+5V*%
X120903992Y-120478970D03*
%TO.N,CLK*%
X146304000Y-127888988D03*
%TO.N,/RS2*%
X125984000Y-126746000D03*
%TO.N,/RS1*%
X125984008Y-127889000D03*
%TD*%
D16*
%TO.N,+5V*%
X125304970Y-120478970D02*
X120903992Y-120478970D01*
X128524000Y-123698000D02*
X125304970Y-120478970D01*
D17*
%TO.N,~IRQ*%
X144678989Y-134213011D02*
X145454001Y-133437999D01*
X134810500Y-129476500D02*
X134810500Y-133882502D01*
X135141009Y-134213011D02*
X144678989Y-134213011D01*
X134810500Y-133882502D02*
X135141009Y-134213011D01*
X131164498Y-125830498D02*
X134810500Y-129476500D01*
X145454001Y-133437999D02*
X146304000Y-132588000D01*
X123036498Y-125830498D02*
X131164498Y-125830498D01*
X120904000Y-123698000D02*
X123036498Y-125830498D01*
%TO.N,CLK*%
X142638999Y-123157999D02*
X142638999Y-124223987D01*
X131064000Y-123698000D02*
X132639011Y-122122989D01*
X132639011Y-122122989D02*
X141603989Y-122122989D01*
X141603989Y-122122989D02*
X142638999Y-123157999D01*
X142638999Y-124223987D02*
X146304000Y-127888988D01*
%TO.N,/D7*%
X144939001Y-131412999D02*
X143764000Y-132588000D01*
X144939001Y-129318001D02*
X144939001Y-131412999D01*
X139809001Y-124188001D02*
X144939001Y-129318001D01*
X139809001Y-123157999D02*
X139809001Y-124188001D01*
X139224001Y-122572999D02*
X139809001Y-123157999D01*
X134729001Y-122572999D02*
X139224001Y-122572999D01*
X133604000Y-123698000D02*
X134729001Y-122572999D01*
%TO.N,R~W*%
X143764000Y-130874911D02*
X143764000Y-130048000D01*
X142399001Y-132239910D02*
X143764000Y-130874911D01*
X142399001Y-133152001D02*
X142399001Y-132239910D01*
X141788002Y-133763000D02*
X142399001Y-133152001D01*
X138183498Y-133763000D02*
X141788002Y-133763000D01*
X123444000Y-123698000D02*
X125126487Y-125380487D01*
X137319001Y-132898503D02*
X138183498Y-133763000D01*
X137319001Y-128683001D02*
X137319001Y-132898503D01*
X134016487Y-125380487D02*
X137319001Y-128683001D01*
X125126487Y-125380487D02*
X134016487Y-125380487D01*
%TO.N,/D6*%
X142430500Y-131381500D02*
X141224000Y-132588000D01*
X142430500Y-129540000D02*
X142430500Y-131381500D01*
X142399001Y-129508501D02*
X142430500Y-129540000D01*
X142399001Y-129483999D02*
X142399001Y-129508501D01*
X136613002Y-123698000D02*
X142399001Y-129483999D01*
X136144000Y-123698000D02*
X136613002Y-123698000D01*
%TO.N,~CS*%
X140374001Y-129198001D02*
X141224000Y-130048000D01*
X136099001Y-124923001D02*
X140374001Y-129198001D01*
X127238920Y-124923001D02*
X136099001Y-124923001D01*
X126013919Y-123698000D02*
X127238920Y-124923001D01*
X125984000Y-123698000D02*
X126013919Y-123698000D01*
%TO.N,/RS3*%
X132397500Y-133286500D02*
X132397500Y-131254500D01*
X133774021Y-134663021D02*
X132397500Y-133286500D01*
X146582502Y-134048500D02*
X146558000Y-134048500D01*
X146558000Y-134048500D02*
X145943479Y-134663021D01*
X147510500Y-133120502D02*
X146582502Y-134048500D01*
X132397500Y-131254500D02*
X133604000Y-130048000D01*
X151511000Y-128651000D02*
X148526500Y-128651000D01*
X147510500Y-129667000D02*
X147510500Y-133120502D01*
X148526500Y-128651000D02*
X147510500Y-129667000D01*
X145943479Y-134663021D02*
X133774021Y-134663021D01*
X156464000Y-123698000D02*
X151511000Y-128651000D01*
%TO.N,/RS2*%
X131064000Y-130048000D02*
X127762000Y-126746000D01*
X127762000Y-126746000D02*
X125984000Y-126746000D01*
%TO.N,/RS1*%
X126365000Y-127889000D02*
X125984008Y-127889000D01*
X128524000Y-130048000D02*
X126365000Y-127889000D01*
%TO.N,/PA7*%
X160782000Y-120396000D02*
X174498000Y-120396000D01*
X148844000Y-108458000D02*
X160782000Y-120396000D01*
%TO.N,/PA6*%
X160782000Y-117856000D02*
X174498000Y-117856000D01*
X151384000Y-108458000D02*
X160782000Y-117856000D01*
%TO.N,/PA5*%
X160782000Y-115316000D02*
X174498000Y-115316000D01*
X153924000Y-108458000D02*
X160782000Y-115316000D01*
%TO.N,/PA4*%
X174244000Y-112522000D02*
X174498000Y-112776000D01*
X160528000Y-112522000D02*
X174244000Y-112522000D01*
X156464000Y-108458000D02*
X160528000Y-112522000D01*
%TO.N,/PA3*%
X172847000Y-111887000D02*
X174498000Y-110236000D01*
X162433000Y-111887000D02*
X172847000Y-111887000D01*
X159004000Y-108458000D02*
X162433000Y-111887000D01*
%TO.N,/PA2*%
X163322000Y-111252000D02*
X170942000Y-111252000D01*
X161544000Y-109474000D02*
X163322000Y-111252000D01*
X170942000Y-111252000D02*
X174498000Y-107696000D01*
X161544000Y-108458000D02*
X161544000Y-109474000D01*
%TO.N,/PA1*%
X173101000Y-106553000D02*
X174498000Y-105156000D01*
X173101000Y-108077000D02*
X173101000Y-106553000D01*
X170561000Y-110617000D02*
X173101000Y-108077000D01*
X166243000Y-110617000D02*
X170561000Y-110617000D01*
X164084000Y-108458000D02*
X166243000Y-110617000D01*
%TO.N,/PA0*%
X172650990Y-107384010D02*
X172650990Y-104463010D01*
X172650990Y-104463010D02*
X174498000Y-102616000D01*
X170307000Y-109728000D02*
X172650990Y-107384010D01*
X167894000Y-109728000D02*
X170307000Y-109728000D01*
X166624000Y-108458000D02*
X167894000Y-109728000D01*
%TO.N,CA2*%
X173863000Y-124841000D02*
X174498000Y-125476000D01*
X167767000Y-124841000D02*
X173863000Y-124841000D01*
X166624000Y-123698000D02*
X167767000Y-124841000D01*
%TO.N,CA1*%
X169926000Y-122936000D02*
X174498000Y-122936000D01*
X169164000Y-123698000D02*
X169926000Y-122936000D01*
%TD*%
D18*
%TO.N,GND*%
X113377353Y-92887000D02*
X181996620Y-92887000D01*
X186894000Y-97784381D01*
X186894001Y-133383647D01*
X186903289Y-133477951D01*
X186889766Y-133615876D01*
X186812551Y-133871624D01*
X186687131Y-134107504D01*
X186518289Y-134314525D01*
X186312446Y-134484813D01*
X186077444Y-134611879D01*
X185822240Y-134690877D01*
X185675291Y-134706322D01*
X185580647Y-134697000D01*
X146984302Y-134697000D01*
X146987550Y-134693752D01*
X147006778Y-134683474D01*
X147122503Y-134588501D01*
X147146305Y-134559498D01*
X147937508Y-133768296D01*
X148140589Y-133903990D01*
X148410842Y-134015932D01*
X148697740Y-134073000D01*
X148990260Y-134073000D01*
X149277158Y-134015932D01*
X149547411Y-133903990D01*
X149790632Y-133741475D01*
X149997475Y-133534632D01*
X150114000Y-133360240D01*
X150230525Y-133534632D01*
X150437368Y-133741475D01*
X150680589Y-133903990D01*
X150950842Y-134015932D01*
X151237740Y-134073000D01*
X151530260Y-134073000D01*
X151817158Y-134015932D01*
X152087411Y-133903990D01*
X152330632Y-133741475D01*
X152537475Y-133534632D01*
X152654000Y-133360240D01*
X152770525Y-133534632D01*
X152977368Y-133741475D01*
X153220589Y-133903990D01*
X153490842Y-134015932D01*
X153777740Y-134073000D01*
X154070260Y-134073000D01*
X154357158Y-134015932D01*
X154627411Y-133903990D01*
X154870632Y-133741475D01*
X155077475Y-133534632D01*
X155194000Y-133360240D01*
X155310525Y-133534632D01*
X155517368Y-133741475D01*
X155760589Y-133903990D01*
X156030842Y-134015932D01*
X156317740Y-134073000D01*
X156610260Y-134073000D01*
X156897158Y-134015932D01*
X157167411Y-133903990D01*
X157410632Y-133741475D01*
X157617475Y-133534632D01*
X157739195Y-133352466D01*
X157808822Y-133469355D01*
X158003731Y-133685588D01*
X158237080Y-133859641D01*
X158499901Y-133984825D01*
X158647110Y-134029476D01*
X158877000Y-133908155D01*
X158877000Y-132715000D01*
X159131000Y-132715000D01*
X159131000Y-133908155D01*
X159360890Y-134029476D01*
X159508099Y-133984825D01*
X159770920Y-133859641D01*
X160004269Y-133685588D01*
X160199178Y-133469355D01*
X160348157Y-133219252D01*
X160445481Y-132944891D01*
X160324814Y-132715000D01*
X159131000Y-132715000D01*
X158877000Y-132715000D01*
X158857000Y-132715000D01*
X158857000Y-132461000D01*
X158877000Y-132461000D01*
X158877000Y-130175000D01*
X159131000Y-130175000D01*
X159131000Y-132461000D01*
X160324814Y-132461000D01*
X160445481Y-132231109D01*
X160348157Y-131956748D01*
X160199178Y-131706645D01*
X160004269Y-131490412D01*
X159773120Y-131318000D01*
X160004269Y-131145588D01*
X160199178Y-130929355D01*
X160348157Y-130679252D01*
X160445481Y-130404891D01*
X160324814Y-130175000D01*
X159131000Y-130175000D01*
X158877000Y-130175000D01*
X158857000Y-130175000D01*
X158857000Y-129921000D01*
X158877000Y-129921000D01*
X158877000Y-128727845D01*
X159131000Y-128727845D01*
X159131000Y-129921000D01*
X160324814Y-129921000D01*
X160445481Y-129691109D01*
X160348157Y-129416748D01*
X160199178Y-129166645D01*
X160004269Y-128950412D01*
X159770920Y-128776359D01*
X159508099Y-128651175D01*
X159360890Y-128606524D01*
X159131000Y-128727845D01*
X158877000Y-128727845D01*
X158647110Y-128606524D01*
X158499901Y-128651175D01*
X158237080Y-128776359D01*
X158003731Y-128950412D01*
X157808822Y-129166645D01*
X157739195Y-129283534D01*
X157617475Y-129101368D01*
X157410632Y-128894525D01*
X157167411Y-128732010D01*
X156897158Y-128620068D01*
X156610260Y-128563000D01*
X156317740Y-128563000D01*
X156030842Y-128620068D01*
X155760589Y-128732010D01*
X155517368Y-128894525D01*
X155310525Y-129101368D01*
X155194000Y-129275760D01*
X155077475Y-129101368D01*
X154870632Y-128894525D01*
X154627411Y-128732010D01*
X154357158Y-128620068D01*
X154070260Y-128563000D01*
X153777740Y-128563000D01*
X153490842Y-128620068D01*
X153220589Y-128732010D01*
X152977368Y-128894525D01*
X152770525Y-129101368D01*
X152654000Y-129275760D01*
X152537475Y-129101368D01*
X152336454Y-128900347D01*
X152863911Y-128372890D01*
X173056524Y-128372890D01*
X173101175Y-128520099D01*
X173226359Y-128782920D01*
X173400412Y-129016269D01*
X173616645Y-129211178D01*
X173866748Y-129360157D01*
X174141109Y-129457481D01*
X174371000Y-129336814D01*
X174371000Y-128143000D01*
X174625000Y-128143000D01*
X174625000Y-129336814D01*
X174854891Y-129457481D01*
X175129252Y-129360157D01*
X175379355Y-129211178D01*
X175595588Y-129016269D01*
X175768000Y-128785120D01*
X175940412Y-129016269D01*
X176156645Y-129211178D01*
X176406748Y-129360157D01*
X176681109Y-129457481D01*
X176911000Y-129336814D01*
X176911000Y-128143000D01*
X177165000Y-128143000D01*
X177165000Y-129336814D01*
X177394891Y-129457481D01*
X177669252Y-129360157D01*
X177919355Y-129211178D01*
X178135588Y-129016269D01*
X178309641Y-128782920D01*
X178434825Y-128520099D01*
X178479476Y-128372890D01*
X178358155Y-128143000D01*
X177165000Y-128143000D01*
X176911000Y-128143000D01*
X174625000Y-128143000D01*
X174371000Y-128143000D01*
X173177845Y-128143000D01*
X173056524Y-128372890D01*
X152863911Y-128372890D01*
X156140114Y-125096688D01*
X156322665Y-125133000D01*
X156605335Y-125133000D01*
X156882574Y-125077853D01*
X157143727Y-124969680D01*
X157378759Y-124812637D01*
X157578637Y-124612759D01*
X157734000Y-124380241D01*
X157889363Y-124612759D01*
X158089241Y-124812637D01*
X158324273Y-124969680D01*
X158585426Y-125077853D01*
X158862665Y-125133000D01*
X159145335Y-125133000D01*
X159422574Y-125077853D01*
X159683727Y-124969680D01*
X159918759Y-124812637D01*
X160118637Y-124612759D01*
X160274000Y-124380241D01*
X160429363Y-124612759D01*
X160629241Y-124812637D01*
X160864273Y-124969680D01*
X161125426Y-125077853D01*
X161402665Y-125133000D01*
X161685335Y-125133000D01*
X161962574Y-125077853D01*
X162223727Y-124969680D01*
X162458759Y-124812637D01*
X162658637Y-124612759D01*
X162814000Y-124380241D01*
X162969363Y-124612759D01*
X163169241Y-124812637D01*
X163404273Y-124969680D01*
X163665426Y-125077853D01*
X163942665Y-125133000D01*
X164225335Y-125133000D01*
X164502574Y-125077853D01*
X164763727Y-124969680D01*
X164998759Y-124812637D01*
X165198637Y-124612759D01*
X165354000Y-124380241D01*
X165509363Y-124612759D01*
X165709241Y-124812637D01*
X165944273Y-124969680D01*
X166205426Y-125077853D01*
X166482665Y-125133000D01*
X166765335Y-125133000D01*
X166947886Y-125096688D01*
X167203200Y-125352002D01*
X167226999Y-125381001D01*
X167255997Y-125404799D01*
X167342723Y-125475974D01*
X167442810Y-125529472D01*
X167474753Y-125546546D01*
X167618014Y-125590003D01*
X167729667Y-125601000D01*
X167729676Y-125601000D01*
X167766999Y-125604676D01*
X167804322Y-125601000D01*
X173013000Y-125601000D01*
X173013000Y-125622260D01*
X173070068Y-125909158D01*
X173182010Y-126179411D01*
X173344525Y-126422632D01*
X173551368Y-126629475D01*
X173733534Y-126751195D01*
X173616645Y-126820822D01*
X173400412Y-127015731D01*
X173226359Y-127249080D01*
X173101175Y-127511901D01*
X173056524Y-127659110D01*
X173177845Y-127889000D01*
X174371000Y-127889000D01*
X174371000Y-127869000D01*
X174625000Y-127869000D01*
X174625000Y-127889000D01*
X176911000Y-127889000D01*
X176911000Y-127869000D01*
X177165000Y-127869000D01*
X177165000Y-127889000D01*
X178358155Y-127889000D01*
X178479476Y-127659110D01*
X178434825Y-127511901D01*
X178309641Y-127249080D01*
X178135588Y-127015731D01*
X177919355Y-126820822D01*
X177802466Y-126751195D01*
X177984632Y-126629475D01*
X178191475Y-126422632D01*
X178353990Y-126179411D01*
X178465932Y-125909158D01*
X178523000Y-125622260D01*
X178523000Y-125329740D01*
X178465932Y-125042842D01*
X178353990Y-124772589D01*
X178191475Y-124529368D01*
X177984632Y-124322525D01*
X177810240Y-124206000D01*
X177984632Y-124089475D01*
X178191475Y-123882632D01*
X178353990Y-123639411D01*
X178465932Y-123369158D01*
X178523000Y-123082260D01*
X178523000Y-122789740D01*
X178465932Y-122502842D01*
X178353990Y-122232589D01*
X178191475Y-121989368D01*
X177984632Y-121782525D01*
X177810240Y-121666000D01*
X177984632Y-121549475D01*
X178191475Y-121342632D01*
X178353990Y-121099411D01*
X178465932Y-120829158D01*
X178523000Y-120542260D01*
X178523000Y-120249740D01*
X178465932Y-119962842D01*
X178353990Y-119692589D01*
X178191475Y-119449368D01*
X177984632Y-119242525D01*
X177810240Y-119126000D01*
X177984632Y-119009475D01*
X178191475Y-118802632D01*
X178353990Y-118559411D01*
X178465932Y-118289158D01*
X178523000Y-118002260D01*
X178523000Y-117709740D01*
X178465932Y-117422842D01*
X178353990Y-117152589D01*
X178191475Y-116909368D01*
X177984632Y-116702525D01*
X177810240Y-116586000D01*
X177984632Y-116469475D01*
X178191475Y-116262632D01*
X178353990Y-116019411D01*
X178465932Y-115749158D01*
X178523000Y-115462260D01*
X178523000Y-115169740D01*
X178465932Y-114882842D01*
X178353990Y-114612589D01*
X178191475Y-114369368D01*
X177984632Y-114162525D01*
X177810240Y-114046000D01*
X177984632Y-113929475D01*
X178191475Y-113722632D01*
X178353990Y-113479411D01*
X178465932Y-113209158D01*
X178523000Y-112922260D01*
X178523000Y-112629740D01*
X178465932Y-112342842D01*
X178353990Y-112072589D01*
X178191475Y-111829368D01*
X177984632Y-111622525D01*
X177810240Y-111506000D01*
X177984632Y-111389475D01*
X178191475Y-111182632D01*
X178353990Y-110939411D01*
X178465932Y-110669158D01*
X178523000Y-110382260D01*
X178523000Y-110089740D01*
X178465932Y-109802842D01*
X178353990Y-109532589D01*
X178191475Y-109289368D01*
X177984632Y-109082525D01*
X177810240Y-108966000D01*
X177984632Y-108849475D01*
X178191475Y-108642632D01*
X178353990Y-108399411D01*
X178465932Y-108129158D01*
X178523000Y-107842260D01*
X178523000Y-107549740D01*
X178465932Y-107262842D01*
X178353990Y-106992589D01*
X178191475Y-106749368D01*
X177984632Y-106542525D01*
X177810240Y-106426000D01*
X177984632Y-106309475D01*
X178191475Y-106102632D01*
X178353990Y-105859411D01*
X178465932Y-105589158D01*
X178523000Y-105302260D01*
X178523000Y-105009740D01*
X178465932Y-104722842D01*
X178353990Y-104452589D01*
X178191475Y-104209368D01*
X177984632Y-104002525D01*
X177810240Y-103886000D01*
X177984632Y-103769475D01*
X178191475Y-103562632D01*
X178353990Y-103319411D01*
X178465932Y-103049158D01*
X178523000Y-102762260D01*
X178523000Y-102469740D01*
X178465932Y-102182842D01*
X178353990Y-101912589D01*
X178191475Y-101669368D01*
X177984632Y-101462525D01*
X177810240Y-101346000D01*
X177984632Y-101229475D01*
X178191475Y-101022632D01*
X178353990Y-100779411D01*
X178465932Y-100509158D01*
X178523000Y-100222260D01*
X178523000Y-99929740D01*
X178465932Y-99642842D01*
X178353990Y-99372589D01*
X178191475Y-99129368D01*
X177984632Y-98922525D01*
X177741411Y-98760010D01*
X177471158Y-98648068D01*
X177184260Y-98591000D01*
X176891740Y-98591000D01*
X176604842Y-98648068D01*
X176334589Y-98760010D01*
X176091368Y-98922525D01*
X175959513Y-99054380D01*
X175937502Y-98981820D01*
X175878537Y-98871506D01*
X175799185Y-98774815D01*
X175702494Y-98695463D01*
X175592180Y-98636498D01*
X175472482Y-98600188D01*
X175348000Y-98587928D01*
X173648000Y-98587928D01*
X173523518Y-98600188D01*
X173403820Y-98636498D01*
X173293506Y-98695463D01*
X173196815Y-98774815D01*
X173117463Y-98871506D01*
X173058498Y-98981820D01*
X173022188Y-99101518D01*
X173009928Y-99226000D01*
X173009928Y-100926000D01*
X173022188Y-101050482D01*
X173058498Y-101170180D01*
X173117463Y-101280494D01*
X173196815Y-101377185D01*
X173293506Y-101456537D01*
X173403820Y-101515502D01*
X173476380Y-101537513D01*
X173344525Y-101669368D01*
X173182010Y-101912589D01*
X173070068Y-102182842D01*
X173013000Y-102469740D01*
X173013000Y-102762260D01*
X173056790Y-102982408D01*
X172139988Y-103899211D01*
X172110990Y-103923009D01*
X172087192Y-103952007D01*
X172087191Y-103952008D01*
X172016016Y-104038734D01*
X171945444Y-104170764D01*
X171901988Y-104314025D01*
X171887314Y-104463010D01*
X171890991Y-104500342D01*
X171890990Y-107069207D01*
X170599000Y-108361198D01*
X170599000Y-108330998D01*
X170440252Y-108330998D01*
X170599000Y-108172250D01*
X170602072Y-107658000D01*
X170589812Y-107533518D01*
X170553502Y-107413820D01*
X170494537Y-107303506D01*
X170415185Y-107206815D01*
X170318494Y-107127463D01*
X170208180Y-107068498D01*
X170088482Y-107032188D01*
X169964000Y-107019928D01*
X169449750Y-107023000D01*
X169291000Y-107181750D01*
X169291000Y-108331000D01*
X169311000Y-108331000D01*
X169311000Y-108585000D01*
X169291000Y-108585000D01*
X169291000Y-108605000D01*
X169037000Y-108605000D01*
X169037000Y-108585000D01*
X169017000Y-108585000D01*
X169017000Y-108331000D01*
X169037000Y-108331000D01*
X169037000Y-107181750D01*
X168878250Y-107023000D01*
X168364000Y-107019928D01*
X168239518Y-107032188D01*
X168119820Y-107068498D01*
X168009506Y-107127463D01*
X167912815Y-107206815D01*
X167833463Y-107303506D01*
X167774498Y-107413820D01*
X167738188Y-107533518D01*
X167737357Y-107541961D01*
X167538759Y-107343363D01*
X167303727Y-107186320D01*
X167042574Y-107078147D01*
X166765335Y-107023000D01*
X166482665Y-107023000D01*
X166205426Y-107078147D01*
X165944273Y-107186320D01*
X165709241Y-107343363D01*
X165509363Y-107543241D01*
X165354000Y-107775759D01*
X165198637Y-107543241D01*
X164998759Y-107343363D01*
X164763727Y-107186320D01*
X164502574Y-107078147D01*
X164225335Y-107023000D01*
X163942665Y-107023000D01*
X163665426Y-107078147D01*
X163404273Y-107186320D01*
X163169241Y-107343363D01*
X162969363Y-107543241D01*
X162814000Y-107775759D01*
X162658637Y-107543241D01*
X162458759Y-107343363D01*
X162223727Y-107186320D01*
X161962574Y-107078147D01*
X161685335Y-107023000D01*
X161402665Y-107023000D01*
X161125426Y-107078147D01*
X160864273Y-107186320D01*
X160629241Y-107343363D01*
X160429363Y-107543241D01*
X160274000Y-107775759D01*
X160118637Y-107543241D01*
X159918759Y-107343363D01*
X159683727Y-107186320D01*
X159422574Y-107078147D01*
X159145335Y-107023000D01*
X158862665Y-107023000D01*
X158585426Y-107078147D01*
X158324273Y-107186320D01*
X158089241Y-107343363D01*
X157889363Y-107543241D01*
X157734000Y-107775759D01*
X157578637Y-107543241D01*
X157378759Y-107343363D01*
X157143727Y-107186320D01*
X156882574Y-107078147D01*
X156605335Y-107023000D01*
X156322665Y-107023000D01*
X156045426Y-107078147D01*
X155784273Y-107186320D01*
X155549241Y-107343363D01*
X155349363Y-107543241D01*
X155194000Y-107775759D01*
X155038637Y-107543241D01*
X154838759Y-107343363D01*
X154603727Y-107186320D01*
X154342574Y-107078147D01*
X154065335Y-107023000D01*
X153782665Y-107023000D01*
X153505426Y-107078147D01*
X153244273Y-107186320D01*
X153009241Y-107343363D01*
X152809363Y-107543241D01*
X152654000Y-107775759D01*
X152498637Y-107543241D01*
X152298759Y-107343363D01*
X152063727Y-107186320D01*
X151802574Y-107078147D01*
X151525335Y-107023000D01*
X151242665Y-107023000D01*
X150965426Y-107078147D01*
X150704273Y-107186320D01*
X150469241Y-107343363D01*
X150269363Y-107543241D01*
X150114000Y-107775759D01*
X149958637Y-107543241D01*
X149758759Y-107343363D01*
X149523727Y-107186320D01*
X149262574Y-107078147D01*
X148985335Y-107023000D01*
X148702665Y-107023000D01*
X148425426Y-107078147D01*
X148164273Y-107186320D01*
X147929241Y-107343363D01*
X147729363Y-107543241D01*
X147574000Y-107775759D01*
X147418637Y-107543241D01*
X147218759Y-107343363D01*
X146983727Y-107186320D01*
X146722574Y-107078147D01*
X146445335Y-107023000D01*
X146162665Y-107023000D01*
X145885426Y-107078147D01*
X145624273Y-107186320D01*
X145389241Y-107343363D01*
X145189363Y-107543241D01*
X145034000Y-107775759D01*
X144878637Y-107543241D01*
X144678759Y-107343363D01*
X144443727Y-107186320D01*
X144182574Y-107078147D01*
X143905335Y-107023000D01*
X143622665Y-107023000D01*
X143345426Y-107078147D01*
X143084273Y-107186320D01*
X142849241Y-107343363D01*
X142649363Y-107543241D01*
X142494000Y-107775759D01*
X142338637Y-107543241D01*
X142138759Y-107343363D01*
X141903727Y-107186320D01*
X141642574Y-107078147D01*
X141365335Y-107023000D01*
X141082665Y-107023000D01*
X140805426Y-107078147D01*
X140544273Y-107186320D01*
X140309241Y-107343363D01*
X140109363Y-107543241D01*
X139954000Y-107775759D01*
X139798637Y-107543241D01*
X139598759Y-107343363D01*
X139363727Y-107186320D01*
X139102574Y-107078147D01*
X138825335Y-107023000D01*
X138542665Y-107023000D01*
X138265426Y-107078147D01*
X138004273Y-107186320D01*
X137769241Y-107343363D01*
X137569363Y-107543241D01*
X137414000Y-107775759D01*
X137258637Y-107543241D01*
X137058759Y-107343363D01*
X136823727Y-107186320D01*
X136562574Y-107078147D01*
X136285335Y-107023000D01*
X136002665Y-107023000D01*
X135725426Y-107078147D01*
X135464273Y-107186320D01*
X135229241Y-107343363D01*
X135029363Y-107543241D01*
X134874000Y-107775759D01*
X134718637Y-107543241D01*
X134518759Y-107343363D01*
X134283727Y-107186320D01*
X134022574Y-107078147D01*
X133745335Y-107023000D01*
X133462665Y-107023000D01*
X133185426Y-107078147D01*
X132924273Y-107186320D01*
X132689241Y-107343363D01*
X132489363Y-107543241D01*
X132334000Y-107775759D01*
X132178637Y-107543241D01*
X131978759Y-107343363D01*
X131743727Y-107186320D01*
X131482574Y-107078147D01*
X131205335Y-107023000D01*
X130922665Y-107023000D01*
X130645426Y-107078147D01*
X130384273Y-107186320D01*
X130149241Y-107343363D01*
X129949363Y-107543241D01*
X129794000Y-107775759D01*
X129638637Y-107543241D01*
X129438759Y-107343363D01*
X129203727Y-107186320D01*
X128942574Y-107078147D01*
X128665335Y-107023000D01*
X128382665Y-107023000D01*
X128105426Y-107078147D01*
X127844273Y-107186320D01*
X127609241Y-107343363D01*
X127409363Y-107543241D01*
X127254000Y-107775759D01*
X127098637Y-107543241D01*
X126898759Y-107343363D01*
X126663727Y-107186320D01*
X126402574Y-107078147D01*
X126125335Y-107023000D01*
X125842665Y-107023000D01*
X125565426Y-107078147D01*
X125304273Y-107186320D01*
X125069241Y-107343363D01*
X124869363Y-107543241D01*
X124714000Y-107775759D01*
X124558637Y-107543241D01*
X124358759Y-107343363D01*
X124123727Y-107186320D01*
X123862574Y-107078147D01*
X123585335Y-107023000D01*
X123302665Y-107023000D01*
X123025426Y-107078147D01*
X122764273Y-107186320D01*
X122529241Y-107343363D01*
X122329363Y-107543241D01*
X122174000Y-107775759D01*
X122018637Y-107543241D01*
X121818759Y-107343363D01*
X121583727Y-107186320D01*
X121322574Y-107078147D01*
X121045335Y-107023000D01*
X120762665Y-107023000D01*
X120485426Y-107078147D01*
X120224273Y-107186320D01*
X119989241Y-107343363D01*
X119789363Y-107543241D01*
X119632320Y-107778273D01*
X119524147Y-108039426D01*
X119469000Y-108316665D01*
X119469000Y-108599335D01*
X119524147Y-108876574D01*
X119632320Y-109137727D01*
X119789363Y-109372759D01*
X119989241Y-109572637D01*
X120224273Y-109729680D01*
X120485426Y-109837853D01*
X120762665Y-109893000D01*
X121045335Y-109893000D01*
X121322574Y-109837853D01*
X121583727Y-109729680D01*
X121818759Y-109572637D01*
X122018637Y-109372759D01*
X122174000Y-109140241D01*
X122329363Y-109372759D01*
X122529241Y-109572637D01*
X122764273Y-109729680D01*
X123025426Y-109837853D01*
X123302665Y-109893000D01*
X123585335Y-109893000D01*
X123862574Y-109837853D01*
X124123727Y-109729680D01*
X124358759Y-109572637D01*
X124558637Y-109372759D01*
X124714000Y-109140241D01*
X124869363Y-109372759D01*
X125069241Y-109572637D01*
X125304273Y-109729680D01*
X125565426Y-109837853D01*
X125842665Y-109893000D01*
X126125335Y-109893000D01*
X126402574Y-109837853D01*
X126663727Y-109729680D01*
X126898759Y-109572637D01*
X127098637Y-109372759D01*
X127254000Y-109140241D01*
X127409363Y-109372759D01*
X127609241Y-109572637D01*
X127844273Y-109729680D01*
X128105426Y-109837853D01*
X128382665Y-109893000D01*
X128665335Y-109893000D01*
X128942574Y-109837853D01*
X129203727Y-109729680D01*
X129438759Y-109572637D01*
X129638637Y-109372759D01*
X129794000Y-109140241D01*
X129949363Y-109372759D01*
X130149241Y-109572637D01*
X130384273Y-109729680D01*
X130645426Y-109837853D01*
X130922665Y-109893000D01*
X131205335Y-109893000D01*
X131482574Y-109837853D01*
X131743727Y-109729680D01*
X131978759Y-109572637D01*
X132178637Y-109372759D01*
X132334000Y-109140241D01*
X132489363Y-109372759D01*
X132689241Y-109572637D01*
X132924273Y-109729680D01*
X133185426Y-109837853D01*
X133462665Y-109893000D01*
X133745335Y-109893000D01*
X134022574Y-109837853D01*
X134283727Y-109729680D01*
X134518759Y-109572637D01*
X134718637Y-109372759D01*
X134874000Y-109140241D01*
X135029363Y-109372759D01*
X135229241Y-109572637D01*
X135464273Y-109729680D01*
X135725426Y-109837853D01*
X136002665Y-109893000D01*
X136285335Y-109893000D01*
X136562574Y-109837853D01*
X136823727Y-109729680D01*
X137058759Y-109572637D01*
X137258637Y-109372759D01*
X137414000Y-109140241D01*
X137569363Y-109372759D01*
X137769241Y-109572637D01*
X138004273Y-109729680D01*
X138265426Y-109837853D01*
X138542665Y-109893000D01*
X138825335Y-109893000D01*
X139102574Y-109837853D01*
X139363727Y-109729680D01*
X139598759Y-109572637D01*
X139798637Y-109372759D01*
X139954000Y-109140241D01*
X140109363Y-109372759D01*
X140309241Y-109572637D01*
X140544273Y-109729680D01*
X140805426Y-109837853D01*
X141082665Y-109893000D01*
X141365335Y-109893000D01*
X141642574Y-109837853D01*
X141903727Y-109729680D01*
X142138759Y-109572637D01*
X142338637Y-109372759D01*
X142494000Y-109140241D01*
X142649363Y-109372759D01*
X142849241Y-109572637D01*
X143084273Y-109729680D01*
X143345426Y-109837853D01*
X143622665Y-109893000D01*
X143905335Y-109893000D01*
X144182574Y-109837853D01*
X144443727Y-109729680D01*
X144678759Y-109572637D01*
X144878637Y-109372759D01*
X145034000Y-109140241D01*
X145189363Y-109372759D01*
X145389241Y-109572637D01*
X145624273Y-109729680D01*
X145885426Y-109837853D01*
X146162665Y-109893000D01*
X146445335Y-109893000D01*
X146722574Y-109837853D01*
X146983727Y-109729680D01*
X147218759Y-109572637D01*
X147418637Y-109372759D01*
X147574000Y-109140241D01*
X147729363Y-109372759D01*
X147929241Y-109572637D01*
X148164273Y-109729680D01*
X148425426Y-109837853D01*
X148702665Y-109893000D01*
X148985335Y-109893000D01*
X149167887Y-109856688D01*
X160218201Y-120907003D01*
X160241999Y-120936001D01*
X160270997Y-120959799D01*
X160357724Y-121030974D01*
X160489753Y-121101546D01*
X160633014Y-121145003D01*
X160782000Y-121159677D01*
X160819333Y-121156000D01*
X173219822Y-121156000D01*
X173344525Y-121342632D01*
X173551368Y-121549475D01*
X173725760Y-121666000D01*
X173551368Y-121782525D01*
X173344525Y-121989368D01*
X173219822Y-122176000D01*
X169963325Y-122176000D01*
X169926000Y-122172324D01*
X169888675Y-122176000D01*
X169888667Y-122176000D01*
X169777014Y-122186997D01*
X169633753Y-122230454D01*
X169501724Y-122301026D01*
X169500705Y-122301862D01*
X169305335Y-122263000D01*
X169022665Y-122263000D01*
X168745426Y-122318147D01*
X168484273Y-122426320D01*
X168249241Y-122583363D01*
X168049363Y-122783241D01*
X167894000Y-123015759D01*
X167738637Y-122783241D01*
X167538759Y-122583363D01*
X167303727Y-122426320D01*
X167042574Y-122318147D01*
X166765335Y-122263000D01*
X166482665Y-122263000D01*
X166205426Y-122318147D01*
X165944273Y-122426320D01*
X165709241Y-122583363D01*
X165509363Y-122783241D01*
X165354000Y-123015759D01*
X165198637Y-122783241D01*
X164998759Y-122583363D01*
X164763727Y-122426320D01*
X164502574Y-122318147D01*
X164225335Y-122263000D01*
X163942665Y-122263000D01*
X163665426Y-122318147D01*
X163404273Y-122426320D01*
X163169241Y-122583363D01*
X162969363Y-122783241D01*
X162814000Y-123015759D01*
X162658637Y-122783241D01*
X162458759Y-122583363D01*
X162223727Y-122426320D01*
X161962574Y-122318147D01*
X161685335Y-122263000D01*
X161402665Y-122263000D01*
X161125426Y-122318147D01*
X160864273Y-122426320D01*
X160629241Y-122583363D01*
X160429363Y-122783241D01*
X160274000Y-123015759D01*
X160118637Y-122783241D01*
X159918759Y-122583363D01*
X159683727Y-122426320D01*
X159422574Y-122318147D01*
X159145335Y-122263000D01*
X158862665Y-122263000D01*
X158585426Y-122318147D01*
X158324273Y-122426320D01*
X158089241Y-122583363D01*
X157889363Y-122783241D01*
X157734000Y-123015759D01*
X157578637Y-122783241D01*
X157378759Y-122583363D01*
X157143727Y-122426320D01*
X156882574Y-122318147D01*
X156605335Y-122263000D01*
X156322665Y-122263000D01*
X156045426Y-122318147D01*
X155784273Y-122426320D01*
X155549241Y-122583363D01*
X155349363Y-122783241D01*
X155194000Y-123015759D01*
X155038637Y-122783241D01*
X154838759Y-122583363D01*
X154603727Y-122426320D01*
X154342574Y-122318147D01*
X154065335Y-122263000D01*
X153782665Y-122263000D01*
X153505426Y-122318147D01*
X153244273Y-122426320D01*
X153009241Y-122583363D01*
X152809363Y-122783241D01*
X152654000Y-123015759D01*
X152498637Y-122783241D01*
X152298759Y-122583363D01*
X152063727Y-122426320D01*
X151802574Y-122318147D01*
X151525335Y-122263000D01*
X151242665Y-122263000D01*
X150965426Y-122318147D01*
X150704273Y-122426320D01*
X150469241Y-122583363D01*
X150269363Y-122783241D01*
X150114000Y-123015759D01*
X149958637Y-122783241D01*
X149758759Y-122583363D01*
X149523727Y-122426320D01*
X149262574Y-122318147D01*
X148985335Y-122263000D01*
X148702665Y-122263000D01*
X148425426Y-122318147D01*
X148164273Y-122426320D01*
X147929241Y-122583363D01*
X147729363Y-122783241D01*
X147574000Y-123015759D01*
X147418637Y-122783241D01*
X147218759Y-122583363D01*
X146983727Y-122426320D01*
X146722574Y-122318147D01*
X146445335Y-122263000D01*
X146162665Y-122263000D01*
X145885426Y-122318147D01*
X145624273Y-122426320D01*
X145389241Y-122583363D01*
X145189363Y-122783241D01*
X145034000Y-123015759D01*
X144878637Y-122783241D01*
X144678759Y-122583363D01*
X144443727Y-122426320D01*
X144182574Y-122318147D01*
X143905335Y-122263000D01*
X143622665Y-122263000D01*
X143345426Y-122318147D01*
X143084273Y-122426320D01*
X143023038Y-122467236D01*
X142167793Y-121611991D01*
X142143990Y-121582988D01*
X142028265Y-121488015D01*
X141896236Y-121417443D01*
X141752975Y-121373986D01*
X141641322Y-121362989D01*
X141641311Y-121362989D01*
X141603989Y-121359313D01*
X141566667Y-121362989D01*
X132676334Y-121362989D01*
X132639011Y-121359313D01*
X132601688Y-121362989D01*
X132601678Y-121362989D01*
X132490025Y-121373986D01*
X132346764Y-121417443D01*
X132214734Y-121488015D01*
X132139846Y-121549475D01*
X132099010Y-121582988D01*
X132075212Y-121611986D01*
X131387886Y-122299312D01*
X131205335Y-122263000D01*
X130922665Y-122263000D01*
X130645426Y-122318147D01*
X130384273Y-122426320D01*
X130149241Y-122583363D01*
X129949363Y-122783241D01*
X129794000Y-123015759D01*
X129638637Y-122783241D01*
X129438759Y-122583363D01*
X129203727Y-122426320D01*
X128942574Y-122318147D01*
X128665335Y-122263000D01*
X128382665Y-122263000D01*
X128347561Y-122269983D01*
X125961504Y-119883926D01*
X125933787Y-119850153D01*
X125799029Y-119739559D01*
X125645283Y-119657381D01*
X125478460Y-119606775D01*
X125348447Y-119593970D01*
X125348439Y-119593970D01*
X125304970Y-119589689D01*
X125261501Y-119593970D01*
X121442446Y-119593970D01*
X121394248Y-119561765D01*
X121205890Y-119483744D01*
X121005931Y-119443970D01*
X120802053Y-119443970D01*
X120602094Y-119483744D01*
X120413736Y-119561765D01*
X120244218Y-119675033D01*
X120100055Y-119819196D01*
X119986787Y-119988714D01*
X119908766Y-120177072D01*
X119868992Y-120377031D01*
X119868992Y-120580909D01*
X119908766Y-120780868D01*
X119986787Y-120969226D01*
X120100055Y-121138744D01*
X120244218Y-121282907D01*
X120413736Y-121396175D01*
X120602094Y-121474196D01*
X120802053Y-121513970D01*
X121005931Y-121513970D01*
X121205890Y-121474196D01*
X121394248Y-121396175D01*
X121442446Y-121363970D01*
X124938392Y-121363970D01*
X125838292Y-122263870D01*
X125565426Y-122318147D01*
X125304273Y-122426320D01*
X125069241Y-122583363D01*
X124869363Y-122783241D01*
X124714000Y-123015759D01*
X124558637Y-122783241D01*
X124358759Y-122583363D01*
X124123727Y-122426320D01*
X123862574Y-122318147D01*
X123585335Y-122263000D01*
X123302665Y-122263000D01*
X123025426Y-122318147D01*
X122764273Y-122426320D01*
X122529241Y-122583363D01*
X122329363Y-122783241D01*
X122174000Y-123015759D01*
X122018637Y-122783241D01*
X121818759Y-122583363D01*
X121583727Y-122426320D01*
X121322574Y-122318147D01*
X121045335Y-122263000D01*
X120762665Y-122263000D01*
X120485426Y-122318147D01*
X120224273Y-122426320D01*
X119989241Y-122583363D01*
X119789363Y-122783241D01*
X119632320Y-123018273D01*
X119524147Y-123279426D01*
X119469000Y-123556665D01*
X119469000Y-123839335D01*
X119524147Y-124116574D01*
X119632320Y-124377727D01*
X119789363Y-124612759D01*
X119989241Y-124812637D01*
X120224273Y-124969680D01*
X120485426Y-125077853D01*
X120762665Y-125133000D01*
X121045335Y-125133000D01*
X121227886Y-125096688D01*
X122472698Y-126341500D01*
X122496497Y-126370499D01*
X122525495Y-126394297D01*
X122612222Y-126465472D01*
X122744251Y-126536044D01*
X122887512Y-126579501D01*
X123036498Y-126594175D01*
X123073831Y-126590498D01*
X124959654Y-126590498D01*
X124949000Y-126644061D01*
X124949000Y-126847939D01*
X124988774Y-127047898D01*
X125066795Y-127236256D01*
X125121084Y-127317506D01*
X125066803Y-127398744D01*
X124988782Y-127587102D01*
X124949008Y-127787061D01*
X124949008Y-127990939D01*
X124988782Y-128190898D01*
X125066803Y-128379256D01*
X125180071Y-128548774D01*
X125324234Y-128692937D01*
X125343631Y-128705897D01*
X125280589Y-128732010D01*
X125037368Y-128894525D01*
X124830525Y-129101368D01*
X124708805Y-129283534D01*
X124639178Y-129166645D01*
X124444269Y-128950412D01*
X124210920Y-128776359D01*
X123948099Y-128651175D01*
X123800890Y-128606524D01*
X123571000Y-128727845D01*
X123571000Y-129921000D01*
X123591000Y-129921000D01*
X123591000Y-130175000D01*
X123571000Y-130175000D01*
X123571000Y-132461000D01*
X123591000Y-132461000D01*
X123591000Y-132715000D01*
X123571000Y-132715000D01*
X123571000Y-133908155D01*
X123800890Y-134029476D01*
X123948099Y-133984825D01*
X124210920Y-133859641D01*
X124444269Y-133685588D01*
X124639178Y-133469355D01*
X124708805Y-133352466D01*
X124830525Y-133534632D01*
X125037368Y-133741475D01*
X125280589Y-133903990D01*
X125550842Y-134015932D01*
X125837740Y-134073000D01*
X126130260Y-134073000D01*
X126417158Y-134015932D01*
X126687411Y-133903990D01*
X126930632Y-133741475D01*
X127137475Y-133534632D01*
X127254000Y-133360240D01*
X127370525Y-133534632D01*
X127577368Y-133741475D01*
X127820589Y-133903990D01*
X128090842Y-134015932D01*
X128377740Y-134073000D01*
X128670260Y-134073000D01*
X128957158Y-134015932D01*
X129227411Y-133903990D01*
X129470632Y-133741475D01*
X129677475Y-133534632D01*
X129794000Y-133360240D01*
X129910525Y-133534632D01*
X130117368Y-133741475D01*
X130360589Y-133903990D01*
X130630842Y-134015932D01*
X130917740Y-134073000D01*
X131210260Y-134073000D01*
X131497158Y-134015932D01*
X131767411Y-133903990D01*
X131869115Y-133836034D01*
X131886503Y-133850304D01*
X132733198Y-134697000D01*
X113377353Y-134697000D01*
X113283044Y-134706289D01*
X113145124Y-134692766D01*
X112889376Y-134615551D01*
X112653496Y-134490131D01*
X112446475Y-134321289D01*
X112276187Y-134115446D01*
X112149121Y-133880444D01*
X112070123Y-133625240D01*
X112054678Y-133478291D01*
X112064000Y-133383647D01*
X112064000Y-129198000D01*
X119415928Y-129198000D01*
X119415928Y-130898000D01*
X119428188Y-131022482D01*
X119464498Y-131142180D01*
X119523463Y-131252494D01*
X119602815Y-131349185D01*
X119699506Y-131428537D01*
X119809820Y-131487502D01*
X119882380Y-131509513D01*
X119750525Y-131641368D01*
X119588010Y-131884589D01*
X119476068Y-132154842D01*
X119419000Y-132441740D01*
X119419000Y-132734260D01*
X119476068Y-133021158D01*
X119588010Y-133291411D01*
X119750525Y-133534632D01*
X119957368Y-133741475D01*
X120200589Y-133903990D01*
X120470842Y-134015932D01*
X120757740Y-134073000D01*
X121050260Y-134073000D01*
X121337158Y-134015932D01*
X121607411Y-133903990D01*
X121850632Y-133741475D01*
X122057475Y-133534632D01*
X122179195Y-133352466D01*
X122248822Y-133469355D01*
X122443731Y-133685588D01*
X122677080Y-133859641D01*
X122939901Y-133984825D01*
X123087110Y-134029476D01*
X123317000Y-133908155D01*
X123317000Y-132715000D01*
X123297000Y-132715000D01*
X123297000Y-132461000D01*
X123317000Y-132461000D01*
X123317000Y-130175000D01*
X123297000Y-130175000D01*
X123297000Y-129921000D01*
X123317000Y-129921000D01*
X123317000Y-128727845D01*
X123087110Y-128606524D01*
X122939901Y-128651175D01*
X122677080Y-128776359D01*
X122443731Y-128950412D01*
X122367966Y-129034466D01*
X122343502Y-128953820D01*
X122284537Y-128843506D01*
X122205185Y-128746815D01*
X122108494Y-128667463D01*
X121998180Y-128608498D01*
X121878482Y-128572188D01*
X121754000Y-128559928D01*
X120054000Y-128559928D01*
X119929518Y-128572188D01*
X119809820Y-128608498D01*
X119699506Y-128667463D01*
X119602815Y-128746815D01*
X119523463Y-128843506D01*
X119464498Y-128953820D01*
X119428188Y-129073518D01*
X119415928Y-129198000D01*
X112064000Y-129198000D01*
X112064000Y-111950702D01*
X115772903Y-111950702D01*
X115844486Y-112194671D01*
X116099996Y-112315571D01*
X116374184Y-112384300D01*
X116656512Y-112398217D01*
X116936130Y-112356787D01*
X117202292Y-112261603D01*
X117327514Y-112194671D01*
X117399097Y-111950702D01*
X116586000Y-111137605D01*
X115772903Y-111950702D01*
X112064000Y-111950702D01*
X112064000Y-111028512D01*
X115145783Y-111028512D01*
X115187213Y-111308130D01*
X115282397Y-111574292D01*
X115349329Y-111699514D01*
X115593298Y-111771097D01*
X116406395Y-110958000D01*
X116765605Y-110958000D01*
X117578702Y-111771097D01*
X117822671Y-111699514D01*
X117943571Y-111444004D01*
X118012300Y-111169816D01*
X118026217Y-110887488D01*
X117984787Y-110607870D01*
X117889603Y-110341708D01*
X117822671Y-110216486D01*
X117578702Y-110144903D01*
X116765605Y-110958000D01*
X116406395Y-110958000D01*
X115593298Y-110144903D01*
X115349329Y-110216486D01*
X115228429Y-110471996D01*
X115159700Y-110746184D01*
X115145783Y-111028512D01*
X112064000Y-111028512D01*
X112064000Y-108316665D01*
X115151000Y-108316665D01*
X115151000Y-108599335D01*
X115206147Y-108876574D01*
X115314320Y-109137727D01*
X115471363Y-109372759D01*
X115671241Y-109572637D01*
X115871869Y-109706692D01*
X115844486Y-109721329D01*
X115772903Y-109965298D01*
X116586000Y-110778395D01*
X117399097Y-109965298D01*
X117327514Y-109721329D01*
X117298659Y-109707676D01*
X117500759Y-109572637D01*
X117700637Y-109372759D01*
X117857680Y-109137727D01*
X117965853Y-108876574D01*
X118021000Y-108599335D01*
X118021000Y-108316665D01*
X117965853Y-108039426D01*
X117857680Y-107778273D01*
X117700637Y-107543241D01*
X117500759Y-107343363D01*
X117265727Y-107186320D01*
X117004574Y-107078147D01*
X116727335Y-107023000D01*
X116444665Y-107023000D01*
X116167426Y-107078147D01*
X115906273Y-107186320D01*
X115671241Y-107343363D01*
X115471363Y-107543241D01*
X115314320Y-107778273D01*
X115206147Y-108039426D01*
X115151000Y-108316665D01*
X112064000Y-108316665D01*
X112064000Y-101712665D01*
X121755000Y-101712665D01*
X121755000Y-101995335D01*
X121810147Y-102272574D01*
X121918320Y-102533727D01*
X122075363Y-102768759D01*
X122275241Y-102968637D01*
X122510273Y-103125680D01*
X122771426Y-103233853D01*
X123048665Y-103289000D01*
X123331335Y-103289000D01*
X123608574Y-103233853D01*
X123869727Y-103125680D01*
X124104759Y-102968637D01*
X124304637Y-102768759D01*
X124460000Y-102536241D01*
X124615363Y-102768759D01*
X124815241Y-102968637D01*
X125050273Y-103125680D01*
X125311426Y-103233853D01*
X125588665Y-103289000D01*
X125871335Y-103289000D01*
X126148574Y-103233853D01*
X126409727Y-103125680D01*
X126644759Y-102968637D01*
X126844637Y-102768759D01*
X127000000Y-102536241D01*
X127155363Y-102768759D01*
X127355241Y-102968637D01*
X127590273Y-103125680D01*
X127851426Y-103233853D01*
X128128665Y-103289000D01*
X128411335Y-103289000D01*
X128688574Y-103233853D01*
X128949727Y-103125680D01*
X129184759Y-102968637D01*
X129384637Y-102768759D01*
X129540000Y-102536241D01*
X129695363Y-102768759D01*
X129895241Y-102968637D01*
X130130273Y-103125680D01*
X130391426Y-103233853D01*
X130668665Y-103289000D01*
X130951335Y-103289000D01*
X131228574Y-103233853D01*
X131489727Y-103125680D01*
X131724759Y-102968637D01*
X131924637Y-102768759D01*
X132080000Y-102536241D01*
X132235363Y-102768759D01*
X132435241Y-102968637D01*
X132670273Y-103125680D01*
X132931426Y-103233853D01*
X133208665Y-103289000D01*
X133491335Y-103289000D01*
X133768574Y-103233853D01*
X134029727Y-103125680D01*
X134264759Y-102968637D01*
X134464637Y-102768759D01*
X134620000Y-102536241D01*
X134775363Y-102768759D01*
X134975241Y-102968637D01*
X135210273Y-103125680D01*
X135471426Y-103233853D01*
X135748665Y-103289000D01*
X136031335Y-103289000D01*
X136308574Y-103233853D01*
X136569727Y-103125680D01*
X136804759Y-102968637D01*
X137004637Y-102768759D01*
X137160000Y-102536241D01*
X137315363Y-102768759D01*
X137515241Y-102968637D01*
X137750273Y-103125680D01*
X138011426Y-103233853D01*
X138288665Y-103289000D01*
X138571335Y-103289000D01*
X138848574Y-103233853D01*
X139109727Y-103125680D01*
X139344759Y-102968637D01*
X139544637Y-102768759D01*
X139700000Y-102536241D01*
X139855363Y-102768759D01*
X140055241Y-102968637D01*
X140290273Y-103125680D01*
X140551426Y-103233853D01*
X140828665Y-103289000D01*
X141111335Y-103289000D01*
X141388574Y-103233853D01*
X141649727Y-103125680D01*
X141884759Y-102968637D01*
X142083357Y-102770039D01*
X142084188Y-102778482D01*
X142120498Y-102898180D01*
X142179463Y-103008494D01*
X142258815Y-103105185D01*
X142355506Y-103184537D01*
X142465820Y-103243502D01*
X142585518Y-103279812D01*
X142710000Y-103292072D01*
X144310000Y-103292072D01*
X144434482Y-103279812D01*
X144554180Y-103243502D01*
X144664494Y-103184537D01*
X144761185Y-103105185D01*
X144840537Y-103008494D01*
X144899502Y-102898180D01*
X144935812Y-102778482D01*
X144948072Y-102654000D01*
X144948072Y-101712665D01*
X146393000Y-101712665D01*
X146393000Y-101995335D01*
X146448147Y-102272574D01*
X146556320Y-102533727D01*
X146713363Y-102768759D01*
X146913241Y-102968637D01*
X147148273Y-103125680D01*
X147409426Y-103233853D01*
X147686665Y-103289000D01*
X147969335Y-103289000D01*
X148246574Y-103233853D01*
X148507727Y-103125680D01*
X148742759Y-102968637D01*
X148942637Y-102768759D01*
X149098000Y-102536241D01*
X149253363Y-102768759D01*
X149453241Y-102968637D01*
X149688273Y-103125680D01*
X149949426Y-103233853D01*
X150226665Y-103289000D01*
X150509335Y-103289000D01*
X150786574Y-103233853D01*
X151047727Y-103125680D01*
X151282759Y-102968637D01*
X151482637Y-102768759D01*
X151638000Y-102536241D01*
X151793363Y-102768759D01*
X151993241Y-102968637D01*
X152228273Y-103125680D01*
X152489426Y-103233853D01*
X152766665Y-103289000D01*
X153049335Y-103289000D01*
X153326574Y-103233853D01*
X153587727Y-103125680D01*
X153822759Y-102968637D01*
X154022637Y-102768759D01*
X154178000Y-102536241D01*
X154333363Y-102768759D01*
X154533241Y-102968637D01*
X154768273Y-103125680D01*
X155029426Y-103233853D01*
X155306665Y-103289000D01*
X155589335Y-103289000D01*
X155866574Y-103233853D01*
X156127727Y-103125680D01*
X156362759Y-102968637D01*
X156562637Y-102768759D01*
X156718000Y-102536241D01*
X156873363Y-102768759D01*
X157073241Y-102968637D01*
X157308273Y-103125680D01*
X157569426Y-103233853D01*
X157846665Y-103289000D01*
X158129335Y-103289000D01*
X158406574Y-103233853D01*
X158667727Y-103125680D01*
X158902759Y-102968637D01*
X159102637Y-102768759D01*
X159258000Y-102536241D01*
X159413363Y-102768759D01*
X159613241Y-102968637D01*
X159848273Y-103125680D01*
X160109426Y-103233853D01*
X160386665Y-103289000D01*
X160669335Y-103289000D01*
X160946574Y-103233853D01*
X161207727Y-103125680D01*
X161442759Y-102968637D01*
X161642637Y-102768759D01*
X161798000Y-102536241D01*
X161953363Y-102768759D01*
X162153241Y-102968637D01*
X162388273Y-103125680D01*
X162649426Y-103233853D01*
X162926665Y-103289000D01*
X163209335Y-103289000D01*
X163486574Y-103233853D01*
X163747727Y-103125680D01*
X163982759Y-102968637D01*
X164182637Y-102768759D01*
X164338000Y-102536241D01*
X164493363Y-102768759D01*
X164693241Y-102968637D01*
X164928273Y-103125680D01*
X165189426Y-103233853D01*
X165466665Y-103289000D01*
X165749335Y-103289000D01*
X166026574Y-103233853D01*
X166287727Y-103125680D01*
X166522759Y-102968637D01*
X166721357Y-102770039D01*
X166722188Y-102778482D01*
X166758498Y-102898180D01*
X166817463Y-103008494D01*
X166896815Y-103105185D01*
X166993506Y-103184537D01*
X167103820Y-103243502D01*
X167223518Y-103279812D01*
X167348000Y-103292072D01*
X168948000Y-103292072D01*
X169072482Y-103279812D01*
X169192180Y-103243502D01*
X169302494Y-103184537D01*
X169399185Y-103105185D01*
X169478537Y-103008494D01*
X169537502Y-102898180D01*
X169573812Y-102778482D01*
X169586072Y-102654000D01*
X169586072Y-101054000D01*
X169573812Y-100929518D01*
X169537502Y-100809820D01*
X169478537Y-100699506D01*
X169399185Y-100602815D01*
X169302494Y-100523463D01*
X169192180Y-100464498D01*
X169072482Y-100428188D01*
X168948000Y-100415928D01*
X167348000Y-100415928D01*
X167223518Y-100428188D01*
X167103820Y-100464498D01*
X166993506Y-100523463D01*
X166896815Y-100602815D01*
X166817463Y-100699506D01*
X166758498Y-100809820D01*
X166722188Y-100929518D01*
X166721357Y-100937961D01*
X166522759Y-100739363D01*
X166287727Y-100582320D01*
X166026574Y-100474147D01*
X165749335Y-100419000D01*
X165466665Y-100419000D01*
X165189426Y-100474147D01*
X164928273Y-100582320D01*
X164693241Y-100739363D01*
X164493363Y-100939241D01*
X164338000Y-101171759D01*
X164182637Y-100939241D01*
X163982759Y-100739363D01*
X163747727Y-100582320D01*
X163486574Y-100474147D01*
X163209335Y-100419000D01*
X162926665Y-100419000D01*
X162649426Y-100474147D01*
X162388273Y-100582320D01*
X162153241Y-100739363D01*
X161953363Y-100939241D01*
X161798000Y-101171759D01*
X161642637Y-100939241D01*
X161442759Y-100739363D01*
X161207727Y-100582320D01*
X160946574Y-100474147D01*
X160669335Y-100419000D01*
X160386665Y-100419000D01*
X160109426Y-100474147D01*
X159848273Y-100582320D01*
X159613241Y-100739363D01*
X159413363Y-100939241D01*
X159258000Y-101171759D01*
X159102637Y-100939241D01*
X158902759Y-100739363D01*
X158667727Y-100582320D01*
X158406574Y-100474147D01*
X158129335Y-100419000D01*
X157846665Y-100419000D01*
X157569426Y-100474147D01*
X157308273Y-100582320D01*
X157073241Y-100739363D01*
X156873363Y-100939241D01*
X156718000Y-101171759D01*
X156562637Y-100939241D01*
X156362759Y-100739363D01*
X156127727Y-100582320D01*
X155866574Y-100474147D01*
X155589335Y-100419000D01*
X155306665Y-100419000D01*
X155029426Y-100474147D01*
X154768273Y-100582320D01*
X154533241Y-100739363D01*
X154333363Y-100939241D01*
X154178000Y-101171759D01*
X154022637Y-100939241D01*
X153822759Y-100739363D01*
X153587727Y-100582320D01*
X153326574Y-100474147D01*
X153049335Y-100419000D01*
X152766665Y-100419000D01*
X152489426Y-100474147D01*
X152228273Y-100582320D01*
X151993241Y-100739363D01*
X151793363Y-100939241D01*
X151638000Y-101171759D01*
X151482637Y-100939241D01*
X151282759Y-100739363D01*
X151047727Y-100582320D01*
X150786574Y-100474147D01*
X150509335Y-100419000D01*
X150226665Y-100419000D01*
X149949426Y-100474147D01*
X149688273Y-100582320D01*
X149453241Y-100739363D01*
X149253363Y-100939241D01*
X149098000Y-101171759D01*
X148942637Y-100939241D01*
X148742759Y-100739363D01*
X148507727Y-100582320D01*
X148246574Y-100474147D01*
X147969335Y-100419000D01*
X147686665Y-100419000D01*
X147409426Y-100474147D01*
X147148273Y-100582320D01*
X146913241Y-100739363D01*
X146713363Y-100939241D01*
X146556320Y-101174273D01*
X146448147Y-101435426D01*
X146393000Y-101712665D01*
X144948072Y-101712665D01*
X144948072Y-101054000D01*
X144935812Y-100929518D01*
X144899502Y-100809820D01*
X144840537Y-100699506D01*
X144761185Y-100602815D01*
X144664494Y-100523463D01*
X144554180Y-100464498D01*
X144434482Y-100428188D01*
X144310000Y-100415928D01*
X142710000Y-100415928D01*
X142585518Y-100428188D01*
X142465820Y-100464498D01*
X142355506Y-100523463D01*
X142258815Y-100602815D01*
X142179463Y-100699506D01*
X142120498Y-100809820D01*
X142084188Y-100929518D01*
X142083357Y-100937961D01*
X141884759Y-100739363D01*
X141649727Y-100582320D01*
X141388574Y-100474147D01*
X141111335Y-100419000D01*
X140828665Y-100419000D01*
X140551426Y-100474147D01*
X140290273Y-100582320D01*
X140055241Y-100739363D01*
X139855363Y-100939241D01*
X139700000Y-101171759D01*
X139544637Y-100939241D01*
X139344759Y-100739363D01*
X139109727Y-100582320D01*
X138848574Y-100474147D01*
X138571335Y-100419000D01*
X138288665Y-100419000D01*
X138011426Y-100474147D01*
X137750273Y-100582320D01*
X137515241Y-100739363D01*
X137315363Y-100939241D01*
X137160000Y-101171759D01*
X137004637Y-100939241D01*
X136804759Y-100739363D01*
X136569727Y-100582320D01*
X136308574Y-100474147D01*
X136031335Y-100419000D01*
X135748665Y-100419000D01*
X135471426Y-100474147D01*
X135210273Y-100582320D01*
X134975241Y-100739363D01*
X134775363Y-100939241D01*
X134620000Y-101171759D01*
X134464637Y-100939241D01*
X134264759Y-100739363D01*
X134029727Y-100582320D01*
X133768574Y-100474147D01*
X133491335Y-100419000D01*
X133208665Y-100419000D01*
X132931426Y-100474147D01*
X132670273Y-100582320D01*
X132435241Y-100739363D01*
X132235363Y-100939241D01*
X132080000Y-101171759D01*
X131924637Y-100939241D01*
X131724759Y-100739363D01*
X131489727Y-100582320D01*
X131228574Y-100474147D01*
X130951335Y-100419000D01*
X130668665Y-100419000D01*
X130391426Y-100474147D01*
X130130273Y-100582320D01*
X129895241Y-100739363D01*
X129695363Y-100939241D01*
X129540000Y-101171759D01*
X129384637Y-100939241D01*
X129184759Y-100739363D01*
X128949727Y-100582320D01*
X128688574Y-100474147D01*
X128411335Y-100419000D01*
X128128665Y-100419000D01*
X127851426Y-100474147D01*
X127590273Y-100582320D01*
X127355241Y-100739363D01*
X127155363Y-100939241D01*
X127000000Y-101171759D01*
X126844637Y-100939241D01*
X126644759Y-100739363D01*
X126409727Y-100582320D01*
X126148574Y-100474147D01*
X125871335Y-100419000D01*
X125588665Y-100419000D01*
X125311426Y-100474147D01*
X125050273Y-100582320D01*
X124815241Y-100739363D01*
X124615363Y-100939241D01*
X124460000Y-101171759D01*
X124304637Y-100939241D01*
X124104759Y-100739363D01*
X123869727Y-100582320D01*
X123608574Y-100474147D01*
X123331335Y-100419000D01*
X123048665Y-100419000D01*
X122771426Y-100474147D01*
X122510273Y-100582320D01*
X122275241Y-100739363D01*
X122075363Y-100939241D01*
X121918320Y-101174273D01*
X121810147Y-101435426D01*
X121755000Y-101712665D01*
X112064000Y-101712665D01*
X112064000Y-96881740D01*
X129325000Y-96881740D01*
X129325000Y-97174260D01*
X129382068Y-97461158D01*
X129494010Y-97731411D01*
X129656525Y-97974632D01*
X129863368Y-98181475D01*
X130106589Y-98343990D01*
X130376842Y-98455932D01*
X130663740Y-98513000D01*
X130956260Y-98513000D01*
X131243158Y-98455932D01*
X131513411Y-98343990D01*
X131756632Y-98181475D01*
X131963475Y-97974632D01*
X132080000Y-97800240D01*
X132196525Y-97974632D01*
X132403368Y-98181475D01*
X132646589Y-98343990D01*
X132916842Y-98455932D01*
X133203740Y-98513000D01*
X133496260Y-98513000D01*
X133783158Y-98455932D01*
X134053411Y-98343990D01*
X134296632Y-98181475D01*
X134428487Y-98049620D01*
X134450498Y-98122180D01*
X134509463Y-98232494D01*
X134588815Y-98329185D01*
X134685506Y-98408537D01*
X134795820Y-98467502D01*
X134915518Y-98503812D01*
X135040000Y-98516072D01*
X135604250Y-98513000D01*
X135763000Y-98354250D01*
X135763000Y-97155000D01*
X136017000Y-97155000D01*
X136017000Y-98354250D01*
X136175750Y-98513000D01*
X136740000Y-98516072D01*
X136864482Y-98503812D01*
X136984180Y-98467502D01*
X137094494Y-98408537D01*
X137191185Y-98329185D01*
X137270537Y-98232494D01*
X137329502Y-98122180D01*
X137365812Y-98002482D01*
X137378072Y-97878000D01*
X137375000Y-97313750D01*
X137216250Y-97155000D01*
X136017000Y-97155000D01*
X135763000Y-97155000D01*
X135743000Y-97155000D01*
X135743000Y-96901000D01*
X135763000Y-96901000D01*
X135763000Y-95701750D01*
X136017000Y-95701750D01*
X136017000Y-96901000D01*
X137216250Y-96901000D01*
X137235510Y-96881740D01*
X153963000Y-96881740D01*
X153963000Y-97174260D01*
X154020068Y-97461158D01*
X154132010Y-97731411D01*
X154294525Y-97974632D01*
X154501368Y-98181475D01*
X154744589Y-98343990D01*
X155014842Y-98455932D01*
X155301740Y-98513000D01*
X155594260Y-98513000D01*
X155881158Y-98455932D01*
X156151411Y-98343990D01*
X156394632Y-98181475D01*
X156601475Y-97974632D01*
X156718000Y-97800240D01*
X156834525Y-97974632D01*
X157041368Y-98181475D01*
X157284589Y-98343990D01*
X157554842Y-98455932D01*
X157841740Y-98513000D01*
X158134260Y-98513000D01*
X158421158Y-98455932D01*
X158691411Y-98343990D01*
X158934632Y-98181475D01*
X159066487Y-98049620D01*
X159088498Y-98122180D01*
X159147463Y-98232494D01*
X159226815Y-98329185D01*
X159323506Y-98408537D01*
X159433820Y-98467502D01*
X159553518Y-98503812D01*
X159678000Y-98516072D01*
X160242250Y-98513000D01*
X160401000Y-98354250D01*
X160401000Y-97155000D01*
X160655000Y-97155000D01*
X160655000Y-98354250D01*
X160813750Y-98513000D01*
X161378000Y-98516072D01*
X161502482Y-98503812D01*
X161622180Y-98467502D01*
X161732494Y-98408537D01*
X161829185Y-98329185D01*
X161908537Y-98232494D01*
X161967502Y-98122180D01*
X162003812Y-98002482D01*
X162016072Y-97878000D01*
X162013000Y-97313750D01*
X161854250Y-97155000D01*
X160655000Y-97155000D01*
X160401000Y-97155000D01*
X160381000Y-97155000D01*
X160381000Y-96901000D01*
X160401000Y-96901000D01*
X160401000Y-95701750D01*
X160655000Y-95701750D01*
X160655000Y-96901000D01*
X161854250Y-96901000D01*
X162013000Y-96742250D01*
X162016072Y-96178000D01*
X162003812Y-96053518D01*
X161967502Y-95933820D01*
X161908537Y-95823506D01*
X161829185Y-95726815D01*
X161732494Y-95647463D01*
X161622180Y-95588498D01*
X161502482Y-95552188D01*
X161378000Y-95539928D01*
X160813750Y-95543000D01*
X160655000Y-95701750D01*
X160401000Y-95701750D01*
X160242250Y-95543000D01*
X159678000Y-95539928D01*
X159553518Y-95552188D01*
X159433820Y-95588498D01*
X159323506Y-95647463D01*
X159226815Y-95726815D01*
X159147463Y-95823506D01*
X159088498Y-95933820D01*
X159066487Y-96006380D01*
X158934632Y-95874525D01*
X158691411Y-95712010D01*
X158421158Y-95600068D01*
X158134260Y-95543000D01*
X157841740Y-95543000D01*
X157554842Y-95600068D01*
X157284589Y-95712010D01*
X157041368Y-95874525D01*
X156834525Y-96081368D01*
X156718000Y-96255760D01*
X156601475Y-96081368D01*
X156394632Y-95874525D01*
X156151411Y-95712010D01*
X155881158Y-95600068D01*
X155594260Y-95543000D01*
X155301740Y-95543000D01*
X155014842Y-95600068D01*
X154744589Y-95712010D01*
X154501368Y-95874525D01*
X154294525Y-96081368D01*
X154132010Y-96324589D01*
X154020068Y-96594842D01*
X153963000Y-96881740D01*
X137235510Y-96881740D01*
X137375000Y-96742250D01*
X137378072Y-96178000D01*
X137365812Y-96053518D01*
X137329502Y-95933820D01*
X137270537Y-95823506D01*
X137191185Y-95726815D01*
X137094494Y-95647463D01*
X136984180Y-95588498D01*
X136864482Y-95552188D01*
X136740000Y-95539928D01*
X136175750Y-95543000D01*
X136017000Y-95701750D01*
X135763000Y-95701750D01*
X135604250Y-95543000D01*
X135040000Y-95539928D01*
X134915518Y-95552188D01*
X134795820Y-95588498D01*
X134685506Y-95647463D01*
X134588815Y-95726815D01*
X134509463Y-95823506D01*
X134450498Y-95933820D01*
X134428487Y-96006380D01*
X134296632Y-95874525D01*
X134053411Y-95712010D01*
X133783158Y-95600068D01*
X133496260Y-95543000D01*
X133203740Y-95543000D01*
X132916842Y-95600068D01*
X132646589Y-95712010D01*
X132403368Y-95874525D01*
X132196525Y-96081368D01*
X132080000Y-96255760D01*
X131963475Y-96081368D01*
X131756632Y-95874525D01*
X131513411Y-95712010D01*
X131243158Y-95600068D01*
X130956260Y-95543000D01*
X130663740Y-95543000D01*
X130376842Y-95600068D01*
X130106589Y-95712010D01*
X129863368Y-95874525D01*
X129656525Y-96081368D01*
X129494010Y-96324589D01*
X129382068Y-96594842D01*
X129325000Y-96881740D01*
X112064000Y-96881740D01*
X112064000Y-94200353D01*
X112054711Y-94106043D01*
X112068234Y-93968125D01*
X112145448Y-93712378D01*
X112270869Y-93476496D01*
X112439716Y-93269470D01*
X112645554Y-93099187D01*
X112880556Y-92972121D01*
X113135756Y-92893124D01*
X113282711Y-92877678D01*
X113377353Y-92887000D01*
%TA.AperFunction,Conductor*%
D19*
G36*
X113377353Y-92887000D02*
G01*
X181996620Y-92887000D01*
X186894000Y-97784381D01*
X186894001Y-133383647D01*
X186903289Y-133477951D01*
X186889766Y-133615876D01*
X186812551Y-133871624D01*
X186687131Y-134107504D01*
X186518289Y-134314525D01*
X186312446Y-134484813D01*
X186077444Y-134611879D01*
X185822240Y-134690877D01*
X185675291Y-134706322D01*
X185580647Y-134697000D01*
X146984302Y-134697000D01*
X146987550Y-134693752D01*
X147006778Y-134683474D01*
X147122503Y-134588501D01*
X147146305Y-134559498D01*
X147937508Y-133768296D01*
X148140589Y-133903990D01*
X148410842Y-134015932D01*
X148697740Y-134073000D01*
X148990260Y-134073000D01*
X149277158Y-134015932D01*
X149547411Y-133903990D01*
X149790632Y-133741475D01*
X149997475Y-133534632D01*
X150114000Y-133360240D01*
X150230525Y-133534632D01*
X150437368Y-133741475D01*
X150680589Y-133903990D01*
X150950842Y-134015932D01*
X151237740Y-134073000D01*
X151530260Y-134073000D01*
X151817158Y-134015932D01*
X152087411Y-133903990D01*
X152330632Y-133741475D01*
X152537475Y-133534632D01*
X152654000Y-133360240D01*
X152770525Y-133534632D01*
X152977368Y-133741475D01*
X153220589Y-133903990D01*
X153490842Y-134015932D01*
X153777740Y-134073000D01*
X154070260Y-134073000D01*
X154357158Y-134015932D01*
X154627411Y-133903990D01*
X154870632Y-133741475D01*
X155077475Y-133534632D01*
X155194000Y-133360240D01*
X155310525Y-133534632D01*
X155517368Y-133741475D01*
X155760589Y-133903990D01*
X156030842Y-134015932D01*
X156317740Y-134073000D01*
X156610260Y-134073000D01*
X156897158Y-134015932D01*
X157167411Y-133903990D01*
X157410632Y-133741475D01*
X157617475Y-133534632D01*
X157739195Y-133352466D01*
X157808822Y-133469355D01*
X158003731Y-133685588D01*
X158237080Y-133859641D01*
X158499901Y-133984825D01*
X158647110Y-134029476D01*
X158877000Y-133908155D01*
X158877000Y-132715000D01*
X159131000Y-132715000D01*
X159131000Y-133908155D01*
X159360890Y-134029476D01*
X159508099Y-133984825D01*
X159770920Y-133859641D01*
X160004269Y-133685588D01*
X160199178Y-133469355D01*
X160348157Y-133219252D01*
X160445481Y-132944891D01*
X160324814Y-132715000D01*
X159131000Y-132715000D01*
X158877000Y-132715000D01*
X158857000Y-132715000D01*
X158857000Y-132461000D01*
X158877000Y-132461000D01*
X158877000Y-130175000D01*
X159131000Y-130175000D01*
X159131000Y-132461000D01*
X160324814Y-132461000D01*
X160445481Y-132231109D01*
X160348157Y-131956748D01*
X160199178Y-131706645D01*
X160004269Y-131490412D01*
X159773120Y-131318000D01*
X160004269Y-131145588D01*
X160199178Y-130929355D01*
X160348157Y-130679252D01*
X160445481Y-130404891D01*
X160324814Y-130175000D01*
X159131000Y-130175000D01*
X158877000Y-130175000D01*
X158857000Y-130175000D01*
X158857000Y-129921000D01*
X158877000Y-129921000D01*
X158877000Y-128727845D01*
X159131000Y-128727845D01*
X159131000Y-129921000D01*
X160324814Y-129921000D01*
X160445481Y-129691109D01*
X160348157Y-129416748D01*
X160199178Y-129166645D01*
X160004269Y-128950412D01*
X159770920Y-128776359D01*
X159508099Y-128651175D01*
X159360890Y-128606524D01*
X159131000Y-128727845D01*
X158877000Y-128727845D01*
X158647110Y-128606524D01*
X158499901Y-128651175D01*
X158237080Y-128776359D01*
X158003731Y-128950412D01*
X157808822Y-129166645D01*
X157739195Y-129283534D01*
X157617475Y-129101368D01*
X157410632Y-128894525D01*
X157167411Y-128732010D01*
X156897158Y-128620068D01*
X156610260Y-128563000D01*
X156317740Y-128563000D01*
X156030842Y-128620068D01*
X155760589Y-128732010D01*
X155517368Y-128894525D01*
X155310525Y-129101368D01*
X155194000Y-129275760D01*
X155077475Y-129101368D01*
X154870632Y-128894525D01*
X154627411Y-128732010D01*
X154357158Y-128620068D01*
X154070260Y-128563000D01*
X153777740Y-128563000D01*
X153490842Y-128620068D01*
X153220589Y-128732010D01*
X152977368Y-128894525D01*
X152770525Y-129101368D01*
X152654000Y-129275760D01*
X152537475Y-129101368D01*
X152336454Y-128900347D01*
X152863911Y-128372890D01*
X173056524Y-128372890D01*
X173101175Y-128520099D01*
X173226359Y-128782920D01*
X173400412Y-129016269D01*
X173616645Y-129211178D01*
X173866748Y-129360157D01*
X174141109Y-129457481D01*
X174371000Y-129336814D01*
X174371000Y-128143000D01*
X174625000Y-128143000D01*
X174625000Y-129336814D01*
X174854891Y-129457481D01*
X175129252Y-129360157D01*
X175379355Y-129211178D01*
X175595588Y-129016269D01*
X175768000Y-128785120D01*
X175940412Y-129016269D01*
X176156645Y-129211178D01*
X176406748Y-129360157D01*
X176681109Y-129457481D01*
X176911000Y-129336814D01*
X176911000Y-128143000D01*
X177165000Y-128143000D01*
X177165000Y-129336814D01*
X177394891Y-129457481D01*
X177669252Y-129360157D01*
X177919355Y-129211178D01*
X178135588Y-129016269D01*
X178309641Y-128782920D01*
X178434825Y-128520099D01*
X178479476Y-128372890D01*
X178358155Y-128143000D01*
X177165000Y-128143000D01*
X176911000Y-128143000D01*
X174625000Y-128143000D01*
X174371000Y-128143000D01*
X173177845Y-128143000D01*
X173056524Y-128372890D01*
X152863911Y-128372890D01*
X156140114Y-125096688D01*
X156322665Y-125133000D01*
X156605335Y-125133000D01*
X156882574Y-125077853D01*
X157143727Y-124969680D01*
X157378759Y-124812637D01*
X157578637Y-124612759D01*
X157734000Y-124380241D01*
X157889363Y-124612759D01*
X158089241Y-124812637D01*
X158324273Y-124969680D01*
X158585426Y-125077853D01*
X158862665Y-125133000D01*
X159145335Y-125133000D01*
X159422574Y-125077853D01*
X159683727Y-124969680D01*
X159918759Y-124812637D01*
X160118637Y-124612759D01*
X160274000Y-124380241D01*
X160429363Y-124612759D01*
X160629241Y-124812637D01*
X160864273Y-124969680D01*
X161125426Y-125077853D01*
X161402665Y-125133000D01*
X161685335Y-125133000D01*
X161962574Y-125077853D01*
X162223727Y-124969680D01*
X162458759Y-124812637D01*
X162658637Y-124612759D01*
X162814000Y-124380241D01*
X162969363Y-124612759D01*
X163169241Y-124812637D01*
X163404273Y-124969680D01*
X163665426Y-125077853D01*
X163942665Y-125133000D01*
X164225335Y-125133000D01*
X164502574Y-125077853D01*
X164763727Y-124969680D01*
X164998759Y-124812637D01*
X165198637Y-124612759D01*
X165354000Y-124380241D01*
X165509363Y-124612759D01*
X165709241Y-124812637D01*
X165944273Y-124969680D01*
X166205426Y-125077853D01*
X166482665Y-125133000D01*
X166765335Y-125133000D01*
X166947886Y-125096688D01*
X167203200Y-125352002D01*
X167226999Y-125381001D01*
X167255997Y-125404799D01*
X167342723Y-125475974D01*
X167442810Y-125529472D01*
X167474753Y-125546546D01*
X167618014Y-125590003D01*
X167729667Y-125601000D01*
X167729676Y-125601000D01*
X167766999Y-125604676D01*
X167804322Y-125601000D01*
X173013000Y-125601000D01*
X173013000Y-125622260D01*
X173070068Y-125909158D01*
X173182010Y-126179411D01*
X173344525Y-126422632D01*
X173551368Y-126629475D01*
X173733534Y-126751195D01*
X173616645Y-126820822D01*
X173400412Y-127015731D01*
X173226359Y-127249080D01*
X173101175Y-127511901D01*
X173056524Y-127659110D01*
X173177845Y-127889000D01*
X174371000Y-127889000D01*
X174371000Y-127869000D01*
X174625000Y-127869000D01*
X174625000Y-127889000D01*
X176911000Y-127889000D01*
X176911000Y-127869000D01*
X177165000Y-127869000D01*
X177165000Y-127889000D01*
X178358155Y-127889000D01*
X178479476Y-127659110D01*
X178434825Y-127511901D01*
X178309641Y-127249080D01*
X178135588Y-127015731D01*
X177919355Y-126820822D01*
X177802466Y-126751195D01*
X177984632Y-126629475D01*
X178191475Y-126422632D01*
X178353990Y-126179411D01*
X178465932Y-125909158D01*
X178523000Y-125622260D01*
X178523000Y-125329740D01*
X178465932Y-125042842D01*
X178353990Y-124772589D01*
X178191475Y-124529368D01*
X177984632Y-124322525D01*
X177810240Y-124206000D01*
X177984632Y-124089475D01*
X178191475Y-123882632D01*
X178353990Y-123639411D01*
X178465932Y-123369158D01*
X178523000Y-123082260D01*
X178523000Y-122789740D01*
X178465932Y-122502842D01*
X178353990Y-122232589D01*
X178191475Y-121989368D01*
X177984632Y-121782525D01*
X177810240Y-121666000D01*
X177984632Y-121549475D01*
X178191475Y-121342632D01*
X178353990Y-121099411D01*
X178465932Y-120829158D01*
X178523000Y-120542260D01*
X178523000Y-120249740D01*
X178465932Y-119962842D01*
X178353990Y-119692589D01*
X178191475Y-119449368D01*
X177984632Y-119242525D01*
X177810240Y-119126000D01*
X177984632Y-119009475D01*
X178191475Y-118802632D01*
X178353990Y-118559411D01*
X178465932Y-118289158D01*
X178523000Y-118002260D01*
X178523000Y-117709740D01*
X178465932Y-117422842D01*
X178353990Y-117152589D01*
X178191475Y-116909368D01*
X177984632Y-116702525D01*
X177810240Y-116586000D01*
X177984632Y-116469475D01*
X178191475Y-116262632D01*
X178353990Y-116019411D01*
X178465932Y-115749158D01*
X178523000Y-115462260D01*
X178523000Y-115169740D01*
X178465932Y-114882842D01*
X178353990Y-114612589D01*
X178191475Y-114369368D01*
X177984632Y-114162525D01*
X177810240Y-114046000D01*
X177984632Y-113929475D01*
X178191475Y-113722632D01*
X178353990Y-113479411D01*
X178465932Y-113209158D01*
X178523000Y-112922260D01*
X178523000Y-112629740D01*
X178465932Y-112342842D01*
X178353990Y-112072589D01*
X178191475Y-111829368D01*
X177984632Y-111622525D01*
X177810240Y-111506000D01*
X177984632Y-111389475D01*
X178191475Y-111182632D01*
X178353990Y-110939411D01*
X178465932Y-110669158D01*
X178523000Y-110382260D01*
X178523000Y-110089740D01*
X178465932Y-109802842D01*
X178353990Y-109532589D01*
X178191475Y-109289368D01*
X177984632Y-109082525D01*
X177810240Y-108966000D01*
X177984632Y-108849475D01*
X178191475Y-108642632D01*
X178353990Y-108399411D01*
X178465932Y-108129158D01*
X178523000Y-107842260D01*
X178523000Y-107549740D01*
X178465932Y-107262842D01*
X178353990Y-106992589D01*
X178191475Y-106749368D01*
X177984632Y-106542525D01*
X177810240Y-106426000D01*
X177984632Y-106309475D01*
X178191475Y-106102632D01*
X178353990Y-105859411D01*
X178465932Y-105589158D01*
X178523000Y-105302260D01*
X178523000Y-105009740D01*
X178465932Y-104722842D01*
X178353990Y-104452589D01*
X178191475Y-104209368D01*
X177984632Y-104002525D01*
X177810240Y-103886000D01*
X177984632Y-103769475D01*
X178191475Y-103562632D01*
X178353990Y-103319411D01*
X178465932Y-103049158D01*
X178523000Y-102762260D01*
X178523000Y-102469740D01*
X178465932Y-102182842D01*
X178353990Y-101912589D01*
X178191475Y-101669368D01*
X177984632Y-101462525D01*
X177810240Y-101346000D01*
X177984632Y-101229475D01*
X178191475Y-101022632D01*
X178353990Y-100779411D01*
X178465932Y-100509158D01*
X178523000Y-100222260D01*
X178523000Y-99929740D01*
X178465932Y-99642842D01*
X178353990Y-99372589D01*
X178191475Y-99129368D01*
X177984632Y-98922525D01*
X177741411Y-98760010D01*
X177471158Y-98648068D01*
X177184260Y-98591000D01*
X176891740Y-98591000D01*
X176604842Y-98648068D01*
X176334589Y-98760010D01*
X176091368Y-98922525D01*
X175959513Y-99054380D01*
X175937502Y-98981820D01*
X175878537Y-98871506D01*
X175799185Y-98774815D01*
X175702494Y-98695463D01*
X175592180Y-98636498D01*
X175472482Y-98600188D01*
X175348000Y-98587928D01*
X173648000Y-98587928D01*
X173523518Y-98600188D01*
X173403820Y-98636498D01*
X173293506Y-98695463D01*
X173196815Y-98774815D01*
X173117463Y-98871506D01*
X173058498Y-98981820D01*
X173022188Y-99101518D01*
X173009928Y-99226000D01*
X173009928Y-100926000D01*
X173022188Y-101050482D01*
X173058498Y-101170180D01*
X173117463Y-101280494D01*
X173196815Y-101377185D01*
X173293506Y-101456537D01*
X173403820Y-101515502D01*
X173476380Y-101537513D01*
X173344525Y-101669368D01*
X173182010Y-101912589D01*
X173070068Y-102182842D01*
X173013000Y-102469740D01*
X173013000Y-102762260D01*
X173056790Y-102982408D01*
X172139988Y-103899211D01*
X172110990Y-103923009D01*
X172087192Y-103952007D01*
X172087191Y-103952008D01*
X172016016Y-104038734D01*
X171945444Y-104170764D01*
X171901988Y-104314025D01*
X171887314Y-104463010D01*
X171890991Y-104500342D01*
X171890990Y-107069207D01*
X170599000Y-108361198D01*
X170599000Y-108330998D01*
X170440252Y-108330998D01*
X170599000Y-108172250D01*
X170602072Y-107658000D01*
X170589812Y-107533518D01*
X170553502Y-107413820D01*
X170494537Y-107303506D01*
X170415185Y-107206815D01*
X170318494Y-107127463D01*
X170208180Y-107068498D01*
X170088482Y-107032188D01*
X169964000Y-107019928D01*
X169449750Y-107023000D01*
X169291000Y-107181750D01*
X169291000Y-108331000D01*
X169311000Y-108331000D01*
X169311000Y-108585000D01*
X169291000Y-108585000D01*
X169291000Y-108605000D01*
X169037000Y-108605000D01*
X169037000Y-108585000D01*
X169017000Y-108585000D01*
X169017000Y-108331000D01*
X169037000Y-108331000D01*
X169037000Y-107181750D01*
X168878250Y-107023000D01*
X168364000Y-107019928D01*
X168239518Y-107032188D01*
X168119820Y-107068498D01*
X168009506Y-107127463D01*
X167912815Y-107206815D01*
X167833463Y-107303506D01*
X167774498Y-107413820D01*
X167738188Y-107533518D01*
X167737357Y-107541961D01*
X167538759Y-107343363D01*
X167303727Y-107186320D01*
X167042574Y-107078147D01*
X166765335Y-107023000D01*
X166482665Y-107023000D01*
X166205426Y-107078147D01*
X165944273Y-107186320D01*
X165709241Y-107343363D01*
X165509363Y-107543241D01*
X165354000Y-107775759D01*
X165198637Y-107543241D01*
X164998759Y-107343363D01*
X164763727Y-107186320D01*
X164502574Y-107078147D01*
X164225335Y-107023000D01*
X163942665Y-107023000D01*
X163665426Y-107078147D01*
X163404273Y-107186320D01*
X163169241Y-107343363D01*
X162969363Y-107543241D01*
X162814000Y-107775759D01*
X162658637Y-107543241D01*
X162458759Y-107343363D01*
X162223727Y-107186320D01*
X161962574Y-107078147D01*
X161685335Y-107023000D01*
X161402665Y-107023000D01*
X161125426Y-107078147D01*
X160864273Y-107186320D01*
X160629241Y-107343363D01*
X160429363Y-107543241D01*
X160274000Y-107775759D01*
X160118637Y-107543241D01*
X159918759Y-107343363D01*
X159683727Y-107186320D01*
X159422574Y-107078147D01*
X159145335Y-107023000D01*
X158862665Y-107023000D01*
X158585426Y-107078147D01*
X158324273Y-107186320D01*
X158089241Y-107343363D01*
X157889363Y-107543241D01*
X157734000Y-107775759D01*
X157578637Y-107543241D01*
X157378759Y-107343363D01*
X157143727Y-107186320D01*
X156882574Y-107078147D01*
X156605335Y-107023000D01*
X156322665Y-107023000D01*
X156045426Y-107078147D01*
X155784273Y-107186320D01*
X155549241Y-107343363D01*
X155349363Y-107543241D01*
X155194000Y-107775759D01*
X155038637Y-107543241D01*
X154838759Y-107343363D01*
X154603727Y-107186320D01*
X154342574Y-107078147D01*
X154065335Y-107023000D01*
X153782665Y-107023000D01*
X153505426Y-107078147D01*
X153244273Y-107186320D01*
X153009241Y-107343363D01*
X152809363Y-107543241D01*
X152654000Y-107775759D01*
X152498637Y-107543241D01*
X152298759Y-107343363D01*
X152063727Y-107186320D01*
X151802574Y-107078147D01*
X151525335Y-107023000D01*
X151242665Y-107023000D01*
X150965426Y-107078147D01*
X150704273Y-107186320D01*
X150469241Y-107343363D01*
X150269363Y-107543241D01*
X150114000Y-107775759D01*
X149958637Y-107543241D01*
X149758759Y-107343363D01*
X149523727Y-107186320D01*
X149262574Y-107078147D01*
X148985335Y-107023000D01*
X148702665Y-107023000D01*
X148425426Y-107078147D01*
X148164273Y-107186320D01*
X147929241Y-107343363D01*
X147729363Y-107543241D01*
X147574000Y-107775759D01*
X147418637Y-107543241D01*
X147218759Y-107343363D01*
X146983727Y-107186320D01*
X146722574Y-107078147D01*
X146445335Y-107023000D01*
X146162665Y-107023000D01*
X145885426Y-107078147D01*
X145624273Y-107186320D01*
X145389241Y-107343363D01*
X145189363Y-107543241D01*
X145034000Y-107775759D01*
X144878637Y-107543241D01*
X144678759Y-107343363D01*
X144443727Y-107186320D01*
X144182574Y-107078147D01*
X143905335Y-107023000D01*
X143622665Y-107023000D01*
X143345426Y-107078147D01*
X143084273Y-107186320D01*
X142849241Y-107343363D01*
X142649363Y-107543241D01*
X142494000Y-107775759D01*
X142338637Y-107543241D01*
X142138759Y-107343363D01*
X141903727Y-107186320D01*
X141642574Y-107078147D01*
X141365335Y-107023000D01*
X141082665Y-107023000D01*
X140805426Y-107078147D01*
X140544273Y-107186320D01*
X140309241Y-107343363D01*
X140109363Y-107543241D01*
X139954000Y-107775759D01*
X139798637Y-107543241D01*
X139598759Y-107343363D01*
X139363727Y-107186320D01*
X139102574Y-107078147D01*
X138825335Y-107023000D01*
X138542665Y-107023000D01*
X138265426Y-107078147D01*
X138004273Y-107186320D01*
X137769241Y-107343363D01*
X137569363Y-107543241D01*
X137414000Y-107775759D01*
X137258637Y-107543241D01*
X137058759Y-107343363D01*
X136823727Y-107186320D01*
X136562574Y-107078147D01*
X136285335Y-107023000D01*
X136002665Y-107023000D01*
X135725426Y-107078147D01*
X135464273Y-107186320D01*
X135229241Y-107343363D01*
X135029363Y-107543241D01*
X134874000Y-107775759D01*
X134718637Y-107543241D01*
X134518759Y-107343363D01*
X134283727Y-107186320D01*
X134022574Y-107078147D01*
X133745335Y-107023000D01*
X133462665Y-107023000D01*
X133185426Y-107078147D01*
X132924273Y-107186320D01*
X132689241Y-107343363D01*
X132489363Y-107543241D01*
X132334000Y-107775759D01*
X132178637Y-107543241D01*
X131978759Y-107343363D01*
X131743727Y-107186320D01*
X131482574Y-107078147D01*
X131205335Y-107023000D01*
X130922665Y-107023000D01*
X130645426Y-107078147D01*
X130384273Y-107186320D01*
X130149241Y-107343363D01*
X129949363Y-107543241D01*
X129794000Y-107775759D01*
X129638637Y-107543241D01*
X129438759Y-107343363D01*
X129203727Y-107186320D01*
X128942574Y-107078147D01*
X128665335Y-107023000D01*
X128382665Y-107023000D01*
X128105426Y-107078147D01*
X127844273Y-107186320D01*
X127609241Y-107343363D01*
X127409363Y-107543241D01*
X127254000Y-107775759D01*
X127098637Y-107543241D01*
X126898759Y-107343363D01*
X126663727Y-107186320D01*
X126402574Y-107078147D01*
X126125335Y-107023000D01*
X125842665Y-107023000D01*
X125565426Y-107078147D01*
X125304273Y-107186320D01*
X125069241Y-107343363D01*
X124869363Y-107543241D01*
X124714000Y-107775759D01*
X124558637Y-107543241D01*
X124358759Y-107343363D01*
X124123727Y-107186320D01*
X123862574Y-107078147D01*
X123585335Y-107023000D01*
X123302665Y-107023000D01*
X123025426Y-107078147D01*
X122764273Y-107186320D01*
X122529241Y-107343363D01*
X122329363Y-107543241D01*
X122174000Y-107775759D01*
X122018637Y-107543241D01*
X121818759Y-107343363D01*
X121583727Y-107186320D01*
X121322574Y-107078147D01*
X121045335Y-107023000D01*
X120762665Y-107023000D01*
X120485426Y-107078147D01*
X120224273Y-107186320D01*
X119989241Y-107343363D01*
X119789363Y-107543241D01*
X119632320Y-107778273D01*
X119524147Y-108039426D01*
X119469000Y-108316665D01*
X119469000Y-108599335D01*
X119524147Y-108876574D01*
X119632320Y-109137727D01*
X119789363Y-109372759D01*
X119989241Y-109572637D01*
X120224273Y-109729680D01*
X120485426Y-109837853D01*
X120762665Y-109893000D01*
X121045335Y-109893000D01*
X121322574Y-109837853D01*
X121583727Y-109729680D01*
X121818759Y-109572637D01*
X122018637Y-109372759D01*
X122174000Y-109140241D01*
X122329363Y-109372759D01*
X122529241Y-109572637D01*
X122764273Y-109729680D01*
X123025426Y-109837853D01*
X123302665Y-109893000D01*
X123585335Y-109893000D01*
X123862574Y-109837853D01*
X124123727Y-109729680D01*
X124358759Y-109572637D01*
X124558637Y-109372759D01*
X124714000Y-109140241D01*
X124869363Y-109372759D01*
X125069241Y-109572637D01*
X125304273Y-109729680D01*
X125565426Y-109837853D01*
X125842665Y-109893000D01*
X126125335Y-109893000D01*
X126402574Y-109837853D01*
X126663727Y-109729680D01*
X126898759Y-109572637D01*
X127098637Y-109372759D01*
X127254000Y-109140241D01*
X127409363Y-109372759D01*
X127609241Y-109572637D01*
X127844273Y-109729680D01*
X128105426Y-109837853D01*
X128382665Y-109893000D01*
X128665335Y-109893000D01*
X128942574Y-109837853D01*
X129203727Y-109729680D01*
X129438759Y-109572637D01*
X129638637Y-109372759D01*
X129794000Y-109140241D01*
X129949363Y-109372759D01*
X130149241Y-109572637D01*
X130384273Y-109729680D01*
X130645426Y-109837853D01*
X130922665Y-109893000D01*
X131205335Y-109893000D01*
X131482574Y-109837853D01*
X131743727Y-109729680D01*
X131978759Y-109572637D01*
X132178637Y-109372759D01*
X132334000Y-109140241D01*
X132489363Y-109372759D01*
X132689241Y-109572637D01*
X132924273Y-109729680D01*
X133185426Y-109837853D01*
X133462665Y-109893000D01*
X133745335Y-109893000D01*
X134022574Y-109837853D01*
X134283727Y-109729680D01*
X134518759Y-109572637D01*
X134718637Y-109372759D01*
X134874000Y-109140241D01*
X135029363Y-109372759D01*
X135229241Y-109572637D01*
X135464273Y-109729680D01*
X135725426Y-109837853D01*
X136002665Y-109893000D01*
X136285335Y-109893000D01*
X136562574Y-109837853D01*
X136823727Y-109729680D01*
X137058759Y-109572637D01*
X137258637Y-109372759D01*
X137414000Y-109140241D01*
X137569363Y-109372759D01*
X137769241Y-109572637D01*
X138004273Y-109729680D01*
X138265426Y-109837853D01*
X138542665Y-109893000D01*
X138825335Y-109893000D01*
X139102574Y-109837853D01*
X139363727Y-109729680D01*
X139598759Y-109572637D01*
X139798637Y-109372759D01*
X139954000Y-109140241D01*
X140109363Y-109372759D01*
X140309241Y-109572637D01*
X140544273Y-109729680D01*
X140805426Y-109837853D01*
X141082665Y-109893000D01*
X141365335Y-109893000D01*
X141642574Y-109837853D01*
X141903727Y-109729680D01*
X142138759Y-109572637D01*
X142338637Y-109372759D01*
X142494000Y-109140241D01*
X142649363Y-109372759D01*
X142849241Y-109572637D01*
X143084273Y-109729680D01*
X143345426Y-109837853D01*
X143622665Y-109893000D01*
X143905335Y-109893000D01*
X144182574Y-109837853D01*
X144443727Y-109729680D01*
X144678759Y-109572637D01*
X144878637Y-109372759D01*
X145034000Y-109140241D01*
X145189363Y-109372759D01*
X145389241Y-109572637D01*
X145624273Y-109729680D01*
X145885426Y-109837853D01*
X146162665Y-109893000D01*
X146445335Y-109893000D01*
X146722574Y-109837853D01*
X146983727Y-109729680D01*
X147218759Y-109572637D01*
X147418637Y-109372759D01*
X147574000Y-109140241D01*
X147729363Y-109372759D01*
X147929241Y-109572637D01*
X148164273Y-109729680D01*
X148425426Y-109837853D01*
X148702665Y-109893000D01*
X148985335Y-109893000D01*
X149167887Y-109856688D01*
X160218201Y-120907003D01*
X160241999Y-120936001D01*
X160270997Y-120959799D01*
X160357724Y-121030974D01*
X160489753Y-121101546D01*
X160633014Y-121145003D01*
X160782000Y-121159677D01*
X160819333Y-121156000D01*
X173219822Y-121156000D01*
X173344525Y-121342632D01*
X173551368Y-121549475D01*
X173725760Y-121666000D01*
X173551368Y-121782525D01*
X173344525Y-121989368D01*
X173219822Y-122176000D01*
X169963325Y-122176000D01*
X169926000Y-122172324D01*
X169888675Y-122176000D01*
X169888667Y-122176000D01*
X169777014Y-122186997D01*
X169633753Y-122230454D01*
X169501724Y-122301026D01*
X169500705Y-122301862D01*
X169305335Y-122263000D01*
X169022665Y-122263000D01*
X168745426Y-122318147D01*
X168484273Y-122426320D01*
X168249241Y-122583363D01*
X168049363Y-122783241D01*
X167894000Y-123015759D01*
X167738637Y-122783241D01*
X167538759Y-122583363D01*
X167303727Y-122426320D01*
X167042574Y-122318147D01*
X166765335Y-122263000D01*
X166482665Y-122263000D01*
X166205426Y-122318147D01*
X165944273Y-122426320D01*
X165709241Y-122583363D01*
X165509363Y-122783241D01*
X165354000Y-123015759D01*
X165198637Y-122783241D01*
X164998759Y-122583363D01*
X164763727Y-122426320D01*
X164502574Y-122318147D01*
X164225335Y-122263000D01*
X163942665Y-122263000D01*
X163665426Y-122318147D01*
X163404273Y-122426320D01*
X163169241Y-122583363D01*
X162969363Y-122783241D01*
X162814000Y-123015759D01*
X162658637Y-122783241D01*
X162458759Y-122583363D01*
X162223727Y-122426320D01*
X161962574Y-122318147D01*
X161685335Y-122263000D01*
X161402665Y-122263000D01*
X161125426Y-122318147D01*
X160864273Y-122426320D01*
X160629241Y-122583363D01*
X160429363Y-122783241D01*
X160274000Y-123015759D01*
X160118637Y-122783241D01*
X159918759Y-122583363D01*
X159683727Y-122426320D01*
X159422574Y-122318147D01*
X159145335Y-122263000D01*
X158862665Y-122263000D01*
X158585426Y-122318147D01*
X158324273Y-122426320D01*
X158089241Y-122583363D01*
X157889363Y-122783241D01*
X157734000Y-123015759D01*
X157578637Y-122783241D01*
X157378759Y-122583363D01*
X157143727Y-122426320D01*
X156882574Y-122318147D01*
X156605335Y-122263000D01*
X156322665Y-122263000D01*
X156045426Y-122318147D01*
X155784273Y-122426320D01*
X155549241Y-122583363D01*
X155349363Y-122783241D01*
X155194000Y-123015759D01*
X155038637Y-122783241D01*
X154838759Y-122583363D01*
X154603727Y-122426320D01*
X154342574Y-122318147D01*
X154065335Y-122263000D01*
X153782665Y-122263000D01*
X153505426Y-122318147D01*
X153244273Y-122426320D01*
X153009241Y-122583363D01*
X152809363Y-122783241D01*
X152654000Y-123015759D01*
X152498637Y-122783241D01*
X152298759Y-122583363D01*
X152063727Y-122426320D01*
X151802574Y-122318147D01*
X151525335Y-122263000D01*
X151242665Y-122263000D01*
X150965426Y-122318147D01*
X150704273Y-122426320D01*
X150469241Y-122583363D01*
X150269363Y-122783241D01*
X150114000Y-123015759D01*
X149958637Y-122783241D01*
X149758759Y-122583363D01*
X149523727Y-122426320D01*
X149262574Y-122318147D01*
X148985335Y-122263000D01*
X148702665Y-122263000D01*
X148425426Y-122318147D01*
X148164273Y-122426320D01*
X147929241Y-122583363D01*
X147729363Y-122783241D01*
X147574000Y-123015759D01*
X147418637Y-122783241D01*
X147218759Y-122583363D01*
X146983727Y-122426320D01*
X146722574Y-122318147D01*
X146445335Y-122263000D01*
X146162665Y-122263000D01*
X145885426Y-122318147D01*
X145624273Y-122426320D01*
X145389241Y-122583363D01*
X145189363Y-122783241D01*
X145034000Y-123015759D01*
X144878637Y-122783241D01*
X144678759Y-122583363D01*
X144443727Y-122426320D01*
X144182574Y-122318147D01*
X143905335Y-122263000D01*
X143622665Y-122263000D01*
X143345426Y-122318147D01*
X143084273Y-122426320D01*
X143023038Y-122467236D01*
X142167793Y-121611991D01*
X142143990Y-121582988D01*
X142028265Y-121488015D01*
X141896236Y-121417443D01*
X141752975Y-121373986D01*
X141641322Y-121362989D01*
X141641311Y-121362989D01*
X141603989Y-121359313D01*
X141566667Y-121362989D01*
X132676334Y-121362989D01*
X132639011Y-121359313D01*
X132601688Y-121362989D01*
X132601678Y-121362989D01*
X132490025Y-121373986D01*
X132346764Y-121417443D01*
X132214734Y-121488015D01*
X132139846Y-121549475D01*
X132099010Y-121582988D01*
X132075212Y-121611986D01*
X131387886Y-122299312D01*
X131205335Y-122263000D01*
X130922665Y-122263000D01*
X130645426Y-122318147D01*
X130384273Y-122426320D01*
X130149241Y-122583363D01*
X129949363Y-122783241D01*
X129794000Y-123015759D01*
X129638637Y-122783241D01*
X129438759Y-122583363D01*
X129203727Y-122426320D01*
X128942574Y-122318147D01*
X128665335Y-122263000D01*
X128382665Y-122263000D01*
X128347561Y-122269983D01*
X125961504Y-119883926D01*
X125933787Y-119850153D01*
X125799029Y-119739559D01*
X125645283Y-119657381D01*
X125478460Y-119606775D01*
X125348447Y-119593970D01*
X125348439Y-119593970D01*
X125304970Y-119589689D01*
X125261501Y-119593970D01*
X121442446Y-119593970D01*
X121394248Y-119561765D01*
X121205890Y-119483744D01*
X121005931Y-119443970D01*
X120802053Y-119443970D01*
X120602094Y-119483744D01*
X120413736Y-119561765D01*
X120244218Y-119675033D01*
X120100055Y-119819196D01*
X119986787Y-119988714D01*
X119908766Y-120177072D01*
X119868992Y-120377031D01*
X119868992Y-120580909D01*
X119908766Y-120780868D01*
X119986787Y-120969226D01*
X120100055Y-121138744D01*
X120244218Y-121282907D01*
X120413736Y-121396175D01*
X120602094Y-121474196D01*
X120802053Y-121513970D01*
X121005931Y-121513970D01*
X121205890Y-121474196D01*
X121394248Y-121396175D01*
X121442446Y-121363970D01*
X124938392Y-121363970D01*
X125838292Y-122263870D01*
X125565426Y-122318147D01*
X125304273Y-122426320D01*
X125069241Y-122583363D01*
X124869363Y-122783241D01*
X124714000Y-123015759D01*
X124558637Y-122783241D01*
X124358759Y-122583363D01*
X124123727Y-122426320D01*
X123862574Y-122318147D01*
X123585335Y-122263000D01*
X123302665Y-122263000D01*
X123025426Y-122318147D01*
X122764273Y-122426320D01*
X122529241Y-122583363D01*
X122329363Y-122783241D01*
X122174000Y-123015759D01*
X122018637Y-122783241D01*
X121818759Y-122583363D01*
X121583727Y-122426320D01*
X121322574Y-122318147D01*
X121045335Y-122263000D01*
X120762665Y-122263000D01*
X120485426Y-122318147D01*
X120224273Y-122426320D01*
X119989241Y-122583363D01*
X119789363Y-122783241D01*
X119632320Y-123018273D01*
X119524147Y-123279426D01*
X119469000Y-123556665D01*
X119469000Y-123839335D01*
X119524147Y-124116574D01*
X119632320Y-124377727D01*
X119789363Y-124612759D01*
X119989241Y-124812637D01*
X120224273Y-124969680D01*
X120485426Y-125077853D01*
X120762665Y-125133000D01*
X121045335Y-125133000D01*
X121227886Y-125096688D01*
X122472698Y-126341500D01*
X122496497Y-126370499D01*
X122525495Y-126394297D01*
X122612222Y-126465472D01*
X122744251Y-126536044D01*
X122887512Y-126579501D01*
X123036498Y-126594175D01*
X123073831Y-126590498D01*
X124959654Y-126590498D01*
X124949000Y-126644061D01*
X124949000Y-126847939D01*
X124988774Y-127047898D01*
X125066795Y-127236256D01*
X125121084Y-127317506D01*
X125066803Y-127398744D01*
X124988782Y-127587102D01*
X124949008Y-127787061D01*
X124949008Y-127990939D01*
X124988782Y-128190898D01*
X125066803Y-128379256D01*
X125180071Y-128548774D01*
X125324234Y-128692937D01*
X125343631Y-128705897D01*
X125280589Y-128732010D01*
X125037368Y-128894525D01*
X124830525Y-129101368D01*
X124708805Y-129283534D01*
X124639178Y-129166645D01*
X124444269Y-128950412D01*
X124210920Y-128776359D01*
X123948099Y-128651175D01*
X123800890Y-128606524D01*
X123571000Y-128727845D01*
X123571000Y-129921000D01*
X123591000Y-129921000D01*
X123591000Y-130175000D01*
X123571000Y-130175000D01*
X123571000Y-132461000D01*
X123591000Y-132461000D01*
X123591000Y-132715000D01*
X123571000Y-132715000D01*
X123571000Y-133908155D01*
X123800890Y-134029476D01*
X123948099Y-133984825D01*
X124210920Y-133859641D01*
X124444269Y-133685588D01*
X124639178Y-133469355D01*
X124708805Y-133352466D01*
X124830525Y-133534632D01*
X125037368Y-133741475D01*
X125280589Y-133903990D01*
X125550842Y-134015932D01*
X125837740Y-134073000D01*
X126130260Y-134073000D01*
X126417158Y-134015932D01*
X126687411Y-133903990D01*
X126930632Y-133741475D01*
X127137475Y-133534632D01*
X127254000Y-133360240D01*
X127370525Y-133534632D01*
X127577368Y-133741475D01*
X127820589Y-133903990D01*
X128090842Y-134015932D01*
X128377740Y-134073000D01*
X128670260Y-134073000D01*
X128957158Y-134015932D01*
X129227411Y-133903990D01*
X129470632Y-133741475D01*
X129677475Y-133534632D01*
X129794000Y-133360240D01*
X129910525Y-133534632D01*
X130117368Y-133741475D01*
X130360589Y-133903990D01*
X130630842Y-134015932D01*
X130917740Y-134073000D01*
X131210260Y-134073000D01*
X131497158Y-134015932D01*
X131767411Y-133903990D01*
X131869115Y-133836034D01*
X131886503Y-133850304D01*
X132733198Y-134697000D01*
X113377353Y-134697000D01*
X113283044Y-134706289D01*
X113145124Y-134692766D01*
X112889376Y-134615551D01*
X112653496Y-134490131D01*
X112446475Y-134321289D01*
X112276187Y-134115446D01*
X112149121Y-133880444D01*
X112070123Y-133625240D01*
X112054678Y-133478291D01*
X112064000Y-133383647D01*
X112064000Y-129198000D01*
X119415928Y-129198000D01*
X119415928Y-130898000D01*
X119428188Y-131022482D01*
X119464498Y-131142180D01*
X119523463Y-131252494D01*
X119602815Y-131349185D01*
X119699506Y-131428537D01*
X119809820Y-131487502D01*
X119882380Y-131509513D01*
X119750525Y-131641368D01*
X119588010Y-131884589D01*
X119476068Y-132154842D01*
X119419000Y-132441740D01*
X119419000Y-132734260D01*
X119476068Y-133021158D01*
X119588010Y-133291411D01*
X119750525Y-133534632D01*
X119957368Y-133741475D01*
X120200589Y-133903990D01*
X120470842Y-134015932D01*
X120757740Y-134073000D01*
X121050260Y-134073000D01*
X121337158Y-134015932D01*
X121607411Y-133903990D01*
X121850632Y-133741475D01*
X122057475Y-133534632D01*
X122179195Y-133352466D01*
X122248822Y-133469355D01*
X122443731Y-133685588D01*
X122677080Y-133859641D01*
X122939901Y-133984825D01*
X123087110Y-134029476D01*
X123317000Y-133908155D01*
X123317000Y-132715000D01*
X123297000Y-132715000D01*
X123297000Y-132461000D01*
X123317000Y-132461000D01*
X123317000Y-130175000D01*
X123297000Y-130175000D01*
X123297000Y-129921000D01*
X123317000Y-129921000D01*
X123317000Y-128727845D01*
X123087110Y-128606524D01*
X122939901Y-128651175D01*
X122677080Y-128776359D01*
X122443731Y-128950412D01*
X122367966Y-129034466D01*
X122343502Y-128953820D01*
X122284537Y-128843506D01*
X122205185Y-128746815D01*
X122108494Y-128667463D01*
X121998180Y-128608498D01*
X121878482Y-128572188D01*
X121754000Y-128559928D01*
X120054000Y-128559928D01*
X119929518Y-128572188D01*
X119809820Y-128608498D01*
X119699506Y-128667463D01*
X119602815Y-128746815D01*
X119523463Y-128843506D01*
X119464498Y-128953820D01*
X119428188Y-129073518D01*
X119415928Y-129198000D01*
X112064000Y-129198000D01*
X112064000Y-111950702D01*
X115772903Y-111950702D01*
X115844486Y-112194671D01*
X116099996Y-112315571D01*
X116374184Y-112384300D01*
X116656512Y-112398217D01*
X116936130Y-112356787D01*
X117202292Y-112261603D01*
X117327514Y-112194671D01*
X117399097Y-111950702D01*
X116586000Y-111137605D01*
X115772903Y-111950702D01*
X112064000Y-111950702D01*
X112064000Y-111028512D01*
X115145783Y-111028512D01*
X115187213Y-111308130D01*
X115282397Y-111574292D01*
X115349329Y-111699514D01*
X115593298Y-111771097D01*
X116406395Y-110958000D01*
X116765605Y-110958000D01*
X117578702Y-111771097D01*
X117822671Y-111699514D01*
X117943571Y-111444004D01*
X118012300Y-111169816D01*
X118026217Y-110887488D01*
X117984787Y-110607870D01*
X117889603Y-110341708D01*
X117822671Y-110216486D01*
X117578702Y-110144903D01*
X116765605Y-110958000D01*
X116406395Y-110958000D01*
X115593298Y-110144903D01*
X115349329Y-110216486D01*
X115228429Y-110471996D01*
X115159700Y-110746184D01*
X115145783Y-111028512D01*
X112064000Y-111028512D01*
X112064000Y-108316665D01*
X115151000Y-108316665D01*
X115151000Y-108599335D01*
X115206147Y-108876574D01*
X115314320Y-109137727D01*
X115471363Y-109372759D01*
X115671241Y-109572637D01*
X115871869Y-109706692D01*
X115844486Y-109721329D01*
X115772903Y-109965298D01*
X116586000Y-110778395D01*
X117399097Y-109965298D01*
X117327514Y-109721329D01*
X117298659Y-109707676D01*
X117500759Y-109572637D01*
X117700637Y-109372759D01*
X117857680Y-109137727D01*
X117965853Y-108876574D01*
X118021000Y-108599335D01*
X118021000Y-108316665D01*
X117965853Y-108039426D01*
X117857680Y-107778273D01*
X117700637Y-107543241D01*
X117500759Y-107343363D01*
X117265727Y-107186320D01*
X117004574Y-107078147D01*
X116727335Y-107023000D01*
X116444665Y-107023000D01*
X116167426Y-107078147D01*
X115906273Y-107186320D01*
X115671241Y-107343363D01*
X115471363Y-107543241D01*
X115314320Y-107778273D01*
X115206147Y-108039426D01*
X115151000Y-108316665D01*
X112064000Y-108316665D01*
X112064000Y-101712665D01*
X121755000Y-101712665D01*
X121755000Y-101995335D01*
X121810147Y-102272574D01*
X121918320Y-102533727D01*
X122075363Y-102768759D01*
X122275241Y-102968637D01*
X122510273Y-103125680D01*
X122771426Y-103233853D01*
X123048665Y-103289000D01*
X123331335Y-103289000D01*
X123608574Y-103233853D01*
X123869727Y-103125680D01*
X124104759Y-102968637D01*
X124304637Y-102768759D01*
X124460000Y-102536241D01*
X124615363Y-102768759D01*
X124815241Y-102968637D01*
X125050273Y-103125680D01*
X125311426Y-103233853D01*
X125588665Y-103289000D01*
X125871335Y-103289000D01*
X126148574Y-103233853D01*
X126409727Y-103125680D01*
X126644759Y-102968637D01*
X126844637Y-102768759D01*
X127000000Y-102536241D01*
X127155363Y-102768759D01*
X127355241Y-102968637D01*
X127590273Y-103125680D01*
X127851426Y-103233853D01*
X128128665Y-103289000D01*
X128411335Y-103289000D01*
X128688574Y-103233853D01*
X128949727Y-103125680D01*
X129184759Y-102968637D01*
X129384637Y-102768759D01*
X129540000Y-102536241D01*
X129695363Y-102768759D01*
X129895241Y-102968637D01*
X130130273Y-103125680D01*
X130391426Y-103233853D01*
X130668665Y-103289000D01*
X130951335Y-103289000D01*
X131228574Y-103233853D01*
X131489727Y-103125680D01*
X131724759Y-102968637D01*
X131924637Y-102768759D01*
X132080000Y-102536241D01*
X132235363Y-102768759D01*
X132435241Y-102968637D01*
X132670273Y-103125680D01*
X132931426Y-103233853D01*
X133208665Y-103289000D01*
X133491335Y-103289000D01*
X133768574Y-103233853D01*
X134029727Y-103125680D01*
X134264759Y-102968637D01*
X134464637Y-102768759D01*
X134620000Y-102536241D01*
X134775363Y-102768759D01*
X134975241Y-102968637D01*
X135210273Y-103125680D01*
X135471426Y-103233853D01*
X135748665Y-103289000D01*
X136031335Y-103289000D01*
X136308574Y-103233853D01*
X136569727Y-103125680D01*
X136804759Y-102968637D01*
X137004637Y-102768759D01*
X137160000Y-102536241D01*
X137315363Y-102768759D01*
X137515241Y-102968637D01*
X137750273Y-103125680D01*
X138011426Y-103233853D01*
X138288665Y-103289000D01*
X138571335Y-103289000D01*
X138848574Y-103233853D01*
X139109727Y-103125680D01*
X139344759Y-102968637D01*
X139544637Y-102768759D01*
X139700000Y-102536241D01*
X139855363Y-102768759D01*
X140055241Y-102968637D01*
X140290273Y-103125680D01*
X140551426Y-103233853D01*
X140828665Y-103289000D01*
X141111335Y-103289000D01*
X141388574Y-103233853D01*
X141649727Y-103125680D01*
X141884759Y-102968637D01*
X142083357Y-102770039D01*
X142084188Y-102778482D01*
X142120498Y-102898180D01*
X142179463Y-103008494D01*
X142258815Y-103105185D01*
X142355506Y-103184537D01*
X142465820Y-103243502D01*
X142585518Y-103279812D01*
X142710000Y-103292072D01*
X144310000Y-103292072D01*
X144434482Y-103279812D01*
X144554180Y-103243502D01*
X144664494Y-103184537D01*
X144761185Y-103105185D01*
X144840537Y-103008494D01*
X144899502Y-102898180D01*
X144935812Y-102778482D01*
X144948072Y-102654000D01*
X144948072Y-101712665D01*
X146393000Y-101712665D01*
X146393000Y-101995335D01*
X146448147Y-102272574D01*
X146556320Y-102533727D01*
X146713363Y-102768759D01*
X146913241Y-102968637D01*
X147148273Y-103125680D01*
X147409426Y-103233853D01*
X147686665Y-103289000D01*
X147969335Y-103289000D01*
X148246574Y-103233853D01*
X148507727Y-103125680D01*
X148742759Y-102968637D01*
X148942637Y-102768759D01*
X149098000Y-102536241D01*
X149253363Y-102768759D01*
X149453241Y-102968637D01*
X149688273Y-103125680D01*
X149949426Y-103233853D01*
X150226665Y-103289000D01*
X150509335Y-103289000D01*
X150786574Y-103233853D01*
X151047727Y-103125680D01*
X151282759Y-102968637D01*
X151482637Y-102768759D01*
X151638000Y-102536241D01*
X151793363Y-102768759D01*
X151993241Y-102968637D01*
X152228273Y-103125680D01*
X152489426Y-103233853D01*
X152766665Y-103289000D01*
X153049335Y-103289000D01*
X153326574Y-103233853D01*
X153587727Y-103125680D01*
X153822759Y-102968637D01*
X154022637Y-102768759D01*
X154178000Y-102536241D01*
X154333363Y-102768759D01*
X154533241Y-102968637D01*
X154768273Y-103125680D01*
X155029426Y-103233853D01*
X155306665Y-103289000D01*
X155589335Y-103289000D01*
X155866574Y-103233853D01*
X156127727Y-103125680D01*
X156362759Y-102968637D01*
X156562637Y-102768759D01*
X156718000Y-102536241D01*
X156873363Y-102768759D01*
X157073241Y-102968637D01*
X157308273Y-103125680D01*
X157569426Y-103233853D01*
X157846665Y-103289000D01*
X158129335Y-103289000D01*
X158406574Y-103233853D01*
X158667727Y-103125680D01*
X158902759Y-102968637D01*
X159102637Y-102768759D01*
X159258000Y-102536241D01*
X159413363Y-102768759D01*
X159613241Y-102968637D01*
X159848273Y-103125680D01*
X160109426Y-103233853D01*
X160386665Y-103289000D01*
X160669335Y-103289000D01*
X160946574Y-103233853D01*
X161207727Y-103125680D01*
X161442759Y-102968637D01*
X161642637Y-102768759D01*
X161798000Y-102536241D01*
X161953363Y-102768759D01*
X162153241Y-102968637D01*
X162388273Y-103125680D01*
X162649426Y-103233853D01*
X162926665Y-103289000D01*
X163209335Y-103289000D01*
X163486574Y-103233853D01*
X163747727Y-103125680D01*
X163982759Y-102968637D01*
X164182637Y-102768759D01*
X164338000Y-102536241D01*
X164493363Y-102768759D01*
X164693241Y-102968637D01*
X164928273Y-103125680D01*
X165189426Y-103233853D01*
X165466665Y-103289000D01*
X165749335Y-103289000D01*
X166026574Y-103233853D01*
X166287727Y-103125680D01*
X166522759Y-102968637D01*
X166721357Y-102770039D01*
X166722188Y-102778482D01*
X166758498Y-102898180D01*
X166817463Y-103008494D01*
X166896815Y-103105185D01*
X166993506Y-103184537D01*
X167103820Y-103243502D01*
X167223518Y-103279812D01*
X167348000Y-103292072D01*
X168948000Y-103292072D01*
X169072482Y-103279812D01*
X169192180Y-103243502D01*
X169302494Y-103184537D01*
X169399185Y-103105185D01*
X169478537Y-103008494D01*
X169537502Y-102898180D01*
X169573812Y-102778482D01*
X169586072Y-102654000D01*
X169586072Y-101054000D01*
X169573812Y-100929518D01*
X169537502Y-100809820D01*
X169478537Y-100699506D01*
X169399185Y-100602815D01*
X169302494Y-100523463D01*
X169192180Y-100464498D01*
X169072482Y-100428188D01*
X168948000Y-100415928D01*
X167348000Y-100415928D01*
X167223518Y-100428188D01*
X167103820Y-100464498D01*
X166993506Y-100523463D01*
X166896815Y-100602815D01*
X166817463Y-100699506D01*
X166758498Y-100809820D01*
X166722188Y-100929518D01*
X166721357Y-100937961D01*
X166522759Y-100739363D01*
X166287727Y-100582320D01*
X166026574Y-100474147D01*
X165749335Y-100419000D01*
X165466665Y-100419000D01*
X165189426Y-100474147D01*
X164928273Y-100582320D01*
X164693241Y-100739363D01*
X164493363Y-100939241D01*
X164338000Y-101171759D01*
X164182637Y-100939241D01*
X163982759Y-100739363D01*
X163747727Y-100582320D01*
X163486574Y-100474147D01*
X163209335Y-100419000D01*
X162926665Y-100419000D01*
X162649426Y-100474147D01*
X162388273Y-100582320D01*
X162153241Y-100739363D01*
X161953363Y-100939241D01*
X161798000Y-101171759D01*
X161642637Y-100939241D01*
X161442759Y-100739363D01*
X161207727Y-100582320D01*
X160946574Y-100474147D01*
X160669335Y-100419000D01*
X160386665Y-100419000D01*
X160109426Y-100474147D01*
X159848273Y-100582320D01*
X159613241Y-100739363D01*
X159413363Y-100939241D01*
X159258000Y-101171759D01*
X159102637Y-100939241D01*
X158902759Y-100739363D01*
X158667727Y-100582320D01*
X158406574Y-100474147D01*
X158129335Y-100419000D01*
X157846665Y-100419000D01*
X157569426Y-100474147D01*
X157308273Y-100582320D01*
X157073241Y-100739363D01*
X156873363Y-100939241D01*
X156718000Y-101171759D01*
X156562637Y-100939241D01*
X156362759Y-100739363D01*
X156127727Y-100582320D01*
X155866574Y-100474147D01*
X155589335Y-100419000D01*
X155306665Y-100419000D01*
X155029426Y-100474147D01*
X154768273Y-100582320D01*
X154533241Y-100739363D01*
X154333363Y-100939241D01*
X154178000Y-101171759D01*
X154022637Y-100939241D01*
X153822759Y-100739363D01*
X153587727Y-100582320D01*
X153326574Y-100474147D01*
X153049335Y-100419000D01*
X152766665Y-100419000D01*
X152489426Y-100474147D01*
X152228273Y-100582320D01*
X151993241Y-100739363D01*
X151793363Y-100939241D01*
X151638000Y-101171759D01*
X151482637Y-100939241D01*
X151282759Y-100739363D01*
X151047727Y-100582320D01*
X150786574Y-100474147D01*
X150509335Y-100419000D01*
X150226665Y-100419000D01*
X149949426Y-100474147D01*
X149688273Y-100582320D01*
X149453241Y-100739363D01*
X149253363Y-100939241D01*
X149098000Y-101171759D01*
X148942637Y-100939241D01*
X148742759Y-100739363D01*
X148507727Y-100582320D01*
X148246574Y-100474147D01*
X147969335Y-100419000D01*
X147686665Y-100419000D01*
X147409426Y-100474147D01*
X147148273Y-100582320D01*
X146913241Y-100739363D01*
X146713363Y-100939241D01*
X146556320Y-101174273D01*
X146448147Y-101435426D01*
X146393000Y-101712665D01*
X144948072Y-101712665D01*
X144948072Y-101054000D01*
X144935812Y-100929518D01*
X144899502Y-100809820D01*
X144840537Y-100699506D01*
X144761185Y-100602815D01*
X144664494Y-100523463D01*
X144554180Y-100464498D01*
X144434482Y-100428188D01*
X144310000Y-100415928D01*
X142710000Y-100415928D01*
X142585518Y-100428188D01*
X142465820Y-100464498D01*
X142355506Y-100523463D01*
X142258815Y-100602815D01*
X142179463Y-100699506D01*
X142120498Y-100809820D01*
X142084188Y-100929518D01*
X142083357Y-100937961D01*
X141884759Y-100739363D01*
X141649727Y-100582320D01*
X141388574Y-100474147D01*
X141111335Y-100419000D01*
X140828665Y-100419000D01*
X140551426Y-100474147D01*
X140290273Y-100582320D01*
X140055241Y-100739363D01*
X139855363Y-100939241D01*
X139700000Y-101171759D01*
X139544637Y-100939241D01*
X139344759Y-100739363D01*
X139109727Y-100582320D01*
X138848574Y-100474147D01*
X138571335Y-100419000D01*
X138288665Y-100419000D01*
X138011426Y-100474147D01*
X137750273Y-100582320D01*
X137515241Y-100739363D01*
X137315363Y-100939241D01*
X137160000Y-101171759D01*
X137004637Y-100939241D01*
X136804759Y-100739363D01*
X136569727Y-100582320D01*
X136308574Y-100474147D01*
X136031335Y-100419000D01*
X135748665Y-100419000D01*
X135471426Y-100474147D01*
X135210273Y-100582320D01*
X134975241Y-100739363D01*
X134775363Y-100939241D01*
X134620000Y-101171759D01*
X134464637Y-100939241D01*
X134264759Y-100739363D01*
X134029727Y-100582320D01*
X133768574Y-100474147D01*
X133491335Y-100419000D01*
X133208665Y-100419000D01*
X132931426Y-100474147D01*
X132670273Y-100582320D01*
X132435241Y-100739363D01*
X132235363Y-100939241D01*
X132080000Y-101171759D01*
X131924637Y-100939241D01*
X131724759Y-100739363D01*
X131489727Y-100582320D01*
X131228574Y-100474147D01*
X130951335Y-100419000D01*
X130668665Y-100419000D01*
X130391426Y-100474147D01*
X130130273Y-100582320D01*
X129895241Y-100739363D01*
X129695363Y-100939241D01*
X129540000Y-101171759D01*
X129384637Y-100939241D01*
X129184759Y-100739363D01*
X128949727Y-100582320D01*
X128688574Y-100474147D01*
X128411335Y-100419000D01*
X128128665Y-100419000D01*
X127851426Y-100474147D01*
X127590273Y-100582320D01*
X127355241Y-100739363D01*
X127155363Y-100939241D01*
X127000000Y-101171759D01*
X126844637Y-100939241D01*
X126644759Y-100739363D01*
X126409727Y-100582320D01*
X126148574Y-100474147D01*
X125871335Y-100419000D01*
X125588665Y-100419000D01*
X125311426Y-100474147D01*
X125050273Y-100582320D01*
X124815241Y-100739363D01*
X124615363Y-100939241D01*
X124460000Y-101171759D01*
X124304637Y-100939241D01*
X124104759Y-100739363D01*
X123869727Y-100582320D01*
X123608574Y-100474147D01*
X123331335Y-100419000D01*
X123048665Y-100419000D01*
X122771426Y-100474147D01*
X122510273Y-100582320D01*
X122275241Y-100739363D01*
X122075363Y-100939241D01*
X121918320Y-101174273D01*
X121810147Y-101435426D01*
X121755000Y-101712665D01*
X112064000Y-101712665D01*
X112064000Y-96881740D01*
X129325000Y-96881740D01*
X129325000Y-97174260D01*
X129382068Y-97461158D01*
X129494010Y-97731411D01*
X129656525Y-97974632D01*
X129863368Y-98181475D01*
X130106589Y-98343990D01*
X130376842Y-98455932D01*
X130663740Y-98513000D01*
X130956260Y-98513000D01*
X131243158Y-98455932D01*
X131513411Y-98343990D01*
X131756632Y-98181475D01*
X131963475Y-97974632D01*
X132080000Y-97800240D01*
X132196525Y-97974632D01*
X132403368Y-98181475D01*
X132646589Y-98343990D01*
X132916842Y-98455932D01*
X133203740Y-98513000D01*
X133496260Y-98513000D01*
X133783158Y-98455932D01*
X134053411Y-98343990D01*
X134296632Y-98181475D01*
X134428487Y-98049620D01*
X134450498Y-98122180D01*
X134509463Y-98232494D01*
X134588815Y-98329185D01*
X134685506Y-98408537D01*
X134795820Y-98467502D01*
X134915518Y-98503812D01*
X135040000Y-98516072D01*
X135604250Y-98513000D01*
X135763000Y-98354250D01*
X135763000Y-97155000D01*
X136017000Y-97155000D01*
X136017000Y-98354250D01*
X136175750Y-98513000D01*
X136740000Y-98516072D01*
X136864482Y-98503812D01*
X136984180Y-98467502D01*
X137094494Y-98408537D01*
X137191185Y-98329185D01*
X137270537Y-98232494D01*
X137329502Y-98122180D01*
X137365812Y-98002482D01*
X137378072Y-97878000D01*
X137375000Y-97313750D01*
X137216250Y-97155000D01*
X136017000Y-97155000D01*
X135763000Y-97155000D01*
X135743000Y-97155000D01*
X135743000Y-96901000D01*
X135763000Y-96901000D01*
X135763000Y-95701750D01*
X136017000Y-95701750D01*
X136017000Y-96901000D01*
X137216250Y-96901000D01*
X137235510Y-96881740D01*
X153963000Y-96881740D01*
X153963000Y-97174260D01*
X154020068Y-97461158D01*
X154132010Y-97731411D01*
X154294525Y-97974632D01*
X154501368Y-98181475D01*
X154744589Y-98343990D01*
X155014842Y-98455932D01*
X155301740Y-98513000D01*
X155594260Y-98513000D01*
X155881158Y-98455932D01*
X156151411Y-98343990D01*
X156394632Y-98181475D01*
X156601475Y-97974632D01*
X156718000Y-97800240D01*
X156834525Y-97974632D01*
X157041368Y-98181475D01*
X157284589Y-98343990D01*
X157554842Y-98455932D01*
X157841740Y-98513000D01*
X158134260Y-98513000D01*
X158421158Y-98455932D01*
X158691411Y-98343990D01*
X158934632Y-98181475D01*
X159066487Y-98049620D01*
X159088498Y-98122180D01*
X159147463Y-98232494D01*
X159226815Y-98329185D01*
X159323506Y-98408537D01*
X159433820Y-98467502D01*
X159553518Y-98503812D01*
X159678000Y-98516072D01*
X160242250Y-98513000D01*
X160401000Y-98354250D01*
X160401000Y-97155000D01*
X160655000Y-97155000D01*
X160655000Y-98354250D01*
X160813750Y-98513000D01*
X161378000Y-98516072D01*
X161502482Y-98503812D01*
X161622180Y-98467502D01*
X161732494Y-98408537D01*
X161829185Y-98329185D01*
X161908537Y-98232494D01*
X161967502Y-98122180D01*
X162003812Y-98002482D01*
X162016072Y-97878000D01*
X162013000Y-97313750D01*
X161854250Y-97155000D01*
X160655000Y-97155000D01*
X160401000Y-97155000D01*
X160381000Y-97155000D01*
X160381000Y-96901000D01*
X160401000Y-96901000D01*
X160401000Y-95701750D01*
X160655000Y-95701750D01*
X160655000Y-96901000D01*
X161854250Y-96901000D01*
X162013000Y-96742250D01*
X162016072Y-96178000D01*
X162003812Y-96053518D01*
X161967502Y-95933820D01*
X161908537Y-95823506D01*
X161829185Y-95726815D01*
X161732494Y-95647463D01*
X161622180Y-95588498D01*
X161502482Y-95552188D01*
X161378000Y-95539928D01*
X160813750Y-95543000D01*
X160655000Y-95701750D01*
X160401000Y-95701750D01*
X160242250Y-95543000D01*
X159678000Y-95539928D01*
X159553518Y-95552188D01*
X159433820Y-95588498D01*
X159323506Y-95647463D01*
X159226815Y-95726815D01*
X159147463Y-95823506D01*
X159088498Y-95933820D01*
X159066487Y-96006380D01*
X158934632Y-95874525D01*
X158691411Y-95712010D01*
X158421158Y-95600068D01*
X158134260Y-95543000D01*
X157841740Y-95543000D01*
X157554842Y-95600068D01*
X157284589Y-95712010D01*
X157041368Y-95874525D01*
X156834525Y-96081368D01*
X156718000Y-96255760D01*
X156601475Y-96081368D01*
X156394632Y-95874525D01*
X156151411Y-95712010D01*
X155881158Y-95600068D01*
X155594260Y-95543000D01*
X155301740Y-95543000D01*
X155014842Y-95600068D01*
X154744589Y-95712010D01*
X154501368Y-95874525D01*
X154294525Y-96081368D01*
X154132010Y-96324589D01*
X154020068Y-96594842D01*
X153963000Y-96881740D01*
X137235510Y-96881740D01*
X137375000Y-96742250D01*
X137378072Y-96178000D01*
X137365812Y-96053518D01*
X137329502Y-95933820D01*
X137270537Y-95823506D01*
X137191185Y-95726815D01*
X137094494Y-95647463D01*
X136984180Y-95588498D01*
X136864482Y-95552188D01*
X136740000Y-95539928D01*
X136175750Y-95543000D01*
X136017000Y-95701750D01*
X135763000Y-95701750D01*
X135604250Y-95543000D01*
X135040000Y-95539928D01*
X134915518Y-95552188D01*
X134795820Y-95588498D01*
X134685506Y-95647463D01*
X134588815Y-95726815D01*
X134509463Y-95823506D01*
X134450498Y-95933820D01*
X134428487Y-96006380D01*
X134296632Y-95874525D01*
X134053411Y-95712010D01*
X133783158Y-95600068D01*
X133496260Y-95543000D01*
X133203740Y-95543000D01*
X132916842Y-95600068D01*
X132646589Y-95712010D01*
X132403368Y-95874525D01*
X132196525Y-96081368D01*
X132080000Y-96255760D01*
X131963475Y-96081368D01*
X131756632Y-95874525D01*
X131513411Y-95712010D01*
X131243158Y-95600068D01*
X130956260Y-95543000D01*
X130663740Y-95543000D01*
X130376842Y-95600068D01*
X130106589Y-95712010D01*
X129863368Y-95874525D01*
X129656525Y-96081368D01*
X129494010Y-96324589D01*
X129382068Y-96594842D01*
X129325000Y-96881740D01*
X112064000Y-96881740D01*
X112064000Y-94200353D01*
X112054711Y-94106043D01*
X112068234Y-93968125D01*
X112145448Y-93712378D01*
X112270869Y-93476496D01*
X112439716Y-93269470D01*
X112645554Y-93099187D01*
X112880556Y-92972121D01*
X113135756Y-92893124D01*
X113282711Y-92877678D01*
X113377353Y-92887000D01*
G37*
%TD.AperFunction*%
%TD*%
M02*
