%TF.GenerationSoftware,KiCad,Pcbnew,(5.1.9-0-10_14)*%
%TF.CreationDate,2021-03-23T14:31:25+01:00*%
%TF.ProjectId,viaduct,76696164-7563-4742-9e6b-696361645f70,rev?*%
%TF.SameCoordinates,Original*%
%TF.FileFunction,Copper,L1,Top*%
%TF.FilePolarity,Positive*%
%FSLAX46Y46*%
G04 Gerber Fmt 4.6, Leading zero omitted, Abs format (unit mm)*
G04 Created by KiCad (PCBNEW (5.1.9-0-10_14)) date 2021-03-23 14:31:25*
%MOMM*%
%LPD*%
G01*
G04 APERTURE LIST*
%TA.AperFunction,ComponentPad*%
%ADD10O,1.700000X1.700000*%
%TD*%
%TA.AperFunction,ComponentPad*%
%ADD11R,1.700000X1.700000*%
%TD*%
%TA.AperFunction,ComponentPad*%
%ADD12C,1.600000*%
%TD*%
%TA.AperFunction,ComponentPad*%
%ADD13O,1.600000X1.600000*%
%TD*%
%TA.AperFunction,ComponentPad*%
%ADD14R,1.600000X1.600000*%
%TD*%
%TA.AperFunction,ViaPad*%
%ADD15C,0.800000*%
%TD*%
%TA.AperFunction,Conductor*%
%ADD16C,0.500000*%
%TD*%
%TA.AperFunction,Conductor*%
%ADD17C,0.250000*%
%TD*%
%TA.AperFunction,Conductor*%
%ADD18C,0.254000*%
%TD*%
%TA.AperFunction,Conductor*%
%ADD19C,0.100000*%
%TD*%
G04 APERTURE END LIST*
D10*
%TO.P,J4,24*%
%TO.N,GND*%
X177038000Y-128016000D03*
%TO.P,J4,23*%
X174498000Y-128016000D03*
%TO.P,J4,22*%
%TO.N,CB2*%
X177038000Y-125476000D03*
%TO.P,J4,21*%
%TO.N,CA2*%
X174498000Y-125476000D03*
%TO.P,J4,20*%
%TO.N,CB1*%
X177038000Y-122936000D03*
%TO.P,J4,19*%
%TO.N,CA1*%
X174498000Y-122936000D03*
%TO.P,J4,18*%
%TO.N,/PB7*%
X177038000Y-120396000D03*
%TO.P,J4,17*%
%TO.N,/PA7*%
X174498000Y-120396000D03*
%TO.P,J4,16*%
%TO.N,/PB6*%
X177038000Y-117856000D03*
%TO.P,J4,15*%
%TO.N,/PA6*%
X174498000Y-117856000D03*
%TO.P,J4,14*%
%TO.N,/PB5*%
X177038000Y-115316000D03*
%TO.P,J4,13*%
%TO.N,/PA5*%
X174498000Y-115316000D03*
%TO.P,J4,12*%
%TO.N,/PB4*%
X177038000Y-112776000D03*
%TO.P,J4,11*%
%TO.N,/PA4*%
X174498000Y-112776000D03*
%TO.P,J4,10*%
%TO.N,/PB3*%
X177038000Y-110236000D03*
%TO.P,J4,9*%
%TO.N,/PA3*%
X174498000Y-110236000D03*
%TO.P,J4,8*%
%TO.N,/PB2*%
X177038000Y-107696000D03*
%TO.P,J4,7*%
%TO.N,/PA2*%
X174498000Y-107696000D03*
%TO.P,J4,6*%
%TO.N,/PB1*%
X177038000Y-105156000D03*
%TO.P,J4,5*%
%TO.N,/PA1*%
X174498000Y-105156000D03*
%TO.P,J4,4*%
%TO.N,/PB0*%
X177038000Y-102616000D03*
%TO.P,J4,3*%
%TO.N,/PA0*%
X174498000Y-102616000D03*
%TO.P,J4,2*%
%TO.N,+5V*%
X177038000Y-100076000D03*
D11*
%TO.P,J4,1*%
X174498000Y-100076000D03*
%TD*%
D12*
%TO.P,C1,2*%
%TO.N,GND*%
X116586000Y-110958000D03*
%TO.P,C1,1*%
%TO.N,+5V*%
X116586000Y-108458000D03*
%TD*%
D10*
%TO.P,J3,3*%
%TO.N,+5V*%
X130810000Y-97028000D03*
%TO.P,J3,2*%
%TO.N,Net-(J3-Pad2)*%
X133350000Y-97028000D03*
D11*
%TO.P,J3,1*%
%TO.N,GND*%
X135890000Y-97028000D03*
%TD*%
D10*
%TO.P,J2,3*%
%TO.N,+5V*%
X155448000Y-97028000D03*
%TO.P,J2,2*%
%TO.N,Net-(J2-Pad2)*%
X157988000Y-97028000D03*
D11*
%TO.P,J2,1*%
%TO.N,GND*%
X160528000Y-97028000D03*
%TD*%
D13*
%TO.P,RN2,9*%
%TO.N,/PB7*%
X123190000Y-101854000D03*
%TO.P,RN2,8*%
%TO.N,/PB6*%
X125730000Y-101854000D03*
%TO.P,RN2,7*%
%TO.N,/PB5*%
X128270000Y-101854000D03*
%TO.P,RN2,6*%
%TO.N,/PB4*%
X130810000Y-101854000D03*
%TO.P,RN2,5*%
%TO.N,/PB3*%
X133350000Y-101854000D03*
%TO.P,RN2,4*%
%TO.N,/PB2*%
X135890000Y-101854000D03*
%TO.P,RN2,3*%
%TO.N,/PB1*%
X138430000Y-101854000D03*
%TO.P,RN2,2*%
%TO.N,/PB0*%
X140970000Y-101854000D03*
D14*
%TO.P,RN2,1*%
%TO.N,Net-(J3-Pad2)*%
X143510000Y-101854000D03*
%TD*%
D13*
%TO.P,RN1,9*%
%TO.N,/PA7*%
X147828000Y-101854000D03*
%TO.P,RN1,8*%
%TO.N,/PA6*%
X150368000Y-101854000D03*
%TO.P,RN1,7*%
%TO.N,/PA5*%
X152908000Y-101854000D03*
%TO.P,RN1,6*%
%TO.N,/PA4*%
X155448000Y-101854000D03*
%TO.P,RN1,5*%
%TO.N,/PA3*%
X157988000Y-101854000D03*
%TO.P,RN1,4*%
%TO.N,/PA2*%
X160528000Y-101854000D03*
%TO.P,RN1,3*%
%TO.N,/PA1*%
X163068000Y-101854000D03*
%TO.P,RN1,2*%
%TO.N,/PA0*%
X165608000Y-101854000D03*
D14*
%TO.P,RN1,1*%
%TO.N,Net-(J2-Pad2)*%
X168148000Y-101854000D03*
%TD*%
D10*
%TO.P,J1,32*%
%TO.N,GND*%
X159004000Y-132588000D03*
%TO.P,J1,31*%
X159004000Y-130048000D03*
%TO.P,J1,30*%
%TO.N,Net-(J1-Pad29)*%
X156464000Y-132588000D03*
%TO.P,J1,29*%
X156464000Y-130048000D03*
%TO.P,J1,28*%
%TO.N,Net-(J1-Pad28)*%
X153924000Y-132588000D03*
%TO.P,J1,27*%
%TO.N,Net-(J1-Pad27)*%
X153924000Y-130048000D03*
%TO.P,J1,26*%
%TO.N,Net-(J1-Pad26)*%
X151384000Y-132588000D03*
%TO.P,J1,25*%
%TO.N,Net-(J1-Pad25)*%
X151384000Y-130048000D03*
%TO.P,J1,24*%
%TO.N,Net-(J1-Pad24)*%
X148844000Y-132588000D03*
%TO.P,J1,23*%
%TO.N,~RES*%
X148844000Y-130048000D03*
%TO.P,J1,22*%
%TO.N,~IRQ*%
X146304000Y-132588000D03*
%TO.P,J1,21*%
%TO.N,CLK*%
X146304000Y-130048000D03*
%TO.P,J1,20*%
%TO.N,/D7*%
X143764000Y-132588000D03*
%TO.P,J1,19*%
%TO.N,R~W*%
X143764000Y-130048000D03*
%TO.P,J1,18*%
%TO.N,/D6*%
X141224000Y-132588000D03*
%TO.P,J1,17*%
%TO.N,~CS*%
X141224000Y-130048000D03*
%TO.P,J1,16*%
%TO.N,/D5*%
X138684000Y-132588000D03*
%TO.P,J1,15*%
%TO.N,Net-(J1-Pad15)*%
X138684000Y-130048000D03*
%TO.P,J1,14*%
%TO.N,/D4*%
X136144000Y-132588000D03*
%TO.P,J1,13*%
%TO.N,Net-(J1-Pad13)*%
X136144000Y-130048000D03*
%TO.P,J1,12*%
%TO.N,/D3*%
X133604000Y-132588000D03*
%TO.P,J1,11*%
%TO.N,/RS3*%
X133604000Y-130048000D03*
%TO.P,J1,10*%
%TO.N,/D2*%
X131064000Y-132588000D03*
%TO.P,J1,9*%
%TO.N,/RS2*%
X131064000Y-130048000D03*
%TO.P,J1,8*%
%TO.N,/D1*%
X128524000Y-132588000D03*
%TO.P,J1,7*%
%TO.N,/RS1*%
X128524000Y-130048000D03*
%TO.P,J1,6*%
%TO.N,/D0*%
X125984000Y-132588000D03*
%TO.P,J1,5*%
%TO.N,/RS0*%
X125984000Y-130048000D03*
%TO.P,J1,4*%
%TO.N,GND*%
X123444000Y-132588000D03*
%TO.P,J1,3*%
X123444000Y-130048000D03*
%TO.P,J1,2*%
%TO.N,+5V*%
X120904000Y-132588000D03*
D11*
%TO.P,J1,1*%
X120904000Y-130048000D03*
%TD*%
D14*
%TO.P,U1,1*%
%TO.N,GND*%
X169164000Y-108458000D03*
D13*
%TO.P,U1,21*%
%TO.N,~IRQ*%
X120904000Y-123698000D03*
%TO.P,U1,2*%
%TO.N,/PA0*%
X166624000Y-108458000D03*
%TO.P,U1,22*%
%TO.N,R~W*%
X123444000Y-123698000D03*
%TO.P,U1,3*%
%TO.N,/PA1*%
X164084000Y-108458000D03*
%TO.P,U1,23*%
%TO.N,~CS*%
X125984000Y-123698000D03*
%TO.P,U1,4*%
%TO.N,/PA2*%
X161544000Y-108458000D03*
%TO.P,U1,24*%
%TO.N,+5V*%
X128524000Y-123698000D03*
%TO.P,U1,5*%
%TO.N,/PA3*%
X159004000Y-108458000D03*
%TO.P,U1,25*%
%TO.N,CLK*%
X131064000Y-123698000D03*
%TO.P,U1,6*%
%TO.N,/PA4*%
X156464000Y-108458000D03*
%TO.P,U1,26*%
%TO.N,/D7*%
X133604000Y-123698000D03*
%TO.P,U1,7*%
%TO.N,/PA5*%
X153924000Y-108458000D03*
%TO.P,U1,27*%
%TO.N,/D6*%
X136144000Y-123698000D03*
%TO.P,U1,8*%
%TO.N,/PA6*%
X151384000Y-108458000D03*
%TO.P,U1,28*%
%TO.N,/D5*%
X138684000Y-123698000D03*
%TO.P,U1,9*%
%TO.N,/PA7*%
X148844000Y-108458000D03*
%TO.P,U1,29*%
%TO.N,/D4*%
X141224000Y-123698000D03*
%TO.P,U1,10*%
%TO.N,/PB0*%
X146304000Y-108458000D03*
%TO.P,U1,30*%
%TO.N,/D3*%
X143764000Y-123698000D03*
%TO.P,U1,11*%
%TO.N,/PB1*%
X143764000Y-108458000D03*
%TO.P,U1,31*%
%TO.N,/D2*%
X146304000Y-123698000D03*
%TO.P,U1,12*%
%TO.N,/PB2*%
X141224000Y-108458000D03*
%TO.P,U1,32*%
%TO.N,/D1*%
X148844000Y-123698000D03*
%TO.P,U1,13*%
%TO.N,/PB3*%
X138684000Y-108458000D03*
%TO.P,U1,33*%
%TO.N,/D0*%
X151384000Y-123698000D03*
%TO.P,U1,14*%
%TO.N,/PB4*%
X136144000Y-108458000D03*
%TO.P,U1,34*%
%TO.N,~RES*%
X153924000Y-123698000D03*
%TO.P,U1,15*%
%TO.N,/PB5*%
X133604000Y-108458000D03*
%TO.P,U1,35*%
%TO.N,/RS3*%
X156464000Y-123698000D03*
%TO.P,U1,16*%
%TO.N,/PB6*%
X131064000Y-108458000D03*
%TO.P,U1,36*%
%TO.N,/RS2*%
X159004000Y-123698000D03*
%TO.P,U1,17*%
%TO.N,/PB7*%
X128524000Y-108458000D03*
%TO.P,U1,37*%
%TO.N,/RS1*%
X161544000Y-123698000D03*
%TO.P,U1,18*%
%TO.N,CB1*%
X125984000Y-108458000D03*
%TO.P,U1,38*%
%TO.N,/RS0*%
X164084000Y-123698000D03*
%TO.P,U1,19*%
%TO.N,CB2*%
X123444000Y-108458000D03*
%TO.P,U1,39*%
%TO.N,CA2*%
X166624000Y-123698000D03*
%TO.P,U1,20*%
%TO.N,+5V*%
X120904000Y-108458000D03*
%TO.P,U1,40*%
%TO.N,CA1*%
X169164000Y-123698000D03*
%TD*%
D15*
%TO.N,GND*%
X175831500Y-97282000D03*
X116332000Y-95250000D03*
X116332000Y-131445000D03*
X182245000Y-113919000D03*
%TO.N,+5V*%
X120903992Y-120478970D03*
%TO.N,CLK*%
X146304000Y-127888988D03*
%TO.N,/RS2*%
X125984000Y-126746000D03*
%TO.N,/RS1*%
X125984008Y-127889000D03*
%TD*%
D16*
%TO.N,GND*%
X159004000Y-132588000D02*
X159004000Y-130048000D01*
X123444000Y-132588000D02*
X123444000Y-130048000D01*
%TO.N,+5V*%
X120904000Y-132588000D02*
X120904000Y-130048000D01*
X153797000Y-95377000D02*
X155448000Y-97028000D01*
X132461000Y-95377000D02*
X153797000Y-95377000D01*
X130810000Y-97028000D02*
X132461000Y-95377000D01*
X120904000Y-130048000D02*
X119084982Y-128228982D01*
X119084982Y-128228982D02*
X119084982Y-122297980D01*
X120904000Y-108458000D02*
X120904000Y-120478962D01*
X119084982Y-122297980D02*
X120903992Y-120478970D01*
X120904000Y-120478962D02*
X120903992Y-120478970D01*
X116586000Y-104648000D02*
X124206000Y-97028000D01*
X116586000Y-108458000D02*
X116586000Y-104648000D01*
X124206000Y-97028000D02*
X130810000Y-97028000D01*
X120904000Y-108458000D02*
X116586000Y-108458000D01*
X169799000Y-95377000D02*
X174498000Y-100076000D01*
X153797000Y-95377000D02*
X169799000Y-95377000D01*
X174498000Y-100076000D02*
X177038000Y-100076000D01*
D17*
%TO.N,~RES*%
X153924000Y-123698000D02*
X149860000Y-127762000D01*
X148844000Y-128778000D02*
X148844000Y-130048000D01*
X149860000Y-127762000D02*
X148844000Y-128778000D01*
%TO.N,CLK*%
X146304000Y-130048000D02*
X146304000Y-127888988D01*
%TO.N,/D5*%
X139954000Y-131318000D02*
X138684000Y-132588000D01*
X139954000Y-124968000D02*
X139954000Y-131318000D01*
X138684000Y-123698000D02*
X139954000Y-124968000D01*
%TO.N,/D4*%
X137414000Y-131318000D02*
X136144000Y-132588000D01*
X138143999Y-122572999D02*
X137414000Y-123302998D01*
X141224000Y-123698000D02*
X140349002Y-123698000D01*
X139224001Y-122572999D02*
X138143999Y-122572999D01*
X140349002Y-123698000D02*
X139224001Y-122572999D01*
X137414000Y-123302998D02*
X137414000Y-131318000D01*
%TO.N,/D3*%
X134874000Y-123063000D02*
X134874000Y-131318000D01*
X135814011Y-122122989D02*
X134874000Y-123063000D01*
X142188989Y-122122989D02*
X135814011Y-122122989D01*
X134874000Y-131318000D02*
X133604000Y-132588000D01*
X143764000Y-123698000D02*
X142188989Y-122122989D01*
%TO.N,/D2*%
X132334000Y-123302998D02*
X132334000Y-131318000D01*
X132334000Y-131318000D02*
X131064000Y-132588000D01*
X133964018Y-121672980D02*
X132334000Y-123302998D01*
X144278980Y-121672980D02*
X133964018Y-121672980D01*
X146304000Y-123698000D02*
X144278980Y-121672980D01*
%TO.N,/RS2*%
X124858999Y-125620999D02*
X125984000Y-126746000D01*
X124858999Y-123157999D02*
X124858999Y-125620999D01*
X127694048Y-120322950D02*
X124858999Y-123157999D01*
X155628950Y-120322950D02*
X127694048Y-120322950D01*
X159004000Y-123698000D02*
X155628950Y-120322950D01*
%TO.N,/D1*%
X129794000Y-131318000D02*
X128524000Y-132588000D01*
X129794000Y-123302998D02*
X129794000Y-131318000D01*
X131874028Y-121222970D02*
X129794000Y-123302998D01*
X146368970Y-121222970D02*
X131874028Y-121222970D01*
X148844000Y-123698000D02*
X146368970Y-121222970D01*
%TO.N,/RS1*%
X161544000Y-123698000D02*
X157718940Y-119872940D01*
X122318999Y-124223991D02*
X125984008Y-127889000D01*
X157718940Y-119872940D02*
X125604058Y-119872940D01*
X125604058Y-119872940D02*
X122318999Y-123157999D01*
X122318999Y-123157999D02*
X122318999Y-124223991D01*
%TO.N,/D0*%
X127254000Y-131318000D02*
X125984000Y-132588000D01*
X127254000Y-122174000D02*
X127254000Y-131318000D01*
X128655040Y-120772960D02*
X127254000Y-122174000D01*
X148458960Y-120772960D02*
X128655040Y-120772960D01*
X151384000Y-123698000D02*
X148458960Y-120772960D01*
%TO.N,/RS0*%
X125476000Y-130048000D02*
X125984000Y-130048000D01*
X125984000Y-130048000D02*
X125588998Y-130048000D01*
X125603000Y-130048000D02*
X125984000Y-130048000D01*
X159808930Y-119422930D02*
X123514068Y-119422930D01*
X119778999Y-124223999D02*
X125603000Y-130048000D01*
X119778999Y-123157999D02*
X119778999Y-124223999D01*
X123514068Y-119422930D02*
X119778999Y-123157999D01*
X164084000Y-123698000D02*
X159808930Y-119422930D01*
%TO.N,/PA7*%
X148844000Y-102870000D02*
X147828000Y-101854000D01*
X148844000Y-108458000D02*
X148844000Y-102870000D01*
%TO.N,/PA6*%
X151384000Y-102870000D02*
X150368000Y-101854000D01*
X151384000Y-108458000D02*
X151384000Y-102870000D01*
%TO.N,/PA5*%
X153924000Y-102870000D02*
X152908000Y-101854000D01*
X153924000Y-108458000D02*
X153924000Y-102870000D01*
%TO.N,/PA4*%
X156464000Y-102870000D02*
X155448000Y-101854000D01*
X156464000Y-108458000D02*
X156464000Y-102870000D01*
%TO.N,/PA3*%
X159004000Y-102870000D02*
X157988000Y-101854000D01*
X159004000Y-108458000D02*
X159004000Y-102870000D01*
%TO.N,/PA2*%
X161544000Y-102870000D02*
X160528000Y-101854000D01*
X161544000Y-108458000D02*
X161544000Y-102870000D01*
%TO.N,/PA1*%
X164084000Y-102870000D02*
X163068000Y-101854000D01*
X164084000Y-108458000D02*
X164084000Y-102870000D01*
%TO.N,/PA0*%
X166624000Y-102870000D02*
X165608000Y-101854000D01*
X166624000Y-108458000D02*
X166624000Y-102870000D01*
%TO.N,Net-(J2-Pad2)*%
X168148000Y-101854000D02*
X165481000Y-99187000D01*
X160147000Y-99187000D02*
X157988000Y-97028000D01*
X165481000Y-99187000D02*
X160147000Y-99187000D01*
%TO.N,/PB7*%
X128524000Y-107188000D02*
X123190000Y-101854000D01*
X128524000Y-108458000D02*
X128524000Y-107188000D01*
X175862999Y-121571001D02*
X177038000Y-120396000D01*
X173895001Y-121571001D02*
X175862999Y-121571001D01*
X138049000Y-117983000D02*
X170307000Y-117983000D01*
X170307000Y-117983000D02*
X173895001Y-121571001D01*
X128524000Y-108458000D02*
X138049000Y-117983000D01*
%TO.N,/PB6*%
X131064000Y-107188000D02*
X125730000Y-101854000D01*
X131064000Y-108458000D02*
X131064000Y-107188000D01*
X175862999Y-119031001D02*
X177038000Y-117856000D01*
X172435987Y-117532989D02*
X173933999Y-119031001D01*
X173933999Y-119031001D02*
X175862999Y-119031001D01*
X140138989Y-117532989D02*
X172435987Y-117532989D01*
X131064000Y-108458000D02*
X140138989Y-117532989D01*
%TO.N,/PB5*%
X133604000Y-107188000D02*
X128270000Y-101854000D01*
X133604000Y-108458000D02*
X133604000Y-107188000D01*
X175673001Y-116680999D02*
X177038000Y-115316000D01*
X141826999Y-116680999D02*
X175673001Y-116680999D01*
X133604000Y-108458000D02*
X141826999Y-116680999D01*
%TO.N,/PB4*%
X136144000Y-107188000D02*
X130810000Y-101854000D01*
X136144000Y-108458000D02*
X136144000Y-107188000D01*
X175862999Y-113951001D02*
X177038000Y-112776000D01*
X175673001Y-113951001D02*
X175862999Y-113951001D01*
X141637001Y-113951001D02*
X175673001Y-113951001D01*
X136144000Y-108458000D02*
X141637001Y-113951001D01*
%TO.N,/PB3*%
X138684000Y-107188000D02*
X133350000Y-101854000D01*
X138684000Y-108458000D02*
X138684000Y-107188000D01*
X141637001Y-111411001D02*
X174885997Y-111411001D01*
X138684000Y-108458000D02*
X141637001Y-111411001D01*
X175862999Y-111411001D02*
X177038000Y-110236000D01*
X173933999Y-111411001D02*
X175862999Y-111411001D01*
%TO.N,/PB2*%
X141224000Y-107188000D02*
X135890000Y-101854000D01*
X141224000Y-108458000D02*
X141224000Y-107188000D01*
X175673001Y-109060999D02*
X177038000Y-107696000D01*
X171671999Y-110871000D02*
X173482000Y-109060999D01*
X143637000Y-110871000D02*
X171671999Y-110871000D01*
X141224000Y-108458000D02*
X143637000Y-110871000D01*
X173482000Y-109060999D02*
X175673001Y-109060999D01*
%TO.N,/PB1*%
X143764000Y-107188000D02*
X138430000Y-101854000D01*
X143764000Y-108458000D02*
X143764000Y-107188000D01*
X174028998Y-106426000D02*
X175768000Y-106426000D01*
X173322999Y-107131999D02*
X174028998Y-106426000D01*
X175768000Y-106426000D02*
X177038000Y-105156000D01*
X173322999Y-107347001D02*
X173322999Y-107131999D01*
X145669000Y-110363000D02*
X170307000Y-110363000D01*
X143764000Y-108458000D02*
X145669000Y-110363000D01*
X170307000Y-110363000D02*
X173322999Y-107347001D01*
%TO.N,/PB0*%
X146304000Y-107188000D02*
X140970000Y-101854000D01*
X146304000Y-108458000D02*
X146304000Y-107188000D01*
X172783500Y-105131498D02*
X174123997Y-103791001D01*
X170116500Y-109855000D02*
X172783500Y-107188000D01*
X174123997Y-103791001D02*
X175862999Y-103791001D01*
X172783500Y-107188000D02*
X172783500Y-105131498D01*
X146304000Y-108458000D02*
X147701000Y-109855000D01*
X147701000Y-109855000D02*
X170116500Y-109855000D01*
X175862999Y-103791001D02*
X177038000Y-102616000D01*
%TO.N,Net-(J3-Pad2)*%
X143510000Y-101854000D02*
X140970000Y-99314000D01*
X135636000Y-99314000D02*
X133350000Y-97028000D01*
X140970000Y-99314000D02*
X135636000Y-99314000D01*
%TO.N,CB2*%
X175862999Y-126651001D02*
X177038000Y-125476000D01*
X173895001Y-126651001D02*
X175862999Y-126651001D01*
X166216920Y-118972920D02*
X173895001Y-126651001D01*
X133958920Y-118972920D02*
X166216920Y-118972920D01*
X123444000Y-108458000D02*
X133958920Y-118972920D01*
%TO.N,CB1*%
X173895001Y-124111001D02*
X175862999Y-124111001D01*
X168275000Y-118491000D02*
X173895001Y-124111001D01*
X175862999Y-124111001D02*
X177038000Y-122936000D01*
X136017000Y-118491000D02*
X168275000Y-118491000D01*
X125984000Y-108458000D02*
X136017000Y-118491000D01*
D16*
%TO.N,Net-(J1-Pad29)*%
X156464000Y-132588000D02*
X156464000Y-130048000D01*
%TD*%
D18*
%TO.N,GND*%
X113377353Y-92887000D02*
X181996620Y-92887000D01*
X186894000Y-97784381D01*
X186894001Y-133383647D01*
X186903289Y-133477951D01*
X186889766Y-133615876D01*
X186812551Y-133871624D01*
X186687131Y-134107504D01*
X186518289Y-134314525D01*
X186312446Y-134484813D01*
X186077444Y-134611879D01*
X185822240Y-134690877D01*
X185675291Y-134706322D01*
X185580647Y-134697000D01*
X113377353Y-134697000D01*
X113283044Y-134706289D01*
X113145124Y-134692766D01*
X112889376Y-134615551D01*
X112653496Y-134490131D01*
X112446475Y-134321289D01*
X112276187Y-134115446D01*
X112149121Y-133880444D01*
X112070123Y-133625240D01*
X112054678Y-133478291D01*
X112064000Y-133383647D01*
X112064000Y-111950702D01*
X115772903Y-111950702D01*
X115844486Y-112194671D01*
X116099996Y-112315571D01*
X116374184Y-112384300D01*
X116656512Y-112398217D01*
X116936130Y-112356787D01*
X117202292Y-112261603D01*
X117327514Y-112194671D01*
X117399097Y-111950702D01*
X116586000Y-111137605D01*
X115772903Y-111950702D01*
X112064000Y-111950702D01*
X112064000Y-111028512D01*
X115145783Y-111028512D01*
X115187213Y-111308130D01*
X115282397Y-111574292D01*
X115349329Y-111699514D01*
X115593298Y-111771097D01*
X116406395Y-110958000D01*
X116765605Y-110958000D01*
X117578702Y-111771097D01*
X117822671Y-111699514D01*
X117943571Y-111444004D01*
X118012300Y-111169816D01*
X118026217Y-110887488D01*
X117984787Y-110607870D01*
X117889603Y-110341708D01*
X117822671Y-110216486D01*
X117578702Y-110144903D01*
X116765605Y-110958000D01*
X116406395Y-110958000D01*
X115593298Y-110144903D01*
X115349329Y-110216486D01*
X115228429Y-110471996D01*
X115159700Y-110746184D01*
X115145783Y-111028512D01*
X112064000Y-111028512D01*
X112064000Y-108316665D01*
X115151000Y-108316665D01*
X115151000Y-108599335D01*
X115206147Y-108876574D01*
X115314320Y-109137727D01*
X115471363Y-109372759D01*
X115671241Y-109572637D01*
X115871869Y-109706692D01*
X115844486Y-109721329D01*
X115772903Y-109965298D01*
X116586000Y-110778395D01*
X117399097Y-109965298D01*
X117327514Y-109721329D01*
X117298659Y-109707676D01*
X117500759Y-109572637D01*
X117700637Y-109372759D01*
X117720521Y-109343000D01*
X119769479Y-109343000D01*
X119789363Y-109372759D01*
X119989241Y-109572637D01*
X120019000Y-109592521D01*
X120019001Y-119940502D01*
X119986787Y-119988714D01*
X119908766Y-120177072D01*
X119897457Y-120233926D01*
X118489933Y-121641451D01*
X118456166Y-121669163D01*
X118428453Y-121702931D01*
X118428450Y-121702934D01*
X118345572Y-121803921D01*
X118263394Y-121957667D01*
X118212787Y-122124490D01*
X118195701Y-122297980D01*
X118199983Y-122341459D01*
X118199982Y-128185513D01*
X118195701Y-128228982D01*
X118199982Y-128272451D01*
X118199982Y-128272458D01*
X118205236Y-128325799D01*
X118212787Y-128402472D01*
X118228054Y-128452799D01*
X118263393Y-128569294D01*
X118345571Y-128723040D01*
X118456165Y-128857799D01*
X118489938Y-128885516D01*
X119415928Y-129811507D01*
X119415928Y-130898000D01*
X119428188Y-131022482D01*
X119464498Y-131142180D01*
X119523463Y-131252494D01*
X119602815Y-131349185D01*
X119699506Y-131428537D01*
X119809820Y-131487502D01*
X119882380Y-131509513D01*
X119750525Y-131641368D01*
X119588010Y-131884589D01*
X119476068Y-132154842D01*
X119419000Y-132441740D01*
X119419000Y-132734260D01*
X119476068Y-133021158D01*
X119588010Y-133291411D01*
X119750525Y-133534632D01*
X119957368Y-133741475D01*
X120200589Y-133903990D01*
X120470842Y-134015932D01*
X120757740Y-134073000D01*
X121050260Y-134073000D01*
X121337158Y-134015932D01*
X121607411Y-133903990D01*
X121850632Y-133741475D01*
X122057475Y-133534632D01*
X122179195Y-133352466D01*
X122248822Y-133469355D01*
X122443731Y-133685588D01*
X122677080Y-133859641D01*
X122939901Y-133984825D01*
X123087110Y-134029476D01*
X123317000Y-133908155D01*
X123317000Y-132715000D01*
X123297000Y-132715000D01*
X123297000Y-132461000D01*
X123317000Y-132461000D01*
X123317000Y-130175000D01*
X123297000Y-130175000D01*
X123297000Y-129921000D01*
X123317000Y-129921000D01*
X123317000Y-129901000D01*
X123571000Y-129901000D01*
X123571000Y-129921000D01*
X123591000Y-129921000D01*
X123591000Y-130175000D01*
X123571000Y-130175000D01*
X123571000Y-132461000D01*
X123591000Y-132461000D01*
X123591000Y-132715000D01*
X123571000Y-132715000D01*
X123571000Y-133908155D01*
X123800890Y-134029476D01*
X123948099Y-133984825D01*
X124210920Y-133859641D01*
X124444269Y-133685588D01*
X124639178Y-133469355D01*
X124708805Y-133352466D01*
X124830525Y-133534632D01*
X125037368Y-133741475D01*
X125280589Y-133903990D01*
X125550842Y-134015932D01*
X125837740Y-134073000D01*
X126130260Y-134073000D01*
X126417158Y-134015932D01*
X126687411Y-133903990D01*
X126930632Y-133741475D01*
X127137475Y-133534632D01*
X127254000Y-133360240D01*
X127370525Y-133534632D01*
X127577368Y-133741475D01*
X127820589Y-133903990D01*
X128090842Y-134015932D01*
X128377740Y-134073000D01*
X128670260Y-134073000D01*
X128957158Y-134015932D01*
X129227411Y-133903990D01*
X129470632Y-133741475D01*
X129677475Y-133534632D01*
X129794000Y-133360240D01*
X129910525Y-133534632D01*
X130117368Y-133741475D01*
X130360589Y-133903990D01*
X130630842Y-134015932D01*
X130917740Y-134073000D01*
X131210260Y-134073000D01*
X131497158Y-134015932D01*
X131767411Y-133903990D01*
X132010632Y-133741475D01*
X132217475Y-133534632D01*
X132334000Y-133360240D01*
X132450525Y-133534632D01*
X132657368Y-133741475D01*
X132900589Y-133903990D01*
X133170842Y-134015932D01*
X133457740Y-134073000D01*
X133750260Y-134073000D01*
X134037158Y-134015932D01*
X134307411Y-133903990D01*
X134550632Y-133741475D01*
X134757475Y-133534632D01*
X134874000Y-133360240D01*
X134990525Y-133534632D01*
X135197368Y-133741475D01*
X135440589Y-133903990D01*
X135710842Y-134015932D01*
X135997740Y-134073000D01*
X136290260Y-134073000D01*
X136577158Y-134015932D01*
X136847411Y-133903990D01*
X137090632Y-133741475D01*
X137297475Y-133534632D01*
X137414000Y-133360240D01*
X137530525Y-133534632D01*
X137737368Y-133741475D01*
X137980589Y-133903990D01*
X138250842Y-134015932D01*
X138537740Y-134073000D01*
X138830260Y-134073000D01*
X139117158Y-134015932D01*
X139387411Y-133903990D01*
X139630632Y-133741475D01*
X139837475Y-133534632D01*
X139954000Y-133360240D01*
X140070525Y-133534632D01*
X140277368Y-133741475D01*
X140520589Y-133903990D01*
X140790842Y-134015932D01*
X141077740Y-134073000D01*
X141370260Y-134073000D01*
X141657158Y-134015932D01*
X141927411Y-133903990D01*
X142170632Y-133741475D01*
X142377475Y-133534632D01*
X142494000Y-133360240D01*
X142610525Y-133534632D01*
X142817368Y-133741475D01*
X143060589Y-133903990D01*
X143330842Y-134015932D01*
X143617740Y-134073000D01*
X143910260Y-134073000D01*
X144197158Y-134015932D01*
X144467411Y-133903990D01*
X144710632Y-133741475D01*
X144917475Y-133534632D01*
X145034000Y-133360240D01*
X145150525Y-133534632D01*
X145357368Y-133741475D01*
X145600589Y-133903990D01*
X145870842Y-134015932D01*
X146157740Y-134073000D01*
X146450260Y-134073000D01*
X146737158Y-134015932D01*
X147007411Y-133903990D01*
X147250632Y-133741475D01*
X147457475Y-133534632D01*
X147574000Y-133360240D01*
X147690525Y-133534632D01*
X147897368Y-133741475D01*
X148140589Y-133903990D01*
X148410842Y-134015932D01*
X148697740Y-134073000D01*
X148990260Y-134073000D01*
X149277158Y-134015932D01*
X149547411Y-133903990D01*
X149790632Y-133741475D01*
X149997475Y-133534632D01*
X150114000Y-133360240D01*
X150230525Y-133534632D01*
X150437368Y-133741475D01*
X150680589Y-133903990D01*
X150950842Y-134015932D01*
X151237740Y-134073000D01*
X151530260Y-134073000D01*
X151817158Y-134015932D01*
X152087411Y-133903990D01*
X152330632Y-133741475D01*
X152537475Y-133534632D01*
X152654000Y-133360240D01*
X152770525Y-133534632D01*
X152977368Y-133741475D01*
X153220589Y-133903990D01*
X153490842Y-134015932D01*
X153777740Y-134073000D01*
X154070260Y-134073000D01*
X154357158Y-134015932D01*
X154627411Y-133903990D01*
X154870632Y-133741475D01*
X155077475Y-133534632D01*
X155194000Y-133360240D01*
X155310525Y-133534632D01*
X155517368Y-133741475D01*
X155760589Y-133903990D01*
X156030842Y-134015932D01*
X156317740Y-134073000D01*
X156610260Y-134073000D01*
X156897158Y-134015932D01*
X157167411Y-133903990D01*
X157410632Y-133741475D01*
X157617475Y-133534632D01*
X157739195Y-133352466D01*
X157808822Y-133469355D01*
X158003731Y-133685588D01*
X158237080Y-133859641D01*
X158499901Y-133984825D01*
X158647110Y-134029476D01*
X158877000Y-133908155D01*
X158877000Y-132715000D01*
X159131000Y-132715000D01*
X159131000Y-133908155D01*
X159360890Y-134029476D01*
X159508099Y-133984825D01*
X159770920Y-133859641D01*
X160004269Y-133685588D01*
X160199178Y-133469355D01*
X160348157Y-133219252D01*
X160445481Y-132944891D01*
X160324814Y-132715000D01*
X159131000Y-132715000D01*
X158877000Y-132715000D01*
X158857000Y-132715000D01*
X158857000Y-132461000D01*
X158877000Y-132461000D01*
X158877000Y-130175000D01*
X159131000Y-130175000D01*
X159131000Y-132461000D01*
X160324814Y-132461000D01*
X160445481Y-132231109D01*
X160348157Y-131956748D01*
X160199178Y-131706645D01*
X160004269Y-131490412D01*
X159773120Y-131318000D01*
X160004269Y-131145588D01*
X160199178Y-130929355D01*
X160348157Y-130679252D01*
X160445481Y-130404891D01*
X160324814Y-130175000D01*
X159131000Y-130175000D01*
X158877000Y-130175000D01*
X158857000Y-130175000D01*
X158857000Y-129921000D01*
X158877000Y-129921000D01*
X158877000Y-128727845D01*
X159131000Y-128727845D01*
X159131000Y-129921000D01*
X160324814Y-129921000D01*
X160445481Y-129691109D01*
X160348157Y-129416748D01*
X160199178Y-129166645D01*
X160004269Y-128950412D01*
X159770920Y-128776359D01*
X159508099Y-128651175D01*
X159360890Y-128606524D01*
X159131000Y-128727845D01*
X158877000Y-128727845D01*
X158647110Y-128606524D01*
X158499901Y-128651175D01*
X158237080Y-128776359D01*
X158003731Y-128950412D01*
X157808822Y-129166645D01*
X157739195Y-129283534D01*
X157617475Y-129101368D01*
X157410632Y-128894525D01*
X157167411Y-128732010D01*
X156897158Y-128620068D01*
X156610260Y-128563000D01*
X156317740Y-128563000D01*
X156030842Y-128620068D01*
X155760589Y-128732010D01*
X155517368Y-128894525D01*
X155310525Y-129101368D01*
X155194000Y-129275760D01*
X155077475Y-129101368D01*
X154870632Y-128894525D01*
X154627411Y-128732010D01*
X154357158Y-128620068D01*
X154070260Y-128563000D01*
X153777740Y-128563000D01*
X153490842Y-128620068D01*
X153220589Y-128732010D01*
X152977368Y-128894525D01*
X152770525Y-129101368D01*
X152654000Y-129275760D01*
X152537475Y-129101368D01*
X152330632Y-128894525D01*
X152087411Y-128732010D01*
X151817158Y-128620068D01*
X151530260Y-128563000D01*
X151237740Y-128563000D01*
X150950842Y-128620068D01*
X150680589Y-128732010D01*
X150437368Y-128894525D01*
X150230525Y-129101368D01*
X150114000Y-129275760D01*
X149997475Y-129101368D01*
X149796454Y-128900347D01*
X150323911Y-128372890D01*
X173056524Y-128372890D01*
X173101175Y-128520099D01*
X173226359Y-128782920D01*
X173400412Y-129016269D01*
X173616645Y-129211178D01*
X173866748Y-129360157D01*
X174141109Y-129457481D01*
X174371000Y-129336814D01*
X174371000Y-128143000D01*
X174625000Y-128143000D01*
X174625000Y-129336814D01*
X174854891Y-129457481D01*
X175129252Y-129360157D01*
X175379355Y-129211178D01*
X175595588Y-129016269D01*
X175768000Y-128785120D01*
X175940412Y-129016269D01*
X176156645Y-129211178D01*
X176406748Y-129360157D01*
X176681109Y-129457481D01*
X176911000Y-129336814D01*
X176911000Y-128143000D01*
X177165000Y-128143000D01*
X177165000Y-129336814D01*
X177394891Y-129457481D01*
X177669252Y-129360157D01*
X177919355Y-129211178D01*
X178135588Y-129016269D01*
X178309641Y-128782920D01*
X178434825Y-128520099D01*
X178479476Y-128372890D01*
X178358155Y-128143000D01*
X177165000Y-128143000D01*
X176911000Y-128143000D01*
X174625000Y-128143000D01*
X174371000Y-128143000D01*
X173177845Y-128143000D01*
X173056524Y-128372890D01*
X150323911Y-128372890D01*
X150423799Y-128273003D01*
X150423804Y-128272997D01*
X153600114Y-125096688D01*
X153782665Y-125133000D01*
X154065335Y-125133000D01*
X154342574Y-125077853D01*
X154603727Y-124969680D01*
X154838759Y-124812637D01*
X155038637Y-124612759D01*
X155194000Y-124380241D01*
X155349363Y-124612759D01*
X155549241Y-124812637D01*
X155784273Y-124969680D01*
X156045426Y-125077853D01*
X156322665Y-125133000D01*
X156605335Y-125133000D01*
X156882574Y-125077853D01*
X157143727Y-124969680D01*
X157378759Y-124812637D01*
X157578637Y-124612759D01*
X157734000Y-124380241D01*
X157889363Y-124612759D01*
X158089241Y-124812637D01*
X158324273Y-124969680D01*
X158585426Y-125077853D01*
X158862665Y-125133000D01*
X159145335Y-125133000D01*
X159422574Y-125077853D01*
X159683727Y-124969680D01*
X159918759Y-124812637D01*
X160118637Y-124612759D01*
X160274000Y-124380241D01*
X160429363Y-124612759D01*
X160629241Y-124812637D01*
X160864273Y-124969680D01*
X161125426Y-125077853D01*
X161402665Y-125133000D01*
X161685335Y-125133000D01*
X161962574Y-125077853D01*
X162223727Y-124969680D01*
X162458759Y-124812637D01*
X162658637Y-124612759D01*
X162814000Y-124380241D01*
X162969363Y-124612759D01*
X163169241Y-124812637D01*
X163404273Y-124969680D01*
X163665426Y-125077853D01*
X163942665Y-125133000D01*
X164225335Y-125133000D01*
X164502574Y-125077853D01*
X164763727Y-124969680D01*
X164998759Y-124812637D01*
X165198637Y-124612759D01*
X165354000Y-124380241D01*
X165509363Y-124612759D01*
X165709241Y-124812637D01*
X165944273Y-124969680D01*
X166205426Y-125077853D01*
X166482665Y-125133000D01*
X166765335Y-125133000D01*
X167042574Y-125077853D01*
X167303727Y-124969680D01*
X167538759Y-124812637D01*
X167738637Y-124612759D01*
X167894000Y-124380241D01*
X168049363Y-124612759D01*
X168249241Y-124812637D01*
X168484273Y-124969680D01*
X168745426Y-125077853D01*
X169022665Y-125133000D01*
X169305335Y-125133000D01*
X169582574Y-125077853D01*
X169843727Y-124969680D01*
X170078759Y-124812637D01*
X170278637Y-124612759D01*
X170435680Y-124377727D01*
X170468263Y-124299065D01*
X173308352Y-127139154D01*
X173226359Y-127249080D01*
X173101175Y-127511901D01*
X173056524Y-127659110D01*
X173177845Y-127889000D01*
X174371000Y-127889000D01*
X174371000Y-127869000D01*
X174625000Y-127869000D01*
X174625000Y-127889000D01*
X176911000Y-127889000D01*
X176911000Y-127869000D01*
X177165000Y-127869000D01*
X177165000Y-127889000D01*
X178358155Y-127889000D01*
X178479476Y-127659110D01*
X178434825Y-127511901D01*
X178309641Y-127249080D01*
X178135588Y-127015731D01*
X177919355Y-126820822D01*
X177802466Y-126751195D01*
X177984632Y-126629475D01*
X178191475Y-126422632D01*
X178353990Y-126179411D01*
X178465932Y-125909158D01*
X178523000Y-125622260D01*
X178523000Y-125329740D01*
X178465932Y-125042842D01*
X178353990Y-124772589D01*
X178191475Y-124529368D01*
X177984632Y-124322525D01*
X177810240Y-124206000D01*
X177984632Y-124089475D01*
X178191475Y-123882632D01*
X178353990Y-123639411D01*
X178465932Y-123369158D01*
X178523000Y-123082260D01*
X178523000Y-122789740D01*
X178465932Y-122502842D01*
X178353990Y-122232589D01*
X178191475Y-121989368D01*
X177984632Y-121782525D01*
X177810240Y-121666000D01*
X177984632Y-121549475D01*
X178191475Y-121342632D01*
X178353990Y-121099411D01*
X178465932Y-120829158D01*
X178523000Y-120542260D01*
X178523000Y-120249740D01*
X178465932Y-119962842D01*
X178353990Y-119692589D01*
X178191475Y-119449368D01*
X177984632Y-119242525D01*
X177810240Y-119126000D01*
X177984632Y-119009475D01*
X178191475Y-118802632D01*
X178353990Y-118559411D01*
X178465932Y-118289158D01*
X178523000Y-118002260D01*
X178523000Y-117709740D01*
X178465932Y-117422842D01*
X178353990Y-117152589D01*
X178191475Y-116909368D01*
X177984632Y-116702525D01*
X177810240Y-116586000D01*
X177984632Y-116469475D01*
X178191475Y-116262632D01*
X178353990Y-116019411D01*
X178465932Y-115749158D01*
X178523000Y-115462260D01*
X178523000Y-115169740D01*
X178465932Y-114882842D01*
X178353990Y-114612589D01*
X178191475Y-114369368D01*
X177984632Y-114162525D01*
X177810240Y-114046000D01*
X177984632Y-113929475D01*
X178191475Y-113722632D01*
X178353990Y-113479411D01*
X178465932Y-113209158D01*
X178523000Y-112922260D01*
X178523000Y-112629740D01*
X178465932Y-112342842D01*
X178353990Y-112072589D01*
X178191475Y-111829368D01*
X177984632Y-111622525D01*
X177810240Y-111506000D01*
X177984632Y-111389475D01*
X178191475Y-111182632D01*
X178353990Y-110939411D01*
X178465932Y-110669158D01*
X178523000Y-110382260D01*
X178523000Y-110089740D01*
X178465932Y-109802842D01*
X178353990Y-109532589D01*
X178191475Y-109289368D01*
X177984632Y-109082525D01*
X177810240Y-108966000D01*
X177984632Y-108849475D01*
X178191475Y-108642632D01*
X178353990Y-108399411D01*
X178465932Y-108129158D01*
X178523000Y-107842260D01*
X178523000Y-107549740D01*
X178465932Y-107262842D01*
X178353990Y-106992589D01*
X178191475Y-106749368D01*
X177984632Y-106542525D01*
X177810240Y-106426000D01*
X177984632Y-106309475D01*
X178191475Y-106102632D01*
X178353990Y-105859411D01*
X178465932Y-105589158D01*
X178523000Y-105302260D01*
X178523000Y-105009740D01*
X178465932Y-104722842D01*
X178353990Y-104452589D01*
X178191475Y-104209368D01*
X177984632Y-104002525D01*
X177810240Y-103886000D01*
X177984632Y-103769475D01*
X178191475Y-103562632D01*
X178353990Y-103319411D01*
X178465932Y-103049158D01*
X178523000Y-102762260D01*
X178523000Y-102469740D01*
X178465932Y-102182842D01*
X178353990Y-101912589D01*
X178191475Y-101669368D01*
X177984632Y-101462525D01*
X177810240Y-101346000D01*
X177984632Y-101229475D01*
X178191475Y-101022632D01*
X178353990Y-100779411D01*
X178465932Y-100509158D01*
X178523000Y-100222260D01*
X178523000Y-99929740D01*
X178465932Y-99642842D01*
X178353990Y-99372589D01*
X178191475Y-99129368D01*
X177984632Y-98922525D01*
X177741411Y-98760010D01*
X177471158Y-98648068D01*
X177184260Y-98591000D01*
X176891740Y-98591000D01*
X176604842Y-98648068D01*
X176334589Y-98760010D01*
X176091368Y-98922525D01*
X175959513Y-99054380D01*
X175937502Y-98981820D01*
X175878537Y-98871506D01*
X175799185Y-98774815D01*
X175702494Y-98695463D01*
X175592180Y-98636498D01*
X175472482Y-98600188D01*
X175348000Y-98587928D01*
X174261507Y-98587928D01*
X170455534Y-94781956D01*
X170427817Y-94748183D01*
X170293059Y-94637589D01*
X170139313Y-94555411D01*
X169972490Y-94504805D01*
X169842477Y-94492000D01*
X169842469Y-94492000D01*
X169799000Y-94487719D01*
X169755531Y-94492000D01*
X153840469Y-94492000D01*
X153797000Y-94487719D01*
X153753531Y-94492000D01*
X132504469Y-94492000D01*
X132461000Y-94487719D01*
X132417531Y-94492000D01*
X132417523Y-94492000D01*
X132287510Y-94504805D01*
X132120686Y-94555411D01*
X131966941Y-94637589D01*
X131865953Y-94720468D01*
X131865951Y-94720470D01*
X131832183Y-94748183D01*
X131804470Y-94781951D01*
X131028960Y-95557461D01*
X130956260Y-95543000D01*
X130663740Y-95543000D01*
X130376842Y-95600068D01*
X130106589Y-95712010D01*
X129863368Y-95874525D01*
X129656525Y-96081368D01*
X129615344Y-96143000D01*
X124249465Y-96143000D01*
X124205999Y-96138719D01*
X124162533Y-96143000D01*
X124162523Y-96143000D01*
X124032510Y-96155805D01*
X123865687Y-96206411D01*
X123711941Y-96288589D01*
X123711939Y-96288590D01*
X123711940Y-96288590D01*
X123610953Y-96371468D01*
X123610951Y-96371470D01*
X123577183Y-96399183D01*
X123549470Y-96432951D01*
X115990952Y-103991470D01*
X115957184Y-104019183D01*
X115929471Y-104052951D01*
X115929468Y-104052954D01*
X115846590Y-104153941D01*
X115764412Y-104307687D01*
X115713805Y-104474510D01*
X115696719Y-104648000D01*
X115701001Y-104691479D01*
X115701000Y-107323479D01*
X115671241Y-107343363D01*
X115471363Y-107543241D01*
X115314320Y-107778273D01*
X115206147Y-108039426D01*
X115151000Y-108316665D01*
X112064000Y-108316665D01*
X112064000Y-94200353D01*
X112054711Y-94106043D01*
X112068234Y-93968125D01*
X112145448Y-93712378D01*
X112270869Y-93476496D01*
X112439716Y-93269470D01*
X112645554Y-93099187D01*
X112880556Y-92972121D01*
X113135756Y-92893124D01*
X113282711Y-92877678D01*
X113377353Y-92887000D01*
%TA.AperFunction,Conductor*%
D19*
G36*
X113377353Y-92887000D02*
G01*
X181996620Y-92887000D01*
X186894000Y-97784381D01*
X186894001Y-133383647D01*
X186903289Y-133477951D01*
X186889766Y-133615876D01*
X186812551Y-133871624D01*
X186687131Y-134107504D01*
X186518289Y-134314525D01*
X186312446Y-134484813D01*
X186077444Y-134611879D01*
X185822240Y-134690877D01*
X185675291Y-134706322D01*
X185580647Y-134697000D01*
X113377353Y-134697000D01*
X113283044Y-134706289D01*
X113145124Y-134692766D01*
X112889376Y-134615551D01*
X112653496Y-134490131D01*
X112446475Y-134321289D01*
X112276187Y-134115446D01*
X112149121Y-133880444D01*
X112070123Y-133625240D01*
X112054678Y-133478291D01*
X112064000Y-133383647D01*
X112064000Y-111950702D01*
X115772903Y-111950702D01*
X115844486Y-112194671D01*
X116099996Y-112315571D01*
X116374184Y-112384300D01*
X116656512Y-112398217D01*
X116936130Y-112356787D01*
X117202292Y-112261603D01*
X117327514Y-112194671D01*
X117399097Y-111950702D01*
X116586000Y-111137605D01*
X115772903Y-111950702D01*
X112064000Y-111950702D01*
X112064000Y-111028512D01*
X115145783Y-111028512D01*
X115187213Y-111308130D01*
X115282397Y-111574292D01*
X115349329Y-111699514D01*
X115593298Y-111771097D01*
X116406395Y-110958000D01*
X116765605Y-110958000D01*
X117578702Y-111771097D01*
X117822671Y-111699514D01*
X117943571Y-111444004D01*
X118012300Y-111169816D01*
X118026217Y-110887488D01*
X117984787Y-110607870D01*
X117889603Y-110341708D01*
X117822671Y-110216486D01*
X117578702Y-110144903D01*
X116765605Y-110958000D01*
X116406395Y-110958000D01*
X115593298Y-110144903D01*
X115349329Y-110216486D01*
X115228429Y-110471996D01*
X115159700Y-110746184D01*
X115145783Y-111028512D01*
X112064000Y-111028512D01*
X112064000Y-108316665D01*
X115151000Y-108316665D01*
X115151000Y-108599335D01*
X115206147Y-108876574D01*
X115314320Y-109137727D01*
X115471363Y-109372759D01*
X115671241Y-109572637D01*
X115871869Y-109706692D01*
X115844486Y-109721329D01*
X115772903Y-109965298D01*
X116586000Y-110778395D01*
X117399097Y-109965298D01*
X117327514Y-109721329D01*
X117298659Y-109707676D01*
X117500759Y-109572637D01*
X117700637Y-109372759D01*
X117720521Y-109343000D01*
X119769479Y-109343000D01*
X119789363Y-109372759D01*
X119989241Y-109572637D01*
X120019000Y-109592521D01*
X120019001Y-119940502D01*
X119986787Y-119988714D01*
X119908766Y-120177072D01*
X119897457Y-120233926D01*
X118489933Y-121641451D01*
X118456166Y-121669163D01*
X118428453Y-121702931D01*
X118428450Y-121702934D01*
X118345572Y-121803921D01*
X118263394Y-121957667D01*
X118212787Y-122124490D01*
X118195701Y-122297980D01*
X118199983Y-122341459D01*
X118199982Y-128185513D01*
X118195701Y-128228982D01*
X118199982Y-128272451D01*
X118199982Y-128272458D01*
X118205236Y-128325799D01*
X118212787Y-128402472D01*
X118228054Y-128452799D01*
X118263393Y-128569294D01*
X118345571Y-128723040D01*
X118456165Y-128857799D01*
X118489938Y-128885516D01*
X119415928Y-129811507D01*
X119415928Y-130898000D01*
X119428188Y-131022482D01*
X119464498Y-131142180D01*
X119523463Y-131252494D01*
X119602815Y-131349185D01*
X119699506Y-131428537D01*
X119809820Y-131487502D01*
X119882380Y-131509513D01*
X119750525Y-131641368D01*
X119588010Y-131884589D01*
X119476068Y-132154842D01*
X119419000Y-132441740D01*
X119419000Y-132734260D01*
X119476068Y-133021158D01*
X119588010Y-133291411D01*
X119750525Y-133534632D01*
X119957368Y-133741475D01*
X120200589Y-133903990D01*
X120470842Y-134015932D01*
X120757740Y-134073000D01*
X121050260Y-134073000D01*
X121337158Y-134015932D01*
X121607411Y-133903990D01*
X121850632Y-133741475D01*
X122057475Y-133534632D01*
X122179195Y-133352466D01*
X122248822Y-133469355D01*
X122443731Y-133685588D01*
X122677080Y-133859641D01*
X122939901Y-133984825D01*
X123087110Y-134029476D01*
X123317000Y-133908155D01*
X123317000Y-132715000D01*
X123297000Y-132715000D01*
X123297000Y-132461000D01*
X123317000Y-132461000D01*
X123317000Y-130175000D01*
X123297000Y-130175000D01*
X123297000Y-129921000D01*
X123317000Y-129921000D01*
X123317000Y-129901000D01*
X123571000Y-129901000D01*
X123571000Y-129921000D01*
X123591000Y-129921000D01*
X123591000Y-130175000D01*
X123571000Y-130175000D01*
X123571000Y-132461000D01*
X123591000Y-132461000D01*
X123591000Y-132715000D01*
X123571000Y-132715000D01*
X123571000Y-133908155D01*
X123800890Y-134029476D01*
X123948099Y-133984825D01*
X124210920Y-133859641D01*
X124444269Y-133685588D01*
X124639178Y-133469355D01*
X124708805Y-133352466D01*
X124830525Y-133534632D01*
X125037368Y-133741475D01*
X125280589Y-133903990D01*
X125550842Y-134015932D01*
X125837740Y-134073000D01*
X126130260Y-134073000D01*
X126417158Y-134015932D01*
X126687411Y-133903990D01*
X126930632Y-133741475D01*
X127137475Y-133534632D01*
X127254000Y-133360240D01*
X127370525Y-133534632D01*
X127577368Y-133741475D01*
X127820589Y-133903990D01*
X128090842Y-134015932D01*
X128377740Y-134073000D01*
X128670260Y-134073000D01*
X128957158Y-134015932D01*
X129227411Y-133903990D01*
X129470632Y-133741475D01*
X129677475Y-133534632D01*
X129794000Y-133360240D01*
X129910525Y-133534632D01*
X130117368Y-133741475D01*
X130360589Y-133903990D01*
X130630842Y-134015932D01*
X130917740Y-134073000D01*
X131210260Y-134073000D01*
X131497158Y-134015932D01*
X131767411Y-133903990D01*
X132010632Y-133741475D01*
X132217475Y-133534632D01*
X132334000Y-133360240D01*
X132450525Y-133534632D01*
X132657368Y-133741475D01*
X132900589Y-133903990D01*
X133170842Y-134015932D01*
X133457740Y-134073000D01*
X133750260Y-134073000D01*
X134037158Y-134015932D01*
X134307411Y-133903990D01*
X134550632Y-133741475D01*
X134757475Y-133534632D01*
X134874000Y-133360240D01*
X134990525Y-133534632D01*
X135197368Y-133741475D01*
X135440589Y-133903990D01*
X135710842Y-134015932D01*
X135997740Y-134073000D01*
X136290260Y-134073000D01*
X136577158Y-134015932D01*
X136847411Y-133903990D01*
X137090632Y-133741475D01*
X137297475Y-133534632D01*
X137414000Y-133360240D01*
X137530525Y-133534632D01*
X137737368Y-133741475D01*
X137980589Y-133903990D01*
X138250842Y-134015932D01*
X138537740Y-134073000D01*
X138830260Y-134073000D01*
X139117158Y-134015932D01*
X139387411Y-133903990D01*
X139630632Y-133741475D01*
X139837475Y-133534632D01*
X139954000Y-133360240D01*
X140070525Y-133534632D01*
X140277368Y-133741475D01*
X140520589Y-133903990D01*
X140790842Y-134015932D01*
X141077740Y-134073000D01*
X141370260Y-134073000D01*
X141657158Y-134015932D01*
X141927411Y-133903990D01*
X142170632Y-133741475D01*
X142377475Y-133534632D01*
X142494000Y-133360240D01*
X142610525Y-133534632D01*
X142817368Y-133741475D01*
X143060589Y-133903990D01*
X143330842Y-134015932D01*
X143617740Y-134073000D01*
X143910260Y-134073000D01*
X144197158Y-134015932D01*
X144467411Y-133903990D01*
X144710632Y-133741475D01*
X144917475Y-133534632D01*
X145034000Y-133360240D01*
X145150525Y-133534632D01*
X145357368Y-133741475D01*
X145600589Y-133903990D01*
X145870842Y-134015932D01*
X146157740Y-134073000D01*
X146450260Y-134073000D01*
X146737158Y-134015932D01*
X147007411Y-133903990D01*
X147250632Y-133741475D01*
X147457475Y-133534632D01*
X147574000Y-133360240D01*
X147690525Y-133534632D01*
X147897368Y-133741475D01*
X148140589Y-133903990D01*
X148410842Y-134015932D01*
X148697740Y-134073000D01*
X148990260Y-134073000D01*
X149277158Y-134015932D01*
X149547411Y-133903990D01*
X149790632Y-133741475D01*
X149997475Y-133534632D01*
X150114000Y-133360240D01*
X150230525Y-133534632D01*
X150437368Y-133741475D01*
X150680589Y-133903990D01*
X150950842Y-134015932D01*
X151237740Y-134073000D01*
X151530260Y-134073000D01*
X151817158Y-134015932D01*
X152087411Y-133903990D01*
X152330632Y-133741475D01*
X152537475Y-133534632D01*
X152654000Y-133360240D01*
X152770525Y-133534632D01*
X152977368Y-133741475D01*
X153220589Y-133903990D01*
X153490842Y-134015932D01*
X153777740Y-134073000D01*
X154070260Y-134073000D01*
X154357158Y-134015932D01*
X154627411Y-133903990D01*
X154870632Y-133741475D01*
X155077475Y-133534632D01*
X155194000Y-133360240D01*
X155310525Y-133534632D01*
X155517368Y-133741475D01*
X155760589Y-133903990D01*
X156030842Y-134015932D01*
X156317740Y-134073000D01*
X156610260Y-134073000D01*
X156897158Y-134015932D01*
X157167411Y-133903990D01*
X157410632Y-133741475D01*
X157617475Y-133534632D01*
X157739195Y-133352466D01*
X157808822Y-133469355D01*
X158003731Y-133685588D01*
X158237080Y-133859641D01*
X158499901Y-133984825D01*
X158647110Y-134029476D01*
X158877000Y-133908155D01*
X158877000Y-132715000D01*
X159131000Y-132715000D01*
X159131000Y-133908155D01*
X159360890Y-134029476D01*
X159508099Y-133984825D01*
X159770920Y-133859641D01*
X160004269Y-133685588D01*
X160199178Y-133469355D01*
X160348157Y-133219252D01*
X160445481Y-132944891D01*
X160324814Y-132715000D01*
X159131000Y-132715000D01*
X158877000Y-132715000D01*
X158857000Y-132715000D01*
X158857000Y-132461000D01*
X158877000Y-132461000D01*
X158877000Y-130175000D01*
X159131000Y-130175000D01*
X159131000Y-132461000D01*
X160324814Y-132461000D01*
X160445481Y-132231109D01*
X160348157Y-131956748D01*
X160199178Y-131706645D01*
X160004269Y-131490412D01*
X159773120Y-131318000D01*
X160004269Y-131145588D01*
X160199178Y-130929355D01*
X160348157Y-130679252D01*
X160445481Y-130404891D01*
X160324814Y-130175000D01*
X159131000Y-130175000D01*
X158877000Y-130175000D01*
X158857000Y-130175000D01*
X158857000Y-129921000D01*
X158877000Y-129921000D01*
X158877000Y-128727845D01*
X159131000Y-128727845D01*
X159131000Y-129921000D01*
X160324814Y-129921000D01*
X160445481Y-129691109D01*
X160348157Y-129416748D01*
X160199178Y-129166645D01*
X160004269Y-128950412D01*
X159770920Y-128776359D01*
X159508099Y-128651175D01*
X159360890Y-128606524D01*
X159131000Y-128727845D01*
X158877000Y-128727845D01*
X158647110Y-128606524D01*
X158499901Y-128651175D01*
X158237080Y-128776359D01*
X158003731Y-128950412D01*
X157808822Y-129166645D01*
X157739195Y-129283534D01*
X157617475Y-129101368D01*
X157410632Y-128894525D01*
X157167411Y-128732010D01*
X156897158Y-128620068D01*
X156610260Y-128563000D01*
X156317740Y-128563000D01*
X156030842Y-128620068D01*
X155760589Y-128732010D01*
X155517368Y-128894525D01*
X155310525Y-129101368D01*
X155194000Y-129275760D01*
X155077475Y-129101368D01*
X154870632Y-128894525D01*
X154627411Y-128732010D01*
X154357158Y-128620068D01*
X154070260Y-128563000D01*
X153777740Y-128563000D01*
X153490842Y-128620068D01*
X153220589Y-128732010D01*
X152977368Y-128894525D01*
X152770525Y-129101368D01*
X152654000Y-129275760D01*
X152537475Y-129101368D01*
X152330632Y-128894525D01*
X152087411Y-128732010D01*
X151817158Y-128620068D01*
X151530260Y-128563000D01*
X151237740Y-128563000D01*
X150950842Y-128620068D01*
X150680589Y-128732010D01*
X150437368Y-128894525D01*
X150230525Y-129101368D01*
X150114000Y-129275760D01*
X149997475Y-129101368D01*
X149796454Y-128900347D01*
X150323911Y-128372890D01*
X173056524Y-128372890D01*
X173101175Y-128520099D01*
X173226359Y-128782920D01*
X173400412Y-129016269D01*
X173616645Y-129211178D01*
X173866748Y-129360157D01*
X174141109Y-129457481D01*
X174371000Y-129336814D01*
X174371000Y-128143000D01*
X174625000Y-128143000D01*
X174625000Y-129336814D01*
X174854891Y-129457481D01*
X175129252Y-129360157D01*
X175379355Y-129211178D01*
X175595588Y-129016269D01*
X175768000Y-128785120D01*
X175940412Y-129016269D01*
X176156645Y-129211178D01*
X176406748Y-129360157D01*
X176681109Y-129457481D01*
X176911000Y-129336814D01*
X176911000Y-128143000D01*
X177165000Y-128143000D01*
X177165000Y-129336814D01*
X177394891Y-129457481D01*
X177669252Y-129360157D01*
X177919355Y-129211178D01*
X178135588Y-129016269D01*
X178309641Y-128782920D01*
X178434825Y-128520099D01*
X178479476Y-128372890D01*
X178358155Y-128143000D01*
X177165000Y-128143000D01*
X176911000Y-128143000D01*
X174625000Y-128143000D01*
X174371000Y-128143000D01*
X173177845Y-128143000D01*
X173056524Y-128372890D01*
X150323911Y-128372890D01*
X150423799Y-128273003D01*
X150423804Y-128272997D01*
X153600114Y-125096688D01*
X153782665Y-125133000D01*
X154065335Y-125133000D01*
X154342574Y-125077853D01*
X154603727Y-124969680D01*
X154838759Y-124812637D01*
X155038637Y-124612759D01*
X155194000Y-124380241D01*
X155349363Y-124612759D01*
X155549241Y-124812637D01*
X155784273Y-124969680D01*
X156045426Y-125077853D01*
X156322665Y-125133000D01*
X156605335Y-125133000D01*
X156882574Y-125077853D01*
X157143727Y-124969680D01*
X157378759Y-124812637D01*
X157578637Y-124612759D01*
X157734000Y-124380241D01*
X157889363Y-124612759D01*
X158089241Y-124812637D01*
X158324273Y-124969680D01*
X158585426Y-125077853D01*
X158862665Y-125133000D01*
X159145335Y-125133000D01*
X159422574Y-125077853D01*
X159683727Y-124969680D01*
X159918759Y-124812637D01*
X160118637Y-124612759D01*
X160274000Y-124380241D01*
X160429363Y-124612759D01*
X160629241Y-124812637D01*
X160864273Y-124969680D01*
X161125426Y-125077853D01*
X161402665Y-125133000D01*
X161685335Y-125133000D01*
X161962574Y-125077853D01*
X162223727Y-124969680D01*
X162458759Y-124812637D01*
X162658637Y-124612759D01*
X162814000Y-124380241D01*
X162969363Y-124612759D01*
X163169241Y-124812637D01*
X163404273Y-124969680D01*
X163665426Y-125077853D01*
X163942665Y-125133000D01*
X164225335Y-125133000D01*
X164502574Y-125077853D01*
X164763727Y-124969680D01*
X164998759Y-124812637D01*
X165198637Y-124612759D01*
X165354000Y-124380241D01*
X165509363Y-124612759D01*
X165709241Y-124812637D01*
X165944273Y-124969680D01*
X166205426Y-125077853D01*
X166482665Y-125133000D01*
X166765335Y-125133000D01*
X167042574Y-125077853D01*
X167303727Y-124969680D01*
X167538759Y-124812637D01*
X167738637Y-124612759D01*
X167894000Y-124380241D01*
X168049363Y-124612759D01*
X168249241Y-124812637D01*
X168484273Y-124969680D01*
X168745426Y-125077853D01*
X169022665Y-125133000D01*
X169305335Y-125133000D01*
X169582574Y-125077853D01*
X169843727Y-124969680D01*
X170078759Y-124812637D01*
X170278637Y-124612759D01*
X170435680Y-124377727D01*
X170468263Y-124299065D01*
X173308352Y-127139154D01*
X173226359Y-127249080D01*
X173101175Y-127511901D01*
X173056524Y-127659110D01*
X173177845Y-127889000D01*
X174371000Y-127889000D01*
X174371000Y-127869000D01*
X174625000Y-127869000D01*
X174625000Y-127889000D01*
X176911000Y-127889000D01*
X176911000Y-127869000D01*
X177165000Y-127869000D01*
X177165000Y-127889000D01*
X178358155Y-127889000D01*
X178479476Y-127659110D01*
X178434825Y-127511901D01*
X178309641Y-127249080D01*
X178135588Y-127015731D01*
X177919355Y-126820822D01*
X177802466Y-126751195D01*
X177984632Y-126629475D01*
X178191475Y-126422632D01*
X178353990Y-126179411D01*
X178465932Y-125909158D01*
X178523000Y-125622260D01*
X178523000Y-125329740D01*
X178465932Y-125042842D01*
X178353990Y-124772589D01*
X178191475Y-124529368D01*
X177984632Y-124322525D01*
X177810240Y-124206000D01*
X177984632Y-124089475D01*
X178191475Y-123882632D01*
X178353990Y-123639411D01*
X178465932Y-123369158D01*
X178523000Y-123082260D01*
X178523000Y-122789740D01*
X178465932Y-122502842D01*
X178353990Y-122232589D01*
X178191475Y-121989368D01*
X177984632Y-121782525D01*
X177810240Y-121666000D01*
X177984632Y-121549475D01*
X178191475Y-121342632D01*
X178353990Y-121099411D01*
X178465932Y-120829158D01*
X178523000Y-120542260D01*
X178523000Y-120249740D01*
X178465932Y-119962842D01*
X178353990Y-119692589D01*
X178191475Y-119449368D01*
X177984632Y-119242525D01*
X177810240Y-119126000D01*
X177984632Y-119009475D01*
X178191475Y-118802632D01*
X178353990Y-118559411D01*
X178465932Y-118289158D01*
X178523000Y-118002260D01*
X178523000Y-117709740D01*
X178465932Y-117422842D01*
X178353990Y-117152589D01*
X178191475Y-116909368D01*
X177984632Y-116702525D01*
X177810240Y-116586000D01*
X177984632Y-116469475D01*
X178191475Y-116262632D01*
X178353990Y-116019411D01*
X178465932Y-115749158D01*
X178523000Y-115462260D01*
X178523000Y-115169740D01*
X178465932Y-114882842D01*
X178353990Y-114612589D01*
X178191475Y-114369368D01*
X177984632Y-114162525D01*
X177810240Y-114046000D01*
X177984632Y-113929475D01*
X178191475Y-113722632D01*
X178353990Y-113479411D01*
X178465932Y-113209158D01*
X178523000Y-112922260D01*
X178523000Y-112629740D01*
X178465932Y-112342842D01*
X178353990Y-112072589D01*
X178191475Y-111829368D01*
X177984632Y-111622525D01*
X177810240Y-111506000D01*
X177984632Y-111389475D01*
X178191475Y-111182632D01*
X178353990Y-110939411D01*
X178465932Y-110669158D01*
X178523000Y-110382260D01*
X178523000Y-110089740D01*
X178465932Y-109802842D01*
X178353990Y-109532589D01*
X178191475Y-109289368D01*
X177984632Y-109082525D01*
X177810240Y-108966000D01*
X177984632Y-108849475D01*
X178191475Y-108642632D01*
X178353990Y-108399411D01*
X178465932Y-108129158D01*
X178523000Y-107842260D01*
X178523000Y-107549740D01*
X178465932Y-107262842D01*
X178353990Y-106992589D01*
X178191475Y-106749368D01*
X177984632Y-106542525D01*
X177810240Y-106426000D01*
X177984632Y-106309475D01*
X178191475Y-106102632D01*
X178353990Y-105859411D01*
X178465932Y-105589158D01*
X178523000Y-105302260D01*
X178523000Y-105009740D01*
X178465932Y-104722842D01*
X178353990Y-104452589D01*
X178191475Y-104209368D01*
X177984632Y-104002525D01*
X177810240Y-103886000D01*
X177984632Y-103769475D01*
X178191475Y-103562632D01*
X178353990Y-103319411D01*
X178465932Y-103049158D01*
X178523000Y-102762260D01*
X178523000Y-102469740D01*
X178465932Y-102182842D01*
X178353990Y-101912589D01*
X178191475Y-101669368D01*
X177984632Y-101462525D01*
X177810240Y-101346000D01*
X177984632Y-101229475D01*
X178191475Y-101022632D01*
X178353990Y-100779411D01*
X178465932Y-100509158D01*
X178523000Y-100222260D01*
X178523000Y-99929740D01*
X178465932Y-99642842D01*
X178353990Y-99372589D01*
X178191475Y-99129368D01*
X177984632Y-98922525D01*
X177741411Y-98760010D01*
X177471158Y-98648068D01*
X177184260Y-98591000D01*
X176891740Y-98591000D01*
X176604842Y-98648068D01*
X176334589Y-98760010D01*
X176091368Y-98922525D01*
X175959513Y-99054380D01*
X175937502Y-98981820D01*
X175878537Y-98871506D01*
X175799185Y-98774815D01*
X175702494Y-98695463D01*
X175592180Y-98636498D01*
X175472482Y-98600188D01*
X175348000Y-98587928D01*
X174261507Y-98587928D01*
X170455534Y-94781956D01*
X170427817Y-94748183D01*
X170293059Y-94637589D01*
X170139313Y-94555411D01*
X169972490Y-94504805D01*
X169842477Y-94492000D01*
X169842469Y-94492000D01*
X169799000Y-94487719D01*
X169755531Y-94492000D01*
X153840469Y-94492000D01*
X153797000Y-94487719D01*
X153753531Y-94492000D01*
X132504469Y-94492000D01*
X132461000Y-94487719D01*
X132417531Y-94492000D01*
X132417523Y-94492000D01*
X132287510Y-94504805D01*
X132120686Y-94555411D01*
X131966941Y-94637589D01*
X131865953Y-94720468D01*
X131865951Y-94720470D01*
X131832183Y-94748183D01*
X131804470Y-94781951D01*
X131028960Y-95557461D01*
X130956260Y-95543000D01*
X130663740Y-95543000D01*
X130376842Y-95600068D01*
X130106589Y-95712010D01*
X129863368Y-95874525D01*
X129656525Y-96081368D01*
X129615344Y-96143000D01*
X124249465Y-96143000D01*
X124205999Y-96138719D01*
X124162533Y-96143000D01*
X124162523Y-96143000D01*
X124032510Y-96155805D01*
X123865687Y-96206411D01*
X123711941Y-96288589D01*
X123711939Y-96288590D01*
X123711940Y-96288590D01*
X123610953Y-96371468D01*
X123610951Y-96371470D01*
X123577183Y-96399183D01*
X123549470Y-96432951D01*
X115990952Y-103991470D01*
X115957184Y-104019183D01*
X115929471Y-104052951D01*
X115929468Y-104052954D01*
X115846590Y-104153941D01*
X115764412Y-104307687D01*
X115713805Y-104474510D01*
X115696719Y-104648000D01*
X115701001Y-104691479D01*
X115701000Y-107323479D01*
X115671241Y-107343363D01*
X115471363Y-107543241D01*
X115314320Y-107778273D01*
X115206147Y-108039426D01*
X115151000Y-108316665D01*
X112064000Y-108316665D01*
X112064000Y-94200353D01*
X112054711Y-94106043D01*
X112068234Y-93968125D01*
X112145448Y-93712378D01*
X112270869Y-93476496D01*
X112439716Y-93269470D01*
X112645554Y-93099187D01*
X112880556Y-92972121D01*
X113135756Y-92893124D01*
X113282711Y-92877678D01*
X113377353Y-92887000D01*
G37*
%TD.AperFunction*%
D18*
X173009928Y-99839507D02*
X173009928Y-100926000D01*
X173022188Y-101050482D01*
X173058498Y-101170180D01*
X173117463Y-101280494D01*
X173196815Y-101377185D01*
X173293506Y-101456537D01*
X173403820Y-101515502D01*
X173476380Y-101537513D01*
X173344525Y-101669368D01*
X173182010Y-101912589D01*
X173070068Y-102182842D01*
X173013000Y-102469740D01*
X173013000Y-102762260D01*
X173070068Y-103049158D01*
X173182010Y-103319411D01*
X173317704Y-103522492D01*
X172272498Y-104567699D01*
X172243500Y-104591497D01*
X172219702Y-104620495D01*
X172219701Y-104620496D01*
X172148526Y-104707222D01*
X172077954Y-104839252D01*
X172034498Y-104982513D01*
X172019824Y-105131498D01*
X172023501Y-105168830D01*
X172023500Y-106873198D01*
X170565701Y-108330998D01*
X170440252Y-108330998D01*
X170599000Y-108172250D01*
X170602072Y-107658000D01*
X170589812Y-107533518D01*
X170553502Y-107413820D01*
X170494537Y-107303506D01*
X170415185Y-107206815D01*
X170318494Y-107127463D01*
X170208180Y-107068498D01*
X170088482Y-107032188D01*
X169964000Y-107019928D01*
X169449750Y-107023000D01*
X169291000Y-107181750D01*
X169291000Y-108331000D01*
X169311000Y-108331000D01*
X169311000Y-108585000D01*
X169291000Y-108585000D01*
X169291000Y-108605000D01*
X169037000Y-108605000D01*
X169037000Y-108585000D01*
X169017000Y-108585000D01*
X169017000Y-108331000D01*
X169037000Y-108331000D01*
X169037000Y-107181750D01*
X168878250Y-107023000D01*
X168364000Y-107019928D01*
X168239518Y-107032188D01*
X168119820Y-107068498D01*
X168009506Y-107127463D01*
X167912815Y-107206815D01*
X167833463Y-107303506D01*
X167774498Y-107413820D01*
X167738188Y-107533518D01*
X167737357Y-107541961D01*
X167538759Y-107343363D01*
X167384000Y-107239957D01*
X167384000Y-103292072D01*
X168948000Y-103292072D01*
X169072482Y-103279812D01*
X169192180Y-103243502D01*
X169302494Y-103184537D01*
X169399185Y-103105185D01*
X169478537Y-103008494D01*
X169537502Y-102898180D01*
X169573812Y-102778482D01*
X169586072Y-102654000D01*
X169586072Y-101054000D01*
X169573812Y-100929518D01*
X169537502Y-100809820D01*
X169478537Y-100699506D01*
X169399185Y-100602815D01*
X169302494Y-100523463D01*
X169192180Y-100464498D01*
X169072482Y-100428188D01*
X168948000Y-100415928D01*
X167784730Y-100415928D01*
X166044804Y-98676003D01*
X166021001Y-98646999D01*
X165905276Y-98552026D01*
X165773247Y-98481454D01*
X165629986Y-98437997D01*
X165518333Y-98427000D01*
X165518322Y-98427000D01*
X165481000Y-98423324D01*
X165443678Y-98427000D01*
X161697953Y-98427000D01*
X161732494Y-98408537D01*
X161829185Y-98329185D01*
X161908537Y-98232494D01*
X161967502Y-98122180D01*
X162003812Y-98002482D01*
X162016072Y-97878000D01*
X162013000Y-97313750D01*
X161854250Y-97155000D01*
X160655000Y-97155000D01*
X160655000Y-97175000D01*
X160401000Y-97175000D01*
X160401000Y-97155000D01*
X160381000Y-97155000D01*
X160381000Y-96901000D01*
X160401000Y-96901000D01*
X160401000Y-96881000D01*
X160655000Y-96881000D01*
X160655000Y-96901000D01*
X161854250Y-96901000D01*
X162013000Y-96742250D01*
X162015615Y-96262000D01*
X169432422Y-96262000D01*
X173009928Y-99839507D01*
%TA.AperFunction,Conductor*%
D19*
G36*
X173009928Y-99839507D02*
G01*
X173009928Y-100926000D01*
X173022188Y-101050482D01*
X173058498Y-101170180D01*
X173117463Y-101280494D01*
X173196815Y-101377185D01*
X173293506Y-101456537D01*
X173403820Y-101515502D01*
X173476380Y-101537513D01*
X173344525Y-101669368D01*
X173182010Y-101912589D01*
X173070068Y-102182842D01*
X173013000Y-102469740D01*
X173013000Y-102762260D01*
X173070068Y-103049158D01*
X173182010Y-103319411D01*
X173317704Y-103522492D01*
X172272498Y-104567699D01*
X172243500Y-104591497D01*
X172219702Y-104620495D01*
X172219701Y-104620496D01*
X172148526Y-104707222D01*
X172077954Y-104839252D01*
X172034498Y-104982513D01*
X172019824Y-105131498D01*
X172023501Y-105168830D01*
X172023500Y-106873198D01*
X170565701Y-108330998D01*
X170440252Y-108330998D01*
X170599000Y-108172250D01*
X170602072Y-107658000D01*
X170589812Y-107533518D01*
X170553502Y-107413820D01*
X170494537Y-107303506D01*
X170415185Y-107206815D01*
X170318494Y-107127463D01*
X170208180Y-107068498D01*
X170088482Y-107032188D01*
X169964000Y-107019928D01*
X169449750Y-107023000D01*
X169291000Y-107181750D01*
X169291000Y-108331000D01*
X169311000Y-108331000D01*
X169311000Y-108585000D01*
X169291000Y-108585000D01*
X169291000Y-108605000D01*
X169037000Y-108605000D01*
X169037000Y-108585000D01*
X169017000Y-108585000D01*
X169017000Y-108331000D01*
X169037000Y-108331000D01*
X169037000Y-107181750D01*
X168878250Y-107023000D01*
X168364000Y-107019928D01*
X168239518Y-107032188D01*
X168119820Y-107068498D01*
X168009506Y-107127463D01*
X167912815Y-107206815D01*
X167833463Y-107303506D01*
X167774498Y-107413820D01*
X167738188Y-107533518D01*
X167737357Y-107541961D01*
X167538759Y-107343363D01*
X167384000Y-107239957D01*
X167384000Y-103292072D01*
X168948000Y-103292072D01*
X169072482Y-103279812D01*
X169192180Y-103243502D01*
X169302494Y-103184537D01*
X169399185Y-103105185D01*
X169478537Y-103008494D01*
X169537502Y-102898180D01*
X169573812Y-102778482D01*
X169586072Y-102654000D01*
X169586072Y-101054000D01*
X169573812Y-100929518D01*
X169537502Y-100809820D01*
X169478537Y-100699506D01*
X169399185Y-100602815D01*
X169302494Y-100523463D01*
X169192180Y-100464498D01*
X169072482Y-100428188D01*
X168948000Y-100415928D01*
X167784730Y-100415928D01*
X166044804Y-98676003D01*
X166021001Y-98646999D01*
X165905276Y-98552026D01*
X165773247Y-98481454D01*
X165629986Y-98437997D01*
X165518333Y-98427000D01*
X165518322Y-98427000D01*
X165481000Y-98423324D01*
X165443678Y-98427000D01*
X161697953Y-98427000D01*
X161732494Y-98408537D01*
X161829185Y-98329185D01*
X161908537Y-98232494D01*
X161967502Y-98122180D01*
X162003812Y-98002482D01*
X162016072Y-97878000D01*
X162013000Y-97313750D01*
X161854250Y-97155000D01*
X160655000Y-97155000D01*
X160655000Y-97175000D01*
X160401000Y-97175000D01*
X160401000Y-97155000D01*
X160381000Y-97155000D01*
X160381000Y-96901000D01*
X160401000Y-96901000D01*
X160401000Y-96881000D01*
X160655000Y-96881000D01*
X160655000Y-96901000D01*
X161854250Y-96901000D01*
X162013000Y-96742250D01*
X162015615Y-96262000D01*
X169432422Y-96262000D01*
X173009928Y-99839507D01*
G37*
%TD.AperFunction*%
D18*
X153977461Y-96809040D02*
X153963000Y-96881740D01*
X153963000Y-97174260D01*
X154020068Y-97461158D01*
X154132010Y-97731411D01*
X154294525Y-97974632D01*
X154501368Y-98181475D01*
X154744589Y-98343990D01*
X155014842Y-98455932D01*
X155301740Y-98513000D01*
X155594260Y-98513000D01*
X155881158Y-98455932D01*
X156151411Y-98343990D01*
X156394632Y-98181475D01*
X156601475Y-97974632D01*
X156718000Y-97800240D01*
X156834525Y-97974632D01*
X157041368Y-98181475D01*
X157284589Y-98343990D01*
X157554842Y-98455932D01*
X157841740Y-98513000D01*
X158134260Y-98513000D01*
X158354408Y-98469209D01*
X159583200Y-99698002D01*
X159606999Y-99727001D01*
X159635997Y-99750799D01*
X159722723Y-99821974D01*
X159854753Y-99892546D01*
X159998014Y-99936003D01*
X160109667Y-99947000D01*
X160109676Y-99947000D01*
X160146999Y-99950676D01*
X160184322Y-99947000D01*
X165166199Y-99947000D01*
X165638199Y-100419000D01*
X165466665Y-100419000D01*
X165189426Y-100474147D01*
X164928273Y-100582320D01*
X164693241Y-100739363D01*
X164493363Y-100939241D01*
X164338000Y-101171759D01*
X164182637Y-100939241D01*
X163982759Y-100739363D01*
X163747727Y-100582320D01*
X163486574Y-100474147D01*
X163209335Y-100419000D01*
X162926665Y-100419000D01*
X162649426Y-100474147D01*
X162388273Y-100582320D01*
X162153241Y-100739363D01*
X161953363Y-100939241D01*
X161798000Y-101171759D01*
X161642637Y-100939241D01*
X161442759Y-100739363D01*
X161207727Y-100582320D01*
X160946574Y-100474147D01*
X160669335Y-100419000D01*
X160386665Y-100419000D01*
X160109426Y-100474147D01*
X159848273Y-100582320D01*
X159613241Y-100739363D01*
X159413363Y-100939241D01*
X159258000Y-101171759D01*
X159102637Y-100939241D01*
X158902759Y-100739363D01*
X158667727Y-100582320D01*
X158406574Y-100474147D01*
X158129335Y-100419000D01*
X157846665Y-100419000D01*
X157569426Y-100474147D01*
X157308273Y-100582320D01*
X157073241Y-100739363D01*
X156873363Y-100939241D01*
X156718000Y-101171759D01*
X156562637Y-100939241D01*
X156362759Y-100739363D01*
X156127727Y-100582320D01*
X155866574Y-100474147D01*
X155589335Y-100419000D01*
X155306665Y-100419000D01*
X155029426Y-100474147D01*
X154768273Y-100582320D01*
X154533241Y-100739363D01*
X154333363Y-100939241D01*
X154178000Y-101171759D01*
X154022637Y-100939241D01*
X153822759Y-100739363D01*
X153587727Y-100582320D01*
X153326574Y-100474147D01*
X153049335Y-100419000D01*
X152766665Y-100419000D01*
X152489426Y-100474147D01*
X152228273Y-100582320D01*
X151993241Y-100739363D01*
X151793363Y-100939241D01*
X151638000Y-101171759D01*
X151482637Y-100939241D01*
X151282759Y-100739363D01*
X151047727Y-100582320D01*
X150786574Y-100474147D01*
X150509335Y-100419000D01*
X150226665Y-100419000D01*
X149949426Y-100474147D01*
X149688273Y-100582320D01*
X149453241Y-100739363D01*
X149253363Y-100939241D01*
X149098000Y-101171759D01*
X148942637Y-100939241D01*
X148742759Y-100739363D01*
X148507727Y-100582320D01*
X148246574Y-100474147D01*
X147969335Y-100419000D01*
X147686665Y-100419000D01*
X147409426Y-100474147D01*
X147148273Y-100582320D01*
X146913241Y-100739363D01*
X146713363Y-100939241D01*
X146556320Y-101174273D01*
X146448147Y-101435426D01*
X146393000Y-101712665D01*
X146393000Y-101995335D01*
X146448147Y-102272574D01*
X146556320Y-102533727D01*
X146713363Y-102768759D01*
X146913241Y-102968637D01*
X147148273Y-103125680D01*
X147409426Y-103233853D01*
X147686665Y-103289000D01*
X147969335Y-103289000D01*
X148084001Y-103266191D01*
X148084000Y-107239956D01*
X147929241Y-107343363D01*
X147729363Y-107543241D01*
X147574000Y-107775759D01*
X147418637Y-107543241D01*
X147218759Y-107343363D01*
X147064000Y-107239957D01*
X147064000Y-107225322D01*
X147067676Y-107187999D01*
X147064000Y-107150676D01*
X147064000Y-107150667D01*
X147053003Y-107039014D01*
X147009546Y-106895753D01*
X146979613Y-106839753D01*
X146938974Y-106763723D01*
X146867799Y-106676997D01*
X146844001Y-106647999D01*
X146815003Y-106624201D01*
X143482873Y-103292072D01*
X144310000Y-103292072D01*
X144434482Y-103279812D01*
X144554180Y-103243502D01*
X144664494Y-103184537D01*
X144761185Y-103105185D01*
X144840537Y-103008494D01*
X144899502Y-102898180D01*
X144935812Y-102778482D01*
X144948072Y-102654000D01*
X144948072Y-101054000D01*
X144935812Y-100929518D01*
X144899502Y-100809820D01*
X144840537Y-100699506D01*
X144761185Y-100602815D01*
X144664494Y-100523463D01*
X144554180Y-100464498D01*
X144434482Y-100428188D01*
X144310000Y-100415928D01*
X143146730Y-100415928D01*
X141533804Y-98803003D01*
X141510001Y-98773999D01*
X141394276Y-98679026D01*
X141262247Y-98608454D01*
X141118986Y-98564997D01*
X141007333Y-98554000D01*
X141007322Y-98554000D01*
X140970000Y-98550324D01*
X140932678Y-98554000D01*
X135950802Y-98554000D01*
X135909802Y-98513000D01*
X136017002Y-98513000D01*
X136017002Y-98354252D01*
X136175750Y-98513000D01*
X136740000Y-98516072D01*
X136864482Y-98503812D01*
X136984180Y-98467502D01*
X137094494Y-98408537D01*
X137191185Y-98329185D01*
X137270537Y-98232494D01*
X137329502Y-98122180D01*
X137365812Y-98002482D01*
X137378072Y-97878000D01*
X137375000Y-97313750D01*
X137216250Y-97155000D01*
X136017000Y-97155000D01*
X136017000Y-97175000D01*
X135763000Y-97175000D01*
X135763000Y-97155000D01*
X135743000Y-97155000D01*
X135743000Y-96901000D01*
X135763000Y-96901000D01*
X135763000Y-96881000D01*
X136017000Y-96881000D01*
X136017000Y-96901000D01*
X137216250Y-96901000D01*
X137375000Y-96742250D01*
X137377615Y-96262000D01*
X153430422Y-96262000D01*
X153977461Y-96809040D01*
%TA.AperFunction,Conductor*%
D19*
G36*
X153977461Y-96809040D02*
G01*
X153963000Y-96881740D01*
X153963000Y-97174260D01*
X154020068Y-97461158D01*
X154132010Y-97731411D01*
X154294525Y-97974632D01*
X154501368Y-98181475D01*
X154744589Y-98343990D01*
X155014842Y-98455932D01*
X155301740Y-98513000D01*
X155594260Y-98513000D01*
X155881158Y-98455932D01*
X156151411Y-98343990D01*
X156394632Y-98181475D01*
X156601475Y-97974632D01*
X156718000Y-97800240D01*
X156834525Y-97974632D01*
X157041368Y-98181475D01*
X157284589Y-98343990D01*
X157554842Y-98455932D01*
X157841740Y-98513000D01*
X158134260Y-98513000D01*
X158354408Y-98469209D01*
X159583200Y-99698002D01*
X159606999Y-99727001D01*
X159635997Y-99750799D01*
X159722723Y-99821974D01*
X159854753Y-99892546D01*
X159998014Y-99936003D01*
X160109667Y-99947000D01*
X160109676Y-99947000D01*
X160146999Y-99950676D01*
X160184322Y-99947000D01*
X165166199Y-99947000D01*
X165638199Y-100419000D01*
X165466665Y-100419000D01*
X165189426Y-100474147D01*
X164928273Y-100582320D01*
X164693241Y-100739363D01*
X164493363Y-100939241D01*
X164338000Y-101171759D01*
X164182637Y-100939241D01*
X163982759Y-100739363D01*
X163747727Y-100582320D01*
X163486574Y-100474147D01*
X163209335Y-100419000D01*
X162926665Y-100419000D01*
X162649426Y-100474147D01*
X162388273Y-100582320D01*
X162153241Y-100739363D01*
X161953363Y-100939241D01*
X161798000Y-101171759D01*
X161642637Y-100939241D01*
X161442759Y-100739363D01*
X161207727Y-100582320D01*
X160946574Y-100474147D01*
X160669335Y-100419000D01*
X160386665Y-100419000D01*
X160109426Y-100474147D01*
X159848273Y-100582320D01*
X159613241Y-100739363D01*
X159413363Y-100939241D01*
X159258000Y-101171759D01*
X159102637Y-100939241D01*
X158902759Y-100739363D01*
X158667727Y-100582320D01*
X158406574Y-100474147D01*
X158129335Y-100419000D01*
X157846665Y-100419000D01*
X157569426Y-100474147D01*
X157308273Y-100582320D01*
X157073241Y-100739363D01*
X156873363Y-100939241D01*
X156718000Y-101171759D01*
X156562637Y-100939241D01*
X156362759Y-100739363D01*
X156127727Y-100582320D01*
X155866574Y-100474147D01*
X155589335Y-100419000D01*
X155306665Y-100419000D01*
X155029426Y-100474147D01*
X154768273Y-100582320D01*
X154533241Y-100739363D01*
X154333363Y-100939241D01*
X154178000Y-101171759D01*
X154022637Y-100939241D01*
X153822759Y-100739363D01*
X153587727Y-100582320D01*
X153326574Y-100474147D01*
X153049335Y-100419000D01*
X152766665Y-100419000D01*
X152489426Y-100474147D01*
X152228273Y-100582320D01*
X151993241Y-100739363D01*
X151793363Y-100939241D01*
X151638000Y-101171759D01*
X151482637Y-100939241D01*
X151282759Y-100739363D01*
X151047727Y-100582320D01*
X150786574Y-100474147D01*
X150509335Y-100419000D01*
X150226665Y-100419000D01*
X149949426Y-100474147D01*
X149688273Y-100582320D01*
X149453241Y-100739363D01*
X149253363Y-100939241D01*
X149098000Y-101171759D01*
X148942637Y-100939241D01*
X148742759Y-100739363D01*
X148507727Y-100582320D01*
X148246574Y-100474147D01*
X147969335Y-100419000D01*
X147686665Y-100419000D01*
X147409426Y-100474147D01*
X147148273Y-100582320D01*
X146913241Y-100739363D01*
X146713363Y-100939241D01*
X146556320Y-101174273D01*
X146448147Y-101435426D01*
X146393000Y-101712665D01*
X146393000Y-101995335D01*
X146448147Y-102272574D01*
X146556320Y-102533727D01*
X146713363Y-102768759D01*
X146913241Y-102968637D01*
X147148273Y-103125680D01*
X147409426Y-103233853D01*
X147686665Y-103289000D01*
X147969335Y-103289000D01*
X148084001Y-103266191D01*
X148084000Y-107239956D01*
X147929241Y-107343363D01*
X147729363Y-107543241D01*
X147574000Y-107775759D01*
X147418637Y-107543241D01*
X147218759Y-107343363D01*
X147064000Y-107239957D01*
X147064000Y-107225322D01*
X147067676Y-107187999D01*
X147064000Y-107150676D01*
X147064000Y-107150667D01*
X147053003Y-107039014D01*
X147009546Y-106895753D01*
X146979613Y-106839753D01*
X146938974Y-106763723D01*
X146867799Y-106676997D01*
X146844001Y-106647999D01*
X146815003Y-106624201D01*
X143482873Y-103292072D01*
X144310000Y-103292072D01*
X144434482Y-103279812D01*
X144554180Y-103243502D01*
X144664494Y-103184537D01*
X144761185Y-103105185D01*
X144840537Y-103008494D01*
X144899502Y-102898180D01*
X144935812Y-102778482D01*
X144948072Y-102654000D01*
X144948072Y-101054000D01*
X144935812Y-100929518D01*
X144899502Y-100809820D01*
X144840537Y-100699506D01*
X144761185Y-100602815D01*
X144664494Y-100523463D01*
X144554180Y-100464498D01*
X144434482Y-100428188D01*
X144310000Y-100415928D01*
X143146730Y-100415928D01*
X141533804Y-98803003D01*
X141510001Y-98773999D01*
X141394276Y-98679026D01*
X141262247Y-98608454D01*
X141118986Y-98564997D01*
X141007333Y-98554000D01*
X141007322Y-98554000D01*
X140970000Y-98550324D01*
X140932678Y-98554000D01*
X135950802Y-98554000D01*
X135909802Y-98513000D01*
X136017002Y-98513000D01*
X136017002Y-98354252D01*
X136175750Y-98513000D01*
X136740000Y-98516072D01*
X136864482Y-98503812D01*
X136984180Y-98467502D01*
X137094494Y-98408537D01*
X137191185Y-98329185D01*
X137270537Y-98232494D01*
X137329502Y-98122180D01*
X137365812Y-98002482D01*
X137378072Y-97878000D01*
X137375000Y-97313750D01*
X137216250Y-97155000D01*
X136017000Y-97155000D01*
X136017000Y-97175000D01*
X135763000Y-97175000D01*
X135763000Y-97155000D01*
X135743000Y-97155000D01*
X135743000Y-96901000D01*
X135763000Y-96901000D01*
X135763000Y-96881000D01*
X136017000Y-96881000D01*
X136017000Y-96901000D01*
X137216250Y-96901000D01*
X137375000Y-96742250D01*
X137377615Y-96262000D01*
X153430422Y-96262000D01*
X153977461Y-96809040D01*
G37*
%TD.AperFunction*%
%TD*%
M02*
